<svg width="42" height="42" viewBox="0 0 42 42" fill="none" xmlns="http://www.w3.org/2000/svg">
<g id="credit_score">
<path id="Vector" d="M35 5.61523H7C5.0575 5.61523 3.5175 7.17273 3.5175 9.11523L3.5 30.1152C3.5 32.0577 5.0575 33.6152 7 33.6152H14C14.9625 33.6152 15.75 32.8277 15.75 31.8652C15.75 30.9027 14.9625 30.1152 14 30.1152H7V19.6152H38.5V9.11523C38.5 7.19023 36.925 5.61523 35 5.61523ZM35 12.6152H7V9.11523H35V12.6152ZM26.1275 32.1627L22.4175 28.4527C21.735 27.7702 20.6325 27.7702 19.95 28.4527C19.2675 29.1352 19.2675 30.2377 19.95 30.9202L24.9025 35.8727C25.585 36.5552 26.6875 36.5552 27.37 35.8727L37.275 25.9677C37.9575 25.2852 37.9575 24.1827 37.275 23.5002C36.5925 22.8177 35.49 22.8177 34.8075 23.5002L26.1275 32.1627Z" fill="#092967"/>
</g>
</svg>
