<svg width="42" height="42" viewBox="0 0 42 42" fill="none" xmlns="http://www.w3.org/2000/svg">
<g id="flight_takeoff">
<path id="Vector" d="M35.6751 32.6462H5.92507C4.96257 32.6462 4.17507 33.4337 4.17507 34.3962C4.17507 35.3587 4.96257 36.1462 5.92507 36.1462H35.6751C36.6376 36.1462 37.4251 35.3587 37.4251 34.3962C37.4251 33.4337 36.6376 32.6462 35.6751 32.6462ZM38.4226 16.2662C38.0376 14.8662 36.6026 14.0437 35.2026 14.4112L25.9101 16.8962L14.6051 6.36123C14.1326 5.90623 13.4501 5.74873 12.8201 5.92373C11.6301 6.25623 11.0701 7.62123 11.6826 8.68873L17.7026 19.1187L9.00507 21.4462L6.25757 19.2762C5.82007 18.9437 5.26007 18.8212 4.71757 18.9612L4.14007 19.1187C3.58007 19.2587 3.31757 19.9062 3.61507 20.3962L6.90507 26.0837C7.30757 26.7662 8.11257 27.0987 8.86507 26.9062L36.5501 19.4862C37.9501 19.1012 38.7901 17.6662 38.4226 16.2662Z" fill="#0F45AD"/>
</g>
</svg>
