<svg width="42" height="42" viewBox="0 0 42 42" fill="none" xmlns="http://www.w3.org/2000/svg">
<g id="handshake">
<path id="Vector" d="M21.3885 34.7463C21.0735 35.0613 20.5135 35.1138 20.146 34.7463C19.831 34.4313 19.7785 33.8713 20.146 33.5038L26.0785 27.5713L23.611 25.1038L17.6785 31.0363C17.346 31.3863 16.786 31.3688 16.436 31.0363C16.0685 30.6688 16.121 30.1088 16.436 29.7938L22.3685 23.8613L19.901 21.3938L13.9685 27.3263C13.6535 27.6413 13.0935 27.6938 12.726 27.3263C12.3935 26.9938 12.3935 26.4338 12.726 26.0838L18.6585 20.1513L16.1735 17.6838L10.241 23.6163C9.92599 23.9313 9.36599 23.9838 8.99849 23.6163C8.66599 23.2663 8.66599 22.7238 8.99849 22.3738L16.6635 14.7088L19.936 17.9638C21.5985 19.6263 24.4685 19.6088 26.131 17.9638C27.846 16.2488 27.846 13.4838 26.131 11.7688L22.876 8.51379L23.366 8.02379C24.731 6.65879 26.9535 6.65879 28.3185 8.02379L35.7385 15.4438C37.1035 16.8088 37.1035 19.0313 35.7385 20.3963L21.3885 34.7463ZM38.206 22.8813C40.936 20.1513 40.936 15.7238 38.206 12.9763L30.786 5.55629C28.056 2.82629 23.6285 2.82629 20.881 5.55629L20.391 6.04629L19.901 5.55629C17.171 2.82629 12.7435 2.82629 9.99599 5.55629L3.80099 11.7513C1.31599 14.2363 1.08849 18.1038 3.10099 20.8338L5.63849 18.2963C4.95599 16.9838 5.18349 15.3213 6.28599 14.2188L12.481 8.02379C13.846 6.65879 16.0685 6.65879 17.4335 8.02379L23.6635 14.2538C23.9785 14.5688 24.031 15.1288 23.6635 15.4963C23.296 15.8638 22.736 15.8113 22.421 15.4963L16.6635 9.75629L6.51349 19.8888C4.79849 21.5863 4.79849 24.3688 6.51349 26.0838C7.19599 26.7663 8.07099 27.1863 8.99849 27.3088C9.12099 28.2188 9.52349 29.0938 10.2235 29.7938C10.9235 30.4938 11.7985 30.8963 12.7085 31.0188C12.831 31.9288 13.2335 32.8038 13.9335 33.5038C14.6335 34.2038 15.5085 34.6063 16.4185 34.7288C16.541 35.6738 16.961 36.5313 17.6435 37.2138C18.466 38.0363 19.5685 38.4913 20.741 38.4913C21.9135 38.4913 23.016 38.0363 23.8385 37.2138L38.206 22.8813Z" fill="#145CE6"/>
</g>
</svg>
