<svg width="36" height="36" viewBox="0 0 36 36" fill="none" xmlns="http://www.w3.org/2000/svg">
<g id="inventory">
<g id="Vector">
<path d="M6.70801 9H9.70801V10.5C9.70801 12.15 11.058 13.5 12.708 13.5H21.708C23.358 13.5 24.708 12.15 24.708 10.5V9H27.708V16.5H30.708V9C30.708 7.35 29.358 6 27.708 6H21.438C20.808 4.26 19.158 3 17.208 3C15.258 3 13.608 4.26 12.978 6H6.70801C5.05801 6 3.70801 7.35 3.70801 9V30C3.70801 31.65 5.05801 33 6.70801 33H15.708V30H6.70801V9ZM17.208 6C18.033 6 18.708 6.675 18.708 7.5C18.708 8.325 18.033 9 17.208 9C16.383 9 15.708 8.325 15.708 7.5C15.708 6.675 16.383 6 17.208 6Z" fill="#145CE6"/>
<path d="M31.833 19.875C31.218 19.26 30.198 19.26 29.583 19.875L22.473 27L19.083 23.625C18.468 23.01 17.463 23.01 16.833 23.625C16.218 24.24 16.218 25.26 16.833 25.875L21.408 30.435C21.993 31.02 22.938 31.02 23.523 30.435L31.818 22.125C32.448 21.51 32.448 20.49 31.833 19.875Z" fill="#145CE6"/>
</g>
</g>
</svg>
