<svg width="168" height="168" viewBox="0 0 168 168" fill="none" xmlns="http://www.w3.org/2000/svg">
<path d="M84 166.5C38.4365 166.5 1.5 129.563 1.5 84C1.5 38.4365 38.4365 1.5 84 1.5C129.563 1.5 166.5 38.4365 166.5 84C166.5 129.563 129.563 166.5 84 166.5Z" fill="white" stroke="#DDDDDC" stroke-width="3"/>
<path d="M35.9546 32.9697L18.4805 59.1798L22.8485 62.0925L40.3226 35.8824L35.9546 32.9697ZM42.5066 37.3377L25.0325 63.5478L29.4005 66.4605L46.8746 40.2504L42.5066 37.3377ZM49.0586 41.7057L31.5866 67.9158L35.9546 70.8285L53.4287 44.6184L49.0607 41.7057H49.0586Z" fill="black"/>
<path d="M136.423 99.9498L132.055 97.0371L124.046 109.049L128.414 111.962L136.423 99.9498ZM122.59 111.235L114.581 123.247L118.949 126.16L126.958 114.148L122.59 111.235ZM134.968 116.332L142.977 104.32L138.609 101.407L130.6 113.419L134.968 116.332ZM127.687 131.983L132.055 134.896L140.065 122.884L135.697 119.971L127.687 131.983ZM145.161 105.775L137.152 117.787L141.52 120.7L149.529 108.688L145.161 105.775ZM129.145 115.603L121.135 127.615L125.503 130.528L133.513 118.516L129.145 115.603Z" fill="black"/>
<path d="M101.477 57.7229C87.0013 48.0734 67.444 51.9836 57.7945 66.4589C52.9687 73.6955 54.9259 83.4752 62.1625 88.301C69.3991 93.1268 79.1788 91.1696 84.0046 83.933C88.8304 76.6964 98.608 74.7392 105.847 79.565C113.083 84.3908 115.04 94.1684 110.215 101.407C119.864 86.9318 115.954 67.3745 101.479 57.725L101.477 57.7229Z" fill="#C60C30"/>
<path d="M105.847 79.5651C98.6103 74.7393 88.8306 76.6965 84.0048 83.9331C79.179 91.1697 69.4014 93.1269 62.1627 88.3011C54.9261 83.4753 52.9689 73.6977 57.7947 66.459C48.1452 80.9343 52.0554 100.492 66.5307 110.141C81.006 119.791 100.563 115.88 110.213 101.405C115.039 94.1685 113.081 84.3888 105.845 79.563L105.847 79.5651Z" fill="#003478"/>
<path d="M118.951 41.7057L114.583 44.6184L122.592 56.6304L126.96 53.7177L118.951 41.7057ZM124.048 58.8144L132.057 70.8264L136.425 67.9137L128.416 55.9017L124.048 58.8144ZM140.064 44.9817L132.055 32.9697L127.687 35.8824L135.696 47.8944L140.064 44.9817ZM141.52 47.1657L137.152 50.0784L145.161 62.0904L149.529 59.1777L141.52 47.1657ZM134.968 51.5337L132.784 48.2577L125.503 37.3377L121.135 40.2504L128.416 51.1704L130.6 54.4464L138.609 66.4584L142.977 63.5457L134.968 51.5337Z" fill="black"/>
<path d="M37.4099 113.419L29.4005 101.407L25.0325 104.32L33.0419 116.332L37.4099 113.419ZM32.3132 119.971L30.8579 117.787L22.8485 105.775L18.4805 108.688L35.9546 134.898L40.3226 131.985L32.3132 119.973V119.971ZM34.4972 118.516L42.5066 130.528L46.8746 127.615L38.8652 115.603L34.4972 118.516ZM35.9546 97.0373L31.5866 99.95L39.596 111.962L40.3919 113.157L49.0607 126.158L53.4287 123.245L35.9546 97.0352V97.0373Z" fill="black"/>
</svg>
