<svg width="88" height="68" viewBox="0 0 88 68" fill="none" xmlns="http://www.w3.org/2000/svg">
<g filter="url(#filter0_d_367_155)">
<mask id="mask0_367_155" style="mask-type:luminance" maskUnits="userSpaceOnUse" x="4" y="0" width="81" height="60">
<path d="M4 0H84.0039V60H4V0Z" fill="white"/>
</mask>
<g mask="url(#mask0_367_155)">
<path fill-rule="evenodd" clip-rule="evenodd" d="M4 0H84.0156V60H4V0Z" fill="white"/>
<path fill-rule="evenodd" clip-rule="evenodd" d="M12.7666 18.2236L21.0893 5.74432L23.1692 7.13143L14.8465 19.6107L12.7666 18.2236ZM15.8864 20.3043L24.2091 7.82498L26.289 9.21209L17.9663 21.6914L15.8864 20.3043ZM19.0063 22.385L27.3289 9.90565L29.4088 11.2928L21.0861 23.7721L19.0063 22.385Z" fill="#000001"/>
<path fill-rule="evenodd" clip-rule="evenodd" d="M58.5244 48.7402L66.8471 36.2609L68.927 37.648L60.6043 50.1273L58.5244 48.7402ZM61.6442 50.8209L69.9669 38.3416L72.0468 39.7287L63.7241 52.208L61.6442 50.8209ZM64.7641 52.9016L73.0867 40.4223L75.1666 41.8094L66.844 54.2887L64.7641 52.9016Z" fill="#000001"/>
<path fill-rule="evenodd" clip-rule="evenodd" d="M61.6455 41.8071L72.0449 48.7427Z" fill="black"/>
<path d="M61.6455 41.8071L72.0449 48.7427" stroke="white" stroke-width="1.25"/>
<path fill-rule="evenodd" clip-rule="evenodd" d="M31.4873 21.6938C33.6946 18.3841 37.1263 16.0868 41.0274 15.3073C44.9286 14.5278 48.9796 15.3299 52.2893 17.5372C55.599 19.7445 57.8963 23.1762 58.6758 27.0773C59.4554 30.9785 58.6532 35.0295 56.4459 38.3392L31.4873 21.6938Z" fill="#CD2E3A"/>
<path fill-rule="evenodd" clip-rule="evenodd" d="M31.4877 21.694C29.2804 25.0037 28.4783 29.0548 29.2578 32.9559C30.0373 36.857 32.3346 40.2887 35.6444 42.496C38.9541 44.7033 43.0051 45.5054 46.9062 44.7259C50.8073 43.9464 54.239 41.6491 56.4463 38.3394C57.55 36.6845 57.9511 34.659 57.5613 32.7084C57.1715 30.7579 56.0229 29.042 54.368 27.9384C52.7132 26.8347 50.6877 26.4337 48.7371 26.8234C46.7865 27.2132 45.0707 28.3618 43.967 30.0167L31.4877 21.694Z" fill="#0047A0"/>
<path d="M43.9668 30.0166C46.2651 26.5705 45.3346 21.9139 41.8885 19.6156C38.4424 17.3174 33.7857 18.2479 31.4875 21.6939C29.1893 25.14 30.1198 29.7967 33.5658 32.0949C37.0119 34.3932 41.6686 33.4627 43.9668 30.0166Z" fill="#CD2E3A"/>
<path fill-rule="evenodd" clip-rule="evenodd" d="M21.123 54.2935L12.8004 41.8141L14.8803 40.427L23.2029 52.9063L21.123 54.2935ZM24.2429 52.2128L15.9202 39.7335L18.0001 38.3464L26.3228 50.8257L24.2429 52.2128ZM27.3627 50.1321L19.04 37.6528L21.1199 36.2657L29.4426 48.745L27.3627 50.1321Z" fill="#000001"/>
<path fill-rule="evenodd" clip-rule="evenodd" d="M66.8809 23.7769L58.5582 11.2975L60.6381 9.91043L68.9607 22.3897L66.8809 23.7769ZM70.0007 21.6962L61.678 9.21687L63.7579 7.82976L72.0806 20.3091L70.0007 21.6962ZM73.1205 19.6155L64.7978 7.1362L66.8777 5.74909L75.2004 18.2284L73.1205 19.6155Z" fill="#000001"/>
<path fill-rule="evenodd" clip-rule="evenodd" d="M19.5615 46.3198L22.6814 44.2392ZM61.6792 18.2308L65.319 15.8034ZM68.4388 13.7227L71.5587 11.642Z" fill="black"/>
<path d="M19.5615 46.3198L22.6814 44.2392M61.6792 18.2308L65.319 15.8034M68.4388 13.7227L71.5587 11.642" stroke="white" stroke-width="1.25"/>
</g>
</g>
<defs>
<filter id="filter0_d_367_155" x="0" y="0" width="88.0039" height="68" filterUnits="userSpaceOnUse" color-interpolation-filters="sRGB">
<feFlood flood-opacity="0" result="BackgroundImageFix"/>
<feColorMatrix in="SourceAlpha" type="matrix" values="0 0 0 0 0 0 0 0 0 0 0 0 0 0 0 0 0 0 127 0" result="hardAlpha"/>
<feOffset dy="4"/>
<feGaussianBlur stdDeviation="2"/>
<feComposite in2="hardAlpha" operator="out"/>
<feColorMatrix type="matrix" values="0 0 0 0 0 0 0 0 0 0 0 0 0 0 0 0 0 0 0.25 0"/>
<feBlend mode="normal" in2="BackgroundImageFix" result="effect1_dropShadow_367_155"/>
<feBlend mode="normal" in="SourceGraphic" in2="effect1_dropShadow_367_155" result="shape"/>
</filter>
</defs>
</svg>
