<svg width="40" height="40" viewBox="0 0 40 40" fill="none" xmlns="http://www.w3.org/2000/svg">
<g clip-path="url(#clip0_289_132)">
<circle cx="20.0013" cy="19.9941" r="20" fill="#010101"/>
<path fill-rule="evenodd" clip-rule="evenodd" d="M23.8346 35.2419C24.7485 35.2419 25.4893 34.5076 25.4893 33.602C25.4893 32.6963 24.7485 31.9619 23.8346 31.9619H23.5853C24.4992 31.9619 25.2401 32.6963 25.2401 33.602C25.2401 34.5076 24.4992 35.2419 23.5853 35.2419H23.8346Z" fill="#EE1D51"/>
<path fill-rule="evenodd" clip-rule="evenodd" d="M23.5694 31.9619H23.3201C22.4063 31.9619 21.6654 32.6963 21.6654 33.602C21.6654 34.5076 22.4063 35.2419 23.3201 35.2419H23.5694C22.6555 35.2419 21.9147 34.5076 21.9147 33.602C21.9147 32.6963 22.6555 31.9619 23.5694 31.9619Z" fill="#66C8CF"/>
<path d="M23.5774 34.3939C24.0237 34.3939 24.3854 34.0358 24.3854 33.5939C24.3854 33.1521 24.0237 32.7939 23.5774 32.7939C23.1312 32.7939 22.7694 33.1521 22.7694 33.5939C22.7694 34.0358 23.1312 34.3939 23.5774 34.3939Z" fill="#010101"/>
<path fill-rule="evenodd" clip-rule="evenodd" d="M10.9934 31.21V32.0434H11.9677V35.2195H12.9424V32.0659H13.7354L14.0074 31.21H10.9934ZM18.9703 31.21V32.0434H19.9446V35.2195H20.9193V32.0659H21.7123L21.9842 31.21H18.9703ZM14.1888 31.683C14.1888 31.4218 14.4016 31.21 14.6643 31.21C14.9274 31.21 15.1403 31.4218 15.1403 31.683C15.1403 31.9441 14.9275 32.156 14.6643 32.156C14.4016 32.1559 14.1888 31.9441 14.1888 31.683ZM14.1888 32.4939H15.1403V35.2195H14.1888V32.4939ZM15.5483 31.21V35.2195H16.5002V34.1834L16.7948 33.9128L17.7238 35.242H18.7435L17.4064 33.3048L18.6074 32.1333H17.4518L16.5002 33.0794V31.21H15.5483ZM25.8138 31.21V35.2195H26.7658V34.1834L27.0603 33.9128L27.9896 35.242H29.0094L27.6723 33.3048L28.8733 32.1333H27.7177L26.7658 33.0794V31.21H25.8138Z" fill="white"/>
<path fill-rule="evenodd" clip-rule="evenodd" d="M25.7866 12.9891C27.5376 14.2402 29.6829 14.9763 31.9997 14.9763V10.5202C31.5612 10.5204 31.1239 10.4746 30.6949 10.3837V13.8914C28.3783 13.8914 26.2333 13.1552 24.4818 11.9042V20.9978C24.4818 25.5469 20.7922 29.2344 16.241 29.2344C14.5429 29.2344 12.9645 28.7213 11.6533 27.8413C13.1498 29.3706 15.2367 30.3194 17.5455 30.3194C22.097 30.3194 25.7868 26.6319 25.7868 22.0826L25.7866 12.9891ZM27.3962 8.49346C26.5013 7.51634 25.9138 6.25346 25.7866 4.8573V4.28418H24.5501C24.8613 6.05858 25.9229 7.57458 27.3962 8.49346ZM14.5319 24.3506C14.032 23.6954 13.7617 22.8938 13.7629 22.0696C13.7629 19.989 15.4506 18.3021 17.5327 18.3021C17.9207 18.3018 18.3064 18.3614 18.6762 18.4786V13.9229C18.2441 13.8637 17.8079 13.8386 17.3719 13.8479V17.3938C17.0019 17.2766 16.616 17.217 16.2279 17.2173C14.1458 17.2173 12.4583 18.9042 12.4583 20.985C12.4583 22.4562 13.3018 23.7301 14.5319 24.3506Z" fill="#EE1D52"/>
<path fill-rule="evenodd" clip-rule="evenodd" d="M24.4818 11.9042C26.2334 13.1552 28.3783 13.8914 30.695 13.8914V10.3837C29.4018 10.1085 28.257 9.43298 27.3962 8.49346C25.923 7.57458 24.8614 6.05858 24.5502 4.28418H21.3023V22.0824C21.295 24.1573 19.6102 25.8373 17.5326 25.8373C16.3082 25.8373 15.2206 25.2541 14.5318 24.3506C13.3017 23.7301 12.4582 22.4562 12.4582 20.985C12.4582 18.9042 14.1457 17.2173 16.2278 17.2173C16.6266 17.2173 17.0111 17.2794 17.3718 17.3938V13.8479C12.9006 13.9402 9.30457 17.5917 9.30457 22.0826C9.30457 24.3243 10.2001 26.3567 11.6534 27.8415C12.9646 28.7215 14.543 29.2346 16.241 29.2346C20.7922 29.2346 24.4818 25.5469 24.4818 20.9979V11.9042Z" fill="white"/>
<path fill-rule="evenodd" clip-rule="evenodd" d="M30.695 10.3835V9.43506C29.5289 9.43682 28.3857 9.11041 27.3963 8.49314C28.2721 9.45151 29.4254 10.1124 30.695 10.3835ZM24.5502 4.28402C24.5205 4.11446 24.4977 3.94376 24.4819 3.77234V3.19922H19.9974V20.9976C19.9902 23.0723 18.3056 24.7523 16.2278 24.7523C15.6178 24.7523 15.0419 24.6077 14.5318 24.3504C15.2206 25.2539 16.3083 25.8371 17.5326 25.8371C19.6101 25.8371 21.295 24.1571 21.3024 22.0823V4.28402H24.5502ZM17.372 13.8477V12.8379C16.9973 12.7867 16.6195 12.7611 16.2413 12.7613C11.6896 12.7613 8 16.449 8 20.9976C8 23.8495 9.45008 26.3627 11.6536 27.8411C10.2003 26.3563 9.3048 24.324 9.3048 22.0823C9.3048 17.5915 12.9006 13.94 17.372 13.8477Z" fill="#69C9D0"/>
<path fill-rule="evenodd" clip-rule="evenodd" d="M23.5966 35.2419C24.5093 35.2419 25.2494 34.5076 25.2494 33.602C25.2494 32.6963 24.5093 31.9619 23.5966 31.9619H23.574C22.6613 31.9619 21.9214 32.6963 21.9214 33.602C21.9214 34.5076 22.6613 35.2419 23.574 35.2419H23.5966ZM22.7817 33.602C22.7817 33.1614 23.1416 32.8046 23.5856 32.8046C24.0291 32.8046 24.3891 33.1614 24.3891 33.602C24.3891 34.0425 24.0291 34.3996 23.5856 34.3996C23.1416 34.3995 22.7817 34.0425 22.7817 33.602Z" fill="white"/>
</g>
<defs>
<clipPath id="clip0_289_132">
<rect width="40" height="40" fill="white"/>
</clipPath>
</defs>
</svg>
