<svg width="40" height="41" viewBox="0 0 40 41" fill="none" xmlns="http://www.w3.org/2000/svg">
<g id="VKontakte logo" clip-path="url(#clip0_349_746)">
<path id="Vector" d="M18.5698 0.551295C13.7948 0.906295 9.43979 2.87005 6.01979 6.21067C1.52229 10.5982 -0.634588 16.8107 0.162287 23.0513C1.15791 30.8538 6.66041 37.3525 14.2185 39.6513C20.0623 41.4313 26.566 40.375 31.5204 36.85C37.6079 32.5125 40.7748 25.3188 39.8348 17.9544C38.8392 10.1519 33.3367 3.65317 25.7785 1.35442C23.5292 0.666295 20.906 0.375045 18.5698 0.551295ZM20.0948 12.945C21.1179 13.0463 21.6298 13.2075 21.8598 13.5075C21.9482 13.6492 22.0194 13.8009 22.0717 13.9594C22.1917 14.3094 22.1967 14.7107 22.1217 17.7063C22.0754 19.5775 22.1029 20.1538 22.2554 20.5688C22.4354 21.0438 22.8317 21.26 23.1817 21.0813C23.5004 20.9157 24.2417 20.1 24.7254 19.3763C25.8454 17.7169 26.5273 16.4313 27.3479 14.4388C27.5135 14.0469 27.7354 13.7888 27.9654 13.7288C28.0573 13.7013 29.3617 13.6788 30.9654 13.6738L33.7998 13.6644L34.0392 13.7657C34.3479 13.9032 34.4679 14.0844 34.4679 14.4107C34.4679 15.0325 33.8179 16.3094 32.7029 17.8719C32.551 18.0888 31.9748 18.8532 31.426 19.5769C30.2135 21.1707 29.951 21.5457 29.7667 21.9319C29.5354 22.4207 29.5917 22.8213 29.9554 23.2963C30.0617 23.43 30.596 23.9694 31.1442 24.4944C32.6792 25.9644 33.3754 26.7382 33.9417 27.5869C34.3479 28.1994 34.5042 28.6513 34.4392 29.0388C34.4067 29.2513 34.1954 29.5044 33.9554 29.6288C33.6698 29.7725 33.2317 29.7994 30.8217 29.8313L28.5404 29.8638L28.1654 29.7388C27.2254 29.4263 26.5985 28.9044 25.1742 27.2544C24.3867 26.3419 23.801 25.895 23.3954 25.89C23.0223 25.89 22.5473 26.3875 22.3454 27.0057C22.2079 27.4207 22.1567 27.7382 22.1142 28.4575C22.0642 29.3057 21.9623 29.5038 21.441 29.72C21.2523 29.8032 18.9017 29.8307 18.2785 29.7663C17.0298 29.6288 15.8723 29.2363 14.7254 28.5588C13.0617 27.5819 12.0429 26.7063 10.9504 25.315C9.05166 22.89 7.76291 20.8263 6.18479 17.7107C5.57666 16.4982 4.86229 14.9313 4.74729 14.5582C4.63229 14.1707 4.79729 13.8532 5.17604 13.7332C5.30479 13.6919 6.02416 13.6688 7.68229 13.6457L10.0098 13.6225L10.2817 13.7238C10.7104 13.8894 10.8898 14.1019 11.1804 14.8069C11.4292 15.4007 12.7704 18.0932 13.1898 18.8444C13.6185 19.605 14.0748 20.2407 14.4667 20.6194C14.9504 21.0944 15.1667 21.2094 15.5085 21.1819C15.7992 21.1544 15.8835 21.09 16.0573 20.6982C16.4948 19.7532 16.5635 16.5594 16.1723 15.3057C15.9473 14.5913 15.6098 14.3194 14.6785 14.1213C14.5173 14.0838 14.5173 14.0294 14.6648 13.8125C15.0242 13.2963 15.6648 13.0475 16.886 12.9463C17.5548 12.8913 19.536 12.8863 20.0848 12.9419L20.0948 12.945Z" fill="#0077FF"/>
</g>
<defs>
<clipPath id="clip0_349_746">
<rect width="40" height="40" fill="white" transform="translate(0 0.5)"/>
</clipPath>
</defs>
</svg>
