<svg width="40" height="41" viewBox="0 0 40 41" fill="none" xmlns="http://www.w3.org/2000/svg">
<g id="Youtubelogo logo" clip-path="url(#clip0_349_732)">
<g id="Page-1">
<g id="Rozirgrish">
<g id="Group-8">
<path id="Oval" d="M19.9444 40.1131C30.9595 40.1131 39.8889 31.2078 39.8889 20.2226C39.8889 9.23733 30.9595 0.332031 19.9444 0.332031C8.92943 0.332031 0 9.23733 0 20.2226C0 31.2078 8.92943 40.1131 19.9444 40.1131Z" fill="#FF0000"/>
<path id="Rectangle" fill-rule="evenodd" clip-rule="evenodd" d="M8.07969 12.1608C9.5717 10.7472 14.1777 10.7472 19.8738 10.8675C25.5699 10.9878 30.9065 10.6527 32.1401 12.4761C33.3737 14.2995 33.4678 16.0617 33.3737 20.0857C33.2796 24.1097 33.3163 27.0641 31.6452 28.4441C29.974 29.8241 25.7708 29.5939 19.8738 29.5939C13.9769 29.5939 9.61591 29.7282 8.09127 28.4441C6.56664 27.16 6.55505 24.0879 6.55505 20.047C6.55505 16.0062 6.58767 13.5743 8.07969 12.1608Z" fill="white"/>
<path id="Triangle" fill-rule="evenodd" clip-rule="evenodd" d="M23.9502 20.2184L17.2815 24.1303V16.3066L23.9502 20.2184Z" fill="#FF0000"/>
</g>
</g>
</g>
</g>
<defs>
<clipPath id="clip0_349_732">
<rect width="40" height="41" fill="white"/>
</clipPath>
</defs>
</svg>
