<svg width="60" height="59" viewBox="0 0 60 59" fill="none" xmlns="http://www.w3.org/2000/svg">
<g id="&#236;&#156;&#160;&#235;&#139;&#136;&#236;&#138;&#164;&#237;&#138;&#184;" clip-path="url(#clip0_289_1140)">
<path id="Vector" d="M59.5535 0H0.553467V59H59.5535V0Z" fill="#001A54"/>
<g id="Group">
<g id="Group_2">
<path id="Vector_2" d="M9.06214 47.0058C9.06214 47.2111 8.97056 47.3194 8.76797 47.3194C8.56539 47.3194 8.47658 47.2111 8.47658 47.0058V45.4961H8.06586V47.0086C8.06586 47.4859 8.34337 47.6829 8.76797 47.6829C9.19257 47.6829 9.47564 47.4831 9.47564 47.0086V45.4961H9.06214V47.0058Z" fill="#43C1C3"/>
<path id="Vector_3" d="M10.4636 45.4961H10.0474V47.6552H11.1241V47.2916H10.4636V45.4961Z" fill="#43C1C3"/>
<path id="Vector_4" d="M12.2591 47.3443C12.137 47.3443 11.9871 47.2499 11.9372 46.9891L11.532 47.0779C11.643 47.5025 11.9011 47.6829 12.2396 47.6829C12.6726 47.6829 12.9279 47.4359 12.9279 47.0668C12.9279 46.3896 12.0065 46.3674 12.0065 46.04C12.0065 45.8929 12.087 45.8041 12.2341 45.8041C12.3812 45.8041 12.4672 45.8901 12.5366 46.0955L12.9057 45.9845C12.8335 45.6792 12.6115 45.46 12.2424 45.46C11.815 45.46 11.5958 45.6931 11.5958 46.0649C11.5958 46.6699 12.5144 46.6755 12.5144 47.0807C12.5144 47.2444 12.4062 47.3415 12.2618 47.3415L12.2591 47.3443Z" fill="#43C1C3"/>
<path id="Vector_5" d="M13.8493 47.1999H14.421L14.5237 47.6522H14.9177L14.3988 45.4932H13.8687L13.3331 47.6522H13.73L13.8465 47.1999H13.8493ZM14.1268 45.9622H14.1324L14.3322 46.8363H13.9242L14.1268 45.9622Z" fill="#43C1C3"/>
<path id="Vector_6" d="M16.8076 45.4961H16.4302V46.7754H16.4219L15.8502 45.4961H15.3978V47.6552H15.7725V46.2593H15.7808L16.4108 47.6552H16.8076V45.4961Z" fill="#43C1C3"/>
<path id="Vector_7" d="M19.3858 46.7754H19.383L18.8058 45.4961H18.3562V47.6552H18.7308V46.2593H18.7364L19.3691 47.6552H19.766V45.4961H19.3858V46.7754Z" fill="#43C1C3"/>
<path id="Vector_8" d="M20.7761 45.4961L20.2433 47.6552H20.6429L20.7595 47.2028H21.3312L21.4366 47.6552H21.8307L21.3117 45.4961H20.7789H20.7761ZM20.8288 46.8337L21.0342 45.9595H21.0398L21.2396 46.8337H20.8288Z" fill="#43C1C3"/>
<path id="Vector_9" d="M22.0277 45.8596H22.5106V47.6524H22.9213V45.8596H23.4014V45.4961H22.0277V45.8596Z" fill="#43C1C3"/>
<path id="Vector_10" d="M24.3061 45.4961H23.8926V47.6552H24.3061V45.4961Z" fill="#43C1C3"/>
<path id="Vector_11" d="M25.5355 45.4629C25.1358 45.4629 24.8528 45.6544 24.8528 46.1872V46.9587C24.8528 47.4915 25.1331 47.683 25.5355 47.683C25.9379 47.683 26.2182 47.4943 26.2182 46.9587V46.1872C26.2182 45.6544 25.9351 45.4629 25.5355 45.4629ZM25.8074 47.0142C25.8074 47.2529 25.6992 47.3195 25.5355 47.3195C25.3717 47.3195 25.2663 47.2529 25.2663 47.0142V46.1345C25.2663 45.8958 25.369 45.8292 25.5355 45.8292C25.702 45.8292 25.8074 45.893 25.8074 46.1345V47.0142Z" fill="#43C1C3"/>
<path id="Vector_12" d="M27.7973 46.7754H27.7917L27.2172 45.4961H26.7649V47.6552H27.1423V46.2593H27.1479L27.7778 47.6552H28.1747V45.4961H27.7973V46.7754Z" fill="#43C1C3"/>
<path id="Vector_13" d="M29.1876 45.4961L28.652 47.6552H29.0488L29.1682 47.2028H29.7398L29.8425 47.6552H30.2366L29.7176 45.4961H29.1876ZM29.2403 46.8337L29.4457 45.9595H29.4485L29.6483 46.8337H29.2403Z" fill="#43C1C3"/>
<path id="Vector_14" d="M31.7796 47.2916H31.1164V45.4961H30.7029V47.6552H31.7796V47.2916Z" fill="#43C1C3"/>
<path id="Vector_15" d="M33.5974 45.4961H33.1866V47.6552H33.5974V45.4961Z" fill="#43C1C3"/>
<path id="Vector_16" d="M35.5927 47.6552V45.4961H35.2153V46.7754H35.2097L34.6352 45.4961H34.1857V47.6552H34.5603V46.2593H34.5659L35.1958 47.6552H35.5927Z" fill="#43C1C3"/>
<path id="Vector_17" d="M37.4937 47.0697C37.4937 46.3926 36.5724 46.3704 36.5724 46.0429C36.5724 45.8958 36.6528 45.807 36.7999 45.807C36.947 45.807 37.033 45.893 37.0996 46.0984L37.4715 45.9874C37.3966 45.6821 37.1746 45.4629 36.8055 45.4629C36.3809 45.4629 36.1561 45.696 36.1561 46.0679C36.1561 46.6729 37.0802 46.6784 37.0802 47.0836C37.0802 47.2473 36.9692 47.3445 36.8249 47.3445C36.7056 47.3445 36.5557 47.2501 36.5058 46.9892L36.1006 47.078C36.2088 47.5026 36.4697 47.683 36.8055 47.683C37.2412 47.683 37.4937 47.436 37.4937 47.0669V47.0697Z" fill="#43C1C3"/>
<path id="Vector_18" d="M38.8369 47.6524V45.8596H39.3198V45.4961H37.9406V45.8596H38.4262V47.6524H38.8369Z" fill="#43C1C3"/>
<path id="Vector_19" d="M40.219 45.4961H39.8082V47.6552H40.219V45.4961Z" fill="#43C1C3"/>
<path id="Vector_20" d="M40.7074 45.8596H41.1903V47.6524H41.601V45.8596H42.0839V45.4961H40.7074V45.8596Z" fill="#43C1C3"/>
<path id="Vector_21" d="M43.9821 45.4961H43.5686V47.0058C43.5686 47.2111 43.4742 47.3194 43.2772 47.3194C43.0802 47.3194 42.9858 47.2111 42.9858 47.0058V45.4961H42.5751V47.0086C42.5751 47.4859 42.8526 47.6829 43.28 47.6829C43.7073 47.6829 43.9849 47.4831 43.9849 47.0086V45.4961H43.9821Z" fill="#43C1C3"/>
<path id="Vector_22" d="M45.8469 45.4961H44.4705V45.8596H44.9506V47.6524H45.3668V45.8596H45.8469V45.4961Z" fill="#43C1C3"/>
<path id="Vector_23" d="M47.4843 47.2916H46.735V46.7227H47.2845V46.3564H46.735V45.8596H47.4538V45.4961H46.3215V47.6552H47.4843V47.2916Z" fill="#43C1C3"/>
<path id="Vector_24" d="M49.5907 45.4629C49.1938 45.4629 48.9108 45.6544 48.9108 46.1872V46.9587C48.9108 47.4915 49.1911 47.683 49.5907 47.683C49.9903 47.683 50.2761 47.4943 50.2761 46.9587V46.1872C50.2761 45.6544 49.9959 45.4629 49.5907 45.4629ZM49.8626 47.0142C49.8626 47.2529 49.7572 47.3195 49.5907 47.3195C49.4242 47.3195 49.3243 47.2529 49.3243 47.0142V46.1345C49.3243 45.8958 49.4269 45.8292 49.5907 45.8292C49.7544 45.8292 49.8626 45.893 49.8626 46.1345V47.0142Z" fill="#43C1C3"/>
<path id="Vector_25" d="M51.8885 45.8596V45.4961H50.8118V47.6552H51.2253V46.7227H51.7442V46.3564H51.2253V45.8596H51.8885Z" fill="#43C1C3"/>
<path id="Vector_26" d="M12.1565 49.5951C12.1565 49.4481 12.237 49.3593 12.3841 49.3593C12.5312 49.3593 12.6144 49.4453 12.6838 49.6479L13.0584 49.5396C12.9863 49.2344 12.7615 49.0151 12.3924 49.0151C11.965 49.0151 11.7458 49.251 11.7458 49.6201C11.7458 50.2251 12.6644 50.2279 12.6644 50.6358C12.6644 50.7968 12.5561 50.8939 12.4118 50.8939C12.2897 50.8939 12.1399 50.7996 12.0927 50.5387L11.6875 50.6247C11.7985 51.0493 12.0566 51.2325 12.3924 51.2325C12.8253 51.2325 13.0806 50.9855 13.0806 50.6164C13.0806 49.9393 12.1593 49.9171 12.1593 49.5896L12.1565 49.5951Z" fill="#43C1C3"/>
<path id="Vector_27" d="M14.2739 49.0151C13.8743 49.0151 13.5912 49.2066 13.5912 49.7395V50.511C13.5912 51.0438 13.8743 51.2353 14.2739 51.2353C14.6735 51.2353 14.9593 51.0438 14.9593 50.511V50.4221H14.5458V50.5665C14.5458 50.8051 14.4404 50.8717 14.2767 50.8717C14.1129 50.8717 14.0075 50.8051 14.0075 50.5665V49.6895C14.0075 49.4508 14.1129 49.3842 14.2767 49.3842C14.4404 49.3842 14.5458 49.4508 14.5458 49.6895V49.7506H14.9593V49.745C14.9593 49.2122 14.6763 49.0207 14.2739 49.0207V49.0151Z" fill="#43C1C3"/>
<path id="Vector_28" d="M15.9085 49.0483H15.495V51.2074H15.9085V49.0483Z" fill="#43C1C3"/>
<path id="Vector_29" d="M16.8936 50.275H17.4431V49.9086H16.8936V49.4119H17.6124V49.0483H16.4801V51.2074H17.6429V50.8411H16.8936V50.275Z" fill="#43C1C3"/>
<path id="Vector_30" d="M19.2109 50.3277H19.2053L18.6309 49.0483H18.1813V51.2074H18.5559V49.8115H18.5615L19.1942 51.2074H19.5883V49.0483H19.2109V50.3277Z" fill="#43C1C3"/>
<path id="Vector_31" d="M20.8205 49.0151C20.4209 49.0151 20.1378 49.2066 20.1378 49.7395V50.511C20.1378 51.0438 20.4209 51.2353 20.8205 51.2353C21.2201 51.2353 21.5032 51.0438 21.5032 50.511V50.4221H21.0897V50.5665C21.0897 50.8051 20.987 50.8717 20.8205 50.8717C20.654 50.8717 20.5513 50.8051 20.5513 50.5665V49.6895C20.5513 49.4508 20.654 49.3842 20.8205 49.3842C20.987 49.3842 21.0897 49.4508 21.0897 49.6895V49.7506H21.5032V49.745C21.5032 49.2122 21.2201 49.0207 20.8205 49.0207V49.0151Z" fill="#43C1C3"/>
<path id="Vector_32" d="M22.4356 50.275H22.9879V49.9086H22.4356V49.4119H23.1572V49.0483H22.0249V51.2074H23.1877V50.8411H22.4356V50.275Z" fill="#43C1C3"/>
<path id="Vector_33" d="M25.0388 49.0483L24.506 51.2074H24.9028L25.0194 50.7523H25.5938L25.6965 51.2074H26.0934L25.5744 49.0483H25.0444H25.0388ZM25.0943 50.386L25.2969 49.5146H25.3025L25.505 50.386H25.0943Z" fill="#43C1C3"/>
<path id="Vector_34" d="M27.5947 50.3277H27.5919L27.0202 49.0483H26.5679V51.2074H26.9453V49.8115H26.9508L27.5808 51.2074H27.9777V49.0483H27.5947V50.3277Z" fill="#43C1C3"/>
<path id="Vector_35" d="M29.1266 49.0483H28.5521V51.2074H29.1266C29.6011 51.2074 29.862 51.0048 29.8814 50.4609V49.7976C29.862 49.2537 29.5984 49.0511 29.1266 49.0511V49.0483ZM29.4679 50.4109C29.4679 50.7329 29.3375 50.8411 29.1072 50.8411H28.9656V49.4119H29.1072C29.368 49.4119 29.4679 49.5368 29.4679 49.842V50.4109Z" fill="#43C1C3"/>
<path id="Vector_36" d="M31.1025 49.4119H31.5854V51.2074H31.9989V49.4119H32.479V49.0483H31.1025V49.4119Z" fill="#43C1C3"/>
<path id="Vector_37" d="M33.3698 50.275H33.9137V49.9086H33.3698V49.4119H34.0858V49.0483H32.9563V51.2074H34.1163V50.8411H33.3698V50.275Z" fill="#43C1C3"/>
<path id="Vector_38" d="M35.2874 49.0151C34.8878 49.0151 34.6047 49.2066 34.6047 49.7395V50.511C34.6047 51.0438 34.8878 51.2353 35.2874 51.2353C35.6871 51.2353 35.9701 51.0438 35.9701 50.511V50.4221H35.5566V50.5665C35.5566 50.8051 35.4512 50.8717 35.2874 50.8717C35.1237 50.8717 35.0182 50.8051 35.0182 50.5665V49.6895C35.0182 49.4508 35.1209 49.3842 35.2874 49.3842C35.4539 49.3842 35.5566 49.4508 35.5566 49.6895V49.7506H35.9701V49.745C35.9701 49.2122 35.6898 49.0207 35.2874 49.0207V49.0151Z" fill="#43C1C3"/>
<path id="Vector_39" d="M37.5048 49.9086H36.9192V49.0483H36.5057V51.2074H36.9192V50.275H37.5048V51.2074H37.9155V49.0483H37.5048V49.9086Z" fill="#43C1C3"/>
<path id="Vector_40" d="M39.5363 50.3277H39.5307L38.959 49.0483H38.5039V51.2074H38.8813V49.8115H38.8869L39.5168 51.2074H39.9137V49.0483H39.5363V50.3277Z" fill="#43C1C3"/>
<path id="Vector_41" d="M41.1458 49.0151C40.7434 49.0151 40.4603 49.2066 40.4603 49.7395V50.511C40.4603 51.0438 40.7434 51.2353 41.1458 51.2353C41.5482 51.2353 41.8257 51.0438 41.8257 50.511V49.7395C41.8257 49.2066 41.5454 49.0151 41.1458 49.0151ZM41.4122 50.5665C41.4122 50.8051 41.3095 50.8717 41.1458 50.8717C40.9821 50.8717 40.8766 50.8051 40.8766 50.5665V49.6895C40.8766 49.4508 40.9793 49.3842 41.1458 49.3842C41.3123 49.3842 41.4122 49.4508 41.4122 49.6895V50.5665Z" fill="#43C1C3"/>
<path id="Vector_42" d="M42.7721 49.0483H42.3613V51.2074H43.4409V50.8411H42.7721V49.0483Z" fill="#43C1C3"/>
<path id="Vector_43" d="M44.5648 49.0151C44.1624 49.0151 43.8849 49.2066 43.8849 49.7395V50.511C43.8849 51.0438 44.1652 51.2353 44.5648 51.2353C44.9644 51.2353 45.2475 51.0438 45.2475 50.511V49.7395C45.2475 49.2066 44.9644 49.0151 44.5648 49.0151ZM44.8312 50.5665C44.8312 50.8051 44.7258 50.8717 44.562 50.8717C44.3983 50.8717 44.2928 50.8051 44.2928 50.5665V49.6895C44.2928 49.4508 44.3955 49.3842 44.562 49.3842C44.7285 49.3842 44.8312 49.4508 44.8312 49.6895V50.5665Z" fill="#43C1C3"/>
<path id="Vector_44" d="M46.4326 49.3815C46.5824 49.3815 46.6823 49.473 46.6823 49.7478H47.0986C47.0792 49.2594 46.8544 49.0151 46.4326 49.0151C46.0329 49.0151 45.7499 49.2094 45.7499 49.7395V50.511C45.7499 51.0438 46.0302 51.2353 46.4326 51.2353C46.588 51.2353 46.7073 51.152 46.8183 51.0271L46.8821 51.2047H47.0986V50.0975H46.3937V50.4388H46.6823V50.5692C46.6823 50.7524 46.588 50.8662 46.4326 50.8662C46.2688 50.8662 46.1634 50.8023 46.1634 50.5637V49.6867C46.1634 49.4481 46.2688 49.3787 46.4326 49.3787V49.3815Z" fill="#43C1C3"/>
<path id="Vector_45" d="M48.2641 49.917L47.9005 49.0483H47.4648L48.0504 50.3305V51.2074H48.4639V50.3305L49.0522 49.0483H48.6138L48.2641 49.917Z" fill="#43C1C3"/>
</g>
<g id="Group_3">
<path id="Vector_46" d="M23.5263 54.0074C23.5263 53.5939 23.2349 53.3774 22.8103 53.3774C22.3857 53.3774 22.1332 53.6633 22.1332 53.9797V54.0796H22.5273V54.0019C22.5273 53.8409 22.6355 53.7188 22.8381 53.7188C23.0296 53.7188 23.1267 53.8409 23.1267 54.0157C23.1267 54.2433 22.9907 54.4015 22.1249 55.2229V55.5726H23.493V55.2313H22.6244C22.938 54.8955 23.5236 54.5097 23.5236 54.0046L23.5263 54.0074Z" fill="#43C1C3"/>
<path id="Vector_47" d="M27.6142 53.3774C27.1452 53.3774 26.8871 53.6661 26.8871 54.1267V54.8538C26.8871 55.3145 27.1452 55.6059 27.6142 55.6059C28.0832 55.6059 28.3385 55.3173 28.3385 54.8538V54.1267C28.3385 53.6633 28.0804 53.3774 27.6142 53.3774ZM27.9416 54.8094C27.9416 55.1619 27.8334 55.2646 27.6114 55.2646C27.3894 55.2646 27.2812 55.1619 27.2812 54.8094V54.1739C27.2812 53.8215 27.3866 53.7188 27.6114 53.7188C27.8362 53.7188 27.9416 53.8215 27.9416 54.1739V54.8094Z" fill="#43C1C3"/>
<path id="Vector_48" d="M32.3847 53.3774C31.9157 53.3774 31.6576 53.6661 31.6576 54.1267V54.8538C31.6576 55.3145 31.9157 55.6059 32.3847 55.6059C32.8537 55.6059 33.1118 55.3173 33.1118 54.8538V54.1267C33.1118 53.6633 32.8537 53.3774 32.3847 53.3774ZM32.7149 54.8094C32.7149 55.1619 32.6067 55.2646 32.3847 55.2646C32.1627 55.2646 32.0544 55.1619 32.0544 54.8094V54.1739C32.0544 53.8215 32.1627 53.7188 32.3847 53.7188C32.6067 53.7188 32.7149 53.8215 32.7149 54.1739V54.8094Z" fill="#43C1C3"/>
<path id="Vector_49" d="M37.1552 53.3773C36.664 53.3773 36.4475 53.6909 36.4475 54.1349C36.4475 54.4818 36.6445 54.776 37.022 54.776C37.194 54.776 37.355 54.7094 37.4882 54.6067V54.8065C37.4882 55.1589 37.3827 55.2616 37.1552 55.2616C37.0109 55.2616 36.8888 55.1534 36.8832 55.0063H36.4864C36.5169 55.3976 36.7805 55.6057 37.1552 55.6057C37.627 55.6057 37.8823 55.3171 37.8823 54.8537V54.1266C37.8823 53.6631 37.6242 53.3745 37.1552 53.3745V53.3773ZM37.4882 54.2931C37.3883 54.3847 37.2828 54.4679 37.1552 54.4679C36.9748 54.4679 36.8444 54.3569 36.8444 54.1183C36.8444 53.8796 36.9498 53.7186 37.1552 53.7186C37.38 53.7186 37.4882 53.8213 37.4882 54.1738V54.2931Z" fill="#43C1C3"/>
</g>
<g id="Group_4">
<path id="Vector_50" d="M32.8481 5.79733L31.5271 5.32833L32.1293 4.06008L30.8639 4.66229L30.3921 3.34131L29.9231 4.66229L28.6548 4.06008L29.2598 5.32833L27.9388 5.79733L29.2598 6.26911L28.6548 7.53181L29.9231 6.93237L30.3921 8.25335L30.8639 6.93237L32.1293 7.53181L31.5271 6.26911L32.8481 5.79733Z" fill="#43C1C3"/>
<path id="Vector_51" d="M31.4993 9.30811H29.343V33.3383H31.4993V9.30811Z" fill="#43C1C3"/>
</g>
<g id="Group_5">
<path id="Vector_52" d="M31.4993 37.5732H29.343V43.3289H31.4993V37.5732Z" fill="white"/>
<path id="Vector_53" d="M31.4993 34.7729H29.343V36.932H31.4993V34.7729Z" fill="white"/>
<path id="Vector_54" d="M47.4094 34.7783H45.2531V36.9291H47.4094V34.7783Z" fill="white"/>
<path id="Vector_55" d="M33.4392 40.1344H41.168V41.1751H33.4392V43.3258H43.3216V37.9809H35.5955V36.9318H43.3216V34.7783H33.4392V40.1344Z" fill="white"/>
<path id="Vector_56" d="M48.0587 34.7783V43.3286H50.215V36.9318H55.1271V34.7783H48.0587Z" fill="white"/>
<path id="Vector_57" d="M17.1378 43.3314H19.2941V36.9318H24.603V34.7783H17.1378V43.3314Z" fill="white"/>
<path id="Vector_58" d="M25.2496 34.7729V43.3288H27.4032V35.9496L26.2293 34.7729H25.2496Z" fill="white"/>
<path id="Vector_59" d="M13.0417 41.1753H7.73285V43.326H15.2008V34.7729H13.0417V41.1753Z" fill="white"/>
<path id="Vector_60" d="M4.93268 42.1578L6.10935 43.3317H7.08621V34.7759H4.93268V42.1578Z" fill="white"/>
</g>
</g>
</g>
<defs>
<clipPath id="clip0_289_1140">
<rect width="59" height="59" fill="white" transform="translate(0.553467)"/>
</clipPath>
</defs>
</svg>
