<svg width="64" height="63" viewBox="0 0 64 63" fill="none" xmlns="http://www.w3.org/2000/svg">
<g id="&#237;&#143;&#172;&#237;&#149;&#173;&#234;&#179;&#181;&#234;&#179;&#188;&#235;&#140;&#128;&#237;&#149;&#153;&#234;&#181;&#144;" clip-path="url(#clip0_289_689)">
<path id="Vector" d="M0.125244 31.5C0.125244 48.8672 14.2532 63 31.6252 63C48.9973 63 63.1252 48.8672 63.1252 31.5C63.1252 14.1328 48.9925 0 31.6252 0C14.258 0 0.125244 14.128 0.125244 31.5ZM0.993846 31.5C0.993846 14.6079 14.7331 0.868601 31.6252 0.868601C48.5174 0.868601 62.2566 14.6079 62.2566 31.5C62.2566 48.3921 48.5174 62.1314 31.6252 62.1314C14.7331 62.1314 0.993846 48.3873 0.993846 31.5Z" fill="#231815"/>
<g id="Group">
<path id="Vector_2" d="M13.7301 49.7213L13.7925 49.7933L14.9442 48.6367L15.5441 49.2318L12.6648 52.1255C12.3912 52.0535 12.0361 51.852 11.7146 51.5305C10.9995 50.8202 11.1291 50.1436 11.6906 49.5773C12.2569 49.011 13.0103 48.8959 13.7349 49.7213H13.7301ZM12.1321 51.1226C12.1993 51.1897 12.2665 51.2377 12.324 51.2617L13.375 50.206L13.3126 50.134C12.9383 49.7117 12.5688 49.8748 12.2761 50.1724C11.9785 50.4699 11.8106 50.8058 12.1273 51.1178L12.1321 51.1226Z" fill="#231815"/>
<path id="Vector_3" d="M12.6792 45.9923C13.2935 46.7889 12.7608 47.7295 11.8058 48.459C10.8556 49.1884 9.80468 49.4619 9.19522 48.6653C8.58576 47.8687 9.11844 46.9281 10.0686 46.1987C11.0236 45.4644 12.065 45.1957 12.6792 45.9971V45.9923ZM9.7183 48.267C9.99664 48.6317 10.6637 48.2478 11.2539 47.7919C11.849 47.336 12.3913 46.8033 12.1082 46.4338C11.8202 46.0595 11.1676 46.453 10.5725 46.9089C9.98224 47.36 9.43996 47.9119 9.7183 48.267Z" fill="#231815"/>
<path id="Vector_4" d="M10.5629 42.8445L8.95043 43.7563L9.38713 44.5289L10.9996 43.6171L11.4171 44.3562L7.70272 46.4581L7.28521 45.719L8.83046 44.8456L8.39376 44.073L6.84851 44.9464L6.42621 44.2026L10.1406 42.1055L10.5629 42.8493V42.8445Z" fill="#231815"/>
<path id="Vector_5" d="M9.12323 39.6724L8.36501 40.2147L8.75372 41.1889L9.67991 41.0641L9.95344 41.7504L5.55285 42.2302L5.26971 41.52L8.80651 38.8662L9.12803 39.6724H9.12323ZM6.84855 41.2417C6.6326 41.3856 6.37346 41.544 6.37346 41.544V41.5536C6.37346 41.5536 6.6614 41.496 6.93013 41.4528L8.17305 41.2705L7.87552 40.5266L6.84375 41.2369L6.84855 41.2417Z" fill="#231815"/>
<path id="Vector_6" d="M8.20179 36.4525L6.09028 38.2041C5.92232 38.348 5.74956 38.4584 5.74956 38.4584V38.468C5.74956 38.468 5.93191 38.4104 6.12387 38.3672L8.52812 37.7818L8.69608 38.4776L4.54983 39.4902L4.37227 38.7607L6.24384 37.1915C6.4118 37.0475 6.60376 36.9132 6.60376 36.9132V36.9036C6.60376 36.9036 6.38781 36.966 6.19105 37.0139L4.06994 37.5322L3.90198 36.8412L8.04823 35.8286L8.20179 36.4573V36.4525Z" fill="#231815"/>
<path id="Vector_7" d="M7.84669 33.5682C7.95227 34.6384 7.09806 35.2718 5.80236 35.4014C4.55465 35.5214 3.57567 35.0079 3.47489 33.9665C3.4317 33.5394 3.48929 33.2227 3.62846 32.9828L4.23312 33.1747C4.17553 33.2803 4.11315 33.4819 4.14194 33.7986C4.19473 34.3313 4.7466 34.6432 5.71598 34.5424C6.5222 34.456 7.20844 34.1825 7.16045 33.693C7.14605 33.5394 7.12206 33.4771 7.09327 33.4243L5.86955 33.5442L5.90794 33.9521L5.32247 34.0097L5.2025 32.7812L7.50117 32.5557C7.67873 32.7572 7.7987 33.0739 7.84669 33.5682Z" fill="#231815"/>
<path id="Vector_8" d="M7.88989 29.0907C7.81791 29.7866 7.29483 30.2905 6.46462 30.2089L3.44611 29.9066L3.52769 29.062L6.58459 29.3691C6.92051 29.4027 7.12686 29.2539 7.15566 28.99C7.17965 28.7212 7.00689 28.5341 6.66617 28.5005L3.61887 28.1934L3.69565 27.4111L6.71416 27.7135C7.54917 27.795 7.96187 28.3949 7.88989 29.0955V29.0907Z" fill="#231815"/>
<path id="Vector_9" d="M8.55212 25.0695L5.86954 25.6502C5.65358 25.6982 5.45203 25.7174 5.45203 25.7174V25.727C5.45203 25.727 5.63439 25.7606 5.82635 25.8086L8.2306 26.3988L8.06263 27.0899L3.91638 26.0773L4.09394 25.3479L6.479 24.82C6.69495 24.772 6.92529 24.7384 6.92529 24.7384V24.7288C6.92529 24.7288 6.70934 24.6856 6.51739 24.6424L4.39627 24.1241L4.56423 23.4331L8.71049 24.4457L8.55692 25.0743L8.55212 25.0695Z" fill="#231815"/>
<path id="Vector_10" d="M8.97447 23.7351L4.96259 22.2858L5.25052 21.4844L9.2624 22.9336L8.97447 23.7303V23.7351Z" fill="#231815"/>
<path id="Vector_11" d="M10.1454 20.9133L9.82383 21.59L5.52881 20.6878L5.89832 19.9008L8.42735 20.5726C8.67209 20.6398 8.94083 20.7358 8.94083 20.7358V20.7262C8.94083 20.7262 8.70088 20.5774 8.49933 20.4239L6.38301 18.8738L6.71894 18.1636L10.1358 20.9133H10.1454Z" fill="#231815"/>
<path id="Vector_12" d="M10.8124 19.6272L7.18445 17.3813L8.15383 15.8169L8.7105 16.1624L8.18742 17.007L9.1376 17.5973L9.5935 16.8583L10.1358 17.1942L9.67988 17.9332L10.6972 18.5619L11.2203 17.7173L11.777 18.0628L10.8076 19.6272H10.8124Z" fill="#231815"/>
<path id="Vector_13" d="M13.2071 16.1959L11.086 15.6441L11.0764 15.6537L12.6456 16.9014L12.1225 17.5636L8.92645 15.025C8.96484 14.7275 9.12321 14.3772 9.40154 14.0268C10.0302 13.235 10.6972 13.2542 11.3307 13.7629C11.7386 14.0844 11.8538 14.6507 11.6714 15.025L11.681 15.0346L13.7829 15.4713L13.2023 16.2055L13.2071 16.1959ZM9.85744 14.3772C9.79026 14.4587 9.76146 14.5259 9.74227 14.5931L10.9084 15.5193C10.942 15.4953 10.9612 15.4809 10.9852 15.4521C11.2395 15.1306 11.2059 14.7323 10.8268 14.4347C10.4477 14.1324 10.1262 14.0412 9.85744 14.3772Z" fill="#231815"/>
<path id="Vector_14" d="M14.7091 14.6459C14.3876 14.9627 14.1045 15.1066 13.8597 15.1402L13.5286 14.526C13.6534 14.5164 13.8885 14.4492 14.0853 14.2524C14.2916 14.0509 14.2916 13.7773 14.1093 13.5998C13.8933 13.379 13.663 13.3502 13.1351 13.3934C12.5256 13.4414 12.1273 13.3358 11.801 13.0047C11.2923 12.496 11.3067 11.8338 11.7818 11.3635C12.0265 11.1187 12.3193 10.97 12.5448 10.9556L12.8424 11.4738C12.7128 11.4882 12.5208 11.565 12.3529 11.733C12.1657 11.9153 12.1513 12.1649 12.3529 12.3712C12.5544 12.5728 12.7656 12.6016 13.2839 12.5584C13.9221 12.5104 14.33 12.5488 14.7091 12.9279C15.2274 13.451 15.2274 14.1372 14.7091 14.6459Z" fill="#231815"/>
<path id="Vector_15" d="M15.9616 13.3888L13.2263 10.1159L13.8789 9.56885L16.6143 12.8417L15.9616 13.3888Z" fill="#231815"/>
<path id="Vector_16" d="M16.1104 8.72894L18.1883 11.6803L17.4877 12.1746L15.405 9.22322L14.8915 9.58314L14.5124 9.04567L16.2352 7.83154L16.6143 8.36902L16.1008 8.73374L16.1104 8.72894Z" fill="#231815"/>
<path id="Vector_17" d="M19.3929 8.77241L20.2999 10.3944L19.5608 10.8071L18.649 9.18511L16.6479 7.54869L17.4157 7.11679L18.6442 8.22533H18.6538L18.3611 6.58411L19.0473 6.2002L19.3881 8.76761L19.3929 8.77241Z" fill="#231815"/>
<path id="Vector_18" d="M24.1342 8.82014C23.1792 9.13686 22.469 8.32585 22.0898 7.18371C21.7155 6.04637 21.8019 4.96662 22.7569 4.64989C23.7119 4.33316 24.4269 5.14898 24.8012 6.28632C25.1803 7.42846 25.0892 8.50341 24.139 8.82014H24.1342ZM22.9632 5.27375C22.5265 5.41771 22.6705 6.17114 22.9057 6.88138C23.1408 7.59162 23.4671 8.28266 23.9086 8.13869C24.3549 7.98993 24.2014 7.2461 23.9662 6.53106C23.7359 5.82562 23.3951 5.13458 22.9632 5.27375Z" fill="#231815"/>
<path id="Vector_19" d="M26.2265 4.47702L26.4472 5.57116L27.2966 5.3984L27.4214 6.02706L26.572 6.19502L26.9367 8.01381L26.1017 8.18177L25.2619 3.99712L27.0663 3.63721L27.1959 4.28026L26.2217 4.47702H26.2265Z" fill="#231815"/>
<path id="Vector_20" d="M30.6847 7.63968C30.2336 7.65408 29.9264 7.5629 29.7297 7.42373L29.9072 6.74709C30.0032 6.82387 30.224 6.93425 30.5023 6.92465C30.7854 6.91505 30.9726 6.71829 30.9678 6.46395C30.9582 6.15202 30.8094 5.97926 30.3967 5.65294C29.9168 5.26903 29.6961 4.9235 29.6817 4.45801C29.6577 3.73818 30.1136 3.26788 30.7854 3.24389C31.131 3.23429 31.4477 3.32067 31.6252 3.46464L31.4909 4.04531C31.3901 3.96852 31.1933 3.89174 30.9534 3.90134C30.6943 3.91094 30.5119 4.0837 30.5215 4.36683C30.5311 4.64997 30.6655 4.81313 31.0734 5.13946C31.5773 5.53776 31.846 5.84489 31.8652 6.38237C31.8892 7.1214 31.4189 7.62049 30.6943 7.64448L30.6847 7.63968Z" fill="#231815"/>
<path id="Vector_21" d="M33.7463 7.71671C32.7818 7.63992 32.4267 6.58416 32.5178 5.41803C32.609 4.28549 33.1513 3.26812 34.1159 3.3449C34.4662 3.3737 34.7109 3.48887 34.8741 3.65683L34.6629 4.20391C34.5814 4.12713 34.447 4.05994 34.2406 4.04554C33.6648 3.99756 33.444 4.77018 33.3816 5.49001C33.3288 6.19065 33.4632 6.96328 33.9959 7.00647C34.2166 7.02566 34.3462 6.97767 34.447 6.92009L34.5718 7.53915C34.399 7.67831 34.1303 7.7503 33.7463 7.7215V7.71671Z" fill="#231815"/>
<path id="Vector_22" d="M35.0565 7.80279L35.7379 3.58936L36.5777 3.72372L35.8963 7.93716L35.0565 7.80279Z" fill="#231815"/>
<path id="Vector_23" d="M36.6257 8.07163L37.6623 3.93018L39.4523 4.37647L39.2939 5.01473L38.3293 4.77478L38.0606 5.85934L38.9004 6.07049L38.7469 6.68955L37.9022 6.47839L37.6095 7.63973L38.5741 7.87967L38.4157 8.51793L36.6305 8.07163H36.6257Z" fill="#231815"/>
<path id="Vector_24" d="M40.94 9.43444L40.7096 6.69906C40.6904 6.47831 40.6952 6.27676 40.6952 6.27676H40.6856C40.6856 6.27676 40.628 6.44952 40.556 6.63668L39.6586 8.94495L38.9964 8.68581L40.5368 4.70752L41.2375 4.98106L41.4534 7.4141C41.4726 7.63485 41.4774 7.87 41.4774 7.87H41.4918C41.4918 7.87 41.559 7.66364 41.631 7.47649L42.4228 5.44175L43.0851 5.70089L41.5446 9.67918L40.9448 9.44404L40.94 9.43444Z" fill="#231815"/>
<path id="Vector_25" d="M43.3202 10.6822C42.4708 10.2215 42.5715 9.11292 43.133 8.08116C43.6753 7.08298 44.5871 6.36795 45.4317 6.83344C45.7436 7.0014 45.9212 7.20296 46.0028 7.42371L45.5853 7.84121C45.5421 7.74043 45.4461 7.62526 45.2637 7.52448C44.755 7.25095 44.2416 7.8652 43.896 8.49866C43.5601 9.11292 43.373 9.88074 43.8433 10.1351C44.04 10.2407 44.1744 10.2503 44.2896 10.2359L44.1504 10.8501C43.9344 10.9077 43.6609 10.8693 43.325 10.6822H43.3202Z" fill="#231815"/>
<path id="Vector_26" d="M44.4671 11.2818L46.8906 7.76904L48.407 8.8152L48.0327 9.35748L47.2169 8.79601L46.5835 9.7174L47.2985 10.2117L46.9338 10.7396L46.2187 10.2453L45.5373 11.2291L46.3531 11.7953L45.9788 12.3376L44.4623 11.2914L44.4671 11.2818Z" fill="#231815"/>
<path id="Vector_27" d="M48.9541 14.9868L49.434 14.1854L48.6902 13.4463L47.8936 13.931L47.3705 13.4127L51.2144 11.2148L51.7567 11.7523L49.5684 15.5962L48.9493 14.982L48.9541 14.9868ZM50.4178 12.6401C50.557 12.4194 50.7297 12.1746 50.7297 12.1746L50.7201 12.165C50.7201 12.165 50.485 12.333 50.2498 12.477L49.1797 13.1392L49.7459 13.7055L50.4082 12.6401H50.4178Z" fill="#231815"/>
<path id="Vector_28" d="M51.0848 17.5684L52.3181 15.1162C52.4141 14.9194 52.5293 14.7466 52.5293 14.7466L52.5197 14.737C52.5197 14.737 52.3805 14.857 52.2221 14.9818L50.2546 16.4791L49.8227 15.9128L53.2155 13.3262L53.6714 13.9212L52.5821 16.1047C52.4861 16.3015 52.3661 16.503 52.3661 16.503L52.3757 16.5126C52.3757 16.5126 52.5437 16.3687 52.702 16.2487L54.4392 14.9242L54.8711 15.4905L51.4783 18.0771L51.0896 17.5636L51.0848 17.5684Z" fill="#231815"/>
<path id="Vector_29" d="M52.3613 19.6946C52.131 19.2771 52.0254 18.898 52.0494 18.6245L55.4518 16.7241C55.6966 16.8633 55.9605 17.1272 56.1765 17.5111C56.7475 18.5333 56.1525 19.3875 55.0631 19.9922C54.0026 20.5872 52.9324 20.7072 52.3661 19.6898L52.3613 19.6946ZM55.6294 17.8519C55.5814 17.7655 55.5238 17.7031 55.4758 17.6695L52.8604 19.1284C52.87 19.1812 52.8988 19.2723 52.9468 19.3635C53.2012 19.8194 53.6906 19.781 54.66 19.2387C55.5718 18.7301 55.8837 18.3126 55.6294 17.8519Z" fill="#231815"/>
<path id="Vector_30" d="M57.8177 23.001L54.4008 24.1672L54.1225 23.3561L57.5393 22.19L57.3378 21.5949L57.9568 21.3838L58.6383 23.3801L58.0144 23.5913L57.8129 22.9962L57.8177 23.001Z" fill="#231815"/>
<path id="Vector_31" d="M54.7224 25.2278L58.8783 24.2632L59.2958 26.058L58.6575 26.2067L58.432 25.2422L57.3426 25.4917L57.5394 26.3363L56.9155 26.4803L56.7188 25.6357L55.5526 25.9044L55.7782 26.8738L55.1399 27.0226L54.7224 25.2278Z" fill="#231815"/>
<path id="Vector_32" d="M55.3319 28.8509C55.2119 27.8911 56.1717 27.3248 57.3378 27.1808C58.4656 27.0417 59.5741 27.3632 59.6941 28.323C59.7373 28.6733 59.6749 28.9372 59.5453 29.1292L58.9646 29.0332C59.0222 28.9372 59.0606 28.7981 59.0318 28.5869C58.9598 28.0159 58.1584 27.9535 57.4434 28.0446C56.7475 28.131 56.0181 28.4238 56.0805 28.9516C56.1093 29.1724 56.1813 29.2876 56.2581 29.3739L55.6774 29.6235C55.5046 29.4843 55.3799 29.2348 55.3319 28.8557V28.8509Z" fill="#231815"/>
<path id="Vector_33" d="M55.5334 31.8739H57.3906V30.9861H55.5334V30.1367H59.7996V30.9813H58.024V31.8691H59.7996V32.7233H55.5334V31.8691V31.8739Z" fill="#231815"/>
<path id="Vector_34" d="M55.1975 35.5406L57.8081 34.6912C58.0192 34.6192 58.2208 34.5808 58.2208 34.5808V34.5712C58.2208 34.5712 58.0384 34.5568 57.8417 34.528L55.3894 34.1825L55.4902 33.4771L59.7132 34.0721L59.6125 34.8159L57.2946 35.579C57.0834 35.651 56.8579 35.7037 56.8579 35.7037V35.7181C56.8579 35.7181 57.0786 35.7373 57.2754 35.7661L59.4397 36.0685L59.3389 36.7739L55.1111 36.1836L55.2023 35.5454L55.1975 35.5406Z" fill="#231815"/>
<path id="Vector_35" d="M54.5208 38.1605C54.804 37.1959 55.8741 37.0663 57.0259 37.4022C58.1776 37.7382 59.0174 38.4196 58.7343 39.3842C58.4559 40.3488 57.3762 40.4735 56.2293 40.1424C55.0727 39.8065 54.2377 39.125 54.5208 38.1605ZM58.1056 39.2018C58.2352 38.7603 57.5298 38.4532 56.8147 38.2468C56.0949 38.0357 55.3415 37.9157 55.2119 38.362C55.0775 38.8131 55.783 39.1107 56.5028 39.317C57.2178 39.5234 57.9809 39.6385 58.1056 39.2018Z" fill="#231815"/>
<path id="Vector_36" d="M53.9257 40.1523L57.8512 41.8224L57.5201 42.6046L54.1993 41.1937L53.8442 42.0335L53.2395 41.7744L53.9257 40.1523Z" fill="#231815"/>
<path id="Vector_37" d="M52.3805 43.233C52.8748 42.3596 53.9497 42.4796 54.9959 43.0746C56.0373 43.6649 56.6947 44.5239 56.2052 45.3973C55.7061 46.2707 54.6312 46.1459 53.5898 45.5556C52.5437 44.9606 51.8862 44.1064 52.3853 43.233H52.3805ZM55.6294 45.071C55.8549 44.6726 55.2406 44.212 54.5928 43.8424C53.9401 43.4729 53.2347 43.1802 53.0044 43.5833C52.774 43.9912 53.3883 44.4423 54.0409 44.8118C54.6888 45.1813 55.4038 45.4645 55.6246 45.071H55.6294Z" fill="#231815"/>
<path id="Vector_38" d="M50.3938 46.1987C51.0464 45.3493 52.107 45.4645 53.1387 46.2611C54.1321 47.0241 54.4968 48.0703 53.8538 48.9005C53.5946 49.2412 53.3355 49.4332 53.0716 49.5099L52.7596 48.9581C52.8748 48.9197 53.0572 48.8189 53.2539 48.5598C53.5802 48.1375 53.3883 47.528 52.6109 46.9425C51.963 46.453 51.2768 46.1843 50.9744 46.5778C50.8785 46.6978 50.8545 46.7602 50.8401 46.8178L51.8142 47.5664L52.0638 47.2401L52.5293 47.6L51.7807 48.579L49.9523 47.1729C49.9619 46.9041 50.0866 46.5874 50.389 46.1939L50.3938 46.1987Z" fill="#231815"/>
<path id="Vector_39" d="M49.7219 49.8362L48.3926 48.5309L48.9877 47.9263L50.317 49.2316L52.6925 50.2441L52.0734 50.8728L50.5857 50.1482L50.5761 50.1578L51.3152 51.6454L50.7633 52.2069L49.7171 49.8362H49.7219Z" fill="#231815"/>
</g>
<g id="Group_2">
<path id="Vector_40" d="M26.1929 51.9382L27.0807 48.7277C26.8503 48.7853 26.4088 48.7709 26.0297 48.6941L26.0585 48.243C26.8215 48.3534 27.3014 48.1854 27.5174 47.9839L28.0261 48.1231L26.9175 52.1349L26.1977 51.9334L26.1929 51.9382Z" fill="#231815"/>
<path id="Vector_41" d="M28.8995 52.5814L28.7603 52.0775C29.2258 51.9864 29.9217 51.732 30.3248 50.945C30.176 50.9786 30.0176 51.0026 29.8257 50.9834C29.1346 50.9162 28.5156 50.5035 28.602 49.5917C28.6691 48.8671 29.2066 48.3344 30.056 48.416C30.9966 48.5023 31.3229 49.2318 31.2366 50.1244C31.0638 51.9624 29.4898 52.5238 28.8995 52.5814ZM29.984 48.8671C29.5329 48.8239 29.3314 49.2318 29.2882 49.6637C29.2354 50.2156 29.4658 50.5371 30.0032 50.5851C30.2096 50.6043 30.3632 50.5659 30.4591 50.5371C30.5119 50.3739 30.5359 50.206 30.5551 50.014C30.6127 49.4141 30.4687 48.9151 29.984 48.8671Z" fill="#231815"/>
<path id="Vector_42" d="M33.2473 52.6776C32.5178 52.7352 31.8796 52.404 31.822 51.7178C31.7836 51.2331 32.0188 50.902 32.5994 50.4989C32.0475 50.2205 31.8028 49.9566 31.7692 49.5199C31.7212 48.9152 32.2251 48.4641 32.9066 48.4114C33.588 48.3586 34.1543 48.7185 34.2071 49.3232C34.2406 49.7503 34.0439 50.0526 33.54 50.4029C34.1783 50.7196 34.4614 51.0316 34.4998 51.5019C34.5526 52.1449 34.0295 52.62 33.2473 52.6824V52.6776ZM32.9545 48.8337C32.5946 48.8625 32.3787 49.1216 32.4027 49.4575C32.4267 49.7838 32.5802 49.9422 33.0649 50.187C33.5064 49.875 33.6264 49.6735 33.6024 49.3663C33.5736 49.0304 33.3097 48.8001 32.9545 48.8289V48.8337ZM33.0649 50.6045C32.5274 50.974 32.4363 51.1947 32.4651 51.5306C32.4938 51.8906 32.8202 52.1257 33.1897 52.0921C33.5832 52.0585 33.8423 51.7802 33.8135 51.4251C33.7895 51.0891 33.66 50.8828 33.0649 50.5997V50.6045Z" fill="#231815"/>
<path id="Vector_43" d="M36.7985 52.0824C35.8867 52.3175 35.3204 51.7464 35.0949 50.8826C34.6294 49.0974 35.9155 48.0273 36.453 47.7729L36.7553 48.1953C36.3522 48.4448 35.7811 48.9247 35.6707 49.8029C35.8003 49.7117 35.9443 49.6445 36.1218 49.5965C36.7937 49.4238 37.5183 49.6013 37.7439 50.4891C37.9262 51.1898 37.6143 51.8712 36.7889 52.0872L36.7985 52.0824ZM36.0834 50.0044C35.8867 50.0572 35.7475 50.1388 35.6707 50.1964C35.6851 50.3836 35.7043 50.5227 35.7571 50.7291C35.9107 51.3145 36.2082 51.7272 36.6833 51.6073C37.1152 51.4969 37.1728 51.041 37.0672 50.6283C36.928 50.0908 36.5969 49.8701 36.0786 50.0044H36.0834Z" fill="#231815"/>
</g>
<g id="Group_3">
<path id="Vector_44" d="M17.9148 51.5063C17.9148 51.5063 17.7324 51.8279 17.718 51.8471C17.7372 51.8567 18.2027 52.1254 18.2027 52.1254L17.3149 53.6659C17.3149 53.6659 16.8062 53.3731 16.7871 53.3635C16.7775 53.3827 16.6047 53.6803 16.5951 53.6994C16.6143 53.709 17.8668 54.4337 17.8668 54.4337L17.3149 55.3935C17.3149 55.3935 15.7649 54.5009 15.7457 54.4913C15.7361 54.5105 15.5681 54.8032 15.5585 54.8224C15.5777 54.832 19.3161 56.9867 19.3353 56.9963C19.3449 56.9771 19.5128 56.6844 19.5272 56.6652C19.508 56.6556 17.9628 55.7678 17.9628 55.7678L18.5147 54.808C18.5147 54.808 19.7624 55.5278 19.7816 55.5374C19.7912 55.5182 19.9639 55.2207 19.9735 55.2015C19.9543 55.1919 19.4504 54.8992 19.4504 54.8992L20.3382 53.3587C20.3382 53.3587 20.7989 53.6227 20.8181 53.6323C20.8277 53.6131 21.0053 53.3107 21.0149 53.2915C20.9957 53.2819 17.934 51.5207 17.9148 51.5111V51.5063ZM17.9676 54.0306L18.8506 52.4997L19.6952 52.9844L18.8074 54.5249L17.9628 54.0402V54.0306H17.9676Z" fill="#231815"/>
<path id="Vector_45" d="M24.3981 54.29C24.3981 54.29 23.5919 56.5503 23.5871 56.5695C23.6063 56.5743 24.2685 56.8143 24.2877 56.8191C24.2973 56.7999 24.6525 55.7921 24.6525 55.7921C24.6525 55.7921 25.3579 56.0416 25.3771 56.0512C25.3819 56.032 25.5019 55.7009 25.5115 55.6817C25.4923 55.6721 24.7868 55.4226 24.7868 55.4226C24.7868 55.4226 25.094 54.5636 25.1036 54.5396C25.0844 54.5348 24.4221 54.2948 24.4029 54.29H24.3981Z" fill="#231815"/>
<path id="Vector_46" d="M29.6769 55.5903V55.979H31.4669V57.1116C31.4669 57.1116 31.4669 57.6443 31.3277 58.0186H31.942C32.1099 57.7882 32.2059 57.4619 32.2107 57.0924V55.5951H29.6769V55.5903Z" fill="#231815"/>
<path id="Vector_47" d="M42.6771 53.0997C42.6771 53.0997 42.8691 53.4117 42.8787 53.4309C42.8979 53.4213 45.1342 52.0632 45.1342 52.0632L46.0028 53.4885C46.0028 53.4885 46.2763 53.9444 46.3531 54.3331C46.3771 54.3187 46.8666 54.0211 46.881 54.0163C46.905 53.7332 46.8186 53.4021 46.6266 53.0853C46.6266 53.0853 45.5805 51.3673 45.5709 51.3481C45.5517 51.3577 42.6963 53.0949 42.6771 53.1045V53.0997Z" fill="#231815"/>
<path id="Vector_48" d="M25.8858 54.8418C25.8858 54.8418 25.8186 55.2017 25.8186 55.2209C25.8426 55.2209 28.3812 55.6864 28.3812 55.6864L28.2948 56.1711V56.1999C28.2948 56.1999 28.2852 56.2335 28.2804 56.2527C28.2564 56.3966 28.2037 56.6414 28.1077 56.8141C28.1365 56.8189 28.7027 56.9197 28.7123 56.9245C28.8371 56.7902 28.9715 56.6174 29.0339 56.2815C29.0339 56.2815 29.1826 55.4561 29.1874 55.4369C29.1682 55.4369 25.9146 54.8418 25.8906 54.8418H25.8858Z" fill="#231815"/>
<path id="Vector_49" d="M26.8408 55.96L26.668 56.9101C26.668 56.9101 25.0604 56.6174 25.0412 56.6174C25.0412 56.6366 24.974 56.9725 24.974 56.9917C24.9932 56.9917 29.293 57.7739 29.317 57.7787C29.317 57.7596 29.3794 57.4236 29.3842 57.4044C29.365 57.4044 27.407 57.0445 27.407 57.0445C27.407 57.0445 27.575 56.1135 27.5798 56.0943C27.5606 56.0943 26.8696 55.9648 26.8456 55.96H26.8408Z" fill="#231815"/>
<path id="Vector_50" d="M32.6234 55.4463V58.2728H32.6138C32.5179 58.3016 32.4027 58.3256 32.2635 58.3448C32.1244 58.364 31.9708 58.3736 31.8028 58.3736H30.9054V56.8908H30.2096V58.3736H29.5425V58.7671H31.7692C31.9276 58.7671 32.086 58.7527 32.2299 58.7239C32.3739 58.6951 32.4987 58.6568 32.6042 58.6136H32.6186C32.6186 58.6136 32.6186 59.8949 32.6186 59.9189H33.3577V57.1163H34.0631V56.7276H33.3577V55.4559H32.6186L32.6234 55.4463Z" fill="#231815"/>
<path id="Vector_51" d="M37.36 54.8225L37.6095 55.9934L37.144 56.0942C37.144 56.0942 36.8993 54.9425 36.8945 54.9233C36.8705 54.9233 36.2226 55.0673 36.2034 55.0721C36.2034 55.0913 36.7793 57.7642 36.7793 57.7642H36.7745C36.7217 57.8074 36.6497 57.8458 36.5586 57.8842C36.4674 57.9226 36.357 57.9562 36.2274 57.985L35.4644 58.1482L34.9653 55.8159C34.9653 55.8159 35.8771 55.6191 35.9011 55.6143C35.9011 55.5951 35.8243 55.2496 35.8195 55.2304C35.8003 55.2352 34.1879 55.5807 34.1687 55.5855C34.1687 55.6047 34.735 58.2345 34.735 58.2345C34.7638 58.3689 34.831 58.4697 34.9413 58.5321C35.0469 58.5944 35.1813 58.6088 35.3396 58.5753L36.285 58.3737C36.4194 58.3449 36.5346 58.3017 36.6209 58.2537C36.7073 58.2009 36.7793 58.1481 36.8369 58.0954L36.8513 58.081C36.8513 58.081 37.12 59.3431 37.1248 59.3671C37.144 59.3671 37.7919 59.2231 37.8159 59.2183C37.8111 59.1991 37.2304 56.4733 37.2304 56.4733L37.6959 56.3726C37.6959 56.3726 38.2766 59.0935 38.2814 59.1127C38.3006 59.1127 38.9484 58.9688 38.9724 58.964C38.9724 58.9448 38.0606 54.6929 38.0558 54.6689C38.0366 54.6737 37.3888 54.8129 37.3648 54.8177L37.36 54.8225Z" fill="#231815"/>
<path id="Vector_52" d="M39.865 57.1645C39.865 57.1645 39.9993 57.5053 40.0089 57.5245C40.0281 57.5149 42.4612 56.5455 42.4612 56.5455C42.4612 56.5455 42.8787 57.5916 42.8883 57.6108C42.9075 57.6012 43.5601 57.3421 43.5793 57.3325C43.5697 57.3133 43.0178 55.9264 43.0082 55.9072C42.9891 55.9168 39.8794 57.1549 39.8602 57.1645H39.865Z" fill="#231815"/>
<path id="Vector_53" d="M41.2375 53.4741C41.2375 53.4741 42.1973 55.8735 42.2069 55.8927C42.2261 55.8831 42.8787 55.624 42.8979 55.6144C42.8883 55.5952 42.4372 54.453 42.4372 54.453C42.4372 54.453 43.1283 54.1747 43.1523 54.1699C43.1427 54.1507 43.0179 53.8292 43.0083 53.81C42.9891 53.8196 42.2932 54.0931 42.2932 54.0931C42.2932 54.0931 41.9429 53.2101 41.9333 53.1909C41.9141 53.2005 41.2615 53.4597 41.2423 53.4693L41.2375 53.4741Z" fill="#231815"/>
<path id="Vector_54" d="M44.947 53.93L45.8684 55.4464L45.5133 55.6624C45.5133 55.6624 44.6063 54.1651 44.5919 54.1459C44.5727 54.1555 43.9969 54.5058 43.9777 54.5202C43.9873 54.5394 44.8991 56.0367 44.8991 56.0367C44.8991 56.0367 44.2992 56.4014 44.28 56.411C44.2896 56.4302 44.4671 56.7181 44.4767 56.7373C44.4959 56.7277 47.9799 54.6114 47.9991 54.597C47.9895 54.5778 47.812 54.2899 47.8024 54.2707C47.7832 54.2803 46.4779 55.0721 46.4779 55.0721C46.4779 55.0721 45.5661 53.5749 45.5565 53.5557C45.5373 53.5653 44.9614 53.9156 44.9422 53.93H44.947Z" fill="#231815"/>
<path id="Vector_55" d="M21.3508 57.0591C21.1493 57.6205 21.514 58.1628 22.277 58.4315C23.04 58.7051 23.6639 58.5131 23.8606 57.9516C24.0622 57.3902 23.6975 56.8479 22.9344 56.5792C22.1714 56.3056 21.5476 56.4976 21.3508 57.0591ZM22.0227 57.299C22.1426 56.9583 22.4594 56.8095 22.8097 56.9343C23.16 57.0591 23.3136 57.371 23.1936 57.7117C23.0736 58.0524 22.7569 58.2012 22.4066 58.0764C22.0563 57.9516 21.9027 57.6397 22.0275 57.299H22.0227Z" fill="#231815"/>
<path id="Vector_56" d="M25.6026 58.3355C25.497 58.9258 25.9385 59.396 26.74 59.5448C27.5366 59.6888 28.122 59.4008 28.2276 58.8154C28.3332 58.2251 27.8869 57.7548 27.0903 57.6109C26.2937 57.4669 25.7082 57.7548 25.6026 58.3403V58.3355ZM26.3033 58.4651C26.3656 58.1099 26.6584 57.9132 27.0231 57.9804C27.3878 58.0476 27.5894 58.3307 27.527 58.6858C27.4598 59.0409 27.1719 59.2377 26.8071 59.1705C26.4424 59.1033 26.2409 58.8202 26.3033 58.4651Z" fill="#231815"/>
<path id="Vector_57" d="M22.2914 53.4839L22.1331 53.9206C22.1331 53.9206 21.1733 53.5799 21.1541 53.5703C21.1493 53.5895 21.0341 53.9062 21.0293 53.9254C21.0485 53.9302 21.586 54.1221 21.586 54.1221L21.562 54.1317C21.3268 54.2277 21.1541 54.4245 21.0581 54.6932C20.8565 55.2643 21.1301 55.7442 21.7971 55.9841C22.4594 56.2193 22.9825 56.0225 23.184 55.4514C23.28 55.1779 23.2656 54.9188 23.1456 54.698L23.1312 54.674C23.1312 54.674 23.6735 54.866 23.6927 54.8756C23.6975 54.8564 23.8127 54.5396 23.8175 54.5205C23.7983 54.5157 22.8385 54.1701 22.8385 54.1701C22.8385 54.1701 22.9873 53.7526 22.9969 53.7334C22.9777 53.7238 22.3154 53.4887 22.2962 53.4839H22.2914ZM21.6724 54.9188C21.7971 54.578 22.0323 54.4293 22.3106 54.53C22.5889 54.6308 22.6849 54.8948 22.5602 55.2355C22.4402 55.5762 22.2002 55.725 21.9219 55.6242C21.6436 55.5234 21.5476 55.2643 21.6724 54.9188Z" fill="#231815"/>
<path id="Vector_58" d="M39.1979 54.2324L39.3707 54.6643C39.3707 54.6643 38.4253 55.0434 38.4013 55.0482C38.4109 55.0674 38.5357 55.3793 38.5405 55.3985C38.5597 55.3889 39.0923 55.1777 39.0923 55.1777L39.0827 55.2017C38.9724 55.4273 38.9676 55.6912 39.0732 55.9552C39.2987 56.5166 39.8218 56.699 40.4792 56.4351C41.1367 56.1759 41.391 55.6816 41.1703 55.1202C41.0647 54.8514 40.8823 54.6643 40.6424 54.5779L40.6184 54.5683C40.6184 54.5683 41.1511 54.3571 41.1703 54.3475C41.1655 54.3283 41.0407 54.0164 41.0311 53.9972C41.0119 54.0068 40.0617 54.3811 40.0617 54.3811C40.0617 54.3811 39.8986 53.9684 39.889 53.9492C39.8698 53.9588 39.2171 54.218 39.1979 54.2276V54.2324ZM39.6826 55.72C39.5482 55.3841 39.6298 55.1154 39.9034 55.005C40.1769 54.8946 40.4216 55.0338 40.556 55.3697C40.6904 55.7056 40.6088 55.9744 40.3353 56.0847C40.0617 56.1951 39.817 56.0559 39.6826 55.72Z" fill="#231815"/>
</g>
<path id="Vector_59" d="M53.0907 31.164C53.0907 25.9956 51.008 20.7792 47.8503 17.3288C48.9973 20.2369 46.8666 25.6789 42.8307 31.116C41.1415 28.9325 39.1787 26.8162 36.9952 24.8247C35.3108 23.289 33.5592 21.8925 31.7836 20.6688C37.4991 16.4794 43.2578 14.2719 46.1995 15.5916C42.466 12.1028 37.0288 9.93848 31.6349 9.93848C26.2409 9.93848 20.8037 12.098 17.0702 15.5916C20.0119 14.2767 25.7706 16.4842 31.4861 20.6688C29.7105 21.8925 27.9589 23.289 26.2745 24.8247C24.091 26.8162 22.1234 28.9325 20.439 31.116C16.4031 25.6789 14.2724 20.2321 15.4194 17.3288C12.2617 20.7792 10.179 25.9956 10.179 31.164C10.179 36.3324 11.7482 41.2129 15.069 45.22C14.2964 41.76 16.3647 36.8459 20.439 31.4951C21.8307 33.3427 23.6447 35.1519 25.3915 36.8843C27.0231 38.5016 28.7219 39.9748 30.4543 41.2897C30.7231 41.4913 30.9918 41.6928 31.2605 41.8896C30.056 42.8877 26.4472 45.0185 25.2811 45.5415L25.5162 45.9399C27.5702 44.9705 30.3631 43.0989 31.6396 42.1871C32.4507 42.7966 35.7859 45.0425 37.8062 45.9494L38.0414 45.5559C35.8867 44.577 32.753 42.4175 32.0188 41.8944C32.2875 41.6976 32.5562 41.4961 32.825 41.2945C34.5622 39.9796 36.261 38.5064 37.8878 36.8891C39.6346 35.1567 41.4534 33.3427 42.8403 31.5C46.9146 36.8507 48.9445 41.6784 48.0951 45.3304C51.4687 41.4529 53.1003 36.1453 53.1003 31.164H53.0907ZM31.6301 21.1535C33.3385 22.3436 35.0661 23.6873 36.6929 25.1654C38.8284 27.109 40.7432 29.1773 42.394 31.3032C41.0359 33.098 39.2603 34.864 37.5615 36.5484C36.8513 37.249 36.1314 37.9257 35.402 38.5687C34.6534 39.2262 33.8951 39.8596 33.1273 40.4595C32.6378 40.8434 32.1243 41.2129 31.6301 41.5681C31.1358 41.2129 30.6175 40.8434 30.128 40.4595C29.3602 39.8548 28.6019 39.2262 27.8533 38.5687C27.1239 37.9209 26.404 37.249 25.6938 36.5484C23.995 34.864 22.2194 33.098 20.8613 31.3032C22.5169 29.1725 24.4317 27.109 26.5624 25.1654C28.1844 23.6873 29.9168 22.3388 31.6253 21.1535H31.6301Z" fill="url(#paint0_radial_289_689)"/>
<path id="Vector_60" d="M33.0409 36.5052C36.0787 34.8591 34.7734 31.5719 34.5238 31.1688C34.399 31.759 34.0439 31.9414 33.804 32.2629C33.4825 32.6996 33.3817 33.026 33.3673 33.5682C33.3673 33.5682 32.705 32.6229 33.7512 31.3319C34.7206 30.1322 34.1495 28.9709 33.1417 28.3518C33.1417 28.3518 33.6888 29.6043 32.4315 30.5593C31.1742 31.5191 31.4093 32.834 31.4237 33.0068C31.4237 33.0068 30.6511 31.8886 31.774 30.3434C33.0889 28.5246 31.4285 27.4688 31.1742 27.3105C31.6349 28.3614 30.8527 29.3212 30.2864 29.9115C28.6452 31.6199 27.5222 35.0703 31.6061 36.51V42.2543H26.5096V26.3843H33.0553C35.1573 26.3843 37.9454 27.9535 37.9454 31.5095C37.9454 35.0655 34.9365 36.51 33.0409 36.51V36.5052Z" fill="#C9005F"/>
</g>
<defs>
<radialGradient id="paint0_radial_289_689" cx="0" cy="0" r="1" gradientUnits="userSpaceOnUse" gradientTransform="translate(17.8357 16.541) scale(42.43 42.43)">
<stop stop-color="#FABE00"/>
<stop offset="0.04" stop-color="#F6AF07"/>
<stop offset="0.23" stop-color="#E67126"/>
<stop offset="0.39" stop-color="#D9403E"/>
<stop offset="0.54" stop-color="#D01D50"/>
<stop offset="0.66" stop-color="#CB075B"/>
<stop offset="0.74" stop-color="#C9005F"/>
<stop offset="0.81" stop-color="#CA0A62"/>
<stop offset="0.92" stop-color="#CD266A"/>
<stop offset="1" stop-color="#D03F72"/>
</radialGradient>
<clipPath id="clip0_289_689">
<rect width="63" height="63" fill="white" transform="translate(0.125244)"/>
</clipPath>
</defs>
</svg>
