<svg width="62" height="63" viewBox="0 0 62 63" fill="none" xmlns="http://www.w3.org/2000/svg">
<mask id="mask0_289_874" style="mask-type:luminance" maskUnits="userSpaceOnUse" x="0" y="0" width="62" height="63">
<path d="M0.125244 31.4998C0.125244 48.4607 13.8808 62.2139 30.8417 62.2139C47.8026 62.2139 61.5535 48.463 61.5535 31.4998C61.5535 14.5366 47.8003 0.785645 30.8417 0.785645C13.8831 0.785645 0.125244 14.5366 0.125244 31.4998Z" fill="white"/>
</mask>
<g mask="url(#mask0_289_874)">
<path d="M61.5512 0.785645H0.125244V62.2139H61.5512V0.785645Z" fill="url(#paint0_radial_289_874)"/>
</g>
<mask id="mask1_289_874" style="mask-type:luminance" maskUnits="userSpaceOnUse" x="0" y="0" width="62" height="63">
<path d="M0.36023 31.5009C0.36023 14.6954 14.0332 1.02293 30.8417 1.02293C47.6501 1.02293 61.3185 14.6954 61.3185 31.5009C61.3185 48.3064 47.6478 61.9789 30.8417 61.9789C14.0355 61.9789 0.36023 48.3064 0.36023 31.5009ZM0.125244 31.5009C0.125244 48.4355 13.9042 62.2139 30.8417 62.2139C47.7791 62.2139 61.5535 48.4355 61.5535 31.5009C61.5535 14.5664 47.7768 0.785645 30.8417 0.785645C13.9065 0.785645 0.125244 14.5641 0.125244 31.5009Z" fill="white"/>
</mask>
<g mask="url(#mask1_289_874)">
<path d="M61.5535 0.785645H0.125244V62.2139H61.5535V0.785645Z" fill="url(#paint1_radial_289_874)"/>
</g>
<mask id="mask2_289_874" style="mask-type:luminance" maskUnits="userSpaceOnUse" x="1" y="2" width="60" height="59">
<path d="M1.45221 31.5008C1.45221 47.7304 14.6115 60.8868 30.8394 60.8868C47.0673 60.8868 60.2265 47.7304 60.2265 31.5008C60.2265 15.2712 47.0673 2.11475 30.8394 2.11475C14.6115 2.11475 1.45221 15.2712 1.45221 31.5008Z" fill="white"/>
</mask>
<g mask="url(#mask2_289_874)">
<path d="M30.8391 -27.2704L-27.9345 31.501L30.8391 90.2724L89.6127 31.501L30.8391 -27.2704Z" fill="url(#paint2_linear_289_874)"/>
</g>
<mask id="mask3_289_874" style="mask-type:luminance" maskUnits="userSpaceOnUse" x="1" y="2" width="59" height="59">
<path d="M1.81372 31.5013C1.81372 47.5305 14.8117 60.5257 30.8392 60.5257C46.8666 60.5257 59.8646 47.5328 59.8646 31.5013C59.8646 15.4698 46.8689 2.47461 30.8392 2.47461C14.8094 2.47461 1.81372 15.4698 1.81372 31.5013Z" fill="white"/>
</mask>
<g mask="url(#mask3_289_874)">
<path d="M59.8623 2.47461H1.81372V60.5257H59.8623V2.47461Z" fill="url(#paint3_radial_289_874)"/>
</g>
<mask id="mask4_289_874" style="mask-type:luminance" maskUnits="userSpaceOnUse" x="10" y="11" width="42" height="41">
<path d="M10.5841 31.5011C10.5841 42.6879 19.6518 51.7576 30.8413 51.7576C42.0308 51.7576 51.094 42.6879 51.094 31.5011C51.094 20.3143 42.0262 11.2446 30.8413 11.2446C19.6564 11.2446 10.5841 20.3143 10.5841 31.5011Z" fill="white"/>
</mask>
<g mask="url(#mask4_289_874)">
<path d="M30.8359 -9.00666L-9.67468 31.5024L30.8359 72.0115L71.3465 31.5024L30.8359 -9.00666Z" fill="url(#paint4_linear_289_874)"/>
</g>
<mask id="mask5_289_874" style="mask-type:luminance" maskUnits="userSpaceOnUse" x="11" y="11" width="40" height="41">
<path d="M11.0822 31.4825C11.0822 42.3928 19.9311 51.2414 30.8418 51.2414C41.7526 51.2414 50.5968 42.3928 50.5968 31.4825C50.5968 20.5722 41.7526 11.7236 30.8418 11.7236C19.9311 11.7236 11.0822 20.5722 11.0822 31.4825Z" fill="white"/>
</mask>
<g mask="url(#mask5_289_874)">
<path d="M50.5945 11.7236H11.0822V51.2414H50.5945V11.7236Z" fill="url(#paint5_radial_289_874)"/>
</g>
<mask id="mask6_289_874" style="mask-type:luminance" maskUnits="userSpaceOnUse" x="17" y="22" width="28" height="13">
<path d="M39.5888 22.535V23.5095H27.7474V22.535H24.9252V23.5095H17.4932V26.0159H19.7302C18.1797 26.6932 17.1799 28.1722 17.1799 30.3331C17.1799 33.2311 19.9076 34.8806 22.1031 34.8806H30.3023V34.0006H32.6245V34.8806H44.3485V32.3741H42.4179V26.0136H44.3485V23.5072H42.4179V22.5327H39.5958L39.5888 22.535Z" fill="white"/>
</mask>
<g mask="url(#mask6_289_874)">
<path d="M44.3413 22.5352H17.175V34.883H44.3413V22.5352Z" fill="url(#paint6_radial_289_874)"/>
</g>
<mask id="mask7_289_874" style="mask-type:luminance" maskUnits="userSpaceOnUse" x="16" y="21" width="30" height="16">
<path d="M38.9344 22.8393V21.8211C39.1578 21.8211 43.0512 21.8142 43.2747 21.8118V22.8393H45.1846C45.1846 23.0605 45.1776 26.4999 45.1753 26.7233H43.2079V31.8353H45.1684C45.1684 32.0564 45.1753 35.5442 45.1753 35.77C44.9381 35.77 32.2856 35.747 32.0506 35.747V34.8485H31.0439V35.77H22.0752C20.322 35.77 18.638 34.996 17.675 33.752C16.8456 32.7844 16.3572 31.5358 16.3572 30.4047C16.3572 28.9027 16.7397 27.7623 17.5598 26.8178L17.7349 26.6174C17.7349 26.6174 16.9216 26.6197 16.742 26.6197V22.8393H24.273V21.8211C24.4965 21.8211 28.3208 21.828 28.5443 21.8303V22.8393H38.9344ZM38.6902 21.5769V22.5951H28.7862V21.5861L24.0288 21.5769V22.5951H16.4978V26.8616C16.4978 26.8616 16.9815 26.8616 17.2281 26.8616C16.477 27.8107 16.1107 28.9395 16.1107 30.4047C16.1107 31.5911 16.6245 32.8996 17.4838 33.904C18.4859 35.2033 20.2483 36.0119 22.0729 36.0119H31.2835V35.0904H31.8064V35.9888L45.4195 36.0119L45.4103 31.5934H43.4521V26.9675H45.4195L45.4288 22.5997H43.5189V21.5723L38.6925 21.5815L38.6902 21.5769Z" fill="white"/>
</mask>
<g mask="url(#mask7_289_874)">
<path d="M45.4265 21.5698H16.1107V36.0094H45.4265V21.5698Z" fill="url(#paint7_radial_289_874)"/>
</g>
<mask id="mask8_289_874" style="mask-type:luminance" maskUnits="userSpaceOnUse" x="22" y="25" width="18" height="9">
<path d="M22.9817 30.2064V31.7384C22.9817 32.5078 23.4817 32.9755 24.2949 32.9755L28.2298 32.9801V32.3166H24.2281V30.2041H22.9817V30.2064ZM23.1799 27.9856C23.1799 27.3268 23.6337 26.8269 24.1958 26.8269C24.758 26.8269 25.2118 27.3268 25.2118 27.9856C25.2118 28.6445 24.758 29.1467 24.1958 29.1467C23.6337 29.1467 23.1799 28.6583 23.1799 27.9856ZM22.0856 26.069V26.7324H22.8804C22.4012 27.0273 22.1017 27.4788 22.1017 27.9879C22.1017 28.8749 23.0025 29.5936 24.1935 29.5936C25.3846 29.5936 26.2854 28.8749 26.2854 27.9879C26.2854 27.4788 25.9882 27.0273 25.509 26.7324H26.3061V26.069H22.0833H22.0856ZM33.7911 27.1217C33.7911 26.35 34.2887 25.8317 34.8992 25.8317C35.5097 25.8317 36.0097 26.35 36.0097 27.1217C36.0097 27.8935 35.512 28.4164 34.8992 28.4164C34.2864 28.4164 33.7911 27.9119 33.7911 27.1217ZM32.6185 27.1217C32.6185 28.1515 33.6022 28.9831 34.8992 28.9831C36.1963 28.9831 37.1823 28.1515 37.1823 27.1217C37.1823 26.092 36.2009 25.2604 34.8992 25.2604C33.5976 25.2604 32.6185 26.0943 32.6185 27.1217ZM23.0762 25.7925H25.3224V25.1313H23.0762V25.7925ZM27.0065 25.1337V30.5312H28.1537V27.7184H29.0891V27.0572H28.1537V25.1337H27.0065ZM34.8486 31.3629C34.8486 30.6142 35.4775 30.1649 36.1732 30.1649C36.869 30.1649 37.4979 30.6142 37.4979 31.3629C37.4979 32.1116 36.8713 32.5608 36.1732 32.5608C35.4752 32.5608 34.8486 32.1047 34.8486 31.3629ZM37.5002 25.1337V29.8171C37.1178 29.6351 36.6639 29.5291 36.1755 29.5291C34.8048 29.5291 33.7105 30.3538 33.7036 31.3652C33.7105 32.3765 34.8048 33.2012 36.1755 33.2012C37.5463 33.2012 38.6383 32.3765 38.6475 31.3652V28.3796H39.6197V27.7184H38.6475V26.767H39.6197V26.1035H38.6475V25.1337H37.4979H37.5002Z" fill="white"/>
</mask>
<g mask="url(#mask8_289_874)">
<path d="M39.6203 25.1338H22.0862V33.1991H39.6203V25.1338Z" fill="url(#paint8_radial_289_874)"/>
</g>
<mask id="mask9_289_874" style="mask-type:luminance" maskUnits="userSpaceOnUse" x="54" y="34" width="2" height="4">
<path d="M54.3449 35.8065C54.3357 36.5967 54.8287 37.2394 54.8287 37.2394C54.8287 37.2394 55.3355 36.6059 55.3425 35.8157C55.3517 35.0278 54.861 34.3828 54.861 34.3828C54.861 34.3828 54.3541 35.0186 54.3449 35.8065Z" fill="white"/>
</mask>
<g mask="url(#mask9_289_874)">
<path d="M55.3397 34.2509L53.9952 34.416L54.356 37.3542L55.7005 37.1891L55.3397 34.2509Z" fill="url(#paint9_radial_289_874)"/>
</g>
<mask id="mask10_289_874" style="mask-type:luminance" maskUnits="userSpaceOnUse" x="54" y="36" width="4" height="5">
<path d="M55.4667 37.6701C54.5153 38.7482 54.3195 40.1305 54.3195 40.1305C54.3195 40.1305 55.6672 39.7665 56.6186 38.6906C57.5701 37.6125 57.7106 36.3662 57.7106 36.3662C57.7106 36.3662 56.4182 36.5966 55.4644 37.6724" fill="white"/>
</mask>
<g mask="url(#mask10_289_874)">
<path d="M57.6632 35.9556L53.8649 36.4199L54.3684 40.5382L58.1667 40.0739L57.6632 35.9556Z" fill="url(#paint10_radial_289_874)"/>
</g>
<mask id="mask11_289_874" style="mask-type:luminance" maskUnits="userSpaceOnUse" x="52" y="35" width="3" height="5">
<path d="M52.8355 37.9747C53.1119 39.1634 53.9482 39.9836 53.9482 39.9836C53.9482 39.9836 54.2892 38.9907 54.0127 37.8043C53.7386 36.6132 52.8839 35.959 52.8839 35.959C52.8839 35.959 52.5613 36.786 52.8355 37.9724" fill="white"/>
</mask>
<g mask="url(#mask11_289_874)">
<path d="M54.2608 35.7557L52.0746 36.0229L52.5849 40.1961L54.771 39.9289L54.2608 35.7557Z" fill="url(#paint11_radial_289_874)"/>
</g>
<mask id="mask12_289_874" style="mask-type:luminance" maskUnits="userSpaceOnUse" x="52" y="40" width="5" height="4">
<path d="M54.1102 41.4992C52.986 42.3953 52.5529 43.7222 52.5529 43.7222C52.5529 43.7222 53.9443 43.5955 55.0663 42.6994C56.1928 41.8033 56.5499 40.603 56.5499 40.603C56.5499 40.603 55.2368 40.603 54.1102 41.4969" fill="white"/>
</mask>
<g mask="url(#mask12_289_874)">
<path d="M56.4919 40.124L56.9273 43.6786L52.6123 44.2062L52.1769 40.6516L56.4919 40.124Z" fill="url(#paint12_radial_289_874)"/>
</g>
<mask id="mask13_289_874" style="mask-type:luminance" maskUnits="userSpaceOnUse" x="51" y="39" width="2" height="5">
<path d="M51.4678 41.3174C51.5324 42.5361 52.2143 43.4898 52.2143 43.4898C52.2143 43.4898 52.7211 42.5729 52.6566 41.3497C52.5921 40.1333 51.8618 39.3408 51.8618 39.3408C51.8618 39.3408 51.401 40.101 51.4655 41.3174" fill="white"/>
</mask>
<g mask="url(#mask13_289_874)">
<path d="M52.7008 39.1845L50.9011 39.4048L51.421 43.6511L53.2207 43.4307L52.7008 39.1845Z" fill="url(#paint13_radial_289_874)"/>
</g>
<mask id="mask14_289_874" style="mask-type:luminance" maskUnits="userSpaceOnUse" x="44" y="50" width="6" height="3">
<path d="M47.0807 51.0272C45.7584 51.3313 44.8461 52.2827 44.8461 52.2827C44.8461 52.2827 46.0832 52.7435 47.401 52.4417C48.7257 52.1376 49.5182 51.2622 49.5182 51.2622C49.5182 51.2622 48.8362 50.9351 47.9078 50.9351C47.6498 50.9351 47.371 50.9604 47.0807 51.0249" fill="white"/>
</mask>
<g mask="url(#mask14_289_874)">
<path d="M49.4407 50.379L44.6202 50.9683L44.9071 53.3144L49.7276 52.7251L49.4407 50.379Z" fill="url(#paint14_radial_289_874)"/>
</g>
<mask id="mask15_289_874" style="mask-type:luminance" maskUnits="userSpaceOnUse" x="44" y="48" width="3" height="4">
<path d="M44.7775 49.6544C44.3006 50.8063 44.508 51.9811 44.508 51.9811C44.508 51.9811 45.3765 51.3591 45.858 50.2119C46.3349 49.067 46.0147 48.0142 46.0147 48.0142C46.0147 48.0142 45.2567 48.5118 44.7798 49.6521" fill="white"/>
</mask>
<g mask="url(#mask15_289_874)">
<path d="M46.3027 47.7738L43.8215 48.0771L44.3292 52.2298L46.8104 51.9264L46.3027 47.7738Z" fill="url(#paint15_radial_289_874)"/>
</g>
<mask id="mask16_289_874" style="mask-type:luminance" maskUnits="userSpaceOnUse" x="41" y="53" width="5" height="2">
<path d="M41.3488 54.0082C41.3488 54.0082 42.397 54.7016 43.6871 54.7062C44.9818 54.7085 45.9057 54.0658 45.9057 54.0658C45.9057 54.0658 44.9841 53.3286 43.6917 53.3286H43.671C42.3878 53.3286 41.3488 54.0105 41.3488 54.0105" fill="white"/>
</mask>
<g mask="url(#mask16_289_874)">
<path d="M45.845 52.7749L41.1866 53.3428L41.4197 55.2545L46.078 54.6867L45.845 52.7749Z" fill="url(#paint16_radial_289_874)"/>
</g>
<mask id="mask17_289_874" style="mask-type:luminance" maskUnits="userSpaceOnUse" x="41" y="50" width="3" height="4">
<path d="M41.8925 51.3846C41.1691 52.3936 41.1046 53.587 41.1046 53.587C41.1046 53.587 42.0952 53.1792 42.814 52.1679C43.542 51.1612 43.466 50.0669 43.466 50.0669C43.466 50.0669 42.6136 50.3756 41.8902 51.3846" fill="white"/>
</mask>
<g mask="url(#mask17_289_874)">
<path d="M43.5033 49.7756L40.6769 50.1216L41.1377 53.8854L43.9641 53.5394L43.5033 49.7756Z" fill="url(#paint17_radial_289_874)"/>
</g>
<mask id="mask18_289_874" style="mask-type:luminance" maskUnits="userSpaceOnUse" x="35" y="52" width="7" height="7">
<path d="M38.0131 55.8554C37.6076 55.6596 37.4394 55.1666 37.6376 54.7634C37.838 54.358 38.3264 54.1921 38.7342 54.3902C39.1396 54.5906 39.3055 55.079 39.1074 55.4845C38.9645 55.7724 38.6766 55.9383 38.3748 55.9383C38.2527 55.9383 38.1283 55.9107 38.0131 55.8531M38.3241 53.4019C38.1628 53.7244 38.0914 54.0562 38.1052 54.3349C37.944 54.1092 37.6905 53.8857 37.3657 53.7268C36.6884 53.3927 35.7254 53.3236 35.5296 53.7221C35.3292 54.1253 35.9719 54.844 36.6492 55.1758C36.9764 55.3347 37.3035 55.4061 37.5846 55.3946C37.3565 55.5536 37.1353 55.8093 36.9764 56.1341C36.6423 56.8137 36.5686 57.7744 36.9718 57.9679C37.3703 58.1706 38.0914 57.5256 38.4232 56.8506C38.5821 56.5234 38.6558 56.194 38.642 55.9153C38.8033 56.1433 39.059 56.3645 39.3861 56.5234C40.0611 56.8575 41.0218 56.9266 41.2199 56.5281C41.4158 56.1295 40.7776 55.4085 40.098 55.0721C39.7732 54.9109 39.4437 54.844 39.165 54.8579C39.3954 54.6966 39.6119 54.4409 39.7732 54.1161C40.1049 53.4388 40.1786 52.4758 39.7778 52.2777C39.7271 52.2524 39.6718 52.2432 39.6142 52.2432C39.2041 52.2432 38.619 52.8076 38.3264 53.4019" fill="white"/>
</mask>
<g mask="url(#mask18_289_874)">
<path d="M41.3202 51.5154L34.6086 52.3359L35.412 58.9079L42.1237 58.0874L41.3202 51.5154Z" fill="url(#paint18_radial_289_874)"/>
</g>
<mask id="mask19_289_874" style="mask-type:luminance" maskUnits="userSpaceOnUse" x="47" y="43" width="7" height="7">
<path d="M49.6501 46.4591C49.5833 46.003 49.9012 45.5814 50.3573 45.51C50.8135 45.4455 51.2374 45.7657 51.3019 46.2218C51.3687 46.6779 51.0531 47.1018 50.5946 47.1686C50.5555 47.1732 50.5163 47.1755 50.4771 47.1755C50.0671 47.1755 49.7123 46.8761 49.6524 46.4591M50.0164 43.1325C49.5648 43.197 49.3252 44.1531 49.4358 44.9179C49.4888 45.2842 49.6201 45.6021 49.7929 45.8279C49.5257 45.7265 49.1824 45.692 48.8161 45.7449C48.0512 45.8509 47.1988 46.3485 47.2657 46.7977C47.3279 47.2493 48.2839 47.4865 49.0511 47.376C49.4197 47.3253 49.7353 47.194 49.9657 47.0212C49.8643 47.2884 49.8275 47.634 49.8805 48.0003C49.9887 48.7628 50.484 49.6129 50.9356 49.5461C51.3871 49.4815 51.6221 48.5278 51.5138 47.763C51.4609 47.399 51.3295 47.0765 51.1568 46.8484C51.424 46.9521 51.7673 46.9866 52.1313 46.936C52.8984 46.8254 53.7508 46.3278 53.684 45.8786C53.6195 45.4293 52.6634 45.192 51.8986 45.3026C51.53 45.3533 51.212 45.4846 50.9863 45.6574C51.0853 45.3925 51.1245 45.0469 51.0715 44.6829C50.9632 43.9457 50.5025 43.1279 50.0625 43.1279C50.0463 43.1279 50.0302 43.1279 50.0141 43.1325" fill="white"/>
</mask>
<g mask="url(#mask19_289_874)">
<path d="M53.6466 42.3457L46.4114 43.2314L47.2902 50.4092L54.5254 49.5234L53.6466 42.3457Z" fill="url(#paint19_radial_289_874)"/>
</g>
<mask id="mask20_289_874" style="mask-type:luminance" maskUnits="userSpaceOnUse" x="6" y="34" width="2" height="4">
<path d="M6.51813 35.8157C6.52964 36.6059 7.03187 37.2394 7.03187 37.2394C7.03187 37.2394 7.52488 36.5967 7.51567 35.8065C7.50645 35.0186 6.99962 34.3828 6.99962 34.3828C6.99962 34.3828 6.50891 35.0302 6.51582 35.8157" fill="white"/>
</mask>
<g mask="url(#mask20_289_874)">
<path d="M6.52635 34.2633L6.16711 37.2017L7.51173 37.366L7.87097 34.4277L6.52635 34.2633Z" fill="url(#paint20_radial_289_874)"/>
</g>
<mask id="mask21_289_874" style="mask-type:luminance" maskUnits="userSpaceOnUse" x="4" y="36" width="4" height="5">
<path d="M5.24379 38.6905C6.19526 39.7663 7.54297 40.1303 7.54297 40.1303C7.54297 40.1303 7.34485 38.7504 6.39338 37.67C5.44192 36.5941 4.15179 36.3638 4.15179 36.3638C4.15179 36.3638 4.29002 37.6124 5.24609 38.6882" fill="white"/>
</mask>
<g mask="url(#mask21_289_874)">
<path d="M4.2018 35.9613L3.6983 40.0796L7.49433 40.5436L7.99783 36.4253L4.2018 35.9613Z" fill="url(#paint21_radial_289_874)"/>
</g>
<mask id="mask22_289_874" style="mask-type:luminance" maskUnits="userSpaceOnUse" x="7" y="35" width="3" height="5">
<path d="M7.84963 37.8063C7.57318 38.9927 7.91414 39.9857 7.91414 39.9857C7.91414 39.9857 8.75272 39.1655 9.02917 37.9768C9.30332 36.7904 8.9808 35.9634 8.9808 35.9634C8.9808 35.9634 8.12609 36.6176 7.85194 37.8086" fill="white"/>
</mask>
<g mask="url(#mask22_289_874)">
<path d="M7.59718 35.7502L7.08624 39.9233L9.27463 40.1913L9.78556 36.0182L7.59718 35.7502Z" fill="url(#paint22_radial_289_874)"/>
</g>
<mask id="mask23_289_874" style="mask-type:luminance" maskUnits="userSpaceOnUse" x="5" y="40" width="5" height="4">
<path d="M5.31114 40.6055C5.31114 40.6055 5.66592 41.8057 6.79017 42.7018C7.91673 43.598 9.30591 43.7247 9.30591 43.7247C9.30591 43.7247 8.8728 42.3977 7.74855 41.5016C6.6243 40.6078 5.31114 40.6078 5.30884 40.6078" fill="white"/>
</mask>
<g mask="url(#mask23_289_874)">
<path d="M5.36854 40.119L4.93286 43.6724L9.24551 44.2011L9.6812 40.6478L5.36854 40.119Z" fill="url(#paint23_radial_289_874)"/>
</g>
<mask id="mask24_289_874" style="mask-type:luminance" maskUnits="userSpaceOnUse" x="9" y="39" width="2" height="5">
<path d="M9.20378 41.3497C9.14157 42.5706 9.64841 43.4898 9.64841 43.4898C9.64841 43.4898 10.3303 42.5361 10.3948 41.3174C10.457 40.101 10.0009 39.3408 10.0009 39.3408C10.0009 39.3408 9.27059 40.1333 9.20378 41.3497Z" fill="white"/>
</mask>
<g mask="url(#mask24_289_874)">
<path d="M9.15792 39.1789L8.63831 43.4229L10.4357 43.6429L10.9553 39.3989L9.15792 39.1789Z" fill="url(#paint24_radial_289_874)"/>
</g>
<mask id="mask25_289_874" style="mask-type:luminance" maskUnits="userSpaceOnUse" x="12" y="50" width="6" height="3">
<path d="M12.3472 51.2623C12.3472 51.2623 13.1374 52.1377 14.4621 52.4418C15.7822 52.7436 17.017 52.2829 17.017 52.2829C17.017 52.2829 16.1047 51.3314 14.7823 51.0273C14.4943 50.9605 14.2156 50.9375 13.9553 50.9375C13.0268 50.9375 12.3449 51.2646 12.3449 51.2646" fill="white"/>
</mask>
<g mask="url(#mask25_289_874)">
<path d="M12.4134 50.3681L12.1269 52.7119L16.9474 53.3012L17.2339 50.9574L12.4134 50.3681Z" fill="url(#paint25_radial_289_874)"/>
</g>
<mask id="mask26_289_874" style="mask-type:luminance" maskUnits="userSpaceOnUse" x="15" y="48" width="3" height="4">
<path d="M16.0053 50.214C16.4845 51.3612 17.353 51.9832 17.353 51.9832C17.353 51.9832 17.5603 50.806 17.0835 49.6565C16.6066 48.5138 15.8486 48.0186 15.8486 48.0186C15.8486 48.0186 15.5284 49.0713 16.0053 50.2163" fill="white"/>
</mask>
<g mask="url(#mask26_289_874)">
<path d="M15.5614 47.7718L15.053 51.9243L17.5318 52.2278L18.0402 48.0753L15.5614 47.7718Z" fill="url(#paint26_radial_289_874)"/>
</g>
<mask id="mask27_289_874" style="mask-type:luminance" maskUnits="userSpaceOnUse" x="15" y="53" width="6" height="2">
<path d="M18.168 53.3265C16.8756 53.3265 15.9541 54.0637 15.9541 54.0637C15.9541 54.0637 16.8779 54.7087 18.1727 54.7041C19.4628 54.7018 20.5133 54.0061 20.5133 54.0061C20.5133 54.0061 19.4743 53.3242 18.1888 53.3242H18.168" fill="white"/>
</mask>
<g mask="url(#mask27_289_874)">
<path d="M16.0234 52.7788L15.7891 54.6904L20.447 55.2615L20.6814 53.3499L16.0234 52.7788Z" fill="url(#paint27_radial_289_874)"/>
</g>
<mask id="mask28_289_874" style="mask-type:luminance" maskUnits="userSpaceOnUse" x="18" y="50" width="3" height="4">
<path d="M19.0461 52.1679C19.7695 53.1792 20.7578 53.587 20.7578 53.587C20.7578 53.587 20.6933 52.3936 19.9699 51.3846C19.2442 50.3756 18.3941 50.0669 18.3941 50.0669C18.3941 50.0669 18.3204 51.1612 19.0461 52.1679Z" fill="white"/>
</mask>
<g mask="url(#mask28_289_874)">
<path d="M18.3576 49.7748L17.8968 53.5386L20.7232 53.8846L21.184 50.1208L18.3576 49.7748Z" fill="url(#paint28_radial_289_874)"/>
</g>
<mask id="mask29_289_874" style="mask-type:luminance" maskUnits="userSpaceOnUse" x="20" y="52" width="7" height="7">
<path d="M22.7522 55.4868C22.5541 55.0813 22.72 54.5906 23.1254 54.3925C23.5355 54.1921 24.0216 54.358 24.222 54.7657C24.4202 55.1689 24.2543 55.6596 23.8511 55.8577C23.7336 55.9153 23.6092 55.9429 23.4871 55.9429C23.1876 55.9429 22.8974 55.777 22.7522 55.4891M22.0841 52.2777C21.6833 52.4758 21.7524 53.4388 22.0864 54.1161C22.2477 54.4409 22.4666 54.6966 22.6946 54.8579C22.4136 54.8464 22.0841 54.9132 21.7616 55.0721C21.082 55.4061 20.4438 56.1272 20.6396 56.5281C20.8378 56.9266 21.7985 56.8575 22.4758 56.5234C22.8029 56.3645 23.0586 56.1433 23.2176 55.9153C23.2038 56.194 23.2752 56.5234 23.4365 56.8506C23.7705 57.5256 24.4893 58.1706 24.8924 57.9679C25.291 57.7744 25.2196 56.8137 24.8855 56.1341C24.7266 55.8116 24.5077 55.5536 24.2773 55.3946C24.5584 55.4061 24.8878 55.3347 25.2127 55.1758C25.89 54.844 26.5327 54.123 26.3346 53.7221C26.1388 53.3236 25.1758 53.3927 24.4985 53.7268C24.1714 53.8857 23.9156 54.1092 23.7567 54.3349C23.7705 54.0562 23.7014 53.7267 23.5401 53.4019C23.2452 52.8076 22.6601 52.2432 22.25 52.2432C22.1924 52.2432 22.1371 52.2547 22.0864 52.2777" fill="white"/>
</mask>
<g mask="url(#mask29_289_874)">
<path d="M20.5344 51.5098L19.7297 58.0815L26.4413 58.9032L27.2459 52.3314L20.5344 51.5098Z" fill="url(#paint29_radial_289_874)"/>
</g>
<mask id="mask30_289_874" style="mask-type:luminance" maskUnits="userSpaceOnUse" x="8" y="43" width="7" height="7">
<path d="M11.2681 47.1686C10.8097 47.1018 10.4964 46.6779 10.5632 46.2218C10.6254 45.7657 11.0493 45.4455 11.5077 45.51C11.9616 45.5791 12.2795 46.0006 12.2127 46.4591C12.1528 46.8761 11.7957 47.1755 11.3879 47.1755C11.3488 47.1755 11.3096 47.1755 11.2681 47.1686ZM10.7889 44.6829C10.7359 45.0469 10.7728 45.3925 10.8742 45.6574C10.6484 45.4846 10.3305 45.3533 9.96188 45.3026C9.19932 45.1944 8.24325 45.4293 8.17874 45.8786C8.11193 46.3301 8.96434 46.8277 9.72919 46.936C10.0932 46.9866 10.4365 46.9521 10.7037 46.8484C10.5309 47.0765 10.4019 47.3967 10.3443 47.763C10.236 48.5278 10.4733 49.4815 10.9272 49.5461C11.3764 49.6106 11.874 48.7605 11.9823 48.0003C12.033 47.634 11.9984 47.2884 11.8971 47.0212C12.1228 47.194 12.4454 47.3276 12.8094 47.376C13.5742 47.4888 14.5303 47.2516 14.5948 46.7977C14.657 46.3485 13.8069 45.8509 13.0443 45.7449C12.678 45.6897 12.3348 45.7265 12.0652 45.8279C12.2403 45.5998 12.3693 45.2819 12.4223 44.9179C12.5329 44.1508 12.2956 43.197 11.8441 43.1325C11.8279 43.1302 11.8118 43.1279 11.7957 43.1279C11.358 43.1279 10.8949 43.9457 10.7866 44.6829" fill="white"/>
</mask>
<g mask="url(#mask30_289_874)">
<path d="M8.20807 42.3398L7.33032 49.5159L14.5619 50.4028L15.442 43.2245L8.20807 42.3398Z" fill="url(#paint30_radial_289_874)"/>
</g>
<mask id="mask31_289_874" style="mask-type:luminance" maskUnits="userSpaceOnUse" x="29" y="55" width="3" height="3">
<path d="M29.8137 56.4617C29.8137 57.0307 30.2745 57.4891 30.8412 57.4891C31.4079 57.4891 31.8664 57.0307 31.8664 56.4617C31.8664 55.8927 31.4079 55.4365 30.8412 55.4365C30.2745 55.4365 29.8137 55.895 29.8137 56.4617Z" fill="white"/>
</mask>
<g mask="url(#mask31_289_874)">
<path d="M31.8664 55.4365H29.8137V57.4868H31.8664V55.4365Z" fill="url(#paint31_radial_289_874)"/>
</g>
<mask id="mask32_289_874" style="mask-type:luminance" maskUnits="userSpaceOnUse" x="3" y="26" width="7" height="5">
<path d="M4.04618 27.3845L6.11268 27.6517L5.97906 28.6723L3.92868 28.405L3.83423 29.3841L8.91639 30.0499L8.99242 29.0731L6.88906 28.7944L7.02268 27.7738L9.12834 28.0503L9.30804 27.0712L4.22818 26.4077L4.04618 27.3845Z" fill="white"/>
</mask>
<g mask="url(#mask32_289_874)">
<path d="M9.30804 26.4077H3.83423V30.0499H9.30804V26.4077Z" fill="url(#paint32_radial_289_874)"/>
</g>
<mask id="mask33_289_874" style="mask-type:luminance" maskUnits="userSpaceOnUse" x="5" y="22" width="6" height="5">
<path d="M7.16541 23.6455C6.90278 23.5026 6.4282 23.2607 6.1241 23.1018L6.13101 23.081C6.46736 23.1479 6.96729 23.2446 7.27369 23.2953L8.33113 23.4773L8.09845 24.1615L7.1608 23.6455H7.16541ZM5.01367 23.2838L9.55444 26.0206L9.82629 25.0853L8.8011 24.5001L9.09368 23.6362L10.2617 23.8021L10.605 22.9037L5.38919 22.1987L5.01828 23.2861L5.01367 23.2838Z" fill="white"/>
</mask>
<g mask="url(#mask33_289_874)">
<path d="M10.6027 22.1987H5.01367V26.0229H10.6027V22.1987Z" fill="url(#paint33_radial_289_874)"/>
</g>
<mask id="mask34_289_874" style="mask-type:luminance" maskUnits="userSpaceOnUse" x="6" y="16" width="7" height="6">
<path d="M7.67703 17.4369L10.7756 19.091L10.7664 19.1048L7.04579 18.5173L6.6311 19.3098L11.0912 21.8623L11.4829 21.0837L8.4534 19.4227L8.49718 19.4411L12.1003 20.0078L12.591 19.243L8.14009 16.6997L7.67703 17.4369Z" fill="white"/>
</mask>
<g mask="url(#mask34_289_874)">
<path d="M12.5933 16.6997H6.6311V21.8646H12.5933V16.6997Z" fill="url(#paint34_radial_289_874)"/>
</g>
<mask id="mask35_289_874" style="mask-type:luminance" maskUnits="userSpaceOnUse" x="9" y="12" width="6" height="6">
<path d="M10.6254 13.4561L11.3557 14.4721C11.5722 14.7739 11.8003 15.078 12.0422 15.3636L12.0353 15.3728C11.6989 15.1862 11.3511 15.0181 11.0423 14.8775L9.86511 14.3454L9.21313 15.1609L12.3209 16.3381L13.8115 17.6074L14.4543 16.8564L12.9315 15.564L11.3165 12.7144L10.6277 13.4585L10.6254 13.4561Z" fill="white"/>
</mask>
<g mask="url(#mask35_289_874)">
<path d="M14.4513 12.7144H9.21021V17.6074H14.4513V12.7144Z" fill="url(#paint35_radial_289_874)"/>
</g>
<mask id="mask36_289_874" style="mask-type:luminance" maskUnits="userSpaceOnUse" x="12" y="10" width="6" height="6">
<path d="M14.6025 12.5165C14.4528 12.2585 14.1717 11.807 13.992 11.5167L14.0105 11.5006C14.2639 11.731 14.6417 12.0719 14.879 12.2746L15.6899 12.9796L15.137 13.4449L14.6002 12.5188L14.6025 12.5165ZM12.9576 11.1458L15.4457 15.8131L16.153 15.1474L15.5586 14.0923L16.2543 13.5025L17.192 14.272L17.9684 13.6799L13.8584 10.3833L12.9553 11.1435L12.9576 11.1458Z" fill="white"/>
</mask>
<g mask="url(#mask36_289_874)">
<path d="M17.9713 10.3857H12.9583V15.8133H17.9713V10.3857Z" fill="url(#paint36_radial_289_874)"/>
</g>
<mask id="mask37_289_874" style="mask-type:luminance" maskUnits="userSpaceOnUse" x="16" y="7" width="6" height="7">
<path d="M18.2747 7.48747L18.8253 8.48267C19.2769 9.29818 19.763 10.0377 20.0487 10.4892L20.0348 10.4961C19.6962 10.1782 19.164 9.73358 18.8438 9.46174L17.1827 8.09104L16.4133 8.55869L18.8968 13.0417L19.6386 12.5879L19.0718 11.5673C18.5742 10.6712 18.1642 10.0054 17.8969 9.57002L17.9084 9.5608C18.231 9.90866 18.7447 10.3556 19.0972 10.6505L20.7352 11.9797L21.5415 11.5858L19.0488 7.09814L18.2747 7.49208V7.48747Z" fill="white"/>
</mask>
<g mask="url(#mask37_289_874)">
<path d="M21.5419 7.09326H16.4113V13.0414H21.5419V7.09326Z" fill="url(#paint37_radial_289_874)"/>
</g>
<mask id="mask38_289_874" style="mask-type:luminance" maskUnits="userSpaceOnUse" x="21" y="5" width="5" height="6">
<path d="M23.1128 5.49235C22.0876 5.82178 21.3204 6.87457 21.8618 8.63691C22.1129 9.47315 22.5668 10.1182 23.1081 10.3854C23.5343 10.6043 23.9997 10.6273 24.5526 10.4499C24.9028 10.337 25.3198 10.109 25.4995 9.95693L24.6724 7.37678L23.3754 7.79375L23.6219 8.56088L24.0527 8.42266L24.4282 9.59064C24.396 9.61598 24.3338 9.64363 24.2485 9.67127C23.8108 9.8118 23.2256 9.54226 22.8524 8.3812C22.4493 7.11877 22.8179 6.5198 23.4537 6.31477C23.691 6.23875 23.8845 6.22493 24.0412 6.24566L23.9467 5.38178C23.903 5.37717 23.8546 5.37256 23.797 5.37256C23.6242 5.37256 23.3892 5.40481 23.1105 5.49005" fill="white"/>
</mask>
<g mask="url(#mask38_289_874)">
<path d="M25.5012 5.375H21.3198V10.6297H25.5012V5.375Z" fill="url(#paint38_radial_289_874)"/>
</g>
<mask id="mask39_289_874" style="mask-type:luminance" maskUnits="userSpaceOnUse" x="28" y="4" width="4" height="6">
<path d="M30.5101 7.7083C30.5377 8.47543 30.3396 8.68507 30.0563 8.69659C29.8005 8.7058 29.5655 8.48695 29.5402 7.74285L29.4296 4.43473L28.4436 4.51076L28.5496 7.61154C28.5933 8.88319 29.0311 9.59964 30.0931 9.56048C31.0699 9.52592 31.5353 8.80256 31.4915 7.50327L31.3855 4.4117L30.3949 4.40479L30.5124 7.7083H30.5101Z" fill="white"/>
</mask>
<g mask="url(#mask39_289_874)">
<path d="M31.5324 4.40479H28.4407V9.59733H31.5324V4.40479Z" fill="url(#paint39_radial_289_874)"/>
</g>
<mask id="mask40_289_874" style="mask-type:luminance" maskUnits="userSpaceOnUse" x="32" y="4" width="5" height="7">
<path d="M32.9983 9.61808L33.8622 9.71944L34.3852 6.2754L34.399 6.27771L35.0924 9.93368L35.9679 10.1157L36.8272 5.06365L35.9725 4.88627L35.4887 8.34182L35.4749 8.33952L34.74 4.68124L33.8622 4.56836L32.9983 9.61808Z" fill="white"/>
</mask>
<g mask="url(#mask40_289_874)">
<path d="M36.8272 4.56836H32.9983V10.1157H36.8272V4.56836Z" fill="url(#paint40_radial_289_874)"/>
</g>
<mask id="mask41_289_874" style="mask-type:luminance" maskUnits="userSpaceOnUse" x="37" y="5" width="3" height="6">
<path d="M39.0395 5.66776L37.3889 10.5107L38.3222 10.8288L39.9729 5.98584L39.0395 5.66776Z" fill="white"/>
</mask>
<g mask="url(#mask41_289_874)">
<path d="M39.971 5.66992H37.3907V10.8302H39.971V5.66992Z" fill="url(#paint41_radial_289_874)"/>
</g>
<mask id="mask42_289_874" style="mask-type:luminance" maskUnits="userSpaceOnUse" x="40" y="6" width="5" height="7">
<path d="M40.3429 11.6755L41.3174 12.1731L44.6717 8.19465L43.7387 7.65558L41.3842 10.9338L41.3727 10.9268L42.6352 7.08887L41.6445 6.63965L40.3429 11.6755Z" fill="white"/>
</mask>
<g mask="url(#mask42_289_874)">
<path d="M44.6717 6.63965H40.3429V12.1731H44.6717V6.63965Z" fill="url(#paint42_radial_289_874)"/>
</g>
<mask id="mask43_289_874" style="mask-type:luminance" maskUnits="userSpaceOnUse" x="43" y="9" width="6" height="6">
<path d="M43.1975 13.3156L45.029 14.6979L45.5566 13.9883L44.5107 13.2005L45.3354 12.1062L46.2639 12.8042L46.7546 12.15L45.8307 11.4519L46.5334 10.5212L47.5056 11.2538L48.0401 10.5535L46.28 9.22656L43.1975 13.3156Z" fill="white"/>
</mask>
<g mask="url(#mask43_289_874)">
<path d="M48.0401 9.22656H43.1975V14.6979H48.0401V9.22656Z" fill="url(#paint43_radial_289_874)"/>
</g>
<mask id="mask44_289_874" style="mask-type:luminance" maskUnits="userSpaceOnUse" x="46" y="12" width="6" height="6">
<path d="M48.9821 14.6587L48.8623 14.532L49.9705 13.4999C50.0212 13.523 50.0949 13.5898 50.1502 13.652C50.4427 13.9883 50.3345 14.3247 50.0212 14.6172C49.8461 14.7808 49.641 14.8706 49.4452 14.8706C49.277 14.8706 49.1158 14.8038 48.9821 14.6587ZM46.1185 15.7345L46.8235 16.4279L48.3048 15.0503L48.4016 15.1563C48.6251 15.4005 48.602 15.6378 48.2012 16.1354C47.8441 16.5708 47.5446 17.0016 47.4824 17.1421L48.1597 17.9668C48.2357 17.7733 48.6251 17.1789 48.9729 16.7251C49.3024 16.2828 49.4245 15.9373 49.2862 15.5894L49.3001 15.5802C49.8276 15.7944 50.3644 15.6562 50.763 15.2853C51.0832 14.9881 51.2698 14.691 51.2629 14.2763C51.2583 13.8294 51.0072 13.4078 50.6386 13.0115C50.3828 12.7374 50.1018 12.4679 49.876 12.249L46.1208 15.7345H46.1185Z" fill="white"/>
</mask>
<g mask="url(#mask44_289_874)">
<path d="M51.2698 12.2466H46.1185V17.9621H51.2698V12.2466Z" fill="url(#paint44_radial_289_874)"/>
</g>
<mask id="mask45_289_874" style="mask-type:luminance" maskUnits="userSpaceOnUse" x="48" y="16" width="7" height="5">
<path d="M51.7512 16.7185C51.3665 16.9673 51.0578 17.4787 51.0785 18.2896C51.0785 18.7987 51.0485 19.0867 50.7375 19.2871C50.4588 19.4691 50.1339 19.4069 49.8805 19.0153C49.7239 18.7734 49.6087 18.437 49.5949 18.2067L48.8 18.5453C48.807 18.7365 48.936 19.1304 49.1548 19.4714C49.6916 20.3076 50.5763 20.5518 51.355 20.0519C51.8042 19.764 52.0991 19.2779 52.0783 18.4946C52.0599 17.8542 52.1106 17.6399 52.364 17.4787C52.5921 17.3312 52.9192 17.3635 53.145 17.7183C53.3017 17.9602 53.35 18.1882 53.3523 18.3564L54.1518 18.0293C54.1471 17.8542 54.0504 17.5386 53.873 17.2598C53.5159 16.7069 53.0482 16.4604 52.5806 16.4604C52.2949 16.4604 52.0092 16.5526 51.7512 16.7185Z" fill="white"/>
</mask>
<g mask="url(#mask45_289_874)">
<path d="M54.1495 16.4604H48.8V20.5541H54.1495V16.4604Z" fill="url(#paint45_radial_289_874)"/>
</g>
<mask id="mask46_289_874" style="mask-type:luminance" maskUnits="userSpaceOnUse" x="50" y="19" width="6" height="4">
<path d="M50.6282 21.9246L51.0429 22.8207L55.662 20.6668L55.2496 19.7729L50.6282 21.9246Z" fill="white"/>
</mask>
<g mask="url(#mask46_289_874)">
<path d="M55.662 19.7729H50.6282V22.8207H55.662V19.7729Z" fill="url(#paint46_radial_289_874)"/>
</g>
<mask id="mask47_289_874" style="mask-type:luminance" maskUnits="userSpaceOnUse" x="51" y="22" width="7" height="4">
<path d="M55.5016 22.6917L55.7872 23.5418L51.7648 24.7788L52.0528 25.7211L56.0775 24.484L56.3125 25.3571L57.1833 25.0875L56.3724 22.4268L55.5016 22.6917Z" fill="white"/>
</mask>
<g mask="url(#mask47_289_874)">
<path d="M57.1833 22.4268H51.7648V25.7211H57.1833V22.4268Z" fill="url(#paint47_radial_289_874)"/>
</g>
<mask id="mask48_289_874" style="mask-type:luminance" maskUnits="userSpaceOnUse" x="52" y="26" width="6" height="4">
<path d="M54.5043 27.9486L52.5784 28.1882L52.7051 29.1696L54.6633 28.9231L57.8725 29.6718L57.7918 28.6651L55.412 28.4071L55.4097 28.3933L57.649 27.5063L57.4762 26.4604L54.5043 27.9486Z" fill="white"/>
</mask>
<g mask="url(#mask48_289_874)">
<path d="M57.8725 26.4604H52.5784V29.6718H57.8725V26.4604Z" fill="url(#paint48_radial_289_874)"/>
</g>
<mask id="mask49_289_874" style="mask-type:luminance" maskUnits="userSpaceOnUse" x="26" y="40" width="4" height="5">
<path d="M27.7034 42.2016C27.5975 42.1786 27.503 42.1394 27.4201 42.0888C27.3371 42.0335 27.2703 41.9644 27.222 41.8768C27.1736 41.787 27.1505 41.6764 27.1505 41.5451C27.1505 41.4138 27.1759 41.3032 27.222 41.2133C27.2703 41.1235 27.3371 41.0521 27.4201 41.0014C27.503 40.9484 27.5975 40.907 27.7034 40.8862C27.8117 40.8632 27.9177 40.8494 28.0283 40.8494C28.1389 40.8494 28.2448 40.8632 28.3531 40.8862C28.4591 40.907 28.5535 40.9484 28.6365 41.0014C28.7194 41.0544 28.7839 41.1235 28.8346 41.2133C28.8807 41.3032 28.9037 41.4115 28.9037 41.5451C28.9037 41.6787 28.8807 41.787 28.8346 41.8768C28.7862 41.9644 28.7217 42.0358 28.6365 42.0888C28.5535 42.1417 28.4591 42.1786 28.3531 42.2016C28.2448 42.2247 28.1389 42.2362 28.0283 42.2362C27.9177 42.2362 27.8117 42.2247 27.7034 42.2016ZM27.48 40.2734C27.2749 40.3287 27.0929 40.4163 26.9271 40.5361C26.7612 40.6582 26.6253 40.8079 26.5239 40.9922C26.4179 41.1742 26.3672 41.4 26.3672 41.6557C26.3672 41.8722 26.4133 42.0565 26.5009 42.2086C26.5884 42.3606 26.7036 42.4873 26.8441 42.5841C26.9847 42.6831 27.1436 42.7522 27.3187 42.7983C27.4938 42.8421 27.6643 42.8651 27.8302 42.8651C28.0421 42.8651 28.2425 42.8259 28.4384 42.7499C28.6319 42.6739 28.8231 42.5818 29.0189 42.4735C28.9728 43.2775 28.5904 43.6806 27.8739 43.6806C27.8025 43.6806 27.7173 43.6737 27.6251 43.6599C27.533 43.6507 27.4408 43.6253 27.3533 43.5931C27.2634 43.5631 27.1805 43.524 27.1022 43.4756C27.0238 43.4272 26.9616 43.3696 26.9155 43.3051C26.8971 43.2798 26.8856 43.2475 26.881 43.213C26.8718 43.1761 26.8695 43.1462 26.8695 43.1208L26.7865 43.0747L26.3742 43.9156L26.4294 43.9686C26.464 43.9386 26.5101 43.9202 26.5585 43.9202C26.5953 43.9202 26.6437 43.9409 26.7059 43.9778C26.7635 44.017 26.8418 44.0584 26.9386 44.1045C27.033 44.1552 27.1551 44.1943 27.3003 44.2289C27.4431 44.2611 27.6205 44.2773 27.8255 44.2773C28.1227 44.2773 28.3946 44.2266 28.6342 44.1275C28.8761 44.0262 29.0834 43.8833 29.2585 43.6898C29.4313 43.5009 29.5649 43.2683 29.6594 43.0033C29.7538 42.7384 29.8022 42.4366 29.8022 42.1049C29.8022 41.8215 29.7584 41.5658 29.6755 41.3285C29.5949 41.0959 29.4774 40.8908 29.3253 40.7204C29.1733 40.5499 28.9936 40.4163 28.7839 40.3241C28.5743 40.2297 28.3416 40.1836 28.0905 40.1836C27.8901 40.1836 27.6873 40.2089 27.48 40.2665" fill="white"/>
</mask>
<g mask="url(#mask49_289_874)">
<path d="M29.8022 40.1909H26.3672V44.2846H29.8022V40.1909Z" fill="url(#paint49_radial_289_874)"/>
</g>
<mask id="mask50_289_874" style="mask-type:luminance" maskUnits="userSpaceOnUse" x="33" y="40" width="5" height="5">
<path d="M35.1747 42.2016C35.0664 42.1786 34.9743 42.1394 34.889 42.0888C34.8107 42.0335 34.7416 41.9644 34.6932 41.8768C34.6471 41.787 34.6218 41.6764 34.6218 41.5451C34.6218 41.4138 34.6471 41.3032 34.6932 41.2133C34.7416 41.1235 34.8107 41.0521 34.889 41.0014C34.972 40.9484 35.0664 40.907 35.1747 40.8862C35.2807 40.8632 35.3866 40.8494 35.4995 40.8494C35.6124 40.8494 35.7161 40.8632 35.822 40.8862C35.928 40.907 36.0225 40.9484 36.1054 41.0014C36.1884 41.0544 36.2529 41.1235 36.3035 41.2133C36.3496 41.3032 36.375 41.4115 36.375 41.5451C36.375 41.6787 36.3496 41.787 36.3035 41.8768C36.2529 41.9644 36.1884 42.0358 36.1054 42.0888C36.0225 42.1417 35.9257 42.1786 35.822 42.2016C35.7138 42.2247 35.6101 42.2362 35.4995 42.2362C35.3889 42.2362 35.2807 42.2247 35.1747 42.2016ZM34.9512 40.2734C34.7462 40.3287 34.5619 40.4163 34.396 40.5361C34.2301 40.6582 34.0942 40.8079 33.9928 40.9922C33.8869 41.1742 33.8362 41.4 33.8362 41.6557C33.8362 41.8722 33.8823 42.0565 33.9698 42.2086C34.0596 42.3606 34.1725 42.4873 34.3154 42.5841C34.4536 42.6831 34.6149 42.7522 34.7876 42.7983C34.965 42.8421 35.1332 42.8651 35.2991 42.8651C35.5087 42.8651 35.7115 42.8259 35.9073 42.7499C36.0985 42.6739 36.2943 42.5818 36.4855 42.4735C36.4395 43.2775 36.0593 43.6806 35.3429 43.6806C35.2691 43.6806 35.1862 43.6737 35.094 43.6599C35.0019 43.6507 34.9121 43.6253 34.8222 43.5931C34.7324 43.5631 34.6494 43.524 34.5711 43.4756C34.4928 43.4272 34.4329 43.3696 34.3845 43.3051C34.3661 43.2798 34.3545 43.2475 34.3476 43.213C34.3407 43.1761 34.3361 43.1462 34.3361 43.1208L34.2532 43.0747L33.8408 43.9156L33.8961 43.9686C33.9329 43.9386 33.9767 43.9202 34.0274 43.9202C34.0643 43.9202 34.1126 43.9409 34.1725 43.9778C34.2301 44.017 34.3085 44.0584 34.4052 44.1045C34.502 44.1552 34.6241 44.1943 34.7692 44.2289C34.9144 44.2611 35.0894 44.2773 35.2945 44.2773C35.5917 44.2773 35.8635 44.2266 36.1054 44.1275C36.345 44.0262 36.5523 43.8833 36.7274 43.6898C36.9025 43.5009 37.0361 43.2683 37.1283 43.0033C37.2251 42.7384 37.2711 42.4366 37.2711 42.1049C37.2711 41.8215 37.2297 41.5658 37.1467 41.3285C37.0638 41.0959 36.9463 40.8908 36.7966 40.7204C36.6445 40.5499 36.4648 40.4163 36.2529 40.3241C36.0432 40.2297 35.8105 40.1836 35.5594 40.1836C35.359 40.1836 35.1539 40.2089 34.9512 40.2665" fill="white"/>
</mask>
<g mask="url(#mask50_289_874)">
<path d="M37.2711 40.1909H33.8362V44.2846H37.2711V40.1909Z" fill="url(#paint50_radial_289_874)"/>
</g>
<mask id="mask51_289_874" style="mask-type:luminance" maskUnits="userSpaceOnUse" x="29" y="40" width="5" height="5">
<path d="M31.1463 40.2782C30.9574 40.3358 30.8077 40.4003 30.6879 40.474C30.5681 40.5454 30.4782 40.6099 30.416 40.6721C30.3538 40.7297 30.3123 40.7597 30.287 40.7597C30.2478 40.7597 30.2064 40.7458 30.1695 40.7205L30.0889 40.7896L30.6418 41.5729L30.7017 41.5245C30.6925 41.5014 30.6879 41.4738 30.6809 41.4439C30.6786 41.4185 30.674 41.3932 30.674 41.3724C30.674 41.3125 30.7086 41.2503 30.7777 41.1881C30.8445 41.1283 30.9344 41.0684 31.038 41.02C31.144 40.9693 31.2638 40.9278 31.3905 40.8979C31.5195 40.8656 31.6462 40.8495 31.7683 40.8495C31.8743 40.8495 31.9803 40.8587 32.0816 40.8702C32.1853 40.8818 32.2775 40.9071 32.3627 40.9439C32.448 40.9785 32.5171 41.0269 32.5677 41.0914C32.6207 41.1559 32.6461 41.2365 32.6461 41.3379C32.6461 41.4393 32.6161 41.5337 32.5562 41.6028C32.4963 41.6742 32.4249 41.7318 32.342 41.771C32.2567 41.8101 32.1692 41.8401 32.0724 41.8539C31.9734 41.87 31.8881 41.877 31.8167 41.877C31.7061 41.877 31.6048 41.8631 31.5149 41.8263C31.4251 41.794 31.3767 41.7272 31.3675 41.6259H31.2845V42.6648H31.3675C31.3951 42.5727 31.4481 42.5151 31.5287 42.4943C31.6094 42.469 31.7061 42.4598 31.8167 42.4598C31.8927 42.4598 31.9872 42.4667 32.0955 42.4782C32.2014 42.4897 32.3028 42.5174 32.3996 42.5565C32.494 42.6003 32.5747 42.6556 32.6415 42.7316C32.706 42.8053 32.7382 42.9044 32.7382 43.0288C32.7382 43.1532 32.7014 43.2592 32.6346 43.3398C32.5654 43.4181 32.4825 43.478 32.3857 43.5264C32.289 43.5725 32.183 43.6047 32.0701 43.6232C31.9572 43.6439 31.8582 43.6508 31.7752 43.6508C31.6716 43.6508 31.5426 43.6324 31.3859 43.6024C31.2362 43.5656 31.0864 43.5172 30.9459 43.455C30.8053 43.3928 30.6855 43.3168 30.5842 43.2223C30.4828 43.1325 30.4321 43.0242 30.4321 42.9067V42.8537C30.4321 42.8261 30.4344 42.81 30.439 42.8007L30.363 42.7547L29.9622 43.8558L30.0267 43.8766C30.0451 43.8674 30.0612 43.8581 30.075 43.8489C30.0935 43.8374 30.1119 43.8328 30.1349 43.8328C30.1695 43.8328 30.2363 43.8581 30.3262 43.9042C30.416 43.9526 30.5289 44.0079 30.6671 44.0655C30.8053 44.1231 30.9597 44.1761 31.1417 44.2175C31.3214 44.2613 31.5149 44.282 31.7223 44.282C31.9043 44.282 32.1001 44.2659 32.3074 44.2313C32.5148 44.1991 32.7083 44.1346 32.8811 44.0332C33.0515 43.9365 33.199 43.8005 33.3165 43.6324C33.4317 43.4642 33.4916 43.25 33.4916 42.9896C33.4916 42.7593 33.4294 42.5704 33.3027 42.4183C33.1782 42.2663 33.017 42.1649 32.8212 42.1142V42.0981C32.987 42.0566 33.1184 41.9599 33.2151 41.8032C33.3119 41.6489 33.3579 41.4807 33.3579 41.2941C33.3579 41.096 33.3119 40.9278 33.2174 40.785C33.1253 40.6445 33.0032 40.5316 32.8534 40.4417C32.706 40.3496 32.5424 40.2851 32.3627 40.2436C32.1807 40.2045 32.0033 40.186 31.8236 40.186C31.5564 40.186 31.3329 40.2137 31.1463 40.2736" fill="white"/>
</mask>
<g mask="url(#mask51_289_874)">
<path d="M33.4922 40.1909H29.9651V44.2846H33.4922V40.1909Z" fill="url(#paint51_radial_289_874)"/>
</g>
<mask id="mask52_289_874" style="mask-type:luminance" maskUnits="userSpaceOnUse" x="24" y="40" width="2" height="5">
<path d="M24.8051 40.1906V40.2782C24.8558 40.2897 24.8973 40.3058 24.9272 40.3266C24.9572 40.345 24.971 40.3911 24.971 40.4602C24.971 40.5385 24.9456 40.603 24.8903 40.656C24.8374 40.709 24.7705 40.7366 24.6945 40.7366C24.6554 40.7366 24.6185 40.7274 24.577 40.709C24.5333 40.6928 24.5125 40.6606 24.5125 40.6145H24.4319V41.5775H24.5125C24.5263 41.536 24.5517 41.5038 24.5839 41.483C24.6208 41.46 24.6554 41.4439 24.6968 41.4277C24.7406 41.4162 24.7821 41.407 24.8258 41.4047C24.8696 41.3978 24.9042 41.3955 24.9387 41.3955V43.9526C24.9387 44.0401 24.9203 44.0977 24.8857 44.1254C24.8512 44.153 24.812 44.1668 24.7659 44.1668V44.259H25.904V44.1668C25.8579 44.1668 25.8165 44.153 25.7796 44.1254C25.745 44.0977 25.7243 44.0401 25.7243 43.9526V40.444C25.7243 40.3911 25.7427 40.3542 25.7796 40.3289C25.8165 40.3058 25.8625 40.2851 25.9155 40.2736V40.186H24.8051V40.1906Z" fill="white"/>
</mask>
<g mask="url(#mask52_289_874)">
<path d="M25.9136 40.1909H24.4299V44.2639H25.9136V40.1909Z" fill="url(#paint52_radial_289_874)"/>
</g>
<defs>
<radialGradient id="paint0_radial_289_874" cx="0" cy="0" r="1" gradientUnits="userSpaceOnUse" gradientTransform="translate(17.509 15.5044) scale(50.735 50.735)">
<stop stop-color="white"/>
<stop offset="0.26" stop-color="white"/>
<stop offset="0.36" stop-color="#F1F1F1"/>
<stop offset="0.9" stop-color="#AAABAB"/>
<stop offset="1" stop-color="#AAABAB"/>
</radialGradient>
<radialGradient id="paint1_radial_289_874" cx="0" cy="0" r="1" gradientUnits="userSpaceOnUse" gradientTransform="translate(17.1635 17.7387) scale(51.194 51.1903)">
<stop stop-color="#96B3DD"/>
<stop offset="0.1" stop-color="#5C8CC1"/>
<stop offset="0.2" stop-color="#2465A7"/>
<stop offset="0.25" stop-color="#0F579D"/>
<stop offset="0.57" stop-color="#004989"/>
<stop offset="0.75" stop-color="#002561"/>
<stop offset="0.91" stop-color="#000A44"/>
<stop offset="1" stop-color="#000039"/>
</radialGradient>
<linearGradient id="paint2_linear_289_874" x1="10.3922" y1="10.2642" x2="52.3052" y2="52.1787" gradientUnits="userSpaceOnUse">
<stop stop-color="#C9CACA"/>
<stop offset="0.27" stop-color="#A2A2A2"/>
<stop offset="0.59" stop-color="#7A7979"/>
<stop offset="0.85" stop-color="#626060"/>
<stop offset="1" stop-color="#595757"/>
</linearGradient>
<radialGradient id="paint3_radial_289_874" cx="0" cy="0" r="1" gradientUnits="userSpaceOnUse" gradientTransform="translate(17.544 15.0708) scale(54.673 54.671)">
<stop stop-color="#96B3DD"/>
<stop offset="0.1" stop-color="#5C8CC1"/>
<stop offset="0.2" stop-color="#2465A7"/>
<stop offset="0.25" stop-color="#0F579D"/>
<stop offset="0.57" stop-color="#004989"/>
<stop offset="0.75" stop-color="#002561"/>
<stop offset="0.91" stop-color="#000A44"/>
<stop offset="1" stop-color="#000039"/>
</radialGradient>
<linearGradient id="paint4_linear_289_874" x1="45.7042" y1="45.5945" x2="17.1555" y2="17.0448" gradientUnits="userSpaceOnUse">
<stop stop-color="white"/>
<stop offset="0.16" stop-color="#DCDCDC"/>
<stop offset="0.45" stop-color="#A4A3A3"/>
<stop offset="0.69" stop-color="#7B7979"/>
<stop offset="0.88" stop-color="#626060"/>
<stop offset="1" stop-color="#595757"/>
</linearGradient>
<radialGradient id="paint5_radial_289_874" cx="0" cy="0" r="1" gradientUnits="userSpaceOnUse" gradientTransform="translate(17.8084 16.0781) scale(50.5392 50.5373)">
<stop stop-color="white"/>
<stop offset="0.26" stop-color="white"/>
<stop offset="0.36" stop-color="#F1F1F1"/>
<stop offset="0.9" stop-color="#AAABAB"/>
<stop offset="1" stop-color="#AAABAB"/>
</radialGradient>
<radialGradient id="paint6_radial_289_874" cx="0" cy="0" r="1" gradientUnits="userSpaceOnUse" gradientTransform="translate(19.2729 17.7608) scale(37.4829 37.4814)">
<stop stop-color="#96B3DD"/>
<stop offset="0.1" stop-color="#5C8CC1"/>
<stop offset="0.2" stop-color="#2465A7"/>
<stop offset="0.25" stop-color="#0F579D"/>
<stop offset="0.57" stop-color="#004989"/>
<stop offset="0.75" stop-color="#002561"/>
<stop offset="0.91" stop-color="#000A44"/>
<stop offset="1" stop-color="#000039"/>
</radialGradient>
<radialGradient id="paint7_radial_289_874" cx="0" cy="0" r="1" gradientUnits="userSpaceOnUse" gradientTransform="translate(16.6573 17.0317) scale(50.6722 50.6703)">
<stop stop-color="#96B3DD"/>
<stop offset="0.1" stop-color="#5C8CC1"/>
<stop offset="0.2" stop-color="#2465A7"/>
<stop offset="0.25" stop-color="#0F579D"/>
<stop offset="0.57" stop-color="#004989"/>
<stop offset="0.75" stop-color="#002561"/>
<stop offset="0.91" stop-color="#000A44"/>
<stop offset="1" stop-color="#000039"/>
</radialGradient>
<radialGradient id="paint8_radial_289_874" cx="0" cy="0" r="1" gradientUnits="userSpaceOnUse" gradientTransform="translate(17.9016 15.8564) scale(50.5392 50.5373)">
<stop stop-color="white"/>
<stop offset="0.1" stop-color="white"/>
<stop offset="0.25" stop-color="#F4F5F5"/>
<stop offset="0.51" stop-color="#D9DBDC"/>
<stop offset="0.84" stop-color="#ACB0B3"/>
<stop offset="1" stop-color="#949A9D"/>
</radialGradient>
<radialGradient id="paint9_radial_289_874" cx="0" cy="0" r="1" gradientUnits="userSpaceOnUse" gradientTransform="translate(17.9961 18.284) rotate(83.0197) scale(51.1828 51.1847)">
<stop stop-color="white"/>
<stop offset="0.26" stop-color="white"/>
<stop offset="0.36" stop-color="#F1F1F1"/>
<stop offset="0.9" stop-color="#AAABAB"/>
<stop offset="1" stop-color="#AAABAB"/>
</radialGradient>
<radialGradient id="paint10_radial_289_874" cx="0" cy="0" r="1" gradientUnits="userSpaceOnUse" gradientTransform="translate(17.0224 15.8726) rotate(83.0197) scale(50.5268 50.5286)">
<stop stop-color="white"/>
<stop offset="0.26" stop-color="white"/>
<stop offset="0.36" stop-color="#F1F1F1"/>
<stop offset="0.9" stop-color="#AAABAB"/>
<stop offset="1" stop-color="#AAABAB"/>
</radialGradient>
<radialGradient id="paint11_radial_289_874" cx="0" cy="0" r="1" gradientUnits="userSpaceOnUse" gradientTransform="translate(17.0778 12.8999) rotate(83.0197) scale(50.5338 50.5356)">
<stop stop-color="white"/>
<stop offset="0.26" stop-color="white"/>
<stop offset="0.36" stop-color="#F1F1F1"/>
<stop offset="0.9" stop-color="#AAABAB"/>
<stop offset="1" stop-color="#AAABAB"/>
</radialGradient>
<radialGradient id="paint12_radial_289_874" cx="0" cy="0" r="1" gradientUnits="userSpaceOnUse" gradientTransform="translate(18.367 15.0689) rotate(83.0197) scale(50.5356 50.5391)">
<stop stop-color="white"/>
<stop offset="0.26" stop-color="white"/>
<stop offset="0.36" stop-color="#F1F1F1"/>
<stop offset="0.9" stop-color="#AAABAB"/>
<stop offset="1" stop-color="#AAABAB"/>
</radialGradient>
<radialGradient id="paint13_radial_289_874" cx="0" cy="0" r="1" gradientUnits="userSpaceOnUse" gradientTransform="translate(17.8814 13.9194) rotate(83.0197) scale(50.5408 50.5444)">
<stop stop-color="white"/>
<stop offset="0.26" stop-color="white"/>
<stop offset="0.36" stop-color="#F1F1F1"/>
<stop offset="0.9" stop-color="#AAABAB"/>
<stop offset="1" stop-color="#AAABAB"/>
</radialGradient>
<radialGradient id="paint14_radial_289_874" cx="0" cy="0" r="1" gradientUnits="userSpaceOnUse" gradientTransform="translate(19.3772 19.2118) rotate(83.0297) scale(50.5584 50.5619)">
<stop stop-color="white"/>
<stop offset="0.26" stop-color="white"/>
<stop offset="0.36" stop-color="#F1F1F1"/>
<stop offset="0.9" stop-color="#AAABAB"/>
<stop offset="1" stop-color="#AAABAB"/>
</radialGradient>
<radialGradient id="paint15_radial_289_874" cx="0" cy="0" r="1" gradientUnits="userSpaceOnUse" gradientTransform="translate(17.6975 13.0904) rotate(83.0197) scale(50.5478 50.5514)">
<stop stop-color="white"/>
<stop offset="0.26" stop-color="white"/>
<stop offset="0.36" stop-color="#F1F1F1"/>
<stop offset="0.9" stop-color="#AAABAB"/>
<stop offset="1" stop-color="#AAABAB"/>
</radialGradient>
<radialGradient id="paint16_radial_289_874" cx="0" cy="0" r="1" gradientUnits="userSpaceOnUse" gradientTransform="translate(18.2761 16.4954) rotate(83.0197) scale(49.8724 49.8741)">
<stop stop-color="white"/>
<stop offset="0.26" stop-color="white"/>
<stop offset="0.36" stop-color="#F1F1F1"/>
<stop offset="0.9" stop-color="#AAABAB"/>
<stop offset="1" stop-color="#AAABAB"/>
</radialGradient>
<radialGradient id="paint17_radial_289_874" cx="0" cy="0" r="1" gradientUnits="userSpaceOnUse" gradientTransform="translate(17.6188 13.8275) rotate(83.0197) scale(50.5285 50.5305)">
<stop stop-color="white"/>
<stop offset="0.26" stop-color="white"/>
<stop offset="0.36" stop-color="#F1F1F1"/>
<stop offset="0.9" stop-color="#AAABAB"/>
<stop offset="1" stop-color="#AAABAB"/>
</radialGradient>
<radialGradient id="paint18_radial_289_874" cx="0" cy="0" r="1" gradientUnits="userSpaceOnUse" gradientTransform="translate(19.0834 19.2775) rotate(83.0297) scale(50.5303 50.5339)">
<stop stop-color="white"/>
<stop offset="0.26" stop-color="white"/>
<stop offset="0.36" stop-color="#F1F1F1"/>
<stop offset="0.9" stop-color="#AAABAB"/>
<stop offset="1" stop-color="#AAABAB"/>
</radialGradient>
<radialGradient id="paint19_radial_289_874" cx="0" cy="0" r="1" gradientUnits="userSpaceOnUse" gradientTransform="translate(18.0247 18.7488) rotate(83.0297) scale(50.5408 50.5427)">
<stop stop-color="white"/>
<stop offset="0.26" stop-color="white"/>
<stop offset="0.36" stop-color="#F1F1F1"/>
<stop offset="0.9" stop-color="#AAABAB"/>
<stop offset="1" stop-color="#AAABAB"/>
</radialGradient>
<radialGradient id="paint20_radial_289_874" cx="0" cy="0" r="1" gradientUnits="userSpaceOnUse" gradientTransform="translate(18.3039 16.7072) rotate(96.9803) scale(50.5531 50.5547)">
<stop stop-color="white"/>
<stop offset="0.26" stop-color="white"/>
<stop offset="0.36" stop-color="#F1F1F1"/>
<stop offset="0.9" stop-color="#AAABAB"/>
<stop offset="1" stop-color="#AAABAB"/>
</radialGradient>
<radialGradient id="paint21_radial_289_874" cx="0" cy="0" r="1" gradientUnits="userSpaceOnUse" gradientTransform="translate(18.0999 18.0775) rotate(96.9803) scale(50.539 50.5409)">
<stop stop-color="white"/>
<stop offset="0.26" stop-color="white"/>
<stop offset="0.36" stop-color="#F1F1F1"/>
<stop offset="0.9" stop-color="#AAABAB"/>
<stop offset="1" stop-color="#AAABAB"/>
</radialGradient>
<radialGradient id="paint22_radial_289_874" cx="0" cy="0" r="1" gradientUnits="userSpaceOnUse" gradientTransform="translate(17.9792 12.9714) rotate(96.9803) scale(50.5356 50.5374)">
<stop stop-color="white"/>
<stop offset="0.26" stop-color="white"/>
<stop offset="0.36" stop-color="#F1F1F1"/>
<stop offset="0.9" stop-color="#AAABAB"/>
<stop offset="1" stop-color="#AAABAB"/>
</radialGradient>
<radialGradient id="paint23_radial_289_874" cx="0" cy="0" r="1" gradientUnits="userSpaceOnUse" gradientTransform="translate(17.7286 18.9974) rotate(96.9703) scale(50.539 50.5409)">
<stop stop-color="white"/>
<stop offset="0.26" stop-color="white"/>
<stop offset="0.36" stop-color="#F1F1F1"/>
<stop offset="0.9" stop-color="#AAABAB"/>
<stop offset="1" stop-color="#AAABAB"/>
</radialGradient>
<radialGradient id="paint24_radial_289_874" cx="0" cy="0" r="1" gradientUnits="userSpaceOnUse" gradientTransform="translate(18.7525 12.302) rotate(96.9803) scale(50.5496 50.5513)">
<stop stop-color="white"/>
<stop offset="0.26" stop-color="white"/>
<stop offset="0.36" stop-color="#F1F1F1"/>
<stop offset="0.9" stop-color="#AAABAB"/>
<stop offset="1" stop-color="#AAABAB"/>
</radialGradient>
<radialGradient id="paint25_radial_289_874" cx="0" cy="0" r="1" gradientUnits="userSpaceOnUse" gradientTransform="translate(16.7986 19.4853) rotate(96.9703) scale(50.5636 50.5654)">
<stop stop-color="white"/>
<stop offset="0.26" stop-color="white"/>
<stop offset="0.36" stop-color="#F1F1F1"/>
<stop offset="0.9" stop-color="#AAABAB"/>
<stop offset="1" stop-color="#AAABAB"/>
</radialGradient>
<radialGradient id="paint26_radial_289_874" cx="0" cy="0" r="1" gradientUnits="userSpaceOnUse" gradientTransform="translate(17.4645 14.7161) rotate(96.9803) scale(50.5548 50.5566)">
<stop stop-color="white"/>
<stop offset="0.26" stop-color="white"/>
<stop offset="0.36" stop-color="#F1F1F1"/>
<stop offset="0.9" stop-color="#AAABAB"/>
<stop offset="1" stop-color="#AAABAB"/>
</radialGradient>
<radialGradient id="paint27_radial_289_874" cx="0" cy="0" r="1" gradientUnits="userSpaceOnUse" gradientTransform="translate(17.3158 16.3729) rotate(96.9803) scale(49.8706 49.8724)">
<stop stop-color="white"/>
<stop offset="0.26" stop-color="white"/>
<stop offset="0.36" stop-color="#F1F1F1"/>
<stop offset="0.9" stop-color="#AAABAB"/>
<stop offset="1" stop-color="#AAABAB"/>
</radialGradient>
<radialGradient id="paint28_radial_289_874" cx="0" cy="0" r="1" gradientUnits="userSpaceOnUse" gradientTransform="translate(18.5396 15.5888) rotate(96.9803) scale(49.8603 49.8621)">
<stop stop-color="white"/>
<stop offset="0.26" stop-color="white"/>
<stop offset="0.36" stop-color="#F1F1F1"/>
<stop offset="0.9" stop-color="#AAABAB"/>
<stop offset="1" stop-color="#AAABAB"/>
</radialGradient>
<radialGradient id="paint29_radial_289_874" cx="0" cy="0" r="1" gradientUnits="userSpaceOnUse" gradientTransform="translate(18.437 14.6378) rotate(96.9803) scale(50.5321 50.5339)">
<stop stop-color="white"/>
<stop offset="0.26" stop-color="white"/>
<stop offset="0.36" stop-color="#F1F1F1"/>
<stop offset="0.9" stop-color="#AAABAB"/>
<stop offset="1" stop-color="#AAABAB"/>
</radialGradient>
<radialGradient id="paint30_radial_289_874" cx="0" cy="0" r="1" gradientUnits="userSpaceOnUse" gradientTransform="translate(17.637 14.9045) rotate(96.9803) scale(50.5391 50.5409)">
<stop stop-color="white"/>
<stop offset="0.26" stop-color="white"/>
<stop offset="0.36" stop-color="#F1F1F1"/>
<stop offset="0.9" stop-color="#AAABAB"/>
<stop offset="1" stop-color="#AAABAB"/>
</radialGradient>
<radialGradient id="paint31_radial_289_874" cx="0" cy="0" r="1" gradientUnits="userSpaceOnUse" gradientTransform="translate(17.8199 17.1712) scale(49.8689 49.8655)">
<stop stop-color="white"/>
<stop offset="0.26" stop-color="white"/>
<stop offset="0.36" stop-color="#F1F1F1"/>
<stop offset="0.9" stop-color="#AAABAB"/>
<stop offset="1" stop-color="#AAABAB"/>
</radialGradient>
<radialGradient id="paint32_radial_289_874" cx="0" cy="0" r="1" gradientUnits="userSpaceOnUse" gradientTransform="translate(17.811 15.4685) scale(50.5409 50.5391)">
<stop stop-color="white"/>
<stop offset="0.26" stop-color="white"/>
<stop offset="0.36" stop-color="#F1F1F1"/>
<stop offset="0.9" stop-color="#AAABAB"/>
<stop offset="1" stop-color="#AAABAB"/>
</radialGradient>
<radialGradient id="paint33_radial_289_874" cx="0" cy="0" r="1" gradientUnits="userSpaceOnUse" gradientTransform="translate(17.7309 15.8443) scale(50.5357 50.5337)">
<stop stop-color="white"/>
<stop offset="0.26" stop-color="white"/>
<stop offset="0.36" stop-color="#F1F1F1"/>
<stop offset="0.9" stop-color="#AAABAB"/>
<stop offset="1" stop-color="#AAABAB"/>
</radialGradient>
<radialGradient id="paint34_radial_289_874" cx="0" cy="0" r="1" gradientUnits="userSpaceOnUse" gradientTransform="translate(17.7246 16.6323) scale(50.5444 50.5408)">
<stop stop-color="white"/>
<stop offset="0.26" stop-color="white"/>
<stop offset="0.36" stop-color="#F1F1F1"/>
<stop offset="0.9" stop-color="#AAABAB"/>
<stop offset="1" stop-color="#AAABAB"/>
</radialGradient>
<radialGradient id="paint35_radial_289_874" cx="0" cy="0" r="1" gradientUnits="userSpaceOnUse" gradientTransform="translate(17.7954 15.187) scale(50.5462 50.5443)">
<stop stop-color="white"/>
<stop offset="0.26" stop-color="white"/>
<stop offset="0.36" stop-color="#F1F1F1"/>
<stop offset="0.9" stop-color="#AAABAB"/>
<stop offset="1" stop-color="#AAABAB"/>
</radialGradient>
<radialGradient id="paint36_radial_289_874" cx="0" cy="0" r="1" gradientUnits="userSpaceOnUse" gradientTransform="translate(17.891 16.0448) scale(50.5287 50.5268)">
<stop stop-color="white"/>
<stop offset="0.26" stop-color="white"/>
<stop offset="0.36" stop-color="#F1F1F1"/>
<stop offset="0.9" stop-color="#AAABAB"/>
<stop offset="1" stop-color="#AAABAB"/>
</radialGradient>
<radialGradient id="paint37_radial_289_874" cx="0" cy="0" r="1" gradientUnits="userSpaceOnUse" gradientTransform="translate(17.6579 15.7731) scale(50.5426 50.5408)">
<stop stop-color="white"/>
<stop offset="0.26" stop-color="white"/>
<stop offset="0.36" stop-color="#F1F1F1"/>
<stop offset="0.9" stop-color="#AAABAB"/>
<stop offset="1" stop-color="#AAABAB"/>
</radialGradient>
<radialGradient id="paint38_radial_289_874" cx="0" cy="0" r="1" gradientUnits="userSpaceOnUse" gradientTransform="translate(17.827 16.4514) scale(50.5339 50.5303)">
<stop stop-color="white"/>
<stop offset="0.26" stop-color="white"/>
<stop offset="0.36" stop-color="#F1F1F1"/>
<stop offset="0.9" stop-color="#AAABAB"/>
<stop offset="1" stop-color="#AAABAB"/>
</radialGradient>
<radialGradient id="paint39_radial_289_874" cx="0" cy="0" r="1" gradientUnits="userSpaceOnUse" gradientTransform="translate(17.8123 16.421) scale(50.5462 50.5425)">
<stop stop-color="white"/>
<stop offset="0.26" stop-color="white"/>
<stop offset="0.36" stop-color="#F1F1F1"/>
<stop offset="0.9" stop-color="#AAABAB"/>
<stop offset="1" stop-color="#AAABAB"/>
</radialGradient>
<radialGradient id="paint40_radial_289_874" cx="0" cy="0" r="1" gradientUnits="userSpaceOnUse" gradientTransform="translate(17.8628 17.2107) scale(50.5287 50.525)">
<stop stop-color="white"/>
<stop offset="0.26" stop-color="white"/>
<stop offset="0.36" stop-color="#F1F1F1"/>
<stop offset="0.9" stop-color="#AAABAB"/>
<stop offset="1" stop-color="#AAABAB"/>
</radialGradient>
<radialGradient id="paint41_radial_289_874" cx="0" cy="0" r="1" gradientUnits="userSpaceOnUse" gradientTransform="translate(17.8623 16.1493) scale(50.5375 50.5355)">
<stop stop-color="white"/>
<stop offset="0.26" stop-color="white"/>
<stop offset="0.36" stop-color="#F1F1F1"/>
<stop offset="0.9" stop-color="#AAABAB"/>
<stop offset="1" stop-color="#AAABAB"/>
</radialGradient>
<radialGradient id="paint42_radial_289_874" cx="0" cy="0" r="1" gradientUnits="userSpaceOnUse" gradientTransform="translate(17.763 15.766) scale(50.5479 50.546)">
<stop stop-color="white"/>
<stop offset="0.26" stop-color="white"/>
<stop offset="0.36" stop-color="#F1F1F1"/>
<stop offset="0.9" stop-color="#AAABAB"/>
<stop offset="1" stop-color="#AAABAB"/>
</radialGradient>
<radialGradient id="paint43_radial_289_874" cx="0" cy="0" r="1" gradientUnits="userSpaceOnUse" gradientTransform="translate(17.9886 16.5217) scale(50.5321 50.5303)">
<stop stop-color="white"/>
<stop offset="0.26" stop-color="white"/>
<stop offset="0.36" stop-color="#F1F1F1"/>
<stop offset="0.9" stop-color="#AAABAB"/>
<stop offset="1" stop-color="#AAABAB"/>
</radialGradient>
<radialGradient id="paint44_radial_289_874" cx="0" cy="0" r="1" gradientUnits="userSpaceOnUse" gradientTransform="translate(17.6924 15.7865) scale(50.5356 50.5338)">
<stop stop-color="white"/>
<stop offset="0.26" stop-color="white"/>
<stop offset="0.36" stop-color="#F1F1F1"/>
<stop offset="0.9" stop-color="#AAABAB"/>
<stop offset="1" stop-color="#AAABAB"/>
</radialGradient>
<radialGradient id="paint45_radial_289_874" cx="0" cy="0" r="1" gradientUnits="userSpaceOnUse" gradientTransform="translate(17.8425 16.0525) scale(50.5374 50.5355)">
<stop stop-color="white"/>
<stop offset="0.26" stop-color="white"/>
<stop offset="0.36" stop-color="#F1F1F1"/>
<stop offset="0.9" stop-color="#AAABAB"/>
<stop offset="1" stop-color="#AAABAB"/>
</radialGradient>
<radialGradient id="paint46_radial_289_874" cx="0" cy="0" r="1" gradientUnits="userSpaceOnUse" gradientTransform="translate(17.9348 15.8183) scale(50.5339 50.532)">
<stop stop-color="white"/>
<stop offset="0.26" stop-color="white"/>
<stop offset="0.36" stop-color="#F1F1F1"/>
<stop offset="0.9" stop-color="#AAABAB"/>
<stop offset="1" stop-color="#AAABAB"/>
</radialGradient>
<radialGradient id="paint47_radial_289_874" cx="0" cy="0" r="1" gradientUnits="userSpaceOnUse" gradientTransform="translate(17.8751 16.2605) scale(50.5461 50.5443)">
<stop stop-color="white"/>
<stop offset="0.26" stop-color="white"/>
<stop offset="0.36" stop-color="#F1F1F1"/>
<stop offset="0.9" stop-color="#AAABAB"/>
<stop offset="1" stop-color="#AAABAB"/>
</radialGradient>
<radialGradient id="paint48_radial_289_874" cx="0" cy="0" r="1" gradientUnits="userSpaceOnUse" gradientTransform="translate(17.6722 15.5315) scale(50.5374 50.5355)">
<stop stop-color="white"/>
<stop offset="0.26" stop-color="white"/>
<stop offset="0.36" stop-color="#F1F1F1"/>
<stop offset="0.9" stop-color="#AAABAB"/>
<stop offset="1" stop-color="#AAABAB"/>
</radialGradient>
<radialGradient id="paint49_radial_289_874" cx="0" cy="0" r="1" gradientUnits="userSpaceOnUse" gradientTransform="translate(17.8888 16.0854) scale(55.0021 55.0001)">
<stop stop-color="#96B3DD"/>
<stop offset="0.1" stop-color="#5C8CC1"/>
<stop offset="0.2" stop-color="#2465A7"/>
<stop offset="0.25" stop-color="#0F579D"/>
<stop offset="0.57" stop-color="#004989"/>
<stop offset="0.75" stop-color="#002561"/>
<stop offset="0.91" stop-color="#000A44"/>
<stop offset="1" stop-color="#000039"/>
</radialGradient>
<radialGradient id="paint50_radial_289_874" cx="0" cy="0" r="1" gradientUnits="userSpaceOnUse" gradientTransform="translate(17.9401 15.1462) scale(55.0039 55.0018)">
<stop stop-color="#96B3DD"/>
<stop offset="0.1" stop-color="#5C8CC1"/>
<stop offset="0.2" stop-color="#2465A7"/>
<stop offset="0.25" stop-color="#0F579D"/>
<stop offset="0.57" stop-color="#004989"/>
<stop offset="0.75" stop-color="#002561"/>
<stop offset="0.91" stop-color="#000A44"/>
<stop offset="1" stop-color="#000039"/>
</radialGradient>
<radialGradient id="paint51_radial_289_874" cx="0" cy="0" r="1" gradientUnits="userSpaceOnUse" gradientTransform="translate(17.9204 15.7076) scale(54.2785 54.2764)">
<stop stop-color="#96B3DD"/>
<stop offset="0.1" stop-color="#5C8CC1"/>
<stop offset="0.2" stop-color="#2465A7"/>
<stop offset="0.25" stop-color="#0F579D"/>
<stop offset="0.57" stop-color="#004989"/>
<stop offset="0.75" stop-color="#002561"/>
<stop offset="0.91" stop-color="#000A44"/>
<stop offset="1" stop-color="#000039"/>
</radialGradient>
<radialGradient id="paint52_radial_289_874" cx="0" cy="0" r="1" gradientUnits="userSpaceOnUse" gradientTransform="translate(17.8215 16.1608) scale(55.0004 54.9983)">
<stop stop-color="#96B3DD"/>
<stop offset="0.1" stop-color="#5C8CC1"/>
<stop offset="0.2" stop-color="#2465A7"/>
<stop offset="0.25" stop-color="#0F579D"/>
<stop offset="0.57" stop-color="#004989"/>
<stop offset="0.75" stop-color="#002561"/>
<stop offset="0.91" stop-color="#000A44"/>
<stop offset="1" stop-color="#000039"/>
</radialGradient>
</defs>
</svg>
