<svg width="64" height="63" viewBox="0 0 64 63" fill="none" xmlns="http://www.w3.org/2000/svg">
<g id="&#236;&#132;&#156;&#234;&#176;&#149;&#235;&#140;&#128;&#237;&#149;&#153;&#234;&#181;&#144;" clip-path="url(#clip0_289_806)">
<path id="Vector" d="M31.6252 0C14.2569 0 0.125244 14.1286 0.125244 31.5C0.125244 48.8714 14.2569 63 31.6252 63C48.9936 63 63.1252 48.8684 63.1252 31.5C63.1252 14.1316 48.9936 0 31.6252 0ZM31.6129 61.8584C14.8462 61.8584 1.25454 48.2667 1.25454 31.5C1.25454 14.7333 14.8493 1.14473 31.6129 1.14473C48.3765 1.14473 61.9682 14.7364 61.9682 31.5C61.9682 48.2636 48.3765 61.8584 31.6129 61.8584Z" fill="#7D7D7D"/>
<path id="Vector_2" d="M53.0634 31.3055L37.0743 31.1944L53.048 30.5064L53.0356 30.2379L37.0619 30.926L52.977 29.4357L52.9523 29.1703L37.0342 30.6606L52.8567 28.3743L52.8166 28.1089L36.9972 30.3953L52.6808 27.319L52.6284 27.0568L36.9416 30.133L52.4556 26.273L52.3877 26.0139L36.8861 29.8707L52.1748 25.2425L52.0946 24.9864L36.8028 29.6177L51.8416 24.2243L51.7521 23.9712L36.7133 29.3616L51.462 23.2276L51.3571 22.9808L36.6084 29.1179L51.027 22.2464L50.9128 22.0058L36.488 28.8741L50.5487 21.293L50.4222 21.0585L36.3615 28.6396L50.0211 20.3612L49.8823 20.1329L36.2165 28.4144L49.4472 19.4571L49.2991 19.2381L36.0653 28.1922L48.8301 18.587L48.6697 18.371L35.9049 27.9793L48.1667 17.7447L47.997 17.5379L35.7352 27.7695L47.4663 16.9394L47.2843 16.7419L35.55 27.5751L46.7227 16.168L46.5345 15.9798L35.3526 27.3931L45.9451 15.4367L45.7446 15.2578L35.152 27.2172L45.1306 14.7456L44.9207 14.5759L34.9453 27.0475L44.279 14.0914L44.063 13.9341L34.7262 26.8901L43.3996 13.4867L43.1744 13.3386L34.501 26.7451L42.4894 12.922L42.258 12.7893L34.2665 26.6124L41.5514 12.4067L41.3138 12.2864L34.032 26.4829L40.5918 11.9408L40.348 11.8298L33.7851 26.3779L39.6075 11.5212L39.3576 11.4225L33.5352 26.27L38.6047 11.1509L38.3486 11.0676L33.2791 26.1928L37.5834 10.8331L37.3242 10.7591L33.0168 26.1249L36.5467 10.5647L36.2844 10.5061L32.7546 26.0663L35.4976 10.3518L35.2353 10.3055L32.4892 26.0231L34.4424 10.1883L34.177 10.1543L32.2239 25.9923L33.3778 10.0803L33.1094 10.0618L31.9523 25.9707L32.3103 10.0247L32.0418 10.0186L31.616 28.9975L31.3167 10.0186L31.0483 10.0216L31.3013 26.0108L30.2491 10.0556L29.9807 10.0741L31.0359 26.0293L29.1815 10.1481L28.9193 10.1821L30.7706 26.057L28.1232 10.2963L27.8609 10.3394L30.5052 26.1033L27.0711 10.4937L26.8119 10.5523L30.243 26.162L26.0343 10.7467L25.7751 10.8177L29.9838 26.2268L25.0099 11.0491L24.7538 11.1324L29.7308 26.3131L24.001 11.4039L23.748 11.4996L29.4808 26.415L23.0105 11.8082L22.7637 11.9161L29.234 26.523L22.0417 12.2617L21.801 12.3821L28.9964 26.6402L21.0944 12.7647L20.863 12.8943L28.765 26.7791L20.178 13.3139L19.9528 13.4558L28.5428 26.9272L19.2894 13.9094L19.0703 14.0606L28.3207 27.0814L18.4285 14.5419L18.2187 14.7116L28.114 27.2511L17.6047 15.2238L17.4041 15.3997L27.9134 27.427L16.8117 15.9458L16.6204 16.131L27.7221 27.6183L16.0619 16.7049L15.8768 16.8992L27.5401 27.8127L15.3461 17.5009L15.1733 17.7046L27.3704 28.0194L14.6735 18.3309L14.5099 18.5438L27.2068 28.2323L14.0409 19.1949L13.8897 19.4139L27.0556 28.4576L13.4547 20.0897L13.3158 20.318L26.9137 28.6859L12.9147 21.0122L12.7851 21.2467L26.7841 28.9204L12.418 21.9595L12.3007 22.2002L26.6669 29.1611L11.9736 22.9314L11.8687 23.1783L26.5619 29.4079L11.5756 23.925L11.483 24.178L26.4694 29.6609L11.23 24.937L11.1498 25.1931L26.3892 29.917L10.9338 25.9676L10.869 26.2237L26.3274 30.1793L10.6932 27.0074L10.6376 27.2697L26.2781 30.4446L10.5019 28.0595L10.4587 28.3249L26.2349 30.71L10.363 29.121L10.3352 29.3863L26.2102 30.9784L10.2766 30.1855L10.2674 30.4539L26.2009 31.2469L10.2488 31.2561V31.5246L29.4531 31.5153L10.2674 32.3422L10.2766 32.6107L26.2534 31.9226L10.3321 33.4098L10.3568 33.6783L26.275 32.188L10.4556 34.4712L10.4957 34.7366L26.3151 32.4533L10.6314 35.5296L10.6839 35.7918L26.3676 32.7156L10.8567 36.5725L10.9246 36.8317L26.4262 32.9748L11.1406 37.603L11.2177 37.8622L26.5095 33.2309L11.4707 38.6243L11.5602 38.8743L26.599 33.4839L11.8533 39.621L11.9551 39.8678L26.7039 33.7307L12.2822 40.5991L12.3964 40.8397L26.8211 33.9714L12.7635 41.5556L12.89 41.7901L26.9507 34.2059L13.2912 42.4843L13.43 42.7157L27.0957 34.4311L13.8651 43.3884L14.0132 43.6105L27.2469 34.6533L14.4822 44.2616L14.6426 44.4776L27.4074 34.8662L15.1425 45.1039L15.3153 45.3076L27.5771 35.076L15.846 45.9092L16.028 46.1067L27.7622 35.2704L16.5896 46.6806L16.7778 46.8688L27.9597 35.4524L17.3671 47.4119L17.5677 47.5878L28.1602 35.6283L18.1817 48.1061L18.3915 48.2697L28.367 35.798L19.0333 48.7541L19.2493 48.9114L28.586 35.9554L19.9127 49.3619L20.1379 49.5069L28.8113 36.1004L20.8198 49.9235L21.0543 50.0562L29.0427 36.2362L21.7578 50.4388L21.9985 50.5622L29.2772 36.3657L22.7205 50.9047L22.9642 51.0189L29.5271 36.4676L23.7048 51.3274L23.9516 51.4231L29.7771 36.5756L24.7076 51.6946L24.9637 51.781L30.0331 36.6558L25.7289 52.0124L25.988 52.0864L30.2954 36.7206L26.7656 52.2808L27.0279 52.3395L30.5577 36.7792L27.8147 52.4968L28.0769 52.5431L30.823 36.8224L28.8699 52.6573L29.1384 52.6912L31.0884 36.8563L29.9344 52.7652L30.2029 52.7868L31.3599 36.8779L31.002 52.8239L31.2704 52.827L31.6962 33.848L31.9925 52.83L32.2609 52.8239L32.011 36.8347L33.0631 52.7899L33.3285 52.7714L32.2763 36.8162L34.1276 52.6974L34.393 52.6665L32.5448 36.7915L35.186 52.5523L35.4513 52.5091L32.807 36.7453L36.2381 52.3518L36.5004 52.2963L33.0662 36.6836L37.2779 52.0988L37.5371 52.0309L33.3285 36.6188L38.3054 51.7964L38.5584 51.7131L33.5815 36.5324L39.3113 51.4416L39.5612 51.3459L33.8314 36.4336L40.3017 51.0404L40.5486 50.9294L34.0752 36.3226L41.2706 50.5838L41.5113 50.4635L34.3158 36.2053L42.2148 50.0839L42.4493 49.9513L34.5473 36.0695L43.1342 49.5347L43.3595 49.3897L34.7694 35.9184L44.0229 48.9423L44.2419 48.7849L34.9885 35.7641L44.8806 48.3005L45.0935 48.137L35.1983 35.5975L45.7076 47.6248L45.9081 47.4458L35.4019 35.4216L46.4974 46.9028L46.6918 46.7146L35.5902 35.2303L47.2534 46.1407L47.4354 45.9494L35.7722 35.0328L47.9662 45.3477L48.1389 45.144L35.9419 34.8261L48.6388 44.5146L48.8023 44.3048L36.1054 34.6132L49.2713 43.6537L49.4225 43.4316L36.2566 34.391L49.8576 42.7589L49.9964 42.5306L36.3955 34.1627L50.3975 41.8364L50.5271 41.6019L36.5251 33.9282L50.8912 40.886L51.0116 40.6454L36.6454 33.6875L51.3386 39.9172L51.4435 39.6672L36.7503 33.4376L51.7336 38.9206L51.8292 38.6706L36.8429 33.1877L52.0822 37.9116L52.1594 37.6555L36.92 32.9285L52.3754 36.881L52.4432 36.6218L36.9817 32.6662L52.6191 35.8412L52.6746 35.5789L37.0342 32.4039L52.8104 34.7891L52.8536 34.5237L37.0743 32.1386L52.9462 33.7276L52.977 33.4592L37.099 31.8671L53.0326 32.6631L53.048 32.3947L33.8654 31.4382L53.0603 31.5739L53.0634 31.3055Z" fill="#7D7D7D"/>
<g id="Group">
<path id="Vector_3" d="M29.2525 11.0122L28.3916 11.3948C28.1787 11.4905 27.9411 11.5583 27.6974 11.5954L27.4629 11.6324L27.1605 12.4717C27.1605 12.4717 27.4073 12.4778 27.5647 12.484C27.4351 12.8296 27.0463 13.8817 27.0463 13.8817C27.0463 13.8817 26.997 13.999 26.9754 14.0484C26.9291 14.0576 26.6144 14.1039 26.6144 14.1039L26.5125 14.3137L26.2472 14.9647H28.188L28.5212 14.144C28.5212 14.144 28.2589 14.107 28.1201 14.0885C28.2466 13.7491 29.2556 11.0153 29.2556 11.0153L29.2525 11.0122Z" fill="white"/>
<path id="Vector_4" d="M31.545 11.6725C31.4278 11.5305 31.2087 11.3608 30.8384 11.3608H30.8354C30.1596 11.3608 29.4932 11.9687 29.3512 12.7154C29.3358 12.7956 29.3296 12.8789 29.3296 12.9591C29.3296 13.2029 29.4037 13.422 29.5487 13.5948C29.6228 13.6873 29.7153 13.7521 29.8171 13.8046C29.6012 13.965 29.3697 14.0792 29.1383 14.1224L28.8421 14.1779L28.7681 15.0326H29.2031C29.3605 15.0295 29.6567 14.9616 29.8943 14.8752C30.6101 14.613 31.5234 13.894 31.7425 12.7185C31.7919 12.4747 31.8258 12.0119 31.5481 11.6756L31.545 11.6725ZM30.6595 12.3821C30.6533 12.4284 30.6533 12.4624 30.641 12.5364C30.641 12.5364 30.5823 12.7154 30.5361 12.845C30.5114 12.8542 30.4929 12.8635 30.4744 12.8666C30.4744 12.8388 30.4744 12.8018 30.4867 12.7586C30.5206 12.5734 30.5947 12.4593 30.6595 12.3852V12.3821Z" fill="white"/>
<path id="Vector_5" d="M33.5599 12.5332C33.6432 12.4808 33.7172 12.4129 33.8067 12.3821C33.8129 12.3821 34.5164 12.1691 34.5164 12.1691L34.5781 11.8822L34.6151 11.2466L34.1122 11.3422L34.0196 11.3607L33.4951 11.4842C32.4645 11.8143 31.7363 12.6289 31.5388 13.6625C31.5234 13.7428 31.5203 13.823 31.5142 13.9001C31.5142 13.9032 31.4864 13.9495 31.4864 13.9495C31.4864 13.9495 31.5111 13.9371 31.5111 13.9341C31.5111 13.9464 31.508 13.9618 31.508 13.9711C31.508 14.255 31.5882 14.4987 31.7425 14.6869C31.9184 14.8998 32.1745 15.014 32.4707 15.014C33.1742 15.014 33.8406 14.4 33.9887 13.6163C34.0042 13.5268 34.0134 13.4373 34.0134 13.354C34.0134 13.1041 33.9394 12.8819 33.8005 12.7122C33.7357 12.6351 33.6493 12.5826 33.5629 12.5332H33.5599ZM32.8687 13.4342C32.8687 13.462 32.8656 13.5021 32.8564 13.5515C32.8008 13.8353 32.7021 13.9649 32.6311 14.0205C32.6311 13.9711 32.6311 13.9063 32.6496 13.8261C32.6805 13.6718 32.7175 13.5576 32.7545 13.4712C32.7946 13.4527 32.8533 13.4219 32.8687 13.4219C32.8687 13.4219 32.8687 13.426 32.8687 13.4342Z" fill="white"/>
<path id="Vector_6" d="M36.6145 11.654C36.5034 11.5213 36.3029 11.3608 35.9573 11.3608H35.9511C34.8897 11.3608 34.251 12.8357 34.1091 13.5516C34.035 13.9002 34.0011 14.3877 34.2726 14.721C34.3806 14.8567 34.5843 15.0141 34.9267 15.0141C35.9882 15.0141 36.633 13.5176 36.7811 12.7925C36.8521 12.4562 36.8799 11.981 36.6176 11.654H36.6145ZM35.6642 12.6321C35.5685 12.9962 35.4019 13.4158 35.2291 13.7182C35.3248 13.3541 35.4945 12.9314 35.6642 12.6321Z" fill="white"/>
</g>
<g id="Group_2">
<path id="Vector_7" d="M26.8396 14.5637L26.8797 14.4619C27.2469 14.4217 27.2778 14.4001 27.4166 14.0145L28.0245 12.3791C28.1201 12.12 28.1047 12.0984 27.8887 12.0922L27.719 12.086L27.756 11.9842C28.0306 11.9441 28.3022 11.8669 28.5521 11.7559L27.7159 14.0145C27.574 14.3971 27.6018 14.4217 27.9566 14.4619L27.9165 14.5637H26.8365H26.8396Z" fill="#7D7D7D"/>
<path id="Vector_8" d="M30.7521 11.8978C31.1625 11.8978 31.0668 12.4223 31.0329 12.6105C30.9928 12.8234 30.9218 12.9962 30.857 13.1382C30.7583 13.2091 30.5762 13.2739 30.4466 13.2739C30.1319 13.2739 30.0332 13.0178 30.098 12.6846C30.172 12.2866 30.4312 11.9009 30.749 11.9009H30.7552L30.7521 11.8978ZM30.8354 11.7559C30.3602 11.7559 29.8511 12.2279 29.7431 12.7895C29.6629 13.2061 29.882 13.5053 30.2121 13.5053C30.28 13.5053 30.3571 13.4868 30.4497 13.4436L30.7953 13.2801C30.4034 13.9743 29.774 14.4063 29.2093 14.5112L29.2001 14.6316C29.2803 14.6316 29.5271 14.5853 29.7555 14.4989C30.4559 14.2428 31.1717 13.5856 31.3507 12.6414C31.4278 12.2372 31.3445 11.7559 30.8385 11.7559H30.8354Z" fill="#7D7D7D"/>
<path id="Vector_9" d="M32.8811 13.0207C33.276 13.0207 33.2976 13.3601 33.2483 13.6224C33.1526 14.1222 32.878 14.4771 32.5695 14.4771C32.2331 14.4771 32.193 14.1068 32.2609 13.752C32.3072 13.4959 32.3905 13.2768 32.4522 13.1688C32.5633 13.1009 32.7299 13.0207 32.878 13.0207H32.8811ZM34.1894 11.731C34.0382 11.7618 33.8314 11.7927 33.6124 11.8636C32.8101 12.1197 32.1066 12.7739 31.9246 13.7365C31.8289 14.2457 32.0418 14.6128 32.4676 14.6128C32.9551 14.6128 33.4766 14.1623 33.5938 13.5391C33.6741 13.1318 33.5013 12.7955 33.1002 12.7955C33.023 12.7955 32.9305 12.8263 32.8379 12.8695L32.5355 13.0145V13.0084C32.9058 12.4067 33.3285 12.1382 33.6679 12.0087C33.8469 11.9408 34.0505 11.8791 34.1832 11.8575L34.1894 11.731Z" fill="#7D7D7D"/>
<path id="Vector_10" d="M35.9079 11.8975C36.2041 11.8975 36.1548 12.2893 36.0992 12.5578C36.0098 12.9805 35.5192 14.4739 34.9823 14.4739C34.7046 14.4739 34.7385 14.0882 34.8033 13.7889C34.8959 13.3446 35.3741 11.8944 35.9079 11.8944V11.8975ZM35.9542 11.7555C35.1921 11.7555 34.6305 12.9743 34.5009 13.6253C34.4022 14.0974 34.4423 14.6127 34.9298 14.6127C35.6858 14.6127 36.2566 13.3816 36.3954 12.7089C36.488 12.2616 36.4479 11.7524 35.9635 11.7524H35.9573L35.9542 11.7555Z" fill="#7D7D7D"/>
</g>
<g id="Group_3">
<path id="Vector_11" d="M42.8503 34.632C39.7587 26.656 42.6436 20.0622 42.6436 20.0622L39.0829 16.1714H24.1799L20.6192 20.0622C20.6192 20.0622 23.5042 26.656 20.4125 34.632C19.8849 35.9989 18.7648 39.8897 20.8259 43.2406C23.1833 47.0759 28.8545 49.5319 31.6283 50.9791C34.4022 49.5319 40.0734 47.0728 42.4307 43.2406C44.4918 39.8897 43.3749 35.9989 42.8442 34.632H42.8503Z" fill="white"/>
<g id="Group_4">
<path id="Vector_12" d="M42.3382 37.048C42.187 36.4587 42.0049 35.857 41.8136 35.2183C41.1317 32.9536 40.2246 30.3895 40.2246 26.6591C40.2246 24.4993 40.6658 22.7744 41.1996 20.2628C40.5979 19.618 38.9657 17.9209 38.4442 17.3594H24.8124C24.291 17.9209 22.6557 19.618 22.0571 20.2628C22.594 22.7744 23.0321 24.4993 23.0321 26.6591C23.0321 30.3895 22.128 32.9566 21.4431 35.2183C21.2487 35.857 21.0666 36.4618 20.9185 37.048C20.9185 37.048 20.0607 40.3619 22.3718 43.3425C24.0256 45.5425 26.9569 47.2395 29.3049 48.4706C30.2522 48.9643 31.0143 49.2204 31.6191 49.6184V49.6215C31.6191 49.6215 31.6191 49.6215 31.6222 49.6215C31.6222 49.6215 31.6222 49.6215 31.6253 49.6215C32.23 49.2173 32.9952 48.9643 33.9394 48.4675C36.2875 47.2364 39.2187 45.5394 40.8725 43.3394C43.1836 40.3588 42.3289 37.0449 42.3289 37.0449L42.3382 37.048Z" fill="#B60005"/>
<g id="Clip path group">
<mask id="mask0_289_806" style="mask-type:luminance" maskUnits="userSpaceOnUse" x="20" y="17" width="23" height="33">
<g id="clippath">
<path id="Vector_13" d="M42.3382 37.048C42.187 36.4587 42.0049 35.857 41.8136 35.2183C41.1317 32.9536 40.2246 30.3895 40.2246 26.6591C40.2246 24.4993 40.6658 22.7744 41.1996 20.2628C40.5979 19.618 38.9657 17.9209 38.4442 17.3594H24.8124C24.291 17.9209 22.6557 19.618 22.0571 20.2628C22.594 22.7744 23.0321 24.4993 23.0321 26.6591C23.0321 30.3895 22.128 32.9566 21.4431 35.2183C21.2487 35.857 21.0666 36.4618 20.9185 37.048C20.9185 37.048 20.0607 40.3619 22.3718 43.3425C24.0256 45.5425 26.9569 47.2395 29.3049 48.4706C30.2522 48.9643 31.0143 49.2204 31.6191 49.6184V49.6215C31.6191 49.6215 31.6191 49.6215 31.6222 49.6215C31.6222 49.6215 31.6222 49.6215 31.6253 49.6215C32.23 49.2173 32.9952 48.9643 33.9394 48.4675C36.2875 47.2364 39.2187 45.5394 40.8725 43.3394C43.1836 40.3588 42.3289 37.0449 42.3289 37.0449L42.3382 37.048Z" fill="white"/>
</g>
</mask>
<g mask="url(#mask0_289_806)">
<g id="Group_5">
<path id="Vector_14" d="M43.594 38.5352L31.6253 26.9028L19.6566 38.5352C19.3141 40.3125 19.382 42.1823 19.7584 43.5337L31.6222 32.3241L43.4891 43.5337C43.8686 42.1854 43.9334 40.3125 43.5909 38.5352H43.594Z" fill="white"/>
</g>
</g>
</g>
</g>
<g id="Group_6">
<path id="Vector_15" d="M24.8279 20.7288C24.8279 20.4665 24.797 20.377 24.5563 20.3554V20.269H25.7782V20.3647C25.5344 20.3863 25.5036 20.4727 25.5036 20.738V24.0457C25.5036 24.308 25.5252 24.3975 25.7689 24.416V24.5178H24.5594V24.4221C24.8001 24.4036 24.8309 24.3141 24.8309 24.0519V20.7257L24.8279 20.7288Z" fill="white"/>
<path id="Vector_16" d="M29.1661 22.1234V20.7473C29.1661 20.4819 29.1877 20.3955 28.9625 20.3739V20.269H30.0979V20.3739C29.848 20.3955 29.8202 20.4819 29.8202 20.7473V24.0426C29.8202 24.308 29.848 24.3944 30.0918 24.416V24.5178H28.8946V24.4221C29.1445 24.4036 29.163 24.3141 29.163 24.0519V22.4227H27.5462V24.0519C27.5462 24.3141 27.5586 24.4036 27.7869 24.4221V24.5178H26.6113V24.4314C26.852 24.4098 26.8859 24.3234 26.8859 24.0611V20.738C26.8859 20.4727 26.8612 20.3863 26.6082 20.3647V20.269H27.7406V20.3554C27.5215 20.377 27.5431 20.4665 27.5431 20.7288V22.1234H29.1599H29.1661Z" fill="white"/>
<path id="Vector_17" d="M30.644 23.7311C30.7057 23.907 31.1346 24.3513 31.8073 24.3513C32.2578 24.3513 32.5262 24.0459 32.5262 23.5985C32.5262 23.1511 32.2207 22.8826 31.7456 22.6419C31.2426 22.392 30.6163 22.0218 30.6163 21.3707C30.6163 20.7197 31.1315 20.189 32.0356 20.189C32.3997 20.189 32.6897 20.2754 32.8903 20.334C32.915 20.587 32.9335 20.7228 32.9643 20.9202L32.8502 20.9387C32.7792 20.7413 32.5509 20.4389 31.9214 20.4389C31.5111 20.4389 31.2704 20.7474 31.2704 21.1177C31.2704 21.5065 31.5697 21.7441 32.0449 21.9786C32.6095 22.2501 33.2019 22.6049 33.2019 23.33C33.2019 24.0551 32.5848 24.6074 31.6839 24.6074C31.4679 24.6074 31.2426 24.5735 31.0822 24.5272C30.9094 24.484 30.7613 24.4285 30.641 24.3822C30.5823 24.194 30.5669 23.9595 30.533 23.762L30.644 23.7342V23.7311Z" fill="white"/>
</g>
<path id="Vector_18" d="M34.7787 39.9145L34.4763 40.8154C34.4763 40.8154 34.7972 40.8586 35.1026 40.945L34.5719 42.3675C34.5719 42.3675 33.5383 42.1947 32.5386 42.1422L32.6003 40.6025C32.6003 40.6025 32.8194 40.6025 33.1186 40.6303L33.2205 39.7293C32.7021 39.6861 32.1776 39.6646 31.6469 39.6646C31.1161 39.6646 30.5885 39.6861 30.0702 39.7293L30.172 40.6303C30.4744 40.5995 30.6903 40.6025 30.6903 40.6025L30.7521 42.1422C29.7524 42.1916 28.7187 42.3675 28.7187 42.3675L28.188 40.942C28.5058 40.8679 28.8144 40.8185 28.8144 40.8185L28.5089 39.9176C27.3858 40.0965 26.2935 40.365 25.2413 40.7229C26.5774 42.5588 27.864 45.1105 27.864 45.1105C31.9492 44.2959 35.4235 45.1105 35.4235 45.1105C36.0406 43.7961 37.5124 41.3986 38.0431 40.7229C36.991 40.365 35.8987 40.0934 34.7756 39.9176L34.7787 39.9145Z" fill="white"/>
</g>
<g id="Group_7">
<g id="Group_8">
<path id="Vector_19" d="M8.08896 22.2805C8.06427 22.6909 7.71252 23.0056 7.30215 22.9809C6.89178 22.9563 6.58014 22.6045 6.60483 22.1972C6.62642 21.7868 6.97817 21.4721 7.38855 21.4937C7.79892 21.5184 8.11364 21.8702 8.09204 22.2805H8.08896Z" fill="#7D7D7D"/>
<path id="Vector_20" d="M56.8925 22.1725C56.9141 22.5828 56.6025 22.9346 56.1921 22.9593C55.7818 22.984 55.43 22.6692 55.4084 22.2589C55.3837 21.8485 55.6984 21.4967 56.1088 21.4721C56.5223 21.4474 56.8709 21.7621 56.8956 22.1725H56.8925Z" fill="#7D7D7D"/>
<g id="Group_9">
<path id="Vector_21" d="M5.06207 29.0998C4.52519 29.2417 3.42675 29.7076 3.38972 30.5932C3.36812 31.1393 3.76615 31.488 4.34006 31.5096C4.94482 31.5342 5.33977 31.1794 5.70077 30.5099C6.16977 29.6459 6.75602 29.0319 7.66007 29.0689C8.71223 29.1121 9.50829 29.8742 9.45893 31.13C9.43733 31.6793 9.23677 32.1513 9.15655 32.3488C8.80171 32.3704 8.36665 32.4136 7.71561 32.4722L7.6539 32.1112C8.24015 31.957 8.98684 31.7039 9.01461 30.9881C9.03621 30.4481 8.62892 30.1396 8.12598 30.1211C7.63847 30.0995 7.27438 30.4049 6.89486 31.1424C6.43821 32.0403 5.83345 32.6358 4.85843 32.5957C3.7137 32.5494 2.89604 31.6824 2.94849 30.3864C2.96083 30.0409 3.04106 29.72 3.13671 29.4793C3.23236 29.2325 3.31567 29.072 3.38046 28.9517C3.63656 28.8869 4.30303 28.8097 4.95408 28.7388L5.06207 29.0936V29.0998Z" fill="#7D7D7D"/>
<path id="Vector_22" d="M8.36051 36.1747C8.52713 37.0386 7.68478 37.6958 6.1698 37.9889C4.73503 38.2635 3.97291 37.9211 3.84024 37.2299C3.66436 36.3073 4.64247 35.6285 5.99392 35.3724C7.29601 35.1225 8.22166 35.4403 8.36051 36.1685V36.1747ZM8.7462 36.2209C8.43148 34.5856 6.84553 34.0672 5.58355 34.311C4.13336 34.5887 3.17068 35.7273 3.44529 37.162C3.70447 38.5196 4.97879 39.3466 6.62337 39.0349C8.13527 38.748 8.99613 37.5323 8.7462 36.2302V36.224V36.2209Z" fill="#7D7D7D"/>
<path id="Vector_23" d="M7.30218 45.0919C7.04299 45.2122 6.81467 45.3233 6.66348 45.4313C6.3611 45.0919 5.95072 44.626 5.71005 44.0983C5.02815 42.6019 5.52801 41.2165 6.99363 40.55C8.64129 39.8002 10.0359 40.6086 10.65 41.9539C10.8968 42.4908 10.9925 43.0308 11.0387 43.2899C10.7981 43.4226 10.4371 43.6263 9.85081 43.9564L9.68728 43.7003C10.4772 43.0956 10.4864 42.4939 10.2519 41.9786C9.88784 41.1825 8.86653 40.9141 7.58605 41.4973C6.45366 42.0125 5.5928 42.9474 6.08031 44.015C6.13894 44.1446 6.21299 44.2495 6.31481 44.2989C6.41046 44.3483 6.5524 44.3452 6.7653 44.2495L7.41326 43.9533C7.89151 43.7343 7.92545 43.6787 7.68478 42.9783L7.95631 42.8549L8.85111 44.8204L8.57958 44.9469C8.36051 44.6568 8.3204 44.626 7.873 44.8327L7.30218 45.0919Z" fill="#7D7D7D"/>
<path id="Vector_24" d="M10.1439 47.2858C10.6901 47.0853 11.227 46.8847 11.7947 46.6903L11.807 46.7058L10.7919 48.1313L10.1439 47.2889V47.2858ZM10.5358 48.4923C10.3877 48.7237 10.1594 49.0754 10.0267 49.276C9.81996 49.5876 9.74282 49.6123 9.42193 49.2914L9.18434 49.4735L10.4186 51.0779L10.6561 50.8959C10.4648 50.5596 10.4216 50.4238 10.8382 49.7913C11.2856 49.1125 11.8564 48.2886 12.421 47.4648L13.2973 46.1874L12.9579 45.9282L8.85728 47.2673C8.16921 47.4895 8.05505 47.4247 7.7465 47.1192L7.50891 47.3013L8.51479 48.6064L8.75237 48.4244C8.46542 47.977 8.54564 47.9245 8.92208 47.7641C9.2152 47.6438 9.53918 47.5142 9.73357 47.4494L10.5358 48.4892V48.4923Z" fill="#7D7D7D"/>
<path id="Vector_25" d="M14.479 49.902C14.803 49.507 14.9203 49.3589 14.9357 49.1306C14.948 48.8961 14.8462 48.7418 14.6333 48.5289L14.8215 48.2944L15.849 49.1306L15.7287 53.5305L15.741 53.5398L16.6173 52.463C17.0647 51.9168 17.2807 51.5805 17.4103 51.3861C17.5645 51.1331 17.509 50.9109 17.148 50.5777L17.3393 50.3432L18.7586 51.5003L18.5673 51.7317C18.2835 51.5281 18.0675 51.5157 17.8515 51.7286C17.6725 51.8983 17.3887 52.1791 16.9413 52.7252L14.9789 55.135L14.6086 54.8326L14.8524 50.1118L14.8431 50.1025L13.7879 51.3954C13.3405 51.9446 13.1368 52.2562 13.0042 52.466C12.8375 52.7283 12.9023 52.9412 13.251 53.2683L13.0628 53.5028L11.6373 52.3395L11.8286 52.1081C12.1217 52.3149 12.3408 52.3426 12.5629 52.1266C12.7542 51.9415 13.0257 51.6854 13.4701 51.1362L14.479 49.902Z" fill="#7D7D7D"/>
<path id="Vector_26" d="M21.2487 57.4802C21.1222 57.7363 21.0173 57.9677 20.9679 58.1466C20.5205 58.0757 19.9065 57.98 19.385 57.7208C17.9071 56.9957 17.4195 55.6073 18.1292 54.1632C18.9284 52.5372 20.5205 52.2811 21.8473 52.9321C22.378 53.1913 22.7945 53.5492 22.992 53.7189C22.8902 53.975 22.7421 54.3607 22.4983 54.9871L22.2083 54.8945C22.4366 53.9257 22.0632 53.4536 21.5572 53.2036C20.7735 52.818 19.8108 53.2561 19.1906 54.5212C18.6414 55.6381 18.5674 56.9063 19.6226 57.4246C19.7491 57.4863 19.8756 57.5234 19.9867 57.4956C20.0947 57.474 20.1996 57.3814 20.3014 57.1716L20.6161 56.5329C20.8476 56.0608 20.8352 55.993 20.2058 55.6073L20.3384 55.3357L22.2792 56.2892L22.1466 56.5576C21.7917 56.4712 21.7424 56.4743 21.5264 56.9186L21.2518 57.4802H21.2487Z" fill="#7D7D7D"/>
<path id="Vector_27" d="M26.5126 55.0981C26.6206 54.2218 26.5496 54.1447 25.9109 53.9997L25.9541 53.6387L28.5953 53.9627L28.549 54.3237C27.901 54.3113 27.8054 54.3669 27.6974 55.2462L27.4475 57.295C27.2716 58.739 27.6141 59.5845 28.549 59.6986C29.5549 59.822 30.1072 59.0291 30.3016 57.4524L30.4157 56.5144C30.496 55.8664 30.5021 55.3696 30.496 55.0642C30.4929 54.7248 30.3016 54.5767 29.7277 54.4687L29.7709 54.1077L31.977 54.3761L31.9338 54.7371C31.4895 54.7093 31.2643 54.8204 31.1748 55.1567C31.11 55.4437 30.9958 55.925 30.9187 56.573L30.8014 57.5511C30.6842 58.5107 30.4404 59.3407 29.8881 59.8467C29.4531 60.254 28.8082 60.4299 28.1541 60.3497C27.5647 60.2787 27.0155 60.0843 26.6236 59.64C26.2256 59.1772 26.096 58.4644 26.2349 57.3444L26.5064 55.1012L26.5126 55.0981Z" fill="#7D7D7D"/>
<path id="Vector_28" d="M33.4025 56.6469C33.3284 56.1408 33.3007 55.9557 33.1433 55.786C32.9767 55.6194 32.7946 55.5885 32.4953 55.6009L32.4521 55.3047L33.7635 55.1134L36.9261 58.1773H36.9385L36.7379 56.7981C36.6361 56.0976 36.5374 55.712 36.4818 55.4867C36.4016 55.2028 36.198 55.0918 35.7074 55.1319L35.6642 54.8326L37.4754 54.5703L37.5186 54.8696C37.1761 54.9437 37.0187 55.0887 37.0311 55.3911C37.0311 55.6379 37.0465 56.039 37.1483 56.7363L37.5957 59.8095L37.1236 59.8774L33.8129 56.5049H33.7974L34.0381 58.1588C34.1399 58.8592 34.2325 59.2202 34.2973 59.4609C34.3775 59.7601 34.5781 59.8558 35.0563 59.8188L35.0995 60.115L33.2791 60.3803L33.2359 60.081C33.5876 60.007 33.7542 59.862 33.7481 59.5534C33.7419 59.2881 33.7326 58.9147 33.6308 58.2174L33.4025 56.6407V56.6469Z" fill="#7D7D7D"/>
<path id="Vector_29" d="M39.0089 55.1074C38.799 54.4872 38.7157 54.4533 38.1943 54.5767L38.0986 54.2929L40.169 53.5894L40.2647 53.8732C39.7772 54.0954 39.734 54.1694 39.9438 54.7927L40.9126 57.6468C41.1224 58.267 41.2027 58.3009 41.7241 58.1806L41.8198 58.4645L39.7494 59.1649L39.6537 58.881C40.1412 58.6589 40.1875 58.5848 39.9777 57.9615L39.0089 55.1074Z" fill="#7D7D7D"/>
<path id="Vector_30" d="M45.2972 56.9156C44.1864 55.9005 42.6375 54.512 42.0173 53.9658C41.5236 53.5277 41.394 53.5277 41.0145 53.682L40.8633 53.4135L42.7238 52.3737L42.875 52.6422C42.4369 52.9476 42.4647 53.0062 42.7084 53.2407C43.0108 53.5339 44.208 54.62 45.0596 55.3698L45.0781 55.3574C44.896 54.2867 44.6862 53.1945 44.5227 52.4786C44.4085 51.9603 44.3314 51.8739 43.8099 52.1176L43.6588 51.8492L45.1707 51.0068L45.3188 51.2722C44.9608 51.5375 44.8837 51.6394 44.9886 52.42C45.075 53.0248 45.3897 55.0057 45.6921 56.6903L45.2941 56.9094L45.2972 56.9156Z" fill="#7D7D7D"/>
<path id="Vector_31" d="M46.8152 50.9913C46.3832 50.4976 46.2907 50.4945 45.8618 50.8061L45.6643 50.5809L48.216 48.3408C48.3086 48.4365 48.719 48.8499 49.0831 49.2078L48.8794 49.4393C48.6048 49.2356 48.3888 49.1338 48.2191 49.1153C48.0371 49.0906 47.8334 49.1924 47.5372 49.4516L47.3212 49.6429C47.1299 49.8095 47.1207 49.8465 47.2904 50.0409L48.3333 51.2258L48.6974 50.908C49.1633 50.4976 49.1509 50.4482 48.8239 49.9422L49.0491 49.7447L50.1938 51.0499L49.9686 51.2474C49.4934 50.8432 49.4502 50.8277 48.9843 51.235L48.6202 51.5559L49.5366 52.5988C49.7866 52.8858 49.9223 52.9938 50.0828 52.9537C50.2154 52.9166 50.3728 52.7901 50.5795 52.6081C50.8202 52.3983 51.0177 52.1391 51.0022 51.8892C50.9992 51.7009 50.922 51.4109 50.777 51.053L51.0454 50.9111C51.2398 51.1949 51.6564 51.8922 51.752 52.0928L48.9843 54.5273L48.7868 54.302C49.225 53.8423 49.2404 53.7559 48.8084 53.2622L46.8183 50.9974L46.8152 50.9913Z" fill="#7D7D7D"/>
<path id="Vector_32" d="M50.4747 46.8197C50.3482 46.721 50.2895 46.6624 50.2803 46.5914C50.271 46.5297 50.2988 46.4402 50.3944 46.3106C50.6197 46.0144 51.1411 45.8077 51.7767 46.289C52.0791 46.5173 52.2828 46.795 52.3136 47.1344C52.3321 47.3473 52.2457 47.5541 52.0668 47.7916L51.9557 47.9398L50.4777 46.8197H50.4747ZM52.5697 49.609C53.0943 50.007 53.1004 50.0934 52.8073 50.5686L53.048 50.7476L54.3686 49.0104L54.1279 48.8284C53.7607 49.2264 53.6743 49.248 53.1498 48.85L52.2334 48.1527L52.3229 48.0323C52.4648 47.8472 52.5975 47.8225 52.8413 47.878C53.2917 47.9737 53.7762 48.094 54.1865 48.128C54.7512 48.1712 55.0721 48.1095 55.6583 47.4029C55.7231 47.3288 55.7694 47.2733 55.8219 47.2116L55.6182 47.0141C55.4763 47.1097 55.3405 47.1375 55.1091 47.156C54.9085 47.1745 54.5722 47.1468 54.0569 47.0943C53.6404 47.0573 53.0665 46.937 52.8289 46.8907C52.9523 46.3507 52.8567 45.8046 52.292 45.3757C51.9249 45.098 51.5268 45.0332 51.1812 45.1443C50.8542 45.2492 50.5549 45.5115 50.1815 46.0051L48.9689 47.6096L49.2096 47.7916C49.5706 47.406 49.6508 47.3874 50.1692 47.7793L52.5728 49.6121L52.5697 49.609Z" fill="#7D7D7D"/>
<path id="Vector_33" d="M55.2387 44.8296C55.6891 44.9006 56.6734 44.916 56.9943 44.265C57.1918 43.8608 57.0097 43.4659 56.5839 43.256C56.1365 43.037 55.7231 43.1727 55.2263 43.5522C54.5845 44.0459 53.9397 44.3144 53.2701 43.9842C52.4926 43.6016 52.147 42.7624 52.6036 41.8336C52.8011 41.4294 53.1097 41.1363 53.2362 41.019C53.5108 41.1209 53.8533 41.235 54.3655 41.4047L54.2914 41.6948C53.7977 41.6145 53.1529 41.559 52.8906 42.0897C52.6962 42.4877 52.8998 42.8549 53.2732 43.037C53.6342 43.2159 54.0075 43.1079 54.5413 42.6791C55.1831 42.1545 55.8403 41.9077 56.5593 42.2594C57.4047 42.679 57.7348 43.6016 57.2628 44.5581C57.1363 44.8111 56.9696 45.0302 56.8184 45.1783C56.6642 45.3326 56.5469 45.4252 56.4574 45.493C56.2445 45.456 55.7169 45.2925 55.1986 45.132L55.2356 44.8266L55.2387 44.8296Z" fill="#7D7D7D"/>
<path id="Vector_34" d="M54.7573 39.7109C54.131 39.5103 54.06 39.5597 53.844 40.0503L53.5571 39.9577L54.2235 37.875L54.5105 37.9676C54.3994 38.4921 54.4334 38.5723 55.0597 38.7729L57.9292 39.6893C58.5556 39.8898 58.6297 39.8466 58.8426 39.353L59.1295 39.4455L58.463 41.5282L58.1792 41.4388C58.2872 40.9142 58.2563 40.8309 57.6299 40.6304L54.7573 39.7109Z" fill="#7D7D7D"/>
<path id="Vector_35" d="M55.0844 35.6101L55.0566 35.7984C54.9826 36.3321 55.0566 36.5234 55.1677 36.6438C55.2849 36.761 55.5009 36.8814 55.8897 37.0387L55.8496 37.3288C55.2263 37.2115 54.6925 37.0912 54.2945 37.0233L54.3192 36.8536C54.5105 36.7641 54.5413 36.6993 54.5691 36.5049L54.9764 33.6262C55.0011 33.4379 54.9671 33.3515 54.8345 33.2158L54.8561 33.0522C55.1862 33.0924 55.8496 33.151 56.4112 33.188L56.3865 33.4811C55.9452 33.5089 55.6891 33.5614 55.5472 33.657C55.396 33.7557 55.3158 33.9841 55.2603 34.3698L55.2232 34.6413L58.8827 35.1566C59.5337 35.246 59.5985 35.1843 59.7435 34.558L60.0428 34.6012L59.7096 36.9523L59.4134 36.9091C59.4442 36.3013 59.3979 36.218 58.7469 36.1254L55.0875 35.6101H55.0844Z" fill="#7D7D7D"/>
<path id="Vector_36" d="M58.1823 30.4233C57.9694 30.4387 57.9046 30.4727 57.7379 30.5591C57.2936 30.7936 56.8154 31.0898 55.9607 31.6051C55.4701 31.9043 55.4331 31.9969 55.396 32.3703L55.0967 32.3919L54.9517 30.3616L55.251 30.3431C55.359 30.8182 55.43 30.8059 55.6707 30.6763C56.2044 30.3894 56.7876 30.0438 57.2905 29.7352C56.8678 29.5594 56.081 29.2601 55.5873 29.1181C55.2942 29.0317 55.2232 29.0533 55.1955 29.5902L54.8962 29.6118L54.7728 27.8932L55.0721 27.8716C55.1585 28.319 55.2665 28.4301 55.7632 28.6615C56.2291 28.8805 56.6518 29.0811 57.3739 29.3495C57.6577 29.4575 57.7102 29.476 58.0218 29.4514L58.929 29.3897C59.6263 29.3403 59.6787 29.2755 59.688 28.6368L59.9873 28.6152L60.1539 30.954L59.8546 30.9756C59.7559 30.3708 59.6972 30.3153 58.9999 30.3647L58.1792 30.4233H58.1823Z" fill="#7D7D7D"/>
</g>
</g>
<g id="Group_10">
<g id="Group_11">
<path id="Vector_37" d="M31.0544 7.11497C30.7891 7.22296 30.7829 7.26925 30.5484 7.26925C30.3139 7.26925 30.4373 7.29085 30.2368 7.24148C30.1164 7.21371 30.0763 7.20137 29.9467 7.1736C29.7554 7.12731 29.2988 7.05635 29.2864 6.39605C29.271 5.69255 29.2278 5.00139 29.3451 4.86872C29.4623 4.73604 29.4098 4.60953 29.4222 4.50771C29.4376 4.40589 29.5703 4.36269 29.6413 4.37504C29.7153 4.38738 29.8418 4.43675 30.0485 4.43675C30.0485 4.43675 30.2399 4.38429 30.3571 4.37504C30.4312 4.36886 30.5916 4.41823 30.7983 4.24236C30.7983 4.24236 31.1501 3.97083 31.1655 3.76719C31.1809 3.56046 31.1254 3.29819 30.6657 3.29819C30.2676 3.29819 29.8727 3.27351 29.6382 3.23957C29.4407 3.2118 29.2864 3.19637 29.1383 3.18094C29.1383 3.18094 28.8174 3.06061 28.5675 3.31362C28.3762 3.50492 28.4132 3.62526 28.478 3.73325C28.5798 3.89987 28.9408 4.0418 28.9193 4.12819C28.8977 4.21767 28.7218 4.32875 28.6755 4.39355C28.6323 4.45834 28.5428 4.56942 28.5891 4.67742C28.6323 4.78849 28.5891 4.92117 28.478 5.02916C28.3669 5.14024 28.3669 5.38091 28.3669 5.49199L28.3885 7.02858C28.3885 7.02858 28.2127 8.13628 30.0177 8.15788C30.0177 8.15788 30.894 8.14862 31.221 8.04988C31.3537 8.00977 31.3938 7.89252 31.4802 7.79996C31.5419 7.73207 31.545 7.513 31.5234 7.4081C31.4802 7.20445 31.2581 7.02858 31.0513 7.11497H31.0544Z" fill="#7D7D7D"/>
<path id="Vector_38" d="M35.1088 5.3533C35.0779 4.5449 34.9514 3.56062 34.9237 3.4588C34.9144 3.42486 34.9484 2.91266 34.7324 2.88489C34.4979 2.85404 34.5133 2.89415 34.3806 2.90958C34.3806 2.90958 34.1029 2.89106 34.1184 3.19962C34.1338 3.50817 34.0289 3.81055 34.0289 4.04505C34.0289 4.16847 34.0782 5.53226 34.1091 6.03829C33.8993 6.04754 33.6308 6.05372 33.4642 6.05372C33.4457 5.00773 33.3809 3.48657 33.0754 3.27984C32.841 3.12248 32.7762 3.02991 32.5756 3.07311C32.4738 3.09471 32.3997 3.13482 32.3781 3.2027C32.3781 3.2027 32.2979 3.32612 32.3781 3.61925C32.4429 3.863 32.4028 6.04137 32.4244 6.5042C32.446 6.96703 32.4244 8.0161 32.5355 8.08398C32.6466 8.14878 32.7792 8.17963 32.9304 8.04696C33.0847 7.91428 33.3717 8.02227 33.5043 7.89268C33.5599 7.83714 33.5043 7.27249 33.4827 7.02874C33.4827 7.00714 33.4797 6.96394 33.4797 6.90532C33.5198 6.8868 33.5753 6.86212 33.6524 6.83126C33.8067 6.76647 34.0011 6.77573 34.1585 6.80041C34.1801 7.24781 34.2017 7.72606 34.2109 7.75383C34.2263 7.79703 34.2387 8.16421 34.6367 8.16421C35.1211 8.16421 35.1952 8.03153 35.2816 7.5903C35.3711 7.14907 35.1397 6.01052 35.115 5.34405L35.1088 5.3533Z" fill="#7D7D7D"/>
</g>
<g id="Group_12">
<path id="Vector_39" d="M19.8571 8.32778C20.2798 8.06243 20.3724 7.50703 20.3508 7.08123C20.3292 6.65235 20.1194 5.66498 19.6843 5.52305C19.3572 5.41506 19.2369 5.50145 19.1968 5.51996C19.0981 5.56625 18.9654 5.70818 18.8821 5.73595C18.7617 5.77606 18.5674 5.83469 18.2279 6.01056C17.8885 6.18335 17.3177 6.38699 17.185 6.41476C17.0555 6.44253 16.8827 6.42093 16.7562 6.43019C16.6296 6.43945 16.5463 6.65852 16.5463 6.65852C16.5463 6.65852 16.3736 7.1738 16.4846 7.41138C16.5957 7.65205 16.7808 7.7693 17.2591 7.578C17.7373 7.3867 17.7744 7.22317 17.9317 7.07198C18.086 6.9177 18.5766 6.32837 18.8913 6.37774C19.2061 6.42402 19.3264 7.48543 19.1752 8.71347C19.169 8.71655 19.203 8.67027 19.5455 8.4512C19.6936 8.35555 19.7614 8.39566 19.8602 8.33087L19.8571 8.32778Z" fill="#7D7D7D"/>
<path id="Vector_40" d="M24.0256 4.76096C23.9731 4.72085 23.9083 4.62519 23.8775 4.57274C23.8405 4.51412 23.7263 4.42772 23.7479 4.44006C23.6121 4.32281 23.3067 4.50486 23.1925 4.54189C23.0814 4.57891 22.8994 4.64062 22.7451 4.74553C22.6402 4.8165 22.5137 4.91832 22.2885 4.99546C22.1157 5.05408 21.9521 5.13739 21.7979 5.19293C21.7115 5.22378 21.6343 5.25464 21.585 5.27624C21.4924 5.12505 21.3998 4.98311 21.3443 4.91215C21.2764 4.83192 20.9092 4.07906 20.468 4.28579C20.3415 4.34441 20.3415 4.50486 20.3076 4.56966C20.3076 4.56966 20.2366 4.97386 20.4279 5.45211C20.6192 5.93037 21.1129 6.81591 21.1993 6.97018C21.2857 7.12446 21.4584 7.21394 21.585 7.20777C21.7115 7.19543 21.8287 7.14297 21.9367 7.12446C22.0416 7.10903 22.1465 7.01647 22.1959 6.88379C22.2823 6.66163 22.2453 6.64621 22.1805 6.46416C22.1187 6.30371 21.912 5.85323 21.8719 5.76992C21.9089 5.75449 21.9768 5.73289 22.0941 5.69278C22.344 5.60639 22.634 5.71438 22.8377 5.73598C23.0413 5.75449 23.5041 5.56319 23.5813 5.50765C23.7078 5.41509 23.7695 5.28241 23.8806 5.18984C24.1953 4.92758 24.078 4.80415 24.0287 4.76404L24.0256 4.76096Z" fill="#7D7D7D"/>
<path id="Vector_41" d="M22.199 7.47922L21.6683 7.63041C21.5942 7.50699 21.4862 7.4823 21.4862 7.4823C21.4862 7.4823 21.3381 7.47613 21.2486 7.63349C21.2147 7.69212 20.8136 7.90193 20.6809 8.08089C20.6346 8.13952 20.4402 8.26294 20.323 8.46967C20.1934 8.69491 19.7799 9.50331 20.4526 10.5462C21.0018 11.3978 22.0632 11.2003 22.3101 11.1263C22.7019 11.009 23.6399 10.5709 23.9608 9.95071C24.3187 9.25956 24.0595 8.69182 23.7911 8.21666C23.5103 7.72297 22.7729 7.3558 22.199 7.47613V7.47922ZM23.1555 9.3583C23.0012 9.89517 22.3533 10.176 21.8596 10.1667C21.3227 10.1574 21.0111 9.66685 21.0296 9.15157C21.0481 8.6332 21.4276 8.43264 21.4276 8.43264C21.8688 8.19506 21.8873 8.21974 21.8873 8.21974C22.4304 8.09632 22.5538 8.24443 22.6957 8.31231C22.7791 8.35242 23.3375 8.73811 23.1586 9.36138L23.1555 9.3583Z" fill="#7D7D7D"/>
</g>
<g id="Group_13">
<path id="Vector_42" d="M42.4523 4.88114C42.5326 4.96754 42.835 5.15575 43.0849 4.88114C43.3317 4.60962 43.2176 4.33501 43.1744 4.16839C43.1312 4.00177 42.8103 3.75493 42.4832 3.77344C42.4832 3.77344 42.116 3.83516 42.1808 4.16531C42.2333 4.44917 42.3752 4.79166 42.4554 4.87806L42.4523 4.88114Z" fill="#7D7D7D"/>
<path id="Vector_43" d="M40.6257 9.00033C40.6257 9.00033 41.0206 9.0929 41.1965 9.06205C41.3323 9.03736 41.5452 9.01268 41.6439 9.04353C41.7427 9.07439 42.1561 8.99108 42.4338 8.63316C42.7146 8.27832 42.9337 7.42364 42.5387 6.70471C42.5387 6.70471 42.3073 6.33754 42.1253 6.174C41.9432 6.00739 42.403 6.174 42.4801 6.21103C42.5603 6.24806 42.8195 6.41776 43.0139 6.24806C43.2083 6.07835 43.1311 6.10921 43.2669 6.04133C43.3718 5.98579 43.4027 5.86545 43.3008 5.66798C43.2237 5.51988 43.1034 5.3656 42.8812 5.24527C42.6621 5.12802 42.0882 4.85958 41.8938 4.75467C41.6995 4.64668 41.0608 4.31653 41.0608 4.31653C41.0608 4.31653 40.5486 4.02649 40.3819 4.42143C40.2153 4.81329 40.1567 5.04471 40.4653 5.31932C40.7707 5.59084 40.9342 5.66798 41.0268 5.72661C41.0268 5.72661 40.4838 5.73278 39.8605 6.23571C39.4409 6.57512 39.0675 7.30947 39.3822 7.95743C39.6877 8.58688 40.203 8.8368 40.6288 9.00342L40.6257 9.00033ZM40.5054 7.03795C40.7923 6.45787 41.3508 6.68311 41.3508 6.68311C42.045 6.93304 42.116 7.49769 42.0296 7.80007C41.9216 8.17033 41.7457 8.24747 41.6655 8.2413C41.5853 8.23513 41.4156 8.18884 41.2953 8.1981C41.178 8.21044 41.1811 8.29684 41.0206 8.25364C40.8602 8.21353 40.7028 8.13331 40.5856 7.93275C40.4683 7.73219 40.274 7.50078 40.4992 7.03795H40.5054Z" fill="#7D7D7D"/>
<path id="Vector_44" d="M46.1148 8.87373C45.8742 8.5189 45.5718 8.44176 45.0226 8.12087C44.606 7.87711 44.4363 7.63953 44.3715 7.50993C44.5196 7.17979 44.6492 6.88975 44.7017 6.75707C44.8436 6.38681 45.1799 5.79748 45.0874 5.26677C45.001 4.78543 44.7048 4.99524 44.6986 4.99833C44.6307 5.07855 44.5073 5.23591 44.4178 5.29145C44.3283 5.34699 44.1555 5.48275 44.1432 5.57532C44.1432 5.57532 43.4027 7.21373 43.0509 8.10544C42.6097 9.22857 42.5295 9.46615 42.7362 9.54637C42.872 9.59883 43.0478 9.605 43.2361 9.51552C43.4243 9.42604 43.6217 9.34582 43.7236 9.00332C43.7637 8.86448 43.921 8.50347 44.1031 8.10235C44.3129 8.22577 44.3345 8.25971 44.4487 8.54667C44.5721 8.8583 44.7726 9.18845 45.2231 9.41987C45.7477 9.68831 45.9729 9.55254 46.05 9.45381C46.1025 9.38901 46.3154 9.16686 46.1148 8.86756V8.87373Z" fill="#7D7D7D"/>
<path id="Vector_45" d="M43.7143 10.509C43.7143 10.509 43.5971 10.4658 43.4675 10.4164C43.3163 10.3578 43.1342 10.2622 43.0478 10.1727C42.9614 10.0832 42.3042 9.75613 41.792 9.53089C41.1718 9.26245 40.6288 9.15137 40.2554 9.07423C39.8728 8.99092 39.8173 9.17914 39.7803 9.22542C39.7803 9.22542 39.5581 9.5278 40.0487 9.72528C40.4344 9.87955 40.5949 9.69442 41.1163 9.93818C41.6378 10.1819 42.4678 10.3794 42.7547 10.5614C43.0417 10.7435 43.1034 10.8577 42.9861 11.1446C42.8689 11.4285 42.5819 12.0086 42.5819 12.0086C42.5819 12.0086 42.477 12.3356 42.7269 12.422C42.98 12.5084 43.1281 12.4621 43.2947 12.3912C43.5168 12.2955 43.7452 11.7401 43.8069 11.6074C43.8686 11.4748 44.1771 10.9194 43.7174 10.5121L43.7143 10.509Z" fill="#7D7D7D"/>
</g>
<g id="Group_14">
<path id="Vector_46" d="M11.5601 13.6997C11.5601 13.6997 11.3411 13.8355 11.2794 13.6472C11.2794 13.6472 11.0912 13.0055 10.7085 12.7432C10.7085 12.7432 10.4247 12.4593 10.1501 12.5025C9.97728 12.5272 9.98654 12.6198 9.98654 12.6445C9.98654 12.7278 10.0143 12.7123 10.0606 12.8512C10.1377 13.0826 10.1686 13.1628 10.1069 14.1348C10.0513 14.9987 10.0822 14.8907 10.0482 15.1684C10.0236 15.369 9.98962 16.1681 10.3074 16.4551C10.5851 16.705 10.8968 16.7328 11.1189 16.4211C11.3256 16.1311 11.2609 15.8472 11.2917 15.6281C11.2917 15.6281 11.3071 15.2332 11.3781 15.0974C11.5046 14.8506 11.7545 14.5976 12.1587 14.6377C12.5259 14.6716 12.6586 14.8506 12.7357 15.3659C12.7357 15.3659 12.8129 15.5171 12.8252 15.6096C12.8345 15.7022 12.7512 16.2391 12.566 16.5816C12.3932 16.8932 12.3254 16.7852 12.2328 16.8994C12.1402 17.0166 12.023 17.5257 12.0847 17.7325C12.1464 17.9392 12.2359 18.0287 12.6092 17.9855C12.8684 17.9577 13.0258 17.8003 13.2541 17.3437C13.4361 16.9703 13.683 15.9799 13.5873 15.4122C13.5009 14.9061 13.3035 14.3045 12.7357 13.854C12.239 13.459 11.7515 13.5979 11.5632 13.6966L11.5601 13.6997Z" fill="#7D7D7D"/>
<path id="Vector_47" d="M15.8397 12.7648C15.3121 12.2989 13.9699 10.9598 13.9699 10.9598C13.3004 10.3211 12.6277 10.21 12.4272 10.2255C12.3531 10.2316 12.1957 10.3643 12.1741 10.5772C12.1402 10.8703 12.4148 11.0987 12.5382 11.2252C12.6617 11.3486 12.7018 11.3362 12.7943 11.4936C12.8869 11.6479 12.9054 11.6664 13.3621 12.0984C13.4546 12.1909 13.4392 12.3946 13.2695 12.5643C13.0967 12.7371 12.6956 13.2061 12.6956 13.2061C12.6956 13.2061 12.7234 13.1474 12.6308 13.3017C12.5352 13.456 12.745 13.4992 12.853 13.5455C12.9023 13.5671 13.0689 13.6504 13.2695 13.5701C13.4145 13.5115 13.6151 13.4776 13.7694 13.3449C13.9298 13.2061 14.1612 12.9561 14.1612 12.9561C14.2846 12.8944 14.3124 12.8574 14.405 12.9222C14.5006 12.9839 15.8089 14.2335 16.0403 14.3446C16.2748 14.4526 16.3859 14.3446 16.4815 14.2829C16.5741 14.2212 16.7253 14.2767 16.7284 13.8756C16.7345 13.3603 16.3704 13.2369 15.8397 12.771V12.7648Z" fill="#7D7D7D"/>
</g>
<g id="Group_15">
<path id="Vector_48" d="M51.3756 12.1817C51.533 12.336 51.4898 12.3699 51.5731 12.4656C51.6965 12.6106 51.9896 12.8297 52.1346 12.9408C52.3599 13.1105 52.8381 13.6011 52.8289 13.7584C52.8196 13.9127 52.8381 14.1688 52.2179 14.8538C51.5144 15.6282 51.428 15.727 51.4188 15.943C51.4095 16.162 51.4095 16.1404 51.5021 16.2762C51.6039 16.4212 51.7243 16.5261 52.0791 16.2916C52.0791 16.2916 52.4987 15.9646 52.7579 15.8072C53.0171 15.6498 53.2423 15.4709 53.5262 15.0389C53.7638 14.6748 53.9366 14.1071 53.446 13.3758C53.1621 12.9531 53.1343 13.0025 53.0109 12.8143C52.8875 12.626 52.3228 12.1324 52.1377 11.904C51.9495 11.6757 51.7304 11.3733 51.6255 11.2684C51.5545 11.2005 51.4188 11.2468 51.3355 11.3085C51.3355 11.3085 51.1411 11.3764 51.1503 11.6171C51.1627 11.8577 51.2244 12.0244 51.3818 12.1817H51.3756Z" fill="#7D7D7D"/>
<path id="Vector_49" d="M48.3734 12.7555C48.3826 12.8295 48.4197 12.956 48.4968 13.027C48.5955 13.1165 48.7776 13.0579 48.8609 13.0795C48.9442 13.101 49.154 13.1226 49.2589 13.1041C49.3608 13.0825 49.3823 13.0424 49.3823 12.9591C49.3823 12.8758 49.5459 12.6444 49.6199 12.5117C49.694 12.376 49.6261 12.089 49.5521 11.9964C49.4811 11.9008 49.3608 11.8946 49.1756 12.0396C49.1756 12.0396 49.0213 12.1754 48.8239 12.1847C48.6264 12.197 48.4258 12.3976 48.3857 12.521C48.3425 12.6444 48.3641 12.6876 48.3734 12.7586V12.7555Z" fill="#7D7D7D"/>
<path id="Vector_50" d="M52.8598 18.0934C52.7764 17.9669 52.7764 17.8867 52.6931 17.7602C52.6098 17.6368 51.6996 16.8006 51.4805 16.5846C51.354 16.4581 50.7554 15.7639 49.9347 14.94C49.9933 14.9493 50.055 14.9555 50.1291 14.9493C50.3728 14.9246 50.4932 14.9616 50.5641 14.9709C50.6382 14.9801 51.2121 14.613 51.2306 14.326C51.2491 13.9959 51.2491 13.7182 51.2213 13.6318C51.1596 13.4466 50.919 13.3294 50.7122 13.496C50.6073 13.5793 50.4531 13.5886 50.4006 13.6009C50.4006 13.6009 50.089 13.7058 49.9439 13.9527C49.7989 14.2026 49.7465 14.2952 49.6724 14.3877C49.6323 14.4402 49.5891 14.5111 49.5583 14.5698C49.0491 14.0761 48.4783 13.5639 47.8982 13.1103C47.8982 13.1103 47.6607 12.956 47.5558 12.7863C47.4508 12.6197 47.5403 12.4284 47.2657 12.3297C47.2657 12.3297 47.1114 12.3173 46.9633 12.3389C46.8183 12.3605 46.806 12.4346 46.7443 12.4531C46.6795 12.4747 46.4851 12.5241 46.5653 12.7339C46.6486 12.9406 46.6795 13.0764 46.772 13.1689C46.8677 13.2615 46.9356 13.4405 47.059 13.5454C47.1824 13.6503 47.5496 13.8447 47.7563 14.0082C47.963 14.1748 49.8082 15.7577 50.1476 16.1434C50.4901 16.5291 51.857 17.9854 52.0544 18.2662C52.2519 18.547 52.3229 18.5161 52.5111 18.5562C52.6993 18.5964 52.9184 18.4853 52.9708 18.4143C53.0202 18.3403 52.9369 18.2138 52.8536 18.0872L52.8598 18.0934Z" fill="#7D7D7D"/>
</g>
</g>
</g>
</g>
<defs>
<clipPath id="clip0_289_806">
<rect width="63" height="63" fill="white" transform="translate(0.125244)"/>
</clipPath>
</defs>
</svg>
