<svg width="64" height="63" viewBox="0 0 64 63" fill="none" xmlns="http://www.w3.org/2000/svg">
<g id="&#236;&#185;&#180;&#236;&#157;&#180;&#236;&#138;&#164;&#237;&#138;&#184;" clip-path="url(#clip0_289_558)">
<g id="g4181">
<g id="g5595">
<g id="g330">
<path id="path332" d="M31.6253 6.19751C17.6734 6.19751 6.32238 17.548 6.32238 31.4999C6.32238 45.4516 17.6734 56.802 31.6253 56.802C45.5771 56.802 56.9274 45.4516 56.9274 31.4999C56.9274 17.548 45.5771 6.19751 31.6253 6.19751ZM31.6253 57.0918C17.513 57.0918 6.03333 45.6109 6.03333 31.4999C6.03333 17.3886 17.513 5.9081 31.6253 5.9081C45.7368 5.9081 57.2179 17.3886 57.2179 31.4999C57.2179 45.6109 45.7368 57.0918 31.6253 57.0918Z" fill="#1F4899"/>
</g>
<path id="path334" d="M30.6797 31.4131H32.8304V23.3224H30.6797V31.4131Z" fill="#1F4899"/>
<g id="g336">
<path id="path338" d="M42.1726 23.3221V25.008H44.878V31.4131H47.0279V25.008H49.733V23.3221H42.1726Z" fill="#1F4899"/>
</g>
<g id="g340">
<path id="path342" d="M39.1772 26.5246H37.38C36.9022 26.5246 36.516 26.3271 36.516 25.7663C36.516 25.2037 36.9022 25.0076 37.38 25.0076H41.2445V23.3221H37.1252C35.5877 23.3221 34.3403 24.2097 34.3403 25.7663C34.3403 27.3225 35.5877 28.2102 37.1252 28.2102H38.9744C39.4511 28.2102 39.8384 28.4074 39.8384 28.9699C39.8384 29.5311 39.4511 29.7275 38.9744 29.7275H34.6385V31.4131H39.1772C40.7158 31.4131 41.9615 30.5268 41.9615 28.9699C41.9615 27.4151 40.7158 26.5246 39.1772 26.5246Z" fill="#1F4899"/>
</g>
<g id="g344">
<path id="path346" d="M24.1334 23.3221L21.0919 30.6025L18.1925 27.3681L21.8177 23.3221H19.3621L15.9263 27.1632V23.3221H13.7753V31.4131H15.9263V27.5723L19.3621 31.4131H22.9386L25.4013 25.3115L27.1901 29.7968H24.3468L25.0225 31.4131H30.0495L26.6692 23.3221H24.1334Z" fill="#1F4899"/>
</g>
<g id="g356">
<g id="g358">
<path id="path376" d="M8.78729 34.8103C16.2901 35.8771 23.9583 36.4287 31.7551 36.4287C39.5515 36.4287 47.2194 35.8771 54.7215 34.8103C47.2194 33.7449 39.5515 33.1929 31.7551 33.1929C23.9583 33.1929 16.2901 33.7449 8.78729 34.8103Z" fill="url(#paint0_linear_289_558)"/>
</g>
</g>
<g id="g386">
<path id="path388" d="M10.0316 51.5972L9.65593 51.1692L10.5842 50.3547L10.5761 50.3459L9.02798 50.453L8.61383 49.9823L10.028 49.8961L10.6514 47.9882L11.0648 48.4596L10.5899 49.853L11.1945 49.8194L11.7956 49.2929L12.1712 49.7197L10.0316 51.5972Z" fill="#1F4899"/>
</g>
<g id="g390">
<path id="path392" d="M8.17981 46.9861C7.67944 47.3381 7.53526 47.7681 7.77874 48.1137C8.02186 48.4596 8.47523 48.4706 8.97561 48.1179C9.47245 47.7688 9.63536 47.3257 9.39259 46.9797C9.14947 46.6342 8.67666 46.637 8.17981 46.9861ZM9.30955 48.5936C8.55192 49.1264 7.81195 49.0109 7.37907 48.3953C6.94584 47.7784 7.09072 47.0426 7.84517 46.5112C8.60068 45.9804 9.36149 46.0801 9.79473 46.6963C10.2283 47.314 10.0647 48.0628 9.30955 48.5936Z" fill="#1F4899"/>
</g>
<g id="g394">
<path id="path396" d="M7.0217 45.2693L6.84431 44.9449C6.66904 44.6248 6.43793 44.5227 6.17149 44.6689C5.90151 44.8167 5.90646 45.0421 6.08173 45.3633L6.25983 45.6863L7.0217 45.2693ZM7.88994 43.6749L7.22595 44.7061L7.41642 45.0534L8.36063 44.5357L8.63379 45.0354L6.13756 46.4019L5.66122 45.5322C5.37499 45.0085 5.33011 44.4944 5.90363 44.1795C6.27785 43.9753 6.61391 44.0368 6.88177 44.2622L7.58568 43.1194L7.88994 43.6749Z" fill="#1F4899"/>
</g>
<g id="g398">
<path id="path400" d="M4.69923 43.6333L4.02075 42.0244L4.45681 41.841L4.91372 42.9244L5.51976 42.6697L5.1314 41.7477L5.57029 41.5629L5.95935 42.4842L6.6608 42.1887L6.18728 41.0643L6.62617 40.8795L7.32125 42.5269L4.69923 43.6333Z" fill="#1F4899"/>
</g>
<g id="g402">
<path id="path404" d="M4.8504 39.2217L4.57653 39.3934C4.31822 39.5648 4.02916 39.7337 3.75918 39.9044L3.76413 39.9189C4.08358 39.8973 4.41681 39.8849 4.7253 39.8786L5.04793 39.869L4.8504 39.2217ZM5.23699 38.9747L5.5059 39.8581L6.26318 39.8358L6.43174 40.3867L3.44433 40.3461L3.24927 39.7068L5.70273 38.0001L5.8773 38.5701L5.23699 38.9747Z" fill="#1F4899"/>
</g>
<g id="g406">
<path id="path408" d="M4.00492 35.2861L3.71021 35.4165C3.42998 35.5483 3.11866 35.6734 2.82748 35.8031L2.8296 35.819C3.14834 35.8444 3.48051 35.8783 3.78689 35.9176L4.10704 35.955L4.00492 35.2861ZM4.42437 35.0977L4.56254 36.0101L5.31487 36.0992L5.40039 36.6685L2.45149 36.1949L2.35114 35.5331L5.02652 34.202L5.11627 34.7907L4.42437 35.0977Z" fill="#1F4899"/>
</g>
<g id="g410">
<path id="path412" d="M4.49085 32.8886C4.46823 32.3585 4.16928 32.0398 3.47702 32.0712C2.78194 32.1016 2.53493 32.4433 2.55896 32.9741L2.56673 33.1501L4.49897 33.0653L4.49085 32.8886ZM2.13809 33.7388L2.10346 32.9589C2.06494 32.0907 2.49146 31.5331 3.45158 31.4903C4.40816 31.449 4.90853 31.9652 4.94493 32.8031L4.98097 33.6133L2.13809 33.7388Z" fill="#1F4899"/>
</g>
<g id="g414">
<path id="path416" d="M2.04346 30.9077L2.07667 30.3119L3.48027 30.0148C3.80078 29.9434 4.08772 29.902 4.4114 29.8282L4.41282 29.8091C4.09867 29.7027 3.81845 29.6211 3.50854 29.5158L2.1477 29.0677L2.17951 28.4921L4.97185 29.5253L4.93334 30.2003L2.04346 30.9077Z" fill="#1F4899"/>
</g>
<g id="g418">
<path id="path420" d="M4.10572 26.8353L3.78415 26.872C3.47989 26.9155 3.14348 26.9424 2.82757 26.9795L2.82545 26.9947C3.12228 27.1134 3.42795 27.2459 3.70888 27.3742L4.00359 27.5042L4.10572 26.8353ZM4.56121 26.7802L4.42198 27.6926L5.11459 28.0003L5.02696 28.5703L2.35193 27.2402L2.45335 26.5798L5.4033 26.1038L5.31354 26.6932L4.56121 26.7802Z" fill="#1F4899"/>
</g>
<g id="g422">
<path id="path424" d="M2.78265 24.7963L2.93248 24.2366L4.6103 23.8298L5.27782 23.7139L5.2817 23.6945C4.9884 23.6479 4.61454 23.592 4.30251 23.509L3.20635 23.2157L3.34522 22.6955L6.0934 23.4305L5.94498 23.9874L4.26116 24.3892L3.59576 24.5087L3.59082 24.5277C3.89507 24.5818 4.25198 24.6327 4.56754 24.7175L5.67112 25.0136L5.53154 25.5327L2.78265 24.7963Z" fill="#1F4899"/>
</g>
<g id="g426">
<path id="path428" d="M5.01464 22.1994C4.14005 21.8588 3.84604 21.0973 4.10718 20.4273C4.23758 20.0909 4.50331 19.8845 4.74891 19.782L4.97754 20.1919C4.79732 20.2757 4.64466 20.3926 4.56657 20.5941C4.41002 20.9948 4.63724 21.4294 5.20723 21.652C5.78429 21.8757 6.23696 21.7379 6.40057 21.3181C6.48821 21.0927 6.45004 20.8722 6.35216 20.6686L6.79034 20.517C6.9596 20.8344 6.98575 21.1704 6.85183 21.5146C6.59245 22.1846 5.89949 22.5432 5.01464 22.1994Z" fill="#1F4899"/>
</g>
<g id="g430">
<path id="path432" d="M4.87524 18.7697L5.66609 17.2124L6.08731 17.4266L5.55513 18.4768L6.14102 18.7747L6.59369 17.8824L7.01809 18.0983L6.56613 18.9906L7.24461 19.3348L7.79763 18.2478L8.22274 18.4637L7.41246 20.0581L4.87524 18.7697Z" fill="#1F4899"/>
</g>
<g id="g434">
<path id="path436" d="M8.61121 16.9379C8.89885 16.4913 8.83842 16.0598 8.25642 15.6845C7.67124 15.3085 7.27299 15.4446 6.98569 15.8902L6.88993 16.0393L8.5158 17.0856L8.61121 16.9379ZM6.2005 16.2718L6.62278 15.6156C7.09277 14.8845 7.76311 14.6767 8.57128 15.1965C9.3752 15.7156 9.4858 16.4262 9.03137 17.1298L8.59177 17.8125L6.2005 16.2718Z" fill="#1F4899"/>
</g>
<g id="g438">
<path id="path440" d="M8.81067 12.595L9.17712 12.1603L11.3546 13.9932L10.9867 14.4282L8.81067 12.595Z" fill="#1F4899"/>
</g>
<g id="g442">
<path id="path444" d="M9.91772 11.3021L10.3276 10.8908L11.9842 11.3746L12.621 11.6078L12.6337 11.5954C12.4023 11.4071 12.1055 11.171 11.8772 10.9435L11.0743 10.1424L11.4542 9.76182L13.4695 11.7689L13.062 12.1785L11.4022 11.6859L10.7658 11.4587L10.752 11.4718C10.9895 11.67 11.2726 11.893 11.5037 12.1234L12.3125 12.9301L11.9323 13.311L9.91772 11.3021Z" fill="#1F4899"/>
</g>
<g id="g446">
<path id="path448" d="M13.7468 11.036L13.7525 10.5265C14.0292 10.5434 14.3182 10.472 14.5122 10.3151C14.7419 10.1282 14.785 9.93032 14.6585 9.77484C14.5246 9.61123 14.3493 9.66989 14.085 9.74587L13.6868 9.86C13.3885 9.95011 13.0192 9.95294 12.757 9.63031C12.463 9.26917 12.5542 8.73559 13.003 8.37127C13.2588 8.16243 13.5977 8.05536 13.9249 8.09282L13.9263 8.55255C13.6917 8.54937 13.492 8.60202 13.3101 8.74973C13.1154 8.90733 13.0623 9.09567 13.1807 9.24197C13.3086 9.39992 13.5129 9.32819 13.7613 9.25009L14.1507 9.13808C14.5087 9.02924 14.8228 9.0568 15.0815 9.3766C15.3762 9.73774 15.3239 10.2897 14.8133 10.7038C14.5186 10.9441 14.1278 11.0682 13.7468 11.036Z" fill="#1F4899"/>
</g>
<g id="g450">
<path id="path452" d="M15.3653 7.27568L14.6971 7.71739L14.437 7.32197L16.253 6.12194L16.5131 6.517L15.8395 6.96118L17.1474 8.94039L16.6732 9.25488L15.3653 7.27568Z" fill="#1F4899"/>
</g>
<g id="g454">
<path id="path456" d="M17.0245 5.68985L17.5206 5.41316L18.9044 7.8998L18.4069 8.17578L17.0245 5.68985Z" fill="#1F4899"/>
</g>
<g id="g458">
<path id="path460" d="M19.2186 5.08218L18.4917 5.41646L18.2945 4.98641L20.2713 4.07755L20.4691 4.50725L19.7355 4.84507L20.7275 7.00131L20.2098 7.23877L19.2186 5.08218Z" fill="#1F4899"/>
</g>
<g id="g462">
<path id="path464" d="M21.65 5.21225L21.1518 3.72952L21.6907 3.54754L22.2056 5.07832C22.3939 5.63947 22.6515 5.76456 22.9678 5.65749C23.2879 5.54971 23.4293 5.29211 23.2409 4.73096L22.7261 3.19983L23.2438 3.02597L23.742 4.51011C24.0434 5.40625 23.7841 5.90237 23.1243 6.12464C22.4685 6.34479 21.9518 6.10874 21.65 5.21225Z" fill="#1F4899"/>
</g>
<g id="g466">
<path id="path468" d="M25.0403 3.06321L24.2597 3.23495L24.1575 2.77381L26.2834 2.30383L26.3848 2.76533L25.5958 2.93989L26.1078 5.25656L25.5523 5.37988L25.0403 3.06321Z" fill="#1F4899"/>
</g>
<g id="g470">
<path id="path472" d="M27.2019 2.16244L28.9348 1.95254L28.9907 2.42111L27.8231 2.5621L27.9023 3.21512L28.8942 3.09533L28.9522 3.56849L27.9599 3.68828L28.0507 4.44484L29.2599 4.29784L29.3179 4.77241L27.5429 4.98584L27.2019 2.16244Z" fill="#1F4899"/>
</g>
<g id="g474">
<path id="path476" d="M33.1478 3.28985C33.1665 2.67888 32.9082 2.30643 32.4852 2.29371C32.0623 2.28134 31.782 2.6386 31.764 3.24957C31.7467 3.85665 32.0043 4.25242 32.4266 4.2662C32.8489 4.27821 33.1312 3.89693 33.1478 3.28985ZM31.1841 3.2319C31.2113 2.30643 31.7467 1.78274 32.4997 1.80642C33.2528 1.82762 33.7553 2.38523 33.7284 3.30752C33.7005 4.22945 33.1658 4.77893 32.4121 4.75667C31.6598 4.73441 31.1566 4.15348 31.1841 3.2319Z" fill="#1F4899"/>
</g>
<g id="g478">
<path id="path480" d="M34.818 2.00832L36.5559 2.24155L36.493 2.71011L35.3191 2.55216L35.2205 3.28786L36.2227 3.4225L36.1591 3.89459L35.1569 3.76067L35.0028 4.90381L34.4392 4.82783L34.818 2.00832Z" fill="#1F4899"/>
</g>
<g id="g482">
<path id="path484" d="M37.9453 5.05483L38.3654 4.76543C38.5121 5.00254 38.7361 5.19689 38.9764 5.26544C39.2623 5.34459 39.4478 5.26615 39.5015 5.07321C39.5587 4.86967 39.41 4.75942 39.1951 4.58733L38.8729 4.32831C38.628 4.13538 38.4117 3.83643 38.5244 3.43571C38.6506 2.98799 39.1386 2.75371 39.6948 2.91025C40.0132 3.00001 40.2952 3.21486 40.4542 3.50285L40.0807 3.76964C39.9475 3.57635 39.7881 3.44419 39.5616 3.38058C39.322 3.31203 39.1358 3.37634 39.0849 3.55833C39.0301 3.75339 39.2061 3.87954 39.4139 4.03749L39.7301 4.28944C40.0248 4.52054 40.1835 4.79334 40.0726 5.18876C39.9475 5.63648 39.4658 5.91351 38.8322 5.73542C38.4665 5.63259 38.14 5.38559 37.9453 5.05483Z" fill="#1F4899"/>
</g>
<g id="g486">
<path id="path488" d="M40.9199 4.83801C41.2651 3.96484 42.0263 3.67438 42.6963 3.93799C43.032 4.06979 43.2377 4.33694 43.3391 4.58288L42.9278 4.80904C42.8461 4.62882 42.7288 4.47511 42.5288 4.3963C42.1277 4.23835 41.6917 4.46309 41.468 5.03272C41.2408 5.6087 41.3768 6.06313 41.7952 6.22745C42.0207 6.3165 42.2422 6.27904 42.4451 6.18186L42.5949 6.62075C42.2768 6.78859 41.9408 6.81333 41.597 6.67799C40.9273 6.41509 40.5729 5.72143 40.9199 4.83801Z" fill="#1F4899"/>
</g>
<g id="g490">
<path id="path492" d="M44.3066 4.70488L44.8179 4.95471L43.5688 7.51025L43.0574 7.26078L44.3066 4.70488Z" fill="#1F4899"/>
</g>
<g id="g494">
<path id="path496" d="M45.8112 5.46317L47.3173 6.34587L47.077 6.75401L46.0632 6.15894L45.73 6.7268L46.5926 7.23282L46.3516 7.64344L45.489 7.13742L45.1038 7.79468L46.1558 8.41095L45.9148 8.82227L44.3723 7.91765L45.8112 5.46317Z" fill="#1F4899"/>
</g>
<g id="g498">
<path id="path500" d="M48.2296 6.93572L48.6968 7.27955L48.465 8.98949L48.3289 9.65417L48.3448 9.66512C48.4954 9.40858 48.6858 9.0796 48.8763 8.82058L49.5484 7.90677L49.982 8.22516L48.2957 10.5171L47.8314 10.1754L48.0717 8.46156L48.2013 7.79723L48.1847 7.78734C48.0247 8.05024 47.8466 8.36368 47.6533 8.62658L46.9762 9.54675L46.543 9.22695L48.2296 6.93572Z" fill="#1F4899"/>
</g>
<g id="g502">
<path id="path504" d="M49.8343 9.96062C50.4672 9.26943 51.2845 9.27226 51.8139 9.75849C52.0799 10.003 52.1754 10.3256 52.1817 10.5914L51.7156 10.6564C51.7054 10.4578 51.651 10.2723 51.4919 10.1263C51.1746 9.83517 50.688 9.88888 50.2739 10.3387C49.8562 10.7949 49.8184 11.2674 50.1505 11.5716C50.3283 11.7349 50.5484 11.7797 50.7735 11.7635L50.7555 12.2264C50.3975 12.2685 50.0753 12.1706 49.8039 11.9214C49.2738 11.4356 49.1911 10.6603 49.8343 9.96062Z" fill="#1F4899"/>
</g>
<g id="g506">
<path id="path508" d="M53.0767 11.0745L54.2404 12.3742L53.8884 12.6905L53.1036 11.8131L52.6142 12.2519L53.2803 12.9968L52.9248 13.3142L52.259 12.5693L51.6922 13.0774L52.5039 13.9855L52.1491 14.3032L50.9565 12.9717L53.0767 11.0745Z" fill="#1F4899"/>
</g>
<g id="g510">
<path id="path512" d="M55.001 16.2246L55.2137 15.9814C55.4109 15.7436 55.6403 15.4977 55.8491 15.2574L55.841 15.2443C55.5413 15.3563 55.2254 15.4652 54.9328 15.5592L54.6261 15.6613L55.001 16.2246ZM54.7014 16.5719L54.1893 15.804L53.4709 16.0422L53.1508 15.5627L56.0244 14.7429L56.3951 15.3001L54.5346 17.6401L54.2045 17.144L54.7014 16.5719Z" fill="#1F4899"/>
</g>
<g id="g514">
<path id="path516" d="M57.351 16.8361L57.6175 17.3524L56.6531 18.7842L56.2393 19.3192L56.2475 19.3369C56.4959 19.1736 56.8114 18.962 57.0977 18.8132L58.1048 18.2909L58.3532 18.7694L55.8269 20.0786L55.5616 19.5673L56.5337 18.1358L56.944 17.598L56.9341 17.5807C56.674 17.7471 56.3764 17.9482 56.086 18.0983L55.0728 18.6252L54.8251 18.1475L57.351 16.8361Z" fill="#1F4899"/>
</g>
<g id="g518">
<path id="path520" d="M56.8804 21.4215C57.0701 21.9169 57.4546 22.1233 58.1013 21.8763C58.7515 21.6279 58.8755 21.2254 58.6871 20.7293L58.6239 20.5642L56.8167 21.2558L56.8804 21.4215ZM58.844 19.8706L59.1229 20.5989C59.4342 21.4113 59.207 22.0759 58.309 22.4187C57.4139 22.7618 56.7761 22.4286 56.4764 21.6459L56.186 20.8879L58.844 19.8706Z" fill="#1F4899"/>
</g>
<g id="g522">
<path id="path524" d="M59.9447 24.8488L59.7723 24.0675L60.2352 23.9668L60.702 26.0919L60.2394 26.1934L60.0663 25.4043L57.7492 25.9146L57.627 25.3587L59.9447 24.8488Z" fill="#1F4899"/>
</g>
<g id="g526">
<path id="path528" d="M60.8448 27.0109L61.0532 28.7453L60.5833 28.8011L60.4437 27.6329L59.791 27.7113L59.9097 28.7039L59.4355 28.7605L59.3168 27.7675L58.5602 27.8583L58.7058 29.0689L58.2323 29.1255L58.0199 27.3498L60.8448 27.0109Z" fill="#1F4899"/>
</g>
<g id="g530">
<path id="path532" d="M59.688 29.6523C60.6251 29.6304 61.1884 30.2216 61.2071 30.9389C61.2152 31.3004 61.0491 31.5937 60.8612 31.782L60.4926 31.4902C60.6279 31.3453 60.724 31.1781 60.7184 30.9622C60.7088 30.5322 60.3318 30.2184 59.7212 30.2329C59.1021 30.2467 58.7363 30.5481 58.7473 30.9983C58.7522 31.2403 58.872 31.4287 59.0413 31.5799L58.6946 31.8877C58.4165 31.6601 58.2628 31.3598 58.2543 30.9905C58.2374 30.2721 58.7388 29.6756 59.688 29.6523Z" fill="#1F4899"/>
</g>
<g id="g534">
<path id="path536" d="M61.1443 32.7796L61.0973 33.3467L59.9813 33.2538L59.8916 34.3263L61.0068 34.4203L60.9602 34.9839L58.124 34.7464L58.1703 34.1828L59.3969 34.2856L59.4873 33.2118L58.2608 33.1103L58.3092 32.5421L61.1443 32.7796Z" fill="#1F4899"/>
</g>
<g id="g538">
<path id="path540" d="M60.7888 36.1819L60.6736 36.7505L59.0262 37.2629L58.3664 37.4201L58.3629 37.4389C58.659 37.4671 59.0371 37.5 59.3538 37.5643L60.4651 37.7873L60.3588 38.3159L57.5699 37.7541L57.6837 37.1883L59.3386 36.683L59.9951 36.5201L59.9994 36.5014C59.6919 36.4678 59.3326 36.4381 59.0124 36.3731L57.8936 36.148L57.9989 35.6208L60.7888 36.1819Z" fill="#1F4899"/>
</g>
<g id="g542">
<path id="path544" d="M58.1385 40.8056C58.7202 40.996 59.1509 40.854 59.2828 40.4529C59.4139 40.0497 59.1509 39.6805 58.5693 39.49C57.9922 39.3009 57.5396 39.4356 57.4078 39.8381C57.2759 40.2402 57.5615 40.6172 58.1385 40.8056ZM58.7506 38.938C59.6315 39.2264 59.9807 39.8868 59.7467 40.6034C59.5121 41.3204 58.8357 41.6448 57.9583 41.3579C57.0812 41.0706 56.7049 40.4006 56.9395 39.684C57.1749 38.9684 57.8735 38.6507 58.7506 38.938Z" fill="#1F4899"/>
</g>
<g id="g546">
<path id="path548" d="M58.8943 42.7699L58.6618 43.2904L56.4995 42.3218L56.0288 43.3745L55.5931 43.1798L56.297 41.6077L58.8943 42.7699Z" fill="#1F4899"/>
</g>
<g id="g550">
<path id="path552" d="M55.6463 46.0378C56.1756 46.3428 56.6269 46.2919 56.8382 45.9261C57.0495 45.559 56.8679 45.1448 56.3378 44.8388C55.812 44.5346 55.3406 44.5731 55.13 44.941C54.918 45.3056 55.1205 45.7336 55.6463 46.0378ZM56.6283 44.336C57.4305 44.7982 57.6383 45.5173 57.2612 46.1696C56.8845 46.8226 56.1555 47.0021 55.3565 46.541C54.5572 46.0798 54.3268 45.347 54.7035 44.6939C55.0795 44.042 55.8286 43.8734 56.6283 44.336Z" fill="#1F4899"/>
</g>
<g id="g554">
<path id="path556" d="M54.8988 47.1821C55.6519 47.7419 55.7317 48.5571 55.2805 49.1649C55.0349 49.4949 54.7236 49.6179 54.4621 49.6543L54.3529 49.1946C54.5434 49.1642 54.7229 49.0967 54.8762 48.8889C55.1582 48.5101 55.0582 48.0249 54.5688 47.6606C54.0712 47.2913 53.602 47.2973 53.2702 47.7454C53.1871 47.8557 53.1362 47.9896 53.1429 48.0967L53.5938 48.4306L53.8939 48.027L54.2674 48.3037L53.6656 49.1154L52.6337 48.3507C52.597 48.0836 52.673 47.7239 52.909 47.4065C53.3723 46.7825 54.1363 46.6168 54.8988 47.1821Z" fill="#1F4899"/>
</g>
<g id="g558">
<path id="path560" d="M52.3017 49.8715L54.2088 50.456L53.8028 50.9026L53.1003 50.6458C52.889 50.5631 52.6897 50.485 52.4681 50.403L52.4575 50.4132C52.5593 50.6274 52.6501 50.8231 52.7522 51.027L53.072 51.7034L52.6731 52.1401L51.9186 50.2917L51.1483 49.5892L51.532 49.1697L52.3017 49.8715Z" fill="#1F4899"/>
</g>
<g id="g562">
<path id="path564" d="M19.7576 56.286L19.5541 56.6546L19.1414 56.4267L18.5823 57.4387L18.1357 57.1921L19.4237 54.8609L19.87 55.1079L19.3449 56.0581L19.7576 56.286ZM17.4222 55.9108C17.618 56.0189 17.8106 56.0058 17.9067 55.8334C17.9989 55.6648 17.9081 55.4945 17.712 55.386C17.5123 55.2758 17.3233 55.291 17.2296 55.4592C17.1335 55.6323 17.2225 55.8002 17.4222 55.9108ZM18.877 55.4425L17.0437 54.4294L17.2356 54.081L17.925 54.4627L18.1095 54.1312L18.5586 54.3793L18.376 54.7111L19.0735 55.0948L18.877 55.4425ZM17.2356 56.2493C16.7893 56.0016 16.6048 55.5828 16.8038 55.2238C16.9974 54.8719 17.4526 54.8015 17.8982 55.0478C18.3456 55.2941 18.5272 55.7175 18.3325 56.0694C18.135 56.4267 17.6823 56.4952 17.2356 56.2493ZM16.8119 56.9507L18.4869 57.8762L18.2911 58.231L16.1695 57.0595L16.6685 56.1563L17.1144 56.4026L16.8119 56.9507Z" fill="#1F4899"/>
</g>
<g id="g566">
<path id="path568" d="M22.5114 58.1081L22.3442 58.5823L23.2782 58.9096L22.8584 60.1089L22.3739 59.9386L22.6612 59.1177L20.7611 58.4512L20.8936 58.0742L21.8633 58.4131L22.0297 57.9385L20.7534 57.4919L20.8873 57.1095L23.0248 57.8576C23.1934 57.5724 23.2899 57.3325 23.3694 57.1102L21.534 56.4674L21.6686 56.0805L23.9772 56.8901L23.8835 57.1597C23.7959 57.4109 23.6966 57.6912 23.5058 58.0261L23.9298 58.1742L23.7959 58.5569L22.5114 58.1081Z" fill="#1F4899"/>
</g>
<g id="g570">
<path id="path572" d="M28.4242 59.5499L27.9528 59.4686L27.6638 61.145L27.1606 61.0581L27.7659 57.5499L28.2691 57.6375L28.0246 59.0503L28.4967 59.1315L28.4242 59.5499ZM26.5443 59.3354C26.7097 58.8503 26.7863 58.476 26.8404 58.1633L25.5305 57.9379L25.5994 57.5375L27.404 57.8488L27.3553 58.1343C27.2966 58.4732 27.2235 58.9004 27.0288 59.4616L26.5443 59.3354ZM26.1948 59.7266C26.5358 59.7736 26.8825 59.8093 27.209 59.8266L27.1729 60.1938C26.44 60.1931 25.6524 60.0726 25.0432 59.9708L25.0679 59.552C25.2619 59.5853 25.475 59.6224 25.6965 59.6563L25.8753 58.6209L26.3701 58.7057L26.1948 59.7266Z" fill="#1F4899"/>
</g>
<g id="g574">
<path id="path576" d="M33.1478 59.1603L32.6778 59.1596L32.6757 60.0519L32.1658 60.0512L32.169 57.8207L32.68 57.8221L32.6778 58.7381L33.1492 58.7388L33.1478 59.1603ZM30.9219 59.5702C31.1506 59.5702 31.3085 59.4812 31.3085 59.2992C31.3092 59.1218 31.1513 59.0328 30.9226 59.0321C30.6915 59.0321 30.5368 59.1204 30.5361 59.2985C30.5361 59.4798 30.6908 59.5688 30.9219 59.5702ZM30.3021 60.1943L32.6757 60.1989L32.6736 61.3848L32.1637 61.3834L32.1644 60.607L30.3021 60.6042V60.1943ZM30.9219 59.9561C30.4113 59.9547 30.0488 59.6868 30.0488 59.2971C30.0502 58.9112 30.4141 58.6455 30.9241 58.6462C31.4382 58.6469 31.7972 58.9147 31.7958 59.3003C31.7958 59.6904 31.4354 59.9568 30.9219 59.9561ZM31.9718 58.5356L29.877 58.5324V58.1299L30.6661 58.1313V57.7992L31.1803 57.8006L31.1795 58.132L31.9718 58.1341V58.5356Z" fill="#1F4899"/>
</g>
<g id="g578">
<path id="path580" d="M37.2454 57.2186L37.8429 60.7296L37.3366 60.8145L36.7387 57.3055L37.2454 57.2186ZM36.2648 57.7624C36.4468 58.8363 36.2337 59.7748 35.0898 60.5901L34.7587 60.2374C35.5821 59.6544 35.8775 59.0406 35.8174 58.249L34.6474 58.449L34.5785 58.0497L36.2648 57.7624Z" fill="#1F4899"/>
</g>
<g id="g582">
<path id="path584" d="M41.0331 57.9542L41.1091 58.1687L42.0194 57.8486L42.325 58.7218L40.4871 59.3656L40.5543 59.5553L42.4798 58.8797L42.6067 59.2416L40.2027 60.084L39.8928 59.2013L41.7349 58.5553L41.6716 58.3733L39.8253 59.0207L39.7005 58.6624L40.6267 58.338L40.5522 58.1228L39.2779 58.5691L39.1454 58.1903L42.1801 57.126L42.3127 57.5055L41.0331 57.9542ZM41.8211 57.0956C41.22 57.238 40.7281 57.1648 40.4083 56.9309C40.3048 57.3125 39.9613 57.6783 39.4037 57.9447L39.1199 57.6376C39.8486 57.2991 40.0959 56.8327 39.9811 56.5076L39.9599 56.4461L40.4553 56.2722L40.4783 56.3351C40.5907 56.6588 41.0744 56.8708 41.855 56.6782L41.8211 57.0956Z" fill="#1F4899"/>
</g>
<g id="g586">
<path id="path588" d="M45.9182 55.9784L44.9263 54.1631L45.3744 53.9189L46.6677 56.2854L46.2204 56.531L46.0854 56.2833L45.4981 56.6042L45.3316 56.2978L45.9182 55.9784ZM43.7467 55.6706C43.8298 55.8239 44.0181 55.8225 44.2287 55.7077C44.4351 55.5946 44.5387 55.4359 44.4549 55.284C44.3722 55.1317 44.181 55.1303 43.9747 55.2426C43.7648 55.3571 43.6626 55.5179 43.7467 55.6706ZM46.9246 56.5953L47.119 56.9508L44.8023 58.2173L44.2948 57.2883L44.7291 57.0501L44.5012 56.6328C44.2333 56.796 43.974 56.942 43.7407 57.071L43.4881 56.7459C44.0559 56.431 44.8125 56.0102 45.4249 55.5656L45.6285 55.8674C45.409 56.0441 45.1723 56.208 44.9305 56.3628L45.2528 56.9544L44.8221 57.189L45.0556 57.6162L46.9246 56.5953ZM43.3223 55.9024C43.1411 55.5706 43.339 55.1667 43.7966 54.9168C44.2507 54.6691 44.698 54.72 44.8797 55.0515C45.0609 55.384 44.8609 55.7837 44.4068 56.0328C43.9485 56.2833 43.504 56.2353 43.3223 55.9024Z" fill="#1F4899"/>
</g>
<g id="g590">
<path id="path592" d="M49.737 53.0969C49.737 53.3846 49.5038 53.6182 49.2144 53.6182C48.9274 53.6182 48.6935 53.3846 48.6935 53.0969C48.6935 52.8086 48.9274 52.5743 49.2144 52.5743C49.5038 52.5743 49.737 52.8086 49.737 53.0969Z" fill="#1F4899"/>
</g>
<g id="g594">
<path id="path596" d="M14.1092 53.0969C14.1092 53.3846 13.8759 53.6182 13.5872 53.6182C13.2989 53.6182 13.0649 53.3846 13.0649 53.0969C13.0649 52.8086 13.2989 52.5743 13.5872 52.5743C13.8759 52.5743 14.1092 52.8086 14.1092 53.0969Z" fill="#1F4899"/>
</g>
<g id="g598">
<path id="path600" d="M25.8318 46.1987H26.6305V44.0619H25.9382V43.5057C26.3425 43.4297 26.605 43.329 26.8679 43.1682H27.5291V46.1987H28.2069V46.9263H25.8318V46.1987Z" fill="#234F99"/>
</g>
<g id="g602">
<path id="path604" d="M30.6493 44.5662C30.574 43.9457 30.3359 43.7683 30.1048 43.7683C29.8666 43.7683 29.6645 43.9355 29.6645 44.3687C29.6645 44.7733 29.8666 44.9196 30.1193 44.9196C30.3009 44.9196 30.5037 44.8238 30.6493 44.5662ZM29.3669 46.0108C29.4927 46.1475 29.7252 46.268 29.9419 46.268C30.3263 46.268 30.6292 45.9963 30.6645 45.1729C30.4836 45.4143 30.1648 45.551 29.9468 45.551C29.316 45.551 28.8457 45.1772 28.8457 44.3687C28.8457 43.5711 29.4118 43.0955 30.0832 43.0955C30.7956 43.0955 31.4879 43.6365 31.4879 45.0005C31.4879 46.3648 30.7716 46.9956 30.0034 46.9956C29.498 46.9956 29.1337 46.7836 28.8969 46.5465L29.3669 46.0108Z" fill="#234F99"/>
</g>
<g id="g606">
<path id="path608" d="M33.5247 43.9152H31.9069V43.1679H34.4841V43.7124C33.6144 44.7481 33.5247 45.4556 33.4579 46.9263H32.5536C32.6253 45.6884 32.8165 44.8944 33.5247 43.9152Z" fill="#234F99"/>
</g>
<g id="g610">
<path id="path612" d="M35.0444 46.1987H35.843V44.0619H35.15V43.5057C35.5543 43.4297 35.8168 43.329 36.0805 43.1682H36.7416V46.1987H37.4187V46.9263H35.0444V46.1987Z" fill="#234F99"/>
</g>
<g id="g614">
<path id="path616" d="M31.6253 0.828903C14.7132 0.828903 0.954316 14.5883 0.954316 31.5C0.954316 48.4118 14.7132 62.1712 31.6253 62.1712C48.5373 62.1712 62.2962 48.4118 62.2962 31.5C62.2962 14.5883 48.5373 0.828903 31.6253 0.828903ZM31.6253 62.4609C14.5528 62.4609 0.664551 48.5719 0.664551 31.5C0.664551 14.4279 14.5528 0.539497 31.6253 0.539497C48.697 0.539497 62.586 14.4279 62.586 31.5C62.586 48.5719 48.697 62.4609 31.6253 62.4609Z" fill="#1F4899"/>
</g>
</g>
</g>
</g>
<defs>
<linearGradient id="paint0_linear_289_558" x1="8.79756" y1="34.8249" x2="54.7318" y2="34.8249" gradientUnits="userSpaceOnUse">
<stop stop-color="#69C5F0"/>
<stop offset="0.0500031" stop-color="#69C5F0"/>
<stop offset="0.381634" stop-color="#3F88D0"/>
<stop offset="0.5" stop-color="#3F88D0"/>
<stop offset="0.731556" stop-color="#2C61B5"/>
<stop offset="0.949997" stop-color="#2C61B5"/>
<stop offset="1" stop-color="#2C61B5"/>
</linearGradient>
<clipPath id="clip0_289_558">
<rect width="63" height="63" fill="white" transform="translate(0.125244)"/>
</clipPath>
</defs>
</svg>
