<svg width="65" height="65" viewBox="0 0 65 65" fill="none" xmlns="http://www.w3.org/2000/svg">
<g id="&#236;&#132;&#177;&#234;&#183;&#160;&#234;&#180;&#128;&#235;&#140;&#128;&#237;&#149;&#153;&#234;&#181;&#144;" clip-path="url(#clip0_289_753)">
<g id="Group">
<g id="Group_2">
<path id="Vector" d="M52.5814 50.9865C52.5814 50.9865 52.0653 51.5291 52.0008 51.5974C52.0691 51.662 53.2379 52.7738 53.2379 52.7738L52.5776 53.4645C52.5776 53.4645 51.4088 52.3526 51.3405 52.2881C51.2798 52.3526 50.7826 52.8763 50.7219 52.9408C50.7902 53.0053 51.9552 54.1172 51.9552 54.1172C51.9552 54.1172 51.1469 54.9673 51.0786 55.0356C51.1394 55.0963 51.5947 55.5251 51.6555 55.5858C51.7238 55.5137 55.8639 51.1648 55.936 51.0927C55.8715 51.032 55.4199 50.6032 55.3592 50.5425C55.2909 50.6146 53.8565 52.1211 53.8565 52.1211C53.8565 52.1211 52.6877 51.0092 52.6193 50.9447C52.6004 50.9675 52.5776 50.9865 52.5776 50.9865H52.5814Z" fill="#76777A"/>
<path id="Vector_2" d="M54.3308 50.3301C54.2587 50.2618 51.8566 47.9735 51.7845 47.9014C51.7655 47.9241 51.7427 47.9431 51.7427 47.9431C51.7427 47.9431 48.149 51.719 48.0769 51.7911C48.1376 51.8518 48.5892 52.2806 48.6537 52.3375C48.7258 52.2654 51.7427 49.0967 51.7427 49.0967C51.7427 49.0967 53.6439 50.9069 53.716 50.9752L54.3346 50.3263L54.3308 50.3301Z" fill="#76777A"/>
</g>
<path id="Vector_3" d="M10.3144 52.2201C9.68446 52.8083 9.70723 53.8557 10.3599 54.5577C11.0164 55.2598 12.06 55.3508 12.69 54.7626C13.3199 54.1744 13.2971 53.1233 12.6406 52.425C11.9841 51.723 10.9406 51.6319 10.3106 52.2239L10.3144 52.2201ZM10.8912 52.8235C11.2252 52.5123 11.783 52.5578 12.1283 52.9259C12.4737 53.2978 12.4851 53.8519 12.1511 54.1668C11.8172 54.4818 11.2631 54.4363 10.9102 54.0644C10.5649 53.6925 10.5573 53.1346 10.8912 52.8235Z" fill="#76777A"/>
<path id="Vector_4" d="M16.075 51.5518C16.075 51.5518 15.5817 51.0243 15.5209 50.9636C15.4564 51.0243 14.8037 51.6353 14.8037 51.6353C14.8037 51.6353 14.1662 50.9522 14.1055 50.8877C14.0448 50.9446 13.6083 51.3545 13.5476 51.4114C13.6083 51.4759 14.2459 52.159 14.2459 52.159C14.2459 52.159 13.3693 52.9787 13.301 53.0432C13.3579 53.1039 13.8322 53.6124 13.893 53.6731C13.9651 53.6086 16.0446 51.658 16.1167 51.5935C16.0978 51.5708 16.0788 51.5518 16.0788 51.5518H16.075Z" fill="#76777A"/>
<path id="Vector_5" d="M13.43 48.7021C13.43 48.7021 10.2537 48.835 10.155 48.8388C10.1626 48.926 10.2082 49.6205 10.2157 49.7078C10.3106 49.7002 12.561 49.575 12.561 49.575C12.561 49.575 12.2877 51.6887 12.2726 51.7836C12.356 51.7949 13.0467 51.8898 13.134 51.9012C13.1454 51.8025 13.4869 48.816 13.4983 48.7059C13.4641 48.7059 13.43 48.7059 13.43 48.7059V48.7021Z" fill="#76777A"/>
<path id="Vector_6" d="M39.4474 62.117L40.305 61.969L39.3298 56.3071C39.3032 56.3147 39.2728 56.3185 39.2728 56.3185C39.2728 56.3185 38.5594 56.4399 38.4721 56.4551C38.4873 56.55 38.7719 58.197 38.7719 58.197L38.2634 58.2842C38.2634 58.2842 37.9788 56.6411 37.9636 56.5424L37.0946 56.6904L37.7132 60.2841C37.0263 60.4018 34.9885 60.7509 34.9885 60.7509L34.5103 57.9844C34.5103 57.9844 36.4267 57.6543 36.5216 57.6391L36.4001 56.9219C36.4001 56.9219 36.3963 56.9219 36.3888 56.9219L33.535 57.4114C33.7096 58.4322 34.2523 61.5744 34.2674 61.6541L37.8422 61.0393L38.0661 62.3447L38.9351 62.1967C38.9199 62.1019 38.3886 59.0318 38.3886 59.0318L38.8934 58.9445C38.8934 58.9445 39.4208 62.0108 39.436 62.1056L39.4474 62.117Z" fill="#76777A"/>
<path id="Vector_7" d="M21.9456 57.7564C21.9456 57.7564 21.8507 57.7032 21.68 57.6159L22.7463 55.6123C22.7197 55.5971 22.6932 55.5857 22.6932 55.5857C22.6932 55.5857 18.2039 53.195 18.1166 53.1494L17.7485 53.8363C17.8358 53.8818 21.6003 55.8855 21.6003 55.8855C21.6003 55.8855 21.1714 56.6862 20.902 57.1985L16.7049 54.9633L16.3406 55.6502C16.4241 55.6958 17.9914 56.5268 17.9914 56.5268C17.9914 56.5268 17.5512 57.3503 17.5094 57.43L18.295 57.8512C18.3367 57.7715 18.7769 56.948 18.7769 56.948L19.479 57.3199C19.479 57.3199 19.0425 58.1434 18.997 58.2231L19.7863 58.6443C19.8281 58.5647 20.2683 57.7412 20.2683 57.7412C20.2683 57.7412 21.5509 58.4242 21.6344 58.4698L21.9987 57.7829C21.976 57.7715 21.9494 57.7564 21.9494 57.7564H21.9456ZM17.2134 56.7279L16.4393 56.3143L15.4792 58.1207L20.2 60.6366L20.5681 59.9498C20.4808 59.9042 16.6214 57.8474 16.6214 57.8474C16.6214 57.8474 17.1717 56.8114 17.2172 56.7279H17.2134Z" fill="#76777A"/>
<path id="Vector_8" d="M25.6759 60.2155C25.6456 60.2117 25.619 60.2079 25.619 60.2079C25.619 60.2079 24.8942 60.094 24.8069 60.0827L24.4881 62.1053L29.8123 62.9402L29.9337 62.1698C29.8389 62.1546 25.4786 61.4716 25.4786 61.4716C25.4786 61.4716 25.6608 60.3141 25.6759 60.2193V60.2155ZM30.503 58.2573C30.503 58.2573 30.6434 57.3542 30.6586 57.2631C30.632 57.2631 30.6054 57.2555 30.6054 57.2555C30.6054 57.2555 29.8844 57.1417 29.7933 57.1265L29.4252 59.4717L28.5448 59.3351L28.894 57.0923C28.8674 57.0885 28.837 57.0847 28.837 57.0847C28.837 57.0847 25.2964 56.5307 25.1978 56.5117L25.0763 57.2821C25.1712 57.2973 27.9035 57.7261 27.9035 57.7261C27.9035 57.7261 27.7441 58.7393 27.672 59.1985C27.1787 59.1226 26.7992 59.0619 26.7992 59.0619C26.7992 59.0619 26.9168 58.3294 26.9282 58.2422C26.9017 58.2422 26.8713 58.2346 26.8713 58.2346C26.8713 58.2346 26.1313 58.1169 26.044 58.1056C26.0289 58.1928 25.915 58.9252 25.915 58.9252C25.915 58.9252 24.6627 58.7279 24.5716 58.7165L24.4502 59.4869L29.2962 60.2458L29.1558 61.1452L30.021 61.2818C30.0362 61.187 30.3739 59.0201 30.3739 59.0201C30.3739 59.0201 31.1747 59.1453 31.2657 59.1605L31.3834 58.394C31.2961 58.3788 30.4954 58.2535 30.4954 58.2535L30.503 58.2573Z" fill="#76777A"/>
<path id="Vector_9" d="M46.2136 52.9068C46.2136 52.9068 45.5837 53.2559 45.504 53.3015C45.5533 53.385 47.0978 56.1742 47.1471 56.2577C47.223 56.2159 47.8302 55.8782 47.9061 55.8364C47.8606 55.753 47.1168 54.4096 47.1168 54.4096C47.1168 54.4096 47.8074 54.0263 47.8871 53.9808C47.8492 53.9087 47.557 53.385 47.519 53.3129C47.4393 53.3546 46.7487 53.7379 46.7487 53.7379C46.7487 53.7379 46.3161 52.9562 46.2705 52.8765C46.2478 52.8916 46.2212 52.9068 46.2212 52.9068H46.2136Z" fill="#76777A"/>
<path id="Vector_10" d="M48.0389 56.216C48.0389 56.216 43.394 58.7927 43.3105 58.8383C43.3523 58.9141 43.6445 59.4416 43.6862 59.5137C43.7697 59.4644 47.7088 57.2824 47.7088 57.2824C47.7088 57.2824 48.2363 58.2311 48.2818 58.3146C48.3577 58.2728 48.9649 57.9351 49.0408 57.8933C48.9952 57.8099 48.1414 56.2691 48.092 56.1895C48.0655 56.2008 48.0427 56.216 48.0427 56.216H48.0389Z" fill="#76777A"/>
<path id="Vector_11" d="M44.7716 53.8252L43.3637 54.6069C43.3637 54.6069 43.3637 54.6069 43.3599 54.6069L43.1018 54.144L42.3315 54.569L42.5895 55.0358L41.1551 55.8289L41.5156 56.474L42.0317 56.1894C42.0089 56.493 42.0659 56.8041 42.2252 57.0888C42.673 57.8933 43.728 58.1665 44.578 57.6921C45.4281 57.2216 45.7582 56.1818 45.3104 55.3773C45.1511 55.0927 44.9196 54.8802 44.6501 54.7397L45.1283 54.4703L44.7716 53.829V53.8252ZM44.1834 56.9408C43.7735 57.1684 43.2688 57.0356 43.0563 56.6486C42.84 56.2615 42.9994 55.7681 43.4054 55.5405C43.8115 55.3128 44.3162 55.4456 44.5325 55.8327C44.745 56.2197 44.5894 56.7131 44.1834 56.9408Z" fill="#76777A"/>
</g>
<g id="Group_3">
<path id="Vector_12" d="M61.9319 34.8133L61.2678 34.3958C61.966 34.0771 61.9888 33.3788 61.9888 33.3788C62.0153 32.8323 61.6966 32.4415 61.2298 32.4453C60.615 32.4491 60.3874 32.9955 60.1293 33.6255C59.8485 34.3009 59.4159 35.0144 58.5544 35.0637C57.5109 35.1282 56.805 34.2061 56.8582 32.9386C56.9113 31.7053 57.7613 31.1133 57.7613 31.1133L58.5431 31.4738C58.5431 31.4738 57.4426 31.8381 57.3705 33.1663C57.3401 33.7545 57.7689 34.2099 58.3457 34.2061C58.9605 34.2023 59.1806 33.6748 59.4348 33.0638C59.7195 32.377 60.0382 31.6028 61.0211 31.5952C61.9812 31.5876 62.5618 32.3466 62.5049 33.5306C62.5049 33.5306 62.4897 34.2858 61.9281 34.8208L61.9319 34.8133Z" fill="#76777A"/>
<path id="Vector_13" d="M4.31853 43.4539L5.09648 43.5374C4.60694 44.1331 4.89535 44.7707 4.89535 44.7707C5.11165 45.2716 5.56704 45.4879 5.98447 45.2792C6.53851 45.006 6.50057 44.4178 6.45882 43.7385C6.41708 43.0061 6.49298 42.1788 7.24436 41.7538C8.15512 41.2415 9.19111 41.7614 9.69962 42.9226C10.1929 44.0535 9.68823 44.9566 9.68823 44.9566L8.82301 44.9756C8.82301 44.9756 9.65787 44.1673 9.13798 42.9416C8.91029 42.3989 8.32209 42.1788 7.80599 42.4331C7.25195 42.7063 7.2861 43.2755 7.32784 43.9358C7.37338 44.6758 7.42271 45.5145 6.5461 45.9509C5.68847 46.3759 4.83084 45.9509 4.36787 44.8618C4.36787 44.8618 4.0491 44.1749 4.32233 43.4501L4.31853 43.4539Z" fill="#76777A"/>
<path id="Vector_14" d="M3.47233 23.9598L3.41541 24.013C3.31674 24.1154 2.74751 24.7074 2.50085 25.8876C2.12516 27.694 2.96761 29.0336 4.62596 29.3789C6.32225 29.7318 7.55558 28.8893 7.92368 27.121C8.06788 26.4303 8.09445 25.7207 8.00337 25.0072L7.99578 24.9389L5.93139 24.5101L5.75682 25.3526L7.49866 25.7093C7.59732 26.1153 7.55937 26.5328 7.49866 26.8174C7.21404 28.1835 6.25015 28.7679 4.77775 28.4605C3.40402 28.1759 2.70198 27.269 2.96002 26.0129C3.09284 25.3791 3.50648 24.7606 4.01879 24.4684L4.05673 24.4456L3.46853 23.9561L3.47233 23.9598Z" fill="#76777A"/>
<path id="Vector_15" d="M8.68262 13.2055L8.20067 13.8923L9.42261 16.4425L6.60305 16.1654L5.98828 17.0382L9.65789 17.247C9.70343 17.2773 11.4946 18.5334 11.4946 18.5334L11.9879 17.8314C11.9879 17.8314 10.136 16.5335 10.0943 16.507L8.67882 13.2017L8.68262 13.2055Z" fill="#76777A"/>
<path id="Vector_16" d="M58.877 46.8578L59.2147 46.0912L57.5185 43.8295L60.338 43.5524L60.7706 42.5734L57.1314 43.0857C57.082 43.0629 55.0784 42.1787 55.0784 42.1787L54.733 42.9642C54.733 42.9642 56.805 43.875 56.8468 43.894L58.8808 46.8578H58.877Z" fill="#76777A"/>
<path id="Vector_17" d="M6.99389 20.7038L5.85544 17.3833L5.46836 18.165L6.5423 21.2882C6.3981 21.2161 4.44375 20.256 4.44375 20.256L4.06427 21.0263L8.88372 23.3943L9.2632 22.624L6.92938 21.4779L10.2271 20.6696L10.7052 19.6906L6.99389 20.7076V20.7038Z" fill="#76777A"/>
<path id="Vector_18" d="M23.065 6.2571L24.6513 3.12256L23.8202 3.39199L22.3326 6.33679C22.2795 6.1812 21.6116 4.10922 21.6116 4.10922L20.7919 4.37486L22.4541 9.48271L23.27 9.21707L22.4655 6.74284L25.3457 8.54159L26.3817 8.20385L23.065 6.2533V6.2571Z" fill="#76777A"/>
<path id="Vector_19" d="M27.5468 7.9494L28.1881 7.88489L29.1975 3.64226L30.9318 7.61166L31.668 7.53956L32.9165 2.01807L32.1765 2.09017L31.1671 6.45803L29.3797 2.37099L28.8902 2.42032L27.8921 6.7768L26.2034 2.68975L25.3002 2.77703L27.5468 7.9494Z" fill="#76777A"/>
<path id="Vector_20" d="M35.884 2.41663L35.5045 2.37109L32.5635 7.49413L33.2959 7.58521L34.3775 5.66122L36.0244 5.85855L36.5937 7.97987L37.5955 8.1013L35.884 2.41284V2.41663ZM35.459 3.59303C35.5501 3.908 35.8271 5.12235 35.8916 5.33486L34.5824 5.17548L35.459 3.59303Z" fill="#76777A"/>
<path id="Vector_21" d="M56.932 15.1855L52.4887 18.1938L52.9674 18.9009L57.4107 15.8925L56.932 15.1855Z" fill="#76777A"/>
<path id="Vector_22" d="M56.7622 36.0051L56.627 36.8481L61.9252 37.6977L62.0604 36.8547L56.7622 36.0051Z" fill="#76777A"/>
<path id="Vector_23" d="M48.9042 10.9513C48.1566 12.0442 47.3672 12.2225 46.5248 11.6457C45.5761 10.9968 45.5419 10.3403 46.335 9.18286L48.0275 6.70862L47.3255 6.23047L45.5913 8.76542C45.227 9.31568 44.8854 9.94182 45.0372 10.5832C45.17 11.141 45.5495 11.6229 46.1719 12.048C47.3597 12.8639 48.4715 12.6589 49.3026 11.4484L51.1052 8.81476L50.6004 8.46943L48.9042 10.9513Z" fill="#76777A"/>
<path id="Vector_24" d="M14.2193 11.8806C15.149 12.8255 15.1718 13.6338 14.4432 14.3511C13.6235 15.1556 12.9746 15.0607 11.9917 14.0589L9.89319 11.9224L9.28601 12.5182L11.4377 14.7078C11.9082 15.1746 12.4547 15.6299 13.115 15.6034C13.6842 15.5806 14.2345 15.3036 14.7734 14.7761C15.8018 13.7667 15.8169 12.6358 14.7885 11.5884L12.5496 9.31152L12.1132 9.74034L14.2193 11.8844V11.8806Z" fill="#76777A"/>
<path id="Vector_25" d="M5.23309 37.2076C6.52334 36.9002 7.22918 37.2987 7.46446 38.2891C7.7301 39.4086 7.31646 39.9133 5.95411 40.2397L3.03967 40.9341L3.237 41.7614L6.22354 41.048C6.86487 40.8848 7.53656 40.6533 7.85153 40.0727C8.12856 39.5718 8.20066 38.9532 8.02609 38.2208C7.69215 36.8205 6.70549 36.2285 5.27863 36.5701L2.17065 37.3101L2.31106 37.9059L5.23309 37.2076Z" fill="#76777A"/>
<path id="Vector_26" d="M54.179 20.9126L54.3991 21.3452L60.2052 20.8899L59.8484 20.1992L55.2795 20.6508L58.3002 17.1937L57.8599 16.3398L54.179 20.9126Z" fill="#76777A"/>
<path id="Vector_27" d="M56.2471 24.2026C56.4065 24.1533 57.9624 23.6599 58.118 23.6068L58.6834 25.3828L59.2033 25.2158L58.6417 23.4398C58.7935 23.3905 60.1824 22.9503 60.3342 22.9048L60.9451 24.8401L61.3853 24.6997L60.5163 21.9561L55.4009 23.5765L56.2851 26.3657L56.8809 26.1759L56.2547 24.195L56.2471 24.2026Z" fill="#76777A"/>
<path id="Vector_28" d="M61.818 38.6913L61.3892 38.5698L60.9376 40.175C60.763 40.1257 56.2016 38.8468 56.2016 38.8468L55.9702 39.6665L60.7061 40.9947L60.2811 42.5316L60.7137 42.6493L61.8218 38.6913H61.818Z" fill="#76777A"/>
<path id="Vector_29" d="M56.5166 27.2082L56.6229 28.0544L59.2109 27.7091L56.9264 30.3389L57.0479 31.2421L59.3324 28.6274C59.4842 29.5003 60.1938 30.1909 60.9642 30.0885C61.8446 29.9708 62.2202 29.3636 62.0647 28.1797L61.8408 26.4985L56.5166 27.2044V27.2082ZM59.7157 27.6446C59.8712 27.6256 61.3361 27.4283 61.4916 27.4093L61.5979 28.2176C61.6852 28.8855 61.3323 29.2232 60.8503 29.265C60.3456 29.3105 59.932 29.1018 59.8105 28.3466L59.7157 27.6446Z" fill="#76777A"/>
<path id="Vector_30" d="M17.9572 5.67616L17.4373 6.00631L19.4865 9.22813C17.6005 8.74239 14.3104 7.99101 14.3104 7.99101L13.9423 8.2225L16.8188 12.7535L17.3386 12.4234C17.3386 12.4234 16.1433 10.5373 15.1832 9.0308L20.5263 10.4007L20.8375 10.2034L17.9572 5.67236V5.67616Z" fill="#76777A"/>
<path id="Vector_31" d="M1.82154 30.6881L1.83293 31.3028L5.65054 31.2231C4.25783 32.5855 1.91262 35.0104 1.91262 35.0104L1.92021 35.443L7.28612 35.3292L7.27094 34.7144C7.27094 34.7144 5.03957 34.7637 3.2522 34.8017L7.19125 30.9423L7.18366 30.5742L1.81775 30.6919L1.82154 30.6881Z" fill="#76777A"/>
<path id="Vector_32" d="M43.9671 4.56432L43.3827 4.36699L42.1645 7.98727C41.3562 6.21508 39.8686 3.1868 39.8686 3.1868L39.455 3.04639L37.7435 8.13527L38.3241 8.3326C38.3241 8.3326 39.0376 6.21508 39.6068 4.52258L41.9027 9.53556L42.2518 9.65321L43.9595 4.56432H43.9671Z" fill="#76777A"/>
<path id="Vector_33" d="M55.8639 13.6111L55.4465 13.1633L52.6497 15.7628C52.7863 13.8198 52.9229 10.4462 52.9229 10.4462L52.6269 10.1274L48.6954 13.7819L49.1129 14.2297C49.1129 14.2297 50.7484 12.7079 52.0577 11.4898L51.6858 16.9923L51.9362 17.2617L55.8639 13.6035V13.6111Z" fill="#76777A"/>
</g>
<g id="Group_4">
<g id="Group_5">
<path id="Vector_34" d="M34.0549 25.7927C34.0511 21.4059 37.5917 17.8463 41.9634 17.8425C43.0221 17.8425 44.0315 18.0512 44.9537 18.4269C37.9408 11.9719 27.0231 12.1502 20.2303 18.962C13.65 25.5612 13.3047 36.0198 19.1791 43.0251C20.6971 41.0328 22.7766 38.7293 25.3344 36.9268C27.3267 35.5189 30.0969 34.1148 32.3245 33.8985C34.4306 33.6974 37.5727 33.8985 39.4739 34.8055C37.9864 33.2837 36.4191 31.576 35.6487 30.5552C34.6507 29.2308 34.0587 27.5801 34.0549 25.7889V25.7927Z" fill="url(#paint0_linear_289_753)"/>
<path id="Vector_35" d="M33.4971 31.5987L25.1067 15.4858C23.5622 16.2334 22.1012 17.2125 20.7806 18.4344L33.444 31.5798L33.4971 31.5987Z" fill="url(#paint1_linear_289_753)"/>
<path id="Vector_36" d="M33.5426 31.6138L34.6241 13.8046C33.1783 13.6642 31.7173 13.6945 30.2791 13.907L33.5274 31.61L33.5426 31.6175V31.6138Z" fill="url(#paint2_linear_289_753)"/>
<path id="Vector_37" d="M33.4439 31.5758L16.1926 25.1929C15.6082 26.7222 15.2439 28.3198 15.0959 29.9288L33.4895 31.6213L33.4439 31.5758Z" fill="url(#paint3_linear_289_753)"/>
<path id="Vector_38" d="M15.2097 34.1564C15.3919 35.4011 15.7068 36.6268 16.1508 37.8184L33.4401 31.667L15.2135 34.1564H15.2097Z" fill="url(#paint4_linear_289_753)"/>
<path id="Vector_39" d="M18.8528 47.3852C18.3329 46.9336 17.4449 46.095 16.648 45.0704C12.9974 40.9871 8.81924 30.2629 15.7372 20.5253C18.591 16.5104 22.6894 13.8047 26.765 12.7042C36.2673 10.1389 43.5762 14.6206 46.9232 18.237C47.2951 18.6393 47.242 19.1554 46.9612 19.3907C46.5475 19.7398 46.1719 19.5577 45.337 19.3186C44.0354 18.9429 42.9121 18.8556 41.7091 19.0112C38.9161 19.3717 36.5026 21.9636 36.8403 25.5801C37.1515 28.8816 39.7017 31.2647 41.489 32.8358C47.7771 38.3573 45.6823 44.2886 45.1738 45.5903C43.4434 50.015 38.9958 53.1382 33.2277 53.1458C30.8331 53.1458 27.3684 52.531 23.8848 50.33C23.7519 50.2693 23.6153 50.0909 23.7823 49.7949C24.0479 49.1233 25.156 47.1613 25.6342 46.5921C27.3646 48.5882 30.2867 50.4666 33.5312 50.5805C37.9636 50.7361 40.8173 48.3339 41.8609 45.2905C43.0335 41.8713 41.7774 38.3839 38.4607 35.2455C35.6032 32.536 33.0531 30.0314 32.8975 25.7319C32.7002 20.2217 37.4931 16.9468 41.952 17.1593C42.0848 17.1669 35.7854 12.6321 27.7062 15.3492C23.7519 16.6812 21.3877 19.0188 20.2531 20.347C20.0823 20.5519 20.1924 20.7075 20.2531 20.791C20.3783 20.9693 23.1296 24.7983 23.1296 24.7983L18.1735 23.6637C18.1735 23.6637 17.9686 23.6143 17.8661 23.7851C16.2951 26.5022 13.984 34.3575 19.1754 41.5032C19.1754 41.5032 23.5812 34.5055 32.3435 33.8984C32.9279 33.8604 32.852 34.0691 32.4687 34.2057C24.6437 37.0936 21.5623 42.839 19.57 47.2714C19.4486 47.5446 19.1222 47.6281 18.8566 47.3928L18.8528 47.3852Z" fill="#003B71"/>
</g>
<g id="Group_6">
<path id="Vector_40" d="M26.9168 41.9817C26.9168 41.9817 27.4064 41.7616 27.543 41.6857V45.0821H28.1615L28.154 41.0899L28.0553 41.0254L28.0249 41.0406C27.5771 41.2645 27.1218 41.4732 26.7347 41.6326L26.9168 41.9855V41.9817Z" fill="#76777A"/>
<path id="Vector_41" d="M30.1804 43.0821C30.6775 43.0821 30.9204 43.3363 30.9204 43.8638C30.9204 44.4027 30.5864 44.7518 30.0703 44.7518C29.6947 44.7518 29.4404 44.5014 29.3493 44.3951L29.2734 44.3078L29.1254 44.8353L29.171 44.8581C29.3835 44.9605 29.6567 45.063 30.059 45.063C30.9356 45.063 31.5693 44.5279 31.5693 43.7917C31.5693 43.12 31.0494 42.9265 30.7344 42.8696C31.0798 42.7216 31.3909 42.4066 31.3872 41.9285C31.3872 41.3668 30.9432 41.0253 30.2373 41.0215C29.6377 41.0215 29.3303 41.4124 29.3303 41.4124L29.5922 41.8677L29.6377 41.7387C29.7098 41.5338 29.9299 41.3251 30.2145 41.3251C30.4688 41.3251 30.761 41.492 30.7648 41.9626C30.7648 42.3307 30.6623 42.7671 30.1842 42.7671L29.8654 42.7443V43.12C29.8654 43.12 30.0438 43.0745 30.1842 43.0745L30.1804 43.0821Z" fill="#76777A"/>
<path id="Vector_42" d="M32.408 44.266L32.5711 44.9111C32.5711 44.9111 32.8254 45.0591 33.1859 45.0554C34.2105 45.0516 34.9239 44.0915 34.9239 42.7139C34.9239 41.1808 33.9866 41.0138 33.5844 41.0176C32.8064 41.0176 32.26 41.5451 32.2638 42.3003C32.2638 43.0365 32.7115 43.4919 33.4326 43.4919C33.7969 43.4919 34.0815 43.3477 34.294 43.0782C34.2522 43.9359 33.9145 44.7176 33.2163 44.7252C32.6546 44.729 32.4118 44.266 32.4118 44.266H32.408ZM33.5236 43.1541C33.0948 43.1541 32.8861 42.8733 32.8861 42.2965C32.8861 41.7121 33.1631 41.3212 33.5806 41.3212C33.9942 41.3212 34.275 41.6514 34.275 42.1447C34.275 42.6456 34.017 43.1503 33.5236 43.1503V43.1541Z" fill="#76777A"/>
<path id="Vector_43" d="M37.3602 42.7555C37.7094 42.5999 37.9333 42.2849 37.9333 41.9093C37.9333 41.4956 37.6335 41.0137 36.7834 41.0137C36.1383 41.0137 35.6564 41.4311 35.6564 41.9776C35.6564 42.3874 35.9334 42.6758 36.2332 42.7859C35.736 42.9832 35.4552 43.3627 35.459 43.8788C35.459 44.5808 35.9941 45.0514 36.791 45.0514C37.5652 45.0514 38.123 44.5011 38.123 43.746C38.123 43.0477 37.6069 42.8238 37.364 42.7555H37.3602ZM36.2446 41.9852C36.2446 41.8296 36.2825 41.3173 36.791 41.3173C37.2919 41.3173 37.3451 41.784 37.3451 41.9814C37.3451 42.1369 37.3071 42.6492 36.791 42.6492C36.2863 42.6492 36.2446 42.1407 36.2446 41.9852ZM36.791 44.744C36.3698 44.744 36.0814 44.3873 36.0814 43.8522C36.0814 43.3171 36.366 42.9604 36.7872 42.9566C37.2084 42.9566 37.4931 43.3133 37.4931 43.8484C37.4931 44.3911 37.2198 44.744 36.7872 44.744H36.791Z" fill="#76777A"/>
</g>
</g>
</g>
<defs>
<linearGradient id="paint0_linear_289_753" x1="36.2005" y1="32.7854" x2="21.5347" y2="24.5154" gradientUnits="userSpaceOnUse">
<stop stop-color="white"/>
<stop offset="0.2" stop-color="#E7EB8E"/>
<stop offset="0.76" stop-color="#AACC03"/>
<stop offset="1" stop-color="#8DC21F"/>
</linearGradient>
<linearGradient id="paint1_linear_289_753" x1="34.9719" y1="27.3336" x2="21.2955" y2="18.2124" gradientUnits="userSpaceOnUse">
<stop stop-color="#E5EA90"/>
<stop offset="0.02" stop-color="#E1E889"/>
<stop offset="0.09" stop-color="#D2E06E"/>
<stop offset="0.15" stop-color="#CADB5D"/>
<stop offset="0.2" stop-color="#C7DA58"/>
<stop offset="0.4" stop-color="#A1C710"/>
<stop offset="0.74" stop-color="#7CB923"/>
<stop offset="1" stop-color="#65B12F"/>
</linearGradient>
<linearGradient id="paint2_linear_289_753" x1="36.8318" y1="24.5496" x2="23.1554" y2="15.4245" gradientUnits="userSpaceOnUse">
<stop stop-color="#E5EA90"/>
<stop offset="0.02" stop-color="#E1E889"/>
<stop offset="0.09" stop-color="#D2E06E"/>
<stop offset="0.15" stop-color="#CADB5D"/>
<stop offset="0.2" stop-color="#C7DA58"/>
<stop offset="0.4" stop-color="#A1C710"/>
<stop offset="0.74" stop-color="#7CB923"/>
<stop offset="1" stop-color="#65B12F"/>
</linearGradient>
<linearGradient id="paint3_linear_289_753" x1="30.0968" y1="34.6445" x2="16.4167" y2="25.5194" gradientUnits="userSpaceOnUse">
<stop stop-color="#E5EA90"/>
<stop offset="0.02" stop-color="#E1E889"/>
<stop offset="0.09" stop-color="#D2E06E"/>
<stop offset="0.15" stop-color="#CADB5D"/>
<stop offset="0.2" stop-color="#C7DA58"/>
<stop offset="0.4" stop-color="#A1C710"/>
<stop offset="0.74" stop-color="#7CB923"/>
<stop offset="1" stop-color="#65B12F"/>
</linearGradient>
<linearGradient id="paint4_linear_289_753" x1="28.415" y1="37.1627" x2="14.7386" y2="28.0414" gradientUnits="userSpaceOnUse">
<stop stop-color="#E5EA90"/>
<stop offset="0.02" stop-color="#E1E889"/>
<stop offset="0.09" stop-color="#D2E06E"/>
<stop offset="0.15" stop-color="#CADB5D"/>
<stop offset="0.2" stop-color="#C7DA58"/>
<stop offset="0.4" stop-color="#A1C710"/>
<stop offset="0.74" stop-color="#7CB923"/>
<stop offset="1" stop-color="#65B12F"/>
</linearGradient>
<clipPath id="clip0_289_753">
<rect width="64" height="64" fill="white" transform="translate(0.125244 0.5)"/>
</clipPath>
</defs>
</svg>
