<svg width="64" height="65" viewBox="0 0 64 65" fill="none" xmlns="http://www.w3.org/2000/svg">
<g id="&#236;&#132;&#156;&#236;&#154;&#184;&#235;&#140;&#128;&#237;&#149;&#153;&#234;&#181;&#144;" clip-path="url(#clip0_289_515)">
<g id="layer1">
<g id="g36960">
<path id="path4077" d="M15.2452 33.0266H13.2384V35.5526H15.2452V33.0266ZM6.47218 52.1334C9.36693 55.9371 14.4579 55.0686 14.4579 55.0686C15.0765 49.684 12.8862 47.9382 12.8862 47.9382C11.5247 50.7968 13.5818 54.2472 13.5818 54.2472C10.4887 51.4062 6.47218 52.1334 6.47218 52.1334ZM11.7555 22.5812L10.7818 21.6774C8.42866 22.2721 6.71785 24.3476 6.71785 24.3476C7.82188 21.7186 7.22399 19.2574 6.72969 17.9503L6.02228 17.3732C3.97997 21.224 6.24131 25.4487 6.24131 25.4487C9.38173 24.698 10.9741 23.4644 11.7555 22.5812ZM18.3265 57.7182C18.223 56.046 17.918 54.8272 17.5391 53.8527L15.6034 53.8557C16.1273 55.6839 17.3171 57.0617 17.3171 57.0617C13.7712 54.7948 9.94411 56.205 9.94411 56.205C13.4604 59.4523 18.3265 57.7182 18.3265 57.7182ZM17.8499 29.1729V51.1059H28.7748C30.0091 51.1383 31.2818 52.101 31.2818 52.101V34.5546C24.6635 34.4133 23.3316 29.1729 23.3316 29.1729H17.8499ZM23.0208 42.5064H22.2009V46.7517H21.165V42.5064H20.354V41.5378H23.0208V42.5064ZM28.1739 46.8341C27.8809 46.8341 27.5198 46.7458 27.283 46.5721V45.5888C27.5287 45.7566 27.7625 45.8685 28.0703 45.8685C28.4019 45.8685 28.6682 45.6448 28.6682 45.3003C28.6682 44.8999 28.3456 44.7468 28.0556 44.5378C27.4577 44.1374 27.0906 43.7517 27.0906 42.9922C27.0906 42.1679 27.5701 41.4554 28.4581 41.4554C28.7926 41.4554 29.0915 41.5467 29.3756 41.7115V42.7154C29.1654 42.5359 28.911 42.3828 28.6268 42.3828C28.3042 42.3828 28.1029 42.5771 28.1029 42.895C28.1029 43.7517 29.6805 43.8018 29.6805 45.212C29.6805 46.1364 29.1477 46.8341 28.1739 46.8341ZM28.9435 35.1934H29.9795V40.4073H28.9435V35.1934ZM25.6847 35.1934H26.7295C27.3896 35.1934 28.5676 35.2612 28.5676 36.6861C28.5676 37.2602 28.3398 37.7489 27.8276 38.0315L28.7363 40.4044H27.6441L26.7354 37.9991H26.7212V40.4044H25.6853L25.6847 35.1934ZM26.7769 46.7517H25.6729L25.4775 45.8744H24.4267L24.2373 46.7517H23.2102L24.4267 41.5378H25.516L26.7769 46.7517ZM25.4745 35.1934V36.1591H24.4238V37.2925H25.3473V38.2611H24.4238V39.4387H25.4864V40.4044H23.3908V35.1993L21.9375 40.4044H21.091L19.5755 35.1934H20.6855L21.313 37.6959C21.4046 37.9903 21.4373 38.2906 21.4996 38.585H21.5138C21.5701 38.2817 21.5907 37.9873 21.6736 37.6812L22.307 35.1934H25.4745ZM43.2101 17.8413L39.9365 21.383L39.9689 27.0444C39.9689 27.0444 39.8682 27.9776 39.667 28.4398H41.7714L47.7859 22.4576L43.2101 17.8413ZM15.3103 44.9588H13.3036V47.4818H15.3103V44.9588ZM18.584 20.4645L22.7959 24.5861V21.3977L18.584 17.2084V20.4645ZM15.263 55.7693C15.5264 55.7693 15.7395 55.5573 15.7395 55.2953C15.7395 55.0362 15.5264 54.8213 15.263 54.8213C15.0025 54.8213 14.7894 55.0362 14.7894 55.2953C14.7894 55.5573 15.0025 55.7693 15.263 55.7693ZM7.63837 22.0248C7.63837 22.2839 7.85147 22.4958 8.1149 22.4958C8.37833 22.4958 8.58848 22.2839 8.58848 22.0248C8.58848 21.7628 8.37821 21.5508 8.1149 21.5508C7.85147 21.5508 7.63837 21.7628 7.63837 22.0248ZM15.2926 52.3159C15.3092 52.5308 15.3518 52.2688 15.3518 52.2688V49.1864L14.8397 49.7517C15.1298 50.5289 15.2304 51.6447 15.2926 52.3159ZM22.7958 26.1641V25.5164L19.688 22.4252H12.4067L16.518 26.1641H22.7958ZM6.99606 17.3673C6.99606 17.3673 6.72375 15.6804 8.49376 13.1515H2.51483C2.51483 13.1515 2.76936 13.8433 6.99606 17.3673ZM1.81333 26.6469C0.744819 31.2985 4.68737 34.6223 4.68737 34.6223C9.22781 31.6312 9.16268 28.8402 9.16268 28.8402C6.09034 29.6381 4.75248 33.427 4.75248 33.427C4.95376 29.2377 1.81333 26.6469 1.81333 26.6469ZM5.33559 28.802C6.26202 24.7127 3.62478 21.6185 3.62478 21.6185C1.7571 26.014 5.06032 29.9678 5.06032 29.9678C10.0566 27.8069 10.4798 25.0483 10.4798 25.0483C7.31276 25.3015 5.33559 28.802 5.33559 28.802ZM5.75588 30.7509C5.75588 30.4918 5.54277 30.2769 5.27934 30.2769C5.01591 30.2769 4.80281 30.4918 4.80281 30.7509C4.80281 31.0129 5.01591 31.2249 5.27934 31.2249C5.54277 31.2249 5.75588 31.0129 5.75588 30.7509ZM30.1156 54.73H33.2501C33.2501 54.73 33.4573 53.3758 34.3423 53.3758H47.3598V30.5949L46.0663 29.2406V51.8154H34.4104C34.4104 51.8154 32.8416 51.9509 31.6133 53.4405C31.6133 53.4405 30.6602 52.0186 28.6179 51.8831H17.2343V29.4438L15.8372 30.8333V53.3758H28.5469C28.5469 53.3758 30.1156 53.4405 30.1156 54.73ZM9.71619 12.8689C6.45146 16.3634 8.19482 21.2034 8.19482 21.2034C13.6351 20.8737 14.9788 18.4242 14.9788 18.4242C11.9154 17.5852 8.85487 20.1995 8.85487 20.1995C11.134 16.6726 9.71619 12.8689 9.71619 12.8689ZM25.0601 43.6693L24.9418 42.8803H24.9275L24.8151 43.6693L24.5932 45.0559H25.3243L25.0609 43.6693H25.0601ZM55.1354 53.4729C55.9286 52.9842 56.6804 52.3189 57.3079 51.4062C57.3079 51.4062 55.5853 51.1825 53.5696 51.8596L55.1354 53.4729ZM58.4475 32.7999C58.4475 32.7999 57.0238 29.0434 53.9307 28.3162C53.9307 28.3162 53.9281 31.1101 58.5422 33.9952C58.5422 33.9952 62.4048 30.5802 61.2268 25.9521C61.2268 25.9521 58.1485 28.6194 58.4475 32.7999ZM52.655 44.0108C52.655 44.0108 50.8495 46.1511 52.5189 51.3091C52.5189 51.3091 57.6838 51.1619 59.7705 46.8665C59.7705 46.8665 55.6918 46.9401 53.2174 50.3346C53.2174 50.3346 54.5523 46.5456 52.655 44.0108ZM58.3232 37.4574C58.3232 37.4574 57.5743 33.5095 54.6559 32.2641C54.6559 32.2641 54.1675 35.0139 58.2077 38.6497C58.2077 38.6497 62.609 35.9559 62.2539 31.1955C62.2539 31.1955 58.7583 33.2887 58.3232 37.4574ZM54.6825 36.2739C54.6825 36.2739 53.7235 38.9 57.0652 43.1806C57.0652 43.1806 61.8691 41.2876 62.3516 36.5359C62.3516 36.5359 58.5422 37.9932 57.3908 42.0236C57.3908 42.0236 57.3375 38.0079 54.6825 36.2739ZM57.7401 39.8009C58.0035 39.8009 58.2166 39.5859 58.2166 39.3239C58.2166 39.0648 58.0035 38.8529 57.7401 38.8529C57.4767 38.8529 57.2635 39.0648 57.2635 39.3239C57.2635 39.5859 57.4767 39.8009 57.7401 39.8009ZM54.9548 47.9028C54.9548 47.6408 54.7446 47.4288 54.4813 47.4288C54.2178 47.4288 54.0047 47.6408 54.0047 47.9028C54.0047 48.1648 54.2178 48.3768 54.4813 48.3768C54.7447 48.3768 54.9548 48.1648 54.9548 47.9028ZM14.7095 19.6902H14.7121C14.5227 19.8403 13.1996 21.0415 11.184 21.2858L11.8707 21.9276L19.0868 21.8953L16.8462 19.6696H16.8436L15.7129 18.5391C15.7129 18.5391 14.9078 19.5577 14.7095 19.6902ZM42.6063 42.9127H42.5921L42.4827 43.7017L42.2608 45.0913H42.9889L42.7225 43.7017L42.6072 42.9127H42.6063ZM27.5612 36.692C27.5612 36.3181 27.3806 36.0148 26.8598 36.0413H26.7208V37.4309L26.9043 37.4397C27.3749 37.4397 27.5612 37.1218 27.5612 36.692ZM32.016 34.4221V52.101C32.016 52.101 33.0194 51.1059 34.4224 51.1059H45.4479V29.1729H39.5015C39.5015 29.1729 37.8114 34.3456 32.016 34.4221ZM33.3449 35.2258H34.3809V39.4711H35.4642V40.4368H33.3449V35.2258ZM36.7044 46.787L36.4558 43.0305H36.4392L36.2735 44.317L35.8295 46.787H35.0303L34.5242 44.2905L34.3494 43.1276V43.0305H34.3352L34.1813 46.787H33.0714L33.5301 41.5732H34.8917L35.4008 44.6497H35.4126L35.8299 41.5732H37.2211L37.7687 46.787H36.7061H36.7044ZM43.3345 46.787L43.142 45.9068H42.0913L41.9047 46.787H40.8776L42.0911 41.5732H43.1833L44.4413 46.787H43.3345ZM40.1823 35.2258H41.3484L41.6474 35.953C41.7362 36.2091 41.8427 36.477 41.896 36.745H41.9102C41.9666 36.477 42.0523 36.215 42.147 35.953L42.4608 35.2258H43.5796L42.4608 37.7489L43.6625 40.4368H42.4608L42.1292 39.6095C42.0317 39.3445 41.9663 39.0913 41.8955 38.8293H41.8837C41.8067 39.0913 41.7445 39.3445 41.6559 39.6095L41.3481 40.4368H40.1819L41.2918 37.7489L40.1823 35.2258ZM40.4634 41.5732V42.5417H39.4127V43.6723H40.3391V44.6438H39.4127V45.8185H40.4782V46.787H38.3797V41.5732H40.4634ZM37.7995 39.5859C38.3057 39.5859 38.3057 39.2062 38.3116 38.8205V35.2258H39.3476V39.0266C39.3476 39.5801 39.2853 40.5192 37.7907 40.5192C36.8258 40.5192 36.2486 40.0717 36.2486 39.0972V35.2258H37.2845V38.5997C37.2845 38.9942 37.2341 39.5859 37.7995 39.5859ZM17.9329 16.6284C17.9329 16.6284 17.4653 17.3085 15.6775 17.6912L17.9329 19.7667V16.6284ZM23.6603 25.7019C23.6603 31.219 27.1381 33.7656 31.424 33.7656C35.7188 33.7656 39.1996 31.2278 39.1996 25.7019V9.97488H23.6632C23.6632 9.97488 23.6603 20.1907 23.6603 25.7019ZM27.4048 14.5587V12.233H34.6891V15.5568H37.0925V17.9473H34.7571V19.0131H37.0925V21.6038H34.7571V29.3819H32.7503L29.9769 26.6204L27.4403 29.1464L25.6023 27.3211L29.8112 23.1318L31.9837 25.2927V14.5587H27.4048ZM17.0216 26.747L18.8774 28.3721H23.0627C22.8614 28.0424 22.9266 26.7794 22.9266 26.7794L17.0216 26.747ZM50.6901 47.5407C50.6901 47.5407 50.3527 47.894 50.2402 48.4298L51.2466 49.469C51.1902 48.8214 51.0247 48.1619 50.6901 47.5407ZM11.1167 51.7919C12.6647 46.5957 10.8088 44.5025 10.8088 44.5025C8.97077 47.0756 10.3945 50.8321 10.3945 50.8321C7.84305 47.4965 3.76139 47.5201 3.76139 47.5201C5.94873 51.7683 11.1167 51.7919 11.1167 51.7919ZM10.8592 17.3585C16.2728 17.9738 18.022 15.7923 18.022 15.7923C15.1569 14.438 11.682 16.4841 11.682 16.4841C14.5442 13.4047 13.8131 9.41257 13.8131 9.41257C9.986 12.2918 10.8592 17.3585 10.8592 17.3585ZM22.1895 55.4425C22.447 58.5955 25.9634 60.5592 25.9634 60.5592C21.8551 59.6377 18.7413 62.2638 18.7413 62.2638C23.1633 64.1185 27.1384 60.8359 27.1384 60.8359C24.9659 55.8635 22.1895 55.4425 22.1895 55.4425ZM8.39681 47.9853C10.8269 43.1394 9.36764 40.7547 9.36764 40.7547C7.10334 42.9716 7.85218 46.9195 7.85218 46.9195C5.91939 43.1924 1.89694 42.5094 1.89694 42.5094C3.31175 47.0697 8.39681 47.9853 8.39681 47.9853ZM19.3187 53.8674L18.6439 53.8615C18.6053 56.8409 21.4883 59.1873 21.4883 59.1873C17.5991 57.5681 14.0768 59.6171 14.0768 59.6171C18.1081 62.2079 22.5953 59.6583 22.5953 59.6583C21.7221 56.0372 20.1889 54.4857 19.3187 53.8674ZM9.28773 56.1167C9.28773 56.1167 10.0277 55.678 11.1051 55.519L9.91226 55.2364L9.79671 55.3866C9.86181 55.2923 9.91226 55.2364 9.91226 55.2364L4.62001 60.7741C4.62001 60.7741 4.01916 61.6397 4.58733 62.2049C4.58733 62.2049 5.12011 62.6377 5.85712 62.1402L11.0103 57.6564C10.4893 57.3885 9.34989 56.4464 9.28773 56.1167ZM6.38102 43.7694C9.62207 39.4122 8.59797 36.8127 8.59797 36.8127C5.98441 38.6085 6.03175 42.6242 6.03175 42.6242C4.77973 38.6203 0.93782 37.2513 0.93782 37.2513C1.53276 41.9912 6.38102 43.7694 6.38102 43.7694ZM9.09818 12.5892L2.83214 6.35667C2.83214 6.35667 0.212655 8.22613 2.24904 12.5892H9.09818ZM11.9308 10.3223L8.24573 6.62163C5.96367 4.35473 3.25835 5.8503 3.25835 5.8503L10.5159 13.0367C11.0014 11.1937 11.9308 10.3223 11.9308 10.3223ZM5.14379 39.9274C5.14379 40.1895 5.3569 40.4014 5.62033 40.4014C5.88376 40.4014 6.09391 40.1895 6.09391 39.9274C6.09391 39.6654 5.88364 39.4535 5.62033 39.4535C5.3569 39.4535 5.14379 39.6654 5.14379 39.9274ZM5.13195 39.2709C9.08337 35.5379 8.52988 32.8029 8.52988 32.8029C5.64105 34.1189 4.98691 38.0815 4.98691 38.0815C4.45414 33.9216 0.908219 31.9109 0.908219 31.9109C0.668475 36.6802 5.13195 39.2709 5.13195 39.2709ZM8.60092 48.4475C8.60092 48.7095 8.81403 48.9215 9.07745 48.9215C9.34088 48.9215 9.554 48.7095 9.554 48.4475C9.554 48.1855 9.34088 47.9735 9.07745 47.9735C8.81403 47.9735 8.60092 48.1855 8.60092 48.4475ZM48.4526 55.3601C48.716 55.3601 48.9291 55.1481 48.9291 54.8861C48.9291 54.6241 48.716 54.4121 48.4526 54.4121C48.1892 54.4121 47.9761 54.6241 47.9761 54.8861C47.9761 55.1481 48.1892 55.3601 48.4526 55.3601ZM50.9833 54.7448L49.308 53.3876C49.3435 53.8115 49.3996 54.259 49.4768 54.7389C49.4768 54.7389 50.0805 54.8095 50.9833 54.7448ZM55.6689 46.3601C55.6689 46.3601 56.323 42.3975 54.0084 40.2336C54.0084 40.2336 52.6054 42.6507 55.1509 47.4406C55.1509 47.4406 60.2123 46.4073 61.5176 41.8146C61.5176 41.8146 57.5099 42.5918 55.6689 46.3601ZM23.9065 59.5818C23.9065 59.3198 23.6934 59.1078 23.43 59.1078C23.1666 59.1078 22.9534 59.3198 22.9534 59.5818C22.9534 59.8438 23.1666 60.0558 23.43 60.0558C23.6934 60.0558 23.9065 59.8438 23.9065 59.5818ZM46.4459 56.7231C46.4459 56.7231 47.4789 55.4925 47.9851 53.7614L46.0493 53.732C45.7415 54.677 45.5106 55.8782 45.4544 57.4032C45.4544 57.4032 49.6367 58.784 52.9872 56.3728L51.6967 55.3394C50.2671 55.26 48.3047 55.4719 46.4459 56.7231ZM47.8548 49.0451V51.5711L59.2148 60.9419H61.485L49.9238 49.0451H47.8548ZM31.2144 59.9439V61.1245C30.6669 60.2678 28.5269 57.153 26.1087 56.9999C26.1087 56.9999 26.9315 59.782 30.5514 61.4189C30.5514 61.4189 26.008 61.7162 24.1551 64.1892C24.1551 64.1892 28.1155 64.5454 31.2144 61.4807V63.4031H32.4191V61.3423V59.9439H31.2144ZM33.2212 61.4071C36.8293 59.7467 37.6314 56.9557 37.6314 56.9557C34.8255 57.153 32.4191 61.3423 32.4191 61.3423C35.5595 64.5307 39.6353 64.1333 39.6353 64.1333C37.7646 61.6721 33.2212 61.4071 33.2212 61.4071ZM37.883 60.4208C37.883 60.4208 41.3549 58.3718 41.5355 55.2187C41.5355 55.2187 38.771 55.7045 36.7168 60.7241C36.7168 60.7241 40.7659 63.9125 45.1436 61.9576C45.1436 61.9576 41.9706 59.4022 37.883 60.4208ZM42.3258 58.9429C42.3258 58.9429 45.0222 56.6407 45.0459 53.7644L44.084 53.8027C43.2138 54.5622 41.938 56.1755 41.2306 59.4434C41.2306 59.4434 45.7799 61.884 49.7432 59.202C49.7432 59.202 46.1736 57.2354 42.3258 58.9429ZM39.9372 59.3993C39.9372 59.6613 40.1503 59.8732 40.4137 59.8732C40.6771 59.8732 40.8903 59.6613 40.8903 59.3993C40.8903 59.1372 40.6771 58.9253 40.4137 58.9253C40.1503 58.9253 39.9372 59.1372 39.9372 59.3993ZM56.7699 24.8599C56.7699 24.8599 59.2266 20.3379 56.5272 16.3899C56.5272 16.3899 54.553 19.9404 56.2697 23.7706C56.2697 23.7706 53.6414 20.7265 50.4862 21.0945C50.4862 21.0945 51.4451 23.7206 56.7699 24.8599ZM45.2146 14.2879L46.6561 12.8041C45.4277 12.5215 43.122 12.1122 41.2573 13.4959C41.2573 13.4959 42.2163 14.5764 45.2146 14.2879ZM54.8046 21.9571C55.068 21.9571 55.2811 21.7451 55.2811 21.4831C55.2811 21.224 55.068 21.0091 54.8046 21.0091C54.5412 21.0091 54.3281 21.224 54.3281 21.4831C54.3281 21.7451 54.5412 21.9571 54.8046 21.9571ZM58.0605 29.3495C58.0605 29.3495 61.269 25.3192 59.2977 20.9649C59.2977 20.9649 56.7315 24.1239 57.7556 28.1925C57.7556 28.1925 55.6985 24.7362 52.5255 24.5567C52.5255 24.5567 53.0139 27.3064 58.0605 29.3495ZM51.1255 6.65401C52.6261 7.39591 53.8367 6.61869 53.8367 6.61869C55.509 5.80319 56.7167 6.9337 56.7167 6.9337C57.8829 7.84046 57.6934 9.03279 57.6934 9.03279C57.6934 9.94839 57.427 10.0102 57.427 10.0102C56.8706 10.39 57.0097 9.74819 57.0097 9.74819C57.0263 9.73924 57.1369 9.29776 57.1369 9.29776C57.3559 7.23399 55.4941 6.93664 55.4941 6.93664C53.5169 6.59219 53.0256 8.40866 53.0256 8.40866C52.9013 8.90914 52.8894 9.35369 52.9458 9.74525L50.4773 7.28993L50.5928 9.36547L56.1071 14.8473H58.0783L56.0775 12.8571C57.1341 13.1868 58.0606 13.2221 58.0606 13.2221C60.8754 13.0514 61.1714 10.3723 61.1714 10.3723C61.9143 7.5755 59.2475 5.31448 59.2475 5.31448C57.4686 3.79536 54.7781 3.67171 54.7781 3.67171C50.951 3.23011 49.5924 0.79834 49.5924 0.79834C49.1454 1.9053 49.2609 3.54218 49.2609 3.54218C49.5154 6.06521 51.1255 6.65401 51.1255 6.65401ZM57.3828 30.1268C57.3828 30.3888 57.5959 30.6008 57.8593 30.6008C58.1198 30.6008 58.3358 30.3888 58.3358 30.1268C58.3358 29.8647 58.1196 29.6528 57.8593 29.6528C57.5959 29.6528 57.3828 29.8647 57.3828 30.1268ZM46.9374 12.439L48.1036 11.2644C47.6093 9.60688 46.6059 7.60788 44.1285 6.41849C44.1285 6.41849 44.025 9.96311 46.9374 12.439ZM49.8617 45.1914H47.8549V47.7174H49.8617V45.1914ZM51.4186 20.1671C52.3036 20.4174 53.3899 20.6058 54.7189 20.6588C54.7189 20.6588 55.3227 18.8717 55.0622 16.699L53.3248 18.3536C53.5111 18.7923 53.748 19.2339 54.044 19.6696C54.044 19.6696 53.5645 19.278 52.7979 18.8541L51.4186 20.1671ZM13.334 14.7766C13.334 15.0386 13.5471 15.2506 13.8105 15.2506C14.074 15.2506 14.2871 15.0386 14.2871 14.7766C14.2871 14.5146 14.074 14.3026 13.8105 14.3026C13.5471 14.3026 13.334 14.5146 13.334 14.7766ZM55.2694 15.3477L50.1252 10.231L45.5137 15.2123L50.4596 20.067L55.2694 15.3477ZM44.3475 15.5126L43.3115 16.7432L48.9235 22.328L50.06 21.1975L44.3475 15.5126ZM49.7611 32.8264H47.7543V35.3524H49.7611V32.8264ZM25.7418 8.71189C25.7418 8.71189 27.3194 9.74819 30.0898 7.84929C30.0898 7.84929 26.6593 6.44794 25.7418 8.71189ZM43.6194 10.4989C43.6194 10.4989 42.0595 10.0308 40.0912 10.6962L40.0886 12.4832C41.2873 12.4596 42.5038 12.1711 44.706 11.0141C44.706 11.0141 43.6641 5.97984 39.0497 4.68446C39.0497 4.68446 39.8278 8.66773 43.6194 10.4989ZM22.9273 12.7217L22.9658 10.9847C21.0212 10.4165 19.0559 10.7874 19.0559 10.7874C22.8001 8.86498 23.4868 4.86405 23.4868 4.86405C18.9019 6.26835 17.9785 11.3262 17.9785 11.3262C20.0948 12.3743 21.7403 12.6952 22.9273 12.7217ZM21.4859 13.7285C18.896 11.8973 15.1192 13.3134 15.1192 13.3134C18.4728 10.7757 18.4491 6.71584 18.4491 6.71584C14.178 8.89442 14.1543 14.0318 14.1543 14.0318C19.3785 15.5744 21.4859 13.7285 21.4859 13.7285ZM21.1899 9.916C21.1899 10.178 21.403 10.39 21.6665 10.39C21.9299 10.39 22.143 10.178 22.143 9.916C22.143 9.65398 21.9299 9.44201 21.6665 9.44201C21.403 9.44201 21.1899 9.65398 21.1899 9.916ZM22.3443 9.41552L25.9376 9.36547C24.8217 8.69717 23.5993 8.72072 23.5993 8.72072C27.6217 7.4754 28.7702 3.90724 28.7702 3.90724C24.0107 4.49899 22.22 9.32131 22.22 9.32131C22.2822 9.36841 22.2822 9.36842 22.3443 9.41552ZM41.5302 9.65693C41.5302 9.39491 41.3199 9.18294 41.0566 9.18294C40.7931 9.18294 40.58 9.39491 40.58 9.65693C40.58 9.91894 40.7931 10.1309 41.0566 10.1309C41.32 10.1309 41.5302 9.91894 41.5302 9.65693ZM39.0083 8.72072C39.0083 8.72072 37.7859 8.69717 36.6701 9.36547L40.2633 9.41552C40.3256 9.36841 40.3284 9.36841 40.3877 9.32131C40.3877 9.32131 38.5999 4.49899 33.8375 3.90724C33.8375 3.90724 34.9859 7.4754 39.0083 8.72072ZM31.2831 8.17314C31.6353 8.17314 31.9195 7.88757 31.9195 7.53723C31.9195 7.18689 31.6353 6.90426 31.2831 6.90426C30.9309 6.90426 30.6437 7.18689 30.6437 7.53723C30.6437 7.88757 30.9309 8.17314 31.2831 8.17314ZM36.8624 8.50287C35.859 6.27424 32.4848 7.80513 32.4848 7.80513C35.3263 9.59805 36.8624 8.50287 36.8624 8.50287Z" fill="#003380"/>
</g>
</g>
</g>
<defs>
<clipPath id="clip0_289_515">
<rect width="63" height="65" fill="white" transform="translate(0.125214)"/>
</clipPath>
</defs>
</svg>
