<svg width="64" height="63" viewBox="0 0 64 63" fill="none" xmlns="http://www.w3.org/2000/svg">
<g id="&#234;&#179;&#160;&#235;&#160;&#164;&#235;&#140;&#128;&#237;&#149;&#153;&#234;&#181;&#144;">
<g id="XMLID_1_">
<path id="XMLID_3_" d="M55.0472 34.0889V0H54.2363H8.20325V34.1061C8.20325 34.6069 8.1688 46.5855 16.7132 53.6964L16.6959 53.6792C16.9716 53.9204 23.3417 59.5129 31.2807 62.9311L31.4357 63H31.8676L32.0227 62.9139C39.6516 59.375 46.6246 53.7481 46.6935 53.6964C55.2195 46.5855 55.0644 34.6069 55.0472 34.0889Z" fill="#8B0029"/>
<path id="XMLID_4_" d="M53.4242 1.74365H9.91113V2.07219H53.4242V1.74365Z" fill="#D6CABC"/>
<path id="XMLID_5_" d="M53.4242 11.0474H9.91113V11.3759H53.4242V11.0474Z" fill="#D6CABC"/>
<path id="XMLID_6_" d="M53.3381 16.6211H9.82501V16.9496H53.3381V16.6211Z" fill="#D6CABC"/>
<path id="XMLID_7_" d="M18.0236 9.6309C17.7997 9.45863 17.5745 9.28514 17.0922 8.78557C17.0922 8.78557 15.073 6.55842 14.7789 6.21389C14.865 6.12775 17.1266 3.36535 17.1266 3.36535L17.2644 3.22754H17.0922H16.125L13.5878 6.36893V3.22754H13.5017H12.4312V9.8733H13.5878V6.47229L16.2456 9.42418C16.4695 9.71703 16.867 9.8733 17.4195 9.8733H18.3694L18.1454 9.71826L18.0236 9.6309Z" fill="#D6CABC"/>
<path id="XMLID_10_" d="M23.4783 3.021C22.4595 3.021 21.5969 3.34953 20.8894 4.03982C20.1819 4.71289 19.8189 5.541 19.8189 6.50814C19.8189 7.52697 20.1646 8.37231 20.8722 9.02815C21.5452 9.68399 22.3906 10.0125 23.3749 10.0125C24.3593 10.0125 25.2046 9.66676 25.9122 8.99369C26.6025 8.32063 26.9654 7.45807 26.9654 6.45647C26.9654 5.525 26.6369 4.73012 25.9811 4.07428C25.308 3.38275 24.4614 3.03822 23.4783 3.021ZM23.4266 9.14873C22.7363 9.14873 22.1494 8.85588 21.7003 8.28617C21.2684 7.75092 21.0617 7.12953 21.0617 6.42201C21.0617 5.69727 21.2856 5.07588 21.7003 4.60953C22.1322 4.14318 22.7019 3.90201 23.4094 3.90201C24.0997 3.90201 24.6866 4.19486 25.1185 4.74734C25.5332 5.26537 25.7399 5.92121 25.7399 6.66318C25.7399 7.38793 25.5332 7.99209 25.1185 8.45844C24.6866 8.90633 24.1169 9.14873 23.4266 9.14873Z" fill="#D6CABC"/>
<path id="XMLID_11_" d="M39.5297 6.68025C39.6676 6.68025 41.6695 6.68025 41.6695 6.68025V5.8177C41.6695 5.8177 39.6676 5.8177 39.5297 5.8177C39.5297 5.67988 39.5297 4.22916 39.5297 4.09135C39.9961 4.07412 42.1359 4.09135 42.1703 4.09135H42.2392V3.19434H38.3731V3.26324V9.83887H42.6367L42.6539 8.9074C42.6539 8.9074 39.6676 8.9074 39.5297 8.9074C39.5297 8.78559 39.5297 6.81807 39.5297 6.68025Z" fill="#D6CABC"/>
<path id="XMLID_14_" d="M48.7989 3.19287H47.7284L45.0189 9.85586H46.0549C46.0549 9.85586 46.9347 7.50812 46.9692 7.42199C47.0553 7.42199 49.2652 7.42199 49.3686 7.42199C49.403 7.50812 50.3 9.85586 50.3 9.85586H51.5773L48.8505 3.19287H48.7989ZM48.9883 6.54098C48.8161 6.54098 47.47 6.54098 47.2792 6.54098C47.3481 6.36871 48.0212 4.64236 48.1418 4.34951C48.2636 4.64236 48.9367 6.36871 48.9883 6.54098Z" fill="#D6CABC"/>
<path id="XMLID_15_" d="M34.3692 8.35357C34.3692 8.35357 33.2642 6.97299 32.9886 6.62723C33.2125 6.54109 33.61 6.36883 33.92 6.04029C34.2486 5.69453 34.4208 5.29832 34.4208 4.86643C34.4208 4.38285 34.2314 3.98664 33.8684 3.67533C33.4882 3.36525 32.9541 3.20898 32.2983 3.20898H30.1585H30.0896V9.87197H31.2807V9.75139C31.2462 9.52744 31.2462 9.18168 31.2462 8.38803C31.2462 8.38803 31.2462 4.15891 31.2462 4.02109C32.334 4.00387 32.7646 4.14168 32.9381 4.26227C33.1621 4.4173 33.2839 4.65971 33.2667 4.96979C33.2667 5.71176 32.7314 6.14365 31.6265 6.31592L31.5059 6.33314L33.8364 9.31949C34.112 9.66525 34.5094 9.83752 35.0447 9.83752H35.9946L35.8051 9.69971C35.3191 9.40686 34.7838 8.90605 34.3692 8.35357Z" fill="#D6CABC"/>
<path id="XMLID_16_" d="M30.1745 14.1883C30.2434 14.1883 31.1933 14.1883 31.1933 14.1883V13.7737C31.1933 13.7737 30.2434 13.7737 30.1745 13.7737C30.1745 13.7048 30.1745 13.0145 30.1745 12.9456C30.3984 12.9456 31.4173 12.9456 31.4345 12.9456H31.4689V12.5137H29.622V12.5481V15.6895H31.6412L31.6584 15.2404C31.6584 15.2404 30.2434 15.2404 30.1745 15.2404C30.1745 15.1887 30.1745 14.2572 30.1745 14.1883Z" fill="#D6CABC"/>
<path id="XMLID_17_" d="M15.0373 12.5309H14.6571V14.4812C14.6571 15.0681 14.5192 15.3782 13.8117 15.3782H13.7256C13.242 15.3782 13.0008 15.0681 13.0008 14.4812V12.5309H12.4484V14.4812C12.4484 14.7224 12.4656 14.8786 12.4828 14.982C12.5173 15.1543 12.5862 15.3105 12.7068 15.4311C12.9135 15.6551 13.2076 15.7769 13.5865 15.7769H13.9495C14.3298 15.7769 14.6226 15.6563 14.8293 15.4311C14.9499 15.3105 15.0188 15.1555 15.0533 14.9648C15.0705 14.8614 15.0877 14.7064 15.0877 14.464V12.5137H15.036V12.5309H15.0373Z" fill="#D6CABC"/>
<path id="XMLID_18_" d="M19.8189 12.5312V12.5657C19.8189 12.5657 19.8189 14.671 19.8189 14.8618C19.6983 14.7067 17.9892 12.5312 17.9892 12.5312H17.5056V15.7071H17.9203C17.9203 15.7071 17.9203 13.5156 17.9203 13.3249C18.0408 13.4799 19.7844 15.7071 19.7844 15.7071H20.2508V12.5312H20.2163H19.8189Z" fill="#D6CABC"/>
<path id="XMLID_19_" d="M22.5628 12.5312V15.7071H23.1153V12.5312H23.0808H22.5628Z" fill="#D6CABC"/>
<path id="XMLID_20_" d="M42.43 15.7071H42.9824V15.0168V13.2388V12.5657V12.5312H42.948H42.43V13.2388V15.0168V15.7071Z" fill="#D6CABC"/>
<path id="XMLID_21_" d="M27.3444 12.5312C27.3444 12.5312 26.4991 14.8445 26.4302 15.0168C26.3785 14.8445 25.5332 12.5312 25.5332 12.5312H24.9118L26.1029 15.7071H26.6037L27.8292 12.5312H27.7775H27.3444Z" fill="#D6CABC"/>
<path id="XMLID_22_" d="M39.7377 14.1013L39.3058 13.8945L38.9428 13.7223C38.6844 13.5845 38.5454 13.4294 38.5454 13.2731C38.5454 13.1353 38.6143 13.032 38.7349 12.9631C38.821 12.9114 38.976 12.8769 39.1323 12.8942C39.4079 12.8942 39.702 12.9803 39.8398 13.1009L39.8915 13.1526V12.5829H39.8743C39.6503 12.5139 39.4079 12.4795 39.1668 12.4795C38.8382 12.4795 38.5626 12.5484 38.3387 12.669C38.0803 12.824 37.9412 13.0492 37.9412 13.3248C37.9412 13.6177 38.0963 13.8601 38.3731 14.0496L38.5282 14.1357L39.1668 14.4458C39.4252 14.5836 39.5642 14.7559 39.5642 14.9294C39.5642 15.0672 39.4953 15.1705 39.3403 15.2751C39.2025 15.3613 39.0646 15.3957 38.9256 15.3957C38.5798 15.3957 38.2698 15.3096 37.9757 15.1373L37.9068 15.1029L37.9929 15.6553H38.0101C38.2685 15.7415 38.5626 15.7931 38.8727 15.7931C39.2529 15.7931 39.5974 15.6898 39.8398 15.5003C40.0638 15.3108 40.1856 15.0684 40.1856 14.7755C40.1856 14.4987 40.0306 14.292 39.7377 14.1013Z" fill="#D6CABC"/>
<path id="XMLID_23_" d="M45.0533 12.5137V12.5481V12.9283C45.0533 12.9283 45.8814 12.9283 45.9331 12.9283C45.9331 12.9972 45.9331 15.6895 45.9331 15.6895H46.4856C46.4856 15.6895 46.4856 12.9972 46.4856 12.9283C46.5545 12.9283 47.3826 12.9283 47.3826 12.9283V12.5137H45.0533Z" fill="#D6CABC"/>
<path id="XMLID_24_" d="M50.9731 12.5309C50.9731 12.5309 50.1622 13.7737 50.1106 13.8598C50.0589 13.7737 49.2652 12.5137 49.2652 12.5137H49.248H48.6266L49.766 14.3089V15.6895H50.3185V14.3089L51.5096 12.5137H50.9743V12.5309H50.9731Z" fill="#D6CABC"/>
<path id="XMLID_25_" d="M35.7842 14.9822C35.7842 14.9822 35.2662 14.3264 35.1284 14.1541C35.2317 14.1197 35.4212 14.0335 35.5775 13.8785C35.7325 13.7062 35.8187 13.5155 35.8187 13.3088C35.8187 13.0848 35.7325 12.8941 35.5603 12.7391C35.3708 12.584 35.1284 12.5151 34.8183 12.5151H33.7995H33.765V15.691H34.3347V15.6393C34.3175 15.5359 34.3175 15.3809 34.3175 15.0007C34.3175 15.0007 34.3175 12.9815 34.3175 12.9126C34.8355 12.9126 35.0422 12.9815 35.1111 13.0332C35.2145 13.1021 35.2662 13.2227 35.2662 13.3789C35.2662 13.7247 35.0078 13.9314 34.4898 14.0175H34.4381L35.543 15.4326C35.6809 15.6048 35.8716 15.6737 36.1127 15.6737H36.5619L36.4585 15.6048C36.2333 15.483 35.9922 15.2406 35.7842 14.9822Z" fill="#D6CABC"/>
<path id="XMLID_26_" d="M53.4242 34.1061C53.4242 34.1061 53.4242 34.1405 53.4242 34.175C53.4242 35.1766 53.2519 46.1191 45.6402 52.4364C45.5713 52.488 38.9428 57.8394 31.6252 61.2908C24.0652 57.9599 17.8341 52.5053 17.7652 52.4536L17.748 52.4364C9.92959 45.9296 9.84222 34.538 9.84222 34.1233C9.84222 34.1233 9.84222 26.5461 9.84222 18.7104H53.4414C53.4242 26.5461 53.4242 34.1061 53.4242 34.1061Z" fill="#D6CABC"/>
<path id="XMLID_27_" d="M27.9486 55.8545H28.5527C28.6389 55.8545 28.6044 55.7856 28.6044 55.7856C28.3633 54.7151 28.4838 53.8698 28.5355 53.6114C28.5355 53.6114 28.5527 53.5425 28.4666 53.5425H27.8797C27.7935 53.5425 27.828 53.6114 27.828 53.6114C28.0347 54.4395 27.9486 55.4928 27.8969 55.7856C27.8969 55.7684 27.8625 55.8545 27.9486 55.8545Z" fill="#8B0029"/>
<path id="XMLID_30_" d="M30.1745 53.4551C29.2246 53.5413 29.2775 54.6634 29.2775 54.6634C29.3292 55.6823 30.3824 55.8718 30.3824 55.8718C30.0896 56.6482 29.3292 56.8734 29.3292 56.8734C29.1569 56.9423 29.2775 56.994 29.2775 56.994C29.5014 57.0629 29.8472 56.9423 29.8472 56.9423C31.245 56.3209 31.2795 54.8542 31.2795 54.8542C31.3139 53.3518 30.1745 53.4551 30.1745 53.4551ZM30.5203 55.526C30.0711 55.5432 29.9505 54.8357 29.9505 54.8357C29.83 54.0593 30.14 54.0076 30.14 54.0076C30.4686 53.9042 30.6064 54.5773 30.6064 54.5773C30.7442 55.3193 30.5203 55.526 30.5203 55.526Z" fill="#8B0029"/>
<path id="XMLID_33_" d="M33.7133 54.3696C33.7133 54.3696 33.5927 53.4381 32.7117 53.4553C32.7117 53.4553 31.8492 53.4381 31.8147 54.6292C31.8147 54.6292 31.7802 55.8892 32.868 55.8375C32.868 55.8203 33.92 55.7501 33.7133 54.3696ZM32.8852 55.4228C32.4705 55.5779 32.4361 54.7325 32.4361 54.7325C32.3844 53.9217 32.7117 53.8528 32.7117 53.8528C33.0402 53.7666 33.1264 54.3536 33.1264 54.3536C33.2814 55.2678 32.8852 55.4228 32.8852 55.4228Z" fill="#8B0029"/>
<path id="XMLID_34_" d="M33.9545 56.1473C34.8687 56.3368 35.1111 55.681 35.1111 55.681C35.404 54.7667 34.2486 54.7138 34.2486 54.7138L34.4381 53.5227C34.4381 53.5227 35.5947 53.5744 35.9048 53.4194C35.9048 53.4194 35.9737 53.3677 35.9392 53.54C35.9392 53.54 35.8703 53.9374 35.4901 53.9719L34.9204 54.0235L34.8687 54.3521C34.8687 54.3521 35.8531 54.3348 35.8359 55.3881C35.8359 55.3881 35.8014 56.2162 34.8343 56.407C34.8343 56.407 34.3852 56.5103 33.8671 56.2864C33.8671 56.2864 33.781 56.2519 33.8327 56.183C33.8511 56.199 33.8856 56.1301 33.9545 56.1473Z" fill="#8B0029"/>
<path id="XMLID_35_" d="M30.5719 33.8821C30.6408 33.796 30.7442 33.8476 30.8131 33.8821C30.882 33.8993 30.882 34.0544 30.9337 34.1233C30.9509 34.175 31.106 34.3128 31.106 34.3644C31.2265 34.8997 31.106 35.6072 30.8648 36.0047C30.7959 36.1252 30.6925 36.1941 30.6064 36.1941C30.503 36.2114 30.4686 36.0563 30.4341 36.0047C30.2791 35.7979 30.3997 35.2799 30.4341 35.0375C30.4686 34.7274 30.2274 34.2266 30.3824 34.0015L30.5719 33.8821Z" fill="#8B0029"/>
<path id="XMLID_36_" d="M23.3048 34.4519C23.4426 34.4174 23.6149 34.4691 23.7022 34.4519L23.8745 34.383C24.0812 34.2452 24.272 34.2969 24.4787 34.3141C24.582 34.3313 24.8761 34.4519 24.9795 34.4519C25.1345 34.4691 25.9109 34.5553 26.723 34.6758C26.723 34.6758 27.1549 34.6242 27.0516 34.5036C27.1205 34.5897 27.0344 34.4347 26.8793 34.383L26.8276 34.3141C26.8276 34.3141 26.6898 34.1935 26.9482 34.1074C26.8449 34.1418 27.1205 34.0729 27.1722 34.004C27.2755 33.8834 27.1205 33.7628 27.1205 33.7628C26.7403 33.625 26.3096 33.8834 25.7227 33.8145C25.447 33.7973 25.0324 33.625 24.6349 33.6939C24.203 33.7801 23.5644 34.0225 23.2544 34.2636C23.2359 34.2612 23.0981 34.5208 23.3048 34.4519Z" fill="#8B0029"/>
<path id="XMLID_37_" d="M28.1725 31.3106C28.57 31.2934 28.5872 31.6908 28.5872 31.6564C28.5355 31.9492 27.828 31.9664 27.6557 32.1916C27.1549 32.8475 27.3629 33.4688 26.189 33.5205C26.189 33.5205 25.9478 33.4688 26.0512 33.3655C26.1201 33.2794 26.4142 33.2104 26.5176 33.1415C26.6726 33.0554 26.6554 32.813 26.7587 32.658C26.7759 32.6235 26.9138 32.5718 26.9482 32.5374C27.2767 32.0883 27.3112 31.6404 27.8981 31.3635C27.9141 31.3795 28.1209 31.3106 28.1725 31.3106Z" fill="#8B0029"/>
<path id="XMLID_38_" d="M31.9353 29.5496C32.0731 29.4807 32.1937 29.5496 32.2983 29.6357C32.35 29.6702 32.7819 30.7063 32.7991 30.8096C32.8508 31.1898 32.9025 32.0524 32.7991 32.328C32.6613 32.7082 32.2983 33.0183 32.3672 33.7086C32.4017 34.106 32.5911 34.4333 32.7646 34.7791C32.7819 34.8308 32.9541 35.1765 32.9714 35.2454C33.0403 35.6084 32.8335 36.0908 32.7991 36.3849C32.713 37.1268 33.0058 37.8171 32.8852 38.5246C32.8335 38.8347 32.7302 38.991 32.5751 39.1805L32.4373 39.3011C32.4029 39.37 32.334 39.4044 32.2651 39.4561L32.1789 39.5422C32.0584 39.5767 32.0411 39.6456 31.9894 39.6456C31.6609 39.7145 31.6092 39.525 31.6265 39.5767C31.2979 38.6625 31.8504 37.592 31.5748 36.7109C31.5059 36.5042 31.2647 36.3135 31.2462 36.0895C31.1429 35.2959 31.8676 34.8812 31.8676 34.346C31.8676 33.9658 31.3668 33.4834 31.2635 33.1032C31.1257 32.6713 31.0223 31.826 31.229 31.2907C31.2807 31.1529 31.453 30.9277 31.4874 30.7555C31.5735 30.4097 31.7114 30.1341 31.763 29.9101C31.7803 29.8412 31.8319 29.7379 31.8664 29.669C31.8492 29.653 31.9181 29.5668 31.9353 29.5496Z" fill="#8B0029"/>
<path id="XMLID_39_" d="M41.3767 27.6685C41.9119 27.5996 42.1531 27.8236 41.8947 28.2727L41.7914 28.376C41.7569 28.3933 41.6019 28.5828 41.5846 28.6C41.3262 28.7895 41.0838 28.9101 40.8943 29.1525C40.8254 29.2386 40.7738 29.4453 40.6876 29.5155C40.5498 29.6188 40.049 29.844 39.9112 29.8612C39.2726 29.9646 38.3928 29.326 38.2882 28.947C38.2021 28.6369 38.2882 28.3256 38.426 28.2395C38.65 28.1361 39.2197 28.1878 39.4104 28.1706C39.9112 28.1361 40.2213 28.1533 40.6015 28.0327C40.8242 27.9441 41.0838 27.703 41.3767 27.6685Z" fill="#8B0029"/>
<path id="XMLID_40_" d="M38.6155 27.4618C38.6155 27.4618 38.9256 27.5824 39.1852 27.5307C39.3747 27.479 39.7377 27.324 39.91 27.2895C40.0133 27.2723 40.1684 27.324 40.2729 27.2895C40.5658 27.2034 41.1183 26.6165 40.4624 26.5648C40.2213 26.5476 39.531 26.806 39.3058 26.8749C39.0819 26.9265 38.9428 26.961 38.7705 27.0644C38.7189 27.0988 38.4777 27.3055 38.4949 27.2711C38.5121 27.2366 38.3386 27.3744 38.6155 27.4618Z" fill="#8B0029"/>
<path id="XMLID_41_" d="M33.9717 28.5482C33.7822 28.5137 33.7822 28.2024 33.2987 28.307C32.9701 28.3759 32.8668 28.8595 32.3844 28.8595L32.1432 28.7389C31.9365 28.6872 31.7803 28.7561 31.5908 28.67C30.7282 28.2726 32.2466 26.2189 32.7474 26.2534C32.7646 26.2534 33.023 26.3395 33.0575 26.3739C33.2125 26.5118 33.2125 27.0815 33.3503 27.2882C33.4537 27.426 33.626 27.426 33.7822 27.5294C33.9373 27.6499 34.2314 28.0474 34.2658 28.2541C34.2658 28.2381 34.3519 28.5999 33.9717 28.5482Z" fill="#8B0029"/>
<path id="XMLID_45_" d="M41.0149 26.4942L41.0318 26.46C41.0149 26.5114 41.0149 26.5114 41.0149 26.4942Z" fill="#8B0029"/>
<path id="XMLID_49_" d="M30.2963 28.7043C29.9678 28.8938 29.243 29.1706 29.088 29.4979C29.0019 29.6702 29.0019 29.808 28.933 30.016C28.9157 30.0332 28.8296 30.0677 28.8124 30.1366C28.4666 30.1366 28.1565 30.1193 27.8452 30.1882C27.6041 30.2571 27.2583 30.5168 26.9999 30.5512C26.4646 30.6374 26.05 30.3962 25.5504 30.4823C25.3265 30.5168 25.1874 30.7579 24.9979 30.8453C24.8429 30.9142 24.774 30.9142 24.6522 31.0348L24.5488 31.1554C24.5316 31.2071 24.4799 31.3277 24.4454 31.3793C24.3421 31.5516 24.2904 31.7079 24.2732 31.8974C24.2387 32.0696 24.1526 32.4843 24.0492 32.6566C23.9976 32.7427 23.7736 32.9322 23.7392 33.0023C23.7219 33.054 23.6703 33.1057 23.7392 33.1746C23.653 33.0885 23.6702 33.2607 24.1194 33.2779C24.6029 33.2952 25.655 32.9679 25.655 32.9679L26.1558 32.6922C26.2592 32.6233 26.6394 32.3293 26.7255 32.2259C27.0885 31.7768 28.0716 30.1206 28.8308 30.5512L28.9686 30.6546C29.1581 30.9647 28.917 31.8285 28.7792 32.0352L28.6069 32.2419C28.4691 32.2936 28.3829 32.6393 28.3485 32.7944C28.314 33.0528 28.4002 33.2952 28.4174 33.433C28.4519 33.7431 28.4863 34.1405 28.2968 34.5379C28.2624 34.6069 28.1418 34.7447 28.1762 34.9526C28.2107 35.1938 28.5564 35.3673 28.6081 35.5568C28.6426 35.6601 28.7287 35.6774 28.6081 35.8669C28.5392 35.9702 28.2624 36.1425 28.1762 36.2298C28.0729 36.3332 28.159 36.5227 28.2279 36.5928C28.4346 36.7823 28.6081 36.7995 28.7804 37.0247C29.0043 37.3176 29.0043 37.5772 29.5051 37.6289C29.9026 37.6633 30.4723 37.6806 30.2299 37.1453L30.1093 36.9386C29.9715 36.5756 29.7119 36.2655 29.6774 35.8681C29.6257 35.3673 30.0232 35.1261 29.8669 34.7114C29.7291 34.4014 29.1249 34.4358 29.0732 34.0384C29.056 33.8144 29.28 33.3481 29.3144 33.1241C29.3661 32.8313 29.28 32.6406 29.3833 32.3994C29.4522 32.2271 29.7119 32.0192 29.7463 31.7952C29.798 31.3978 29.4879 31.1394 29.6257 30.7075C29.6946 30.4836 30.0404 30.5008 30.1782 30.3445C30.3505 30.1206 30.2471 29.8093 30.3505 29.4992C30.3677 29.4647 30.4538 29.2752 30.471 29.2408L30.54 28.8261C30.4686 28.5997 30.3135 28.7043 30.2963 28.7043ZM26.4462 31.8974C26.1004 31.9835 26.0832 31.2587 25.2551 31.5344C25.2206 31.5516 24.9795 31.7583 24.9622 31.7928C24.8589 32.0167 24.9106 32.552 24.8072 32.6209C24.8072 32.6209 24.4971 32.707 24.5488 32.2923C24.6522 31.6537 24.7727 31.5331 25.0841 31.2735C25.1357 31.2391 25.2563 31.1529 25.308 31.1357C25.6882 31.0496 26.413 31.1874 26.5335 31.3941C26.6714 31.5516 26.429 31.8974 26.4462 31.8974Z" fill="#8B0029"/>
<path id="XMLID_59_" d="M48.6783 27.0988C48.6266 26.8059 47.8157 26.8232 47.4872 26.4257C47.3666 26.2707 47.4528 26.1845 47.4872 26.0627C47.5733 25.717 48.3153 25.9249 48.4888 25.6136C48.5577 25.493 48.5749 25.0956 48.5405 25.0439C48.0741 24.4742 47.1082 24.751 46.4179 24.4742C46.0894 24.3364 45.676 24.0595 45.3302 23.9389C44.8983 23.7667 44.5538 23.7494 44.1219 23.5759C44.0185 23.5415 43.829 23.3865 43.7244 23.352C43.2409 23.1625 42.8446 23.1108 42.3611 22.9029C42.3094 22.8857 42.1544 22.7995 42.0854 22.7651C41.896 22.6789 41.827 22.6789 41.6191 22.5928C40.8771 22.3172 39.91 22.0748 38.8235 22.1437C38.3399 22.1609 37.8046 22.0748 37.0627 22.2815C36.8043 22.3504 36.4585 22.5571 36.2173 22.6445C36.0451 22.6962 35.9073 22.7306 35.751 22.7823C35.5443 22.8684 35.3536 22.989 35.0607 23.0579C34.2326 23.2474 33.1104 23.0407 32.2651 23.1785C31.5403 23.2991 31.1084 23.7654 30.5043 23.9722C30.3148 24.0411 30.2459 24.0066 30.0552 24.0755C29.9518 24.11 29.6922 24.1789 29.6233 24.2306C29.3649 24.3511 29.2086 24.4028 28.9157 24.5234C28.7779 24.5923 28.6057 24.7129 28.4666 24.7818C28.2599 24.8852 28.2427 24.9024 28.0864 25.0402L27.9486 25.1436C27.9486 25.1436 27.6557 25.402 27.6201 25.4536C27.4995 25.5742 27.3961 25.7465 27.2915 25.8683C26.9814 26.2313 26.5151 26.6792 26.1349 26.956C25.9971 27.0594 25.8937 27.0422 25.7719 27.1455C25.6341 27.2489 25.4963 27.3695 25.3572 27.4741C25.0471 27.698 24.7186 27.8543 24.3728 28.0438L24.1489 28.1988C23.8561 28.3883 23.8733 28.4744 23.562 28.6652C23.3552 28.803 23.2691 29.0109 23.0956 29.166C22.975 29.2521 22.8372 29.5634 22.7499 29.684C22.3696 30.2365 22.2318 31.0646 21.9562 31.7549C21.8701 31.9444 21.2142 32.9115 21.042 32.9632L20.9214 33.0838C20.8352 33.1699 20.8352 33.1871 20.7491 33.2733C20.5596 33.4455 20.3517 33.5489 20.1966 33.7568C20.076 33.9291 20.0071 34.1198 19.8866 34.2921C19.7143 34.585 19.4202 34.8963 19.2824 35.2063C19.2307 35.3269 19.179 35.4303 19.1446 35.5521L19.1101 35.5866C19.0412 35.6727 18.9034 36.0701 18.9034 36.0701C18.7656 36.3802 18.4543 36.5537 18.0236 37.1579C17.5228 37.1923 15.8137 36.7604 14.6583 36.2079C14.9167 36.5008 16.2284 37.3818 17.748 37.5368C17.6446 37.6919 17.6446 37.8297 17.4552 37.8826C16.851 38.0376 15.7805 37.6931 14.3654 37.2095C14.4516 37.4163 15.7116 38.141 17.5585 38.2628C17.2829 38.5914 14.7457 38.504 12.7425 37.97C12.6735 38.1767 15.228 38.7464 16.643 38.7292C16.4019 38.8498 15.7633 38.9876 15.3658 39.1438C14.7272 39.0749 13.8302 38.9543 13.6567 38.9027C13.6911 39.0405 14.3298 39.2127 14.865 39.3346C14.3642 39.5068 13.605 39.6274 13.3122 39.6803C13.5189 39.732 14.331 39.6114 15.1935 39.4047C15.9355 39.5425 17.0922 39.6975 17.7135 39.6631C17.5585 39.7492 16.9716 40.1294 16.488 40.4051C15.2969 40.5257 13.9852 40.6118 13.7096 40.6462C13.8646 40.6635 14.9179 40.6807 16.0401 40.6635C15.3498 41.0609 14.6251 41.4743 14.2793 41.6478C14.7973 41.51 15.7288 41.1643 16.6787 40.6462C17.6102 40.6118 18.4912 40.5429 18.8702 40.4051C18.7496 40.6807 17.9904 41.9936 17.2817 42.2865C17.5917 42.2348 18.5589 41.9579 19.163 40.474C19.3698 40.5601 19.6122 40.6118 19.8878 40.629C20.0428 40.8702 20.4058 41.4743 21.1133 41.5088C21.2511 41.9235 22.5628 44.0288 24.3753 43.2179C23.8401 42.9251 23.53 42.631 23.2703 41.7857C24.0812 41.734 26.2222 42.9078 26.8781 45.4623C26.3773 45.29 25.7387 44.9959 25.6698 44.7375C25.5319 45.3245 25.4458 46.0837 26.7403 47.3954C26.7575 47.671 26.7575 48.0167 26.8264 48.3268C27.0331 48.5508 27.2927 48.7243 27.5167 48.9138C27.5339 49.2767 27.4822 49.7935 28.4482 50.0704C28.7767 50.346 29.8287 50.6401 29.9838 50.8124C30.2939 50.9157 30.7602 50.933 31.106 50.9157C31.106 50.9157 31.5723 50.8296 31.6929 50.6573C31.9168 50.6401 32.2282 50.6401 33.6432 49.1389C33.9361 48.7932 33.6432 46.8429 33.7121 46.3778C33.8499 46.032 33.9188 45.7219 34.0923 45.3073C34.0923 45.3073 34.2818 44.8926 34.6448 44.7203C34.662 44.7031 34.6965 44.7031 34.7137 44.7031C35.5246 44.5136 36.5779 45.2728 37.0787 45.4967C37.2682 45.5657 37.3543 45.5312 37.5106 45.6173C37.5795 45.6518 37.6828 45.8241 37.7517 45.8585C37.924 45.9619 38.0975 45.9274 38.3042 46.0308C38.5971 46.1858 39.184 47.0496 39.702 46.945C39.8571 46.9106 39.9949 46.5476 40.1167 46.4614C40.3579 46.3064 40.6864 46.3236 40.9103 46.1686C41.1515 45.9791 41.0482 45.7539 41.0998 45.4955C41.0998 45.4783 41.2204 45.3577 41.2204 45.306C41.341 45.2888 41.6006 45.306 41.7729 45.2543C41.7901 45.2543 41.859 45.1682 41.8935 45.1338C41.9969 45.0304 41.9279 44.9098 41.8935 44.8237C41.859 44.7203 41.6179 44.617 41.5305 44.5308C41.341 44.3413 41.0297 44.0817 40.9263 43.8578C40.8747 43.7544 40.9436 43.72 40.8574 43.6166C40.7713 43.496 40.5646 43.3582 40.4944 43.2019C40.2533 42.6839 40.3566 41.5273 40.2533 41.355C40.1499 41.2 40.0466 41.2172 39.9432 41.0794C39.7365 40.7508 39.9949 39.7332 40.0121 39.3186C40.0293 38.99 39.702 39.198 39.702 39.198C39.4436 39.8538 39.4609 40.1479 39.3919 41.0794C39.3747 41.1655 39.2714 41.6663 39.2714 41.7524C39.2714 42.081 39.4609 42.6322 39.323 43.0297C39.2886 43.1502 39.013 43.4099 38.65 43.3926C38.5122 43.3926 37.8391 43.2204 37.6828 43.1515C37.6484 43.1342 37.5106 42.9792 37.4933 42.962C37.1476 42.7036 37.0787 42.9448 37.0614 43.0826C37.0442 43.2204 37.1131 43.2548 37.1303 43.3237C37.1476 43.4099 37.2854 43.6867 37.2682 43.7212C37.2682 43.7556 37.1476 44.0669 36.509 43.704C36.0254 43.4111 35.559 42.6162 35.5418 42.4956C35.4729 42.1856 35.5763 41.9604 35.6279 41.857C35.8691 41.6503 36.146 41.9432 36.3871 42.0637C36.4388 42.0982 36.5939 42.2016 36.6628 42.2188C36.8006 42.236 37.0258 42.2016 37.0602 42.2016C37.9745 42.1499 38.9416 42.4772 39.0966 41.8558C39.2 41.4756 38.821 41.2516 38.7509 41.0966C38.6647 40.9071 38.7164 40.8899 38.6647 40.6647L38.5786 40.4924C38.4925 40.3374 38.5442 40.1824 38.458 40.0089C38.3547 39.8194 38.095 39.6988 37.9745 39.5253C37.8194 39.3013 37.8194 39.0245 37.6115 38.8522C37.3014 38.5938 36.0586 38.2308 35.9196 37.938C35.6784 37.4716 35.9712 36.6435 35.8679 36.0566C35.799 35.7108 35.6956 35.5386 35.4877 35.3318C35.4015 35.2457 35.3671 35.1251 35.4015 35.0218C35.4532 34.815 35.5566 34.884 35.6255 34.4176C35.6599 34.1764 35.6083 33.8824 35.6255 33.624C35.6255 33.5895 35.7461 33.1921 35.7461 33.1404C35.7977 32.4673 35.7116 31.7598 35.5566 31.259C35.4877 31.0178 35.2637 30.8099 35.1936 30.5859C35.1247 30.3964 35.2108 30.2931 35.1247 30.1024C35.073 29.9301 34.8491 29.8267 34.7617 29.6877C34.5894 29.4465 34.6411 29.0318 34.3987 28.894C34.2092 28.7907 34.1575 28.9285 34.1575 28.894C34.0886 29.118 34.1059 29.3259 34.2092 29.6188C34.2609 29.7394 34.4848 29.9289 34.5193 30.0507C34.571 30.2746 34.4848 30.5515 34.5193 30.7754L34.6399 31.0166C34.726 31.6208 34.3987 32.4316 34.1563 32.7774C33.984 33.0013 33.466 33.2954 33.4316 33.6227C33.3971 33.8294 33.4832 33.8467 33.5521 33.9328C33.6383 34.0362 33.8807 34.1912 33.9151 34.2958C33.9496 34.3819 33.9668 34.3647 34.0013 34.4336L34.0357 34.6059C34.0702 35.0378 33.5177 35.1239 33.7945 35.6419C33.8635 35.797 34.1403 35.797 34.2781 35.8831C34.5537 36.0554 35.0718 36.5562 35.1235 36.9708C35.1407 37.1603 35.1235 38.1275 35.0718 38.2481C34.9512 38.5237 34.2609 38.6283 34.347 39.1623C34.4332 39.7492 35.97 39.577 36.4007 39.887C36.6074 40.0249 36.6418 40.3362 36.7108 40.629C36.7452 40.7841 36.5902 40.8357 36.5213 40.8702C36.3662 40.9563 36.2456 40.8874 36.0377 40.9391C35.5369 41.0425 34.7432 41.2676 34.5193 41.6638C34.2609 42.1302 34.571 42.7688 34.4504 43.3041C34.347 43.7876 33.984 44.3746 33.7084 44.7708C33.5534 45.0119 33.3454 45.2371 33.2593 45.5817C33.087 46.2892 33.2076 47.1345 33.1559 47.9811H33.1387C33.1387 47.9811 33.1732 48.413 32.8803 48.7403C32.5518 49.1033 31.3964 50.1898 30.567 50.1898C30.2569 50.1725 30.1351 50.0864 29.8078 49.844C29.6011 49.8268 29.1175 49.7062 28.8407 49.4121C28.7545 49.2571 27.8563 48.3416 28.4088 48.0832C28.944 47.842 29.8066 48.376 30.204 48.6357C30.3591 48.6357 31.5329 48.6874 32.7757 47.0656C32.724 46.2203 32.6551 45.1153 32.5518 44.9258C32.414 44.5111 31.7237 43.7692 31.5674 43.32C31.4813 42.9571 31.309 42.2495 31.4124 41.7672C31.3607 41.2147 31.0149 41.0941 30.8771 40.6622C30.8427 40.5589 30.791 40.4727 30.7737 40.4383C30.7393 40.2833 30.7048 40.1454 30.6015 39.9892C30.3775 39.6606 30.1696 39.5917 29.9801 39.2644C29.7734 38.9359 29.8078 38.5052 29.4965 38.2973C29.3243 38.1767 29.0819 38.1767 28.8924 38.0561C28.7545 37.97 28.5638 37.7633 28.4088 37.6931C28.2193 37.607 28.1676 37.5898 27.9769 37.5036C27.8735 37.4519 27.7185 37.383 27.6311 37.3314C27.5438 37.2797 27.4589 37.3314 27.39 37.2625C27.1488 37.0557 27.321 36.8822 27.2005 36.5377C27.1832 36.486 27.0971 36.486 27.0799 36.4171C26.9765 36.3827 26.8215 36.2449 26.6824 36.331C26.5102 36.4688 26.4585 36.4171 26.3367 36.7112C26.2678 36.9007 26.1472 37.4359 26.0266 37.5565C25.9232 37.6943 25.7854 37.8666 25.6119 37.9884C25.4569 38.0746 25.3019 38.0573 25.3019 38.0573L24.8527 38.1262L24.6288 38.472C24.6288 38.472 24.3876 38.4375 24.2486 38.4375C24.2141 38.5237 23.92 38.7476 23.8167 38.835C23.4365 39.0589 23.1953 38.9039 23.1781 38.8178C23.1608 38.7489 23.0402 38.5938 23.2986 38.4375C24.1957 38.1964 25.2834 37.0053 25.3695 36.7457C25.2489 36.9179 23.4192 37.9367 23.0735 38.0746C23.4365 37.212 25.6968 35.9348 25.8346 35.7785C25.2649 35.8646 23.3319 37.0213 23.0046 37.5393C22.676 38.0573 22.3143 37.9195 21.9513 37.9023C21.6055 37.8851 21.6412 38.2653 21.6227 38.4892C21.6227 38.7132 21.4505 39.1623 21.5883 39.2484C21.8295 39.4551 22.4509 38.627 22.6416 39.0762C22.7449 39.577 21.4677 39.5425 21.4849 39.9387C21.416 40.1454 22.6588 40.2143 22.8827 40.4395C22.4853 40.7324 21.5022 40.8197 21.2253 40.837C21.053 40.8542 20.8795 40.837 20.7934 40.837C20.6384 40.8025 20.4132 40.6647 20.2409 40.3534C19.8952 39.7148 20.4821 39.2657 20.4993 39.1106C20.5166 38.9384 20.4304 39.0245 20.4132 38.7649C20.396 38.4892 20.706 38.4548 20.7762 38.4019C20.8623 38.3502 20.759 38.2641 20.7762 38.0044C20.9312 37.4175 21.8984 36.7272 21.656 36.5377C21.432 36.4171 20.9657 36.9351 20.7762 37.1763C20.1203 38.0217 19.3439 37.7633 19.0843 37.7805C18.4974 37.8149 18.6007 37.1763 19.0154 37.2108C19.4817 37.1074 19.4473 36.4688 19.7918 36.5205C19.8952 37.0041 19.3771 37.0557 19.6195 37.1763C19.9653 37.3141 19.9825 36.8662 20.1031 36.6755C20.2065 36.486 20.6728 36.0886 20.6211 35.9852C20.4833 35.9335 20.1376 36.1919 19.9825 36.3138C19.6023 35.3466 20.5695 34.6219 20.6211 34.3462C20.9312 33.8454 22.7093 33.2068 22.7437 32.4476L22.7954 32.4132C22.7954 32.4132 22.8298 32.3959 22.8815 32.4821C22.8987 32.5338 22.8987 32.5854 22.916 32.6371C22.916 32.706 22.916 32.7577 22.916 32.7577V32.6888C22.9332 32.8094 22.9332 32.9127 22.9332 32.8783V32.9989C22.9504 33.0678 23.0366 33.1022 23.0538 33.1022C23.0882 33.1022 23.1916 33.0678 23.2777 32.9644C23.295 32.9472 23.3983 32.8438 23.3983 32.8266C23.5706 32.706 23.605 32.6888 23.7269 32.5165C24.0369 32.0674 23.4512 31.4288 23.6063 30.8246C23.7096 30.4272 24.0898 29.9621 24.0898 29.9621C24.1932 29.7381 24.0382 29.7381 24.0382 29.7381C23.797 29.7037 23.6407 29.9449 23.6752 29.9104C23.3823 30.186 23.2777 30.3251 23.071 30.7041C23.071 30.7041 22.8815 30.8763 22.8298 30.6351C22.7265 30.2549 23.1584 29.513 23.279 29.4268C23.5201 29.2546 23.7798 29.1857 24.0898 29.0466C24.2449 28.9777 24.4873 28.7365 24.6423 28.6836C24.7112 28.6492 24.7974 28.6492 24.8835 28.6836C24.8835 28.6836 25.0041 28.7698 24.9524 29.0466C24.9524 29.0466 24.8318 29.3751 24.8663 29.4957C24.8835 29.5819 24.8835 29.6508 25.073 29.6508C25.5049 29.6508 26.488 29.5646 26.7649 29.4096C26.8338 29.3924 26.8855 29.289 26.9544 29.2373C27.0405 29.1512 27.0233 29.0134 26.9544 28.9962L26.7649 28.9273C26.9027 28.91 25.9368 28.8928 26.0918 28.8756C25.9195 28.91 26.3158 28.4265 26.2813 28.2025C26.2641 28.0992 26.0746 28.0475 26.0401 27.9613C26.0229 27.9097 25.9195 27.8235 26.0401 27.7718L26.1779 27.7202C26.2296 27.6857 26.2813 27.634 26.333 27.5996C26.6431 27.4618 27.1783 27.5307 27.4207 27.5996C27.4552 27.6168 27.8354 27.7202 27.9732 28.0832C28.0077 28.1865 28.0421 28.3071 28.0938 28.3932C28.2833 28.6516 28.8185 28.739 29.1298 28.4277C29.1987 28.376 29.2677 28.221 29.3193 28.1521C29.6294 27.4445 29.1643 26.9437 28.5946 26.7542C28.3534 26.6681 27.9732 26.6509 27.6803 26.5648C27.4736 26.5131 27.5942 26.3408 27.6631 26.2719L27.7493 26.1858C27.8698 26.0135 28.2328 25.8572 28.3534 25.8228C28.6819 25.7022 28.992 25.5816 29.4411 25.7711C29.5101 25.7883 29.6823 25.9261 29.734 25.9434C30.0798 26.0295 30.2176 26.0467 30.5277 25.8917C30.6482 25.8228 30.631 25.8056 30.6482 25.7711C30.7688 25.4426 30.5449 25.2358 30.5449 25.2703C30.476 24.8384 31.7187 25.3737 31.9255 25.098C32.115 24.8569 31.9944 24.3733 32.2355 24.1838C32.27 24.1666 32.4078 24.0632 32.425 24.0632C32.649 24.0115 32.8569 24.1149 33.0464 24.1838L33.2359 24.2699C33.6334 24.425 33.9779 24.5111 34.1858 24.8396C34.3236 25.0464 34.2892 25.3577 34.427 25.5644C34.4787 25.6505 34.6165 25.7194 34.6854 25.8056C34.7371 25.8745 34.8404 25.9089 34.9266 25.9606C35.0299 26.0295 35.0816 26.064 35.2194 26.0984C35.3228 26.1501 35.4778 26.3051 35.5824 26.3396C35.9454 26.4946 36.3933 26.4774 36.7907 26.4602C37.0319 26.4429 37.171 26.598 37.3949 26.5291C37.5155 26.4946 37.481 26.2879 37.4121 26.2005C37.2743 26.011 37.1537 26.0627 36.9113 25.9249C36.8252 25.8732 36.7046 25.6837 36.6012 25.6321C36.3256 25.4598 35.9282 25.4253 35.7559 25.1485C35.7387 25.0968 35.7042 25.0279 35.7042 24.9762L35.6353 24.8556C35.3068 24.1826 35.1862 23.7679 35.5147 23.6473C35.7215 23.5784 36.1534 23.6129 36.3773 23.5267C36.429 23.4923 36.5151 23.3717 36.5496 23.3372C37.0331 23.1133 37.9302 22.8364 38.431 23.0961C38.586 23.165 38.431 23.5452 38.4826 23.7002C38.5171 23.7691 38.6204 23.8725 38.7583 23.9242C39.7943 24.1998 40.8464 24.1653 41.6068 24.5111C42.0559 24.7178 42.4177 25.0636 42.8151 25.4253C43.1609 25.7354 42.7462 26.0984 43.108 26.2018C42.8668 26.2362 42.6416 26.2534 42.6072 26.1329C42.5899 26.0984 42.521 25.995 42.4866 25.9606C42.211 25.7022 41.8996 25.3048 41.5194 25.1669C41.3299 25.098 41.2438 25.1497 41.0359 25.098L40.7947 25.0119C40.5363 24.943 40.5191 24.9602 40.2594 24.9085C40.1388 24.8913 39.8792 24.7535 39.7759 24.7363C39.2578 24.6674 38.965 24.8741 38.4986 24.7363C38.2747 24.6674 37.9978 24.3216 37.8256 24.2355C37.6016 24.1149 37.4109 24.0632 37.1697 23.9943C37.0664 23.9599 37.0147 23.9599 36.9458 24.0115C36.808 24.0977 36.8596 24.2183 36.9286 24.3044C36.963 24.3561 36.9975 24.4422 37.0491 24.4767C37.2214 24.5972 37.5672 24.5972 37.6533 24.7867C37.9289 25.322 37.5327 25.4942 37.4638 25.6665C37.4294 25.7699 37.3604 25.8388 37.4638 25.9594C37.5155 26.0283 37.6361 26.1144 37.705 26.1316C37.9461 26.235 38.1369 26.2005 38.378 26.3211C38.5331 26.4073 38.7066 26.7013 38.9305 26.753C39.4141 26.8564 39.5347 26.4946 39.7759 26.4429C40.1216 26.3568 40.3456 26.5463 40.743 26.4429C40.8808 26.4085 40.9497 26.2534 41.0359 26.2018C41.2598 26.0812 41.5022 26.064 41.64 26.1329C41.64 26.1329 41.7951 26.2018 41.5711 26.3224C41.4505 26.3913 41.3472 26.3913 41.2081 26.4602C41.122 26.5118 41.0359 26.6324 41.0359 26.6497C41.0014 26.7358 40.967 26.8564 40.967 26.8736C41.0014 26.9425 41.0531 26.977 41.0875 26.9942C41.5194 27.132 41.9501 26.8736 42.2959 26.8047C42.5715 26.7702 43.3147 26.8047 43.5386 26.977C43.5386 26.977 43.7453 27.0114 43.6075 27.3744C43.5214 27.5984 43.1756 27.7546 43.0551 27.9441C42.9862 28.0475 42.9 28.2542 42.8139 28.3588C42.6933 28.531 42.6588 28.5138 42.5383 28.6689L42.4521 28.7894C42.4004 28.9445 41.7791 29.4625 41.6585 29.652C41.5896 29.7554 41.5551 29.8587 41.4862 29.9805C41.3829 30.1356 41.2967 30.17 41.245 30.2562C41.0728 30.5146 40.7098 31.0326 40.4342 31.1704C40.3136 31.2221 40.1241 31.1704 39.9506 31.1359C39.83 31.1015 39.6922 30.8776 39.5876 30.8259C39.1557 30.6364 38.6906 30.6881 38.3104 30.4629C38.1209 30.3595 37.9474 30.031 37.8096 29.8587C37.7234 29.7381 37.6373 29.5486 37.4995 29.4957C37.2755 29.4268 36.7575 29.4957 36.6542 29.6852C36.4474 30.0654 36.9827 31.0486 37.0171 31.446C37.0516 31.7918 36.8966 31.9468 37.0171 32.2225C37.0688 32.3603 37.31 32.4119 37.3801 32.5325C37.7087 33.0506 37.4146 33.7753 37.5007 34.4656C37.5352 34.6723 37.6558 34.9492 37.6213 35.2592C37.5696 35.7428 36.9482 36.1563 37.2066 36.8995C37.2239 36.9339 37.3272 37.02 37.3445 37.02C37.4478 37.0717 37.5856 37.0545 37.6902 37.02C37.8969 36.9511 38.0877 36.5365 38.2944 36.4159C38.3116 36.3987 38.3805 36.3642 38.415 36.3642C38.4322 36.3298 38.5011 36.3125 38.5355 36.2953C38.6217 36.2264 38.6561 36.2264 38.7078 36.1058C38.7939 35.9163 38.7595 35.7084 38.8284 35.4327C38.8973 35.2088 39.104 34.7941 39.1385 34.5185C39.2074 33.7765 38.6721 32.327 39.0523 32.0846C39.2074 31.9985 39.3452 31.8262 39.6048 31.7746C39.7254 31.7401 40.0884 31.8607 40.2434 31.8607C40.0539 32.327 40.7787 33.5354 40.7098 34.2084C40.572 35.8486 39.5015 36.7457 38.5872 37.6082C38.4839 37.7116 38.57 37.8322 38.6561 37.9183C38.8456 38.0906 39.2775 38.0216 39.5187 37.97C39.8472 37.9011 40.0023 37.746 40.2434 37.6599C40.3296 37.6254 40.4502 37.6771 40.5363 37.6599C40.7947 37.591 41.0026 37.2452 41.1404 37.0385C41.1404 37.0385 41.4333 36.7284 41.5034 37.1419V37.1591C41.5034 37.5565 41.4345 37.9872 41.5034 38.3674C41.5723 38.8165 42.4004 40.1971 42.8323 40.2488C43.8512 40.4038 42.8151 39.1266 42.7634 39.0405C42.5912 38.6603 42.4349 37.97 42.4706 37.4704C42.4706 37.2809 42.6256 36.9179 42.6429 36.7457C42.6601 36.6595 42.6084 36.4528 42.6429 36.3827C42.729 36.2276 43.2642 36.176 43.3676 35.9508C43.402 35.8819 43.3504 35.7785 43.3676 35.7096C43.3848 35.5718 43.5054 35.2949 43.6088 35.1743C43.6777 35.0882 43.781 35.0365 43.9188 35.1743C44.0222 35.2949 44.0567 35.5546 44.2289 35.7613L44.384 35.9163C44.5562 36.0369 44.8503 35.8819 44.7814 35.8991C44.9709 35.8474 44.9537 35.6579 45.0226 35.589L45.1432 35.5373C45.5751 35.0882 44.6079 34.6748 44.5907 34.2601C44.5735 33.7938 44.694 33.2585 44.539 32.7417C44.5045 32.6211 44.2634 32.4316 44.2289 32.3098C44.16 32.017 44.3151 31.7057 44.3495 31.5162C44.4184 31.1359 44.2806 30.5318 44.4184 30.3595C44.4873 30.2734 44.6079 30.2045 44.8331 30.2389C44.9881 30.2734 45.0915 30.5146 45.1961 30.6019C45.5935 30.9305 46.0586 31.1027 46.7145 31.0166C46.8006 31.0166 46.8695 30.896 46.8867 30.8616C46.9212 30.741 46.9212 30.5859 46.8351 30.4813C46.5939 30.1528 45.6784 29.9116 45.6267 29.7566C45.5923 29.636 45.4372 29.481 45.6095 29.3936C45.5234 29.4453 46.1792 29.3764 46.4204 29.3247C46.7305 29.2558 46.7489 28.9445 46.9729 28.8411C47.2829 28.6861 47.7148 28.8239 47.8871 28.531C47.9905 28.3416 47.9043 28.0819 48.0077 27.9269C48.1283 27.7202 48.4913 27.6685 48.6808 27.495C48.7127 27.34 48.6955 27.1505 48.6783 27.0988ZM24.2719 41.2873C24.1514 41.1495 24.2547 40.8899 24.4787 40.7865C24.8761 40.597 25.0484 40.821 25.1345 40.9243C25.5319 41.5285 26.0315 42.3221 26.4117 42.6334C26.0672 42.6679 24.7727 42.2705 24.2719 41.2873ZM27.6201 47.431C27.4133 47.431 26.05 46.2916 26.2567 45.5841C26.6541 45.877 27.5511 46.5156 27.6717 46.4984C27.7935 46.5685 27.8797 47.3449 27.6201 47.431ZM29.1914 47.431C29.0191 47.276 27.7074 45.8954 28.0347 45.2568C28.3977 45.6198 29.3981 46.534 29.7611 46.6202C29.8472 46.8786 29.83 47.6045 29.1914 47.431ZM29.3292 42.1499C29.5531 42.4956 29.8817 42.7024 29.8644 43.4271C29.8472 43.5994 29.8989 43.651 30.0539 43.6338C30.1917 43.5994 30.1228 42.7368 30.5375 42.7885C30.8833 42.8402 30.6581 43.3237 30.8303 43.8762C30.8993 44.0657 31.2967 44.7732 31.1933 45.9816C31.1761 46.2916 30.5892 46.7063 30.2619 46.4651C29.9862 46.2929 29.9862 46.0849 29.83 44.8077C29.7611 44.0485 28.8456 43.7889 28.4494 43.4616C28.0519 43.1687 28.2771 43.0297 28.2082 42.5116C27.9843 41.7524 27.1033 41.4067 27.3973 40.9059C27.4835 40.7853 27.5696 40.6647 27.8637 40.7681C27.8452 41.1483 28.725 41.4251 29.3292 42.1499ZM23.0809 39.7677C23.0464 39.7677 23.0464 39.7677 23.0809 39.7677C23.167 39.7332 23.5644 39.5437 23.6678 39.5093C24.0825 39.3542 24.3064 39.5782 24.6866 39.3715C24.7727 39.3198 24.8761 39.1648 24.9622 39.0959C25.0311 39.0269 25.169 39.0442 25.2551 38.9753C25.4618 38.8375 25.8593 38.3883 26.1349 38.3367C26.2899 38.3022 26.2899 38.3539 26.376 38.3539C26.376 38.3711 26.4966 38.3367 26.4622 38.5606C26.3933 39.0097 27.4466 38.5606 28.1369 38.7156C28.6032 38.8362 29.0683 38.9913 28.9477 39.2853C28.965 39.2509 28.8099 39.3715 28.7755 39.4059C28.4469 39.6471 28.2058 39.3887 28.0335 39.3542C27.7579 39.3198 27.5499 39.4059 27.2571 39.3715L26.9113 39.2509C26.6874 39.2337 26.376 39.3542 26.2038 39.3715C25.8937 39.3887 25.7374 39.2853 25.4446 39.3198C25.3068 39.337 25.0816 39.5265 24.9782 39.561C24.8921 39.5954 24.7715 39.6299 24.6854 39.6643C24.6165 39.6816 24.4614 39.7677 24.3925 39.8021C24.0997 39.94 23.9262 39.94 23.5817 40.0433L23.3749 40.095C22.8914 40.1479 22.943 39.8366 23.0809 39.7677ZM21.9931 41.494C22.4767 41.3907 22.6145 41.5113 22.8385 42.0465C23.0107 42.375 23.3565 42.7885 23.4943 42.9964C22.9418 43.0653 22.062 42.3061 21.8196 41.8915C21.683 41.7008 21.907 41.5457 21.9931 41.494ZM15.9183 39.2152C16.5397 39.0429 17.1094 38.8522 17.3333 38.7316C17.4195 38.7316 17.5056 38.7316 17.5745 38.7144C17.609 38.8867 17.6779 39.0602 17.7812 39.2152C17.7985 39.2497 17.8329 39.2841 17.8501 39.3186C17.4539 39.3186 16.6947 39.2841 15.9183 39.2152ZM17.23 40.3202C17.5585 40.1307 17.8686 39.9227 18.1614 39.6988C18.2993 39.8538 18.4371 40.0089 18.6106 40.1479C18.4211 40.1824 17.8858 40.2513 17.23 40.3202Z" fill="#8B0029"/>
</g>
</g>
</svg>
