<svg width="63" height="63" viewBox="0 0 63 63" fill="none" xmlns="http://www.w3.org/2000/svg">
<g id="&#235;&#143;&#153;&#234;&#181;&#173;&#235;&#140;&#128;&#237;&#149;&#153;&#234;&#181;&#144;" clip-path="url(#clip0_289_1594)">
<path id="Vector" d="M58.0849 31.1311C57.0592 31.1182 55.781 31.3576 55.7713 32.6487C55.7552 33.8459 56.9427 34.1954 58.0493 34.2051C58.978 34.218 60.3273 34.0595 60.3435 32.6972C60.3564 31.4191 59.1139 31.1376 58.0881 31.1311H58.0849ZM58.0558 33.3217C57.4863 33.3153 56.4153 33.3023 56.4282 32.6552C56.4347 31.9983 57.5057 32.008 58.072 32.0145C58.6285 32.021 59.6898 32.0242 59.6834 32.6908C59.6769 33.3411 58.6156 33.3217 58.059 33.3185L58.0558 33.3217ZM7.11864 21.9643C7.50693 21.9643 7.8208 21.6504 7.8208 21.2621C7.8208 20.8738 7.50693 20.5599 7.11864 20.5599C6.73035 20.5599 6.41649 20.8738 6.41649 21.2621C6.41649 21.6504 6.73359 21.9643 7.11864 21.9643ZM12.4997 12.7909L10.6844 14.5609L11.1439 15.03L15.3439 10.9304L14.8909 10.4612L13.0659 12.2376L12.6938 11.859C12.7683 11.7846 14.0205 10.5647 14.0205 10.5647L13.5675 10.0923L10.9336 12.6615L10.4515 12.1664L13.0368 9.649L12.5773 9.17982L9.44191 12.2408L10.8365 13.6678C10.8365 13.6678 12.0532 12.4835 12.1276 12.4091L12.4965 12.7877L12.4997 12.7909ZM13.4381 13.1727C12.8977 13.7034 12.5612 14.1726 12.4253 14.6094C12.2797 15.0527 12.325 15.4054 12.5644 15.6513C12.8039 15.894 13.1533 15.949 13.6063 15.8131C14.0399 15.6901 14.5317 15.3633 15.0656 14.8424C15.5931 14.3311 15.9328 13.8425 16.072 13.4057C16.2143 12.9624 16.1658 12.6097 15.9296 12.3638H15.9263C15.6869 12.1211 15.3342 12.0661 14.8941 12.1955C14.4541 12.3282 13.9784 12.6453 13.4381 13.176V13.1727ZM15.3148 12.9656C15.4183 13.0724 15.4151 13.2569 15.2986 13.5092C15.1757 13.781 14.9459 14.0787 14.6288 14.3926C14.3052 14.7065 13.9978 14.9297 13.7196 15.0462C13.4639 15.153 13.2763 15.153 13.176 15.0462C13.121 14.9912 13.0951 14.92 13.0951 14.8327C13.0951 14.7356 13.1274 14.6256 13.1889 14.4929C13.3086 14.2211 13.5384 13.9234 13.8619 13.6096C14.1855 13.2924 14.4929 13.0757 14.7615 12.9624C15.0236 12.8524 15.2048 12.8524 15.3116 12.9624L15.3148 12.9656ZM22.9059 5.73051C22.88 5.449 22.8088 5.10601 22.6891 4.68213L22.3881 3.70493L18.1946 5.5849L18.4696 6.18675C18.4696 6.18675 21.7475 4.72096 21.8575 4.66918C21.8866 4.77273 22.071 5.44253 22.071 5.44253C22.1584 5.7661 22.2005 6.04438 22.2005 6.04438L18.4341 7.72696L18.7059 8.33529L20.932 7.33868C20.9709 7.42604 21.2815 8.12496 21.3203 8.21233L19.7122 8.9339L19.9872 9.53575L23.3427 8.03436L23.8766 9.22512L24.5949 8.90478L23.7892 7.11217L22.0451 7.89199L21.6569 7.02157L24.0707 5.94083L23.8022 5.33575L22.9156 5.73374L22.9059 5.73051ZM4.41032 41.1684L4.73066 42.2038L8.95008 40.8934L8.70092 40.0844L5.54283 41.0616L8.19938 38.4633L7.87581 37.4182L3.64992 38.7287L3.90555 39.5408L7.08305 38.5539L4.41356 41.1684H4.41032ZM8.52619 44.265L7.90817 44.5918L8.35146 45.4202L7.33544 45.967C7.23513 45.8505 7.12188 45.6952 7.00539 45.4817C6.55886 44.6468 6.89214 43.8347 7.6849 43.414C8.48413 42.9837 9.36749 43.1584 9.85609 44.0676C10.0211 44.3815 10.1635 44.8086 10.1894 45.184L10.8753 44.8831C10.7912 44.4948 10.6618 44.1065 10.4191 43.6502C9.71048 42.3268 8.52943 41.9126 7.19307 42.631C5.87612 43.3364 5.71109 44.553 6.3906 45.8117C6.61387 46.2291 6.93097 46.6142 7.26749 46.9669L9.36749 45.8441L8.52296 44.2683L8.52619 44.265ZM57.5025 34.9881C56.4767 34.8263 55.4284 34.9299 55.231 36.1465C55.0757 37.1302 55.6225 37.6965 56.5673 37.8485C57.3763 37.9747 57.9749 37.6091 58.1075 36.7872C58.1658 36.4183 58.0752 36.1271 57.8034 35.8715L57.8196 35.8618C58.4635 35.9912 59.1236 36.3601 59.0039 37.1173C58.9553 37.4117 58.8421 37.6382 58.7062 37.855L59.3986 38.0783C59.5507 37.7935 59.6478 37.5023 59.6995 37.182C59.926 35.7712 58.69 35.179 57.5057 34.9881H57.5025ZM57.483 36.4863C57.4183 36.9037 56.9977 37.0169 56.5706 36.949C56.1823 36.8875 55.8134 36.6513 55.8781 36.2468C55.9493 35.8165 56.3408 35.7 56.755 35.7647C57.1918 35.8327 57.551 36.0592 57.483 36.4831V36.4863ZM4.62388 31.6974C6.37119 31.8721 6.94068 30.7267 7.07658 29.3773L7.1963 28.1737L2.79892 27.7336L2.6792 28.9405C2.54653 30.2866 2.87982 31.5259 4.62388 31.7006V31.6974ZM3.35223 29.18L3.40077 28.6881L6.41325 28.9891L6.36471 29.4809C6.29029 30.2186 5.67226 30.8755 4.71448 30.7784C3.75347 30.6846 3.27781 29.9177 3.35223 29.18ZM5.16425 36.9716C6.49738 36.839 7.35162 35.9718 7.21248 34.5869C7.07011 33.1891 6.07997 32.5225 4.73066 32.6616C3.38783 32.7943 2.52065 33.6324 2.66302 35.0464C2.80216 36.441 3.8376 37.1076 5.16425 36.9716ZM3.35223 34.9752C3.26163 34.0724 4.02851 33.6615 4.82773 33.5773C5.60108 33.4997 6.43267 33.7812 6.51679 34.6549C6.6074 35.5285 5.847 35.9718 5.07365 36.0495C4.27766 36.1271 3.44283 35.8747 3.35223 34.9752ZM44.6727 7.70108L44.9348 7.07011L44.1777 6.75948C44.2197 6.66564 44.7892 5.30015 44.7892 5.30015L44.0871 5.01217L42.631 8.49707L43.3299 8.78829C43.3299 8.78829 43.8767 7.48428 43.9156 7.38721L44.6727 7.70108ZM49.7302 14.192C49.8046 14.1176 51.1086 12.7812 51.1086 12.7812L50.5586 12.2376L49.1769 13.6549L48.643 13.1274L50.0247 11.7166L49.4778 11.173L48.0897 12.5903L47.1254 11.6455L46.6692 12.1179L50.8659 16.2273L51.3287 15.7549L49.7302 14.1888V14.192ZM11.2248 48.3L10.678 48.7368L11.2701 49.4649L10.3738 50.1929C10.2508 50.0958 10.1085 49.9664 9.95639 49.7787C9.36425 49.0442 9.53898 48.1835 10.2411 47.6205C10.9401 47.051 11.8461 47.0575 12.4932 47.8599C12.7197 48.135 12.9365 48.5265 13.0271 48.8921L13.6451 48.465C13.4931 48.0961 13.2957 47.7402 12.9689 47.3422C12.0273 46.1741 10.7847 45.9864 9.60693 46.941C8.44854 47.8826 8.51325 49.1057 9.41602 50.2188C9.71048 50.5877 10.0988 50.9048 10.4903 51.1863L12.3411 49.6914L11.2216 48.3032L11.2248 48.3ZM40.7672 4.25824L42.6374 5.04129L42.8704 4.47504L41.0002 3.69199L40.7672 4.25824ZM52.4935 12.4997C52.4935 12.4997 51.6393 13.2989 50.51 14.0626L51.0407 14.59C52.6456 13.4898 53.5581 12.6097 53.5581 12.6097L50.2285 9.35131L49.7658 9.83344L52.4968 12.5062L52.4935 12.4997ZM55.6775 27.8824C55.6128 28.1995 55.6031 28.5069 55.6484 28.8273C55.8522 30.2445 57.208 30.4419 58.3923 30.2737C59.4213 30.128 60.392 29.7171 60.2237 28.5005C60.0814 27.5103 59.3921 27.1317 58.4408 27.2709C57.6319 27.3841 57.1692 27.9116 57.2857 28.7399C57.3374 29.112 57.5154 29.3579 57.8455 29.523L57.8325 29.5391C57.1789 29.6071 56.4444 29.4485 56.3344 28.6914C56.2891 28.3937 56.3344 28.1478 56.3958 27.9018L55.6743 27.8889L55.6775 27.8824ZM58.6997 28.1251C59.088 28.0701 59.5119 28.1866 59.5669 28.5911C59.6283 29.0214 59.2854 29.2512 58.8744 29.3094C58.4376 29.3709 58.0267 29.2641 57.9652 28.837C57.9069 28.4163 58.2758 28.1866 58.6997 28.1251ZM31.4676 6.56857V5.8923C30.5681 6.00555 29.6621 5.97966 29.6621 5.97966V3.45254H31.2444V2.77951H28.9049V6.67535C28.9049 6.67535 30.3416 6.70123 31.4676 6.5718V6.56857ZM55.616 21.9643C56.0011 21.9643 56.3149 21.6504 56.3149 21.2621C56.3149 20.8738 56.0011 20.5599 55.616 20.5599C55.231 20.5599 54.9106 20.8738 54.9106 21.2621C54.9106 21.6504 55.2245 21.9643 55.616 21.9643ZM39.625 4.74361L43.0969 6.19646L43.3331 5.62696L39.8644 4.18059L39.625 4.74684V4.74361ZM32.4869 4.99599H33.1179V7.92111H33.8589L33.8653 2.11618H33.1179V4.2906H32.4869V2.10971H31.7362V7.62666H32.4869V4.99923V4.99599ZM41.8059 10.4256L42.5274 10.7265L43.2393 9.01479L39.2108 7.3322L38.9616 7.90817L42.2783 9.29307L41.8026 10.4256H41.8059ZM40.5148 7.48428C40.9743 7.67843 41.3787 7.74638 41.725 7.68166C42.0647 7.61371 42.2945 7.44545 42.4045 7.17689C42.5145 6.91479 42.4757 6.63328 42.2847 6.3453C42.0938 6.06379 41.7735 5.82758 41.2978 5.63344C40.8481 5.44253 40.4468 5.37781 40.1103 5.43606C39.7512 5.4943 39.5214 5.65609 39.4114 5.92789C39.3693 6.02173 39.3499 6.1188 39.3499 6.21911C39.3499 6.39707 39.4179 6.58475 39.5473 6.77565C39.7479 7.0604 40.0715 7.29985 40.5148 7.48428ZM40.1621 6.24499C40.2074 6.13174 40.3077 6.06703 40.4501 6.05085C40.6086 6.0282 40.8157 6.07026 41.0746 6.17704C41.327 6.28382 41.5049 6.40354 41.5988 6.52327C41.6829 6.63975 41.6991 6.74977 41.6602 6.85978C41.6117 6.97304 41.5146 7.04099 41.3658 7.06687C41.2169 7.09276 41.0066 7.05393 40.751 6.94715C40.4986 6.84037 40.3239 6.72065 40.2268 6.59122C40.1362 6.46826 40.1168 6.35501 40.1589 6.24499H40.1621ZM31.5032 0C14.1337 0 0 14.1305 0 31.5C0 48.8695 14.1337 63 31.5032 63C48.8727 63 63 48.8663 63 31.5C63 14.1337 48.8695 0 31.5032 0ZM31.5032 62.4111C14.4573 62.4111 0.588906 48.5427 0.588906 31.5C0.588906 14.4573 14.4573 0.58567 31.5032 0.58567C48.5492 0.58567 62.4143 14.4541 62.4143 31.5C62.4143 48.5459 48.5492 62.4111 31.5032 62.4111ZM47.6367 50.0182L50.62 53.2798L51.2737 52.6812L48.2871 49.4196L47.6367 50.0182ZM44.3492 55.0465L44.3427 55.0336C44.8086 54.71 44.9186 54.1664 44.6792 53.7037C44.1162 52.6133 43.126 53.1601 42.2783 53.5937L41.4273 54.0337L43.4593 57.9619L44.2424 57.5542L43.4011 55.9234L43.6535 55.794C43.9835 55.6193 44.1485 55.6807 44.4106 55.9137L45.5173 56.8974L46.3941 56.4476L44.9704 55.2342C44.8022 55.1015 44.5659 54.9527 44.3459 55.0465H44.3492ZM43.3461 55.1695L43.084 55.3054L42.5371 54.2441L42.796 54.1082C43.1875 53.9076 43.647 53.7199 43.8929 54.1923C44.1485 54.6809 43.7279 54.9656 43.3428 55.1663L43.3461 55.1695ZM46.2356 52.6909C45.9541 52.2994 46.1935 51.9629 46.4362 51.7817C46.6886 51.6005 46.9831 51.4743 47.2775 51.4063L46.9151 50.7689C46.5915 50.8724 46.2712 51.0407 45.9638 51.2639C45.3328 51.7234 44.9283 52.4676 45.5108 53.2636C46.3715 54.4479 47.7337 53.0274 48.2256 53.7069C48.465 54.0273 48.2029 54.4317 47.9279 54.6291C47.6464 54.833 47.3002 54.9527 46.9604 54.998L47.3616 55.6937C47.779 55.5254 47.9926 55.4478 48.3809 55.1663C49.0992 54.6388 49.5005 53.8881 48.931 53.1051C48.0606 51.9079 46.6821 53.3089 46.2291 52.6909H46.2356ZM40.2236 58.4279L39.8223 57.2533L41.3173 56.7518L41.094 56.0917L39.5991 56.5932L39.2528 55.561L40.8804 55.0109L40.6604 54.3508L38.1883 55.1824L39.6023 59.3727L42.0874 58.5347L41.8641 57.8746L40.2236 58.4311V58.4279ZM53.1957 42.9707L52.7039 43.77L53.7231 45.6499L51.594 45.5593L51.0471 46.4427L54.1729 46.4783L55.6581 47.3972L56.124 46.6433L54.6388 45.7243L53.1989 42.9707H53.1957ZM51.4904 46.9669L50.963 46.5074L48.7174 49.0863L49.2384 49.5393L50.0732 48.588L52.8818 51.0374L53.4642 50.3676L50.6524 47.9182L51.4872 46.9636L51.4904 46.9669ZM36.2695 59.1365H36.2565L34.5643 55.9008L33.6227 56.0593L35.8586 60.172L36.9328 59.9875L37.6706 55.3798L36.8002 55.5254L36.2695 59.1365ZM31.5032 14.5285C22.1422 14.5285 14.5285 22.1422 14.5285 31.5C14.5285 40.8578 22.1422 48.4715 31.5032 48.4715C40.8643 48.4715 48.4715 40.8578 48.4715 31.5C48.4715 22.1422 40.861 14.5285 31.5032 14.5285ZM31.5032 47.7596C22.5337 47.7596 15.2404 40.4663 15.2404 31.5C15.2404 22.5337 22.5337 15.2371 31.5032 15.2371C40.4727 15.2371 47.7596 22.5337 47.7596 31.5C47.7596 40.4663 40.463 47.7596 31.5032 47.7596ZM50.7656 29.8627C49.8661 29.8627 49.1251 30.5972 49.1251 31.5032C49.1251 32.4092 49.8629 33.1438 50.7656 33.1438C51.6684 33.1438 52.4029 32.4125 52.4029 31.5032C52.4029 30.594 51.6684 29.8627 50.7656 29.8627ZM31.5032 16.8129C23.3977 16.8129 16.8162 23.4009 16.8162 31.4968C16.8162 39.5926 23.4009 46.1806 31.5032 46.1806C39.6055 46.1806 46.1871 39.5926 46.1871 31.4968C46.1871 23.4009 39.5958 16.8129 31.5032 16.8129ZM31.5032 45.4622C23.7924 45.4622 17.5313 39.1978 17.5313 31.4968C17.5313 23.7957 23.7924 17.5248 31.5032 17.5248C39.214 17.5248 45.4655 23.7892 45.4655 31.4968C45.4655 39.2043 39.1978 45.4622 31.5032 45.4622ZM31.5065 19.1233C24.679 19.1233 19.1233 24.6758 19.1233 31.5C19.1233 38.3242 24.6758 43.8735 31.5065 43.8735C38.3371 43.8735 43.8767 38.321 43.8767 31.5C43.8767 24.679 38.3274 19.1233 31.5065 19.1233ZM31.5065 43.1649C25.0706 43.1649 19.8384 37.9327 19.8384 31.5C19.8384 25.0673 25.0706 19.8351 31.5065 19.8351C37.9424 19.8351 43.1681 25.0673 43.1681 31.5C43.1681 37.9327 37.9359 43.1649 31.5065 43.1649ZM32.2022 56.0496L32.3866 60.4664L33.2732 60.4308L33.0855 56.0108L32.2022 56.0464V56.0496ZM53.8008 31.5C53.8008 19.2042 43.7958 9.19923 31.5 9.19923C19.2042 9.19923 9.19923 19.2042 9.19923 31.5C9.19923 43.7958 19.1977 53.8008 31.5 53.8008C43.8023 53.8008 53.8008 43.7926 53.8008 31.5ZM31.5 53.1924C19.5342 53.1924 9.80108 43.4593 9.80108 31.5C9.80108 19.5407 19.5342 9.80108 31.5 9.80108C43.4658 9.80108 53.1957 19.5342 53.1957 31.5C53.1957 43.4658 43.4658 53.1924 31.5 53.1924ZM16.7223 43.9609C16.4149 44.2683 16.2435 44.6824 16.2435 45.1193C16.2435 45.5561 16.4117 45.9703 16.7223 46.2777C17.3663 46.9119 18.4049 46.9119 19.0391 46.2777C19.353 45.967 19.5213 45.5561 19.5213 45.116C19.5213 44.6792 19.3498 44.2683 19.0391 43.9609C18.4082 43.3234 17.3663 43.3234 16.7256 43.9609H16.7223ZM45.1225 19.518C45.5626 19.518 45.9735 19.3498 46.2841 19.0391C46.9248 18.3985 46.9248 17.3598 46.2841 16.7223C45.6434 16.0849 44.6048 16.0849 43.9706 16.7223C43.6599 17.033 43.4884 17.4439 43.4884 17.8807C43.4884 18.3176 43.6599 18.7317 43.9706 19.0391C44.278 19.3498 44.6857 19.518 45.1257 19.518H45.1225ZM29.8142 60.4276L30.8917 60.5214L31.2767 56.1176L30.4322 56.0431L30.141 59.3339L28.7399 55.8911L27.6559 55.7972L27.2709 60.2011L28.1186 60.2787L28.4066 56.9621L29.8142 60.4276ZM20.094 53.2151L17.7578 54.0596L18.7123 52.4159L17.9455 51.9726L15.7322 55.8005L16.4991 56.2438L17.5248 54.4673L17.5378 54.4738L17.884 57.0462L18.8871 57.6287L18.4179 54.6582L21.0356 53.7652L20.094 53.2183V53.2151ZM31.5032 13.8716C32.4028 13.8716 33.1405 13.1371 33.1405 12.2376C33.1405 11.3381 32.4028 10.6003 31.5032 10.6003C30.6037 10.6003 29.8627 11.3348 29.8627 12.2376C29.8627 13.1404 30.6005 13.8716 31.5032 13.8716ZM25.2388 57.8649C25.0382 58.5929 24.6758 59.0039 24.0254 58.8259C23.3718 58.6447 23.2715 58.1075 23.4656 57.3795L24.1516 54.9203L23.2941 54.6841L22.5434 57.4054C22.2296 58.5508 22.7441 59.198 23.8377 59.4957C24.9314 59.7998 25.7112 59.5086 26.0251 58.3664L26.7758 55.6419L25.9216 55.4057L25.2421 57.8681L25.2388 57.8649ZM16.7223 19.0391C17.363 19.6766 18.4049 19.6766 19.0359 19.0391C19.3465 18.7317 19.518 18.3208 19.518 17.8807C19.518 17.4407 19.3498 17.0265 19.0359 16.7191C18.4017 16.0849 17.363 16.0849 16.7191 16.7191C16.4117 17.0297 16.2402 17.4374 16.2402 17.8743C16.2402 18.3111 16.4085 18.7253 16.7191 19.0359L16.7223 19.0391ZM43.9673 43.9641C43.3267 44.6015 43.3267 45.637 43.9673 46.2777C44.6048 46.9119 45.6435 46.9119 46.2809 46.2777C46.5883 45.9703 46.763 45.5561 46.763 45.1193C46.763 44.6824 46.5915 44.2715 46.2809 43.9641C45.6402 43.3234 44.6015 43.3234 43.9673 43.9641ZM16.4861 50.8659L14.8327 52.8139C14.3441 53.3866 13.8425 53.6099 13.3248 53.1698C12.8071 52.7297 12.9462 52.1991 13.4348 51.6231L15.0883 49.6784L14.4088 49.0992L12.5838 51.2542C11.8202 52.157 12.0111 52.9659 12.8783 53.6972C13.7422 54.4317 14.5706 54.4932 15.3342 53.5937L17.1624 51.4419L16.4894 50.8659H16.4861ZM31.5032 49.1251C30.5972 49.1251 29.8627 49.8629 29.8627 50.7624C29.8627 51.6619 30.6005 52.4029 31.5032 52.4029C32.406 52.4029 33.1405 51.6684 33.1405 50.7624C33.1405 49.8564 32.4028 49.1251 31.5032 49.1251ZM54.5062 39.5247L55.1048 41.0713L55.7908 40.8254L55.4348 39.9291L58.6867 40.971L58.9553 40.1265L54.7488 38.7804L54.5094 39.5279L54.5062 39.5247ZM12.2376 29.8627C11.3348 29.8627 10.6003 30.5972 10.6003 31.5032C10.6003 32.4092 11.3381 33.1438 12.2376 33.1438C13.1371 33.1438 13.8814 32.4125 13.8814 31.5032C13.8814 30.594 13.1404 29.8627 12.2376 29.8627ZM31.5032 21.4368C25.9539 21.4368 21.4336 25.9507 21.4336 31.5C21.4336 37.0493 25.9539 41.5599 31.5032 41.5599C37.0525 41.5599 41.5664 37.0461 41.5664 31.5C41.5664 25.9539 37.0493 21.4368 31.5032 21.4368ZM31.8753 22.1681C33.6485 22.2361 35.2923 22.8023 36.6804 23.7277H31.8753V22.1681ZM31.8753 26.1092H35.4703C35.5512 26.1092 36.1304 26.3099 36.1304 27.0023H31.8753V26.1092ZM31.8753 27.7498H36.1368C36.1368 28.4778 35.5414 28.6428 35.4703 28.6428H31.8753V27.7498ZM31.1247 22.1681V23.7277H26.3228C27.7077 22.8023 29.3547 22.2393 31.1247 22.1681ZM26.1416 35.3247V39.1428C23.7342 37.4505 22.1584 34.6581 22.1584 31.5C22.1584 28.6978 23.4009 26.1804 25.365 24.4655H31.1279V25.3553H27.4003C27.4003 25.3553 26.0607 25.433 26.0607 27.4035C26.0607 29.3741 27.4003 29.3871 27.4003 29.3871H31.1279V30.2801H27.7595C27.2741 30.3028 26.8923 30.4646 26.5914 30.7752C26.1448 31.2444 26.1448 31.8495 26.1448 31.9142V33.1729C26.1448 33.3832 26.3228 33.5612 26.5396 33.5612C26.7564 33.5612 26.9214 33.3864 26.9214 33.1729V31.8721C26.9214 31.83 26.9311 31.5129 27.1576 31.2864C27.3324 31.1052 27.5492 31.0308 27.8695 31.0276H31.1279V33.6938H27.7595C27.2741 33.7197 26.8923 33.8783 26.5914 34.1889C26.1448 34.6581 26.1448 35.2632 26.1448 35.3279L26.1416 35.3247ZM26.8696 26.9991C26.8696 26.3066 27.4521 26.106 27.5297 26.106H31.1247V26.9991H26.8696ZM31.1247 27.7498V28.6428H27.5297C27.4586 28.6428 26.8664 28.481 26.8664 27.7498H31.1247ZM28.9502 40.4824C28.2351 40.2786 27.5524 39.9938 26.9182 39.6347V35.2794C26.9182 35.2373 26.9279 34.9202 27.1544 34.6937C27.3291 34.5125 27.5459 34.4381 27.8663 34.4348H28.9502V40.4857V40.4824ZM33.2926 40.6669C32.7134 40.7801 32.1148 40.8416 31.5032 40.8416C30.8917 40.8416 30.2866 40.7801 29.7074 40.6669V34.4348H33.2958V40.6669H33.2926ZM36.0818 39.6379C35.4476 39.9971 34.7649 40.2818 34.0498 40.4857V34.4348H35.1337C35.4573 34.4381 35.6709 34.5157 35.8456 34.6937C36.0721 34.9202 36.0818 35.2405 36.0818 35.2794V39.6347V39.6379ZM36.8584 39.1461V35.3247C36.8584 35.2599 36.8584 34.6516 36.4119 34.1857C36.1109 33.875 35.7291 33.7133 35.2438 33.6906H31.8753V31.0243H35.1337C35.4573 31.0276 35.6709 31.1052 35.8456 31.2832C36.0721 31.5097 36.0818 31.83 36.0818 31.8689V33.1696C36.0818 33.38 36.2533 33.5579 36.4636 33.5579C36.674 33.5579 36.8584 33.3832 36.8584 33.1696V31.9109C36.8584 31.8462 36.8584 31.2379 36.4119 30.772C36.1109 30.4613 35.7291 30.2995 35.2438 30.2769H31.8753V29.3838H35.6029C35.6029 29.3838 36.9425 29.3676 36.9425 27.4003C36.9425 25.433 35.6029 25.3521 35.6029 25.3521H31.8753V24.4622H37.6414C39.6023 26.1772 40.8448 28.6914 40.8448 31.4968C40.8448 34.6549 39.269 37.4505 36.8616 39.1428L36.8584 39.1461Z" fill="#A39890"/>
</g>
<defs>
<clipPath id="clip0_289_1594">
<rect width="63" height="63" fill="white"/>
</clipPath>
</defs>
</svg>
