<svg width="67" height="63" viewBox="0 0 67 63" fill="none" xmlns="http://www.w3.org/2000/svg">
<g id="&#236;&#164;&#145;&#236;&#149;&#153;&#235;&#140;&#128;&#237;&#149;&#153;&#234;&#181;&#144;" clip-path="url(#clip0_289_1253)">
<g id="Group">
<path id="Vector" d="M12.4264 48.6594L9.09385 52.249C8.88557 52.4753 8.86086 52.5531 8.97382 52.6557C9.09385 52.7653 9.16093 52.7441 9.3798 52.5142L12.7123 48.9211L13.3937 49.5577L10.2023 52.9952L10.0258 53.1862C9.92698 53.2923 9.82108 53.3807 9.71164 53.4514C9.31979 53.7308 8.85027 53.6636 8.41252 53.2569C8.12657 52.9917 7.98183 52.684 7.98889 52.394C7.99595 52.2525 8.04538 52.1075 8.12304 51.9731C8.19012 51.86 8.26778 51.7468 8.36663 51.6442L8.54667 51.4497L11.738 48.0122L12.4264 48.6559V48.6594Z" fill="#888E91"/>
<path id="Vector_2" d="M15.7307 51.7573L16.5673 52.2843L15.367 55.163L17.0051 52.5637L17.7252 53.0199L14.5021 58.1337L13.6761 57.6103L14.8693 54.7422L13.2348 57.3309L12.5076 56.8712L15.7307 51.7573Z" fill="#888E91"/>
<path id="Vector_3" d="M20.5953 54.7031L21.4108 55.1346L18.6042 60.4889L17.7817 60.0539L20.5953 54.7031Z" fill="#888E91"/>
<path id="Vector_4" d="M23.949 56.231L24.8351 56.4608L24.2067 60.2803L25.4776 56.6306L26.3637 56.864L24.182 62.5437L23.0982 62.2572L23.949 56.231Z" fill="#888E91"/>
<path id="Vector_5" d="M29.5055 56.9453L31.253 56.9524L31.2495 57.7764L30.4269 57.7729L30.4163 59.5164L31.2424 59.5199L31.2354 60.3333L30.4128 60.3298L30.4058 62.1723H31.2283V62.9999L29.4808 62.9928L29.5055 56.9453Z" fill="#888E91"/>
<path id="Vector_6" d="M36.1212 57.384C36.4248 57.3275 36.4989 57.377 36.5554 57.6493L36.7813 58.7704C36.8343 59.0462 36.7849 59.1205 36.4848 59.1806L36.1247 57.384H36.1212ZM36.2412 62.6889L37.1485 62.5085L36.6401 59.9763C36.9437 59.9162 37.0143 59.9551 37.0708 60.231L37.3991 61.8755C37.4556 62.1584 37.5086 62.2786 37.6074 62.4165L38.497 62.2397C38.3876 62.0664 38.3593 61.9709 38.3029 61.6845L38.0063 60.2027C37.9322 59.8313 37.8157 59.6227 37.6109 59.5307C37.5297 59.4918 37.4909 59.4812 37.3497 59.4565C37.5968 59.2655 37.6745 59.1417 37.6851 58.9083C37.6851 58.7421 37.6639 58.4698 37.6215 58.2717L37.4839 57.5786C37.3674 57.0092 37.2438 56.7545 37.032 56.6131C36.799 56.4752 36.5907 56.4504 36.1318 56.5423L35.0586 56.7581L36.2447 62.6889H36.2412Z" fill="#888E91"/>
<path id="Vector_7" d="M43.1322 56.8253L43.7571 57.0162C44.276 57.1683 44.4525 57.3345 44.6926 57.8544L44.9856 58.4945L45.0985 58.735C45.1586 58.8659 45.2009 58.9967 45.2292 59.124C45.3386 59.5802 45.0915 60.0011 44.569 60.2451C44.2407 60.3972 43.8877 60.4184 43.6335 60.2982C43.5029 60.2487 43.3829 60.1461 43.2875 60.0188C43.2099 59.9162 43.1463 59.796 43.0757 59.6687L42.9663 59.4317L42.6027 58.6395L43.4429 58.254L43.8947 59.2337C43.9371 59.3221 43.9618 59.3822 43.9901 59.4176C44.043 59.513 44.1277 59.5449 44.2266 59.4989C44.3748 59.4317 44.3748 59.3504 44.2478 59.071L43.9442 58.4096C43.7924 58.0808 43.7253 58.0136 43.3934 57.9251L42.7651 57.7271C42.2214 57.5679 42.0449 57.4229 41.826 56.942L41.5719 56.3903L41.4624 56.1533C41.4095 56.0189 41.3636 55.8881 41.3353 55.7643C41.233 55.301 41.4801 54.8872 41.9919 54.6538C42.3203 54.5018 42.6662 54.4805 42.9204 54.5937C43.0475 54.6538 43.1675 54.7458 43.2593 54.8766C43.3864 55.0393 43.4005 55.0711 43.5805 55.4672L43.8877 56.1356L43.0722 56.5105L42.6803 55.6547C42.5533 55.3753 42.4897 55.3258 42.3414 55.393C42.2002 55.4566 42.2002 55.538 42.3273 55.8174L42.585 56.3797C42.7227 56.6767 42.7827 56.7192 43.1393 56.8288" fill="#888E91"/>
<path id="Vector_8" d="M46.2988 52.3902L47.0507 51.8491L50.5704 56.7614L49.822 57.3025L46.2988 52.3902Z" fill="#888E91"/>
<path id="Vector_9" d="M50.7857 50.251L50.3585 50.7178L49.7513 50.1591L51.2376 48.5464L51.8448 49.1052L51.4 49.5826L55.2338 53.1227L54.6195 53.7911L50.7857 50.251Z" fill="#888E91"/>
<path id="Vector_10" d="M53.3098 45.1828L55.0961 45.8972L53.6876 44.5887L54.1853 43.8071L56.9601 46.5161L58.8523 47.7221L58.3474 48.5178L56.4341 47.2942L52.7979 45.9856L53.3098 45.1828Z" fill="#888E91"/>
<path id="Vector_11" d="M31.6343 2.14668V1.19535C31.6343 1.09633 31.6343 1.04328 31.6272 0.986696C31.6202 0.877063 31.546 0.813405 31.4437 0.813405C31.2813 0.813405 31.246 0.884136 31.246 1.19182V4.9547C31.2424 5.26238 31.2777 5.33665 31.4401 5.33665C31.5955 5.33665 31.6308 5.27299 31.6308 4.9547V3.76996H31.4542V2.94594H32.5592V6.10054H32.0579L31.9944 5.86359C31.8673 6.07578 31.6766 6.1642 31.3766 6.1642C31.0518 6.1642 30.7164 6.02981 30.5434 5.82115C30.4446 5.72213 30.3811 5.57359 30.3458 5.42152C30.3175 5.29421 30.3069 5.15982 30.2999 5.01482V4.74958L30.3069 1.40754V1.1423C30.3175 0.997306 30.3281 0.862917 30.3528 0.735601C30.4552 0.268777 30.8506 0 31.4295 0C31.8108 0 32.1356 0.120242 32.3156 0.335972C32.4145 0.445605 32.4815 0.579993 32.5168 0.732065C32.5521 0.933648 32.5627 0.969013 32.5592 1.40401V2.14668H31.6343Z" fill="#888E91"/>
<path id="Vector_12" d="M17.4075 10.2841L16.6591 10.8216L15.1588 8.74216L14.8516 8.96496L16.352 11.048L15.6 11.5891L12.0663 6.68389L12.8147 6.1428L14.3715 8.30363L14.6822 8.08083L13.1253 5.92353L13.8702 5.37891L17.4075 10.2841Z" fill="#888E91"/>
<path id="Vector_13" d="M26.7449 6.42614L25.7776 6.61358L24.6797 3.69239L25.2622 6.7126L24.4256 6.87528L23.2818 0.937422L24.242 0.749985L25.3364 3.65703L24.7574 0.650962L25.6011 0.488281L26.7449 6.42614Z" fill="#888E91"/>
<path id="Vector_14" d="M45.4939 9.98001L44.6537 9.46721L45.7975 6.56724L44.2054 9.19136L43.4781 8.74929L46.6165 3.58594L47.4532 4.0952L46.3094 6.98456L47.905 4.36751L48.6358 4.81665L45.4939 9.98001Z" fill="#888E91"/>
<path id="Vector_15" d="M12.5393 12.5194L12.7264 12.6998C12.8217 12.8094 12.9135 12.9084 12.9841 13.0145C13.256 13.4142 13.1748 13.8916 12.7653 14.3125C12.497 14.5918 12.1828 14.7404 11.8968 14.7192C11.7486 14.7156 11.6073 14.6661 11.4732 14.5848C11.3638 14.5176 11.2579 14.4292 11.1449 14.3337L10.9578 14.1498L8.5537 11.8263L8.3666 11.6459C8.26776 11.5398 8.17597 11.4372 8.10184 11.3276C7.83354 10.928 7.92179 10.4576 8.3313 10.0368C8.5996 9.75385 8.91026 9.60531 9.19267 9.623C9.34094 9.623 9.48215 9.67605 9.6163 9.75739C9.72574 9.82458 9.82811 9.91299 9.94108 10.0085L10.1317 10.1924L10.8236 10.8573L10.1705 11.5363L9.33035 10.7229C9.25975 10.6521 9.22091 10.6168 9.17502 10.5849C9.0903 10.5177 8.99145 10.5248 8.92438 10.5955C8.81141 10.7123 8.83965 10.7901 9.06206 11.0023L11.7662 13.6158C11.9886 13.8279 12.0627 13.8527 12.1792 13.736C12.2887 13.6264 12.2675 13.5556 12.0345 13.3328L11.1378 12.4628L11.7909 11.7838L12.5393 12.5088V12.5194Z" fill="#888E91"/>
<path id="Vector_16" d="M18.0359 2.89657L20.0022 7.39152C20.1258 7.67445 20.1858 7.72396 20.327 7.66384C20.4788 7.59664 20.4858 7.52591 20.3588 7.23591L18.3924 2.7445L19.2467 2.36963L21.1283 6.67007L21.2342 6.91055C21.2943 7.04494 21.3331 7.17579 21.3578 7.30311C21.4531 7.77347 21.206 8.18017 20.6588 8.42066C20.3023 8.57626 19.9598 8.59041 19.7021 8.46663C19.575 8.40297 19.4621 8.30041 19.3668 8.17664C19.2926 8.07054 19.222 7.95737 19.162 7.82298L19.0561 7.57896L17.1745 3.27852L18.0359 2.90011V2.89657Z" fill="#888E91"/>
<path id="Vector_17" d="M40.4986 5.07157L41.4024 3.05574L40.8658 5.20242L40.4986 5.07157ZM38.7547 6.7585L39.6161 7.06618L40.1809 5.80717L40.6752 5.984L40.3363 7.32788L41.2082 7.6391L42.5603 1.70124L41.3741 1.27686L38.7512 6.7585H38.7547Z" fill="#888E91"/>
<path id="Vector_18" d="M51.1387 9.48492L51.7671 8.77407C51.8342 8.69981 51.8695 8.65737 51.8977 8.61139C51.9648 8.52298 51.9507 8.42749 51.8765 8.36384C51.7565 8.2542 51.6824 8.28603 51.4776 8.51591L48.9782 11.3275C48.7735 11.5573 48.7523 11.6351 48.8759 11.7448C48.9888 11.8473 49.0594 11.8226 49.2712 11.5856L50.0585 10.698L49.9208 10.5777L50.4715 9.96235L51.2941 10.698L49.2006 13.0533L48.8264 12.7209L48.9359 12.5016C48.7029 12.5723 48.5017 12.5157 48.2828 12.3142C48.0357 12.0984 47.8768 11.7731 47.8874 11.5008C47.8803 11.3593 47.9298 11.2108 48.0039 11.0693C48.0674 10.9561 48.1522 10.85 48.2404 10.7333L48.4169 10.5353L50.6374 8.03847L50.8104 7.84396C50.9128 7.7414 51.0081 7.64592 51.114 7.56811C51.4988 7.28873 51.9719 7.35238 52.4096 7.73787C52.692 7.9925 52.8579 8.29664 52.8473 8.57957C52.8473 8.7281 52.805 8.8731 52.7308 9.01102C52.6249 9.18431 52.6073 9.21968 52.3213 9.54151L51.8271 10.0967L51.1387 9.48138V9.48492Z" fill="#888E91"/>
<path id="Vector_19" d="M7.73118 16.7278C7.73118 17.0849 7.4417 17.3749 7.08515 17.3749C6.7286 17.3749 6.43912 17.0849 6.43912 16.7278C6.43912 16.3706 6.7286 16.0806 7.08515 16.0806C7.4417 16.0806 7.73118 16.3706 7.73118 16.7278Z" fill="#888E91"/>
<path id="Vector_20" d="M7.73118 46.5339C7.73118 46.8911 7.4417 47.1811 7.08515 47.1811C6.7286 47.1811 6.43912 46.8911 6.43912 46.5339C6.43912 46.1767 6.7286 45.8867 7.08515 45.8867C7.4417 45.8867 7.73118 46.1767 7.73118 46.5339Z" fill="#888E91"/>
<path id="Vector_21" d="M36.1635 3.55416L35.2704 3.40209L35.3975 2.65234L37.5297 3.03075L37.4062 3.7805L36.1635 3.55416Z" fill="#888E91"/>
<g id="Group_2">
<path id="Vector_22" d="M2.92301 41.597L3.06775 41.9896L2.43937 42.2195C2.23462 41.9189 1.98398 41.8375 1.54623 41.9118L1.29205 41.2151L6.95452 39.125L7.27577 39.9915L2.92654 41.597H2.92301Z" fill="#888E91"/>
<path id="Vector_23" d="M1.18968 34.6934L2.59118 34.651C2.91949 34.6404 2.98303 34.6686 2.99009 34.8313C2.99009 34.941 2.93008 35.0046 2.82417 35.0294C2.77122 35.0294 2.71474 35.04 2.6053 35.0435L1.2038 35.086C1.01317 35.093 0.949629 35.086 0.903736 35.0612C0.857843 35.0258 0.819011 34.9657 0.819011 34.9021C0.815481 34.7465 0.886085 34.7111 1.19321 34.7005L1.18968 34.6934ZM4.1939 35.91L4.77285 35.8923C5.21766 35.8817 5.2459 35.8781 5.4436 35.8286C5.5954 35.7897 5.74013 35.719 5.84604 35.6164C6.04726 35.429 6.16729 35.1072 6.1567 34.7288C6.13905 34.1382 5.84957 33.7491 5.38005 33.6713C5.25296 33.6466 5.11882 33.6324 4.97408 33.6395L4.70931 33.6466L1.36972 33.7456L1.10849 33.7527C0.96375 33.7562 0.829602 33.781 0.702514 33.8128C0.550714 33.8517 0.416566 33.9189 0.31066 34.0144C0.0988466 34.2089 -0.00705995 34.5307 0.0035307 34.9197C0.0176516 35.5174 0.296539 35.8994 0.766058 35.9842C0.896676 36.009 1.03435 36.0231 1.17909 36.0196L1.44033 36.0125L2.95126 35.9666C3.53375 35.9489 3.8197 35.6518 3.80558 35.1001C3.79851 34.9091 3.76674 34.7712 3.67143 34.6227L4.94584 34.5838C5.14706 34.5838 5.20001 34.5802 5.2459 34.605C5.29886 34.6404 5.33063 34.6934 5.33063 34.7641C5.33416 34.9162 5.26356 34.9657 4.95643 34.9763L4.16919 34.9975L4.19743 35.9135L4.1939 35.91Z" fill="#888E91"/>
<path id="Vector_24" d="M1.36972 28.7696L1.30971 29.1799L0.646029 29.0773C0.610727 28.7166 0.430686 28.5221 0.0105896 28.3771L0.123557 27.645L6.08962 28.5504L5.95195 29.4663L1.36972 28.7732V28.7696Z" fill="#888E91"/>
<path id="Vector_25" d="M6.01196 23.0583L4.68107 22.6233C4.37041 22.5208 4.31745 22.4748 4.36688 22.3192C4.40218 22.2166 4.47984 22.1742 4.58928 22.1919C4.6387 22.2096 4.69519 22.2166 4.80109 22.252L6.13551 22.687C6.31556 22.7436 6.37204 22.7719 6.40734 22.8143C6.43911 22.8638 6.45323 22.9345 6.43205 22.9947C6.38263 23.1432 6.30497 23.1538 6.01196 23.0583ZM3.38547 20.8268L3.04304 20.7171C2.61942 20.5792 2.59471 20.5686 2.38995 20.5509C2.23462 20.5368 2.07576 20.5509 1.94162 20.6146C1.68744 20.7242 1.46857 20.9859 1.35207 21.3466C1.17203 21.9089 1.31324 22.3758 1.72627 22.6056C1.83924 22.6693 1.95927 22.7294 2.09695 22.7754L2.34759 22.8567L5.52479 23.8929L5.7719 23.9743C5.90958 24.0203 6.04373 24.0415 6.17435 24.0556C6.32968 24.0698 6.47795 24.0521 6.61209 23.999C6.87686 23.8894 7.08514 23.6206 7.2087 23.2493C7.3958 22.6834 7.26518 22.2272 6.84862 21.9903C6.73565 21.9231 6.61209 21.863 6.47442 21.8205L6.2273 21.7392L4.7905 21.2724C4.23979 21.092 3.86558 21.2724 3.6926 21.7993C3.63259 21.9832 3.61847 22.1211 3.6573 22.2944L2.44291 21.8983C2.25228 21.8347 2.19932 21.817 2.16755 21.7746C2.12872 21.725 2.11813 21.6649 2.13931 21.5942C2.18873 21.4492 2.26993 21.428 2.56293 21.5199L3.10306 21.6968L3.38547 20.8232V20.8268Z" fill="#888E91"/>
</g>
</g>
<g id="Group_3">
<path id="Vector_26" d="M22.3463 40.5286C22.4945 40.4578 22.6428 40.3871 22.7875 40.3164C23.3135 40.281 23.6242 40.0547 24.0796 39.8884C24.2102 39.8389 24.3479 39.7965 24.482 39.7505H24.5491C24.4044 40.8044 23.656 41.8512 24.1043 42.8415C24.1961 42.9794 24.2914 43.1208 24.3832 43.2658C24.5279 43.3189 24.6727 43.3719 24.8245 43.425C24.9869 43.5028 25.1104 43.6655 25.2834 43.7291C25.3893 43.7221 25.3928 43.7928 25.4634 43.8352C25.767 44.0333 26 43.913 26.3036 43.6655L26.3142 43.5983C26.5861 43.5806 26.7061 43.6832 26.9956 43.5558C27.0238 43.3401 26.9497 43.2057 27.0097 42.9688C26.9073 42.9758 27.2321 42.7813 27.3168 42.6894C27.4404 42.6823 27.3168 42.4524 27.2956 42.364C27.2038 42.3711 27.2215 42.3923 27.2356 42.3039L27.3274 42.2721C27.5392 41.9078 27.7546 41.5365 27.9628 41.1722C28.1958 40.8822 28.4359 40.5993 28.6724 40.3128C28.736 40.1678 28.7466 40.0617 28.7112 39.9344C29.1313 39.9097 29.262 38.9406 29.2231 38.6683C29.3749 38.6613 30.081 37.9186 30.3069 37.7701C30.5293 37.6675 30.7588 37.5685 30.9812 37.4624L31.0094 37.4447C31.1189 37.4376 31.0871 37.2749 31.1153 37.1794C31.1294 37.0733 31.0836 37.1193 30.9882 37.1229L30.9988 37.0592C31.1294 37.0663 31.2601 37.0804 31.3907 37.091C31.6802 36.9885 31.9661 36.8859 32.2521 36.7834C32.2626 36.6949 32.4039 36.5995 32.3615 36.5535C32.5592 36.5358 32.7604 36.5217 32.9581 36.5075C33.3252 36.4262 34.3561 35.9346 34.635 35.6517C34.6773 35.6517 34.7267 35.6481 34.7691 35.6446C34.7585 35.733 34.7409 35.7118 34.8291 35.7082C34.8432 35.6057 34.9774 35.5986 35.0515 35.5632C35.0656 35.4784 35.0409 35.4996 35.1292 35.4925L35.1186 35.5597C35.2704 35.5491 35.1963 36.9496 35.4257 37.229H35.4928C35.4575 37.3103 35.4257 37.4023 35.3904 37.4907C35.3763 37.4907 35.3904 37.7524 35.3339 37.8868H35.4045C35.3728 38.106 36.0576 37.8054 36.1635 37.7701L36.1741 37.7029C36.1741 37.7488 36.1706 37.7983 36.1706 37.8443C36.1282 38.0494 35.9941 38.2015 35.8282 38.3324C35.0515 38.9548 35.4045 39.8071 35.4963 40.4826C35.5104 40.7054 35.521 40.9353 35.5316 41.1651C35.5916 41.3031 35.6481 41.441 35.7081 41.5789C35.687 41.7204 35.6658 41.8689 35.6446 42.0139C35.6199 42.3499 35.6764 42.6434 35.7858 42.9157L35.7752 42.9794C35.8458 42.9758 35.9941 42.5621 36.2589 42.4277L36.2412 42.4737C36.16 42.6469 36.0788 42.8202 35.9976 42.99C35.8741 43.4356 35.9376 44.2172 36.2483 44.447C36.2024 44.7759 36.1388 45.0341 36.4883 45.1437C36.4989 45.0766 36.506 45.0129 36.5166 44.9492C36.5377 44.7866 36.6931 44.6203 36.7707 44.4753C36.8449 44.2738 36.9261 44.0757 37.0037 43.8777C37.1485 43.8706 36.8943 43.6443 36.8449 43.5664C36.7496 43.5735 36.8272 43.3472 36.8237 43.2411C36.9119 43.234 37.0037 43.2305 37.0955 43.2234C37.1555 42.7743 37.0532 42.4454 36.8413 42.1377C36.746 42.1448 36.8696 42.0917 36.9155 42.0669L36.9261 41.9998C37.0249 41.9962 36.9472 42.0139 36.9861 42.0634L36.979 42.1271C37.0673 42.12 37.0567 42.1235 37.0814 42.0457C37.2897 41.441 37.5156 40.8398 37.7768 40.2562C37.8863 40.2492 37.8439 40.1961 37.8404 40.1148C37.8686 39.8955 37.9004 39.6798 37.9286 39.4676C37.9745 38.9406 37.9745 38.3253 38.1793 37.8231C38.0946 37.8266 38.0628 37.2608 37.9392 37.1229C37.9534 37.0203 38.0275 36.9849 38.1016 36.9177C38.1299 36.7232 38.1546 36.5217 38.1828 36.3271C38.204 36.1786 38.3911 36.0195 38.5076 35.9169C38.5358 35.6941 38.497 35.5102 38.5288 35.2662C38.4158 35.2733 38.3946 35.2202 38.3452 35.1495C38.257 35.153 38.2746 35.1742 38.2852 35.0893C38.4193 35.0787 38.5429 34.8878 38.5923 34.7852C38.6417 34.5942 38.6947 34.4033 38.7441 34.2158C39.1466 33.3883 39.6479 33.2468 40.3963 32.826C40.5057 32.7446 40.6151 32.6668 40.7246 32.589C40.7422 32.4688 40.5763 32.49 40.4739 32.4794L40.4845 32.4086C40.6857 32.3945 41.6671 31.5351 41.8225 31.3335C41.8754 31.1992 41.9284 31.0648 41.9813 30.9339C42.1437 30.8703 42.3202 30.9481 42.4332 30.987L42.4438 30.9233C42.5921 30.849 42.7368 30.7748 42.8815 30.697C42.8957 30.5979 42.9345 30.6298 43.0298 30.6227C43.0439 30.5166 42.931 30.5272 42.8427 30.506C42.8604 30.3893 42.9698 30.3964 43.0651 30.3645L43.0757 30.2973C43.0157 30.3009 42.9627 30.2973 42.9486 30.2407C43.0016 29.8517 43.2275 29.8199 43.5382 29.8729C43.5452 29.827 43.923 29.2576 43.9688 29.201C44.0642 29.1939 44.0783 29.0065 44.1383 28.9287C44.1206 29.0419 44.2724 28.9428 44.3466 28.9145C44.3289 29.0419 44.516 28.7766 44.576 28.7059C44.4737 28.713 44.4595 28.6422 44.3925 28.5892L44.4031 28.522C44.516 28.4937 44.6361 28.4654 44.7526 28.4371L44.7631 28.3735C45.3986 28.331 45.7375 27.8783 46.3306 27.751C46.3482 27.6096 46.4541 27.5565 46.5706 27.4752C46.5812 27.4115 46.5918 27.3408 46.5989 27.2771C46.5494 27.2771 46.5071 27.2807 46.4612 27.2842C46.4471 27.4044 46.2458 27.4929 46.1541 27.5671C46.0693 27.5707 45.9317 27.4257 45.8399 27.3938L45.8505 27.3231C46.1046 27.3054 46.1505 26.9871 46.4223 27.0932L46.4894 27.0861C46.5 27.0119 46.4824 27.0013 46.44 26.9588C46.4647 26.7962 46.4153 26.881 46.4012 26.7679C46.4153 26.6724 45.7022 26.9765 45.5574 27.0154C45.5716 26.9093 45.6598 27.072 45.5786 27.0225L45.5857 26.9588C45.7975 26.9447 45.914 26.6405 46.0199 26.4991C46.034 26.4036 45.9493 26.4071 45.8716 26.3895C45.4515 26.294 43.9724 26.8916 43.517 27.0579C43.1675 27.1816 42.818 27.3054 42.472 27.4363C42.239 27.5636 42.0025 27.6944 41.7731 27.8253C40.9999 28.1754 40.1986 28.3947 39.4431 28.7802L39.4537 28.7165C39.376 28.72 39.376 28.7059 39.3266 28.6599C39.3619 28.4017 39.4078 28.2072 39.2807 28.0127C39.3195 27.9031 39.3654 27.7899 39.4043 27.6803C39.4784 27.1109 39.5561 26.5486 39.6302 25.9792C39.5137 25.9863 39.6761 25.8554 39.7255 25.7776C39.8456 25.7706 39.7502 25.6645 39.7255 25.5937C39.5102 25.0526 39.782 24.3878 39.7396 23.7583C39.7185 23.3905 39.5525 23.1995 39.7361 22.7857C39.6373 22.7928 39.662 22.7468 39.6443 22.6832C39.4784 22.1562 39.2525 22.3436 38.8077 22.1951C38.8147 22.1527 38.8218 22.1067 38.8253 22.0643C38.9206 22.0572 39.0407 21.9582 39.1148 21.9157C39.1536 21.6469 38.6876 21.4666 38.5147 21.3711C38.5041 21.4418 38.0663 21.5126 37.9604 21.5585C37.6992 21.6752 37.4168 21.7743 37.1238 21.7566C36.9296 21.746 36.7601 21.6434 36.5307 21.6965C35.9164 21.845 34.5785 23.1111 34.0242 23.6133H34.0948C34.0772 23.7229 34.2502 23.7123 34.3455 23.7229C34.3384 23.7653 34.3349 23.8113 34.3278 23.8537C34.2396 23.8608 34.2643 23.8361 34.2502 23.9209C34.0666 23.9351 33.6253 24.119 33.4735 24.2498C33.1699 24.5257 33.0569 24.9784 32.8098 25.3002C32.6686 25.4806 32.3791 25.5301 32.2838 25.7706C32.2838 25.8271 32.2838 25.8802 32.2838 25.9368L32.2768 26.0004C31.6096 26.0429 30.3422 29.1444 29.6962 29.544C29.6856 29.5865 29.6821 29.6325 29.675 29.6749H29.6079C29.5762 30.1134 29.3184 30.2903 29.1384 30.6439C29.0325 30.8632 28.9972 31.0329 28.8525 31.2239C28.969 31.2168 28.8842 31.284 28.8348 31.3512C28.9301 31.3477 28.7713 31.5104 28.743 31.62C28.6548 31.9737 28.3547 32.2106 28.1923 32.5254C27.8358 33.2114 27.451 33.802 27.2391 34.573C26.8367 34.5978 26.9956 35.0611 27.158 35.1672L27.1474 35.2308C26.7026 35.2591 26.6531 35.7224 26.632 36.0442H26.5649C26.579 35.9487 26.5366 35.9876 26.466 36.0089C25.8871 36.2069 25.3928 36.3625 24.9092 36.8046C24.7856 36.8116 24.9092 36.8895 24.9586 36.9284L24.9516 36.9955C24.5279 37.0238 24.3055 37.0698 23.8996 37.328C23.5465 37.5579 23.0982 38.1131 22.6499 38.053L22.5793 38.06L22.5687 38.1237C22.4592 38.1308 22.4981 38.2404 22.4734 38.3253C22.4592 38.4349 22.2086 38.5905 22.138 38.6966C22.0321 38.8593 21.8626 38.9619 21.7355 39.1175C21.5131 39.4075 21.3119 39.7293 21.2519 40.0865C21.2095 40.3553 22.1133 40.5781 22.3639 40.5321L22.3463 40.5286ZM39.6337 28.7589L39.6267 28.8226C39.7185 28.8155 39.6973 28.7978 39.6867 28.8863L39.6267 28.8226C39.5596 28.8261 39.5843 28.8084 39.6337 28.7589ZM33.5123 30.1948C33.5123 30.1948 34.8821 28.3841 35.0374 28.1931C34.8856 28.2285 34.9668 28.0764 34.9809 27.9526C35.1045 27.9278 36.0506 26.5168 36.3789 26.2338L36.3895 26.149C36.3895 26.149 36.6472 26.9164 36.7954 27.072C36.5836 27.652 36.3683 28.2391 36.1565 28.8155C36.0612 29.3 36.1494 29.7775 36.0047 30.2443C35.8564 30.7217 35.2739 31.3052 34.7585 31.4538C34.4973 31.5351 34.2925 31.528 34.0419 31.6518C33.5441 31.9595 33.0499 32.2707 32.5592 32.5819C31.8884 32.2743 33.4276 30.8066 33.5123 30.1983V30.1948Z" fill="#006DB5"/>
<path id="Vector_27" d="M66.2339 26.8809C65.8562 26.8597 65.5173 27.1178 65.2172 27.3442L64.9278 27.5599L63.6781 28.2955L62.4848 28.9957C61.7965 29.3176 61.2175 29.5404 60.6562 29.6924L60.282 29.8304C60.1867 29.8763 60.0984 29.9223 59.929 29.9612L59.9043 29.9683L59.8972 29.9824L59.8301 29.9365L59.7666 29.887C59.576 29.7702 59.523 29.4767 59.523 29.1337C59.523 28.9179 59.5442 28.6845 59.5618 28.4653C59.5795 28.2425 59.6007 28.0232 59.6007 27.8322C59.6007 27.7403 59.5901 27.6589 59.5795 27.5811C59.8195 27.4962 59.8548 26.9693 59.8831 26.4919C59.8972 26.2867 59.9078 26.0922 59.936 26.0144C59.9819 25.8977 60.1125 25.7881 60.229 25.6926L60.2573 25.6679L60.2679 25.6219C60.2679 25.6219 60.2573 25.3283 60.2537 25.2859C60.4514 25.0596 60.7339 24.1118 60.7374 24.1012C60.7515 24.0481 60.7586 23.9986 60.7586 23.9456C60.7586 23.8854 60.748 23.8288 60.7374 23.7723C60.8045 23.7369 60.8292 23.6626 60.8468 23.6131L60.8609 23.5707L60.868 23.5318L60.8821 23.5247L61.0198 23.4646L60.9845 23.408C60.9845 23.408 61.1081 23.1392 61.1328 23.0826L61.1999 23.0402L61.214 22.9907L61.1963 22.9412C61.281 22.8917 61.3552 22.7856 61.4223 22.6865L61.5105 22.5698L61.8 22.2869C61.9871 22.1101 62.1636 21.9439 62.3154 21.7317L62.4637 21.3568L62.5343 21.1729L62.6296 21.0491C62.7496 20.8971 62.8873 20.7238 62.8873 20.4974L62.8802 20.4161C62.8308 20.0695 62.5272 19.9387 62.2801 19.8361L62.2271 19.8149L62.2342 19.7477H62.1565L62.1071 19.7441C62.0294 19.7441 61.9659 19.7371 61.92 19.73C61.9977 19.638 62.0365 19.493 62.0577 19.3869C62.1036 19.3763 62.1424 19.3551 62.1707 19.3198L62.2624 19.2207L62.1071 19.196L62.0965 19.1606L62.0718 19.0722H62.0189L61.7965 19.0581L61.7153 19.2809C61.6517 19.2632 61.6058 19.2278 61.5599 19.1394L61.5423 19.104L61.4717 19.097V19.0899V19.0828L61.4823 19.0262L61.3728 18.9802L61.4081 18.9201L61.3093 18.906V18.8812L61.3234 18.807L61.2987 18.7292L61.2422 18.7044C61.2246 18.6337 61.1751 18.5912 61.1398 18.5735L61.1257 18.5629L61.1434 18.4922L61.0622 18.4674C60.988 18.4639 60.8751 18.4215 60.7586 18.3755C60.5115 18.2835 60.2326 18.181 60.0314 18.3012C59.936 18.3578 59.8831 18.471 59.8478 18.616C59.816 18.6018 59.7807 18.5948 59.7454 18.57L59.6854 18.5311L59.6713 18.471L59.5654 18.4392H59.4595L59.4489 18.5028C59.4206 18.7468 59.3747 18.7999 59.1947 18.9201L59.0288 19.0298C59.0288 19.0298 59.1241 19.0404 59.1806 19.0474L59.1664 19.0722L59.0711 19.2526C58.7993 19.7547 58.5416 20.2605 58.5416 20.5434C58.5416 20.5752 58.5522 20.6 58.5592 20.6283C58.4781 20.6247 58.2804 20.6106 58.2804 20.6106L58.2733 20.6778C58.2168 21.1517 58.0827 21.325 57.8673 21.615L57.6838 21.859L57.4543 22.2975L57.3802 22.439C57.2036 22.6653 57.0766 22.9341 56.9565 23.2029C56.833 23.4646 56.72 23.7121 56.5541 23.9279L56.2117 24.2957C56.081 24.469 55.9681 24.7059 55.848 24.9605C55.7068 25.2541 55.5621 25.5547 55.3997 25.7386L55.375 25.7563L55.1455 25.9296C54.7607 26.2938 54.2453 26.8349 54.0688 27.4043L54.0053 27.4184L53.9947 27.4255C53.3557 27.8358 52.7838 28.5077 52.2755 29.0983L52.0813 29.3211L51.8201 29.6465L51.7495 29.7349L51.4564 29.9435C51.3258 30.0213 51.1917 30.1062 51.0681 30.2335L50.7539 30.6402L50.7116 30.6933C50.6339 30.7675 50.4927 30.7499 50.3444 30.7357C50.2068 30.7216 50.055 30.718 49.9349 30.7923C50.055 29.8587 50.2774 29.1054 50.6833 28.2283L50.7504 28.1859L50.7681 28.1293L50.7539 28.0621L50.7433 28.0303C50.7363 28.0055 50.7363 27.9772 50.7363 27.9454C50.7363 27.5917 51.0293 26.7713 51.2023 26.3964L51.227 26.3469L51.1811 26.3186L51.1952 26.2938L51.2446 26.2019L51.2976 25.9048L51.3576 25.5441C51.4388 25.1055 51.6188 24.2886 51.9118 23.698L52.0001 23.7051L51.993 23.6167V23.5707C51.9789 23.4929 51.9719 23.4151 51.9719 23.3373C51.9719 23.0614 52.0425 22.7856 52.1731 22.5062L52.2684 22.5133L52.2402 22.3718C52.0813 21.7847 51.5165 20.8723 50.6621 20.8652C49.5996 20.8582 48.5228 23.5424 48.3251 24.5043C48.2687 24.5149 48.1345 24.5397 48.1345 24.5397L48.0851 24.5503L48.078 24.5998C48.0533 24.8226 47.9686 25.0065 47.8803 25.1975L47.7568 25.491L47.4038 26.407L47.2061 26.9092L47.2837 26.9304C47.2837 26.9304 47.3755 26.9552 47.4567 26.9764C47.3826 26.9728 47.1602 26.9622 47.1602 26.9622L47.1531 27.0294C47.1319 27.2027 47.0578 27.376 46.9872 27.5387L46.8848 27.8004L46.8672 27.8994L46.7895 28.3733L46.6448 28.6456L46.5706 28.7942C46.4471 29.1195 46.3906 29.4378 46.3341 29.7702L46.2706 30.1204L46.2176 30.3785C46.1647 30.6332 46.1152 30.8878 46.1152 31.1283C46.1152 31.3688 46.1788 31.6199 46.3447 31.8462V31.8603L46.0658 31.7861L46.0376 31.977L46.0905 32.0018C46.0905 32.0018 46.1576 32.0301 46.207 32.0513C46.1929 32.1645 46.1858 32.2741 46.1858 32.3837C46.1858 32.985 46.3765 33.5048 46.7683 33.9893L46.8884 34.1308C47.0084 34.2723 47.1002 34.3784 47.1672 34.5693L47.1814 34.6153L47.9686 34.6613V34.6295C48.0533 34.6613 48.4452 34.8134 48.4452 34.8134H48.4734L48.8653 34.7709C49.1865 34.7532 49.5431 34.7285 49.7266 34.5835C49.7408 34.5835 49.7655 34.5835 49.8008 34.587L49.7937 34.6365L49.7831 34.7709H49.8573C50.2068 34.7921 50.4292 34.5976 50.6445 34.4067L50.9022 34.1945L50.9093 34.1626V34.106C50.9093 34.0389 50.8881 33.9893 50.8704 33.9398C50.9199 33.9292 50.9834 33.9009 51.0646 33.855L51.1952 33.7842L51.1882 33.7524L51.1564 33.6463L51.1034 33.618C51.234 33.6074 51.347 33.5756 51.4388 33.5402C51.5588 33.4942 51.6259 33.4235 51.6894 33.3563L51.8342 33.2254L52.166 33.038C52.4626 32.8824 52.7979 32.702 52.985 32.4014C53.0345 32.3873 53.1227 32.3307 53.3098 32.1114L53.3239 32.0938V32.0478C53.3769 32.0195 53.4087 31.977 53.4263 31.9417L53.4581 31.8886C53.8711 31.7755 54.1394 31.3475 54.3971 30.9373C54.5666 30.6615 54.7431 30.3785 54.9478 30.2088L54.969 30.1911V30.1699L55.029 30.1734L55.0361 30.1027L55.0467 30.0143L55.0043 29.9718L54.9655 29.9541C54.9302 29.9365 54.8878 29.9152 54.8596 29.8834C55.0679 29.8268 55.255 29.6889 55.3291 29.5085C55.3538 29.452 55.3644 29.3918 55.3644 29.3317C55.3644 29.2681 55.3432 29.2044 55.315 29.1407L55.6468 29.1089C55.6751 29.1584 55.6998 29.2292 55.721 29.2999C55.781 29.5015 55.8657 29.7561 56.081 29.9046C56.0457 29.9046 55.9398 29.894 55.9398 29.894L55.9328 29.9541H55.8763L55.8692 30.0178L55.8622 30.1027C55.8622 30.4528 56.1199 30.7746 56.3811 30.9055H56.3882L56.3811 30.9479L56.3564 30.9585L56.3387 31.0186C56.3387 31.0964 56.4058 31.1955 56.4905 31.3228C56.5788 31.4536 56.6918 31.634 56.6918 31.7472V31.7755L56.6529 31.8108L56.6459 31.8427C56.6459 31.9169 56.7624 32.0442 57.4931 32.5783L57.5743 32.6384L57.7332 32.8258C57.7897 32.9036 57.8497 32.9779 57.9309 33.0415C57.9168 33.0769 57.8885 33.1158 57.8603 33.1512L57.7296 33.3209L57.8673 33.328C57.9415 33.3351 58.118 33.4553 58.2557 33.5543C58.4004 33.6569 58.5381 33.7524 58.6475 33.7913L58.7322 33.8231L58.7781 33.4412C58.8628 33.4447 59.2194 33.4695 59.2194 33.4695L59.3288 33.4412L59.3641 33.3351C59.4277 33.3669 59.4877 33.4093 59.5477 33.4659L59.8478 33.6923V33.565L59.8548 33.5543C59.996 33.5296 60.1196 33.42 60.1831 33.3528C60.2255 33.3528 60.3808 33.3598 60.3808 33.3598C60.9563 33.3917 61.161 33.0981 61.4152 32.7303L61.514 32.5889L61.5317 32.4297H61.454L61.3975 32.4262L61.3658 32.3908C61.3234 32.3661 61.2775 32.3908 61.2316 32.4191L61.1716 32.412V32.405C61.1716 32.3767 61.1928 32.2953 61.3128 32.0938L61.5635 32.1786L61.5741 32.0902L61.5882 32.0619C61.627 32.0442 61.747 32.0938 61.8388 32.1539L61.8671 32.2246C61.9059 32.2635 61.9588 32.26 62.0083 32.2564C62.0259 32.3095 62.0542 32.3519 62.0824 32.3873C62.0824 32.4227 62.0895 32.458 62.1106 32.4828C62.1424 32.5146 62.1848 32.5111 62.2166 32.5075H62.3154L62.3331 32.4368L62.3436 32.3696L62.3225 32.3201L62.273 32.2989L62.2624 32.2529L62.2766 32.2388L62.2942 32.1963L62.4248 32.2034C62.4707 32.2069 62.5166 32.1786 62.5519 32.1539L62.5625 32.1468L62.8379 32.1079L62.8308 31.977L62.8485 31.9947V32.0124V32.0336C62.8661 32.0053 62.9614 31.924 63.4309 31.687L63.4662 31.6658L63.5757 31.6729V31.6057L63.5969 31.4536L63.5051 31.4642C63.5051 31.4642 63.2297 31.4961 63.1909 31.4996L63.2015 31.4041V31.3829C63.2015 31.3369 63.1838 31.3086 63.1662 31.291C63.1238 31.245 63.0567 31.2379 62.9897 31.2379H62.9932V31.2096C62.9932 31.2096 63.0038 31.1353 63.0073 31.0823C63.2791 31.054 63.5827 30.7817 63.7204 30.5943L63.8087 30.6013L63.8405 30.3361H63.7804L63.7946 30.2689L63.8228 30.2583L63.9005 30.2265L64.1758 30.0991C64.5183 29.9506 64.7442 29.8374 64.7936 29.742L65.1219 28.9745L65.1149 28.9639C65.2031 28.8437 65.7256 28.4228 65.8809 28.3875L65.9303 28.3768L65.9374 28.3273V28.3097C65.9374 28.2036 65.8491 28.0727 65.768 27.956C65.768 27.956 65.7397 27.9136 65.7185 27.8817C65.7362 27.8499 65.7644 27.811 65.8033 27.7473C65.9056 27.5776 66.1527 27.1744 66.2269 27.1284L66.2551 27.1108L66.2798 26.8844L66.2057 26.8773L66.2339 26.8809Z" fill="#006DB5"/>
<path id="Vector_28" d="M66.5658 12.5439H54.3936V25.1729H67V12.5439H66.5658ZM66.1316 13.4139V24.3065H55.262V13.4139H66.1316Z" fill="#E51F1F"/>
<path id="Vector_29" d="M22.1839 22.9447C21.785 22.8457 21.2484 22.7431 20.9059 22.7007L20.8812 22.7184L20.7365 22.8245V22.8386C20.6729 22.8315 20.6165 22.8421 20.567 22.8563V22.8457L20.5141 22.8351L20.2564 22.7926C20.1964 22.782 20.1293 22.8351 20.0622 22.8881L20.0234 22.9164L19.9351 22.7962L19.9104 22.8987L19.8998 22.9306H19.8822C19.8751 22.9058 19.8363 22.8952 19.6915 23.0437C19.6562 23.026 19.5715 22.9836 19.5715 22.9836L19.5397 23.026C19.5221 23.0473 19.4197 23.0862 19.3809 23.0968L19.3738 23.0897C19.3597 23.0862 19.3385 23.0826 19.3103 23.118L19.2503 23.0932H19.2008L19.1797 23.1145L19.049 23.3019H19.0349V23.2206L18.8831 23.1958L18.8478 23.309H18.8196L18.809 23.3302L18.6854 23.263L18.6713 23.3267C18.6713 23.3267 18.6395 23.3832 18.456 23.4469L18.4313 23.454L18.4242 23.4787C18.4171 23.5035 18.3783 23.5282 18.3465 23.553L18.283 23.6025V23.6131C18.1171 23.606 17.9547 23.6732 17.7993 23.7369L17.5805 23.8218L17.5699 23.8465C17.5275 23.9844 17.4604 24.186 17.3651 24.2744L17.3263 24.2285L17.3475 24.1613L17.291 24.1542C17.2098 24.1401 17.1498 24.2568 17.1039 24.3841V24.3522L17.0615 24.3487H17.0545L17.0615 24.3275L17.0086 24.3027C16.9592 24.2921 16.9203 24.3204 16.8956 24.3593L16.8885 24.2851L16.8497 24.2744C16.7932 24.2638 16.6591 24.3204 16.3943 24.4407L16.1119 24.5609L16.1013 24.5857C16.0695 24.6918 15.9848 24.7696 15.8966 24.8509C15.826 24.9146 15.7518 24.9818 15.6989 25.0702C15.5259 25.0454 15.4094 25.0702 15.2752 25.2435L15.2435 25.2541C15.2223 25.2753 15.2152 25.3071 15.2152 25.346L15.2223 25.4132L15.1693 25.4026L15.2046 25.491L15.2117 25.5087C15.2117 25.5087 15.1835 25.5335 15.1305 25.537H15.1023L15.1376 25.4627L15.1411 25.4557L15.0458 25.4203V25.4274C15.0281 25.4627 14.9646 25.5122 14.9152 25.5511L14.6716 25.7739L14.8622 25.7315L14.8975 25.7244C14.8904 25.7563 14.8799 25.8376 14.8763 25.8624C14.6822 25.972 14.1809 26.5732 14.1773 26.5803L14.1138 26.697C14.1138 26.697 14.0891 26.75 14.0679 26.7889C14.0291 26.796 13.9691 26.8243 13.8278 26.9304L13.8208 26.895L13.782 26.8667C13.6937 26.8526 13.676 26.9198 13.6655 26.9551L13.609 27.1426C13.556 27.3336 13.5419 27.376 13.3089 27.4962L13.2948 27.3159L13.2136 27.4821C13.2136 27.4821 13.0477 27.7827 13.0265 27.8181L12.8394 27.6766C12.7935 27.7049 12.7794 27.7509 12.7688 27.811L12.7194 27.8039L12.7088 27.8393H12.6841L12.6664 27.8676L12.5146 28.1257L12.3699 28.4193L12.2039 28.6315C12.0416 28.826 11.8756 29.0276 11.8297 29.2963C11.6391 29.3529 11.452 30.0496 10.8801 31.0717L10.5377 31.6552L10.5165 31.7931V31.8037C10.5165 31.8462 10.513 31.8603 10.4459 31.8957L10.4282 31.9063L10.4212 31.9275C10.3612 32.122 10.3153 32.2281 10.1847 32.3802L10.167 32.4191L10.1458 32.4828L10.167 32.4898C10.1458 32.5252 10.054 32.6879 10.054 32.6879L10.047 32.7409C10.047 32.794 10.0717 32.84 10.0929 32.8789L10.1317 32.9602L10.1776 32.9779H10.2023C10.1282 33.1476 10.054 33.3174 10.054 33.4482C10.054 33.4871 10.0611 33.5225 10.0752 33.5543C10.0964 33.6003 10.1423 33.6251 10.1917 33.6463C10.1423 33.763 10.0646 33.961 10.0611 34.106L10.0964 34.0954L10.0717 34.1803L10.1247 34.2051L10.2306 34.2227C10.227 34.2616 10.1988 34.4491 10.1988 34.4491H10.22L10.1953 34.5127C10.1953 34.5587 10.2094 34.6224 10.2306 34.7143L10.1917 34.6931L10.107 35.0574L10.0788 35.1705V35.6091C10.0682 35.7081 10.0152 35.8071 9.96226 35.8991L9.9552 35.9097V35.9627L9.97991 35.9981L9.99403 36.0441L10.0082 36.0936H9.99403L9.96932 36.182L10.0858 36.1572C10.1776 36.136 10.3259 36.3588 10.4071 36.4791L10.46 36.5569L10.3824 36.617L10.3894 36.6347V36.6417L10.4212 36.6948V36.7408L10.4424 36.7478L10.4212 36.9247V36.9423L10.52 36.9494L10.4989 36.9636H10.4741L10.5342 37.0697L10.5518 37.0803V37.105L10.573 37.1651C10.7036 37.3031 10.7566 37.3915 10.7566 37.5259C10.7566 37.6284 10.7283 37.7487 10.6824 37.9255L10.6718 37.9644L10.6507 37.9892L10.6259 38.0245V38.0281C10.5871 38.0776 10.4989 38.1943 10.4989 38.1943L10.4918 38.2155L10.4847 38.2933L10.5306 38.311C10.6189 38.3251 10.6577 38.2332 10.686 38.1589L10.7495 38.2049L10.7672 38.2544L10.7883 38.2403C10.7883 38.2403 10.8307 38.2226 10.8731 38.2084L10.8307 38.3464L10.8236 38.3746L10.866 38.3959C10.866 38.3959 10.8872 38.4454 10.8872 38.4949C10.8872 38.5338 10.8801 38.5762 10.8519 38.6222V38.6611C10.8483 38.7283 10.8942 38.8061 10.9543 38.9087L10.9931 38.9723H10.979L10.9613 39.0289L11.1166 39.0572L11.1343 39.0254L11.1943 38.9157L11.2367 38.9263C11.2367 38.9263 11.3638 38.944 11.4061 38.9476L11.4202 39.0395H11.4626H11.738L11.7486 39.0042C11.7803 38.9016 11.8086 38.8768 11.8827 38.8309H11.9462C11.9921 38.8238 11.9992 38.8238 12.0168 38.845L12.031 38.8592H12.038C12.038 38.9087 11.9815 39.0324 11.9639 39.0784L11.9145 39.1951L11.978 39.2057L12.0521 39.2199L12.0663 39.1845L12.091 39.1916L12.1086 39.1598L12.2322 38.9617L12.2463 38.937V38.9299L12.2816 38.9476H12.2887V38.9865L12.2428 39.2128L12.2075 39.4179L12.2604 39.5771L12.3275 39.7504L12.3063 39.814L12.3381 39.8246L12.3169 39.8989L12.384 39.8777L12.5075 39.8494C12.5676 39.8423 12.7017 39.8458 12.7264 39.9095L12.737 39.9378L12.857 39.959L12.8888 39.9201C12.9065 39.8671 13.0053 39.8812 13.0371 39.8848C13.0371 39.8848 13.09 39.9024 13.1218 39.913L13.1077 39.9626L13.1642 39.9732C13.2136 39.9802 13.2418 39.9555 13.2595 39.9166C13.2877 39.9626 13.3336 40.0015 13.4007 40.0333L13.4572 40.0863L13.5243 40.15C13.6937 40.2172 13.8632 40.1783 14.0114 40.1465L14.1915 40.1076L14.2727 40.2455L14.3044 40.1323C14.3327 40.0333 14.4421 39.9908 14.6433 39.9944C14.721 40.0085 14.7845 39.9024 14.8693 39.7539L14.894 39.7115C14.9222 39.7044 15.0034 39.6902 15.0387 39.6832L15.0317 39.7079L15.0917 39.715C15.067 39.7751 15.0246 39.8777 15.0246 39.8777C14.9752 39.9802 14.9222 40.0899 14.9081 40.2313V40.2808L15.0281 40.3021L15.0422 40.2596C15.0705 40.1747 15.1411 40.0793 15.2082 40.0121H15.2188L15.2364 40.0191L15.2964 40.1394L15.3247 40.1995L15.4164 40.2136L15.5718 39.9626L15.5788 39.9378C15.6141 39.9307 15.7306 39.9095 15.7306 39.9095L15.893 39.8812L16.2213 39.8989L16.3802 39.8423C16.4614 39.8034 16.5143 39.7787 16.5532 39.8069L16.6097 39.8494L16.6344 39.7645C16.6803 39.7504 16.7332 39.7185 16.7862 39.6832L16.7615 39.7291L16.938 39.761L16.945 39.7362L16.998 39.7574L17.0968 39.8034L17.111 39.7433L17.1357 39.6619L17.0862 39.6443V39.6018V39.5983L17.111 39.6124L17.2063 39.6726L17.2204 39.6054C17.238 39.5488 17.2945 39.4993 17.3722 39.4745C17.464 39.4427 17.5593 39.4498 17.5911 39.4745L17.6475 39.5169L17.6687 39.4498C17.7005 39.3507 17.8947 39.2906 17.997 39.2694L18.0394 39.2623L18.5513 39.1421L18.636 39.1315L18.6501 39.0996L18.6748 39.0148H18.6678L18.689 38.99C18.7702 38.9829 19.102 38.9511 19.1903 38.9157L19.215 38.9051L19.2432 38.8202C19.2891 38.8132 19.342 38.8026 19.3879 38.7955C19.4833 38.8132 19.6527 38.6788 19.7057 38.5621H19.7092C19.7516 38.5904 19.7833 38.5444 19.8433 38.456L19.8645 38.4242V38.4383L20.8106 37.9467L20.8671 37.9078H20.9271L20.9342 37.8654C20.9624 37.7275 21.026 37.632 21.1213 37.5825C21.2131 37.5329 21.3225 37.5329 21.4284 37.5895L21.5096 37.6284L21.5025 37.54C21.499 37.4905 21.5167 37.1545 21.5414 37.105C21.5837 37.0591 21.6332 37.052 21.6967 37.0414C21.7638 37.0308 21.8379 37.0201 21.905 36.953L21.9685 36.8645L22.025 36.7832L22.1768 36.7195C22.258 36.6948 22.3498 36.6665 22.4133 36.5922C22.4875 36.5038 22.5157 36.3871 22.5404 36.2739L22.611 36.0511C22.6852 35.9132 23.2641 35.5843 23.37 35.6232L23.43 35.6444V35.6126C23.5536 35.5419 23.9843 34.4632 23.9913 34.4526L24.2526 34.488L24.2596 34.4597V34.4526C24.5209 34.4102 24.7115 34.2015 24.8986 33.9929C25.0681 33.8019 25.1704 33.381 25.3717 33.3421L25.4105 33.3315V33.2891L25.414 33.2573C25.414 33.1865 25.3928 33.137 25.354 33.1052C25.2763 33.0486 25.1634 33.0946 25.0681 33.13L24.9939 33.1582V33.1936C24.8104 33.2184 24.6338 33.2856 24.4962 33.3634V33.3528L24.4362 33.3563C24.3726 33.3634 24.3161 33.4093 24.2667 33.4518L24.1996 33.5048L24.0231 33.5756L24.0161 33.5614C23.9737 33.5437 23.9455 33.5756 23.9207 33.6003L23.9031 33.6145C23.6419 33.8373 23.0241 34.3076 22.8017 34.3182H22.7593L22.7558 34.3571H22.7099L22.6887 34.3925C22.6675 34.4173 22.5228 34.4385 22.431 34.4349H22.3992L22.3816 34.4738C22.3392 34.5623 21.7179 34.9407 21.6155 34.923C21.5378 34.923 21.5237 34.9548 21.5167 34.9831L21.4072 34.9513L21.379 35.0043C21.3719 35.0644 21.2519 35.1776 20.5564 35.3438V35.3332L20.4788 35.3191H20.4364L20.4152 35.3615C20.4011 35.3863 20.2881 35.4322 20.2387 35.4499L20.1293 35.4959V35.51C20.0905 35.51 20.041 35.5419 19.9492 35.6055C19.8716 35.655 19.7551 35.7293 19.7127 35.7328H19.6774L19.6704 35.7611C19.6386 35.7611 19.5892 35.7753 19.4868 35.8071L19.2785 35.8672L19.2644 35.8991C19.0596 35.8814 18.7666 35.9733 18.5866 36.0794V36.0688L18.5124 36.0405H18.4948L18.4383 36.0299L18.4065 36.0688L18.3112 36.0794H18.2512L18.1841 35.9839L18.1418 36.0617C18.1206 36.0936 17.9653 36.1325 17.8841 36.1537C17.8841 36.1537 17.7358 36.2032 17.697 36.2174L17.644 36.2067L17.6264 36.1749C17.584 36.1537 17.5487 36.1891 17.4993 36.2492C17.464 36.2315 17.4216 36.2103 17.4216 36.2103L17.3757 36.1997L17.3298 36.1926L17.3157 36.235C17.3086 36.2633 17.2486 36.2704 17.2063 36.2775L17.1251 36.2916V36.3128C17.0756 36.3022 16.9733 36.2775 16.9733 36.2775L16.6238 36.3553L16.4296 36.3411L16.186 36.3235C15.7306 36.2244 15.1764 35.7753 15.0846 35.2342C15.0705 35.1529 15.067 35.0751 15.067 34.9902C15.067 34.8593 15.0811 34.7249 15.0952 34.5799V34.5552L15.1093 34.3784C15.1128 34.2581 15.1164 34.1449 15.1552 34.0106L15.307 33.6357L15.4023 33.427L15.5047 33.084L15.6494 32.8011L15.6706 32.5889V32.5429L15.7095 32.3944C15.7095 32.3944 15.72 32.3484 15.7342 32.3059V32.3448C15.7342 32.3837 15.7342 32.4403 15.7236 32.5252L15.7165 32.5747L15.8365 32.5959L15.8507 32.5606L15.9354 32.3873L16.0907 32.2387L16.3908 31.8639L16.5849 31.5668C16.705 31.3723 16.8391 31.1495 16.9697 31.0717L16.9839 31.0646L17.0086 31.0752L17.1039 31.1318L17.118 31.0681C17.1286 31.0292 17.1321 30.9939 17.1321 30.955C17.1321 30.8949 17.1215 30.8347 17.111 30.7746V30.7499C17.1357 30.7888 17.1745 30.8347 17.2416 30.8312C17.4004 30.8206 17.9017 30.3644 18.0429 30.1769L18.0994 30.2158L18.17 30.2901L18.2124 30.2264L18.3077 30.1027C18.3748 30.0355 18.4524 29.9471 18.4948 29.8304C18.5266 29.8233 18.6501 29.795 18.7101 29.7773C18.7278 29.8162 18.756 29.848 18.7807 29.8693L18.7631 29.9223L18.8372 29.9435L18.8972 29.9577L18.9184 29.8869H18.9149C18.9502 29.8657 18.9714 29.8233 18.9784 29.7879L18.9961 29.7349L19.1055 29.6358L19.1161 29.6252L19.162 29.6429H19.1761C19.2114 29.6535 19.3456 29.7985 19.3703 29.8551L19.4268 29.9789L19.4656 29.848C19.4833 29.7915 19.515 29.7526 19.5645 29.7349C19.6386 29.703 19.7445 29.7207 19.801 29.7526L19.8292 29.7667L19.861 29.7384C19.9034 29.7066 20.2776 29.5934 20.3482 29.5863L20.6553 29.6076C20.7788 29.6252 20.9059 29.6429 21.0436 29.6182C21.2166 29.5863 21.3896 29.4838 21.552 29.3847L21.8238 29.2327L22.2015 29.1089L22.5863 28.978C22.837 28.8578 23.0947 28.727 23.2888 28.5855L23.7089 28.2212L23.8607 28.1257C23.9666 28.0656 24.0725 28.0055 24.1714 27.8959C24.2914 27.7615 24.3408 27.5846 24.3903 27.4149L24.4926 27.1143L24.6197 26.9056C24.7186 26.6333 24.768 26.3645 24.768 26.0922C24.768 25.88 24.7362 25.6608 24.6797 25.4344L24.6127 25.2187L24.415 24.9605C24.242 24.7554 24.0796 24.5644 24.0796 24.278C24.0796 24.2355 24.0831 24.186 24.0902 24.1401L24.1008 24.0799H23.7654L23.7548 24.1188L23.7407 24.0941C23.6101 23.9774 23.6066 23.9137 23.596 23.7829L23.5783 23.606L23.6136 23.4858L23.4865 23.4646L23.4653 23.507L23.4548 23.5388L23.37 23.5247L23.4159 23.6273H23.4053C23.3277 23.6343 23.2041 23.5601 23.1865 23.5212L23.1759 23.4964L23.0735 23.4787L23.0594 23.5212L23.0417 23.553H23.0311L22.9852 23.5424V23.5565C22.9252 23.461 22.8793 23.3903 22.8405 23.362H22.8264L22.8087 23.3267C22.7699 23.3019 22.664 23.3938 22.664 23.3938C22.3074 23.1251 22.2156 22.9871 22.2156 22.9871L22.1839 22.9447Z" fill="#006DB5"/>
</g>
</g>
<defs>
<clipPath id="clip0_289_1253">
<rect width="67" height="63" fill="white"/>
</clipPath>
</defs>
</svg>
