<svg width="64" height="65" viewBox="0 0 64 65" fill="none" xmlns="http://www.w3.org/2000/svg">
<g id="&#237;&#153;&#141;&#236;&#157;&#181;&#235;&#140;&#128;&#237;&#149;&#153;&#234;&#181;&#144;" clip-path="url(#clip0_289_1596)">
<path id="Vector" d="M29.46 31.1315V29.7949H25.8068V30.2849H28.6675V31.1315H29.46Z" fill="#231815"/>
<path id="Vector_2" d="M33.9621 31.1315V27.519H33.226V28.7654H32.8828V27.519H32.1468V30.4407H30.8282V27.9819H31.8307V27.519H30.0831V30.9103H32.1468V31.1315H32.8828V29.2553H33.226V31.1315H33.9621Z" fill="#231815"/>
<path id="Vector_3" d="M26.8522 29.5332C27.5882 29.5332 28.1662 29.1088 28.1662 28.4856C28.1662 27.8625 27.586 27.438 26.8522 27.438C26.1184 27.438 25.5381 27.8602 25.5381 28.4856C25.5381 29.111 26.1139 29.5332 26.8522 29.5332ZM26.8522 27.876C27.1457 27.876 27.3828 28.1176 27.3828 28.4811C27.3828 28.8446 27.1593 29.0952 26.8522 29.0952C26.5451 29.0952 26.3216 28.8446 26.3216 28.4811C26.3216 28.1176 26.5519 27.876 26.8522 27.876Z" fill="#231815"/>
<path id="Vector_4" d="M38.2384 31.1316V29.8853H34.5852V30.3752H37.4549V31.1316H38.2384Z" fill="#231815"/>
<path id="Vector_5" d="M35.7344 29.6575C36.466 29.6575 36.9604 29.2421 36.9604 28.7002C36.9604 28.4699 36.8679 28.2599 36.7053 28.0996H37.1501V27.6548H36.125V27.3433H35.3416V27.6548H34.3165V28.0996H34.7613C34.601 28.2599 34.5084 28.4699 34.5084 28.7002C34.5084 29.2443 35.0029 29.6575 35.7344 29.6575ZM35.7344 28.0838C36.0009 28.0838 36.2153 28.3073 36.2153 28.6505C36.2153 28.9937 36.0144 29.2218 35.7344 29.2218C35.4545 29.2218 35.2535 28.9892 35.2535 28.6505C35.2535 28.3119 35.4635 28.0838 35.7344 28.0838Z" fill="#231815"/>
<path id="Vector_6" d="M42.6501 27.519H38.9518V28.009H41.8847V30.6416H41.3677V28.6547H40.6542V30.6416H40.2094V28.6547H39.4959V30.6416H38.8186V31.1315H43.0068V30.6416H42.6501V27.519Z" fill="#231815"/>
<path id="Vector_7" d="M38.2384 29.1447H38.7283V28.6547H38.2384V27.519H37.4549V29.7069H38.2384V29.1447Z" fill="#231815"/>
<path id="Vector_8" d="M29.46 27.519H28.6675V29.6188H29.46V27.519Z" fill="#231815"/>
<path id="Vector_9" d="M21.2167 30.3663C21.2167 30.8698 21.9392 31.222 23.0884 31.222C24.2376 31.222 24.9601 30.8698 24.9601 30.3663C24.9601 30.1292 24.7998 29.9418 24.5063 29.8131H25.1837V29.3458H23.4903V29.1629C24.346 29.1019 24.8269 28.8378 24.8269 28.4991C24.8269 28.3343 24.7208 28.201 24.5154 28.0972H25.1385V27.6524H23.4903V27.3408H22.6888V27.6524H21.0406V28.0972H21.6637C21.4583 28.1988 21.3522 28.3343 21.3522 28.4991C21.3522 28.8378 21.8331 29.1019 22.6888 29.1629V29.3458H20.9954V29.8131H21.6728C21.3793 29.9418 21.2189 30.1292 21.2189 30.3663H21.2167ZM22.3162 28.6504C22.2011 28.5962 22.1514 28.5217 22.1514 28.4359C22.1514 28.3501 22.2011 28.2756 22.3162 28.2214C22.4856 28.1423 22.7791 28.0972 23.0884 28.0972C23.3977 28.0972 23.689 28.1423 23.8583 28.2214C23.9735 28.2756 24.0232 28.3501 24.0232 28.4359C24.0232 28.5217 23.9735 28.5962 23.8583 28.6504C23.689 28.7362 23.4 28.7745 23.0884 28.7745C22.7768 28.7745 22.4856 28.7339 22.3162 28.6504ZM22.3117 29.9554C22.4991 29.8741 22.7836 29.8312 23.0862 29.8312C23.3887 29.8312 23.6732 29.8763 23.8606 29.9554C24.057 30.0412 24.1541 30.1608 24.1541 30.3031C24.1541 30.4453 24.0593 30.565 23.8606 30.6508C23.6732 30.7321 23.3887 30.775 23.0862 30.775C22.7836 30.775 22.4969 30.7298 22.3117 30.6508C22.1108 30.565 22.0182 30.4453 22.0182 30.3031C22.0182 30.1608 22.1153 30.0412 22.3117 29.9554Z" fill="#231815"/>
<path id="Vector_10" d="M32.9257 33.7329L32 34.5096L31.0811 33.7374L31.0765 33.7329H24.1338L21.1963 36.9458L21.1918 36.9503V46.7063H29.0716L30.0447 47.5214L30.0492 47.5259H33.9507L34.9284 46.7086H42.7449V36.9526L39.8007 33.7352H32.9234L32.9257 33.7329ZM32.1445 34.767L33.0318 34.0242H39.5208V43.2902H32.9257L32.1445 43.9427V34.7692V34.767ZM24.4137 34.0242H30.9682L31.8532 34.767V43.9405L31.0788 43.2925L31.0743 43.288H24.4137V34.0219V34.0242ZM24.3325 43.5815H30.9704L31.991 44.4327L32 44.4417L33.0318 43.5815H39.6043L40.0649 44.0714H33.6595L32.6819 44.8888H31.3204L30.3473 44.0737L30.3428 44.0692H23.8741L24.3347 43.5792L24.3325 43.5815ZM23.6822 34.6564L24.1247 34.1732V43.3783L23.6822 43.8502V34.6586V34.6564ZM22.9484 35.4579L23.3909 34.9724V44.1572L22.9484 44.6291V35.4579ZM22.2146 36.2617L22.6572 35.7762V44.9407L22.2146 45.4126V36.2617ZM21.4808 37.0632L21.9234 36.5778V45.7196L21.4808 46.1915V37.0609V37.0632ZM42.0134 36.58L42.4559 37.0632V46.1938L42.0134 45.7219V36.58ZM42.2663 46.4173H34.8245L33.8469 47.2346H30.1554L29.1822 46.4196L29.1777 46.4151H21.6727L22.1333 45.9228H29.4599L30.4331 46.7379L30.4376 46.7424H33.5647L34.5423 45.9251H41.8057L42.2663 46.4173ZM41.2796 35.7785L41.7221 36.2617V45.4126L41.2796 44.9407V35.7785ZM41.5325 45.6338H34.4362L33.4585 46.4512H30.5437L29.5706 45.6361L29.5661 45.6316H22.4065L22.8671 45.1416H29.8483L30.8214 45.9567L30.8259 45.9612H33.1741L34.1517 45.1439H41.0696L41.5302 45.6338H41.5325ZM40.5458 34.977L40.9883 35.4601V44.6291L40.5458 44.1572V34.977ZM40.7987 44.8526H34.0478L33.0702 45.67H30.932L29.9589 44.8549L29.9544 44.8504H23.1403L23.6009 44.3604H30.2366L31.2098 45.1733L31.2143 45.1778H32.788L33.7656 44.3604H40.3381L40.7987 44.8504V44.8526ZM39.812 34.1754L40.2546 34.6586V43.8479L39.812 43.376V34.1754Z" fill="#231815"/>
<path id="Vector_11" d="M27.9924 23.3988H25.4862V18.8899H35.5087V19.8924H36.0076V18.3887H24.9872V23.9H27.9924V23.3988Z" fill="#231815"/>
<path id="Vector_12" d="M35.5086 19.8926H27.9924V23.399H35.5086V19.8926Z" fill="#231815"/>
<path id="Vector_13" d="M36.0076 23.9002H27.9924V25.4039H39.015V19.8926H36.0076V23.9002Z" fill="#231815"/>
<path id="Vector_14" d="M51.3382 28.3592C51.2163 27.9866 50.9927 27.6841 50.7692 27.4132C49.6245 25.853 48.8388 24.6722 48.4346 23.9023C47.8702 22.8275 47.7054 22.0599 47.3441 20.3778L47.3351 20.3349C47.2357 19.8788 47.1251 19.3595 46.9874 18.7499C46.7368 17.6459 46.1317 16.8511 45.2353 16.4515C43.0723 15.3113 41.0087 13.9272 39.9001 13.0873C38.9202 12.3445 37.2765 10.5405 37.2607 10.5247L37.2336 10.5044C37.1975 10.4863 36.8543 10.3328 36.1905 10.3757C35.5245 10.4186 34.8449 10.9289 34.5355 11.6175C34.2262 12.3061 34.5739 13.0715 34.9487 13.295C34.9781 13.3131 35.0165 13.3357 35.0639 13.3673C34.6371 13.5773 33.3728 14.135 32 14.135C30.6273 14.135 29.3629 13.5773 28.9362 13.3673C28.9858 13.3357 29.022 13.3131 29.0513 13.295C29.4261 13.0693 29.7738 12.3039 29.4645 11.6175C29.1552 10.9266 28.4733 10.4163 27.8095 10.3757C27.148 10.3328 26.8025 10.4863 26.7596 10.5089L26.7416 10.5225L26.7371 10.527C26.7212 10.545 25.0685 12.3558 24.0977 13.0896C22.9913 13.9295 20.93 15.3135 18.7692 16.4515C17.8684 16.8534 17.261 17.6481 17.0104 18.7522C16.8681 19.3799 16.7507 19.9263 16.6559 20.3643L16.6514 20.3801C16.2901 22.0621 16.1231 22.8321 15.5609 23.9045C14.9851 24.9996 13.7411 26.7313 13.2353 27.4222C12.9689 27.6954 12.768 28.0183 12.6573 28.3614C12.1719 29.8516 13.3031 30.8947 13.7682 31.1069C14.2875 31.3418 15.6105 31.5156 16.1615 30.4996C16.2811 30.2806 16.385 29.9667 16.394 29.9261C16.6062 28.9394 17.3152 28.0702 17.5003 27.8557C18.5118 28.6075 19.1914 30.4364 19.3224 32.7551C19.4398 34.8278 18.6992 36.2254 18.0467 37.0405C17.8638 36.844 17.4642 36.3518 17.1797 35.5706C17.0691 35.2026 16.7259 34.8346 16.324 34.6517C16.0282 34.5162 15.5473 34.4146 14.9467 34.6901C14.502 34.8956 14.1746 35.2546 14.003 35.7264C13.8066 36.2683 13.8382 36.9073 14.0865 37.4333C14.1294 37.5214 14.1791 37.6117 14.2401 37.6975L14.231 37.702L14.2807 37.7765C14.292 37.7923 15.3396 39.3864 15.8702 40.9533C16.0621 41.5177 16.2337 42.1612 16.4188 42.8498C16.7733 44.1707 17.2429 45.8211 17.7577 46.8642C19.1327 49.6594 21.0428 51.5018 23.9509 52.8429C27.5137 54.4844 31.0721 54.4844 32.2416 54.4844C35.0548 54.4844 37.6807 53.9312 40.0446 52.8429C42.9301 51.5131 44.917 49.5872 46.2988 46.7807C46.7977 45.7669 47.5789 42.8408 47.5789 42.8408C47.7596 42.1612 47.9334 41.52 48.1231 40.9555C48.674 39.3276 49.6877 37.7968 49.6968 37.7833C49.7916 37.6478 49.8571 37.5372 49.9045 37.4356C50.1528 36.9095 50.1845 36.2706 49.988 35.7287C49.8164 35.2545 49.489 34.8978 49.0443 34.6924C48.4437 34.4169 47.9628 34.5185 47.667 34.654C47.2832 34.8278 46.9716 35.171 46.8587 35.5458C46.5787 36.3157 46.143 36.8328 45.9443 37.0427C45.4927 36.476 44.5128 34.9746 44.5986 32.6806C44.6844 30.3709 45.3392 28.7046 46.4884 27.8557C46.7232 28.1221 47.2628 28.8175 47.6128 29.908C47.6444 30.1022 47.7167 30.3009 47.825 30.4996C48.3759 31.5156 49.699 31.3418 50.2206 31.1069C50.6857 30.8947 51.8169 29.8516 51.3314 28.3614L51.3382 28.3592ZM34.8674 11.7688C35.1226 11.1975 35.678 10.7753 36.2131 10.7392C36.2831 10.7347 36.3508 10.7324 36.4118 10.7324C36.7617 10.7324 36.9762 10.7956 37.0485 10.8227C37.2427 11.035 38.7464 12.6696 39.6811 13.3786C40.5933 14.0695 42.1895 15.16 43.9732 16.176C43.0859 16.158 42.3453 16.4944 41.9954 16.8488C41.1419 17.7136 41.0968 18.567 41.169 19.1721C40.4036 18.059 39.277 16.5486 38.1097 15.4626C36.0189 13.5141 35.3551 13.1167 35.1361 12.9857C34.881 12.8322 34.6439 12.2677 34.8674 11.7688ZM43.3591 19.7953C43.3591 19.7953 43.0949 19.337 43.3004 18.917C43.5171 18.4745 43.9461 18.3616 44.278 18.4429C44.6573 18.5377 45.3866 19.066 45.224 20.0978C45.057 21.1477 43.9371 21.2855 43.3004 21.2019C42.8736 21.1455 42.246 20.8723 41.8802 20.2875C41.8396 20.2153 41.7696 20.0798 41.7628 20.0662C41.7222 19.9737 41.6883 19.8834 41.6635 19.7885C41.5596 19.4002 41.4557 18.8877 41.5619 18.3548C41.7786 18.5332 42.4921 19.1473 43.0565 19.9895L43.0746 20.0143L43.3771 19.8201L43.3613 19.793L43.3591 19.7953ZM42.973 18.759C42.9165 18.8764 42.8782 18.9983 42.8601 19.1247C42.3837 18.5558 41.9186 18.1697 41.668 17.9778C41.7899 17.6639 41.9818 17.3794 42.2528 17.1062C42.2911 17.0679 42.334 17.0317 42.3769 16.9956C42.8217 17.4607 43.3613 17.8445 43.7565 18.0952C43.4133 18.1832 43.1356 18.4158 42.9685 18.7567L42.973 18.759ZM24.3212 13.3786C25.2582 12.6696 26.7596 11.035 26.9538 10.8227C27.0554 10.7844 27.3286 10.7099 27.7892 10.7392C28.3243 10.7731 28.8797 11.1953 29.1348 11.7665C29.3584 12.2655 29.1213 12.8299 28.8662 12.9835C28.6472 13.1144 27.9834 13.5118 25.8926 15.4603C24.7163 16.5553 23.5919 18.0816 22.8288 19.2083C22.9078 18.5896 22.8694 17.7204 22.0069 16.8466C21.6999 16.535 21.0158 16.1738 20.0968 16.1738C20.0742 16.1738 20.0517 16.1738 20.0291 16.1738C21.8128 15.1555 23.409 14.0672 24.3212 13.3763V13.3786ZM20.7019 18.9193C20.9074 19.3415 20.6545 19.7795 20.6432 19.7976L20.6274 19.8246L20.93 20.0188L20.948 19.994C21.5147 19.1518 22.2259 18.5377 22.4427 18.3593C22.5465 18.8944 22.4427 19.4047 22.3411 19.793C22.1153 20.6465 21.3341 21.1229 20.7042 21.2064C20.0675 21.29 18.9476 21.1522 18.7805 20.1024C18.618 19.0751 19.3427 18.5467 19.722 18.4474H19.7265C19.792 18.4293 19.862 18.4225 19.932 18.4225C20.09 18.4225 20.4852 18.4722 20.7042 18.9215L20.7019 18.9193ZM20.2413 18.0952C20.6387 17.8445 21.1761 17.4607 21.6208 16.9956C21.666 17.0317 21.7089 17.0679 21.745 17.1062C22.016 17.3817 22.2079 17.6662 22.3298 17.9778C22.1198 18.1381 21.6321 18.5377 21.1399 19.1247C21.1219 18.9983 21.0857 18.8741 21.027 18.7567C20.86 18.4158 20.5823 18.1832 20.2413 18.0952ZM16.0192 29.8358L16.0102 29.89C15.9808 30.03 15.9266 30.1745 15.8476 30.3212C15.4186 31.1137 14.3462 30.9624 13.924 30.7705C13.5379 30.5944 12.6009 29.7252 13.0095 28.4721C13.0818 28.2486 13.1992 28.0363 13.3527 27.8421C13.4092 27.7722 13.4837 27.6864 13.5063 27.6683L13.513 27.6638C13.7456 27.4312 14.0346 27.2438 14.3507 27.1264C14.6329 27.0203 14.9332 26.9661 15.2448 26.9661C15.3464 26.9661 15.4525 26.9729 15.5586 26.9842C15.4367 27.3274 15.0416 28.2305 14.4749 28.8853L14.4523 28.9101L14.7435 29.1381L14.7639 29.1133C14.7639 29.1133 15.0754 28.7182 15.466 28.8536C15.6986 28.9327 15.8905 29.1156 15.9808 29.3413C16.0395 29.4903 16.0531 29.6552 16.0237 29.8358H16.0192ZM16.2834 29.1314C16.1456 28.8424 15.8883 28.6121 15.5812 28.5082C15.4841 28.4743 15.3848 28.4585 15.2877 28.4585C15.2764 28.4585 15.2674 28.4585 15.2561 28.4585C15.6173 27.8986 15.8228 27.3477 15.9199 27.0474C16.254 27.1264 16.5814 27.2619 16.893 27.4493C16.9968 27.5102 17.0984 27.5735 17.2023 27.6412C16.9901 27.8873 16.613 28.384 16.2834 29.1314ZM17.1662 36.3993C17.4349 36.8892 17.6922 37.1895 17.8097 37.3159C17.4529 37.6975 17.0646 37.982 16.7101 38.122C16.6469 38.1468 16.5814 38.1671 16.5092 38.1874C16.4076 37.772 16.1931 37.3792 16.0192 37.106C16.1682 37.1172 16.3105 37.1014 16.464 37.0563C16.7711 36.9637 17.0397 36.7108 17.1662 36.4015V36.3993ZM14.4207 37.2753C14.213 36.835 14.1859 36.3022 14.3507 35.8484C14.4884 35.469 14.7481 35.1823 15.1048 35.0175C15.308 34.9249 15.5089 34.8775 15.7031 34.8775C15.8702 34.8775 16.0305 34.9114 16.1795 34.9791C16.4866 35.1191 16.7575 35.4058 16.8388 35.6745C17.0014 36.2254 16.6582 36.607 16.3601 36.7018C15.9989 36.817 15.7392 36.7086 15.4615 36.327L15.4435 36.3022L15.1432 36.5212L15.1658 36.5483C15.1974 36.5867 15.947 37.4672 16.1524 38.2462C15.4299 38.3003 14.721 37.903 14.4229 37.273L14.4207 37.2753ZM47.2109 35.6542C47.2945 35.372 47.5293 35.1146 47.8228 34.9814C48.0508 34.8775 48.4234 34.8007 48.8975 35.0197C49.252 35.1823 49.5139 35.4713 49.6516 35.8506C49.8164 36.3022 49.7893 36.835 49.5816 37.2775C49.2836 37.9097 48.5746 38.3049 47.8521 38.2507C48.0598 37.4649 48.832 36.5618 48.8388 36.5528L48.8614 36.5257L48.5588 36.3067L48.5408 36.3315C48.236 36.7515 48.0079 36.7718 47.6399 36.6612C47.317 36.5641 47.0574 36.178 47.2109 35.6542ZM46.879 36.3789C46.9964 36.6883 47.238 36.9208 47.5338 37.0111C47.7144 37.0653 47.8612 37.0924 47.9876 37.0924C47.8092 37.3701 47.5925 37.7675 47.4886 38.1852C47.4164 38.1649 47.3486 38.1446 47.2877 38.1197C46.9355 37.9797 46.5449 37.6952 46.1881 37.3137C46.3439 37.1556 46.6171 36.8418 46.8768 36.3767L46.879 36.3789ZM44.2396 32.6626C44.1448 35.828 45.8878 37.9572 47.1545 38.4584C47.7302 38.6864 48.3624 38.6684 48.9043 38.4132C48.5475 39.0409 48.0824 39.9418 47.7799 40.8336C47.5857 41.4094 47.4119 42.0551 47.229 42.7415L47.177 42.9356C46.8564 44.1368 46.4568 45.6337 45.9736 46.6181C44.6302 49.3478 42.6998 51.2196 39.8956 52.511C37.5791 53.579 35.0052 54.1186 32.2439 54.1186C31.0946 54.1186 27.595 54.1186 24.1044 52.511C21.2777 51.2083 19.4217 49.4178 18.0874 46.7039C17.5861 45.6879 17.121 44.0578 16.7733 42.7505L16.7688 42.7369C16.5859 42.0528 16.4143 41.4094 16.2179 40.8359C15.9153 39.9463 15.4502 39.0432 15.0935 38.4155C15.6354 38.6706 16.2653 38.6864 16.8433 38.4584C18.0219 37.9933 19.8349 36.0267 19.6904 32.7371C19.5662 29.9035 18.7354 28.1244 17.0804 27.1355C16.1366 26.571 15.1206 26.4468 14.2197 26.7832C14.1859 26.7968 14.152 26.8103 14.1159 26.8239C14.7052 25.993 15.4638 24.8754 15.886 24.0716C16.473 22.954 16.6424 22.1705 17.0104 20.4523V20.441C17.112 19.9759 17.2249 19.4521 17.3671 18.829C17.5703 17.9303 18.04 17.2575 18.7263 16.8782L18.9205 16.7789C19.0334 16.7292 19.1531 16.684 19.2727 16.6502C19.9275 16.4628 20.7155 16.5237 21.2957 16.7992C20.5145 17.5849 19.4195 18.1426 19.3743 18.1674C18.8031 18.4564 18.2522 19.1292 18.4125 20.152C18.6225 21.4774 19.9772 21.6603 20.7448 21.5609C21.2506 21.4932 21.9956 21.168 22.4337 20.4681C22.4517 20.4388 24.2535 17.481 26.1365 15.7245C27.1976 14.7355 28.024 14.0221 28.5952 13.5999C28.83 13.7308 30.2886 14.4962 31.9978 14.4962C33.7069 14.4962 35.1632 13.7286 35.4003 13.5999C35.9715 14.0221 36.7979 14.7378 37.8568 15.7245C39.3153 17.0837 40.7152 19.1383 41.4196 20.2423C41.9028 21.0213 42.5192 21.4638 43.2484 21.5609C44.0161 21.6603 45.3708 21.4774 45.5808 20.152C45.7433 19.1292 45.1879 18.4632 44.6122 18.181C44.6009 18.1742 43.49 17.5962 42.6975 16.7992C43.2778 16.5215 44.0658 16.4628 44.7205 16.6502C44.8447 16.6863 45.0186 16.754 45.0728 16.7789C45.1269 16.8037 45.1518 16.8172 45.1834 16.833L45.1924 16.8376C45.9217 17.2078 46.4184 17.8965 46.6284 18.829C46.7752 19.4747 46.8971 20.0414 46.9851 20.4546C47.3554 22.1705 47.5225 22.954 48.1095 24.0716C48.5317 24.8731 49.2904 25.993 49.8796 26.8239C49.8458 26.8081 49.8097 26.7945 49.7758 26.7832C48.8772 26.4468 47.8612 26.571 46.9151 27.1355C45.1698 28.1763 44.3164 29.9329 44.2351 32.6626H44.2396ZM47.7167 29.1314C47.3893 28.3863 47.0122 27.8873 46.7977 27.6412C46.8971 27.5757 47.0009 27.5102 47.1071 27.4493C47.4186 27.2619 47.746 27.1287 48.0802 27.0474C48.1773 27.3477 48.3827 27.8986 48.744 28.4585C48.6356 28.454 48.525 28.4721 48.4188 28.5082C48.1118 28.6121 47.8544 28.8424 47.7167 29.1314ZM50.0783 30.7728C49.6561 30.9647 48.5859 31.116 48.1547 30.3235C48.0824 30.188 48.0192 30.0187 47.9876 29.8674C47.956 29.6755 47.9695 29.4836 48.0237 29.3413C48.1118 29.1156 48.3037 28.9327 48.5385 28.8536C48.5995 28.8333 48.6604 28.822 48.7214 28.822C49.0081 28.822 49.2317 29.102 49.2407 29.1133L49.261 29.1381L49.5523 28.9101L49.5297 28.8853C48.963 28.2282 48.5701 27.3251 48.4459 26.9842C48.8681 26.9368 49.2746 26.9842 49.6516 27.1264C49.9677 27.2438 50.2567 27.429 50.487 27.6615C50.487 27.6615 50.5705 27.7496 50.6473 27.8421C50.8031 28.0363 50.9182 28.2486 50.9905 28.4721C51.3992 29.7252 50.4622 30.5967 50.0761 30.7705L50.0783 30.7728Z" fill="#231815"/>
<path id="Vector_15" d="M35.7931 38.1874C36.1928 38.149 36.7324 38.0926 37.2517 38.0361C37.2697 38.1377 37.2833 38.2325 37.2901 38.3206L37.7055 38.1964C37.6558 37.7607 37.473 37.1172 37.2336 36.6137L36.8543 36.7334C36.9762 37.0043 37.0869 37.3317 37.1659 37.6365C36.913 37.6568 36.6556 37.6816 36.4163 37.6997C36.6127 36.9727 36.8137 35.9973 36.9288 35.1687L36.4434 35.1055C36.3666 35.9273 36.186 36.9749 35.9941 37.7358L35.7344 37.7539L35.7909 38.1874H35.7931Z" fill="#231815"/>
<path id="Vector_16" d="M34.6077 35.9523C34.5694 36.3429 34.4949 36.8284 34.4294 37.1445L34.8471 37.2145L34.8742 37.0632H35.3777C35.3348 37.5757 35.2783 37.8015 35.2128 37.8692C35.1699 37.9054 35.1383 37.9121 35.0796 37.9121C35.0029 37.9121 34.838 37.9099 34.671 37.8941C34.7455 38.0092 34.7951 38.1785 34.8019 38.3095C34.9848 38.3118 35.1632 38.3163 35.2693 38.3027C35.3957 38.2847 35.4793 38.2508 35.5651 38.1582C35.6847 38.025 35.7479 37.6728 35.8112 36.8577C35.8179 36.8013 35.8225 36.6884 35.8225 36.6884H34.9374C34.9555 36.5755 34.9735 36.4604 34.9871 36.3429H35.8134V35.1621H34.5129V35.5527H35.4093V35.9523H34.6123H34.6077Z" fill="#231815"/>
<path id="Vector_17" d="M35.3257 40.0141H36.7595V39.698C36.9243 39.8877 37.1207 40.0593 37.3284 40.1902C37.4029 40.0909 37.5565 39.9396 37.6558 39.8696C37.3013 39.6913 36.9672 39.3639 36.7978 39.041H35.5538V39.4271H36.5495C36.6059 39.5084 36.6691 39.5919 36.7369 39.6687H35.328V40.0141H35.3257Z" fill="#231815"/>
<path id="Vector_18" d="M34.671 41.3982C34.7726 41.335 34.8787 41.2605 34.9803 41.1769V41.7323H34.4768V42.1094H37.5881V41.7323H37.1207V41.1634C37.2088 41.2311 37.3036 41.2898 37.3985 41.3417C37.4684 41.2401 37.6197 41.0843 37.7191 41.0121C37.342 40.8541 36.9988 40.556 36.834 40.2422H35.4838V40.4951L35.1384 40.3867C34.9758 40.6712 34.6778 40.9308 34.3617 41.0866C34.452 41.1611 34.6033 41.3214 34.671 41.4004V41.3982ZM35.5877 41.7323H35.3484V41.3101H35.5877V41.7323ZM36.1612 41.7323H35.9151V41.3101H36.1612V41.7323ZM36.7301 41.7323H36.484V41.3101H36.7301V41.7323ZM35.4838 40.6125V40.6328H36.5902C36.6827 40.757 36.7866 40.8744 36.9063 40.9873H35.1835C35.2964 40.8721 35.398 40.7457 35.4816 40.6102L35.4838 40.6125Z" fill="#231815"/>
<path id="Vector_19" d="M34.741 40.224C35.0435 40.0095 35.3596 39.6573 35.5447 39.2961L35.1225 39.1719C34.9713 39.4631 34.7003 39.7386 34.4136 39.9147C34.5084 39.9847 34.671 40.1427 34.741 40.224Z" fill="#231815"/>
<path id="Vector_20" d="M28.2114 35.3089C28.2159 35.2343 28.2182 35.1644 28.2227 35.1079H27.744C27.7192 35.5708 27.7689 37.167 26.3668 37.946C26.5067 38.0453 26.6445 38.1718 26.719 38.2801C27.4618 37.8263 27.8298 37.149 28.0195 36.5145C28.2159 37.1603 28.6088 37.885 29.4035 38.2801C29.4713 38.1672 29.5977 38.0227 29.7264 37.9257C28.4146 37.3093 28.2385 35.7943 28.2114 35.3089Z" fill="#231815"/>
<path id="Vector_21" d="M28.1527 40.337H29.1077V41.712C29.1077 41.7685 29.0874 41.7888 29.0242 41.7888C28.979 41.7933 28.8481 41.7933 28.7103 41.7888V40.5402H27.3557V42.062H27.735V41.8836H28.6065C28.6494 41.992 28.6878 42.1229 28.6968 42.211C28.9993 42.211 29.2025 42.1997 29.3403 42.1297C29.4803 42.062 29.5277 41.9401 29.5277 41.7143V39.0591H28.1504V40.3347L28.1527 40.337ZM28.3175 41.5788H27.7372V41.3598H28.3175V41.5788ZM28.3175 41.0618H27.7372V40.8518H28.3175V41.0618ZM28.55 39.3639H29.11V39.549H28.55V39.3639ZM28.55 39.8313H29.11V40.039H28.55V39.8313Z" fill="#231815"/>
<path id="Vector_22" d="M27.9088 39.061H26.5632V42.2107H26.9786V40.3299H27.9111V39.061H27.9088ZM27.5182 40.0319H26.9764V39.831H27.5182V40.0319ZM27.5182 39.5487H26.9764V39.3613H27.5182V39.5487Z" fill="#231815"/>
<path id="Vector_23" d="M56.0096 32.4546C56.0096 19.217 45.2398 8.44727 32.0023 8.44727C18.7647 8.44727 7.99268 19.217 7.99268 32.4546C7.99268 45.6922 18.7625 56.4642 32.0023 56.4642C45.2421 56.4642 56.0096 45.6944 56.0096 32.4546ZM32 56.0871C18.9702 56.0871 8.36747 45.4867 8.36747 32.4546C8.36747 19.4225 18.9679 8.82432 32 8.82432C45.0321 8.82432 55.6303 19.4248 55.6303 32.4546C55.6303 45.4844 45.0299 56.0871 32 56.0871Z" fill="#231815"/>
<path id="Vector_24" d="M32 0.5C14.3552 0.5 0 14.8552 0 32.5C0 50.1448 14.3552 64.5 32 64.5C49.6448 64.5 64 50.1448 64 32.5C64 14.8552 49.6448 0.5 32 0.5ZM32 64.1207C14.5629 64.1207 0.379313 49.9371 0.379313 32.5C0.379313 15.0629 14.5629 0.879313 32 0.879313C49.4371 0.879313 63.6207 15.0652 63.6207 32.5023C63.6207 49.9394 49.4348 64.123 32 64.123V64.1207Z" fill="#231815"/>
<path id="Vector_25" d="M7.82557 25.528L5.74612 24.8168L6.49797 22.6177L8.57742 23.3289L8.85062 22.5251L4.0505 20.8882L3.77731 21.6897L5.77321 22.3716L5.02136 24.5707L3.02771 23.8888L2.75677 24.6791L7.55689 26.3182L7.82557 25.528Z" fill="#231815"/>
<path id="Vector_26" d="M6.86373 20.7163C7.31078 20.976 7.82104 21.1318 8.32679 21.1318C9.07865 21.1318 9.82147 20.7841 10.3272 19.9148C10.6975 19.2781 10.781 18.6121 10.5733 17.9866C10.3791 17.3996 9.92307 16.8758 9.29314 16.51C8.59322 16.1036 7.88878 15.984 7.25659 16.1668C6.67407 16.3339 6.18187 16.7381 5.83191 17.3364C5.1207 18.5601 5.54517 19.9509 6.86373 20.7186V20.7163ZM6.49796 17.6818C6.73729 17.2709 7.09177 17.018 7.52301 16.9526C7.59978 16.9413 7.6788 16.9345 7.76008 16.9345C8.09875 16.9345 8.46 17.0384 8.80319 17.2393C9.6002 17.7022 10.2482 18.5511 9.67245 19.5445C9.42183 19.978 9.06284 20.2241 8.60676 20.2761C8.20036 20.3235 7.72396 20.2038 7.26788 19.9374C6.80277 19.6687 6.48442 19.3142 6.34669 18.9146C6.20896 18.515 6.26089 18.0882 6.49796 17.6841V17.6818Z" fill="#231815"/>
<path id="Vector_27" d="M12.4248 16.7045L9.74024 14.3361L13.9962 14.9231L14.5133 14.3361L10.7111 10.981L10.167 11.5951L12.8583 13.968L8.5865 13.3878L8.06042 13.9861L11.8626 17.3412L12.4248 16.7045Z" fill="#231815"/>
<path id="Vector_28" d="M14.9467 13.0058C15.1003 13.0419 15.2538 13.0578 15.4051 13.0578C15.8815 13.0578 16.3511 12.8884 16.7846 12.5543C17.2745 12.1772 17.5861 11.685 17.6516 11.1996L17.9677 11.5676L18.5321 11.1341L16.8794 8.98014L15.0551 10.38L15.5134 10.976L16.7327 10.0413C17.1188 10.7345 16.9923 11.4366 16.394 11.8972C15.5022 12.5814 14.5945 12.0508 14.0888 11.3915C13.7591 10.9602 13.5762 10.5245 13.5627 10.1316C13.5469 9.68458 13.7456 9.30075 14.1542 8.98691C14.73 8.54438 15.3486 8.55567 15.8499 9.01401L15.9131 9.07271L16.5588 8.51052L16.482 8.43827C15.676 7.67287 14.6464 7.63674 13.7275 8.34118C12.5264 9.26237 12.3931 10.6329 13.3798 11.9176C13.8223 12.4933 14.3642 12.8704 14.9467 13.0036V13.0058Z" fill="#231815"/>
<path id="Vector_29" d="M17.7366 5.83416L17.0012 6.24463L19.4729 10.6726L20.2082 10.2621L17.7366 5.83416Z" fill="#231815"/>
<path id="Vector_30" d="M21.9211 9.40704L21.3047 7.84463L21.7021 6.9686L24.2376 8.49714L25.2785 8.08847L22.0476 6.2032L23.2736 3.42383L22.2146 3.84152L20.9232 6.86699L20.0652 4.68595L19.2885 4.99301L21.1444 9.7141L21.9211 9.40704Z" fill="#231815"/>
<path id="Vector_31" d="M27.5183 6.97553C27.8344 7.34807 28.304 7.53773 28.9226 7.53773C29.0445 7.53773 29.1732 7.53096 29.3065 7.51515C30.1622 7.42032 30.7334 6.99134 30.9185 6.30948C31.0088 5.97984 30.975 5.55989 30.9343 5.19412L30.6024 2.20703L29.7512 2.30186L30.0719 5.20089C30.1509 5.91436 30.1441 6.6188 29.1416 6.72943C28.1527 6.84007 27.9992 6.22368 27.9156 5.46732L27.5905 2.54119L26.7393 2.63602L27.0532 5.45828C27.1073 5.955 27.1773 6.57139 27.516 6.97553H27.5183Z" fill="#231815"/>
<path id="Vector_32" d="M33.1537 3.72849L35.2354 7.48549L36.0167 7.54871L36.4208 2.49346L35.6035 2.42573L35.3167 6.0021L33.2215 2.23607L32.4267 2.17285L32.0203 7.2281L32.867 7.29583L33.1537 3.72849Z" fill="#231815"/>
<path id="Vector_33" d="M38.151 2.8668L37.0457 7.81592L37.8676 7.99949L38.9729 3.05037L38.151 2.8668Z" fill="#231815"/>
<path id="Vector_34" d="M40.9048 8.94421L44.4315 4.83047L43.5826 4.52115L41.0222 7.6121L41.0132 3.58416L40.1507 3.26807L40.2139 8.69134L40.9048 8.94421Z" fill="#231815"/>
<path id="Vector_35" d="M46.1271 11.5949L46.5132 10.9243L44.0951 9.53805L44.8063 8.29625L47.0212 9.56288L47.4051 8.89231L45.1924 7.62568L45.8359 6.50129L48.1795 7.84469L48.5791 7.15154L45.5017 5.38818L42.9797 9.79092L46.1271 11.5949Z" fill="#231815"/>
<path id="Vector_36" d="M47.3915 12.5885L48.7011 11.0442L49.4078 11.6425C49.5161 11.7328 49.8029 11.9767 49.8819 12.1415C50.0287 12.4553 49.839 12.7398 49.6381 13.0378C49.6064 13.0852 49.5748 13.1327 49.5455 13.1801C49.3558 13.4758 49.2587 13.67 49.1729 14.029L49.1594 14.0855L49.9948 14.7922L49.9745 14.5596C49.9451 14.2209 50.1619 13.8642 50.3718 13.521C50.6315 13.0965 50.9002 12.6585 50.706 12.2341C51.153 12.3469 51.6249 12.1844 51.9704 11.7757C52.2097 11.4935 52.3339 11.209 52.3519 10.911C52.3948 10.2743 52.0088 9.85431 51.5843 9.49532L50.0287 8.17676L46.7503 12.0467L47.387 12.5863L47.3915 12.5885ZM50.1777 9.30341L50.8753 9.8927C51.3743 10.3149 51.7514 10.71 51.2998 11.2406C50.9476 11.6583 50.5592 11.647 50.0399 11.2067L49.1797 10.4775L50.1777 9.30115V9.30341Z" fill="#231815"/>
<path id="Vector_37" d="M53.0677 16.3455C52.8916 16.49 52.6929 16.5306 52.4739 16.4652C52.2819 16.4064 52.0878 16.2687 51.9297 16.0746C51.4466 15.4898 51.4601 15.0021 51.9704 14.4896L52.0404 14.4196L51.4037 13.8303L51.3382 13.8935C50.557 14.6589 50.5457 15.5936 51.3111 16.5216C51.6227 16.9009 52.0065 17.1673 52.3881 17.2735C52.5145 17.3096 52.6409 17.3254 52.7651 17.3254C53.0812 17.3254 53.3838 17.2125 53.657 16.9867C54.533 16.2665 54.1582 15.3904 53.8285 14.616L53.7518 14.4376C53.4763 13.7851 53.4289 13.6384 53.7021 13.4126C53.8647 13.2794 54.043 13.241 54.2327 13.2997C54.3998 13.3516 54.5714 13.4781 54.7204 13.6587C55.1155 14.1396 55.1087 14.5573 54.7001 14.9773L54.6323 15.0472L55.2352 15.623L55.3006 15.562C55.5174 15.3656 55.6619 15.1353 55.7612 14.8418C55.9373 14.3135 55.7816 13.7625 55.2803 13.1529C54.7859 12.5524 53.9211 12.0895 53.1106 12.7578C52.5777 13.1981 52.4851 13.7309 52.8148 14.4896L53.0654 15.0698C53.2573 15.5124 53.4763 16.0113 53.0699 16.3477L53.0677 16.3455Z" fill="#231815"/>
<path id="Vector_38" d="M57.2493 15.9302L52.9691 18.6538L53.4212 19.3643L57.7014 16.6407L57.2493 15.9302Z" fill="#231815"/>
<path id="Vector_39" d="M58.2629 19.2555L54.4111 21.1317L54.7836 21.8949L58.6354 20.0186L59.2721 21.3237L59.9788 20.9782L58.3284 17.5938L57.6217 17.9392L58.2629 19.2555Z" fill="#231815"/>
<path id="Vector_40" d="M55.8696 24.627L56.118 25.424L58.0642 24.8166L61.5367 25.7559L61.2365 24.7986L58.78 24.1732L60.444 22.2608L60.1482 21.3125L57.8159 24.0196L55.8696 24.627Z" fill="#231815"/>
<path id="Vector_41" d="M3.5741 33.0168C3.58313 33.5338 3.63732 34.1186 4.19274 34.5024C4.45013 34.6786 4.76623 34.7711 5.1049 34.7711C5.11619 34.7711 5.12522 34.7711 5.13425 34.7711C5.60162 34.7643 5.98996 34.6086 6.25638 34.3263C6.52958 34.0351 6.66956 33.6106 6.66053 33.0958L6.62892 31.1157L1.60303 31.197L1.61657 32.0392L3.55378 32.0076L3.56958 33.0145L3.5741 33.0168ZM5.87255 31.9737L5.88384 32.651C5.89739 33.4074 5.84998 33.9041 5.10941 33.9177C4.92201 33.9222 4.65785 33.8748 4.48626 33.64C4.34853 33.448 4.34401 33.0665 4.34176 32.922L4.32595 31.9985L5.87255 31.9737Z" fill="#231815"/>
<path id="Vector_42" d="M4.70982 38.8334C4.98076 39.2014 5.44587 39.3708 5.96742 39.2759C6.32867 39.2105 6.60187 39.0705 6.80507 38.8515C7.23857 38.3886 7.20696 37.8242 7.10762 37.2823L6.74185 35.2954L1.79724 36.2031L1.94626 37.0181L3.91959 36.6569L4.08441 37.56C4.10924 37.6977 4.17698 38.0635 4.13408 38.2419C4.05054 38.5738 3.72767 38.6731 3.38448 38.777C3.3303 38.7928 3.27611 38.8108 3.22418 38.8266C2.89228 38.935 2.69585 39.0208 2.40685 39.2443L2.35944 39.2805L2.55587 40.3507L2.68682 40.1565C2.87648 39.8788 3.26708 39.741 3.64413 39.6101C4.10924 39.4475 4.5879 39.2805 4.70756 38.8357L4.70982 38.8334ZM6.14353 36.2482L6.3061 37.1378C6.42802 37.7971 6.4664 38.3118 5.7868 38.4383C5.25621 38.5354 4.96495 38.2848 4.84303 37.6232L4.64209 36.5259L6.14353 36.2505V36.2482Z" fill="#231815"/>
<path id="Vector_43" d="M8.39001 41.5965C7.88426 40.287 6.54538 39.7542 5.13424 40.3005C4.49754 40.5466 3.98727 40.9689 3.69602 41.4882C3.36637 42.0797 3.33477 42.7683 3.61022 43.475C3.87438 44.1546 4.33723 44.6333 4.9491 44.8613C5.20424 44.9562 5.4842 45.0036 5.7732 45.0036C6.13445 45.0036 6.51151 44.9313 6.88405 44.7868C8.33131 44.2269 8.92286 42.9738 8.38775 41.5965H8.39001ZM4.30337 43.1996C3.8947 42.1452 4.64656 41.4204 5.48646 41.0953C5.7732 40.9847 6.05092 40.9282 6.31282 40.9282C6.50248 40.9282 6.68085 40.9576 6.84792 41.0163C7.24078 41.1563 7.53882 41.4611 7.70589 41.8946C7.87523 42.3326 7.85265 42.7638 7.6359 43.1386C7.43496 43.4863 7.07596 43.7753 6.62214 43.9514C5.77095 44.2811 4.71429 44.2562 4.30337 43.1973V43.1996Z" fill="#231815"/>
<path id="Vector_44" d="M12.3525 48.5441L10.6772 49.7927L9.30218 47.948L10.9775 46.6994L10.4808 46.0356L6.45056 49.0385L6.94728 49.7023L8.69257 48.4018L10.0676 50.2465L8.32229 51.547L8.82578 52.2243L12.856 49.2192L12.3525 48.5441Z" fill="#231815"/>
<path id="Vector_45" d="M15.0709 54.7462C16.114 53.5969 16.0824 52.2129 14.9896 51.2217C13.951 50.278 12.5151 50.3999 11.4991 51.5198C11.0407 52.0255 10.772 52.6306 10.7449 53.2267C10.7133 53.904 10.9956 54.5317 11.5555 55.0419C12.0296 55.4732 12.5693 55.6945 13.1337 55.6945C13.2127 55.6945 13.2918 55.6899 13.373 55.6809C13.9827 55.6132 14.5855 55.2813 15.0709 54.7462ZM13.3053 54.8523C12.8492 54.9494 12.4315 54.8252 12.0545 54.482C11.2168 53.7211 11.5668 52.739 12.1719 52.0729C12.5286 51.6801 12.9373 51.4452 13.3527 51.3956C13.4069 51.3888 13.4634 51.3865 13.5175 51.3865C13.8743 51.3865 14.2152 51.5265 14.5132 51.7975C15.2944 52.5064 15.0506 53.475 14.4636 54.123C14.1113 54.5114 13.6982 54.771 13.303 54.8545L13.3053 54.8523Z" fill="#231815"/>
<path id="Vector_46" d="M20.4581 55.1233L17.3197 57.6024L17.9564 53.6512L17.1143 53.1567L14.5652 57.4895L15.2809 57.9094L15.3283 57.8259C15.3419 57.8033 16.3985 55.9677 16.9946 54.9427L16.3714 58.5552L16.9111 58.8713L19.7604 56.6202C19.1553 57.6114 18.0738 59.4131 18.0603 59.4357L18.0106 59.5193L18.7309 59.9437L21.2799 55.611L20.4558 55.1256L20.4581 55.1233Z" fill="#231815"/>
<path id="Vector_47" d="M22.0621 55.8338L20.1599 60.4858L20.9332 60.802L22.8354 56.15L22.0621 55.8338Z" fill="#231815"/>
<path id="Vector_48" d="M25.7684 60.7631L24.4047 56.7736L24.3866 56.7239L23.6235 56.5229L22.3411 61.384L23.1561 61.5985L24.0593 58.1712L25.4298 62.1991L26.1816 62.3955L27.464 57.5367L26.6761 57.329L25.7684 60.7631Z" fill="#231815"/>
<path id="Vector_49" d="M30.8847 60.7499C30.8598 61.0683 30.8192 61.4273 30.6521 61.6914C30.4692 61.9782 30.1576 62.1024 29.6971 62.0662C28.7126 61.9895 28.681 61.3618 28.7375 60.6122L28.961 57.7041L28.1143 57.6387L27.8976 60.4451C27.8592 60.9396 27.8118 61.5537 28.0692 62.0098C28.3559 62.5155 28.9068 62.8045 29.7106 62.8655C29.7851 62.87 29.8574 62.8745 29.9274 62.8745C30.6679 62.8745 31.2233 62.5652 31.501 61.9895C31.6523 61.6847 31.6952 61.2692 31.7223 60.9057L31.9503 57.9344L31.1037 57.869L30.8824 60.7499H30.8847Z" fill="#231815"/>
<path id="Vector_50" d="M36.484 57.5097L35.4883 61.3818L33.6031 57.8529L32.6322 57.968L33.2283 62.96L34.0524 62.8607L34.0411 62.7636C34.0388 62.7388 33.7679 60.6368 33.6211 59.4604L35.3122 62.7094L35.9331 62.6349L36.8363 59.1172C36.9559 60.271 37.1862 62.3617 37.1885 62.3866L37.1998 62.4836L38.0306 62.3843L37.4346 57.3945L36.4863 57.5074L36.484 57.5097Z" fill="#231815"/>
<path id="Vector_51" d="M43.5216 57.7355C43.7835 57.4194 43.8309 56.9972 43.6458 56.5434C43.4471 56.0512 43.1107 55.787 42.6501 55.7554C42.2663 55.7306 41.8689 55.866 41.528 56.0038L39.8323 56.6901L41.7199 61.3503L43.2936 60.7136C43.8625 60.4833 45.1969 59.9437 44.6392 58.5641C44.427 58.0381 44.0251 57.7468 43.5193 57.7355H43.5216ZM40.8958 57.0649L41.7966 56.6992C41.9953 56.6179 42.2527 56.5276 42.4649 56.5524C42.6727 56.575 42.8149 56.6992 42.9143 56.9408C43.0023 57.162 42.9752 57.363 42.833 57.5413C42.7178 57.6858 42.2798 57.8619 42.1353 57.9207L41.3677 58.2322L40.8958 57.0649ZM42.9391 60.0362L42.2166 60.3297L41.6521 58.9344L42.5462 58.5732C43.0407 58.3722 43.5893 58.2142 43.8512 58.8576C44.1109 59.5011 43.5171 59.8059 42.9413 60.0385L42.9391 60.0362Z" fill="#231815"/>
<path id="Vector_52" d="M46.6487 58.2482L45.9127 57.038L48.0734 55.7262L47.6738 55.0692L45.5153 56.3832L44.8492 55.2882L47.1387 53.8974L46.7255 53.2178L43.7226 55.0421L46.3326 59.3387L49.4055 57.4715L49.0081 56.8145L46.6487 58.2482Z" fill="#231815"/>
<path id="Vector_53" d="M49.5342 50.8357L51.8711 53.509L47.7528 52.3913L47.1567 52.9129L50.4644 56.697L51.0989 56.1438L48.7666 53.4751L52.869 54.595L53.4538 54.0847L50.1461 50.2983L49.5342 50.8357Z" fill="#231815"/>
<path id="Vector_54" d="M54.4743 51.7819L53.3747 50.8878L54.9687 48.9257L54.3727 48.4426L52.7787 50.4023L51.7852 49.5963L53.4763 47.5191L52.8599 47.0156L50.6428 49.7431L54.542 52.913L56.8111 50.1246L56.215 49.6392L54.4743 51.7819Z" fill="#231815"/>
<path id="Vector_55" d="M57.1791 45.2566L56.5221 44.8728L55.3955 46.7987L54.2891 46.153L55.5242 44.0419L54.8423 43.6445L53.1851 46.4826L57.5246 49.0204L57.949 48.2934L56.0525 47.1825L57.1791 45.2566Z" fill="#231815"/>
<path id="Vector_56" d="M55.4122 42.2343L55.0781 43L59.6868 45.0106L60.0208 44.2449L55.4122 42.2343Z" fill="#231815"/>
<path id="Vector_57" d="M60.2317 38.359L60.1414 38.3138L59.8163 39.0725L59.8863 39.1154C60.4778 39.4856 60.7217 40.0772 60.541 40.6958C60.243 41.7141 59.2496 41.8157 58.4209 41.5719C58.0055 41.4499 56.6757 40.951 57.0572 39.6572C57.2424 39.0296 57.7278 38.7135 58.4187 38.7631L58.5045 38.7699L58.6648 37.9458L58.5654 37.9323C57.4862 37.7742 56.6463 38.3432 56.3189 39.454C56.1089 40.1698 56.1902 40.8245 56.5537 41.3529C56.8856 41.8315 57.4433 42.1995 58.1681 42.4118C58.5158 42.5134 58.8454 42.5653 59.1502 42.5653C60.182 42.5653 60.9407 41.9918 61.2522 40.9284C61.5774 39.8221 61.1868 38.8376 60.234 38.359H60.2317Z" fill="#231815"/>
<path id="Vector_58" d="M57.0931 36.1076L56.9618 36.9326L61.9275 37.7227L62.0588 36.8976L57.0931 36.1076Z" fill="#231815"/>
<path id="Vector_59" d="M59.8072 30.8135C58.308 30.8135 57.3214 31.7347 57.2852 33.1819C57.2672 33.8977 57.511 34.5118 57.9919 34.9543C58.4412 35.3697 59.0825 35.6091 59.7937 35.6271C59.8208 35.6271 59.8479 35.6271 59.875 35.6271C61.1258 35.6271 62.3811 34.9092 62.4218 33.279C62.4398 32.5497 62.196 31.9311 61.7173 31.4863C61.268 31.0709 60.6223 30.8315 59.8998 30.8135C59.8682 30.8135 59.8388 30.8135 59.8095 30.8135H59.8072ZM61.6744 33.27C61.6631 33.7667 61.469 34.1505 61.0987 34.4124C60.7668 34.6472 60.2994 34.7692 59.7756 34.7579C59.245 34.7443 58.8002 34.5885 58.4909 34.3086C58.1816 34.0263 58.0235 33.6335 58.0348 33.1684C58.0461 32.6988 58.2335 32.3104 58.5767 32.0462C58.8815 31.8114 59.3015 31.685 59.7621 31.685C59.7824 31.685 59.8027 31.685 59.823 31.685C60.7374 31.7076 61.7015 32.1366 61.6744 33.2722V33.27Z" fill="#231815"/>
<path id="Vector_60" d="M28.1143 49.246C28.0511 49.5666 27.8343 49.7224 27.4505 49.7224H27.4189V50.0521H28.0285V51.9373H28.4575V49.2212H28.1188L28.1143 49.246Z" fill="#231815"/>
<path id="Vector_61" d="M30.9117 49.3861C30.7356 49.2371 30.5301 49.1626 30.284 49.1626C29.7286 49.1626 29.3425 49.5464 29.3425 50.0973C29.3425 50.6482 29.6993 51.0117 30.2276 51.0117C30.5008 51.0117 30.7333 50.9079 30.8914 50.7137C30.8756 50.9869 30.7808 51.592 30.2705 51.592C30.0063 51.592 29.8415 51.4362 29.8144 51.1675V51.1359L29.3877 51.1675V51.1991C29.4351 51.6665 29.7512 51.9578 30.2163 51.9578C30.6227 51.9578 31.3046 51.7726 31.3046 50.5241C31.3046 49.9844 31.1759 49.6096 30.914 49.3816L30.9117 49.3861ZM30.2727 50.6302C29.9792 50.6302 29.767 50.4112 29.767 50.1086C29.767 49.7632 29.9657 49.5419 30.2727 49.5419C30.5798 49.5419 30.8056 49.779 30.8056 50.1041C30.8056 50.4134 30.5866 50.6279 30.2727 50.6279V50.6302Z" fill="#231815"/>
<path id="Vector_62" d="M33.436 49.2168H33.1041L31.851 50.9169V51.3279H33.0138V51.9375H33.4337V51.3279H33.8334V50.9531H33.4337V49.2168H33.436ZM33.0138 50.9531H32.2935L33.0341 49.8919C33.0273 50.1877 33.016 50.8063 33.0138 50.9531Z" fill="#231815"/>
<path id="Vector_63" d="M35.4342 50.1134C35.1587 50.1134 34.9171 50.2241 34.7658 50.4137C34.8087 49.8267 35.021 49.5287 35.3958 49.5287C35.6509 49.5287 35.8338 49.698 35.8473 49.9509V49.9825L36.265 49.9554L36.2605 49.9215C36.2041 49.4451 35.8835 49.1606 35.4025 49.1606C35.1564 49.1606 34.3481 49.2622 34.3481 50.5786C34.3481 51.4704 34.7117 51.9626 35.3709 51.9626C35.9331 51.9626 36.3102 51.5901 36.3102 51.0369C36.3102 50.4837 35.9422 50.1134 35.4342 50.1134ZM35.38 51.5878C35.0661 51.5878 34.8471 51.3575 34.8471 51.0279C34.8471 50.7208 35.0729 50.4995 35.3822 50.4995C35.6915 50.4995 35.888 50.7027 35.888 51.0437C35.888 51.3643 35.678 51.5878 35.3777 51.5878H35.38Z" fill="#231815"/>
<path id="Vector_64" d="M3.58313 28.4044C3.58313 28.8288 3.92632 29.172 4.35079 29.172C4.77526 29.172 5.11844 28.8288 5.11844 28.4044C5.11844 27.9799 4.77526 27.6367 4.35079 27.6367C3.92632 27.6367 3.58313 27.9799 3.58313 28.4044Z" fill="#231815"/>
<path id="Vector_65" d="M60.1617 28.4044C60.1617 27.9799 59.8185 27.6367 59.3941 27.6367C58.9696 27.6367 58.6264 27.9799 58.6264 28.4044C58.6264 28.8288 58.9696 29.172 59.3941 29.172C59.8185 29.172 60.1617 28.8288 60.1617 28.4044Z" fill="#231815"/>
</g>
<defs>
<clipPath id="clip0_289_1596">
<rect width="64" height="64" fill="white" transform="translate(0 0.5)"/>
</clipPath>
</defs>
</svg>
