<svg width="64" height="65" viewBox="0 0 64 65" fill="none" xmlns="http://www.w3.org/2000/svg">
<g id="&#235;&#182;&#128;&#236;&#130;&#176;&#235;&#140;&#128;&#237;&#149;&#153;&#234;&#181;&#144;" clip-path="url(#clip0_289_1664)">
<path id="Vector" d="M7.59769 27.6355C7.41337 28.5391 6.83343 29.1415 6.05119 28.9842C5.24197 28.8269 4.88232 27.9817 5.04416 27.1949C5.07563 27.0196 5.13407 26.8533 5.24197 26.7049C5.15655 27.3118 5.39932 28.0311 6.07366 28.166C6.68957 28.2874 7.02225 27.9052 7.13464 27.3478C7.16611 27.1814 7.18858 27.0151 7.19308 26.8533L4.02815 26.2239C3.63703 26.143 3.3538 26.08 3.07057 26.4082H3.0481L3.32683 25.019H3.3493C3.40325 25.4057 3.92924 25.4641 4.24843 25.527L6.89187 26.0485C7.20657 26.116 7.71457 26.2553 7.92587 25.9362H7.94385L7.60218 27.631L7.59769 27.6355Z" fill="#004EA2"/>
<path id="Vector_2" d="M2.90416 32.4013C2.49955 32.0776 2.3467 31.4887 2.36019 30.9942C2.37817 30.5266 2.54451 30.0321 2.90416 29.7264C3.33125 29.3667 3.81228 29.3937 4.32479 29.4117L6.23094 29.4701C6.55463 29.4836 7.07612 29.5466 7.22448 29.1914H7.24696L7.202 30.5356H7.18402C7.05814 30.176 6.53215 30.1984 6.21296 30.1939L4.30231 30.131C3.34923 30.095 2.89967 30.4817 2.87269 31.2099C2.85921 31.6101 3.01206 32.0192 3.34024 32.2619C3.55154 32.4238 3.73136 32.4238 3.98761 32.4328L6.14103 32.5047C6.46022 32.5137 6.98171 32.5721 7.13007 32.2215H7.15255L7.10759 33.5657H7.08511C6.96373 33.206 6.43774 33.233 6.10956 33.224L3.41217 33.1341C3.09298 33.1251 2.57148 33.0622 2.42313 33.4218H2.40065L2.43212 32.3788L2.90416 32.3968V32.4013Z" fill="#004EA2"/>
<path id="Vector_3" d="M6.68057 36.7306C6.92333 36.4204 7.03123 35.9619 6.98177 35.5663C6.92783 35.1662 6.70754 34.6761 6.21752 34.7436C5.24196 34.8694 5.57464 37.2881 4.26191 37.4544C3.49765 37.5578 2.68843 36.8565 2.54457 35.7596C2.48613 35.328 2.49512 34.8919 2.58953 34.4738L3.4482 34.1501C3.14249 34.6132 2.98964 35.2201 3.06157 35.7731C3.11102 36.1687 3.43471 36.7441 3.92923 36.6857C5.03966 36.5418 4.52266 34.1456 6.0287 33.9523C6.92333 33.8399 7.38189 34.6986 7.49428 35.5618C7.54373 35.9124 7.53923 36.2766 7.4763 36.6317L6.67607 36.7351L6.68057 36.7306Z" fill="#004EA2"/>
<path id="Vector_4" d="M5.9298 40.2189L5.54317 38.8747L7.47181 39.0635L5.9298 40.2189ZM5.48023 40.5651L4.61258 41.2035C4.18099 41.5227 4.12705 41.5991 3.87529 41.3069L3.85731 41.3159L4.26191 42.714H4.2799C4.36981 42.2644 4.72047 42.0307 5.06664 41.7654L8.19111 39.3468L7.88091 38.2723H7.85843C7.84494 38.632 7.52575 38.587 7.24702 38.56L4.04612 38.2318C3.61454 38.1914 3.19195 38.1869 2.88175 37.8452H2.86377L3.21893 39.1085L3.2414 39.0995C3.27287 38.7354 3.48417 38.7264 3.91125 38.7668L4.98122 38.8432L5.47574 40.5696L5.48023 40.5651Z" fill="#004EA2"/>
<path id="Vector_5" d="M5.58805 43.3614C5.2284 43.5368 4.96765 43.6537 4.93618 44.0897L4.9182 44.0987L4.36523 42.9703L4.38322 42.9613C4.74736 43.2041 5.00362 43.0737 5.36327 42.9029L7.93028 41.6666C8.29443 41.4913 8.54618 41.3654 8.57765 40.9383L8.59564 40.9248L9.05419 41.8599H9.0452C8.98226 41.9228 8.95978 41.9678 8.93281 42.0352L8.84739 42.1881L7.02666 45.9554L9.4633 44.7776C9.82744 44.6022 10.0837 44.4854 10.1107 44.0538L10.1287 44.0448L10.6816 45.1687L10.6636 45.1777C10.304 44.9394 10.0477 45.0653 9.68808 45.2361L6.08257 46.9849C6.01514 46.4589 6.13202 46.1577 6.35681 45.6992L8.07864 42.1611L5.58805 43.3659V43.3614Z" fill="#004EA2"/>
<path id="Vector_6" d="M9.61618 50.2756C9.31946 50.5408 9.09918 50.7251 9.18909 51.1522L9.1756 51.1657L8.32593 50.2351L8.33941 50.2171C8.75751 50.352 8.9733 50.1632 9.27001 49.8979L11.3965 48.0053C11.6932 47.74 11.9045 47.5467 11.8145 47.1331L11.828 47.1196L12.5294 47.8884C12.4799 47.9693 12.4754 48.0188 12.4664 48.0907L12.4305 48.257L11.7291 52.3795L13.7432 50.5813C14.0444 50.316 14.2602 50.1317 14.1658 49.7136L14.1838 49.6956L15.0244 50.6217L15.0065 50.6352C14.5974 50.5048 14.3861 50.6892 14.0893 50.9589L11.1042 53.6248C10.8929 53.1348 10.9199 52.8156 11.0098 52.3121L11.6797 48.4413L9.62517 50.2756H9.61618Z" fill="#004EA2"/>
<path id="Vector_7" d="M15.5145 54.2183L14.4041 53.3551L16.0719 52.3796L15.5145 54.2183ZM15.3571 54.7578L15.0379 55.7873C14.8851 56.2953 14.8806 56.3942 14.5075 56.2998L14.494 56.3178L15.6539 57.2124L15.6718 57.1944C15.474 56.7853 15.6179 56.3897 15.7393 55.9761L16.8182 52.1953L15.9281 51.5029L15.9146 51.5209C16.1169 51.8131 15.8292 51.966 15.5909 52.1053L12.8171 53.7148C12.4395 53.9351 12.0978 54.1733 11.6392 54.0879L11.6302 54.1059L12.6687 54.9061L12.6777 54.8882C12.4889 54.578 12.6553 54.4431 13.0194 54.2228L13.932 53.6608L15.3571 54.7578Z" fill="#004EA2"/>
<path id="Vector_8" d="M17.7758 57.3562C17.569 57.7069 17.4252 57.9451 17.641 58.3228L17.632 58.3408L16.4047 57.6394L16.4181 57.6215C16.7913 57.6799 17.0206 57.2123 17.1824 56.9381L18.7829 54.2003L18.2389 53.8856C17.9691 53.7372 17.6545 53.6428 17.3577 53.7057L17.3353 53.6923L17.9781 53.0898L17.9961 53.0988C18.0501 53.1753 18.131 53.2202 18.2074 53.2742L18.3648 53.3641L20.6755 54.6903C20.7789 54.7487 20.8823 54.8027 20.9857 54.8117L21.0037 54.8207L20.3788 55.4411L20.3608 55.4276C20.4058 55.1668 20.1765 54.9915 19.9697 54.8746L19.4122 54.5599L17.7758 57.3562Z" fill="#004EA2"/>
<path id="Vector_9" d="M21.1565 55.9765C21.2869 55.6798 21.5431 55.2257 21.2644 54.956L21.2734 54.938L22.5187 55.482V55.4999C22.1276 55.482 21.9522 55.981 21.8264 56.2732L20.7429 58.7233C20.6125 59.0155 20.3608 59.4696 20.635 59.7348L20.626 59.7528L19.3807 59.2134L19.3897 59.1954C19.7674 59.2223 19.9427 58.7233 20.0686 58.4311L21.1565 55.981V55.9765Z" fill="#004EA2"/>
<path id="Vector_10" d="M25.1217 56.7767C26.2096 57.0779 26.5828 58.2198 26.2995 59.2133C26.0118 60.2338 25.1307 60.8092 24.0832 60.517C22.9997 60.2203 22.5951 59.047 22.8649 58.0894C23.1571 57.0554 24.0562 56.4799 25.1217 56.7767ZM25.3105 56.2956C23.8719 55.8595 22.4288 56.6328 22.0646 57.932C21.6645 59.3302 22.5457 60.6204 23.9123 60.9981C25.2835 61.3802 26.7356 60.6879 27.1267 59.2942C27.4774 58.0669 26.7626 56.6912 25.315 56.2956H25.3105Z" fill="#004EA2"/>
<path id="Vector_11" d="M28.2867 60.8272C28.2597 61.2229 28.2282 61.5061 28.5924 61.7533V61.7713L27.3246 61.6769V61.6589C27.7202 61.4701 27.7427 61.1824 27.7741 60.7868L27.9854 57.968C28.0169 57.5679 28.0349 57.2847 27.6797 57.0464V57.0239L28.7227 57.1004C28.7452 57.1948 28.7722 57.2307 28.8171 57.2937L28.9026 57.442L31.2718 60.9037L31.4741 58.2198C31.5055 57.8286 31.5325 57.5409 31.1684 57.3027V57.2847L32.4271 57.3746V57.3926C32.0405 57.5769 32.018 57.8646 31.9866 58.2602L31.6899 62.2299C31.1953 62.0231 30.993 61.7758 30.7053 61.3487L28.489 58.0894L28.2822 60.8272H28.2867Z" fill="#004EA2"/>
<path id="Vector_12" d="M35.3718 59.5277L33.9691 59.6716L34.4906 57.8238L35.3718 59.5277ZM35.637 60.0312L36.1225 60.9843C36.3653 61.4608 36.4282 61.5327 36.0956 61.7216V61.744L37.5566 61.5957V61.5732C37.1296 61.4069 36.9542 61.0292 36.7519 60.6426L34.8952 57.1675L33.7758 57.2799V57.2979C34.131 57.3698 34.0231 57.68 33.9466 57.9452L33.061 61.0068C32.9486 61.4249 32.8677 61.834 32.4766 62.0767V62.0992L33.7893 61.9688V61.9463C33.4296 61.8519 33.4611 61.6451 33.569 61.236L33.8342 60.1975L35.6325 60.0177L35.637 60.0312Z" fill="#004EA2"/>
<path id="Vector_13" d="M39.9169 60.4043C40.3979 60.3054 40.7621 60.0402 41.0318 59.6625H41.0498L40.9374 60.6606L38.0917 61.4158V61.3979C38.4019 61.1776 38.2265 60.6831 38.1411 60.3774L37.4488 57.7924C37.3634 57.4777 37.2645 56.9652 36.8823 56.9292V56.9067L38.1951 56.5605V56.5785C37.8849 56.8033 38.0692 57.3023 38.1501 57.608L38.9548 60.5931L39.9079 60.4088L39.9169 60.4043Z" fill="#004EA2"/>
<path id="Vector_14" d="M46.9705 57.3477C46.8896 57.8602 46.458 58.2873 46.0174 58.5255C45.6038 58.7503 45.0913 58.8537 44.6417 58.7008C44.1113 58.5255 43.891 58.0984 43.6482 57.6489L42.7311 55.981C42.5782 55.7023 42.3714 55.2257 41.9848 55.2797L41.9758 55.2617L43.1717 54.6143L43.1807 54.6323C42.9334 54.92 43.2166 55.3561 43.374 55.6348L44.2911 57.2982C44.7496 58.1209 45.3116 58.3232 45.959 57.9681C46.3141 57.7792 46.5884 57.4421 46.6378 57.0375C46.6738 56.7767 46.5839 56.6194 46.458 56.3991L45.4285 54.5244C45.2711 54.2457 45.0553 53.7691 44.6777 53.8186L44.6687 53.8051L45.8601 53.1577L45.878 53.1757C45.6263 53.4634 45.9095 53.8995 46.0714 54.1872L47.3616 56.5384C47.5145 56.8172 47.7303 57.2937 48.1169 57.2398L48.1259 57.2577L47.1998 57.7568L46.975 57.3477H46.9705Z" fill="#004EA2"/>
<path id="Vector_15" d="M49.3262 55.2074C49.5825 55.5131 49.7623 55.7379 50.1939 55.6615L50.2119 55.675L49.2363 56.4842L49.2228 56.4662C49.3712 56.0571 49.1869 55.8368 48.9306 55.5311L47.1009 53.3552C46.8446 53.054 46.6648 52.8382 46.2377 52.9102L46.2242 52.8922L47.029 52.2313C47.1054 52.2853 47.1459 52.2942 47.2268 52.3077L47.3976 52.3527L51.5246 53.1979L49.7848 51.1389C49.5285 50.8332 49.3487 50.6129 48.9216 50.6893L48.9081 50.6713L49.8792 49.8711L49.8927 49.8891C49.7443 50.2892 49.9287 50.505 50.1849 50.8107L52.7609 53.8677C52.2619 54.061 51.9382 54.0251 51.4347 53.9082L47.555 53.1035L49.3307 55.2119L49.3262 55.2074Z" fill="#004EA2"/>
<path id="Vector_16" d="M51.2054 49.7496C50.9626 49.5339 50.6029 49.1517 50.2568 49.3315L50.2433 49.3181L51.1469 48.311L51.1649 48.3245C51.03 48.6797 51.4526 48.9989 51.6909 49.2057L53.7049 50.9814C53.9477 51.1972 54.3073 51.5749 54.649 51.395L54.667 51.413L53.7589 52.4156L53.7409 52.4021C53.8803 52.0514 53.4577 51.7367 53.2194 51.5254L51.2009 49.7451L51.2054 49.7496Z" fill="#004EA2"/>
<path id="Vector_17" d="M54.2084 46.2478C53.9072 45.7982 53.5611 45.2723 53.161 45.5285L53.143 45.5195L53.7544 44.6519L56.717 48.9767C56.1595 49.197 56.0202 49.2959 55.4357 49.1475L52.4147 48.3698C52.037 48.2709 51.6324 48.127 51.2548 48.2439L51.2368 48.2304L51.8302 47.3807L51.8977 47.4347C52.0281 47.5246 52.3967 47.6145 52.554 47.6549L55.7594 48.4911L54.2039 46.2478H54.2084Z" fill="#004EA2"/>
<path id="Vector_18" d="M57.9354 45.2903L58.4119 44.517C58.6592 44.1124 58.7401 43.6089 58.6142 43.1503V43.1324L59.3245 43.8247L58.0163 46.4861L57.9983 46.4771C58.0433 46.0995 57.5442 45.9017 57.2565 45.7623L54.8334 44.589C54.5367 44.4496 54.0871 44.1843 53.8039 44.4496L53.7859 44.4361L54.7884 42.3996C54.8424 42.2917 54.9098 42.1883 54.9053 42.0849V42.0669L55.6696 42.431L55.6606 42.449C55.3324 42.5389 55.1795 42.7862 55.0357 43.0784C54.9233 43.3032 54.8199 43.528 54.7569 43.7483L55.9528 44.3282L56.3259 43.5684C56.3754 43.465 56.4248 43.3616 56.4248 43.2717L56.4338 43.2492L57.1172 43.5819L57.1082 43.5999C56.8699 43.6134 56.7485 43.8831 56.6451 44.0809L56.4158 44.553L57.9399 45.2903H57.9354Z" fill="#004EA2"/>
<path id="Vector_19" d="M55.6965 39.873C55.9932 38.9694 56.6316 38.6322 57.252 38.8346C57.8454 39.0279 58.1466 39.6977 58.0972 40.2911L59.6437 39.7202C60.0887 39.5494 60.5833 39.2392 60.9609 38.938L60.7541 39.5539C60.6372 39.9135 60.4754 40.1113 60.1562 40.2282L58.8569 40.7182L57.6926 41.0284C57.787 40.462 57.742 39.7517 57.1036 39.5449C56.6136 39.392 56.1865 39.7157 56.0606 40.1743C56.0157 40.3316 55.9887 40.4845 55.9662 40.6463L59.0143 41.6308C59.329 41.7342 59.81 41.9365 60.0483 41.6308H60.0663L59.6437 42.9256H59.6257C59.6167 42.539 59.0952 42.4176 58.7895 42.3187L56.2225 41.496C55.9078 41.3926 55.4313 41.1858 55.184 41.487H55.166L55.6965 39.873Z" fill="#004EA2"/>
<path id="Vector_20" d="M57.6117 35.2874C57.288 35.5167 57.0543 35.9213 56.9868 36.3169C56.9194 36.717 56.9958 37.243 57.4813 37.3194C58.4479 37.4813 58.83 35.0716 60.1383 35.2829C60.898 35.4043 61.469 36.3079 61.2937 37.4004C61.2262 37.8274 61.0869 38.241 60.8756 38.6187L59.9584 38.6771C60.3855 38.322 60.7092 37.7915 60.7991 37.243C60.8666 36.8429 60.7227 36.2045 60.2327 36.1236C59.1312 35.9438 58.9244 38.3849 57.4319 38.1421C56.5463 37.9983 56.3529 37.0407 56.4968 36.182C56.5552 35.8314 56.6631 35.4807 56.825 35.166L57.6207 35.2964L57.6117 35.2874Z" fill="#004EA2"/>
<path id="Vector_21" d="M57.814 34.0733C57.4858 34.0553 56.9643 33.9789 56.8114 34.3251H56.7935L56.8699 32.9854H56.8879C57.0048 33.345 57.5397 33.336 57.8544 33.3495L60.5473 33.5024C60.871 33.5203 61.388 33.5923 61.5454 33.2506H61.5633L61.4869 34.5903H61.4644C61.3565 34.2261 60.8261 34.2396 60.5024 34.2217L57.8095 34.0688L57.814 34.0733Z" fill="#004EA2"/>
<path id="Vector_22" d="M60.5609 30.4095C60.97 30.387 61.2487 30.378 61.4465 29.9869H61.4735L61.5454 31.3895H61.5184C61.3656 31.0434 60.8441 31.1108 60.5249 31.1333L57.3375 31.3041L57.369 31.929C57.3869 32.2302 57.4814 32.5449 57.7016 32.7562V32.7742L56.8385 32.5719V32.5539C56.8699 32.4685 56.8699 32.3741 56.8699 32.2842L56.861 32.1044L56.7171 29.4609C56.7171 29.3395 56.7036 29.2316 56.6497 29.1372V29.1147L57.5128 29.2991V29.3215C57.2701 29.4249 57.2476 29.7127 57.2611 29.9464L57.297 30.5848L60.5564 30.414L60.5609 30.4095Z" fill="#004EA2"/>
<path id="Vector_23" d="M59.9224 26.1565C60.3405 26.0756 60.5518 26.0306 60.7406 25.626L60.7631 25.617L61.0418 26.9747H61.0193C60.7721 26.678 60.327 26.8174 59.9943 26.8803L58.9603 27.0916L57.3239 28.6246C57.0542 28.8719 56.8564 29.0562 56.7395 29.4293L56.6136 28.7954C56.5687 28.5752 56.5731 28.3594 56.7035 28.238L58.304 26.7499L56.8249 26.152C56.6226 26.0711 56.2585 25.9767 56.1461 26.4038H56.1236L55.8718 25.1899L58.821 26.3768L59.9269 26.152L59.9224 26.1565Z" fill="#004EA2"/>
<path id="Vector_24" d="M7.62912 21.1218C7.62912 21.4589 7.35039 21.7377 7.01322 21.7377C6.67605 21.7377 6.39282 21.4634 6.39282 21.1218C6.39282 20.7801 6.66706 20.5059 7.01322 20.5059C7.35939 20.5059 7.62912 20.7801 7.62912 21.1218Z" fill="#004EA2"/>
<path id="Vector_25" d="M57.6656 21.1218C57.6656 21.4589 57.3869 21.7377 57.0497 21.7377C56.7125 21.7377 56.4248 21.4634 56.4248 21.1218C56.4248 20.7801 56.7035 20.5059 57.0497 20.5059C57.3959 20.5059 57.6656 20.7801 57.6656 21.1218Z" fill="#004EA2"/>
<path id="Vector_26" d="M33.8208 3.59282H33.2139V2.13623H32.4856V5.90808C32.2383 6.17332 31.8202 6.15983 31.8202 6.15983H29.7792C29.7477 6.15983 29.7252 6.13286 29.7252 6.10589V3.15674H31.9101V2.57231H28.9969V6.10139C28.9969 6.45205 29.2847 6.73078 29.6398 6.73078H31.8022C31.8022 6.73078 32.1574 6.76675 32.4856 6.57793V8.60996H33.2139V4.17276H33.8208V8.60996H34.5446V2.13623H33.8208V3.59282Z" fill="#004EA2"/>
<path id="Vector_27" d="M10.2636 17.3589L12.1113 15.3314L13.7387 16.788L14.2243 16.253L12.6013 14.7964L14.44 12.7778L14.004 12.3867L9.82751 16.9723L10.2636 17.3589Z" fill="#004EA2"/>
<path id="Vector_28" d="M9.40494 15.6007C9.66569 15.8345 10.0748 15.8165 10.3086 15.5558L12.6328 13.0022C12.8711 12.7415 12.8486 12.3414 12.5879 12.1031L10.7626 10.4712L10.2771 11.0062L11.0144 11.667L8.80253 14.0947L8.06524 13.4338L7.57971 13.9688L9.40494 15.6007ZM11.4505 12.0582L12.1023 12.6426C12.1023 12.6426 12.1248 12.6965 12.1023 12.719L9.9669 15.0657C9.9669 15.0657 9.91295 15.0882 9.89047 15.0657L9.2386 14.4813L11.4505 12.0582Z" fill="#004EA2"/>
<path id="Vector_29" d="M21.7634 3.90332L21.1025 4.19554L23.0357 8.48888L23.6965 8.19217L22.6041 5.76452L23.4852 5.3734L23.2425 4.84291L22.3658 5.23403L21.7634 3.90332Z" fill="#004EA2"/>
<path id="Vector_30" d="M20.7069 10.6735L19.9876 9.08203L19.3268 9.37425L20.0416 10.9702C20.1855 11.2894 20.5631 11.4333 20.8868 11.2894L24.3889 9.73839L24.1506 9.20791L20.7744 10.7005C20.7474 10.714 20.7159 10.7005 20.7024 10.6735H20.7069Z" fill="#004EA2"/>
<path id="Vector_31" d="M19.1155 5.92163L18.8593 5.34619L18.1984 5.63841L18.4547 6.21385C19.2189 7.9132 17.7354 8.98766 17.632 9.05959L18.2793 9.30236C18.621 9.00565 19.3133 8.29084 19.3763 7.37373C20.1046 7.94018 21.0981 7.90421 21.5522 7.85027L21.7994 7.20739C21.6511 7.24335 19.8753 7.59851 19.12 5.91264L19.1155 5.92163Z" fill="#004EA2"/>
<path id="Vector_32" d="M53.3948 14.3467L52.9047 13.8252L51.048 15.547L50.4501 14.9131L52.3068 13.1913L51.8168 12.6743L49.9601 14.3917L48.9171 13.2857L48.4945 13.6768L52.644 18.0736L53.0666 17.6825L51.5381 16.064L53.3948 14.3467Z" fill="#004EA2"/>
<path id="Vector_33" d="M53.9298 15.048C53.179 15.7449 52.5676 15.9652 52.5676 15.9652L53.0621 16.4911C53.0621 16.4911 53.6691 16.2709 54.4243 15.5695L56.3035 13.8252L53.0217 10.3501L52.5991 10.7412L55.3909 13.6949L53.9343 15.048H53.9298Z" fill="#004EA2"/>
<path id="Vector_34" d="M46.7682 7.90859L47.002 7.37361L46.1164 6.99597L46.7008 5.66077L46.0355 5.37305L44.5024 8.87066L45.1678 9.15838L45.8826 7.53096L46.7682 7.90859Z" fill="#004EA2"/>
<path id="Vector_35" d="M45.0509 9.41917L40.834 7.60742L40.6002 8.1424L44.1518 9.67092L43.4325 11.3118L44.1023 11.5996L45.0509 9.42366V9.41917Z" fill="#004EA2"/>
<path id="Vector_36" d="M45.2801 5.68366L43.5942 4.95537L43.8865 4.29001L43.2166 4.00229L42.9244 4.66765L41.2385 3.94385L41.0002 4.48332L41.8229 4.83848C41.5217 4.98234 41.2745 5.21611 41.1351 5.53081C40.8069 6.28158 41.2205 7.18521 42.0612 7.54486C42.9019 7.90451 43.8505 7.58982 44.1787 6.83904C44.318 6.52435 44.3225 6.18268 44.2236 5.86798L45.0463 6.22314L45.2801 5.68366ZM42.2995 7.00538C41.8319 6.80308 41.6117 6.2681 41.814 5.81404C42.0118 5.35998 42.5557 5.15318 43.0233 5.35548C43.4908 5.55778 43.7111 6.08827 43.5088 6.54683C43.311 7.00089 42.767 7.21218 42.2995 7.00988V7.00538Z" fill="#004EA2"/>
<path id="Vector_37" d="M64 32.5C64 50.1724 49.6724 64.5 32 64.5C14.3276 64.5 0 50.1769 0 32.5C0 14.8231 14.3276 0.5 32 0.5C49.6724 0.5 64 14.8276 64 32.5ZM32 0.936078C14.5704 0.936078 0.436078 15.0704 0.436078 32.5C0.436078 49.9296 14.5704 64.0639 32 64.0639C49.4296 64.0639 63.5639 49.9341 63.5639 32.5C63.5639 15.0659 49.4341 0.936078 32 0.936078Z" fill="#004EA2"/>
<path id="Vector_38" d="M55.1931 32.5002C55.1931 45.3083 44.8126 55.6887 32.0046 55.6887C19.1965 55.6887 8.81152 45.3038 8.81152 32.5002C8.81152 19.6966 19.1965 9.30713 32.0046 9.30713C44.8126 9.30713 55.1931 19.6876 55.1931 32.5002ZM32.0001 9.7477C19.4302 9.7477 9.2431 19.9348 9.2431 32.5047C9.2431 45.0745 19.4302 55.2571 32.0001 55.2571C44.5699 55.2571 54.7525 45.07 54.7525 32.5047C54.7525 19.9393 44.5654 9.7477 32.0001 9.7477Z" fill="#004EA2"/>
<path id="Vector_39" d="M46.4535 45.0834H35.6864C32.3596 45.1058 31.946 47.2997 31.946 47.2997C31.2627 44.8136 28.0618 45.0834 28.0618 45.0834H17.5375V29.6498H27.6842C31.0604 29.7128 31.955 32.3832 31.955 32.3832C33.0565 29.6768 36.5496 29.6543 36.5496 29.6543H46.458V45.0879L46.4535 45.0834ZM35.8617 28.1123C32.9036 28.2067 31.973 29.942 31.973 29.942C31.0334 28.1258 28.1877 28.1213 28.1877 28.1213H15.9955V46.6119H27.9359C29.5633 46.6119 30.1388 47.3806 30.3321 47.9291H33.6319C34.2028 46.5444 35.8662 46.6209 35.8662 46.6209H48.0045V28.1168H35.8617V28.1123Z" fill="#009944"/>
<path id="Vector_40" d="M25.7331 36.7575H21.2869V41.2351H27.4099V41.2216H27.4054V38.295H28.9564V41.2351H35.066V38.295H36.6125V41.2306H42.7266V39.6796H38.2894V38.2905H42.7266V33.6465H36.6125V36.753H35.066V33.6465H33.3891V36.7485H30.6198V33.6465H28.9519V36.753H27.4099V33.6465H21.2869V35.1885H25.7376V36.753L25.7331 36.7575ZM25.7331 39.6976H22.9548V38.295H25.7331V39.6976ZM33.3891 39.6976H30.6198V38.295H33.3891V39.6976ZM38.2804 35.1885H41.0497V36.7575H38.2804V35.1885Z" fill="#009944"/>
<path id="Vector_41" d="M31.0739 19.5525L32.5574 19.0625H31.0739V19.5525Z" fill="#004EA2"/>
<path id="Vector_42" d="M27.882 21.6745C28.4259 21.1081 28.9924 21.1755 28.9924 21.4183C28.9924 21.661 28.7137 21.9533 28.7137 21.9533H25.2026L23.2784 19.1839C22.7974 18.4736 22.186 18.1634 21.1655 18.1634H15.9955V26.5073C19.1379 26.5073 26.8704 26.5028 27.7786 26.5073C31.2582 26.5388 31.9415 28.0224 31.9415 28.0224C32.6698 26.8715 34.0725 26.5163 36.2394 26.5118H47.991V18.1634H42.7536C41.742 18.1634 41.1261 18.4736 40.6496 19.1839L38.685 21.9533H35.7718V19.4851L37.7634 17.5385H35.7044L36.2259 17.0845H32.0539C31.2177 17.0845 30.5569 17.4261 30.3141 17.9027H28.8485C27.4953 17.9027 27.0053 18.6624 27.2796 19.665L27.8775 21.6745H27.882ZM46.4535 24.9743H36.635C34.0185 24.9743 32.7957 25.1497 31.964 26.0533C31.0649 25.1856 30.3681 24.9788 27.7516 24.9788H17.5375V19.7054H20.7474C21.0666 19.7009 21.3318 19.7729 21.5026 19.8628C21.633 19.9347 21.8623 20.0921 22.0331 20.3213C22.2444 20.618 24.1506 23.4053 24.1506 23.4053H29.6353C29.6353 23.4053 30.1478 22.3489 30.4625 21.6116C30.7817 20.8698 30.6738 20.3483 29.9904 20.2944C29.4195 20.2494 29.0598 20.3843 28.9969 20.6225L28.7541 19.7909C28.6103 19.3683 28.7137 19.0626 29.2981 19.0626H31.0739C31.0739 19.0626 31.1143 18.4826 32.0899 18.4826H35.0166L34.1894 19.2424V23.4009H39.8763C39.8763 23.4009 41.6836 20.6136 41.8994 20.3213C42.0657 20.0876 42.295 19.9302 42.4254 19.8628C42.5917 19.7729 42.8615 19.6964 43.1761 19.6875H46.4445V24.9743H46.4535Z" fill="#004EA2"/>
<path id="Vector_43" d="M29.4375 42.7908C29.6578 42.7143 29.8511 42.557 29.968 42.3682H29.977V43.7393C29.977 43.8787 29.968 43.9911 30.0984 44.0765V44.0855H29.5859V44.0765C29.7342 44.0046 29.7252 43.8877 29.7252 43.7393V42.7997H29.442L29.4375 42.7908Z" fill="#009944"/>
<path id="Vector_44" d="M30.6962 43.982C31.0918 43.9011 31.4515 43.5415 31.4515 43.1369C31.4515 42.8896 31.3121 42.6154 31.0289 42.6154C30.8221 42.6154 30.6693 42.7772 30.6693 42.9795C30.6693 43.2043 30.8176 43.3751 31.0424 43.3751C31.1368 43.3751 31.2267 43.3482 31.3031 43.2987L31.1368 43.501C31.0739 43.5235 31.0064 43.5325 30.9345 43.5325C30.6468 43.5325 30.422 43.3167 30.422 43.0335C30.422 42.6738 30.7097 42.4355 31.0604 42.4355C31.447 42.4355 31.6988 42.7368 31.6988 43.1054C31.6988 43.3796 31.5504 43.6539 31.3301 43.8247C31.1098 44.0045 30.8581 44.0899 30.5749 44.1259L30.6962 43.9731V43.982Z" fill="#009944"/>
<path id="Vector_45" d="M32.6473 43.5594C32.4316 43.5594 32.2562 43.5504 32.1214 43.5414L32.6473 42.6603V43.5594ZM32.6473 43.7527V43.8157C32.6473 43.9416 32.6653 44.027 32.526 44.0764V44.0854H33.0025V44.0764C32.8946 44.0225 32.8901 43.9101 32.8901 43.8022V43.7527H33.0834L33.2048 43.4605C33.1194 43.5324 33.007 43.5594 32.8901 43.5594V42.4805H32.5484L31.7842 43.7527H32.6428H32.6473Z" fill="#009944"/>
<path id="Vector_46" d="M34.3827 42.5884C34.2164 42.6109 34.023 42.7368 33.9017 42.8491C33.7353 43.0065 33.6364 43.2088 33.6364 43.4381C33.6364 43.6898 33.7803 43.9596 34.068 43.9596C34.2838 43.9596 34.4097 43.7932 34.4097 43.5864C34.4097 43.3437 34.2793 43.1818 34.032 43.1818C33.9376 43.1818 33.8477 43.2088 33.7623 43.2627L33.9196 43.0649C33.9826 43.038 34.059 43.02 34.1354 43.02C34.4411 43.02 34.6614 43.2268 34.6614 43.5325C34.6614 43.8786 34.3827 44.1214 34.041 44.1214C33.6544 44.1214 33.3892 43.8112 33.3892 43.4426C33.3892 42.8626 33.9736 42.4805 34.5041 42.4355L34.3827 42.5884Z" fill="#009944"/>
</g>
<defs>
<clipPath id="clip0_289_1664">
<rect width="64" height="64" fill="white" transform="translate(0 0.5)"/>
</clipPath>
</defs>
</svg>
