<svg width="63" height="63" viewBox="0 0 63 63" fill="none" xmlns="http://www.w3.org/2000/svg">
<g id="&#236;&#132;&#156;&#236;&#154;&#184;&#236;&#139;&#156;&#235;&#166;&#189;&#235;&#140;&#128;&#237;&#149;&#153;&#234;&#181;&#144;" clip-path="url(#clip0_289_1208)">
<path id="Vector" d="M31.4991 63C14.1309 63 0 48.8691 0 31.4991C0 14.129 14.1309 0 31.4991 0C48.8672 0 63 14.1309 63 31.4991C63 48.8672 48.8691 62.9981 31.4991 62.9981V63Z" fill="white"/>
<g id="Group">
<path id="Vector_2" d="M31.4991 63C14.1309 63 0 48.8691 0 31.4991C0 14.129 14.1309 0 31.4991 0C48.8672 0 63 14.1309 63 31.4991C63 48.8672 48.8691 62.9981 31.4991 62.9981V63ZM31.4991 0.682608C14.5068 0.682608 0.682608 14.5068 0.682608 31.4991C0.682608 48.4913 14.5068 62.3174 31.5009 62.3174C48.4951 62.3174 62.3193 48.4932 62.3193 31.4991C62.3193 14.5049 48.4932 0.682608 31.4991 0.682608Z" fill="#084D9B"/>
<path id="Vector_3" d="M53.3743 49.6693L50.7953 47.0903L48.654 49.2317L49.1066 49.6805L50.7598 48.0273L52.8881 50.1555L52.5608 50.4828L51.4705 49.3944L50.9992 49.8638L52.0895 50.9541L51.8576 51.186L50.7673 50.0975L50.2979 50.567L51.3863 51.6573L51.0852 51.9583L51.5247 52.396L54.0345 49.8843L53.5968 49.4467L53.3743 49.6693Z" fill="#084D9B"/>
<path id="Vector_4" d="M32.6081 56.1288V58.0308H30.5397V57.6717H32.0807V56.1849H29.8758V56.7647H31.4205V57.0863H29.8758V58.6105H32.6081V59.1585H30.9866V58.8406H30.3246V60.6209H33.272V56.127H32.6081V56.1288ZM32.6081 60.0524H30.9866V59.7177H32.6081V60.0524Z" fill="#084D9B"/>
<path id="Vector_5" d="M19.1037 54.4887L19.3767 54.0156L16.0946 52.1211L15.8234 52.5942L17.1662 53.3704L17.0278 53.6135L15.9898 53.015L15.7168 53.4863L17.8506 54.7187L17.7347 54.9207L15.6008 53.6883L14.9351 54.8422L17.6019 56.3813L17.875 55.9082L15.7374 54.6757L15.8571 54.4663L17.9947 55.7006L18.6567 54.5523L17.6206 53.9538L17.759 53.7126L19.1037 54.4887Z" fill="#084D9B"/>
<path id="Vector_6" d="M18.5202 51.7172C17.9984 51.4161 17.3513 51.5639 17.0727 52.0445C16.794 52.5289 16.9923 53.161 17.5122 53.4621C18.0339 53.7632 18.681 53.6173 18.9597 53.1348C19.2383 52.6523 19.0419 52.0183 18.5202 51.7172ZM17.7871 52.9852C17.557 52.8524 17.471 52.5663 17.5982 52.3493C17.7235 52.1305 18.0134 52.0632 18.2453 52.1941C18.4753 52.3288 18.5613 52.613 18.436 52.8318C18.3107 53.0506 18.0208 53.118 17.7889 52.9852" fill="#084D9B"/>
<path id="Vector_7" d="M18.2842 51.5516L18.0245 52.002L18.551 52.3056L18.8107 51.8552L18.2842 51.5516Z" fill="#084D9B"/>
<path id="Vector_8" d="M13.6222 48.3604L12.8779 49.1047L12.4309 48.6577L11.9896 49.0972L12.4366 49.546L10.4056 51.577L10.8937 52.067L14.1122 48.8485L13.6222 48.3604Z" fill="#084D9B"/>
<path id="Vector_9" d="M11.4024 48.2555L10.7197 49.8245L11.2153 50.322L12.1878 47.9731L12.2421 47.8983L12.6423 47.4962L12.1616 47.0137L11.7596 47.4158L11.6847 47.4681L9.33583 48.4425L9.83142 48.9381L11.4024 48.2555Z" fill="#084D9B"/>
<path id="Vector_10" d="M25.4261 55.1305L24.2477 59.5254L24.9161 59.7046L26.0945 55.3098L25.4261 55.1305Z" fill="#084D9B"/>
<path id="Vector_11" d="M23.4537 56.1514L23.65 57.8869L24.3438 58.0702L24.0053 55.5006L24.0128 55.4052L24.1624 54.846L23.4911 54.6665L23.3414 55.2257L23.3003 55.3117L21.7238 57.3689L22.4157 57.554L23.4537 56.1514Z" fill="#084D9B"/>
<path id="Vector_12" d="M46.1817 52.5084L45.7029 51.6743L45.1269 52.0072L46.5127 54.4085L44.6107 55.5044L44.9231 56.043L46.8231 54.9452L47.4029 55.9476L47.977 55.6166L46.4959 53.0508L46.9541 52.7852L46.6417 52.2428L46.1817 52.5084Z" fill="#084D9B"/>
<path id="Vector_13" d="M44.2629 52.7198L44.0964 52.4299L43.4905 52.7796L43.6588 53.0695L42.9332 53.4884L43.2063 53.9616L45.2597 52.7759L44.9866 52.3027L44.2629 52.7198Z" fill="#084D9B"/>
<path id="Vector_14" d="M44.0965 53.1293C43.5672 53.4341 43.3671 54.0793 43.6495 54.5693C43.9338 55.0593 44.5921 55.2089 45.1213 54.9041C45.6506 54.5992 45.8507 53.9521 45.5683 53.464C45.2859 52.9741 44.6276 52.8263 44.0983 53.1311M44.8352 54.4103C44.6051 54.5431 44.3171 54.4758 44.1918 54.257C44.0665 54.04 44.1507 53.7577 44.3826 53.623C44.6126 53.4902 44.9006 53.5594 45.0241 53.7763C45.1512 53.9933 45.0652 54.2776 44.8352 54.4103Z" fill="#084D9B"/>
<path id="Vector_15" d="M39.5557 54.9209L39.8231 55.914L39.5071 55.9981L39.2415 55.0051L38.6244 55.1697L39.2677 57.5784L38.1587 57.8776L37.6799 56.086L38.4729 55.8747L38.3158 55.2893L36.8589 55.6802L37.6519 58.6444L39.4267 58.1675L39.8007 59.5645L40.4178 59.3999L39.681 56.6508L39.9971 56.5648L40.7339 59.3158L41.3492 59.1512L40.1729 54.7563L39.5557 54.9209Z" fill="#084D9B"/>
<path id="Vector_16" d="M57.8608 39.2039L57.2717 38.6167L56.6863 39.2039L57.2717 39.7912L57.8608 39.2039Z" fill="#084D9B"/>
<path id="Vector_17" d="M6.31553 39.2039L5.7283 38.6167L5.14107 39.2039L5.7283 39.7912L6.31553 39.2039Z" fill="#084D9B"/>
<path id="Vector_18" d="M2.79402 27.4165L4.52953 27.5792C4.926 27.6166 5.31873 27.669 5.58804 28.0037C5.81807 28.2861 5.87043 28.6994 5.83677 29.0604C5.8031 29.4213 5.67593 29.8178 5.39728 30.0516C5.07 30.3302 4.6754 30.3096 4.27706 30.2722L2.54155 30.1095L2.61636 29.3072L4.24152 29.4587C4.64174 29.4961 5.08309 29.5092 5.13172 28.993C5.18034 28.4769 4.7446 28.4077 4.34438 28.3703L2.71921 28.2188L2.79402 27.4165Z" fill="#084D9B"/>
<path id="Vector_19" d="M3.33636 24.5531L3.57013 23.7807L5.81432 22.9185V22.9111L4.00214 22.3594L4.23591 21.5889L7.20385 22.4903L6.97008 23.2627L4.72215 24.1229V24.1304L6.53807 24.6821L6.3043 25.4526L3.33636 24.5512V24.5531Z" fill="#084D9B"/>
<path id="Vector_20" d="M8.49426 19.6724L8.13706 20.3943L5.358 19.0197L5.7152 18.2979L8.49426 19.6724Z" fill="#084D9B"/>
<path id="Vector_21" d="M9.36014 15.9094L8.25487 14.2094L8.75982 13.4932L10.5309 16.362L10.1699 16.8725L6.88405 16.1507L7.38899 15.4344L9.36014 15.9075V15.9094Z" fill="#084D9B"/>
<path id="Vector_22" d="M11.4772 11.5334L11.8437 11.8999L12.487 11.2584L12.9695 11.7409L12.3262 12.3824L12.704 12.7602L13.3828 12.0832L13.8653 12.5657L12.6161 13.8131L10.4243 11.6175L11.6735 10.3701L12.156 10.8526L11.479 11.5296L11.4772 11.5334Z" fill="#084D9B"/>
<path id="Vector_23" d="M17.6749 9.59582L16.8576 10.1793L15.5447 9.65006L15.5373 9.65567L16.2311 10.6263L15.5747 11.0938L13.7718 8.5691L14.7518 7.8678C15.2511 7.51247 15.7991 7.4788 16.1843 8.01741C16.4331 8.36713 16.4536 8.80661 16.1413 9.12641L17.673 9.59395L17.6749 9.59582ZM15.2362 9.23301L15.2998 9.18813C15.5148 9.03477 15.7262 8.82345 15.5298 8.54853C15.3334 8.27362 15.0641 8.4064 14.8509 8.55788L14.7873 8.60277L15.2362 9.23114V9.23301Z" fill="#084D9B"/>
<path id="Vector_24" d="M19.9378 5.8048C19.7507 5.75805 19.545 5.76553 19.3674 5.85156C19.2346 5.91514 19.0924 6.07971 19.1691 6.23494C19.2477 6.39764 19.474 6.36585 19.6198 6.34715L19.833 6.31348C20.2763 6.24055 20.6727 6.29291 20.8897 6.74549C21.0243 7.02414 21.0935 7.34207 20.9626 7.63756C20.8336 7.92743 20.5774 8.14624 20.2968 8.28276C19.9452 8.45294 19.5432 8.4997 19.1616 8.43611L19.1916 7.70114C19.4496 7.77221 19.7283 7.80026 19.9752 7.68057C20.1453 7.59828 20.2875 7.42623 20.1921 7.22986C20.0949 7.02601 19.7751 7.09334 19.5974 7.12326C19.0794 7.21303 18.7222 7.23921 18.4603 6.69687C18.1873 6.13021 18.4136 5.56542 18.9728 5.29612C19.2551 5.16147 19.6423 5.08479 19.9583 5.10536L19.9396 5.80854L19.9378 5.8048Z" fill="#084D9B"/>
<path id="Vector_25" d="M24.1194 6.7081L23.3508 6.94935L22.4213 3.99076L23.19 3.74951L24.1194 6.7081Z" fill="#084D9B"/>
<path id="Vector_26" d="M27.5493 5.93945L26.7545 6.0741L26.3505 3.68965L25.6941 3.79999L25.58 3.12673L27.6896 2.76953L27.8036 3.44279L27.1472 3.55313L27.5512 5.93945H27.5493Z" fill="#084D9B"/>
<path id="Vector_27" d="M29.8346 2.56767L30.8015 2.55271L31.3943 3.3868L31.961 2.534L32.9279 2.51904L31.8114 4.14982L31.8357 5.63847L31.0297 5.65156L31.0053 4.16291L29.8365 2.56954L29.8346 2.56767Z" fill="#084D9B"/>
<path id="Vector_28" d="M41.6839 5.92648C41.3735 6.88026 40.4683 7.32723 39.5239 7.01865C38.5776 6.71008 38.1157 5.81427 38.4261 4.86049C38.7179 3.97029 39.7034 3.6 40.5506 3.87866C41.3997 4.15544 41.9757 5.03628 41.6839 5.92648ZM39.2228 5.12605C39.0564 5.63286 39.3088 6.12659 39.767 6.2762C40.2233 6.42581 40.7208 6.17708 40.8873 5.67027C41.02 5.26257 40.7657 4.77072 40.3094 4.61924C39.8512 4.46963 39.3556 4.71836 39.2228 5.12418V5.12605Z" fill="#084D9B"/>
<path id="Vector_29" d="M44.9885 6.64288L44.7398 7.0992L45.5159 7.52186L45.1886 8.12218L44.4125 7.69765L43.829 8.76738L43.1221 8.38213L44.607 5.65918L46.1705 6.51197L45.8432 7.11229L44.9866 6.64475L44.9885 6.64288Z" fill="#084D9B"/>
<path id="Vector_30" d="M51.8258 11.9972C51.8071 11.8046 51.7304 11.6138 51.592 11.4754C51.4873 11.3707 51.2853 11.294 51.1638 11.4156C51.0366 11.5446 51.1413 11.7466 51.2087 11.8775L51.3115 12.0664C51.5285 12.461 51.6107 12.85 51.2573 13.2053C51.0403 13.4241 50.7654 13.598 50.4419 13.5719C50.124 13.5476 49.8341 13.3792 49.6115 13.1604C49.3348 12.8855 49.1552 12.5227 49.0879 12.1412L49.7911 11.9243C49.8098 12.1917 49.8771 12.461 50.0735 12.6555C50.2081 12.7883 50.4176 12.8631 50.5709 12.7079C50.7299 12.547 50.5597 12.2684 50.4737 12.1131C50.2156 11.655 50.0716 11.3277 50.4943 10.9013C50.9356 10.4543 51.5434 10.4786 51.9848 10.9144C52.2055 11.1351 52.4074 11.4735 52.4953 11.7784L51.8277 11.9972H51.8258Z" fill="#084D9B"/>
<path id="Vector_31" d="M54.3337 14.821L53.9148 15.1258L54.4496 15.8608L53.8979 16.2629L53.3631 15.5279L52.9311 15.8421L53.4959 16.6163L52.9442 17.0184L51.9062 15.5933L54.4122 13.7681L55.4502 15.1931L54.8985 15.5952L54.3337 14.821Z" fill="#084D9B"/>
<path id="Vector_32" d="M57.0248 21.1924C56.1197 21.6263 55.1715 21.2822 54.7395 20.3845C54.3094 19.4868 54.6366 18.5312 55.5418 18.0973C56.3871 17.6915 57.3372 18.1496 57.7224 18.9538C58.1095 19.7598 57.8702 20.7866 57.0248 21.1924ZM55.9009 18.8566C55.4184 19.0885 55.237 19.6121 55.4446 20.0479C55.6521 20.4817 56.1758 20.6687 56.6583 20.4387C57.0454 20.2536 57.2249 19.7281 57.0174 19.2942C56.8098 18.8603 56.2861 18.6733 55.899 18.8584L55.9009 18.8566Z" fill="#084D9B"/>
<path id="Vector_33" d="M59.9236 25.7743L58.2311 26.197C57.844 26.2942 57.4569 26.3728 57.0922 26.1465C56.7817 25.9576 56.5947 25.5835 56.5087 25.2338C56.4208 24.8822 56.4114 24.4652 56.5947 24.1529C56.8117 23.7807 57.1913 23.6685 57.5765 23.5731L59.269 23.1523L59.4635 23.9341L57.8795 24.3287C57.4886 24.4259 57.0679 24.5606 57.1932 25.0636C57.3185 25.5667 57.7523 25.4882 58.1432 25.3891L59.7272 24.9944L59.9217 25.7762L59.9236 25.7743Z" fill="#084D9B"/>
<path id="Vector_34" d="M57.9674 29.5316L58.0403 30.4947L57.3596 30.5471L57.2268 28.7798L60.3201 28.5479L60.3799 29.352L57.9674 29.5334V29.5316Z" fill="#084D9B"/>
<g id="Group_2">
<path id="Vector_35" d="M26.3187 44.6837V44.0049H27.5624V47.0906H26.7601V44.6837H26.3187Z" fill="#084D9B"/>
<path id="Vector_36" d="M29.1632 47.0905L30.0441 46.0507L30.0366 46.0432C29.8982 46.105 29.7654 46.1368 29.6027 46.1368C28.9968 46.1368 28.6115 45.6169 28.6115 45.0483C28.6115 44.2909 29.2343 43.8813 29.9375 43.8813C30.2367 43.8813 30.5808 43.9543 30.8183 44.1469C31.0671 44.347 31.2316 44.6743 31.2316 44.9978C31.2316 45.4448 31.0016 45.8749 30.736 46.2265L30.0777 47.0905H29.1651H29.1632ZM29.4456 45.0221C29.4456 45.3045 29.6588 45.529 29.9412 45.529C30.2236 45.529 30.4536 45.3045 30.4536 45.0221C30.4536 44.7398 30.2236 44.5153 29.9412 44.5153C29.6588 44.5153 29.4456 44.7398 29.4456 45.0221Z" fill="#084D9B"/>
<path id="Vector_37" d="M32.0956 44.6837V44.0049H33.3412V47.0906H32.5389V44.6837H32.0975H32.0956Z" fill="#084D9B"/>
<path id="Vector_38" d="M36.7374 44.7602C36.7374 45.0875 36.5317 45.3662 36.2493 45.4615V45.469C36.6177 45.5925 36.8645 45.8749 36.8645 46.2807C36.8645 46.9184 36.2175 47.2139 35.6863 47.2139C35.1552 47.2139 34.5063 46.9184 34.5063 46.2807C34.5063 45.8749 34.7531 45.5925 35.1197 45.469V45.4615C34.8373 45.368 34.6316 45.0875 34.6316 44.7602C34.6316 44.1711 35.1552 43.8794 35.6845 43.8794C36.2137 43.8794 36.7355 44.1711 36.7355 44.7602H36.7374ZM35.316 46.1778C35.316 46.3854 35.4806 46.5537 35.6845 46.5537C35.8883 46.5537 36.0529 46.3854 36.0529 46.1778C36.0529 45.9702 35.8883 45.7926 35.6845 45.7926C35.4806 45.7926 35.316 45.9646 35.316 46.1778ZM35.346 44.7864C35.346 44.979 35.4975 45.1343 35.6863 45.1343C35.8752 45.1343 36.0248 44.979 36.0248 44.7864C36.0248 44.5938 35.8734 44.4386 35.6863 44.4386C35.4993 44.4386 35.346 44.5938 35.346 44.7864Z" fill="#084D9B"/>
</g>
<g id="Group_3">
<path id="Vector_39" d="M41.7139 19.874H39.7708V30.5152L38.3868 30.2197V19.874H35.8528V29.6793L34.5268 29.4006V19.874H31.3195V28.718L30.2816 28.4955V19.874H26.3131V27.652L25.4753 27.4743V19.874H21.0019V26.5243L21.417 26.6141V37.6667H23.3583V27.0292L24.744 27.321V37.6667H27.2762V27.8577L28.6022 28.142V37.6667H31.8114V28.8227L32.8493 29.0453V37.6667H36.8178V29.885L37.6556 30.0683V37.6667H42.1309V31.0164L41.7139 30.9267V19.874Z" fill="#084D9B"/>
<path id="Vector_40" d="M13.7737 22.6602V37.6663H14.447V24.3882C14.8247 24.7847 15.3409 25.0895 15.9337 25.3251V37.6663H16.9455V25.6505C17.1175 25.6935 17.2896 25.7384 17.4654 25.7721L18.4772 25.9946V37.6682H19.9153V26.2957L20.2762 26.3705V19.8755H18.2191C15.051 19.8755 13.7718 21.078 13.7718 22.662L13.7737 22.6602Z" fill="#084D9B"/>
<path id="Vector_41" d="M48.6802 19.8739V33.1558C48.3043 32.7593 47.7919 32.4545 47.1972 32.2151V19.8739H46.1835V31.8916C46.0115 31.8467 45.8413 31.8055 45.6655 31.7663L44.6481 31.5512V19.8721H43.2137V31.2445L42.8509 31.1678V37.6629H44.9044C48.0761 37.6629 49.3553 36.4585 49.3553 34.8782V19.8721H48.6783L48.6802 19.8739Z" fill="#084D9B"/>
</g>
</g>
</g>
<defs>
<clipPath id="clip0_289_1208">
<rect width="63" height="63" fill="white"/>
</clipPath>
</defs>
</svg>
