<svg width="65" height="65" viewBox="0 0 65 65" fill="none" xmlns="http://www.w3.org/2000/svg">
<g id="&#234;&#181;&#173;&#235;&#175;&#188;&#235;&#140;&#128;&#237;&#149;&#153;&#234;&#181;&#144;">
<g id="Group">
<path id="Vector" d="M0 32.5036C0 50.3321 14.5039 64.843 32.3324 64.843C50.1609 64.843 64.6788 50.339 64.6788 32.5036C64.6788 14.6681 50.1679 0.157227 32.3324 0.157227C14.497 0.157227 0 14.6681 0 32.5036ZM0.724848 32.5036C0.724848 15.0724 14.9012 0.889044 32.3324 0.889044C49.7636 0.889044 63.9539 15.0724 63.9539 32.5036C63.9539 49.9348 49.7706 64.1112 32.3324 64.1112C14.8942 64.1112 0.724848 49.9348 0.724848 32.5036Z" fill="#7D7D7D"/>
<path id="Vector_2" d="M1.72852 32.5035C1.72852 49.3771 15.4588 63.1074 32.3325 63.1074C49.2061 63.1074 62.9503 49.3771 62.9503 32.5035C62.9503 15.6299 49.2131 1.89258 32.3325 1.89258C15.4518 1.89258 1.72852 15.6229 1.72852 32.5035ZM2.00033 32.5035C2.00033 15.7762 15.6052 2.1644 32.3325 2.1644C49.0597 2.1644 62.6785 15.7762 62.6785 32.5035C62.6785 49.2308 49.0667 62.8356 32.3325 62.8356C15.5982 62.8356 2.00033 49.2308 2.00033 32.5035Z" fill="#7D7D7D"/>
<g id="Group_2">
<g id="Group_3">
<path id="Vector_3" d="M51.7849 50.2973C51.987 50.4785 52.1403 50.8618 51.8337 51.2033C51.5967 51.4752 51.2273 51.517 50.9555 51.273C50.6697 51.0221 50.621 50.6318 50.8858 50.3461C51.1785 50.0115 51.5688 50.1091 51.7779 50.3042L51.7849 50.2973Z" fill="#7D7D7D"/>
<path id="Vector_4" d="M13.361 50.0673C13.5631 50.2485 13.7164 50.6318 13.4098 50.9664C13.1658 51.2382 12.8104 51.287 12.5316 51.0361C12.2528 50.7851 12.197 50.3948 12.4619 50.1021C12.7546 49.7745 13.1379 49.8651 13.354 50.0603L13.361 50.0673Z" fill="#7D7D7D"/>
<path id="Vector_5" d="M10.2873 48.0253C9.58339 48.4853 9.45794 48.569 9.31855 48.6735C9.17218 48.785 9.12339 48.8687 9.18612 49.036C9.20006 49.0778 9.24885 49.1614 9.26976 49.1963C9.2837 49.2172 9.2837 49.2381 9.26976 49.252C9.24188 49.2729 9.22097 49.252 9.18612 49.2032C9.0537 49.0011 8.89339 48.7223 8.87249 48.6944C8.84461 48.6526 8.66339 48.4017 8.57279 48.2693C8.53794 48.2205 8.53097 48.1926 8.55885 48.1717C8.57976 48.1578 8.60067 48.1717 8.60764 48.1926C8.62855 48.2205 8.64945 48.2484 8.69824 48.2972C8.80279 48.4017 8.90036 48.3878 9.06764 48.2972C9.214 48.2135 9.34642 48.1299 10.0504 47.6629L10.3222 47.4887L10.3082 47.4678C10.1688 47.4469 8.80279 47.175 8.524 47.1263C8.30794 47.0844 8.11279 47.0426 8.03612 47.0984C7.98036 47.1332 7.96642 47.175 7.98036 47.2169C7.98036 47.2447 7.98733 47.2726 7.97339 47.2796C7.95248 47.2935 7.92461 47.2796 7.9037 47.2447C7.84097 47.1541 7.7643 47.0078 7.6946 46.8963C7.68067 46.8753 7.47157 46.5826 7.39491 46.4711C7.36006 46.4223 7.36006 46.3944 7.38097 46.3805C7.40188 46.3666 7.41582 46.3666 7.4437 46.4014C7.48551 46.4711 7.57612 46.5478 7.6737 46.6105C7.87582 46.7429 8.05703 46.7638 8.3846 46.8405C8.56582 46.8823 9.84824 47.1611 10.0295 47.182C10.0852 46.9799 10.4337 45.4047 10.4825 45.105C10.587 44.4987 10.6079 44.3732 10.5592 44.0944C10.5313 43.9481 10.4546 43.8087 10.4337 43.7738C10.4128 43.739 10.4058 43.7111 10.4198 43.6972C10.4407 43.6832 10.4685 43.6972 10.5173 43.7738L10.6707 44.0038C10.7543 44.1293 10.8101 44.2129 10.8658 44.3175C11.0052 44.5684 10.9773 44.7496 10.9495 45.0423C10.9146 45.356 10.5104 46.9869 10.3849 47.3841L10.3988 47.405L10.8379 47.1123C11.2701 46.8266 11.6255 46.5966 11.7998 46.4432C11.9182 46.3457 12.0019 46.2481 11.9322 46.1017C11.8973 46.032 11.8625 45.9553 11.8346 45.9135C11.8137 45.8856 11.8276 45.8717 11.8346 45.8578C11.8555 45.8438 11.8834 45.8578 11.9182 45.9066C12.0646 46.1296 12.2249 46.4014 12.2458 46.4363C12.2667 46.4711 12.4549 46.729 12.5455 46.8614C12.5804 46.9102 12.5804 46.9381 12.5595 46.959C12.5455 46.966 12.5246 46.966 12.5107 46.9381C12.4828 46.8963 12.441 46.8475 12.4061 46.8126C12.3295 46.736 12.211 46.7778 12.0716 46.8475C11.8695 46.952 11.514 47.182 11.0749 47.4678L10.2804 47.9905L10.2873 48.0253Z" fill="#7D7D7D"/>
<path id="Vector_6" d="M8.14763 43.8365C7.05339 44.2826 6.2449 43.8783 5.91036 43.042C5.58975 42.2544 5.93823 41.2577 7.14399 40.7698C8.60066 40.1774 9.2349 41.0068 9.42308 41.4529C9.79248 42.352 9.32551 43.3556 8.1546 43.8295L8.14763 43.8365ZM8.48217 44.2547C9.38126 43.8923 10.2176 42.8886 9.66005 41.5156C9.17217 40.3098 7.9246 39.8917 6.80248 40.3447C5.63854 40.8186 5.26914 41.9477 5.72217 43.0698C6.27975 44.4498 7.66672 44.5753 8.4752 44.2477L8.48217 44.2547Z" fill="#7D7D7D"/>
<path id="Vector_7" d="M6.30754 38.6507C5.14361 38.8598 4.43967 38.3022 4.27936 37.4101C4.12603 36.5737 4.67664 35.6676 5.95209 35.4446C7.49936 35.1658 7.95239 36.1067 8.03603 36.5876C8.21027 37.5425 7.54118 38.4346 6.30754 38.6507ZM6.54451 39.1316C7.49936 38.9573 8.52391 38.1489 8.25906 36.6922C8.02906 35.4098 6.893 34.7476 5.70815 34.9637C4.46755 35.1867 3.87512 36.2113 4.09118 37.4101C4.35603 38.8737 5.68724 39.2849 6.54451 39.1316Z" fill="#7D7D7D"/>
<path id="Vector_8" d="M5.27608 33.1728C4.43275 33.1658 4.27941 33.1658 4.11214 33.1728C3.93093 33.1797 3.84032 33.2215 3.7985 33.4028C3.78456 33.4446 3.78456 33.5352 3.77759 33.584C3.77759 33.6049 3.76365 33.6258 3.74275 33.6258C3.7079 33.6258 3.70093 33.5979 3.70093 33.5421C3.70093 33.2982 3.72184 32.9776 3.72184 32.9497C3.72184 32.9009 3.7079 32.5873 3.7079 32.427C3.7079 32.3712 3.72184 32.3434 3.74972 32.3434C3.77062 32.3434 3.77759 32.3643 3.77759 32.3852C3.77759 32.42 3.7776 32.4549 3.79153 32.5176C3.81941 32.664 3.91002 32.7058 4.0982 32.7197C4.27244 32.7337 4.41881 32.7337 5.26214 32.7406H5.58275V32.7197C5.4782 32.6291 4.49547 31.6394 4.28638 31.4443C4.13305 31.2909 3.99366 31.1515 3.90305 31.1515C3.84032 31.1515 3.80547 31.1794 3.79153 31.2212C3.7776 31.2491 3.77062 31.27 3.74972 31.27C3.72184 31.27 3.71487 31.2421 3.71487 31.2073C3.71487 31.1028 3.73578 30.9355 3.73578 30.8031C3.73578 30.7752 3.72184 30.4197 3.72184 30.2803C3.72184 30.2246 3.73578 30.1967 3.75669 30.1967C3.78456 30.1967 3.79153 30.2106 3.79153 30.2524C3.79153 30.3361 3.81941 30.4476 3.86123 30.5591C3.95881 30.7821 4.09123 30.9006 4.32123 31.1446C4.45365 31.284 5.35972 32.2249 5.49214 32.3434C5.65244 32.204 6.82335 31.0958 7.03244 30.8727C7.45759 30.4197 7.54123 30.3291 7.65275 30.0712C7.71547 29.9318 7.72244 29.7715 7.72941 29.7367C7.72941 29.7018 7.74335 29.667 7.76426 29.667C7.79214 29.667 7.80608 29.6949 7.80608 29.7855V30.0643C7.80608 30.2176 7.80608 30.3152 7.79214 30.4406C7.76426 30.7264 7.64578 30.8588 7.45759 31.0888C7.25547 31.3328 6.0079 32.4618 5.68729 32.7197V32.7476H6.21699C6.73275 32.7546 7.16487 32.7615 7.3879 32.7337C7.54123 32.7197 7.66668 32.6849 7.68759 32.5246C7.70153 32.4479 7.71547 32.3643 7.71547 32.3155C7.71547 32.2806 7.72941 32.2737 7.75032 32.2737C7.7782 32.2737 7.79214 32.3015 7.79214 32.3573C7.79214 32.6221 7.77123 32.9358 7.77123 32.9776C7.77123 33.0194 7.78517 33.3331 7.78517 33.4934C7.78517 33.5491 7.77123 33.577 7.74335 33.577C7.72941 33.577 7.7085 33.5631 7.71547 33.5352C7.71547 33.4864 7.70153 33.4237 7.69456 33.3749C7.67365 33.2634 7.55517 33.2424 7.39487 33.2146C7.17184 33.1867 6.73972 33.1797 6.22396 33.1797H5.27608V33.1728Z" fill="#7D7D7D"/>
<path id="Vector_9" d="M8.30794 24.3421C8.50309 24.37 8.80279 24.3979 8.93521 24.1957C9.01885 24.0563 9.0537 23.917 9.06764 23.8682C9.06764 23.8403 9.08158 23.8263 9.10249 23.8333C9.13037 23.8403 9.13733 23.896 9.12339 23.9518C9.09552 24.0703 8.94218 24.6279 8.87946 24.823C8.83764 24.9415 8.81673 24.9624 8.78885 24.9554C8.76794 24.9554 8.76097 24.9345 8.76097 24.9067C8.76097 24.8788 8.67733 24.8509 8.57976 24.837L5.81279 24.4397V24.4536L8.23127 26.3982C8.4334 26.5654 8.48218 26.5933 8.46824 26.6421C8.46127 26.677 8.39855 26.6909 8.18946 26.7467C7.89673 26.8233 6.87915 27.0533 6.8234 27.0673C6.71885 27.0882 5.31794 27.3739 5.15764 27.4018V27.4227L7.54127 28.2173C7.62491 28.2451 7.71552 28.266 7.80612 28.287C7.88279 28.3079 7.96643 28.266 8.00127 28.1894C8.04309 28.1057 8.07097 28.0291 8.07794 27.9942C8.07794 27.9733 8.09885 27.9524 8.11279 27.9594C8.14764 27.9664 8.15461 28.0012 8.14067 28.0639C8.09188 28.2591 8.01521 28.503 8.00824 28.5518C7.9943 28.6006 7.95249 28.8585 7.91764 28.9979C7.9037 29.0536 7.88976 29.0815 7.84794 29.0745C7.834 29.0745 7.82703 29.0397 7.834 29.0188C7.84794 28.977 7.85491 28.9421 7.85491 28.8585C7.86188 28.6773 7.66673 28.6145 7.47158 28.5448L4.14006 27.3391C4.08431 27.3112 4.04946 27.2903 4.05643 27.2554C4.05643 27.2206 4.09127 27.2067 4.154 27.1927L7.84097 26.3842L4.9137 24.0494C4.87188 24.0145 4.83703 23.9867 4.85097 23.9518C4.85794 23.917 4.90673 23.91 5.0043 23.9239L8.31491 24.3491L8.30794 24.3421Z" fill="#7D7D7D"/>
<path id="Vector_10" d="M8.55876 21.5682C9.0327 21.7773 9.42301 21.9516 9.63907 22.0212C9.78543 22.07 9.91088 22.0909 9.99452 21.9515C10.0363 21.8888 10.0921 21.7843 10.113 21.7355C10.1269 21.7076 10.1479 21.7006 10.1618 21.7076C10.1897 21.7215 10.1897 21.7494 10.1618 21.8052C10.0433 22.077 9.88998 22.3837 9.87604 22.4046C9.8621 22.4255 9.74361 22.7461 9.67391 22.8925C9.64604 22.9482 9.6321 22.9691 9.59725 22.9552C9.58331 22.9552 9.56937 22.9343 9.58331 22.8994C9.60422 22.8576 9.61816 22.7949 9.6321 22.7461C9.653 22.6415 9.55543 22.5649 9.423 22.4812C9.22785 22.3628 8.83755 22.1955 8.36361 21.9794L7.4924 21.5961C6.71876 21.2546 6.58634 21.1919 6.41907 21.1361C6.24482 21.0734 6.14028 21.0873 6.07058 21.1849C6.02876 21.2337 5.99391 21.2964 5.97998 21.3312C5.97301 21.3522 5.9521 21.3661 5.93119 21.3591C5.90331 21.3452 5.90331 21.3173 5.93119 21.2616C6.00088 21.1012 6.15422 20.7946 6.16816 20.7667C6.1821 20.7458 6.30058 20.4252 6.37028 20.2788C6.39119 20.2231 6.4121 20.2022 6.44694 20.2161C6.46785 20.2231 6.46785 20.2509 6.46088 20.2719C6.44695 20.3067 6.43997 20.3346 6.41907 20.4043C6.38422 20.5506 6.45391 20.6273 6.62119 20.7109C6.77452 20.7876 6.91391 20.8503 7.68755 21.1919L8.55876 21.5752V21.5682Z" fill="#7D7D7D"/>
<path id="Vector_11" d="M10.4894 19.5611C10.8657 19.7981 11.0121 19.8329 11.1306 19.7354C11.2073 19.6657 11.2769 19.5681 11.3048 19.5263C11.3188 19.5054 11.3397 19.4984 11.3536 19.5054C11.3815 19.5263 11.3745 19.5542 11.3327 19.6099C11.1585 19.8678 11.026 20.0351 10.9982 20.0769C10.9703 20.1187 10.8588 20.3139 10.7263 20.516C10.6985 20.5578 10.6706 20.5857 10.6427 20.5648C10.6218 20.5508 10.6218 20.5299 10.6427 20.509C10.6706 20.4742 10.7194 20.3905 10.7403 20.3069C10.7821 20.1745 10.6706 20.0629 10.2594 19.7911L7.68756 18.0696C7.51331 17.9511 7.4715 17.9093 7.49937 17.8745C7.52028 17.8396 7.67362 17.8257 7.75028 17.8117C7.86877 17.7978 9.03968 17.6096 10.2454 17.4145C11.0191 17.289 11.8903 17.1636 12.1342 17.1217L9.82028 15.6511C9.52755 15.4629 9.40907 15.4281 9.27665 15.5396C9.20695 15.6093 9.13028 15.7069 9.10937 15.7417C9.08846 15.7766 9.07453 15.7696 9.05362 15.7557C9.02574 15.7348 9.04665 15.6999 9.0815 15.6442C9.21392 15.442 9.37422 15.2329 9.40907 15.1842C9.44392 15.1354 9.52756 14.9751 9.65301 14.7939C9.68786 14.7451 9.70877 14.7172 9.73665 14.7311C9.75756 14.7451 9.75756 14.7729 9.73665 14.8008C9.72271 14.8217 9.7018 14.8566 9.68089 14.9193C9.61119 15.0866 9.7018 15.1702 9.96665 15.3514L12.5942 17.1148C12.8939 17.3099 12.9079 17.3378 12.887 17.3657C12.8591 17.4005 12.7754 17.4214 12.3782 17.5051C12.3015 17.526 11.2073 17.7281 10.3779 17.8675C9.4718 18.0139 8.56574 18.1463 8.30786 18.1811L10.4963 19.5611H10.4894Z" fill="#7D7D7D"/>
<path id="Vector_12" d="M14.0857 12.3405C13.556 11.6854 13.4654 11.5669 13.347 11.4414C13.2215 11.3021 13.1379 11.2672 12.9706 11.3508C12.9288 11.3718 12.8591 11.4205 12.8173 11.4554C12.8033 11.4693 12.7754 11.4763 12.7615 11.4554C12.7406 11.4275 12.7615 11.4066 12.8033 11.3648C12.9915 11.2114 13.2563 11.0163 13.2982 10.9884C13.333 10.9605 13.577 10.7445 13.7024 10.6399C13.7442 10.6051 13.7791 10.5911 13.793 10.619C13.807 10.633 13.793 10.6608 13.7791 10.6748C13.7512 10.6957 13.7303 10.7236 13.6815 10.7724C13.5839 10.8839 13.6118 10.9814 13.7163 11.1348C13.8139 11.2742 13.9115 11.3927 14.4412 12.0478L14.9151 12.6333C15.403 13.2396 15.7515 13.393 16.0651 13.4139C16.4276 13.4418 16.6436 13.3302 16.8876 13.1351C17.1454 12.926 17.2988 12.6054 17.3057 12.2987C17.3057 11.9014 17.0688 11.5042 16.7203 11.0721L16.2951 10.5493C15.7654 9.89417 15.6748 9.77569 15.5563 9.65024C15.4309 9.51781 15.3473 9.47599 15.18 9.55963C15.1382 9.58054 15.0615 9.62933 15.0267 9.66418C15.0127 9.67812 14.9848 9.68509 14.9709 9.66418C14.95 9.6363 14.9709 9.61539 15.0127 9.57357C15.2009 9.42024 15.4448 9.24599 15.4657 9.22508C15.4936 9.20418 15.6818 9.02993 15.8073 8.92539C15.856 8.89054 15.8839 8.8766 15.9048 8.90448C15.9188 8.91842 15.9048 8.9463 15.8909 8.96024C15.863 8.98114 15.8351 9.00205 15.7933 9.05781C15.6957 9.16933 15.7236 9.2669 15.8282 9.42024C15.9257 9.55963 16.0233 9.67812 16.553 10.3333L16.9154 10.7863C17.2848 11.2393 17.6403 11.783 17.5427 12.3545C17.4591 12.8702 17.1733 13.163 16.9294 13.3651C16.783 13.4836 16.3509 13.8042 15.8212 13.7624C15.4588 13.7345 15.0615 13.5672 14.5667 12.9539L14.0718 12.3405H14.0857Z" fill="#7D7D7D"/>
<path id="Vector_13" d="M19.6127 10.4933C19.8218 10.8836 19.9333 10.9881 20.0866 10.9602C20.1912 10.9393 20.2957 10.8905 20.3445 10.8696C20.3654 10.8557 20.3863 10.8627 20.4003 10.8766C20.4142 10.9045 20.3933 10.9324 20.3306 10.9602C20.0588 11.0996 19.8566 11.1833 19.8148 11.2042C19.773 11.2251 19.5778 11.3436 19.3618 11.4551C19.313 11.476 19.2781 11.4899 19.2642 11.4551C19.2503 11.4342 19.2642 11.4202 19.2851 11.4063C19.32 11.3854 19.4106 11.3366 19.4663 11.2808C19.5709 11.1833 19.5221 11.0369 19.2991 10.5978L17.9051 7.83782C17.8075 7.64964 17.8006 7.58691 17.8354 7.57297C17.8703 7.55206 18.0097 7.61479 18.0794 7.64267C18.1909 7.69145 19.306 8.10267 20.4491 8.52085C21.1809 8.79267 22.0033 9.11327 22.2403 9.18994L20.9439 6.77145C20.7836 6.45782 20.693 6.37418 20.5257 6.40903C20.4281 6.43691 20.3166 6.4857 20.2748 6.5066C20.24 6.52054 20.226 6.50661 20.2191 6.49267C20.2051 6.46479 20.24 6.43691 20.2957 6.40903C20.5118 6.29751 20.7488 6.19297 20.8045 6.17206C20.8603 6.14418 21.0066 6.05357 21.2088 5.94903C21.2645 5.92115 21.2994 5.90721 21.3133 5.94206C21.3203 5.96297 21.3133 5.98388 21.2784 6.00479C21.2506 6.01873 21.2227 6.03267 21.1669 6.07448C21.0275 6.186 21.0624 6.30448 21.2088 6.59024L22.6306 9.41994C22.7909 9.74054 22.7909 9.76842 22.763 9.78236C22.7281 9.80327 22.6375 9.78236 22.2542 9.64994C22.1775 9.62903 21.1251 9.27357 20.3375 8.98085C19.4733 8.66024 18.623 8.33267 18.3791 8.23509L19.6127 10.5072V10.4933Z" fill="#7D7D7D"/>
<path id="Vector_14" d="M24.84 7.37778C24.9933 7.87263 25.1188 8.28384 25.2094 8.49293C25.2721 8.6393 25.3348 8.74384 25.4951 8.71596C25.5718 8.70202 25.6903 8.68111 25.7321 8.66717C25.76 8.6602 25.7809 8.66717 25.7809 8.68808C25.7809 8.71596 25.767 8.73687 25.7112 8.75778C25.4254 8.84142 25.0979 8.93202 25.07 8.93899C25.0421 8.94596 24.7215 9.06445 24.5682 9.10626C24.5124 9.12717 24.4845 9.1202 24.4706 9.09232C24.4706 9.07839 24.4706 9.05748 24.4985 9.05051C24.5473 9.03657 24.603 9.00869 24.6448 8.98081C24.7424 8.92505 24.7285 8.80657 24.7076 8.65324C24.6657 8.43021 24.5403 8.01899 24.387 7.52414L24.1082 6.61808C23.8573 5.8096 23.8154 5.67021 23.7527 5.50293C23.69 5.32869 23.6063 5.25899 23.4879 5.26596C23.4251 5.26596 23.3554 5.2799 23.3206 5.29384C23.2997 5.29384 23.2788 5.29384 23.2718 5.2799C23.2648 5.24505 23.2857 5.23111 23.3415 5.21021C23.5088 5.15445 23.8433 5.07081 23.8642 5.06384C23.8921 5.05687 24.2127 4.93839 24.366 4.8896C24.4218 4.86869 24.4497 4.87566 24.4636 4.90354C24.4636 4.92445 24.4497 4.93839 24.4288 4.94536C24.3939 4.9593 24.366 4.97324 24.3033 5.00111C24.1709 5.07081 24.157 5.16839 24.2057 5.3496C24.2476 5.51687 24.2894 5.66324 24.5403 6.46475L24.8191 7.37081L24.84 7.37778Z" fill="#7D7D7D"/>
<path id="Vector_15" d="M28.6594 7.46861C28.8615 6.70892 29.3006 4.73649 29.3633 4.33225C29.3773 4.24861 29.3912 4.17195 29.3842 4.12316C29.3842 4.08134 29.3563 4.03255 29.2936 4.01164C29.2239 3.9977 29.1473 4.01164 29.0915 4.01861C29.0567 4.01861 29.0288 4.01861 29.0288 3.9977C29.0288 3.96286 29.0567 3.94892 29.1403 3.93498C29.3563 3.90013 29.6003 3.88619 29.663 3.87225C29.6909 3.87225 29.9209 3.81649 30.0742 3.79558C30.13 3.78861 30.1648 3.79558 30.1718 3.81649C30.1718 3.84437 30.1579 3.85831 30.116 3.86528C30.0812 3.86528 29.9627 3.88619 29.8721 3.96982C29.8094 4.02558 29.7397 4.13013 29.656 4.51346C29.6212 4.67376 29.447 5.34982 29.2727 6.04679C29.0636 6.87619 28.9103 7.48952 28.8267 7.76831C28.7221 8.10983 28.7151 8.20043 28.6594 8.2074C28.5967 8.21437 28.5618 8.14467 28.4154 7.9077L26.6173 4.8271C26.457 4.54831 26.3663 4.49952 26.1712 4.47164C26.0876 4.46467 25.997 4.47164 25.9691 4.47861C25.9412 4.47861 25.9273 4.47164 25.9203 4.45073C25.9203 4.42286 25.9691 4.40892 26.0527 4.39498C26.3106 4.35316 26.6173 4.32528 26.68 4.31831C26.7357 4.31134 26.9727 4.26255 27.1748 4.2277C27.2724 4.21376 27.3212 4.21376 27.3212 4.24164C27.3212 4.26952 27.3142 4.28346 27.2724 4.28346C27.2167 4.29043 27.1191 4.31134 27.0703 4.33922C27.0145 4.37407 27.0076 4.42286 27.0145 4.4577C27.0215 4.5274 27.1121 4.68073 27.2236 4.88285L28.6594 7.46164V7.46861Z" fill="#7D7D7D"/>
<path id="Vector_16" d="M32.0397 5.3497C32.0536 4.50636 32.0606 4.35303 32.0536 4.18576C32.0467 4.00455 32.0048 3.91394 31.8236 3.87212C31.7818 3.85818 31.6912 3.85121 31.6424 3.85121C31.6215 3.85121 31.6006 3.83727 31.6006 3.81637C31.6006 3.78152 31.6285 3.77455 31.6842 3.77455C31.9282 3.77455 32.2697 3.80243 32.2906 3.80243C32.3254 3.80243 33.4057 3.82334 33.5242 3.81637C33.6288 3.81637 33.7124 3.80243 33.7542 3.79546C33.7821 3.79546 33.803 3.76758 33.8309 3.76758C33.8448 3.76758 33.8518 3.78849 33.8518 3.81637C33.8518 3.85121 33.8239 3.92091 33.803 4.06727C33.803 4.12303 33.7821 4.36 33.7682 4.42273C33.7682 4.45061 33.7473 4.47849 33.7264 4.47849C33.6915 4.47849 33.6845 4.45061 33.6845 4.40879C33.6845 4.37394 33.6845 4.27637 33.6567 4.21364C33.6218 4.12303 33.5661 4.0603 33.2803 4.02546C33.1897 4.01152 32.6042 3.99758 32.5415 3.99758C32.5206 3.99758 32.5067 4.01152 32.5067 4.05334L32.4788 5.54485C32.4788 5.5797 32.4788 5.60061 32.5067 5.60061C32.5764 5.60061 33.2385 5.61455 33.3639 5.60061C33.4964 5.59364 33.566 5.5797 33.6218 5.53091C33.6567 5.48909 33.6845 5.46121 33.7054 5.46121C33.7194 5.46121 33.7333 5.47515 33.7333 5.50303C33.7333 5.53788 33.7054 5.62849 33.6845 5.80273C33.6706 5.91424 33.6567 6.1094 33.6567 6.15121C33.6567 6.19303 33.6567 6.25576 33.6148 6.25576C33.587 6.25576 33.58 6.23485 33.58 6.20697C33.58 6.15121 33.58 6.09546 33.5591 6.02576C33.5382 5.94909 33.4894 5.85849 33.2803 5.83061C33.1339 5.8097 32.6042 5.78879 32.5067 5.78879C32.4788 5.78879 32.4718 5.80273 32.4718 5.82364V6.29758C32.4579 6.47879 32.4439 7.10606 32.4439 7.21758C32.4509 7.59394 32.5345 7.66364 33.0642 7.67061C33.2036 7.67061 33.4406 7.67061 33.58 7.62182C33.7194 7.56606 33.7891 7.45455 33.8309 7.23849C33.8448 7.17576 33.8518 7.15485 33.8797 7.15485C33.9145 7.15485 33.9145 7.19667 33.9076 7.23849C33.9076 7.28031 33.8588 7.6497 33.8309 7.76121C33.7891 7.90061 33.7473 7.90061 33.5382 7.89364C32.7227 7.8797 32.3603 7.83788 32.207 7.83788C32.1791 7.83788 31.8376 7.84485 31.6773 7.83788C31.6215 7.83788 31.5936 7.82394 31.5936 7.79606C31.5936 7.78212 31.6076 7.76121 31.6354 7.76121C31.6842 7.76121 31.747 7.75424 31.7957 7.7403C31.9073 7.7194 31.9351 7.60091 31.956 7.44758C31.9839 7.21758 31.9909 6.79243 32.0048 6.27667L32.0188 5.32879L32.0397 5.3497Z" fill="#7D7D7D"/>
<path id="Vector_17" d="M36.8349 4.42265C36.8349 4.42265 36.8628 4.37386 36.8907 4.36689C36.9464 4.36689 37.0928 4.36689 37.2531 4.40174C37.8246 4.50629 38.0964 4.97325 37.9779 5.63538C37.9013 6.03962 37.7131 6.2975 37.497 6.39507C37.3576 6.4578 37.2113 6.44386 37.0789 6.42295C36.8419 6.38113 36.6049 6.2975 36.5352 6.23477C36.5143 6.21386 36.5073 6.19295 36.5073 6.16507L36.8279 4.42962L36.8349 4.42265ZM35.9985 6.55538C35.901 7.06416 35.8243 7.48235 35.7546 7.69841C35.7058 7.85174 35.657 7.96325 35.5455 7.96325C35.4967 7.96325 35.427 7.96325 35.3852 7.95629C35.3504 7.95629 35.3364 7.96325 35.3364 7.97719C35.3364 8.01204 35.3573 8.02598 35.4131 8.03295C35.5734 8.06083 35.9079 8.10962 35.9149 8.10962C35.9428 8.10962 36.2704 8.19325 36.5631 8.24901C36.6188 8.25598 36.6467 8.24901 36.6537 8.22113C36.6537 8.20719 36.6537 8.18629 36.6188 8.17932C36.5701 8.17235 36.4585 8.1375 36.3819 8.11659C36.2285 8.0678 36.2146 7.94234 36.2285 7.78901C36.2425 7.55901 36.3191 7.14083 36.4167 6.63204L36.4376 6.50659C36.4376 6.50659 36.4585 6.46477 36.4864 6.47174L37.1346 6.60416C37.1346 6.60416 37.1764 6.62507 37.1973 6.64598C37.281 6.80628 37.4622 7.20356 37.6295 7.5381C37.8595 7.99113 37.9989 8.29083 38.201 8.45113C38.3264 8.54871 38.4519 8.60447 38.7516 8.66022L39.1279 8.72992C39.2255 8.75083 39.2604 8.74386 39.2604 8.70901C39.2604 8.69507 39.2464 8.67416 39.2185 8.66719C39.1837 8.66719 39.114 8.64628 39.0164 8.61144C38.891 8.56265 38.6679 8.46507 38.4379 8.10962C38.194 7.72628 37.9222 7.18265 37.5876 6.54144C38.1452 6.19295 38.3822 5.83053 38.4588 5.43325C38.5285 5.06386 38.3404 4.76416 38.2288 4.64568C37.9849 4.39477 37.6364 4.29022 37.3019 4.2275C37.1346 4.19962 36.7304 4.13689 36.6746 4.12992C36.6467 4.12992 36.3122 4.04629 36.0752 4.00447C36.0195 3.9975 35.9916 4.00447 35.9846 4.03235C35.9846 4.05325 35.9985 4.06719 36.0195 4.07416C36.0682 4.08113 36.1588 4.10204 36.1937 4.12295C36.361 4.19265 36.3888 4.28325 36.3679 4.47144C36.347 4.64568 36.3191 4.79204 36.1658 5.62144L35.9916 6.55538H35.9985Z" fill="#7D7D7D"/>
<path id="Vector_18" d="M39.7203 8.93893C39.6645 8.87621 39.6645 8.8553 39.7203 8.7159C39.8109 8.45802 39.9015 8.26287 39.9363 8.18621C39.9642 8.13045 39.9782 8.10954 40.006 8.11651C40.0339 8.13045 40.0339 8.14439 40.02 8.18621C40.006 8.23499 39.9782 8.30469 39.9712 8.38136C39.9085 8.7856 40.1942 9.05045 40.5357 9.16893C41.0236 9.34317 41.386 9.07833 41.5045 8.75075C41.63 8.40227 41.5533 8.14439 41.2467 7.62863L41.0864 7.35681C40.71 6.72257 40.696 6.36015 40.8215 6.01863C41.0166 5.47499 41.5533 5.25196 42.2015 5.48196C42.3967 5.55166 42.543 5.62833 42.6545 5.70499C42.7451 5.76075 42.78 5.78166 42.8218 5.7956C42.8636 5.80954 42.8706 5.82348 42.8566 5.85136C42.8497 5.87924 42.766 6.03954 42.6406 6.38105C42.6127 6.46469 42.5848 6.49257 42.5639 6.4856C42.536 6.47166 42.536 6.45075 42.543 6.40196C42.5639 6.33924 42.5779 6.19287 42.5709 6.12318C42.557 6.05348 42.5012 5.7956 42.0342 5.62833C41.6857 5.50287 41.3303 5.62833 41.1979 5.99075C41.0933 6.27651 41.17 6.50651 41.5115 7.06408L41.616 7.22439C42.0482 7.91439 42.076 8.27681 41.9297 8.68802C41.853 8.89712 41.637 9.25257 41.1979 9.37803C40.926 9.45469 40.6263 9.41287 40.3545 9.3153C40.1176 9.23166 39.8945 9.11317 39.7203 8.93196V8.93893Z" fill="#7D7D7D"/>
<path id="Vector_19" d="M44.4109 9.30176C44.1739 9.76176 43.9788 10.1451 43.8952 10.3542C43.8394 10.5005 43.8115 10.619 43.9439 10.7166C44.0067 10.7584 44.1042 10.8281 44.153 10.849C44.1809 10.863 44.1809 10.8839 44.1739 10.8978C44.16 10.9187 44.1321 10.9257 44.0764 10.8978C43.8115 10.7584 43.5188 10.5912 43.4909 10.5772C43.463 10.5633 43.1564 10.4239 43.01 10.3472C42.9542 10.3193 42.9403 10.2984 42.9542 10.2705C42.9612 10.2566 42.9821 10.2496 43.01 10.2636C43.0518 10.2845 43.1145 10.3054 43.1633 10.3193C43.2679 10.3472 43.3515 10.2566 43.4352 10.1242C43.5606 9.936 43.7558 9.55267 43.9927 9.09267L44.4248 8.24933C44.8082 7.50358 44.8779 7.36418 44.9476 7.20388C45.0242 7.03661 45.0173 6.93206 44.9197 6.84843C44.8779 6.80661 44.8152 6.77176 44.7803 6.75085C44.7594 6.74388 44.7455 6.72297 44.7594 6.70206C44.7733 6.67418 44.8012 6.67418 44.857 6.70206C45.0173 6.7857 45.31 6.95297 45.3379 6.96691C45.3588 6.98085 45.6724 7.12024 45.8188 7.19691C45.8676 7.22479 45.8885 7.2457 45.8745 7.27358C45.8606 7.29449 45.8397 7.29449 45.8188 7.28055C45.7839 7.26661 45.7561 7.25267 45.6933 7.23176C45.5539 7.18994 45.4703 7.25267 45.3727 7.41297C45.2821 7.55933 45.2124 7.69873 44.8291 8.44449L44.397 9.28782L44.4109 9.30176Z" fill="#7D7D7D"/>
<path id="Vector_20" d="M47.5891 11.2807C47.2894 11.7059 47.0385 12.0474 46.9269 12.2495C46.8503 12.3889 46.8085 12.5004 46.9269 12.612C46.9827 12.6677 47.0733 12.7444 47.1151 12.7723C47.143 12.7932 47.143 12.8071 47.1291 12.821C47.1151 12.842 47.0803 12.842 47.0315 12.8071C46.7875 12.6329 46.5227 12.4238 46.5018 12.4098C46.4809 12.3959 46.1951 12.2077 46.0627 12.1171C46.0139 12.0823 46 12.0613 46.0139 12.0335C46.0209 12.0195 46.0418 12.0126 46.0697 12.0335C46.1115 12.0613 46.1672 12.0892 46.216 12.1101C46.3136 12.1589 46.4112 12.0753 46.5157 11.9568C46.6691 11.7895 46.92 11.441 47.2197 11.0159L48.5509 9.15498L47.8957 8.70195C47.6239 8.51377 47.4915 8.46498 47.3451 8.52074C47.2406 8.56256 47.2057 8.58347 47.1709 8.60437C47.136 8.63225 47.1151 8.63225 47.0942 8.61831C47.0803 8.61134 47.0803 8.59044 47.0942 8.56256C47.1221 8.52074 47.4845 8.2071 47.5194 8.17225C47.5472 8.15135 47.603 8.10953 47.6239 8.1165C47.6518 8.13741 47.6657 8.21407 47.7772 8.30468C47.8957 8.40922 48.056 8.53468 48.1118 8.5765L49.7636 9.75437C50.0424 9.9565 50.1957 9.99831 50.2306 10.0192C50.2515 10.0332 50.2306 10.061 50.2166 10.0889C50.1191 10.2213 49.896 10.5141 49.8542 10.5629C49.8263 10.6047 49.7985 10.6116 49.7845 10.5977C49.7636 10.5838 49.7636 10.5629 49.8054 10.5001L49.8333 10.4513C49.91 10.305 49.8821 10.1307 49.4639 9.82407L48.9133 9.41983L47.5891 11.2807Z" fill="#7D7D7D"/>
<path id="Vector_21" d="M50.4885 13.9783C50.6976 13.7761 50.7395 13.6507 50.8022 13.4904C50.837 13.3998 51.1716 12.0546 51.2413 11.7201C51.2901 11.4831 51.2901 11.2949 51.2692 11.1764C51.2482 11.0789 51.1995 10.9813 51.1646 10.9464C51.1437 10.9255 51.1367 10.8976 51.1507 10.8837C51.1646 10.8698 51.1925 10.8698 51.2273 10.9046C51.297 10.9743 51.5688 11.274 51.5898 11.2949C51.6176 11.3228 51.771 11.4552 51.9173 11.6086C51.9591 11.6504 51.9522 11.6713 51.9382 11.6852C51.9243 11.6992 51.8964 11.6852 51.8476 11.6643C51.8058 11.6504 51.764 11.6504 51.7291 11.6852C51.6873 11.734 51.6595 11.7967 51.6316 11.8873C51.5828 12.0616 51.1576 13.6158 51.1158 13.797C51.3458 13.7134 52.6701 13.3649 52.8722 13.3161C53.0046 13.2883 53.0813 13.2395 53.1301 13.1907C53.1858 13.1349 53.2137 13.0792 53.1788 13.0234C53.1579 12.9746 53.144 12.9467 53.1579 12.9258C53.1719 12.9119 53.2067 12.9258 53.2416 12.9676C53.3391 13.0652 53.4507 13.1976 53.4785 13.2325C53.4995 13.2534 53.7852 13.5183 53.8549 13.5949C53.8828 13.6228 53.8967 13.6507 53.8828 13.6646C53.8619 13.6855 53.834 13.6786 53.7991 13.6437C53.7573 13.6019 53.6667 13.5461 53.5691 13.5183C53.4437 13.4904 53.3601 13.4904 53.1719 13.5113C52.8931 13.5392 51.4573 13.8946 51.2273 13.9852C51.0322 14.0619 50.9137 14.1804 50.7882 14.3058L50.4607 14.6334C50.3979 14.6961 50.2376 14.8564 50.0843 15.0237C49.9798 15.1422 49.931 15.2607 50.0285 15.3931C50.0704 15.4558 50.147 15.5464 50.1819 15.5813C50.2028 15.6022 50.2028 15.6231 50.1819 15.637C50.161 15.658 50.1331 15.651 50.0913 15.6092C49.8822 15.4001 49.6591 15.1422 49.6382 15.1283C49.6173 15.1073 49.3664 14.8773 49.2549 14.7658C49.2131 14.724 49.1992 14.6961 49.227 14.6752C49.241 14.6613 49.2549 14.6613 49.2828 14.6822C49.3176 14.717 49.3664 14.7519 49.4152 14.7798C49.5058 14.8425 49.6243 14.7937 49.7428 14.6892C49.917 14.5428 50.0773 14.3825 50.1401 14.3198L50.4676 13.9922L50.4885 13.9783Z" fill="#7D7D7D"/>
<path id="Vector_22" d="M52.8025 18.9267C52.8025 18.864 52.8025 18.857 52.9001 18.8012C53.0674 18.6967 53.2067 18.627 53.2625 18.5991C53.2973 18.5782 53.3252 18.5782 53.3322 18.5991C53.3461 18.62 53.3322 18.627 53.3113 18.6479C53.2834 18.6688 53.2346 18.6967 53.1928 18.7315C52.9767 18.9337 53.0186 19.2124 53.158 19.4355C53.3531 19.7561 53.6807 19.77 53.8898 19.6376C54.1198 19.4982 54.1964 19.317 54.2522 18.8849L54.2801 18.6618C54.3498 18.1321 54.5101 17.923 54.7331 17.7837C55.0886 17.5676 55.4928 17.6791 55.7577 18.1043C55.8413 18.2367 55.8831 18.3412 55.918 18.4318C55.9458 18.5015 55.9598 18.5294 55.9737 18.5573C55.9877 18.5852 55.9877 18.5921 55.9737 18.6061C55.9598 18.62 55.8413 18.6688 55.6113 18.8082C55.5555 18.8431 55.5277 18.85 55.5207 18.8291C55.5067 18.8082 55.5207 18.7943 55.5486 18.7734C55.5834 18.7455 55.6601 18.6688 55.688 18.627C55.7158 18.5852 55.7995 18.4109 55.6043 18.1043C55.4649 17.8743 55.207 17.7837 54.9631 17.93C54.7749 18.0485 54.7192 18.2088 54.6564 18.6827L54.6425 18.8221C54.5728 19.4076 54.4264 19.6237 54.1616 19.7909C54.0222 19.8746 53.7364 19.9791 53.4367 19.8467C53.2486 19.763 53.0952 19.6097 52.9837 19.4285C52.8861 19.2752 52.8164 19.1079 52.7955 18.9267H52.8025Z" fill="#7D7D7D"/>
<path id="Vector_23" d="M55.3812 21.3174C55.0467 21.4846 54.7679 21.6171 54.6285 21.7077C54.5309 21.7704 54.4682 21.8262 54.503 21.9377C54.517 21.9934 54.5518 22.0701 54.5657 22.1049C54.5727 22.1259 54.5657 22.1398 54.5588 22.1398C54.5379 22.1468 54.5239 22.1398 54.503 22.098C54.4124 21.9028 54.3148 21.6798 54.3009 21.6589C54.2939 21.638 54.1754 21.4219 54.1197 21.3174C54.0988 21.2755 54.0988 21.2546 54.1197 21.2477C54.1267 21.2477 54.1476 21.2477 54.1545 21.2686C54.1685 21.3034 54.1964 21.3383 54.2173 21.3662C54.266 21.4289 54.3497 21.408 54.4612 21.3731C54.6145 21.3174 54.8933 21.1849 55.2348 21.0177L55.8551 20.718C56.4057 20.4531 56.5033 20.4043 56.6079 20.3416C56.7264 20.2789 56.7682 20.2092 56.7473 20.1255C56.7403 20.0837 56.7194 20.0349 56.7124 20.0071C56.7124 19.9931 56.7124 19.9792 56.7124 19.9652C56.7333 19.9583 56.7473 19.9652 56.7682 20.0071C56.8239 20.1255 56.9215 20.3486 56.9285 20.3695C56.9354 20.3904 57.0539 20.6065 57.1097 20.711C57.1306 20.7528 57.1306 20.7737 57.1097 20.7807C57.0957 20.7807 57.0818 20.7807 57.0748 20.7598C57.0609 20.7319 57.047 20.718 57.0191 20.6762C56.9564 20.5925 56.8797 20.5925 56.7542 20.6413C56.6357 20.6901 56.5382 20.7389 55.9876 21.0037L55.3673 21.3034L55.3812 21.3174Z" fill="#7D7D7D"/>
<path id="Vector_24" d="M55.66 23.4362C55.3603 23.5477 55.2767 23.6105 55.2767 23.722C55.2767 23.7986 55.3046 23.8823 55.3185 23.9171C55.3185 23.938 55.3185 23.952 55.3046 23.952C55.2837 23.9589 55.2697 23.938 55.2488 23.8962C55.1791 23.6871 55.1443 23.5338 55.1303 23.4989C55.1164 23.4641 55.0537 23.3108 54.9979 23.1505C54.984 23.1156 54.984 23.0877 55.0119 23.0808C55.0258 23.0808 55.0397 23.0808 55.0397 23.1017C55.0467 23.1296 55.0746 23.1993 55.1164 23.248C55.1722 23.3317 55.2837 23.3177 55.6252 23.1993L57.751 22.4953C57.8973 22.4465 57.9391 22.4465 57.9531 22.4744C57.96 22.5023 57.9043 22.5929 57.8764 22.6417C57.8346 22.7183 57.4164 23.4711 56.9982 24.2447C56.7264 24.7396 56.4128 25.2971 56.3291 25.4574L58.197 24.7883C58.441 24.7047 58.5107 24.6489 58.5037 24.5235C58.4967 24.4538 58.4688 24.3632 58.4619 24.3353C58.4549 24.3074 58.4619 24.3005 58.4758 24.3005C58.4967 24.2935 58.5107 24.3214 58.5246 24.3632C58.5803 24.5305 58.6291 24.7117 58.6431 24.7535C58.657 24.7953 58.7058 24.9138 58.7616 25.0671C58.7755 25.1089 58.7825 25.1368 58.7616 25.1438C58.7476 25.1438 58.7337 25.1438 58.7197 25.1089C58.7197 25.088 58.7058 25.0671 58.6779 25.0253C58.6082 24.9138 58.5246 24.9208 58.3016 24.9974L56.127 25.7153C55.8831 25.7989 55.8622 25.792 55.8552 25.7711C55.8482 25.7432 55.8691 25.6805 56.0016 25.4226C56.0225 25.3668 56.3919 24.6559 56.6846 24.1193C57.0052 23.5338 57.3328 22.9553 57.4234 22.795L55.66 23.4362Z" fill="#7D7D7D"/>
<path id="Vector_25" d="M56.6358 27.4368C56.9076 27.0047 57.3328 26.8444 57.7022 26.7817C57.9601 26.7399 58.427 26.7538 58.8313 27.0396C59.1031 27.2347 59.3401 27.5553 59.4376 28.1478C59.4655 28.3011 59.4864 28.5241 59.4864 28.7123C59.4864 28.8656 59.4864 28.9911 59.4864 29.1165C59.4864 29.1584 59.4725 29.1723 59.4516 29.1723C59.4237 29.1723 59.3679 29.1723 59.2355 29.1862C59.1031 29.2002 58.894 29.235 58.8382 29.242C58.7825 29.242 58.7546 29.242 58.7546 29.2211C58.7546 29.1932 58.7755 29.1862 58.8313 29.1793C58.9776 29.1514 59.131 29.0678 59.2007 28.9493C59.2913 28.7959 59.347 28.4823 59.2913 28.1408C59.2076 27.625 59.0195 27.4159 58.8592 27.2975C58.5386 27.0605 58.1901 27.0535 57.7928 27.1162C57.054 27.2347 56.4755 27.9178 56.6079 28.7402C56.6567 29.0329 56.7264 29.249 56.9146 29.3814C57.0122 29.4511 57.1934 29.472 57.2631 29.472C57.3049 29.472 57.3258 29.472 57.3258 29.4999C57.3258 29.5208 57.3049 29.5278 57.2701 29.5347C57.2422 29.5347 56.9007 29.5487 56.7613 29.5347C56.6846 29.5208 56.6776 29.5208 56.6358 29.4511C56.5522 29.3047 56.4755 29.019 56.4337 28.7681C56.3361 28.1896 56.4128 27.7784 56.6358 27.4229V27.4368Z" fill="#7D7D7D"/>
<path id="Vector_26" d="M58.5316 30.9774C59.1379 30.9565 59.2495 30.9565 59.3749 30.9426C59.5073 30.9287 59.5701 30.8938 59.591 30.7683C59.591 30.7405 59.5979 30.6708 59.591 30.6359C59.591 30.622 59.591 30.6011 59.6119 30.6011C59.6398 30.6011 59.6467 30.622 59.6467 30.6638C59.6467 30.838 59.6467 31.089 59.6467 31.1029C59.6467 31.1308 59.6746 31.9114 59.6816 31.995C59.6816 32.0717 59.6955 32.1344 59.7095 32.1623C59.7095 32.1832 59.7304 32.1971 59.7304 32.218C59.7304 32.232 59.7164 32.232 59.6955 32.232C59.6676 32.232 59.6189 32.218 59.5143 32.2041C59.4725 32.2041 59.3052 32.2041 59.2564 32.1902C59.2355 32.1902 59.2146 32.1832 59.2146 32.1623C59.2146 32.1414 59.2355 32.1274 59.2634 32.1274C59.2913 32.1274 59.354 32.1274 59.4028 32.0996C59.4655 32.0717 59.5073 32.0299 59.5282 31.8208C59.5282 31.7511 59.5282 31.3259 59.5282 31.2841C59.5282 31.2702 59.5143 31.2632 59.4864 31.2632L58.4061 31.298C58.4061 31.298 58.3713 31.298 58.3713 31.3259C58.3713 31.3747 58.3922 31.8556 58.3992 31.9462C58.4131 32.0368 58.4201 32.0926 58.4619 32.1274C58.4967 32.1553 58.5176 32.1693 58.5176 32.1832C58.5176 32.1971 58.5176 32.2041 58.4898 32.2041C58.4689 32.2041 58.3992 32.1902 58.2737 32.1832C58.197 32.1832 58.0507 32.1762 58.0228 32.1762C57.9949 32.1762 57.9461 32.1762 57.9461 32.1483C57.9461 32.1274 57.9601 32.1205 57.981 32.1205C58.0158 32.1205 58.0576 32.1205 58.1064 32.0996C58.1622 32.0787 58.2249 32.0438 58.2389 31.8905C58.2458 31.7859 58.2389 31.3956 58.2389 31.3329C58.2389 31.312 58.2249 31.305 58.211 31.305L57.8695 31.319C57.737 31.319 57.284 31.3329 57.2004 31.3399C56.9355 31.3608 56.8798 31.4235 56.8937 31.7999C56.8937 31.9044 56.9007 32.0717 56.9495 32.1762C56.9913 32.2738 57.0749 32.3226 57.2352 32.3435C57.277 32.3435 57.2979 32.3574 57.2979 32.3783C57.2979 32.3993 57.2701 32.3993 57.2422 32.4062C57.2143 32.4062 56.9425 32.3853 56.8658 32.3644C56.7613 32.3435 56.7613 32.3087 56.7543 32.1553C56.7334 31.5629 56.7543 31.305 56.7543 31.1865C56.7543 31.1796 56.7543 31.1099 56.7473 31.0332C56.7473 30.9565 56.7334 30.8659 56.7334 30.8032C56.7334 30.7614 56.7334 30.7405 56.7613 30.7405C56.7752 30.7405 56.7892 30.7474 56.7892 30.7683C56.7892 30.8032 56.8031 30.852 56.8101 30.8868C56.831 30.9635 56.9146 30.9844 57.0261 30.9914C57.1864 31.0053 57.5001 30.9914 57.8764 30.9844L58.5664 30.9635L58.5316 30.9774Z" fill="#7D7D7D"/>
<path id="Vector_27" d="M57.9948 36.7759C57.4582 36.6923 57.0051 36.6156 56.7612 36.6087C56.5939 36.6087 56.5103 36.6087 56.4475 36.7759C56.4197 36.8526 56.3639 37.0756 56.3569 37.1244C56.3569 37.1453 56.3291 37.1662 56.3082 37.1593C56.2803 37.1593 56.2733 37.1244 56.2872 37.0617C56.35 36.6644 56.4197 36.3229 56.4266 36.295C56.4266 36.2671 56.4894 35.8211 56.5382 35.4796C56.5451 35.4238 56.566 35.3959 56.5869 35.4029C56.6078 35.4029 56.6288 35.4308 56.6218 35.4517C56.6078 35.5144 56.5869 35.7793 56.5939 35.8838C56.5939 36.065 56.6706 36.1138 56.8379 36.1487C57.0679 36.2044 57.5279 36.2741 58.0645 36.3578L58.9985 36.5041C59.2842 36.5529 59.5142 36.5808 59.8069 36.6296C59.9115 36.6505 59.9742 36.6435 59.9882 36.5599C60.0021 36.4553 59.8697 36.0581 59.8279 35.9117C59.8139 35.8838 59.8139 35.8629 59.8139 35.842C59.8139 35.8281 59.8418 35.8141 59.8697 35.8211C59.8836 35.8211 59.9045 35.842 59.9185 35.8699C59.9324 35.9047 60.4203 36.9572 60.4412 37.0059C60.4691 37.0617 60.49 37.1035 60.483 37.1453C60.483 37.1872 60.4133 37.1872 60.3645 37.1802C60.3227 37.1732 59.8 37.0617 58.9845 36.9293L58.0018 36.769L57.9948 36.7759Z" fill="#7D7D7D"/>
<path id="Vector_28" d="M57.8974 41.4108C56.4477 40.9717 55.897 39.5429 55.7786 38.8181C55.7786 38.7832 55.7786 38.7484 55.7786 38.7274C55.7786 38.7065 55.8134 38.6926 55.8413 38.6996C55.8692 38.7065 55.8901 38.7344 55.8971 38.7762C56.0504 39.4871 56.6637 40.5396 57.8834 40.909C58.7895 41.1808 59.368 40.9229 59.5074 40.4699C59.6468 40.0029 59.3401 39.6474 58.9289 39.522C58.0716 39.2641 57.7092 39.8496 57.6674 39.989C57.5907 40.2329 57.6116 40.3514 57.6395 40.428C57.6534 40.4629 57.6534 40.4908 57.6534 40.5047C57.6534 40.5187 57.6255 40.5256 57.6116 40.5187C57.5977 40.5187 57.5837 40.5047 57.5767 40.4838C57.4652 40.2887 57.4652 39.9959 57.528 39.7938C57.751 39.062 58.4061 38.9226 58.8383 39.0481C59.5492 39.2641 59.8837 39.9332 59.6677 40.6441C59.4446 41.3759 58.6919 41.6408 57.9043 41.4038L57.8974 41.4108Z" fill="#7D7D7D"/>
<path id="Vector_29" d="M55.5554 43.885L56.2106 42.5189C56.2873 42.6722 57.1933 44.568 57.2839 44.7004L55.5624 43.885H55.5554ZM56.9424 45.0001C57.2073 45.1256 57.5976 45.3207 57.6673 45.3556C57.716 45.3765 57.7579 45.3834 57.7718 45.3486C57.7857 45.3138 57.7718 45.2719 57.737 45.2022C57.5976 44.9444 56.2733 42.2122 56.2524 42.1704C56.2385 42.1425 56.2106 42.0937 56.1688 42.0798C56.127 42.0589 56.0921 42.0937 56.0642 42.1565L55.2976 43.7665C55.1373 43.6898 54.7539 43.5225 54.5518 43.3971C54.4124 43.3134 54.3288 43.2298 54.3776 43.0556C54.4054 42.9719 54.4542 42.8604 54.4751 42.8186C54.4891 42.7907 54.4751 42.7698 54.4542 42.7628C54.4263 42.7489 54.4054 42.7698 54.3845 42.8256C54.2591 43.0904 54.1476 43.3622 54.1266 43.3971C54.1127 43.4319 53.9454 43.7386 53.82 44.0034C53.7921 44.0592 53.7921 44.0871 53.82 44.0941C53.8409 44.101 53.8688 44.0941 53.8827 44.0662C53.9036 44.0174 53.9594 43.9198 54.0082 43.864C54.1197 43.7247 54.2242 43.7247 54.3776 43.7804C54.6006 43.8641 54.97 44.0522 55.1303 44.1289L54.9142 44.575C54.8863 44.6307 54.8933 44.6586 54.9282 44.7074C54.977 44.7562 55.0745 44.8328 55.1024 44.8468C55.1303 44.8607 55.1582 44.8747 55.1721 44.8468C55.1791 44.8259 55.1512 44.7562 55.2139 44.6237L55.3951 44.2544L56.9563 45.0001H56.9424Z" fill="#7D7D7D"/>
<path id="Vector_30" d="M54.2243 47.4815C54.301 47.363 54.3776 47.2445 54.3986 47.1052C54.3986 47.0912 54.4125 47.0494 54.4195 47.0355C54.4264 47.0215 54.4473 47.0285 54.4682 47.0355C54.4892 47.0494 54.4961 47.0703 54.4961 47.1121C54.4961 47.2445 54.4682 47.4885 54.294 47.7324C53.8689 48.3527 53.1719 48.2761 52.7746 48.0042C52.4261 47.7603 52.2031 47.4327 52.1473 47.1052C52.0916 46.7567 52.1473 46.457 52.3773 46.1294C52.8095 45.5091 53.5692 45.4115 54.3776 45.9621C55.2419 46.5545 55.7158 47.8788 55.4928 49.0009C55.4789 49.0567 55.4719 49.0985 55.4579 49.1124C55.444 49.1333 55.4231 49.1403 55.3952 49.1194C55.3604 49.0915 55.3673 49.0427 55.3743 48.98C55.451 48.1924 55.1652 47.0703 54.1128 46.3455C53.5901 45.99 52.8443 45.8088 52.4889 46.3245C52.2449 46.68 52.3355 47.1539 52.8234 47.4955C53.4437 47.9206 54.0361 47.7394 54.2173 47.4676L54.2243 47.4815Z" fill="#7D7D7D"/>
</g>
<g id="Group_4">
<g id="Group_5">
<path id="Vector_31" d="M26.938 55.8525L25.4325 60.3271L22.3659 59.2956L22.798 58.0201L21.9547 57.7413L21.3344 59.5813L26.0877 61.1844L27.7813 56.1383L26.938 55.8525Z" fill="#7D7D7D"/>
<path id="Vector_32" d="M25.9901 55.5389L22.4635 54.354L21.6132 56.884L25.1329 58.0689L25.9832 55.5389H25.9901ZM24.4916 57.2046L22.6516 56.5843L23.1116 55.2113L24.9516 55.8316L24.4916 57.2046Z" fill="#7D7D7D"/>
</g>
<path id="Vector_33" d="M47.4219 51.4268L49.7986 55.058L50.3213 54.7165L50.6489 55.2113L45.6446 58.494L45.317 57.9992L46.1325 57.4695L44.864 55.5319L45.6098 55.044L46.8782 56.9816L47.6658 56.4658L46.3904 54.5283L47.1222 54.0474L48.3907 55.978L49.0528 55.5458L47.0176 52.4374L43.6095 54.6677L43.2679 54.1449L47.4219 51.4268Z" fill="#7D7D7D"/>
<path id="Vector_34" d="M34.0261 56.3472V57.8526H33.4685V56.3472H32.6321V59.3372H29.9279V56.9744H31.8027V56.3472H29.0427V59.9505H32.6321V61.7626H33.4685V58.4869H34.0261V61.7626H34.8624V56.3472H34.0261Z" fill="#7D7D7D"/>
<path id="Vector_35" d="M19.3061 54.7859L20.031 53.7544L16.5182 51.3081L16.8597 50.8271L21.1113 53.7823L20.0519 55.3087L20.491 55.6084L20.1494 56.1032L17.8843 54.5281L17.3825 55.2529L19.2852 56.5771L18.1004 58.2847L17.3685 57.7759L18.2119 56.5632L14.4552 53.9496L14.7967 53.4547L16.6507 54.7441L17.1525 54.0193L15.0825 52.5765L15.424 52.0887L19.3061 54.7859Z" fill="#7D7D7D"/>
<g id="Group_6">
<path id="Vector_36" d="M40.6682 55.0854L41.6579 58.2566L37.5249 59.546L37.7061 60.1175L41.8391 58.8281L42.2782 60.2499L43.1285 59.9851L41.6997 55.406L42.3688 55.1969L42.1876 54.6045L40.6682 55.0854Z" fill="#7D7D7D"/>
<path id="Vector_37" d="M36.807 57.8733C37.037 58.6121 37.9779 58.9745 38.9049 58.6887C39.8319 58.403 40.3964 57.5666 40.1664 56.8278C40.0619 56.5002 39.8179 56.2424 39.4973 56.089L40.0619 55.9148L39.8807 55.3363L38.4728 55.7754L38.3125 55.2666L37.4622 55.5315L37.6225 56.0402L36.2146 56.4793L36.3958 57.0578L36.9464 56.8836C36.7652 57.1972 36.7094 57.5457 36.814 57.8733H36.807ZM38.2288 56.5351C38.6958 56.3887 39.1907 56.6396 39.3301 57.0857C39.4694 57.5387 39.2046 58.0196 38.7376 58.166C38.2707 58.3124 37.7758 58.0684 37.6364 57.6154C37.497 57.1624 37.7619 56.6814 38.2288 56.5351Z" fill="#7D7D7D"/>
</g>
</g>
</g>
</g>
<g id="Group_7">
<path id="Vector_38" d="M52.5515 22.6068C48.7391 14.6683 40.4451 9.39223 31.1336 9.90102C27.5791 10.0962 24.2336 11.0859 21.3273 12.7237C25.0979 12.4798 26.7985 10.8977 27.7951 10.7165C28.7918 10.5283 28.9661 11.3019 33.4964 11.274C38.0336 11.2462 39.783 12.9468 39.783 12.9468C39.783 12.9468 41.6509 15.2747 45.0033 15.9716C48.3558 16.6686 49.213 19.7213 49.3664 20.1465C49.5197 20.5786 50.0564 22.7113 52.5515 22.5998" fill="#9FD9F6"/>
<path id="Vector_39" d="M47.2267 37.2016C47.7703 36.6928 48.4254 36.2537 49.1503 35.9819C51.6873 35.0409 53.0394 32.7619 53.8409 30.8452C53.9524 30.5734 54.057 30.3085 54.1406 30.0646C54.1894 29.9043 54.2382 29.744 54.28 29.6046C54.3636 29.3119 54.4194 29.0679 54.4542 28.8728C54.4542 28.8309 54.4682 28.7891 54.4751 28.7473C54.2591 27.4161 53.9385 26.1337 53.5064 24.8931C53.6109 26.1825 52.7327 31.2982 49.5267 32.8664C47.6727 33.7725 46.906 35.5985 47.0245 37.4037C47.0873 37.334 47.157 37.2643 47.2336 37.1946L47.2267 37.2016Z" fill="#8EC43E"/>
<path id="Vector_40" d="M15.87 39.2506C13.4864 36.9506 13.8836 34.6157 13.8836 34.6157C13.9603 33.5215 15.0127 33.0127 13.1518 28.5521C11.4373 24.4121 13.3261 22.7045 13.3261 22.7045C13.3261 22.7045 14.8176 21.4151 14.2182 19.5821C14.1764 19.4427 14.1415 19.3103 14.1067 19.1709C11.9321 22.2097 10.4824 25.813 10.0433 29.723C10.0921 29.9182 11.5488 36.3791 15.877 39.2506H15.87Z" fill="#DCDDDD"/>
<path id="Vector_41" d="M24.6866 53.5035C24.6866 53.5035 28.8615 54.2074 31.6633 51.4126C30.6248 51.5729 29.5515 51.6426 28.4712 51.6147C17.7727 51.3777 9.77846 41.5017 10.0294 29.7368C9.98755 30.1411 9.87603 31.2353 9.883 32.3086C9.91088 42.568 16.4485 50.5135 24.6797 53.5035H24.6866Z" fill="#00A672"/>
<path id="Vector_42" d="M42.3618 46.1084C41.17 46.2618 40.0966 45.9551 40.0966 45.9551C39.093 45.6275 38.2357 45.5021 37.5039 45.509C36.3748 46.5963 36.2703 48.0112 36.2703 48.0112C36.2285 48.283 36.1727 48.5409 36.103 48.7918C37.9151 48.4502 39.6018 47.8509 41.0863 46.8542L41.1421 46.9309C39.4694 48.4084 37.5736 49.5793 35.5106 50.3809C33.5591 54.2421 29.0497 54.4999 28.5479 54.5209C29.7675 54.723 31.043 54.7996 32.3254 54.7996C42.9124 54.7996 50.3142 47.7115 53.0115 40.9927C49.0736 46.8124 44.8082 46.7915 42.3479 46.1015L42.3618 46.1084Z" fill="#F39939"/>
<path id="Vector_43" d="M41.1491 46.938L41.0933 46.8613C39.6088 47.858 37.9151 48.4504 36.11 48.7989C35.9636 49.3913 35.7615 49.9141 35.5245 50.388C37.5806 49.5865 39.4833 48.4225 41.1561 46.938H41.1491Z" fill="white"/>
<path id="Vector_44" d="M33.2036 49.1472C31.963 49.2378 30.5621 49.2169 29.4818 49.1472C23.7876 48.743 21.0555 43.3136 21.0555 43.3136C19.8915 41.4317 18.3373 40.8672 18.3373 40.8672C17.257 40.3654 16.4555 39.8148 15.877 39.2502C11.5488 36.3787 10.0921 29.9178 10.0433 29.7227V29.7366C9.79243 41.5084 17.7867 51.3775 28.4852 51.6145C29.5655 51.6424 30.6318 51.5657 31.6773 51.4124C32.2697 50.8269 32.7994 50.0811 33.2106 49.1472H33.2036Z" fill="#FDD23E"/>
<path id="Vector_45" d="M40.3058 45.2094C36.8488 42.8885 33.8448 44.6867 33.8448 44.6867C27.1261 48.4852 24.2755 42.9304 24.2755 42.9304C22.9791 40.6861 20.1215 40.5816 19.4455 40.5537C18.3791 40.5049 16.9573 39.9822 15.87 39.2573C16.4485 39.8149 17.25 40.3725 18.3303 40.8743C18.3303 40.8743 19.8776 41.4388 21.0485 43.3207C21.0485 43.3207 21.2785 43.7598 21.7176 44.401C22.8397 46.004 25.3976 48.8616 29.4748 49.1543C30.1091 49.2031 30.8479 49.224 31.6006 49.217C32.1373 49.2101 32.6739 49.1891 33.1967 49.1543C33.2942 48.9382 33.3848 48.7082 33.4685 48.4713C33.4685 48.4713 34.2003 45.5719 37.497 45.5161C38.2218 45.5022 39.0861 45.6276 40.0897 45.9622C40.0897 45.9622 41.163 46.2688 42.3548 46.1155C41.0864 45.7601 40.2988 45.2164 40.2988 45.2164L40.3058 45.2094Z" fill="#8EC43E"/>
<path id="Vector_46" d="M35.5245 50.3882C34.2909 50.8691 33.0015 51.2176 31.6703 51.4197C28.8685 54.2145 24.6936 53.5106 24.6936 53.5106C24.8469 53.5733 25.0003 53.6152 25.1466 53.6709C26.2478 54.0333 27.3909 54.3261 28.5548 54.5282C29.0566 54.5073 33.566 54.2424 35.5175 50.3882H35.5245Z" fill="#004EA2"/>
<path id="Vector_47" d="M33.4754 48.4644C33.3918 48.7014 33.2942 48.9314 33.2036 49.1475C34.2003 49.0847 35.176 48.9732 36.11 48.792C36.1866 48.5341 36.2285 48.2832 36.2773 48.0114C36.2773 48.0114 36.3818 46.5965 37.5109 45.5093C34.2142 45.565 33.4824 48.4644 33.4824 48.4644H33.4754Z" fill="#004EA2"/>
<path id="Vector_48" d="M36.11 48.792C35.176 48.9732 34.2003 49.0847 33.2036 49.1474C32.7854 50.0814 32.2627 50.8271 31.6703 51.4126C33.0015 51.2105 34.2909 50.862 35.5245 50.3811C35.7615 49.9071 35.9636 49.3844 36.11 48.792Z" fill="#00A672"/>
<g id="Group_8">
<path id="Vector_49" d="M23.7876 30.8731H23.934C24.3243 30.8731 24.7285 30.8174 24.7285 30.2668V24.698C24.7285 24.1474 24.3243 24.0916 23.934 24.0916H23.7876V23.771C24.2127 23.771 24.8609 23.8128 25.4046 23.8128C25.9831 23.8128 26.68 23.771 27.1191 23.771V24.0916H26.9867C26.6591 24.0916 26.1085 24.1055 26.1085 24.698V30.2668C26.1085 30.8661 26.6661 30.8731 26.9867 30.8731H27.1191V31.1868C26.68 31.1868 25.99 31.1449 25.4046 31.1449C24.854 31.1449 24.2127 31.1868 23.7876 31.1868V30.8731ZM28.1506 23.771C28.6176 23.771 29.0706 23.8128 29.5306 23.8128C29.9906 23.8128 30.4855 23.771 30.9734 23.771V24.0916H30.834C30.1231 24.0916 29.5376 24.5725 29.0985 25.0395L27.3979 26.8586L30.1649 30.2946C30.3949 30.6083 30.7364 30.8801 31.1476 30.8801V31.1937C30.7921 31.1937 30.4158 31.1728 30.0534 31.1728C29.7118 31.1728 29.3703 31.1937 29.0288 31.1937C28.9312 30.9916 28.6246 30.5665 28.4712 30.3992L26.1503 27.5277L28.4085 25.0395C28.5479 24.9001 28.8824 24.5377 28.8824 24.3146C28.8824 24.0916 28.4224 24.0916 28.2761 24.0916H28.1576V23.771H28.1506Z" fill="#004EA2"/>
<path id="Vector_50" d="M36.8558 29.3255L39.3998 23.7637C39.7204 23.7637 40.1107 23.8055 40.501 23.8055C40.8913 23.8055 41.2676 23.7637 41.637 23.7637V24.0843H41.5395C41.2188 24.0843 40.5637 24.1052 40.5428 24.5722C40.5288 24.8509 40.5707 25.1646 40.5916 25.4015L41.0028 30.2734C41.0446 30.8031 41.3164 30.8519 41.9576 30.8728V31.1864C41.4558 31.1655 40.9261 31.1446 40.4104 31.1446C39.8179 31.1446 39.2325 31.1655 38.6401 31.1864V30.8728C39.1976 30.8379 39.567 30.8379 39.567 30.3709C39.567 30.2455 39.567 30.127 39.567 29.8482L39.2604 25.3597H39.2395L36.4934 31.3467H36.2355L33.6288 25.4782H33.6079L33.2455 30.1479C33.2455 30.4894 33.3292 30.6567 33.4685 30.7473C33.6288 30.8519 33.8519 30.8588 34.1516 30.8658H34.284V31.1794C33.8031 31.1585 33.3082 31.1376 32.8204 31.1376C32.4022 31.1376 31.9701 31.1585 31.5519 31.1794V30.8658H31.6982C32.5555 30.8309 32.5834 30.4685 32.681 29.7088L33.0016 26.7537C33.0852 26.0009 33.127 25.304 33.127 24.8858C33.127 24.2864 32.667 24.0843 32.1861 24.0843H32.0467V23.7637C32.4928 23.7637 32.9179 23.8055 33.364 23.8055C33.6846 23.8055 34.0052 23.7637 34.3258 23.7637L36.8488 29.3255H36.8558Z" fill="#004EA2"/>
<path id="Vector_51" d="M42.9961 24.8648C42.9961 24.0981 42.5988 24.0911 42.1737 24.0911H42.0482V23.7705C42.5082 23.7705 43.0797 23.8123 43.7558 23.8123C44.4319 23.8123 44.9337 23.7705 45.3658 23.7705V24.0911H45.2334C44.8012 24.0911 44.3691 24.1051 44.3691 24.8648V28.5308C44.3691 29.8829 44.8779 30.8169 46.4182 30.8169C47.8331 30.8169 48.4673 29.9248 48.4673 28.489V24.8648C48.4673 24.0981 48.0561 24.0911 47.6867 24.0911H47.4706V23.7705C47.9028 23.7705 48.3419 23.8123 48.774 23.8123C49.2061 23.8123 49.6034 23.7705 50.0216 23.7705V24.0911H49.7916C49.4988 24.0911 49.1085 24.1051 49.1085 24.8648V28.259C49.1085 30.6566 47.8191 31.3535 46.2161 31.3535C44.1461 31.3535 42.9961 30.6078 42.9961 28.7051V24.8648Z" fill="#004EA2"/>
</g>
<path id="Vector_52" d="M44.7524 43.2718C44.3691 44.8051 43.3864 45.7321 42.4036 46.0876C42.3967 46.0876 42.3758 46.0945 42.3618 46.1015C43.47 45.9133 47.2406 45.0839 47.1779 40.5118C47.1779 40.5118 47.1639 39.327 47.0176 37.4033C45.1776 39.2573 45.1358 41.7385 44.7524 43.2718Z" fill="#004EA2"/>
<path id="Vector_53" d="M54.4682 28.7472C54.4403 28.9493 54.3845 29.249 54.28 29.6045C54.2382 29.7439 54.1894 29.9042 54.1406 30.0645C54.057 30.3084 53.9524 30.5733 53.8409 30.8451C53.0394 32.7617 51.6873 35.0408 49.1503 35.9817C48.3349 36.2884 47.5961 36.8111 47.0176 37.4036C47.1639 39.3272 47.1779 40.5121 47.1779 40.5121C47.2406 45.0075 43.6094 45.8857 42.4245 46.0948C42.4106 46.0948 42.3967 46.0948 42.3758 46.1017H42.3618C42.3618 46.1017 42.4036 46.1157 42.4176 46.1157C44.8779 46.7917 49.1155 46.7708 53.0255 40.993C54.1406 38.3236 54.747 35.3893 54.747 32.3157C54.747 31.096 54.6494 29.9042 54.4682 28.7402V28.7472Z" fill="#00A672"/>
</g>
</g>
</svg>
