<svg width="63" height="63" viewBox="0 0 63 63" fill="none" xmlns="http://www.w3.org/2000/svg">
<g id="&#237;&#149;&#156;&#234;&#181;&#173;&#236;&#153;&#184;&#234;&#181;&#173;&#236;&#150;&#180;&#235;&#140;&#128;&#237;&#149;&#153;&#234;&#181;&#144;" clip-path="url(#clip0_289_1553)">
<g id="Group">
<path id="Vector" d="M21.1963 55.7663L20.9741 55.6885L20.5407 56.733L20.7074 56.7997C21.0796 56.9553 21.3686 56.8775 21.5297 56.483C21.6686 56.1496 21.5408 55.8996 21.2019 55.7607" fill="#00294A"/>
<path id="Vector_2" d="M45.2373 54.0604L45.0429 54.1993L45.6318 55.1661L45.7818 55.0716C46.1263 54.8605 46.2319 54.5827 46.0096 54.2216C45.8207 53.916 45.5485 53.8715 45.2318 54.066" fill="#00294A"/>
<path id="Vector_3" d="M42.7704 55.3438C42.2482 55.5939 42.2871 56.2328 42.5482 56.7884C42.8704 57.4774 43.4761 57.8385 43.9372 57.6218C44.4873 57.3607 44.3984 56.7162 44.1372 56.1606C43.7983 55.4383 43.2316 55.1272 42.7704 55.3494" fill="#00294A"/>
</g>
<path id="Vector_4" d="M5.02267 34.5084V34.4973L3.84479 34.2861L3.92813 34.9918L5.02267 34.5084Z" fill="#00294A"/>
<g id="Group_2">
<path id="Vector_5" d="M35.5642 4.86706C35.7698 4.90039 35.9532 4.84483 36.1143 4.70037C36.2754 4.55036 36.3754 4.36701 36.4143 4.15033C36.4532 3.92808 36.4254 3.72251 36.3254 3.52249C36.2254 3.32248 36.0754 3.2058 35.8698 3.17246C35.6809 3.13913 35.4976 3.19469 35.3309 3.33914C35.1642 3.4836 35.0586 3.66695 35.0197 3.89475C34.9808 4.11699 35.0086 4.32256 35.1142 4.52258C35.2142 4.7226 35.3642 4.83372 35.5642 4.87261" fill="#00294A"/>
<path id="Vector_6" d="M33.7752 57.7495C33.1974 57.7995 33.014 58.4107 33.0696 59.0274C33.1307 59.7886 33.5752 60.3386 34.0808 60.2942C34.6864 60.2442 34.8308 59.6052 34.7753 58.9941C34.7086 58.1996 34.2864 57.7106 33.7752 57.7551" fill="#00294A"/>
<path id="Vector_7" d="M17.5738 7.3839C17.7182 7.43946 17.8571 7.42835 17.9849 7.36168C18.1127 7.28945 18.196 7.17833 18.2294 7.02832C18.2683 6.8783 18.246 6.72829 18.1627 6.57828C18.0849 6.43382 17.9738 6.33381 17.8238 6.27825C17.6793 6.22269 17.5404 6.2338 17.4071 6.30047C17.2793 6.36715 17.196 6.47827 17.1626 6.63384C17.1293 6.78385 17.1515 6.93386 17.2293 7.08388C17.3071 7.23389 17.4182 7.32834 17.5682 7.3839" fill="#00294A"/>
<path id="Vector_8" d="M21.9075 45.8707C22.0631 45.9762 22.2298 46.0762 22.3909 46.1818V41.6703C21.7408 41.4425 21.1241 41.1925 20.524 40.9258C20.8019 42.6093 21.2686 44.2705 21.9075 45.8762" fill="#00294A"/>
<path id="Vector_9" d="M20.4185 40.1758C21.0463 40.4703 21.7075 40.737 22.3909 40.9815V35.5254C21.6686 35.281 20.9741 34.9921 20.3129 34.6587C20.1407 36.4811 20.174 38.3368 20.4185 40.1758Z" fill="#00294A"/>
<path id="Vector_10" d="M45.8763 41.1705C47.7098 38.4313 48.7821 35.1366 48.7821 31.5919C48.7821 31.2863 48.7765 30.9807 48.7599 30.6807C48.3209 31.9363 47.6931 33.1976 46.8986 34.4088C46.9042 36.5478 46.5652 38.8092 45.8763 41.1705Z" fill="#00294A"/>
<path id="Vector_11" d="M15.7069 37.8698C15.7069 37.9309 15.7069 37.9976 15.7181 38.0587L15.5903 38.0698C16.7404 40.9034 18.6239 43.3592 21.0074 45.2038C20.474 43.7037 20.0907 42.1646 19.8629 40.6034C18.2572 39.8144 16.8515 38.881 15.7069 37.8643" fill="#00294A"/>
<path id="Vector_12" d="M17.7127 25.5798C17.246 24.8964 16.8459 24.1075 16.5126 23.1963C15.568 24.8798 14.9069 26.7355 14.5735 28.7079C14.9513 29.2857 15.3514 29.8358 15.7903 30.3469C16.2403 28.6579 16.8904 27.0466 17.7127 25.5743" fill="#00294A"/>
<path id="Vector_13" d="M14.4402 29.6084C14.3679 30.2585 14.3235 30.9196 14.3235 31.5919C14.3235 33.2143 14.5513 34.7811 14.9735 36.2701C14.9958 36.2923 15.018 36.3145 15.0347 36.3423C15.018 34.5477 15.2125 32.7753 15.6125 31.0696C15.2013 30.6085 14.8069 30.1251 14.4402 29.614" fill="#00294A"/>
<path id="Vector_14" d="M60.5942 32.8473C60.5831 33.1585 60.572 33.4696 60.5609 33.7808H60.4164C60.4275 33.5474 60.3998 33.4141 60.1831 33.4029L58.1996 33.314C57.9829 33.3029 57.944 33.4307 57.9329 33.6585H57.7884C57.8051 33.4363 57.8218 33.2196 57.8273 32.9974C57.844 32.6029 57.8607 32.1973 57.8718 31.8084H58.4718V31.9084C58.0829 31.9473 58.044 32.0306 58.0218 32.5251L58.0051 32.8807L59.0774 32.9307L59.0941 32.5306C59.1052 32.2917 59.1052 32.1806 58.7107 32.1639V32.0362C58.8663 32.0473 59.0163 32.0584 59.1719 32.0695C59.3274 32.0751 59.483 32.0806 59.6441 32.0806V32.2084C59.3274 32.1973 59.2886 32.2528 59.2774 32.5418L59.2608 32.9418L60.0886 32.9807C60.3331 32.9918 60.4275 32.8807 60.4442 32.4806C60.4664 31.9917 60.3942 31.9528 60.0275 31.7472V31.625L60.6553 31.8028C60.6331 32.1528 60.6109 32.4918 60.5942 32.8418M60.422 34.9197C60.3998 35.1031 60.3831 35.292 60.3664 35.4753L60.222 35.4587C60.2498 35.2309 60.2331 35.0975 60.0164 35.0753L58.044 34.8364C57.8329 34.8086 57.7829 34.9364 57.7551 35.1642L57.6106 35.1475C57.6384 34.9642 57.6662 34.7808 57.6884 34.5975C57.7106 34.403 57.7273 34.203 57.744 34.0252L57.8884 34.0419C57.8607 34.2697 57.8773 34.403 58.094 34.4253L60.0664 34.6642C60.2831 34.6919 60.3275 34.5642 60.3553 34.3364L60.4998 34.353C60.472 34.5308 60.4442 34.7308 60.422 34.9253M59.9942 37.5589C59.9497 37.7644 59.8886 38.0033 59.8497 38.1867C59.8053 38.3978 59.7664 38.609 59.7275 38.8256L59.583 38.7979C59.6275 38.5756 59.6219 38.4423 59.4108 38.3978L57.4662 37.9867C57.255 37.9422 57.1939 38.0645 57.1495 38.2867L57.005 38.2589C57.0495 38.0867 57.0939 37.8922 57.1328 37.6922C57.1828 37.4533 57.2217 37.2088 57.2717 36.9699C57.4717 36.0198 58.2551 35.7587 58.8885 35.8921C59.9386 36.1143 60.1275 36.8755 59.9831 37.57M59.2052 40.6925C59.0108 41.2814 58.6274 41.5425 58.0051 41.3314L56.5272 40.8314C56.3327 40.7647 56.2716 40.9592 56.2272 41.0814L56.0883 41.0369C56.1494 40.8703 56.2161 40.6869 56.2772 40.5147C56.3327 40.3536 56.3827 40.1813 56.4272 40.0257L56.5661 40.0702C56.5216 40.2091 56.4661 40.3702 56.6494 40.4313L58.1107 40.9258C58.6052 41.0925 58.8941 40.898 59.0108 40.5425C59.2274 39.898 58.6385 39.7035 58.1051 39.5201L57.4717 39.309C56.9328 39.1257 56.8772 39.159 56.7717 39.4646L56.6328 39.4201C56.6883 39.2701 56.7494 39.1146 56.7994 38.9645C56.8439 38.8368 56.8772 38.709 56.9161 38.5812L57.055 38.6256C57.005 38.7812 56.9884 38.909 57.3384 39.0257L58.4329 39.3924C59.0496 39.5979 59.4386 40.0146 59.2163 40.6814M58.0551 43.4038C57.9773 43.5705 57.9051 43.7483 57.8218 43.9428L57.6884 43.8816C57.794 43.6483 57.8162 43.5149 57.6217 43.4261L55.616 42.5149L55.466 42.8482C55.3438 43.1149 55.3604 43.1871 55.6771 43.4261L55.6271 43.5427L54.9715 43.1705L55.0104 43.0816C55.1104 43.126 55.1826 43.0371 55.2215 42.9427L55.8549 41.537C55.8994 41.437 55.9272 41.3814 55.8383 41.2481L55.8771 41.1592L56.5383 41.5148L56.4828 41.6314C56.1383 41.5092 56.0605 41.5148 55.9827 41.6981L55.7827 42.137L57.7884 43.0482C57.9829 43.1371 58.0718 43.0316 58.1773 42.7982L58.3107 42.8593C58.2218 43.0482 58.1329 43.2316 58.0496 43.4038M56.9384 45.8151C56.8161 46.0374 56.6272 46.2318 56.4105 46.3652L55.6438 46.0429L55.6994 45.9485C56.1105 46.0874 56.605 46.0541 56.7994 45.704C56.9828 45.3818 56.855 44.9762 56.4661 44.7539C55.5438 44.2372 55.116 45.6374 53.9492 44.9817C53.3103 44.6206 53.1991 44.0483 53.488 43.5316C53.5881 43.3594 53.727 43.2094 53.8492 43.0593L54.5215 43.3483L54.4659 43.4427C54.0937 43.2927 53.7825 43.376 53.6103 43.6761C53.4325 43.9983 53.5992 44.3372 53.9603 44.5373C54.8826 45.054 55.3549 43.615 56.4939 44.2539C57.1384 44.615 57.2217 45.3151 56.9384 45.8096M55.1493 48.5821L52.3824 48.4987L53.5769 49.4321C53.8992 49.6822 54.0048 49.7044 54.227 49.421L54.3437 49.5099C54.2437 49.6322 54.1214 49.7766 54.0214 49.9044C53.9214 50.0322 53.827 50.1655 53.727 50.2989L53.6103 50.21C53.8547 49.8988 53.6714 49.7544 53.3491 49.5044L52.1046 48.5321C51.9046 48.3765 51.7157 48.5987 51.6546 48.671L51.5379 48.5821C51.6157 48.4932 51.6879 48.4098 51.7546 48.3209C51.8157 48.2431 51.8879 48.1431 51.9435 48.0598L54.4492 48.1431L53.2769 47.2264C52.9658 46.9875 52.8824 47.0875 52.7269 47.2875L52.6102 47.1986C52.7102 47.0819 52.8158 46.9486 52.9102 46.8263C52.9936 46.7152 53.088 46.5874 53.1658 46.4763L53.2825 46.5652C53.1436 46.743 53.088 46.8375 53.3103 47.0097L55.2104 48.4876L55.1382 48.5821H55.1493ZM52.6046 51.599C52.0657 52.1602 51.2212 52.1046 50.6545 51.549C50.0044 50.9156 50.01 50.0822 50.5378 49.5377C50.6267 49.4488 50.71 49.3877 50.8878 49.2488L51.2656 48.9988L51.7768 49.4432L51.7046 49.521C51.399 49.3877 51.0767 49.2488 50.7267 49.6099C50.36 49.9877 50.3211 50.5711 50.9712 51.2045C51.349 51.5712 52.0601 51.9101 52.5935 51.3601C52.6769 51.2712 52.7324 51.1712 52.7658 51.0489L52.4602 50.7378C52.2324 50.5156 52.1435 50.4822 51.9101 50.7267L51.8046 50.6267C51.9379 50.4989 52.0879 50.36 52.2157 50.2267C52.3157 50.1211 52.4268 49.9877 52.5269 49.8822L52.6324 49.9822C52.4768 50.1433 52.4602 50.21 52.5991 50.3433L52.8602 50.5989C52.9324 50.6711 52.9936 50.7267 53.0769 50.6878L53.1547 50.7656C53.038 50.9989 52.8713 51.3323 52.5991 51.6157M50.6711 53.3325C50.5322 53.4547 50.3933 53.5825 50.26 53.7047L50.1655 53.5936C50.3378 53.4436 50.41 53.3325 50.2711 53.1714L48.9654 51.6712C48.8265 51.5101 48.7043 51.5712 48.5321 51.7157L48.4376 51.6045C48.5821 51.4879 48.7265 51.3712 48.8654 51.249C49.0099 51.1212 49.1599 50.9823 49.2932 50.86L49.3877 50.9712C49.2154 51.1212 49.1432 51.2323 49.2821 51.3934L50.5878 52.8935C50.7267 53.0547 50.8489 52.9991 51.0212 52.8491L51.1156 52.9602C50.9767 53.0713 50.8211 53.2047 50.6767 53.3325M48.9321 54.7382C48.6821 54.9215 48.4376 55.116 48.1931 55.3049L48.1042 55.1882C48.2876 55.0549 48.3709 54.9437 48.2376 54.7715L47.0486 53.1769C46.9208 53.0047 46.793 53.0547 46.6152 53.1936L46.5263 53.0769C46.7041 52.9491 46.8819 52.8269 47.0541 52.6935C47.3708 52.4546 47.6875 52.2102 47.9987 51.9712L48.382 52.438L48.2987 52.4991C48.0209 52.2268 47.9376 52.2491 47.5375 52.5435L47.2542 52.7602L47.8987 53.6214L48.2209 53.3825C48.4154 53.238 48.4987 53.1714 48.2598 52.8547L48.3598 52.7824C48.4432 52.9047 48.5321 53.0269 48.6265 53.1491C48.721 53.2714 48.8154 53.3936 48.9154 53.5214L48.8154 53.5936C48.6265 53.3436 48.5598 53.3547 48.3265 53.5269L48.0042 53.7658L48.4987 54.4326C48.6432 54.627 48.7932 54.6326 49.1154 54.3881C49.5044 54.0937 49.4877 54.0159 49.4155 53.5992L49.5099 53.5269L49.7655 54.1214C49.4821 54.327 49.2043 54.527 48.9265 54.7382M47.5764 55.7049C47.4875 55.7605 47.4042 55.816 47.3153 55.8771C47.0264 55.7605 46.4652 55.4216 45.9985 55.1382L45.8707 55.2326L45.7263 55.3104L46.2041 56.0938C46.3263 56.2938 46.4597 56.2327 46.6374 56.1216L46.7152 56.2494C46.5597 56.3383 46.3819 56.4383 46.2207 56.5383C46.0652 56.6328 45.904 56.7383 45.754 56.8383L45.6762 56.7106C45.8707 56.5939 45.9652 56.4939 45.8485 56.3105L44.8151 54.6159C44.7039 54.4326 44.5706 54.4715 44.3817 54.5881L44.3039 54.4604C44.465 54.3715 44.6262 54.277 44.7817 54.177C44.9817 54.0548 45.2484 53.877 45.3929 53.7936C45.7318 53.5825 46.1374 53.6103 46.3763 53.9992C46.543 54.277 46.4985 54.5548 46.2874 54.8437C47.2764 55.4771 47.4597 55.5271 47.7653 55.4382L47.8431 55.566C47.7598 55.6105 47.6709 55.6605 47.5875 55.7049M43.965 57.8106C43.2427 58.1496 42.5093 57.8273 42.1426 57.0439C41.7648 56.2383 42.1148 55.4549 42.7538 55.1549C43.4594 54.8215 44.1928 55.166 44.5373 55.9105C44.8373 56.5494 44.715 57.4606 43.965 57.8162M41.3814 57.305C41.1981 56.955 41.1536 56.8383 40.7536 56.9772L40.198 57.1717L40.648 58.4774C40.7758 58.8552 40.9536 58.7996 41.1981 58.7218L41.2481 58.8607C41.0203 58.933 40.8036 58.9996 40.598 59.0719C40.3924 59.1441 40.1869 59.2219 39.9535 59.3052L39.9035 59.1663C40.298 59.0274 40.3091 58.9274 40.1258 58.4107L39.3035 56.0272C39.1535 55.5882 39.0701 55.5882 38.7034 55.6994L38.659 55.5605C38.9812 55.4493 39.3201 55.3438 39.6535 55.2271C40.0702 55.0826 40.4869 54.9382 40.8925 54.7882L41.1814 55.5382L41.0814 55.5938C40.8814 55.1549 40.6369 55.0715 40.1369 55.2438L39.5979 55.4327L40.1258 56.9606L40.6647 56.7717C41.0369 56.6439 41.0481 56.5661 40.9758 56.1661L41.0814 56.1272C41.1092 56.2327 41.1981 56.5272 41.2647 56.7217C41.3259 56.8939 41.4203 57.1439 41.4814 57.2828L41.3925 57.3162L41.3814 57.305ZM36.5643 58.5274L37.0088 58.444C37.2477 58.3996 37.3477 58.3718 37.2866 58.0329L37.4089 58.0107C37.4311 58.1551 37.4533 58.3107 37.4866 58.4607C37.5144 58.6107 37.5478 58.7663 37.5866 58.9219L37.4644 58.9441C37.3977 58.5941 37.3311 58.5718 37.0477 58.6218L36.6032 58.7052L36.7588 59.5275C36.8144 59.8219 36.931 59.8664 37.1533 59.8219L37.2533 59.8053L37.2811 59.9497C37.0977 59.9775 36.8977 60.0108 36.6366 60.0608C36.4588 60.0942 36.2699 60.1386 36.0921 60.1775L36.0643 60.0331C36.2865 59.9886 36.4088 59.9331 36.3699 59.7219L35.9976 57.7662C35.9587 57.5551 35.8254 57.544 35.5976 57.5884L35.5698 57.444C35.8809 57.3884 36.1865 57.3384 36.4921 57.2773C36.9366 57.1939 37.2199 57.1328 37.4922 57.0773L37.6255 57.6884L37.5311 57.7051C37.3977 57.3328 37.2922 57.2995 36.8699 57.3828L36.3643 57.4773L36.5643 58.5329V58.5274ZM34.0419 60.472C33.2474 60.5387 32.6695 59.9831 32.5973 59.1163C32.5251 58.2274 33.1196 57.6162 33.8308 57.5551C34.6086 57.4884 35.1753 58.0718 35.242 58.883C35.3031 59.583 34.8697 60.3998 34.0419 60.4664M31.5528 53.3992C31.4806 53.3992 31.4083 53.3992 31.3361 53.3992H22.3909V51.3879C14.9235 47.9264 9.7453 40.3702 9.7453 31.5972C9.7453 22.8242 14.9235 15.268 22.3909 11.8066V9.62307H42.0704V12.49C48.7987 16.2014 53.3603 23.3687 53.3603 31.5972C53.3603 39.8257 48.7987 46.9875 42.0704 50.7045V53.3992H31.7695C31.6972 53.3992 31.625 53.3992 31.5528 53.3992ZM30.8749 57.894C30.7138 57.8829 30.6305 57.8884 30.4027 58.1829L29.7137 59.0941L29.6415 60.1053C29.6248 60.2998 29.8026 60.3109 30.0193 60.3275L30.0082 60.472C29.8137 60.4498 29.6137 60.4331 29.4193 60.4164C29.2248 60.3998 29.0192 60.3942 28.8248 60.3831L28.8359 60.2386C29.0748 60.2553 29.2137 60.2664 29.2304 60.0442L29.2915 59.1885L28.6192 57.8995C28.5358 57.7606 28.4636 57.7106 28.3358 57.6995L28.3469 57.5551C28.5025 57.5717 28.6859 57.594 28.8581 57.6051C29.0359 57.6162 29.2248 57.6273 29.4026 57.6329L29.3915 57.7773C29.3026 57.7718 29.1248 57.7606 29.1192 57.8329C29.1192 57.8829 29.1359 57.9162 29.1748 57.9884L29.6415 58.9274L30.1638 58.1996C30.2193 58.1218 30.2749 58.044 30.2804 57.9773C30.286 57.894 30.2693 57.844 30.0082 57.8273L30.0193 57.6829C30.1638 57.6995 30.336 57.7162 30.4805 57.7273C30.6027 57.7384 30.7416 57.7329 30.8805 57.744L30.8694 57.894H30.8749ZM28.1136 58.1385L27.9858 58.1162C28.0191 57.7551 27.9858 57.6773 27.7969 57.644L27.3191 57.5662L26.9524 59.7442C26.919 59.9553 27.0413 60.0108 27.2913 60.0553L27.2635 60.1997C27.0635 60.1609 26.8635 60.122 26.669 60.0886C26.4912 60.0608 26.3023 60.0331 26.0912 60.0053L26.1134 59.8608C26.3634 59.9053 26.5023 59.8886 26.5357 59.6775L26.9024 57.4995L26.5412 57.4384C26.2523 57.3884 26.1856 57.4273 26.0412 57.794L25.919 57.7718L26.1079 57.0439L26.2023 57.0606C26.1856 57.1661 26.2912 57.2106 26.3912 57.2328L27.9136 57.4884C28.0247 57.5051 28.0803 57.5162 28.1914 57.3995L28.2858 57.4162L28.1136 58.1496V58.1385ZM25.7523 57.2328C25.53 57.1773 25.3967 57.1828 25.3467 57.3884L24.8744 59.3219C24.8244 59.533 24.9411 59.5941 25.1633 59.6497L25.13 59.7942C24.9578 59.7442 24.7633 59.6941 24.5744 59.6441C24.3966 59.5997 24.2132 59.5608 24.0299 59.5219L24.0632 59.3775C24.2855 59.433 24.4188 59.4275 24.4688 59.2219L24.9411 57.2884C24.9911 57.0773 24.8744 57.0161 24.6522 56.9606L24.6855 56.8161C24.8633 56.8661 25.0411 56.9161 25.2189 56.9606C25.4078 57.005 25.6078 57.0495 25.7801 57.0884L25.7467 57.2328H25.7523ZM23.8188 57.1384C23.8354 56.905 23.8077 56.6439 23.5076 56.5494C23.2687 56.4716 23.0465 56.605 22.9687 56.855C22.8853 57.1161 22.9242 57.2384 23.2798 57.6384C23.6799 58.0773 23.6965 58.3329 23.5854 58.6718C23.4465 59.1052 23.0076 59.3052 22.5353 59.1497C22.3242 59.083 22.1575 58.9719 22.0131 58.8219L22.1297 58.2274L22.2353 58.2607C22.2075 58.6718 22.2853 58.9163 22.6187 59.0219C22.9742 59.133 23.1465 58.883 23.202 58.7107C23.2743 58.4885 23.2132 58.3162 22.9631 58.0273C22.5575 57.5551 22.4909 57.3106 22.6242 56.8883C22.7409 56.5216 23.1187 56.2716 23.5187 56.3994C23.691 56.455 23.8965 56.5717 24.0466 56.6272L23.9188 57.1717L23.8243 57.1384H23.8188ZM21.9075 56.6439C21.7853 56.9439 21.5297 57.0717 21.1741 57.0606C21.2408 58.2385 21.3074 58.4107 21.5575 58.6107L21.5019 58.7496C21.4186 58.7107 21.3241 58.6607 21.2408 58.6274C21.1408 58.5885 21.0463 58.5552 20.9463 58.5163C20.8685 58.2107 20.8185 57.5551 20.7741 57.0161L20.624 56.9661L20.4796 56.8939L20.124 57.744C20.0351 57.9607 20.1629 58.0329 20.3573 58.1107L20.3018 58.244C20.1407 58.1718 19.9518 58.0885 19.774 58.0107C19.6017 57.9384 19.4295 57.8718 19.2573 57.8051L19.3128 57.6717C19.5239 57.7606 19.6573 57.7773 19.7406 57.5773L20.5074 55.7438C20.5907 55.5438 20.4851 55.4604 20.274 55.3771L20.3296 55.2382C20.4963 55.316 20.6685 55.3938 20.8407 55.466C21.0519 55.5549 21.3574 55.6716 21.5075 55.7327C21.8797 55.8883 22.0908 56.2327 21.913 56.6494M18.6739 57.5217C18.3683 57.3551 18.0683 57.1828 17.7627 57.0217C17.4904 56.8772 17.2126 56.7328 16.9348 56.5939L17.0071 56.4661C17.2071 56.5717 17.3349 56.605 17.4404 56.4161L18.3794 54.6604C18.4794 54.4715 18.3794 54.377 18.1794 54.2715L18.2461 54.1437C18.435 54.2492 18.6239 54.3603 18.8183 54.4604C19.1684 54.6493 19.5239 54.8326 19.874 55.0104L19.6184 55.5549L19.5295 55.5049C19.6628 55.1382 19.6017 55.066 19.1628 54.8326L18.8461 54.6659L18.3405 55.616L18.6961 55.8049C18.9072 55.9216 19.0072 55.966 19.1906 55.616L19.3017 55.6771C19.2295 55.8049 19.1517 55.9383 19.0795 56.0716C19.0072 56.205 18.935 56.3494 18.8683 56.4939L18.7572 56.4328C18.9017 56.1549 18.8628 56.0994 18.6128 55.9605L18.2572 55.7716L17.8682 56.505C17.7516 56.7217 17.8127 56.855 18.1683 57.0439C18.5961 57.2773 18.6628 57.2273 19.0072 56.9828L19.1128 57.0384L18.685 57.5217H18.6739ZM15.3791 55.6771L16.007 53.1658C16.0625 52.9491 16.0681 52.888 15.8792 52.7602L15.9625 52.638C16.0959 52.7324 16.2403 52.8324 16.3792 52.9269C16.5292 53.0269 16.6792 53.1213 16.8348 53.2158L16.7515 53.338L16.657 53.2714C16.5626 53.2102 16.4959 53.2047 16.4348 53.288L16.3792 53.4325L15.8958 55.2882L17.3071 54.1881C17.3849 54.1325 17.446 54.0714 17.4904 54.0103C17.5738 53.8881 17.446 53.8047 17.3071 53.7103L17.3904 53.5881C17.5182 53.677 17.6516 53.7714 17.7793 53.8603C17.8738 53.9214 17.9849 53.9936 18.0849 54.0492L18.0016 54.1714C17.8738 54.0881 17.8293 54.0548 17.5293 54.2826L15.518 55.7716L15.3791 55.6771ZM14.1512 54.5493L14.0624 54.6659C13.9234 54.5493 13.7679 54.4215 13.6179 54.2992C13.4734 54.1881 13.3234 54.077 13.1734 53.9659L13.2623 53.8492C13.4401 53.9881 13.5623 54.0437 13.6957 53.8714L14.9235 52.3046C15.0569 52.1324 14.9735 52.0268 14.7957 51.8879L14.8846 51.7712C15.0235 51.8879 15.168 52.0101 15.3125 52.1213C15.4625 52.2379 15.6292 52.3602 15.7736 52.4657L15.6847 52.5824C15.5069 52.4435 15.3847 52.388 15.2513 52.5602L14.0235 54.127C13.8901 54.2992 13.9735 54.4048 14.1512 54.5437M12.3622 53.3825L12.69 50.6267L11.6566 51.7379C11.3788 52.0379 11.3454 52.1435 11.6121 52.388L11.5121 52.4991C11.401 52.3879 11.2677 52.2546 11.1454 52.1435C11.0232 52.0324 10.901 51.9268 10.7787 51.8157L10.8787 51.7101C11.1677 51.9824 11.3288 51.8101 11.6066 51.5101L12.6789 50.3489C12.8511 50.16 12.6511 49.9544 12.5789 49.8877L12.6789 49.7822C12.7622 49.8655 12.8345 49.9433 12.9178 50.0211C12.99 50.0877 13.0845 50.1655 13.1623 50.2322L12.8567 52.7269L13.8679 51.6379C14.1346 51.349 14.0401 51.2601 13.8568 51.0823L13.9568 50.9767C14.0679 51.0878 14.1846 51.2045 14.3013 51.3101C14.4013 51.4045 14.5235 51.5045 14.6291 51.599L14.5291 51.7101C14.3624 51.5545 14.279 51.4934 14.0846 51.699L12.4455 53.4658L12.3622 53.388V53.3825ZM9.32304 50.2989C8.80633 49.6877 8.84522 49.0321 9.57307 48.3932L11.151 47.0486C11.451 46.793 11.3399 46.6486 11.1788 46.4485L11.2899 46.3541C11.4343 46.5319 11.5732 46.7041 11.7121 46.8708C11.8566 47.043 12.0011 47.2097 12.1622 47.3875L12.0511 47.482C11.8788 47.2875 11.7566 47.1542 11.4566 47.4097L9.98421 48.6598C9.4675 49.0988 9.09525 49.6655 9.57862 50.2378C10.0953 50.8489 10.7009 50.4378 11.001 50.1878L12.2344 49.1377C12.9456 48.5321 12.9122 48.5209 12.6456 48.182L12.7567 48.0876C12.8845 48.2487 13.0123 48.4043 13.14 48.5598C13.2456 48.6876 13.3567 48.7987 13.4623 48.9265L13.3512 49.021C13.1012 48.7265 12.9345 48.871 12.4066 49.321L11.1621 50.3822C10.5732 50.8823 9.86754 50.9434 9.31749 50.2933M7.41732 46.8986C7.35065 47.0597 7.30064 47.2319 7.38398 47.3764L7.2562 47.4542C7.21175 47.3708 7.16174 47.2708 7.11174 47.1931C7.05618 47.0986 6.99506 47.0041 6.92839 46.9097L7.63956 45.3318L8.90078 45.5151L9.04524 45.4929L9.07302 45.3651L9.01746 45.2762L9.14525 45.1984C9.21192 45.3207 9.28971 45.4596 9.36194 45.5818C9.43417 45.704 9.51751 45.8263 9.58973 45.9429L9.46195 46.0207C9.31749 45.7763 9.1897 45.7263 7.96737 45.5429L7.41176 46.8986H7.41732ZM6.72837 46.2819L6.60058 46.3596C6.51168 46.2041 6.41168 46.0263 6.31722 45.8596C6.22277 45.704 6.12276 45.5429 6.02275 45.3873L6.15054 45.3096C6.26722 45.504 6.36167 45.5985 6.55058 45.4873L8.25628 44.465C8.43963 44.3539 8.40074 44.2261 8.28406 44.0317L8.41185 43.9539C8.50075 44.115 8.5952 44.2817 8.68966 44.4373C8.78966 44.6039 8.90078 44.7762 8.99524 44.9262L8.86745 45.004C8.75077 44.8095 8.65632 44.7151 8.46741 44.8262L6.76171 45.8485C6.57836 45.9596 6.61725 46.0874 6.73393 46.2819M5.11712 43.7094C4.85598 43.1482 4.95044 42.6926 5.55049 42.4148L6.96728 41.7537C7.15063 41.6648 7.06729 41.4814 7.01173 41.3648L7.14507 41.3036C7.2173 41.4703 7.28953 41.6481 7.36732 41.8092C7.43954 41.9648 7.51733 42.1204 7.59511 42.2704L7.46177 42.3315C7.40065 42.1982 7.32842 42.0481 7.15619 42.1259L5.75606 42.776C5.2838 42.9982 5.21157 43.3372 5.36714 43.6705C5.6505 44.2872 6.21166 44.0205 6.72837 43.7816L7.33398 43.4983C7.85069 43.2594 7.86736 43.1927 7.73401 42.8982L7.86736 42.8371C7.92848 42.9816 7.99515 43.1371 8.06182 43.2816C8.11738 43.4038 8.1785 43.5205 8.23961 43.6427L8.10627 43.7039C8.0396 43.5538 7.95626 43.4538 7.62289 43.6094L6.57836 44.0983C5.98386 44.3761 5.4227 44.3428 5.12267 43.7039M4.58929 42.0037L4.45039 42.0537C4.42817 41.9648 4.39483 41.8537 4.36705 41.7648C4.33372 41.6592 4.28927 41.5537 4.24482 41.4481L5.26713 40.0535L6.46168 40.498L6.61169 40.5091L6.66725 40.3924L6.63392 40.2924L6.77282 40.2424C6.81171 40.3758 6.86172 40.5313 6.90616 40.6647C6.95061 40.798 7.01173 40.9369 7.05618 41.0703L6.91728 41.1203C6.82282 40.848 6.7117 40.7758 5.55049 40.3424L4.72264 41.5537C4.62263 41.6981 4.53929 41.8592 4.58929 42.0148M4.17815 40.8036L4.03924 40.8536C3.98924 40.6814 3.92812 40.4869 3.86145 40.3036C3.80033 40.1313 3.73366 39.9535 3.67255 39.7813L3.81145 39.7313C3.88368 39.948 3.96146 40.0591 4.16148 39.9869L6.03942 39.3424C6.24499 39.2701 6.23388 39.1368 6.16165 38.9201L6.30056 38.8701C6.35612 39.0479 6.41168 39.2257 6.46724 39.3979C6.52835 39.5813 6.60058 39.7702 6.6617 39.9369L6.5228 39.9869C6.45057 39.7702 6.37278 39.659 6.17277 39.7313L4.29482 40.3758C4.08925 40.448 4.10036 40.5814 4.17259 40.798M3.32807 38.7812L5.1449 36.6866L3.66699 37.0255C3.26695 37.1144 3.18361 37.1866 3.26695 37.5422L3.1225 37.5755C3.09472 37.42 3.05582 37.2366 3.02249 37.0755C2.9836 36.9144 2.9447 36.7532 2.90026 36.5977L3.04471 36.5643C3.13361 36.9533 3.36141 36.8977 3.75589 36.8088L5.29491 36.4588C5.54493 36.4032 5.48937 36.1143 5.46715 36.0198L5.61161 35.9865C5.63383 36.1032 5.6505 36.2087 5.67828 36.3199C5.7005 36.4199 5.73384 36.5366 5.76162 36.631L4.11147 38.5256L5.5616 38.1923C5.94497 38.1034 5.91719 37.9756 5.86163 37.7255L6.00608 37.6922C6.03387 37.8422 6.0672 38.0089 6.10054 38.1589C6.13387 38.2978 6.17277 38.4478 6.2061 38.5812L6.06165 38.6145C6.01164 38.3923 5.9783 38.2923 5.7005 38.3534L3.35585 38.8923L3.32807 38.7812ZM2.78358 35.6476C2.76135 35.4698 2.73357 35.2864 2.70579 35.1087L2.85025 35.092V35.1475C2.87248 35.2698 2.92804 35.3809 3.02249 35.3698L3.20584 35.3087L3.75033 35.0642L3.65588 34.2475L3.27807 34.1863C3.20584 34.1752 3.00582 34.1363 2.90026 34.1475C2.76691 34.1641 2.76135 34.3252 2.77247 34.4141V34.4697L2.63357 34.4864C2.62245 34.3252 2.60579 34.1586 2.58356 33.9974C2.56689 33.8752 2.54467 33.7363 2.528 33.603L2.67246 33.5863C2.70024 33.8308 2.82803 33.8863 2.95026 33.9141L5.08934 34.353L5.27824 34.3808L5.35603 34.3641L5.5616 34.7142L3.25584 35.7198C3.00582 35.8254 2.93915 35.9087 2.97248 36.1643L2.82803 36.181C2.81136 35.9976 2.79469 35.8198 2.77802 35.642M2.47244 31.8139H2.6169C2.6169 32.0695 2.62801 32.2528 3.02249 32.2584H4.40039L4.4115 30.3082H3.0336C2.63912 30.2971 2.62801 30.4805 2.62245 30.736H2.47244C2.47244 30.5027 2.48355 30.2971 2.48911 30.0804C2.48911 29.8471 2.48911 29.6193 2.48355 29.3804H2.63357C2.63357 29.6359 2.63912 29.8193 3.03916 29.8249L5.88941 29.8415C6.28389 29.8415 6.295 29.6582 6.30056 29.4026H6.45057C6.44501 29.6304 6.4339 29.8526 6.4339 30.0693C6.4339 30.2916 6.4339 30.5138 6.43946 30.7583H6.295C6.295 30.5027 6.28389 30.3193 5.88941 30.3138H4.65041L4.6393 32.264H5.8783C6.27278 32.2751 6.28389 32.0917 6.28944 31.8361H6.4339C6.42834 32.0917 6.42279 32.3195 6.41723 32.5529C6.41723 32.7584 6.42279 32.9751 6.42279 33.1918H6.27278C6.27278 32.9362 6.26722 32.7529 5.86718 32.7473L3.01693 32.7307C2.62245 32.7307 2.61134 32.914 2.60579 33.1696H2.45577C2.46133 32.9529 2.46688 32.7307 2.47244 32.514C2.47244 32.2862 2.47244 32.0639 2.46688 31.8139M4.30593 20.3351C4.59485 20.4574 4.7782 20.5351 4.86154 20.574L5.31158 19.5295L5.72273 19.7017L5.50048 20.224C5.60605 20.1907 5.72273 20.1796 5.83385 20.1851C5.95052 20.1907 6.06165 20.2184 6.16721 20.2629C6.4339 20.374 6.61725 20.574 6.72282 20.8574C6.82838 21.1408 6.81727 21.4241 6.70059 21.7075C6.57836 21.9908 6.3839 22.1908 6.10609 22.3131C5.82829 22.4353 5.55605 22.4353 5.29491 22.3242C5.18935 22.2797 5.08934 22.2186 5.006 22.1353C4.92266 22.0575 4.85598 21.9686 4.80042 21.8686L4.58374 22.3797L4.17259 22.202L4.61707 21.163L4.56151 21.1408C4.31705 21.0352 4.17259 21.0352 3.97813 21.1185L4.31149 20.3351H4.30593ZM5.20046 18.3072L6.35612 18.7961L6.61169 18.196L7.0284 18.3738L6.77282 18.9739L8.25073 19.6073L8.01182 20.1629L5.46715 19.0739C5.2838 18.9961 5.06711 19.0517 4.85043 19.135L5.20601 18.3072H5.20046ZM9.4175 20.0573L8.42296 22.3853C8.3674 22.5131 8.30073 22.5909 8.21183 22.6298C8.12849 22.6631 8.01737 22.6576 7.88958 22.602L7.36176 22.3742C7.18397 22.2964 6.96728 22.3686 6.76726 22.4464L7.12841 21.6019L8.02293 21.9853H8.07849L8.11738 21.9464L9.00079 19.8795L9.4175 20.0573ZM11.0676 10.5287L11.101 10.5065L11.1399 10.5287L11.7399 11.0732C11.901 11.2177 12.0066 11.3288 12.0622 11.4177C12.1177 11.5066 12.1566 11.5955 12.1733 11.6955L12.5956 11.2288L12.9289 11.5343L11.6733 12.9234L12.2344 13.429L13.1178 12.4511L13.1512 12.4344L13.1901 12.4511L14.379 13.529L13.9568 13.9957L13.1012 13.2234L13.0678 13.2067L13.0345 13.2289L11.2343 15.218L10.901 14.9124L11.7844 13.9346L11.2288 13.429L9.9731 14.818L9.63974 14.5179L11.7788 12.1511C11.751 12.04 11.6955 11.9344 11.6232 11.8455C11.5455 11.751 11.4343 11.6399 11.2899 11.5066L11.0954 11.3343L11.0287 11.301L10.9621 11.3454L9.1008 13.4012L8.76744 13.1012L11.0732 10.5509L11.0676 10.5287ZM16.6404 6.55613C16.7348 6.27278 16.9237 6.05609 17.2015 5.90608C17.4793 5.75606 17.7627 5.72273 18.0516 5.79496C18.3405 5.86718 18.5572 6.03386 18.6961 6.295C18.835 6.55613 18.8572 6.82838 18.7572 7.11174C18.6628 7.3951 18.4739 7.61178 18.196 7.7618C17.9182 7.91181 17.6349 7.9507 17.346 7.87292C17.0571 7.80069 16.8404 7.62845 16.7015 7.37287C16.5626 7.11174 16.5403 6.84505 16.6348 6.56169M19.2128 4.71708L21.4019 8.77855L20.8741 9.06191L20.2629 7.93403C20.2018 8.04515 20.1184 8.13961 20.0018 8.21739C19.8851 8.29518 19.724 8.40074 19.5017 8.51742L17.4182 9.63974L17.2071 9.2397L18.3683 8.61187C18.2572 8.40074 18.1127 8.24517 17.8349 8.16183L18.5905 7.75624L18.8961 8.32851L19.4684 8.02293C19.6406 7.92848 19.774 7.84514 19.8573 7.7618C19.9406 7.68401 20.0073 7.60067 20.0462 7.52289L18.9461 5.48382C18.8572 5.31714 18.6572 5.21713 18.4238 5.1449L19.2184 4.71708H19.2128ZM28.1525 3.20028L28.108 2.9447L28.0747 2.87248H27.9914L25.2578 3.30585L25.1856 2.86136L28.5803 2.31131H28.6192L28.6414 2.35576L28.7692 3.15028C28.8025 3.36141 28.8137 3.51698 28.8025 3.62254C28.7914 3.72811 28.7636 3.82256 28.7192 3.91146L29.3415 3.81145L29.4137 4.25593L27.5691 4.55596L27.6913 5.30047L28.9914 5.08934H29.0303L29.047 5.12823L29.3026 6.7117L28.6859 6.81171L28.5025 5.67272L28.4858 5.63939H28.447L25.7967 6.06165L25.7245 5.61716L27.0246 5.40603L26.9024 4.66152L25.0522 4.96155L24.98 4.51706L28.1303 4.00591C28.1747 3.90034 28.2025 3.78922 28.2025 3.66699C28.2025 3.55031 28.1858 3.38919 28.1525 3.19473M34.4141 3.77811C34.4753 3.42808 34.6586 3.15028 34.9531 2.9447C35.2531 2.73913 35.5809 2.67246 35.9421 2.73357C36.2699 2.78913 36.5366 2.9447 36.7477 3.19473C36.9533 3.44475 37.0533 3.72811 37.0477 4.0448L37.72 4.16148L37.87 3.30029C37.9089 3.08916 37.8256 2.90026 37.6755 2.67801L38.559 2.83358L37.7533 7.37843L37.1644 7.27286L37.6367 4.60596L36.9533 4.48373C36.8421 4.76153 36.6532 4.97822 36.381 5.13379C36.1087 5.28935 35.8143 5.3338 35.492 5.27824C35.1309 5.21157 34.842 5.03378 34.6308 4.73931C34.4197 4.44484 34.3475 4.12259 34.4086 3.77255M43.076 7.2173L43.8928 5.76162C43.9928 5.58383 43.9817 5.32825 43.915 5.10601L45.7374 6.12832L45.5151 6.5228L44.4873 5.94497L43.565 7.57845L43.5538 7.65623L43.5983 7.71179L44.4317 8.1785C44.5595 8.25073 44.665 8.30073 44.7595 8.33407C44.854 8.3674 44.9373 8.38407 45.0095 8.39518L46.0707 6.50057C46.143 6.37834 46.1763 6.18388 46.0985 5.92274L46.8208 6.32834L46.1096 7.59511L46.443 7.77846L46.8986 6.96172C46.9708 6.83394 47.0041 6.63947 46.9319 6.3839L47.6542 6.78949L45.3929 10.8121L44.8928 10.5343L46.2207 8.17294L45.8874 7.98959L44.5595 10.3509L44.0594 10.0731L44.7817 8.78966C44.6817 8.77299 44.5761 8.74521 44.4595 8.69521C44.3428 8.64521 44.1983 8.57298 44.0261 8.47853L43.276 8.05627C43.1038 7.95626 42.9927 7.83958 42.9538 7.70623C42.9149 7.56733 42.9538 7.40621 43.0538 7.22286M50.4544 12.8789L52.5102 15.218L52.538 15.2902L52.4991 15.3569L51.2934 16.4181L50.8823 15.9459L51.7879 15.1513L51.8101 15.118L51.7935 15.0847L50.1211 13.1789L50.46 12.8789H50.4544ZM51.1878 11.6399C51.2712 11.5677 51.3601 11.5121 51.4601 11.4732C51.5601 11.4343 51.6601 11.4121 51.7657 11.401C51.7657 11.401 51.649 11.2677 51.399 10.9843L51.7379 10.6898L52.4824 11.5399L52.538 11.4899C52.6658 11.3788 52.7658 11.2288 52.7824 11.001L53.3436 11.6399L52.9102 12.0177L53.6603 12.8734L53.3269 13.1678L52.9547 12.7456C52.9324 12.8511 52.8991 12.9456 52.8435 13.04C52.788 13.1289 52.7213 13.2178 52.638 13.2901C52.4268 13.479 52.1713 13.5568 51.8768 13.529C51.5823 13.5012 51.3379 13.3734 51.1378 13.1456C50.9378 12.9178 50.8489 12.6567 50.8545 12.3622C50.8656 12.0677 50.9767 11.8288 51.1878 11.6399ZM53.9548 13.2789C54.1159 13.14 54.1492 12.9511 54.1659 12.69L54.7604 13.3678L54.0436 13.9957L54.477 14.4846L54.0992 14.8124L53.6658 14.3235L52.7269 15.1513L52.3324 14.7013L53.9548 13.2734V13.2789ZM56.255 20.2629C56.4383 20.1851 56.5328 20.0462 56.6161 19.8406L56.9328 20.6185L55.216 21.3185L55.3938 21.7575L56.6494 21.2463C56.8272 21.1741 56.9272 21.0185 57.0106 20.8241L57.3273 21.6019L55.6105 22.2964L56.2272 23.8077L55.8049 23.9799L54.1437 19.8962L54.5659 19.724L54.9937 20.7685L56.2494 20.2573L56.255 20.2629ZM57.8662 18.9183L59.1385 22.0408V22.0853L59.1108 22.1075L57.7606 22.6576C57.4495 22.7853 57.1939 22.8687 56.9884 22.9076C56.7828 22.9465 56.5939 22.952 56.4105 22.9187L56.1883 22.3686C56.3772 22.3964 56.5772 22.3853 56.7883 22.3353C56.9995 22.2853 57.2606 22.1964 57.5829 22.0631L58.4218 21.7186L58.4829 21.6741L58.4718 21.5963L57.4551 19.0906L57.8718 18.9183H57.8662ZM59.8831 29.5637C60.3386 29.547 60.672 29.8915 60.6942 30.3916C60.6998 30.6138 60.6609 30.8083 60.5609 30.9972L59.9608 31.0916V30.9805C60.3498 30.8694 60.5553 30.7138 60.5387 30.3582C60.5276 29.986 60.2275 29.9082 60.0497 29.9137C59.8164 29.9193 59.6719 30.0415 59.4886 30.3693C59.183 30.9138 58.9774 31.0638 58.5329 31.0805C58.1496 31.0972 57.7829 30.8249 57.7718 30.4027C57.7662 30.2193 57.8051 29.9915 57.8051 29.8304L58.3607 29.7637V29.8637C58.1385 29.9249 57.9051 30.0415 57.9162 30.3582C57.9273 30.6083 58.1273 30.7694 58.3829 30.7638C58.6552 30.7527 58.7607 30.6749 59.0108 30.2027C59.283 29.6804 59.5219 29.5748 59.8775 29.5582M31.4972 0C14.1012 0 0 14.1012 0 31.4972C0 48.8932 14.1012 62.9944 31.4972 62.9944C48.8932 62.9944 62.9944 48.8932 62.9944 31.4972C62.9944 14.1012 48.8932 0 31.4972 0Z" fill="#00294A"/>
<path id="Vector_15" d="M22.1297 20.4073C22.2186 20.3406 22.302 20.2629 22.3909 20.1962V17.0015C21.6464 17.4682 20.9407 17.9904 20.2796 18.5683C20.7352 19.3461 21.3741 19.9517 22.1242 20.4073" fill="#00294A"/>
<path id="Vector_16" d="M20.3851 34.0142C21.0241 34.3476 21.6964 34.6309 22.3909 34.8754V29.0082C22.1464 28.9304 21.9075 28.8415 21.6686 28.7471C21.0352 30.4306 20.6074 32.2029 20.3851 34.0142Z" fill="#00294A"/>
<path id="Vector_17" d="M40.9758 40.2537C40.748 41.9205 40.3647 43.5817 39.8257 45.2208H42.0759V45.2319C43.0649 44.4651 43.9706 43.5984 44.7706 42.6428C45.6763 40.0703 46.1763 37.6145 46.2763 35.3032C44.8762 37.1978 43.0649 38.9202 40.9814 40.2537" fill="#00294A"/>
<path id="Vector_18" d="M21.1185 28.5027C19.9795 27.9582 18.9572 27.1859 18.1071 26.1191C17.3071 27.597 16.6904 29.2083 16.2737 30.8973C17.3182 32.0086 18.5072 32.9475 19.824 33.6976C20.0629 31.9085 20.4907 30.1639 21.1185 28.5027Z" fill="#00294A"/>
<path id="Vector_19" d="M22.3909 28.3912V27.0244C22.2075 27.4078 22.0408 27.8023 21.8797 28.1967C22.0464 28.2634 22.2186 28.3301 22.3909 28.3856" fill="#00294A"/>
<path id="Vector_20" d="M18.4239 25.5576C19.2295 26.6411 20.2129 27.4133 21.3297 27.9578C21.6408 27.1911 21.9964 26.4466 22.3909 25.7243V21.1961C22.3298 21.1684 22.2686 21.1406 22.2131 21.1128C20.7129 22.3185 19.4406 23.8297 18.4294 25.5632" fill="#00294A"/>
<path id="Vector_21" d="M46.2874 34.2531C46.2596 32.0974 45.8707 30.0694 45.1206 28.1748C44.8317 28.7193 44.5095 29.2582 44.1317 29.7749C43.2538 30.9751 42.1871 32.0363 40.9647 32.9419C41.2814 35.0699 41.3148 37.2701 41.0758 39.4814C43.176 38.0646 44.9595 36.2366 46.293 34.2531" fill="#00294A"/>
</g>
<path id="Vector_22" d="M34.0475 16.4291H40.5258V11.1675H23.941V51.8433H40.5258V46.7762H34.0475V16.4291Z" fill="#00294A"/>
<g id="Group_3">
<path id="Vector_23" d="M35.9587 18.3071C37.9589 19.1682 39.798 20.4239 41.3425 21.8463C41.9593 20.535 42.2148 19.2071 42.1093 17.9848C42.0982 17.9737 42.0871 17.9681 42.0759 17.957V17.9848H36.231C36.1421 18.0959 36.0532 18.2015 35.9587 18.3071Z" fill="#00294A"/>
<path id="Vector_24" d="M35.5976 45.2207H39.1868C39.6924 43.715 40.0702 42.1871 40.3091 40.6592C38.8479 41.5093 37.27 42.1649 35.5976 42.5593V45.2207Z" fill="#00294A"/>
<path id="Vector_25" d="M35.5976 41.9371C37.3144 41.5148 38.9368 40.8147 40.4202 39.898C40.7036 37.6811 40.698 35.4698 40.4147 33.3252C38.9868 34.2919 37.37 35.0587 35.6032 35.5921V41.9315L35.5976 41.9371Z" fill="#00294A"/>
<path id="Vector_26" d="M46.8652 33.3416C47.6875 31.9415 48.282 30.4914 48.5987 29.0746C48.2876 26.9466 47.5875 24.952 46.5708 23.1519C46.4874 24.6187 46.1152 26.0743 45.4818 27.4578C46.2819 29.3024 46.743 31.2637 46.8652 33.3416Z" fill="#00294A"/>
<path id="Vector_27" d="M45.1373 26.7023C45.1373 26.7023 45.1373 26.7078 45.1373 26.7134C45.7318 25.241 46.0207 23.7075 45.9763 22.1685C45.0762 20.7906 43.9817 19.5516 42.7371 18.4849C42.7427 19.7072 42.4315 20.9962 41.8037 22.2685C43.2594 23.6964 44.4206 25.2466 45.1373 26.7023Z" fill="#00294A"/>
<path id="Vector_28" d="M35.5976 27.4912C36.4588 27.0689 37.27 26.5633 38.0089 25.9744C37.3255 24.7743 36.4977 23.6131 35.5976 22.563V27.4912Z" fill="#00294A"/>
<path id="Vector_29" d="M41.5148 22.835C40.8147 24.0684 39.8813 25.1796 38.7812 26.1241C39.2479 26.9909 39.6424 27.8743 39.948 28.7633C40.3424 29.8967 40.6425 31.069 40.8536 32.2691C41.9204 31.4413 42.8593 30.4912 43.6372 29.4244C44.0928 28.7966 44.4872 28.141 44.8095 27.4687C44.7373 27.3076 44.665 27.1409 44.5873 26.9798C43.9205 25.6241 42.8482 24.1795 41.5092 22.8405" fill="#00294A"/>
<path id="Vector_30" d="M35.5976 34.9697C37.3366 34.4252 38.9257 33.6529 40.3147 32.6695C40.1091 31.3971 39.798 30.1526 39.3868 28.9525C39.1035 28.1413 38.7368 27.319 38.3089 26.5078C37.4811 27.1523 36.5699 27.7079 35.6032 28.1524V34.9641L35.5976 34.9697Z" fill="#00294A"/>
<path id="Vector_31" d="M35.5976 21.6349C36.6866 22.8183 37.6756 24.1629 38.4867 25.5741C39.5313 24.6629 40.4147 23.5906 41.0647 22.4016C39.5146 20.9459 37.6367 19.6569 35.5976 18.8013V21.6349Z" fill="#00294A"/>
<path id="Vector_32" d="M21.6519 20.7851C20.9185 20.3128 20.3018 19.7128 19.8351 18.9683C18.7128 20.0128 17.7293 21.2018 16.9126 22.513C17.2182 23.4742 17.596 24.3021 18.0516 25.0132C19.035 23.3909 20.2462 21.9519 21.6519 20.7795" fill="#00294A"/>
<path id="Vector_33" d="M16.107 31.6025C15.7403 33.3416 15.5847 35.1529 15.657 36.9752C16.7515 38.0253 18.1461 39.0087 19.774 39.8477C19.5629 38.0142 19.5406 36.1641 19.7351 34.3472C18.3961 33.6083 17.1793 32.6971 16.107 31.6081" fill="#00294A"/>
<path id="Vector_34" d="M5.53382 21.746C5.67272 21.8071 5.82274 21.8183 5.97275 21.7738C6.12832 21.7349 6.23388 21.6516 6.28389 21.5238C6.33945 21.396 6.32834 21.2682 6.25611 21.1293C6.18388 20.9904 6.07276 20.8959 5.93386 20.8348C5.7894 20.7737 5.63939 20.7626 5.48937 20.8015C5.33936 20.8404 5.23935 20.9237 5.18379 21.046C5.13379 21.1682 5.1449 21.296 5.21713 21.4404C5.28936 21.5849 5.39492 21.6849 5.53938 21.746" fill="#00294A"/>
<path id="Vector_35" d="M51.8323 12.9954C51.9768 12.9898 52.1101 12.9343 52.2212 12.8287C52.3379 12.7232 52.4157 12.6009 52.4435 12.4565C52.4713 12.312 52.4435 12.1898 52.349 12.0842C52.2657 11.9898 52.149 11.9453 51.999 11.9453C51.849 11.9453 51.7156 12.0009 51.599 12.1009C51.4823 12.2009 51.4101 12.3231 51.3823 12.4731C51.3545 12.6176 51.3823 12.7454 51.4712 12.8454C51.5601 12.9454 51.6767 12.9954 51.8268 12.9843" fill="#00294A"/>
<path id="Vector_36" d="M58.8663 36.3585C58.1829 36.2141 57.5884 36.3696 57.4551 37.003C57.4273 37.1419 57.3884 37.3808 57.3606 37.5253L59.3608 37.9475C59.683 38.0142 59.7441 37.8698 59.7886 37.642C59.883 37.1864 59.8386 36.5585 58.8663 36.353" fill="#00294A"/>
</g>
</g>
<defs>
<clipPath id="clip0_289_1553">
<rect width="63" height="63" fill="white"/>
</clipPath>
</defs>
</svg>
