<svg width="65" height="64" viewBox="0 0 65 64" fill="none" xmlns="http://www.w3.org/2000/svg">
<g id="&#234;&#176;&#128;&#236;&#178;&#156;&#235;&#140;&#128;&#237;&#149;&#153;&#234;&#181;&#144;" clip-path="url(#clip0_289_1920)">
<g id="Group">
<path id="Vector" d="M32.8393 1.80029C16.1592 1.80029 2.64001 15.3239 2.64001 31.997C2.64001 48.67 16.1592 62.1993 32.8393 62.1993C49.5195 62.1993 63.0387 48.6813 63.0387 31.997C63.0387 15.3126 49.5195 1.80029 32.8393 1.80029ZM32.8393 48.7547C23.5876 48.7547 16.0801 41.2535 16.0801 31.997C16.0801 22.7404 23.582 15.2392 32.8393 15.2392C42.0967 15.2392 49.5986 22.7461 49.5986 31.997C49.5986 41.2479 42.0967 48.7547 32.8393 48.7547Z" fill="#004E96"/>
<path id="Vector_2" d="M32.8394 64C15.1939 64 0.839355 49.6411 0.839355 31.9972C0.839355 14.3533 15.1939 0 32.8394 0C50.4848 0 64.8394 14.3533 64.8394 31.9972C64.8394 49.6411 50.4848 63.9944 32.8394 63.9944V64ZM32.8394 0.846636C15.6624 0.846636 1.69171 14.8218 1.69171 31.9972C1.69171 49.1726 15.6624 63.1477 32.8394 63.1477C50.0163 63.1477 63.9926 49.1726 63.9926 31.9972C63.9926 14.8218 50.0163 0.846636 32.8394 0.846636Z" fill="#004E96"/>
</g>
<g id="Group_2">
<path id="Vector_3" d="M12.5239 32.0878C13.0715 31.6645 13.365 31.0662 13.4158 30.2534C13.444 29.7454 13.3481 29.102 13.2295 28.7916L9.06936 28.5376L8.95082 30.4171L10.187 30.4905L10.2265 29.8583L12.1119 29.9712C12.1345 30.0277 12.1401 30.118 12.1288 30.2421C12.0893 30.8856 11.3668 31.5008 9.49272 31.3879C7.4719 31.2637 6.81147 30.4792 6.86791 29.5479C6.89049 29.2149 6.96387 28.9609 7.08806 28.7577L5.79541 28.4473C5.66559 28.6617 5.52447 29.0343 5.49624 29.5648C5.40593 31.0718 6.49536 32.5901 9.32337 32.799C10.6612 32.9006 11.8409 32.6522 12.5239 32.0878Z" fill="white"/>
<path id="Vector_4" d="M13.8843 27.0814L12.2755 26.246L12.6537 25.0438L14.4431 25.2922L14.8439 24.0279L6.99207 22.978L6.50098 24.5415L13.4835 28.3401L13.8843 27.0814ZM11.1918 25.7606L9.71283 25.0212C9.30077 24.8124 8.57259 24.4738 8.09844 24.248L8.10973 24.2198C8.61775 24.3157 9.39108 24.4625 9.87088 24.5358L11.4966 24.8068L11.1918 25.7606Z" fill="white"/>
<path id="Vector_5" d="M11.4119 22.5659C13.3706 23.6214 15.2108 23.6383 16.0688 22.0523C16.2946 21.6402 16.4018 21.2621 16.4075 21.0363L15.2221 20.5509C15.1939 20.7259 15.1205 20.9799 15.0132 21.1831C14.6181 21.9168 13.6754 22.1313 12.0328 21.2508C10.3281 20.3364 10.0064 19.3713 10.3733 18.6883C10.5144 18.423 10.6612 18.2989 10.8079 18.1973L9.79751 17.3901C9.63946 17.4579 9.39109 17.7062 9.1653 18.1239C8.5218 19.3261 8.83226 21.1605 11.4232 22.5546L11.4119 22.5659Z" fill="white"/>
<path id="Vector_6" d="M17.5816 19.7666L15.1092 17.633L16.0462 16.555L18.513 18.6885L19.4105 17.6556L13.5061 12.5532L12.6142 13.5805L14.9794 15.6293L14.0424 16.7074L11.6772 14.6642L10.7853 15.6971L16.6897 20.7995L17.5816 19.7666Z" fill="white"/>
<path id="Vector_7" d="M21.262 16.3684C22.3345 15.5726 22.3796 14.0599 20.6297 11.695C19.5685 10.2614 17.9485 8.88418 16.5938 9.88886C15.335 10.8202 15.8204 12.7505 17.0905 14.4663C18.3662 16.1878 19.9862 17.3223 21.2676 16.3741L21.262 16.3684ZM17.3276 10.9895C17.83 10.617 18.7162 11.5031 19.529 12.5981C20.4717 13.8737 20.9854 14.9348 20.5169 15.2791C20.0709 15.6065 19.2919 15.0646 18.2364 13.6366C17.2373 12.2877 16.8873 11.3056 17.3219 10.9838L17.3276 10.9895Z" fill="white"/>
<path id="Vector_8" d="M24.169 14.4606L23.4634 12.8632C22.8256 11.424 22.2893 10.3403 21.9337 9.64038H21.9506C22.3853 10.1992 23.0739 10.9837 23.5594 11.4917L25.7382 13.772L26.8841 13.264L23.7287 6.12402L22.6336 6.60943L23.3279 8.18981C23.9093 9.50492 24.5416 10.7015 24.9085 11.4409L24.8915 11.4522C24.4399 10.916 23.7287 10.1314 23.2828 9.6686L21.0531 7.30931L19.9072 7.81165L23.0626 14.9516L24.1577 14.4662L24.169 14.4606Z" fill="white"/>
<path id="Vector_9" d="M30.6943 12.6489C32.0321 12.4965 32.591 11.3394 32.3708 9.35266L31.8346 4.57764L30.4798 4.73003L31.0443 9.77033C31.1741 10.9443 30.9314 11.2886 30.5363 11.3281C30.175 11.3677 29.8363 11.0572 29.7065 9.91708L29.142 4.87678L27.7873 5.02918L28.3235 9.81549C28.5437 11.7628 29.238 12.8126 30.7 12.6489H30.6943Z" fill="white"/>
<path id="Vector_10" d="M34.7416 7.1684H34.7642C34.8545 7.87957 35.0521 8.90118 35.2158 9.58413L35.9496 12.649L37.1915 12.7901L38.0664 5.03488L36.8753 4.89942L36.6834 6.61526C36.5254 8.04326 36.4633 9.39787 36.4125 10.2219H36.3899C36.2714 9.53333 36.0512 8.49479 35.8988 7.86828L35.165 4.70751L33.9232 4.56641L33.0482 12.3216L34.2393 12.457L34.4368 10.7186C34.6118 9.15517 34.6965 7.95295 34.7416 7.16275V7.1684Z" fill="white"/>
<path id="Vector_11" d="M40.0309 5.55669L37.8163 13.042L39.1263 13.4295L41.3409 5.94417L40.0309 5.55669Z" fill="white"/>
<path id="Vector_12" d="M41.9105 14.6073L46.6746 8.22365L45.3142 7.58585L43.4628 10.4023C42.9773 11.1474 42.4749 11.9488 41.9951 12.7447L41.9782 12.7334C42.283 11.8642 42.554 10.9442 42.808 10.1314L43.7845 6.86903L42.4185 6.22559L40.5219 13.9525L41.9105 14.6016V14.6073Z" fill="white"/>
<path id="Vector_13" d="M45.7489 17.1248L46.5165 16.0524L45.0546 14.997L46.2851 13.2868L47.5778 14.2181L48.3172 13.1908L47.0189 12.2652L48.0688 10.8033L49.4405 11.791L50.2082 10.7186L47.7302 8.93506L43.1749 15.2735L45.7489 17.1248Z" fill="white"/>
<path id="Vector_14" d="M47.081 18.4852L49.3841 16.3855L49.5252 16.5379C49.83 16.8709 49.7679 17.2152 49.1413 17.9603C48.5712 18.6206 48.0914 19.2697 47.9955 19.4842L48.9607 20.5397C49.0905 20.2518 49.6719 19.4673 50.2251 18.7787C50.7557 18.107 50.9533 17.6047 50.7952 17.1023L50.8122 17.0854C51.5573 17.3676 52.3645 17.1362 52.9798 16.5774C53.4765 16.1259 53.77 15.6744 53.7982 15.0704C53.8321 14.4383 53.4652 13.8513 52.9628 13.2925C52.6128 12.9087 52.2008 12.5474 51.8452 12.2935L46.1666 17.4749L47.0867 18.4852H47.081ZM51.9694 14.0319C52.0427 14.0601 52.1443 14.1561 52.229 14.2464C52.6185 14.7092 52.4379 15.2002 51.9411 15.6518C51.4387 16.109 50.8178 16.2275 50.417 15.7872L50.2477 15.601L51.9694 14.0319Z" fill="white"/>
<path id="Vector_15" d="M52.7991 20.4437C52.7144 21.1718 52.6241 21.5781 52.133 21.8604C51.6871 22.1087 51.2073 22.0128 50.8968 21.454C50.7049 21.1153 50.5807 20.6299 50.592 20.2969L49.3558 20.7654C49.3445 21.0476 49.4687 21.6007 49.7453 22.0918C50.417 23.2827 51.6984 23.6496 52.9402 22.9497C53.6571 22.549 54.1821 21.8716 54.2667 20.7484C54.3401 19.8454 54.453 19.5462 54.8538 19.3148C55.215 19.1116 55.7005 19.1624 55.9827 19.6704C56.169 20.009 56.2085 20.3308 56.1859 20.5735L57.4334 20.1219C57.456 19.8792 57.3657 19.4333 57.1343 19.0213C56.4174 17.7514 55.1417 17.6046 54.0522 18.2198C53.4369 18.5641 52.9007 19.2866 52.8047 20.438L52.7991 20.4437Z" fill="white"/>
<path id="Vector_16" d="M58.2781 21.6011L50.989 24.396L51.4781 25.6714L58.7672 22.8765L58.2781 21.6011Z" fill="white"/>
<path id="Vector_17" d="M58.0318 25.2076L51.8113 26.7315L52.133 28.0579L58.3592 26.534L58.6527 27.7531L60.0131 27.4201L59.0986 23.6724L57.7383 24.0054L58.0318 25.2076Z" fill="white"/>
<path id="Vector_18" d="M52.4435 30.0331L52.5338 31.3933L55.5707 31.1901L60.4251 32.4432L60.3292 31.0265L58.4777 30.733C57.9132 30.6427 57.3431 30.5693 56.7674 30.5241V30.5015C57.3375 30.3604 57.9076 30.1855 58.393 30.0161L60.2219 29.4235L60.126 27.9673L55.4239 29.8242L52.4435 30.0218V30.0331Z" fill="white"/>
<path id="Vector_19" d="M44.5917 48.4446C44.7893 48.7212 44.8062 49.1163 44.7497 49.3646C44.6594 49.7089 44.4336 50.0024 44.1345 50.2113L44.7723 51.12L45.7827 50.4088L48.5148 54.3146L49.401 53.6938L45.3424 47.9141L44.586 48.4446H44.5917Z" fill="white"/>
<path id="Vector_20" d="M50.0558 45.871C49.1018 45.284 48.035 45.2615 47.2786 46.0347C46.4657 46.8644 46.6068 48.1682 47.5777 49.1221C48.526 50.0478 49.813 50.2397 50.5638 49.4721C50.9928 49.0318 51.0831 48.5521 51.0605 48.1626C51.2355 48.3376 51.4782 48.6029 51.6645 48.981C51.8847 49.4156 52.0314 49.9067 51.625 50.3243C51.2186 50.742 50.6485 50.6122 50.2816 50.3582L49.5929 51.0637C50.4057 51.7467 51.6758 51.8878 52.4266 51.1258C53.1096 50.4259 53.1152 49.41 52.579 48.4448C52.1725 47.6885 50.8743 46.3508 50.0614 45.8767L50.0558 45.871ZM49.8638 48.4843C49.4631 48.8907 48.8478 48.8286 48.3398 48.3376C47.8148 47.8239 47.7809 47.2426 48.1761 46.8362C48.5656 46.4411 49.1526 46.458 49.6776 46.9717C50.1856 47.4684 50.2533 48.0892 49.8638 48.4843Z" fill="white"/>
<path id="Vector_21" d="M55.4973 43.3877C54.9103 43.0265 54.1539 43.0321 53.6289 43.32C53.6289 42.8854 53.3918 42.3209 52.7144 41.9033C51.8395 41.3614 50.6485 41.5251 50.0501 42.4959C49.4744 43.4328 49.8243 44.6294 50.8743 45.2051L51.4218 44.3133C50.942 44.0537 50.7106 43.5627 51.0154 43.0716C51.3202 42.5749 51.8734 42.6257 52.2008 42.8628C52.4999 43.066 52.6016 43.3143 52.6128 43.5627C52.6128 43.8449 52.5056 44.1045 52.325 44.3924L53.2959 44.9907C53.4313 44.7705 53.5724 44.5391 53.7926 44.3416C54.1369 44.0989 54.5772 44.0819 54.9215 44.3303C55.3618 44.6464 55.5312 45.1769 55.232 45.668C54.9103 46.1872 54.3176 46.3058 53.7531 45.9107L53.1943 46.8137C54.3176 47.5983 55.6384 47.2766 56.2481 46.2888C56.869 45.2785 56.5077 44.0086 55.5029 43.3877H55.4973Z" fill="white"/>
<path id="Vector_22" d="M57.7326 38.4602C57.0439 37.9522 55.2941 37.3087 54.357 37.2241C53.2394 37.1056 52.2685 37.5402 51.9185 38.5674C51.546 39.668 52.229 40.7856 53.516 41.2258C54.7691 41.6548 56.0166 41.271 56.3609 40.2607C56.5585 39.6793 56.4287 39.2052 56.248 38.8609C56.4851 38.9399 56.8125 39.081 57.1399 39.3407C57.5237 39.6398 57.8681 40.018 57.6818 40.5711C57.4899 41.1242 56.9254 41.2541 56.4851 41.175L56.169 42.1063C57.1907 42.3716 58.4043 41.954 58.7486 40.9436C59.0647 40.018 58.6301 39.098 57.7326 38.4602ZM55.311 39.6737C55.1247 40.2155 54.5377 40.4244 53.8716 40.1986C53.1773 39.9615 52.8951 39.4536 53.0757 38.9117C53.2563 38.3868 53.7926 38.1497 54.4869 38.3868C55.1586 38.6126 55.486 39.1488 55.311 39.6737Z" fill="white"/>
<path id="Vector_23" d="M8.34119 36.5016C8.34119 37.0095 8.75325 37.4216 9.26128 37.4216C9.7693 37.4216 10.1814 37.0095 10.1814 36.5016C10.1814 35.9936 9.7693 35.5815 9.26128 35.5815C8.75325 35.5815 8.34119 35.9936 8.34119 36.5016Z" fill="white"/>
<path id="Vector_24" d="M43.2652 52.7061C42.7572 52.7061 42.3451 53.1181 42.3451 53.6261C42.3451 54.134 42.7572 54.5461 43.2652 54.5461C43.7732 54.5461 44.1853 54.134 44.1853 53.6261C44.1853 53.1181 43.7732 52.7061 43.2652 52.7061Z" fill="white"/>
<path id="Vector_25" d="M55.7626 34.7745C55.7626 35.2825 56.1747 35.6945 56.6827 35.6945C57.1908 35.6945 57.6028 35.2825 57.6028 34.7745C57.6028 34.2665 57.1908 33.8545 56.6827 33.8545C56.1747 33.8545 55.7626 34.2665 55.7626 34.7745Z" fill="white"/>
<path id="Vector_26" d="M12.7667 45.5321L13.873 44.9733L13.461 44.0872L13.4722 44.0815L16.2946 42.6931L15.8148 41.6602L8.4823 45.1878L8.99597 46.2884L12.3489 44.6347L12.7667 45.5321Z" fill="white"/>
<path id="Vector_27" d="M14.7875 41.1751L13.2521 37.8789L12.1909 38.3417L13.1505 40.4075H13.1392C12.6877 40.5825 12.1909 40.6672 11.6603 40.6672C10.4693 40.6672 9.18228 40.2156 8.29605 39.4932L7.9743 40.6672C9.02422 41.4517 10.3564 41.8863 11.7281 41.8863C12.761 41.8863 13.7884 41.6493 14.7931 41.1751H14.7875Z" fill="white"/>
<path id="Vector_28" d="M24.7109 53.0955L24.6996 53.0899L24.2085 52.8472L24.2142 52.8359L25.5125 50.1492L24.5303 49.6582L20.9064 56.9449L21.9732 57.4755L23.6215 54.0607L24.1295 54.3147L24.1239 54.326L22.4982 57.7408L23.565 58.277L26.9801 50.883L25.9979 50.392L24.7109 53.0955Z" fill="white"/>
<path id="Vector_29" d="M21.516 54.9638L22.0184 53.9591L21.9563 53.9422C21.6515 53.8519 21.0249 53.6656 20.5846 53.4455L20.2403 53.2762V53.2649L21.7587 50.3919H21.77L23.0683 51.0467L23.5933 50.0138L21.2733 48.8511L18.6146 53.7559L19.5629 54.23C20.4661 54.6816 21.0983 54.8509 21.4031 54.9299C21.4426 54.9412 21.4821 54.9525 21.5104 54.9581L21.516 54.9638Z" fill="white"/>
<path id="Vector_30" d="M28.8824 56.4086C29.0235 56.4255 29.1646 56.4312 29.3058 56.4312C30.3162 56.4312 31.0443 55.9684 31.1234 55.2741C31.208 54.5065 30.4347 53.8743 29.2549 53.7389C29.1251 53.722 28.9953 53.7163 28.8655 53.7163C28.0188 53.7163 27.1156 54.055 27.0083 54.8056C26.9688 55.0653 27.0479 55.3306 27.2341 55.5789C27.5672 56.0135 28.1994 56.3296 28.8824 56.4086ZM28.2445 54.9524C28.2728 54.7266 28.6114 54.642 28.9219 54.642C28.9896 54.642 29.063 54.642 29.1308 54.6533C29.4638 54.6928 29.7291 54.8 29.842 54.9411C29.8872 55.0032 29.9097 55.0653 29.8984 55.1387C29.8759 55.3475 29.6275 55.4717 29.2437 55.4717C29.1759 55.4717 29.1025 55.4717 29.0292 55.4604C28.7695 55.4322 28.4421 55.3362 28.3066 55.1612C28.2558 55.0991 28.2389 55.0314 28.2502 54.958L28.2445 54.9524Z" fill="white"/>
<path id="Vector_31" d="M27.1833 57.6729L31.4394 58.1696V58.1809L31.287 59.6822L32.5458 59.829L32.7885 57.2044L27.3413 56.5723L27.1833 57.6729Z" fill="white"/>
<path id="Vector_32" d="M33.099 53.8294L33.2909 51.7297L32.162 51.5942L31.6313 56.7587L32.8167 56.8998L32.9861 55.0485H33.003L33.9005 55.1558L34.0021 53.9422L33.099 53.8406V53.8294Z" fill="white"/>
<path id="Vector_33" d="M31.5918 52.7795L27.1833 52.2603L27.0309 53.2875L31.4846 53.8124L31.5918 52.7795Z" fill="white"/>
<path id="Vector_34" d="M28.2163 52.0684L30.6266 52.3506L30.7451 51.3459L28.3574 51.0693L28.2163 52.0684Z" fill="white"/>
<path id="Vector_35" d="M39.0429 57.1877V57.1764L38.518 54.6816L37.3608 54.9131L37.8632 57.4247L37.8462 57.4304L37.2423 57.5489V57.5376L36.7568 55.0372L35.594 55.2686L36.0569 57.7916H36.0456L34.5892 58.0851L34.7868 59.2253L41.95 57.786L41.6903 56.6571L39.0429 57.1877Z" fill="white"/>
<path id="Vector_36" d="M38.7889 52.7908C39.0147 54.0438 39.0767 55.1388 39.1106 56.0363L40.2509 55.8049C40.2678 54.6252 40.1041 53.2254 39.7428 51.4023L34.3182 52.4973L34.5214 53.6375L38.7889 52.7795V52.7908Z" fill="white"/>
<path id="Vector_37" d="M13.4779 49.822L14.4544 48.8738L13.6133 48.0215L11.7788 49.7712L15.8091 53.8407L16.6051 52.9997L13.4666 49.8333L13.4779 49.822Z" fill="white"/>
<path id="Vector_38" d="M17.4687 44.0874L16.7292 44.7986L18.4227 46.5088L19.1508 45.7863L17.4687 44.0874Z" fill="white"/>
<path id="Vector_39" d="M20.3645 47.1411L18.6315 48.919L17.8469 48.1345L17.051 48.936L17.8413 49.7318L16.2382 51.3799L17.0849 52.2379L21.166 47.9482L20.3645 47.1411Z" fill="white"/>
<path id="Vector_40" d="M16.9664 47.0957L17.9429 48.0778L18.7275 47.2876L15.9447 44.4824L15.1318 45.2444L16.0858 46.2039L16.0745 46.2152C15.8261 46.3958 15.4874 46.4861 15.0641 46.4861C14.3698 46.4861 13.6811 46.2434 13.4723 46.1531L13.2183 47.4061C13.6586 47.615 14.2512 47.7335 14.8157 47.7335C15.0697 47.7335 15.3012 47.7053 15.4987 47.6545H15.5213V47.6714C15.3971 48.3487 15.5213 49.1446 15.86 49.8049L17.0172 49.4155C16.8648 49.0994 16.4809 47.8012 16.9664 47.1126L16.9777 47.1013L16.9664 47.0957Z" fill="white"/>
</g>
<g id="Group_3">
<path id="Vector_41" d="M30.8016 39.4532C27.9115 39.4532 24.5247 37.1899 26.5624 32.2343C28.8881 26.6013 36.1133 22.9382 39.0768 22.9382C39.8163 22.9382 40.2565 23.2035 40.2283 23.7284C40.1888 24.5073 39.5679 25.4894 40.3299 26.1103C41.2839 26.8835 44.0837 25.6305 44.3546 23.6494C44.5296 22.3399 42.7402 20.9966 39.1389 20.9966C30.8411 20.9966 22.645 25.8393 20.2064 32.3302C18.0276 38.1268 21.4652 43.0768 28.0583 43.0768C34.0078 43.0768 37.9987 39.4532 39.3873 35.0394L39.7316 33.9332H32.3257C31.9701 35.395 32.3934 37.1052 34.6683 37.1052C35.2948 37.1052 35.9101 36.9528 36.452 36.6481C36.5084 36.6198 36.531 36.6593 36.4972 36.6932C35.4529 38.0309 33.3587 39.4476 30.8129 39.4476L30.8016 39.4532Z" fill="#004E96"/>
<path id="Vector_42" d="M38.7099 40.2661C40.7533 40.6217 42.1701 39.7694 42.8306 38.1551C43.1072 37.4835 43.3499 36.6651 43.5249 35.7902C43.8071 34.4187 42.2379 33.9784 40.567 33.9502L38.7099 40.2661Z" fill="#80C341"/>
<path id="Vector_43" d="M47.7923 33.2556C48.0971 31.4664 47.3576 30.1626 45.7094 29.9876C45.0207 29.9143 44.3264 29.8635 43.4063 29.9312C41.9556 30.0441 41.4758 30.7214 40.7759 33.2556H47.7923Z" fill="#00B9F2"/>
<path id="Vector_44" d="M37.6374 29.2374C37.389 29.83 37.1068 30.6597 36.96 31.4386C36.7286 32.6691 38.0043 33.2165 39.9292 33.2561L41.696 27.2506C39.6131 26.8047 38.2357 27.7924 37.6374 29.2374Z" fill="#FCAF16"/>
</g>
</g>
<defs>
<clipPath id="clip0_289_1920">
<rect width="64" height="64" fill="white" transform="translate(0.839355)"/>
</clipPath>
</defs>
</svg>
