<svg width="65" height="64" viewBox="0 0 65 64" fill="none" xmlns="http://www.w3.org/2000/svg">
<g id="&#236;&#149;&#132;&#236;&#163;&#188;&#235;&#140;&#128;&#237;&#149;&#153;&#234;&#181;&#144;" clip-path="url(#clip0_289_1835)">
<g id="Group">
<path id="Vector" d="M24.0202 7.66602L17.1253 11.1861L17.5614 12.0266L20.4748 10.5352L21.4923 12.5259L22.5477 11.9824L21.5302 9.99168L24.4436 8.50654L24.0202 7.66602Z" fill="#005BAC"/>
<path id="Vector_2" d="M19.8175 7.93773C20.7781 8.56338 21.8399 8.01357 21.8399 8.01357L23.4071 7.21096L23.0343 6.47787L21.8335 7.0972C21.8335 7.0972 20.9045 7.61542 20.1841 6.85705L22.5982 5.6247L22.1685 4.78418L15.8867 7.99461L16.3164 8.83513L18.7305 7.60278C18.9265 8.6329 17.9659 9.0816 17.9659 9.0816L16.7588 9.69462L17.1316 10.4277L18.7053 9.6251C18.7053 9.6251 19.7733 9.08792 19.8239 7.93773H19.8175Z" fill="#005BAC"/>
</g>
<g id="Group_2">
<path id="Vector_3" d="M12.2907 12.4814L11.4881 13.5242L10.616 12.8543L9.88922 13.796L15.103 17.8153L15.8298 16.8673L12.2338 14.0993L13.0365 13.0565L12.2907 12.4814Z" fill="#005BAC"/>
<path id="Vector_4" d="M8.91598 15.3002C8.27768 15.6225 7.67731 16.4251 7.67731 16.4251C7.67731 16.4251 7.05166 17.2087 6.89998 17.9102C6.89998 17.9102 6.57136 19.1173 7.68363 20.0147C8.83382 20.8615 9.92082 20.2359 9.92082 20.2359C10.5591 19.9136 11.1595 19.111 11.1595 19.111C11.1595 19.111 11.7915 18.3273 11.9368 17.6258C11.9368 17.6258 12.2654 16.4188 11.1532 15.5214C10.003 14.6745 8.91598 15.3002 8.91598 15.3002ZM10.8309 17.6448C10.7361 18.0429 10.3758 18.5043 10.3758 18.5043C10.3758 18.5043 10.0283 18.9719 9.66171 19.1678C9.66171 19.1678 9.04869 19.5407 8.41672 19.0794C7.81002 18.5864 8.01226 17.8976 8.01226 17.8976C8.10705 17.4994 8.4736 17.0381 8.4736 17.0381C8.4736 17.0381 8.82118 16.5704 9.18141 16.3808C9.18141 16.3808 9.80074 16.008 10.4264 16.4693C11.0331 16.9623 10.8309 17.6511 10.8309 17.6511V17.6448Z" fill="#005BAC"/>
</g>
<path id="Vector_5" d="M34.8775 3.11564V4.21527H34.0622V3.11564H32.8741V6.4651H30.0366L29.9923 6.40822V4.03832H32.2232V3.09668H28.8674V6.71789C28.8674 7.09707 29.1771 7.40674 29.5563 7.40674C29.5689 7.40674 29.5752 7.40674 29.5879 7.40674H32.8804V9.68185H34.0685V5.15691H34.8838V9.68185H36.0782V3.11564H34.8838H34.8775Z" fill="#005BAC"/>
<path id="Vector_6" d="M54.6393 20.6593L58.1468 17.885C58.1468 17.885 58.1531 17.8786 58.1594 17.8723C58.4438 17.6511 58.5007 17.253 58.3111 16.956L54.791 12.5132L54.0516 13.1009L57.281 17.1835L53.9631 19.8125L53.2553 18.9214L55.7579 16.937L55.0817 16.0838L52.5727 18.0682L51.9661 17.2972L54.4687 15.3128L53.7925 14.4597L51.2835 16.4441L50.3608 15.2812L49.6214 15.869L54.4497 21.9675L55.1891 21.3861L54.633 20.6846L54.6393 20.6593Z" fill="#005BAC"/>
<g id="Group_3">
<path id="Vector_7" d="M49.4508 8.89175L48.3259 8.34193L48.8378 7.3055L47.8582 6.8252L46.4742 9.63116L47.4538 10.1115L47.9594 9.08766L49.0843 9.63748L49.4508 8.89175Z" fill="#005BAC"/>
<path id="Vector_8" d="M46.9166 11.1987C47.0872 10.8574 46.9482 10.4467 46.6069 10.276L41.0645 7.5459L40.679 8.32323L45.8549 10.8701L44.9322 12.7407L45.9118 13.221L46.9103 11.1987H46.9166Z" fill="#005BAC"/>
<path id="Vector_9" d="M41.9745 5.76368C41.9745 5.76368 41.7534 6.21238 41.7976 6.58525C41.7976 6.58525 41.8292 7.10979 42.3032 7.55849C42.537 7.77968 42.8972 7.98191 43.4028 8.22838C43.9021 8.47485 44.2813 8.63916 44.6036 8.68972C45.2419 8.79084 45.6842 8.50013 45.6842 8.50013C46.0065 8.31054 46.2277 7.86184 46.2277 7.86184C46.2277 7.86184 46.3984 7.50793 46.411 7.17298L46.9355 7.43209L47.3526 6.58525L45.324 5.58673L45.5515 5.12539L44.572 4.64509L44.3445 5.10643L42.3158 4.10791L41.8987 4.95476L42.4233 5.21386C42.1578 5.42874 41.9872 5.77632 41.9872 5.77632L41.9745 5.76368ZM45.0523 7.69752C45.0523 7.69752 44.85 7.83024 44.553 7.786C44.4013 7.76072 44.0095 7.57745 43.7757 7.46369C43.5418 7.34994 43.1879 7.16666 43.0805 7.05923C42.8593 6.85068 42.8467 6.61053 42.8467 6.61053C42.8277 6.43989 42.9288 6.22502 42.9288 6.22502C42.9288 6.22502 43.0299 6.01647 43.1816 5.928C43.1816 5.928 43.3839 5.79528 43.6809 5.83952C43.8326 5.8648 44.1928 6.02911 44.4266 6.14287C44.6604 6.25662 45.0459 6.45885 45.1534 6.55997C45.3746 6.76852 45.3872 7.00867 45.3872 7.00867C45.4062 7.1793 45.3051 7.39417 45.3051 7.39417C45.3051 7.39417 45.2039 7.60273 45.0523 7.6912V7.69752Z" fill="#005BAC"/>
</g>
<g id="Group_4">
<path id="Vector_10" d="M6.34384 36.2562L6.12265 34.3603L4.18881 33.8863L4.11298 33.2417L8.53679 34.4425C8.82118 34.5183 9.14981 34.6257 9.21933 34.2529H9.25092L9.38996 35.4346L5.70555 37.4506C5.29477 37.6718 4.89662 37.8551 4.70703 38.3165L4.57432 37.1852L6.35016 36.2562H6.34384ZM8.68847 35.0112L6.70407 34.4867L6.8747 35.9718L8.68847 35.0112Z" fill="#005BAC"/>
<path id="Vector_11" d="M9.07398 38.9229C9.40893 38.8218 9.94611 38.6954 9.96507 38.2846L9.99666 38.272L10.4264 39.6497L10.4011 39.6623C10.1547 39.3463 9.64276 39.5549 9.30781 39.6623L5.2063 40.9515C4.44161 41.1917 3.84756 40.8441 3.49365 39.953V39.9151C4.22042 40.3638 4.64385 40.3132 5.42749 40.0668L9.07398 38.9229Z" fill="#005BAC"/>
<path id="Vector_12" d="M10.9699 47.2082C9.54165 47.8022 8.01227 47.0439 7.43718 45.6535C6.86208 44.2632 7.37398 42.6832 8.80856 42.0892C10.142 41.5394 11.7283 42.2345 12.3034 43.7197C12.9164 45.1859 12.2275 46.6836 10.9699 47.2082ZM9.2067 42.8665C8.22715 43.271 7.5067 44.3833 7.96172 45.4829C8.39778 46.5446 9.45949 46.9048 10.5023 46.4688C11.526 46.0453 12.2402 44.9899 11.7852 43.8777C11.3365 42.7907 10.2684 42.4241 9.2067 42.8602V42.8665Z" fill="#005BAC"/>
<path id="Vector_13" d="M13.403 52.9781L13.7569 52.6242C13.2071 52.7001 12.6446 52.3904 12.2655 52.0175C11.9115 51.6636 11.6461 51.177 11.6651 50.6714C11.6904 50.0774 12.0569 49.7298 12.4424 49.3443L13.8707 47.9097C14.1108 47.6696 14.5406 47.3157 14.3952 46.9238L15.1915 47.7138L14.4205 48.4595L12.9922 49.8941C12.2781 50.6082 12.2465 51.2402 12.8026 51.79C13.106 52.0934 13.5294 52.2703 13.9591 52.1945C14.2372 52.1503 14.3636 52.0112 14.5595 51.8153L16.1711 50.2038C16.4112 49.9636 16.8346 49.6034 16.6893 49.2116L17.4856 50.0015L16.7146 50.7536L13.9465 53.528L13.3967 52.9845L13.403 52.9781Z" fill="#005BAC"/>
<path id="Vector_14" d="M23.1038 58.8179L23.2871 58.3755C22.8131 58.6536 22.1685 58.5841 21.6755 58.3818C21.2142 58.1922 20.7845 57.8383 20.6075 57.3707C20.4053 56.8082 20.6075 56.3469 20.8224 55.8413L21.5934 53.9706C21.7261 53.6547 21.9852 53.168 21.7008 52.8521L22.7373 53.2818L22.3075 54.2614L21.5365 56.132C21.151 57.061 21.3659 57.6551 22.0863 57.9584C22.4781 58.1227 22.9458 58.1227 23.3123 57.8889C23.5525 57.7435 23.622 57.5666 23.7231 57.3138L24.5953 55.203C24.728 54.887 24.9808 54.3941 24.6964 54.0844L25.7328 54.5141L25.3094 55.5063L23.8242 59.1086L23.1101 58.8179H23.1038Z" fill="#005BAC"/>
<path id="Vector_15" d="M31.9198 56.4792L31.4332 60.7008C30.9213 60.4606 30.7128 60.1825 30.4347 59.7149L28.2354 56.1442L27.7867 60.0182L27.2432 59.955L27.7046 55.9925C27.7488 55.5691 27.7867 55.2658 27.4202 55.0003V54.9688L28.5261 55.0951V55.1078C28.5451 55.2026 28.5704 55.2405 28.6146 55.31L28.7031 55.4743L31.0603 59.2725L31.389 56.416C31.4395 55.9925 31.4838 55.6702 31.1109 55.3922L32.0525 55.4996L31.9325 56.4728L31.9198 56.4792Z" fill="#005BAC"/>
<path id="Vector_16" d="M34.4351 60.4671L34.2392 56.5489C34.2202 56.2013 34.2455 55.6515 33.8537 55.5188L34.9533 55.4619L35.0039 56.511L35.1998 60.4292L34.4288 60.4671H34.4351Z" fill="#005BAC"/>
<path id="Vector_17" d="M57.1925 46.9557L53.8114 44.9649C53.5081 44.788 53.0594 44.4657 52.7371 44.7248L53.2995 43.7705L54.2032 44.3014L57.5843 46.2984L57.1925 46.962V46.9557Z" fill="#005BAC"/>
<path id="Vector_18" d="M39.9459 55.9168C40.0217 55.348 40.1292 54.6844 39.6299 54.6149V54.5833L40.7169 54.3242L39.9712 59.8603C39.3771 59.6454 39.1939 59.6265 38.84 59.0956L37.0136 56.3402C36.786 55.999 36.5712 55.5945 36.192 55.4239V55.3923L37.26 55.1395L37.2727 55.2343C37.3106 55.3986 37.5381 55.7272 37.6392 55.8726L39.5667 58.8049L39.9396 55.9168H39.9459Z" fill="#005BAC"/>
<path id="Vector_19" d="M43.9147 57.2632L42.6634 54.6974C42.5117 54.3814 42.3095 53.8695 41.905 53.9074L41.8924 53.8821L44.0664 52.8204C44.1865 52.7635 44.3065 52.7256 44.3697 52.6372L44.3887 52.6245L44.7742 53.4208H44.7552C44.4266 53.2881 44.1359 53.3955 43.8199 53.5535C43.5798 53.6673 43.3459 53.7937 43.1437 53.939L43.763 55.203L44.572 54.8048C44.6794 54.7543 44.7868 54.6974 44.85 54.6216L44.869 54.6089L45.2229 55.3294L45.2039 55.342C45.0017 55.1966 44.7173 55.342 44.5088 55.4494L44.0032 55.6959L44.7932 57.3074L45.6969 56.9662C46.1645 56.7892 46.569 56.4164 46.7586 55.9487L46.7839 55.9361L46.9103 56.9788L44.3697 58.2238L43.9084 57.2632H43.9147Z" fill="#005BAC"/>
<path id="Vector_20" d="M49.4382 55.2282L47.0303 52.1441C46.8155 51.8661 46.5185 51.3984 46.1266 51.5311L46.1077 51.5058L47.5296 50.3936C48.3322 49.7679 49.0969 49.8501 49.5203 50.3936C49.9311 50.9181 49.7921 51.6891 49.3876 52.1884L51.0939 52.5928C51.5869 52.7066 52.2062 52.7255 52.7118 52.675L52.162 53.0984C51.846 53.3449 51.5869 53.427 51.233 53.3449L49.8047 53.0099L48.5976 52.5992C49.0147 52.1568 49.4066 51.4995 48.9642 50.9371C48.6292 50.5073 48.0605 50.5452 47.675 50.8739C47.5422 50.9876 47.4285 51.1077 47.3084 51.2404L50.0449 54.7479L49.4319 55.2218L49.4382 55.2282Z" fill="#005BAC"/>
<path id="Vector_21" d="M52.5854 46.69C52.162 46.7216 51.7322 46.9744 51.4605 47.303C51.1887 47.638 50.9675 48.1625 51.372 48.4975C52.1746 49.1547 53.8177 47.1324 54.8984 48.0235C55.5241 48.5354 55.5746 49.6729 54.8226 50.5893C54.5255 50.9432 54.1843 51.2592 53.7861 51.493L52.914 51.0633C53.4954 50.9622 54.0768 50.6399 54.4497 50.1848C54.7215 49.8499 54.9363 49.18 54.5255 48.845C53.6155 48.093 52.124 50.2417 50.8791 49.2242C50.1396 48.6175 50.4809 47.6317 51.0687 46.9175C51.3088 46.6268 51.5932 46.3551 51.9155 46.1528L52.5791 46.6963L52.5854 46.69Z" fill="#005BAC"/>
<path id="Vector_22" d="M61.0286 36.7744L58.8799 36.4647L56.6995 37.419C56.3393 37.5707 56.0739 37.6844 55.8211 38.0194L55.9791 36.9008L58.3427 35.8833L57.0787 34.7521C56.9081 34.6004 56.5732 34.3729 56.314 34.7647H56.2888L56.4784 33.4502L58.9936 35.6937L61.136 36.0034L61.0286 36.7681V36.7744Z" fill="#005BAC"/>
<path id="Vector_23" d="M54.0958 42.5127L54.791 43.0499L54.8036 43.0309C54.6835 42.7339 54.7341 42.3863 54.8478 42.0829L55.088 41.4636L59.2274 43.0878L59.5118 42.3673L55.3724 40.7431L55.6252 40.1112C55.7137 39.8773 55.859 39.6119 56.1434 39.6182V39.5993L55.4482 39.0811L54.0958 42.5253V42.5127Z" fill="#005BAC"/>
</g>
<path id="Vector_24" d="M32.8236 0C15.1662 0 0.839355 14.3268 0.839355 31.9842C0.839355 49.6416 15.1662 64.0063 32.8236 64.0063C50.4809 64.0063 64.8394 49.6795 64.8394 31.9842C64.8394 14.2889 50.5125 0 32.8236 0ZM32.8236 63.052C15.6907 63.052 1.78732 49.1486 1.78732 31.9842C1.78732 14.8198 15.6907 0.947961 32.8236 0.947961C49.9564 0.947961 63.8914 14.8514 63.8914 31.9842C63.8914 49.117 49.988 63.0584 32.8236 63.0584V63.052Z" fill="#005BAC"/>
<path id="Vector_25" d="M53.6345 31.9844C53.6345 43.48 44.3255 52.789 32.8299 52.789C21.3343 52.789 12.0443 43.48 12.0443 31.9844C12.0443 20.4888 21.3532 11.2051 32.8299 11.2051C44.3065 11.2051 53.6345 20.5204 53.6345 31.9844Z" fill="#005BAC"/>
<path id="Vector_26" d="M8.54945 26.7135C8.54945 27.1875 8.16395 27.5793 7.68364 27.5793C7.20334 27.5793 6.81784 27.1938 6.81784 26.7135C6.81784 26.2332 7.20334 25.854 7.68364 25.854C8.16395 25.854 8.54945 26.2395 8.54945 26.7135Z" fill="#005BAC"/>
<path id="Vector_27" d="M58.9936 26.7135C58.9936 27.1875 58.6081 27.5793 58.1278 27.5793C57.6475 27.5793 57.262 27.1938 57.262 26.7135C57.262 26.2332 57.6475 25.854 58.1278 25.854C58.6081 25.854 58.9936 26.2395 58.9936 26.7135Z" fill="#005BAC"/>
<g id="Group_5">
<path id="Vector_28" d="M29.1328 14.2383L20.4053 27.0357C20.4053 27.0357 18.2882 29.6711 20.0387 33.1216L24.5889 40.1365C24.5889 40.1365 25.3663 41.5206 26.9715 41.5206H30.3905C30.3905 41.5206 29.847 41.312 29.512 40.8191L24.4373 33.0142C24.4373 33.0142 23.6157 31.6807 23.6726 30.3346C23.6726 30.3346 23.7295 29.1528 24.4183 28.0342L29.1708 20.9056L34.808 29.6268C34.808 29.6268 35.4463 30.5811 34.77 31.3458C34.77 31.3458 34.3593 31.7755 33.3291 31.4406L35.2946 34.4741C35.2946 34.4741 35.6485 34.9607 36.2299 34.9607C36.2299 34.9607 36.6407 34.9607 37.0325 34.493L38.4924 32.1358C38.4924 32.1358 39.5604 30.7328 38.4355 28.5398L29.1328 14.2319V14.2383Z" fill="#C59600"/>
<path id="Vector_29" d="M40.6221 40.3516L44.9512 33.836C44.9512 33.836 47.0683 31.2007 45.3177 27.7501L37.4812 15.6667C37.4812 15.6667 36.7039 14.2827 35.0987 14.2827H31.6797C31.6797 14.2827 32.2232 14.4976 32.5581 14.9842L40.7485 27.4531C40.7485 27.4531 41.8482 29.1151 41.6902 30.5308C41.6902 30.5308 41.6333 31.7126 40.9381 32.8312L38.1132 37.2486C37.6455 37.8617 37.14 37.8743 37.14 37.8743H35.4273C34.8649 37.8111 34.4541 37.1539 34.4541 37.1539L30.5485 31.2449C30.5485 31.2449 29.9165 30.2906 30.5864 29.5259C30.5864 29.5259 30.9972 29.0962 32.0273 29.4311L30.0618 26.3977C30.0618 26.3977 29.7079 25.911 29.1265 25.911C29.1265 25.911 28.7157 25.911 28.3239 26.3787L26.8641 28.736C26.8641 28.736 25.796 30.1389 26.9209 32.3256L32.179 40.4022C32.179 40.4022 32.8994 41.5145 33.9548 41.5145H38.682C38.682 41.5145 39.8574 41.5461 40.6285 40.3516H40.6221Z" fill="#C59600"/>
</g>
<g id="Group_6">
<path id="Vector_30" d="M27.5339 49.136H26.8388V44.6426L26.0488 45.1735V44.5099C26.2258 44.4341 26.725 44.0549 26.9336 43.8779H27.5339V49.1423V49.136Z" fill="white"/>
<path id="Vector_31" d="M32.1158 46.526C32.1158 47.8974 32.1221 49.2498 30.7001 49.2498C29.9102 49.2498 29.3856 48.7127 29.4046 47.8784H30.0998C30.0998 48.264 30.2514 48.6684 30.7001 48.6684C31.3763 48.6684 31.4206 47.9227 31.4206 46.5766H31.4079C31.2373 46.9368 30.9087 47.0695 30.5042 47.0695C30.0998 47.0695 29.2971 46.8483 29.2971 45.4074C29.2971 44.2256 30.005 43.7959 30.7001 43.7959C32.141 43.7959 32.1158 45.1167 32.1158 46.5323V46.526ZM29.9923 45.3885C29.9923 45.913 30.0934 46.4818 30.7001 46.4818C31.3068 46.4818 31.4079 45.913 31.4079 45.3885C31.4079 44.9082 31.3005 44.2952 30.7001 44.2952C30.0998 44.2952 29.9923 44.9082 29.9923 45.3885Z" fill="white"/>
<path id="Vector_32" d="M32.9247 43.8716H35.6485V44.4783L34.2455 49.1359H33.4555L34.928 44.4783H32.9247V43.8716Z" fill="white"/>
<path id="Vector_33" d="M37.6518 46.071C38.2775 46.1279 38.7262 45.8751 38.7262 45.1989C38.7262 44.7185 38.5113 44.371 37.9994 44.371C37.4243 44.371 37.3295 44.8007 37.3359 45.2305H36.6407C36.5901 44.3394 37.0199 43.7896 37.9994 43.7896C38.8968 43.7896 39.4214 44.2382 39.4214 45.1546C39.4214 46.1468 38.6883 46.2985 38.3849 46.3743V46.3933C39.2128 46.507 39.4782 46.9494 39.4782 47.7331C39.4782 48.7569 38.9284 49.2498 37.9173 49.2498C36.4448 49.2498 36.5585 47.9859 36.5585 47.6888H37.2537C37.26 48.2134 37.3422 48.6684 37.9741 48.6684C38.6061 48.6684 38.7768 48.2829 38.7768 47.7204C38.7768 46.8736 38.4608 46.6903 37.6455 46.6903V46.0773L37.6518 46.071Z" fill="white"/>
</g>
</g>
<defs>
<clipPath id="clip0_289_1835">
<rect width="64" height="64" fill="white" transform="translate(0.839355)"/>
</clipPath>
</defs>
</svg>
