<svg width="86" height="64" viewBox="0 0 86 64" fill="none" xmlns="http://www.w3.org/2000/svg">
<g id="&#235;&#139;&#168;&#234;&#181;&#173;&#235;&#140;&#128;&#237;&#149;&#153;&#234;&#181;&#144;" clip-path="url(#clip0_289_1875)">
<g id="Group">
<path id="Vector" d="M34.2451 47.1781V47.6784C34.2451 47.7281 34.2527 47.7701 34.2719 47.8082C34.2911 47.8426 34.3102 47.8655 34.3332 47.8732C34.3371 47.877 34.3716 47.8808 34.4329 47.8846C34.4943 47.8884 34.5249 47.8923 34.5288 47.8923C34.5288 47.8923 34.5633 47.8923 34.6208 47.8846C34.6783 47.8808 34.7128 47.877 34.7166 47.8732C34.7435 47.8579 34.7665 47.8541 34.7895 47.8541C34.8125 47.8541 34.8202 47.8273 34.8202 47.7701C34.8202 47.7204 34.8163 47.667 34.8125 47.6097C34.8048 47.5562 34.7972 47.5066 34.7818 47.4646C34.7626 47.3882 34.7205 47.3271 34.6591 47.2851C34.5978 47.2431 34.5288 47.1934 34.4521 47.1361C34.0802 46.8688 33.8348 46.6702 33.7236 46.5442C33.6124 46.4182 33.5549 46.2616 33.5549 46.0821V45.7652C33.5549 45.5284 33.6316 45.3527 33.785 45.2382C33.9383 45.1236 34.13 45.0663 34.3601 45.0625H34.7396C34.9659 45.0663 35.1537 45.1312 35.3032 45.2611C35.4528 45.3909 35.5256 45.5704 35.5256 45.7919V46.4144H34.8432V46.0401C34.8432 45.9141 34.8355 45.8301 34.8163 45.7881C34.7972 45.7423 34.7742 45.7155 34.7396 45.6964C34.7396 45.6926 34.7051 45.6888 34.6438 45.6812C34.5825 45.6812 34.5479 45.6735 34.5441 45.6735C34.5441 45.6735 34.5134 45.6735 34.4598 45.6659C34.4061 45.6621 34.3677 45.6659 34.3486 45.6773C34.3217 45.6964 34.2987 45.7079 34.2757 45.7193C34.2566 45.7308 34.2451 45.7728 34.2451 45.8454C34.2451 45.895 34.2451 45.9217 34.2451 45.9256C34.2451 45.9256 34.2451 45.9485 34.2451 45.9867C34.2527 46.0974 34.3217 46.1967 34.4483 46.2731C34.5748 46.3494 34.7857 46.4907 35.0847 46.6893C35.1806 46.7542 35.2802 46.8574 35.3838 47.0063C35.4873 47.1514 35.541 47.2812 35.541 47.3958V47.6631C35.541 47.8961 35.4643 48.0908 35.3071 48.2474C35.1537 48.404 34.9582 48.488 34.7205 48.4956H34.3371C34.1109 48.488 33.9192 48.4193 33.7658 48.2894C33.6124 48.1596 33.5358 47.9839 33.5358 47.7662V47.1858H34.2527L34.2451 47.1781Z" fill="#004898"/>
<path id="Vector_2" d="M36.2234 44.3367V43.5615H36.9403V44.3367H36.2234ZM36.2234 48.4496V45.0929H36.9403V48.4496H36.2234Z" fill="#004898"/>
<path id="Vector_3" d="M38.9264 48.4495V45.8833C38.9264 45.8336 38.9187 45.7954 38.9034 45.7649C38.8881 45.7305 38.8651 45.7152 38.8344 45.7076C38.8344 45.7076 38.7999 45.7 38.7385 45.7C38.6772 45.7 38.6427 45.7 38.6388 45.7C38.6388 45.7 38.6043 45.7 38.5392 45.7C38.4778 45.7 38.4433 45.7038 38.4356 45.7076C38.4126 45.7152 38.3896 45.7382 38.3743 45.7687C38.359 45.8031 38.3513 45.8374 38.3513 45.8756V48.4457H37.6343V45.0966H38.3513V45.2264C38.3896 45.1844 38.4471 45.1462 38.52 45.1195C38.5928 45.0889 38.6695 45.0737 38.7462 45.0699C38.7539 45.066 38.7884 45.0622 38.8497 45.066C38.9149 45.066 38.9494 45.0699 38.9571 45.0699C38.9686 45.0699 39.0069 45.0699 39.0683 45.066C39.1296 45.066 39.1679 45.066 39.1794 45.0699C39.3021 45.0813 39.4095 45.1348 39.5015 45.2302C39.5935 45.3257 39.6395 45.4556 39.6395 45.6274V48.4457H38.9264V48.4495Z" fill="#004898"/>
<path id="Vector_4" d="M41.5987 46.4943V45.8642C41.5987 45.8184 41.591 45.7764 41.5757 45.7458C41.5604 45.7153 41.5412 45.6923 41.5144 45.6771C41.5144 45.6771 41.4798 45.6694 41.4147 45.6656C41.3495 45.6656 41.315 45.6656 41.3073 45.6656C41.3073 45.6656 41.2728 45.6656 41.2076 45.6656C41.1463 45.6656 41.1118 45.6733 41.1041 45.6771C41.0811 45.6847 41.0581 45.7076 41.0428 45.742C41.0274 45.7764 41.0198 45.8184 41.0198 45.8642V47.6705C41.0198 47.7202 41.0274 47.7583 41.0428 47.7927C41.0581 47.8271 41.0773 47.85 41.1003 47.8615C41.1079 47.8653 41.1386 47.8691 41.2038 47.8767C41.2651 47.8767 41.2996 47.8805 41.3073 47.8805C41.315 47.8805 41.3457 47.8805 41.407 47.8767C41.4645 47.8729 41.499 47.8691 41.499 47.8615C41.5259 47.8538 41.5489 47.8309 41.568 47.7965C41.5872 47.7622 41.5987 47.7202 41.5987 47.6667V47.0519H42.3118V47.6896C42.3118 47.9035 42.239 48.0906 42.0895 48.2433C41.9399 48.3961 41.7559 48.4763 41.5335 48.4877H41.1156C40.8817 48.4725 40.69 48.3885 40.5367 48.2319C40.3833 48.0715 40.3066 47.8805 40.3066 47.6514V45.8833C40.3066 45.6542 40.3795 45.4632 40.529 45.3066C40.6785 45.1501 40.8664 45.0622 41.0926 45.0508H41.5374C41.7636 45.0661 41.9476 45.1501 42.0933 45.2952C42.239 45.4403 42.3118 45.6274 42.3118 45.8451V46.4943H41.5987Z" fill="#004898"/>
<path id="Vector_5" d="M43.692 47.0252V47.6744C43.692 47.7241 43.6997 47.7661 43.7189 47.8004C43.738 47.8386 43.7572 47.8615 43.7879 47.8692C43.7955 47.873 43.8262 47.8768 43.8876 47.8844C43.9489 47.8844 43.9796 47.8883 43.9834 47.8883C43.9872 47.8883 44.0218 47.8883 44.0831 47.8844C44.1444 47.8806 44.1751 47.8768 44.1789 47.8692C44.2058 47.8615 44.2288 47.8386 44.248 47.8004C44.2671 47.7661 44.2748 47.7241 44.2748 47.6744V47.22H44.9841V47.6935C44.9841 47.9074 44.9074 48.0945 44.7579 48.2472C44.6084 48.4 44.4167 48.4802 44.1866 48.4916H43.7802C43.554 48.4764 43.3623 48.3924 43.2128 48.2358C43.0633 48.0754 42.9866 47.8844 42.9866 47.6553V45.8872C42.9866 45.6581 43.0594 45.4671 43.2051 45.3105C43.3508 45.154 43.531 45.0661 43.7534 45.0547H44.2058C44.4282 45.0661 44.6122 45.1502 44.7617 45.2991C44.9112 45.448 44.9841 45.6351 44.9841 45.849V47.029H43.6959L43.692 47.0252ZM44.2748 45.8643C44.2748 45.8185 44.2671 45.7764 44.2518 45.7459C44.2365 45.7153 44.2135 45.6924 44.1866 45.6772C44.1866 45.6772 44.1521 45.6695 44.0869 45.6657C44.0256 45.6657 43.9911 45.6657 43.9834 45.6657C43.9834 45.6657 43.9489 45.6657 43.8876 45.6657C43.8262 45.6657 43.7917 45.6733 43.7879 45.6772C43.761 45.6848 43.738 45.7077 43.7189 45.7421C43.6997 45.7764 43.692 45.8185 43.692 45.8643V46.4333H44.2748V45.8643Z" fill="#004898"/>
<path id="Vector_6" d="M46.6634 48.4419V45.9787H46.3605V45.4938H46.4295C46.4717 45.4938 46.4947 45.4938 46.5024 45.4938C46.5714 45.4708 46.6251 45.4174 46.6711 45.3295C46.7133 45.2455 46.7363 45.1653 46.7363 45.0928H47.204V48.4457H46.6596L46.6634 48.4419Z" fill="#004898"/>
<path id="Vector_7" d="M48.2008 47.182V47.8923C48.2008 47.9152 48.2085 47.9381 48.22 47.9572C48.2315 47.9763 48.2507 47.9878 48.2699 47.9954C48.2699 47.9954 48.2967 48.003 48.3389 48.003C48.381 48.003 48.404 48.0069 48.4079 48.0069C48.4117 48.0069 48.4347 48.0069 48.4807 48.0069C48.5229 48.0069 48.5497 48.003 48.5536 47.9992C48.5727 47.9916 48.5881 47.9801 48.5957 47.9572C48.6072 47.9343 48.6111 47.9152 48.6111 47.8961V46.8956C48.6111 46.8956 48.5766 46.93 48.5459 46.9452C48.5152 46.9605 48.4807 46.9681 48.4386 46.972C48.4309 46.972 48.4002 46.9758 48.3504 46.9758H48.128C47.9938 46.9681 47.8826 46.9185 47.7983 46.8268C47.7139 46.7352 47.6718 46.6054 47.6718 46.4411V45.6888C47.6718 45.5017 47.7254 45.3566 47.8328 45.2535C47.9401 45.1504 48.0782 45.0931 48.2469 45.0854H48.5497C48.7261 45.0931 48.868 45.1466 48.9753 45.2535C49.0827 45.3566 49.1363 45.5017 49.1363 45.685V47.8236C49.1363 48.003 49.0827 48.152 48.9715 48.2742C48.8603 48.3964 48.7184 48.4613 48.5497 48.4689H48.2507C48.0858 48.4613 47.9516 48.3964 47.8404 48.278C47.7293 48.1596 47.6756 48.0107 47.6756 47.8312V47.182H48.2047H48.2008ZM48.6111 45.6583C48.6111 45.6277 48.6072 45.6048 48.5957 45.5895C48.5842 45.5704 48.5689 45.559 48.5459 45.559C48.5459 45.5552 48.5229 45.5552 48.4807 45.5513C48.4386 45.5513 48.4156 45.5513 48.4117 45.5513H48.3427C48.3005 45.5513 48.2775 45.5513 48.2737 45.5513C48.2545 45.559 48.2392 45.5704 48.2277 45.5895C48.2162 45.6048 48.2085 45.6277 48.2085 45.6545V46.422C48.2085 46.445 48.2123 46.4679 48.2238 46.487C48.2354 46.5022 48.2469 46.5175 48.2622 46.5252C48.2699 46.5252 48.2929 46.5252 48.335 46.529C48.3772 46.529 48.404 46.529 48.4117 46.529C48.4156 46.529 48.4386 46.529 48.4846 46.529C48.5267 46.529 48.5536 46.529 48.5574 46.5213C48.5766 46.5137 48.5919 46.5022 48.5996 46.4831C48.6111 46.4641 48.6149 46.4411 48.6149 46.4182V45.6545L48.6111 45.6583Z" fill="#004898"/>
<path id="Vector_8" d="M50.9422 48.0179V48.4418H50.4131V48.0179H49.5581V47.5444L50.2137 45.0889H50.9422V47.5177H51.3064V48.0179H50.9422ZM50.4131 46.0283L50.045 47.5138H50.4131V46.0283Z" fill="#004898"/>
<path id="Vector_9" d="M52.3531 48.4418H51.7703L52.5678 45.5548H51.709V45.0889H53.1544V45.5662L52.3569 48.4456L52.3531 48.4418Z" fill="#004898"/>
</g>
<path id="Vector_10" d="M45.9733 30.8179L48.2392 20.3313H44.5509L42.8064 29.3553V20.3313H38.8804V35.3661C41.2115 34.5565 43.7419 33.6324 46.3184 32.6013L45.9733 30.8179ZM52.2112 29.9281C52.2112 29.0879 52.7557 28.3776 53.511 28.1218V20.3008H49.5734V31.2532C50.4591 30.8752 51.3409 30.4818 52.2189 30.0808C52.2189 30.0274 52.2112 29.9777 52.2112 29.9281ZM68.5288 22.9511C68.13 21.855 64.3727 22.0231 58.7137 23.2527V20.3008H54.7493V28.1218C55.0101 28.2096 55.2439 28.3509 55.4395 28.538C56.2561 28.1256 57.0574 27.7093 57.8434 27.2778C58.5412 26.9036 58.7137 26.2544 58.7137 25.8954V23.7645C62.981 22.8556 65.8028 22.6685 66.0788 23.3864C66.3281 24.0432 64.4264 25.4104 61.133 27.1251C59.6799 27.8812 57.9507 28.7099 56.0146 29.5691C56.0376 29.6837 56.0491 29.8059 56.0491 29.9281C56.0491 30.7682 55.5047 31.4785 54.7493 31.7344V39.7845C54.7493 40.2504 54.5615 40.5674 54.1129 40.5674C53.6643 40.5674 53.5071 40.2504 53.5071 39.7845V31.7344C53.1276 31.6046 52.8055 31.364 52.5755 31.047C49.884 32.1659 46.9241 33.3192 43.8263 34.4381C41.3533 35.3317 38.9456 36.1452 36.6758 36.8707C36.6605 36.8746 36.6452 36.8822 36.626 36.886C35.2534 37.3214 33.9307 37.7223 32.6731 38.089V39.7272C32.6731 40.8462 32.2974 40.8462 31.5459 40.8462V23.0427C32.2974 23.0427 32.6731 23.0427 32.6731 24.1616V37.4016C33.8578 37.035 35.1882 36.6111 36.626 36.1337V23.8714C36.626 20.2588 33.2521 20.3581 33.2521 20.3581H27.6007V34.2854C21.4241 37.3405 17.709 40.0022 18.1537 41.2166C18.5448 42.2859 22.1526 42.1866 27.6007 41.0638V43.5766H33.2789C33.2789 43.5766 36.6298 43.7141 36.6298 39.9335V38.7458C37.3659 38.5243 38.1174 38.2914 38.8765 38.0508V43.5652H42.8026V36.7447C42.9598 36.6913 43.117 36.634 43.2742 36.5805L44.386 43.5652H48.4347L46.8321 35.2821C47.7676 34.9308 48.6801 34.5718 49.5734 34.2166V40.09C49.5734 43.1413 52.1614 43.6988 54.1474 43.6988C56.1334 43.6988 58.7099 43.1336 58.7099 40.0557V30.161C65.1127 26.9876 68.9774 24.1922 68.5249 22.9511H68.5288ZM27.6007 39.437C23.3488 40.4414 20.573 40.7125 20.3199 39.9907C20.0401 39.1888 22.9002 37.2068 27.6007 34.8391V39.437Z" fill="#004898"/>
<g id="Group_2">
<g id="Group_3">
<path id="Vector_11" d="M7.38782 26.5069L8.05877 24.628C8.16612 24.3264 8.35399 24.0858 8.62237 23.9101C8.89075 23.7306 9.21664 23.7115 9.59621 23.849L13.0545 25.0749C13.4072 25.1971 13.6411 25.4109 13.7561 25.7011C13.8711 25.9952 13.8711 26.3045 13.7561 26.6329L13.0813 28.5233L7.39165 26.5031L7.38782 26.5069ZM9.09779 24.9526C9.02877 24.9259 8.95593 24.9297 8.88308 24.9526C8.81024 24.9794 8.75273 25.029 8.71439 25.0939C8.70672 25.1016 8.67221 25.1894 8.6147 25.3613C8.55719 25.5331 8.52652 25.6248 8.52268 25.6324L12.7554 27.1332C12.7554 27.1332 12.7899 27.0377 12.8513 26.8697C12.9126 26.7017 12.9395 26.61 12.9395 26.6024C12.951 26.5222 12.9395 26.4496 12.9011 26.3847C12.8666 26.3198 12.8091 26.2702 12.7363 26.2434L9.09779 24.9526Z" fill="#004898"/>
<path id="Vector_12" d="M15.3089 23.5742L14.6264 24.5556L10.317 20.1716L11.1682 18.9419L16.8118 21.405L16.1294 22.3865L12.211 20.5649L15.3089 23.5703V23.5742ZM14.0475 22.5163L13.3612 22.0428L14.0782 21.0117L14.7645 21.4814L14.0475 22.5163Z" fill="#004898"/>
<path id="Vector_13" d="M19.3001 18.9991L15.9185 17.273L18.3339 19.8851L17.594 20.5648L13.4954 16.1311L14.5038 15.207L17.8509 17.0859L15.3779 14.4088L16.1141 13.7329L20.2126 18.1666L19.3039 18.9991H19.3001Z" fill="#004898"/>
<path id="Vector_14" d="M22.9884 16.2914L21.0254 14.8708L22.2408 16.7687L21.2324 17.4103L17.9735 12.3351L18.9819 11.6935L20.0707 13.3891L19.7678 11.1932L20.7838 10.5479L21.2248 13.5265L24.1654 15.5505L22.9884 16.299V16.2914Z" fill="#004898"/>
<path id="Vector_15" d="M23.253 10.5288C23.1226 10.2386 23.1188 9.94455 23.2491 9.64668C23.3795 9.34881 23.6019 9.11586 23.9278 8.94783C23.9431 8.94019 23.9968 8.91346 24.0926 8.87527C24.1846 8.83327 24.2383 8.81035 24.2498 8.80653C24.2613 8.7989 24.3112 8.77598 24.4032 8.73779C24.4913 8.69961 24.5412 8.67669 24.5565 8.66906C24.8978 8.53158 25.2275 8.51248 25.5419 8.61177C25.8563 8.71106 26.0786 8.90582 26.209 9.19606L27.7886 12.6788C27.9305 12.9882 27.9305 13.2784 27.7886 13.5457C27.6506 13.813 27.4052 14.0307 27.064 14.1949C27.0486 14.2026 26.995 14.2255 26.9068 14.2637C26.8186 14.3018 26.7688 14.3248 26.7534 14.3324C26.7381 14.34 26.6844 14.363 26.6001 14.4011C26.5119 14.4393 26.462 14.4622 26.4467 14.4699C26.1093 14.6035 25.7872 14.6265 25.4805 14.5386C25.1738 14.4508 24.9591 14.2751 24.8402 14.0078L23.2606 10.525L23.253 10.5288ZM25.0703 9.54739C25.0511 9.50156 25.0243 9.47483 24.9898 9.45574C24.9553 9.44046 24.9169 9.43664 24.8709 9.45574C24.8632 9.45574 24.8172 9.47101 24.7291 9.50538C24.6409 9.54357 24.5949 9.56266 24.5872 9.56648C24.5795 9.56648 24.5297 9.59322 24.4453 9.6314C24.3572 9.66959 24.3112 9.69251 24.3073 9.70396C24.2728 9.72688 24.2498 9.75743 24.2421 9.79561C24.2345 9.8338 24.2383 9.87199 24.2536 9.91018L25.9214 13.5915C25.9368 13.6259 25.9636 13.6526 25.9981 13.6717C26.0326 13.6908 26.071 13.6985 26.1093 13.6908C26.1208 13.6908 26.1706 13.6756 26.2627 13.6412C26.3547 13.6068 26.4045 13.5877 26.4122 13.5839C26.4199 13.5839 26.4659 13.5572 26.554 13.5113C26.6384 13.4655 26.6844 13.4388 26.6882 13.435C26.7227 13.4082 26.7419 13.3739 26.7496 13.3357C26.7611 13.2937 26.7572 13.2593 26.7419 13.2249L25.078 9.55121L25.0703 9.54739Z" fill="#004898"/>
<path id="Vector_16" d="M28.0915 8.49705C27.9994 8.19154 28.0339 7.90131 28.1988 7.62253C28.3637 7.34376 28.6167 7.14136 28.9579 7.01534C28.9733 7.01152 29.0308 6.99242 29.1305 6.96187C29.2263 6.93132 29.2838 6.91605 29.2953 6.91223C29.3068 6.91223 29.3605 6.89313 29.4564 6.86258C29.5484 6.83585 29.602 6.81676 29.6174 6.81294C29.9739 6.72128 30.2998 6.74038 30.5989 6.88168C30.8979 7.01915 31.0935 7.24065 31.1893 7.54615L32.3165 11.2008C32.4162 11.5254 32.3817 11.8118 32.2053 12.06C32.0328 12.3083 31.7644 12.4916 31.404 12.6138C31.3849 12.6176 31.3312 12.6367 31.2392 12.6634C31.1472 12.6901 31.0935 12.7092 31.0781 12.7131C31.0628 12.7169 31.0053 12.736 30.9171 12.7627C30.8251 12.7894 30.7714 12.8085 30.7561 12.8123C30.4034 12.904 30.0813 12.8849 29.7899 12.7627C29.4985 12.6367 29.3068 12.4381 29.2225 12.1555L28.0953 8.50087L28.0915 8.49705ZM30.02 7.74855C30.0046 7.70273 29.9816 7.67218 29.9509 7.64926C29.9203 7.63017 29.8819 7.62253 29.8359 7.63017C29.8283 7.62635 29.7822 7.63781 29.6902 7.66072C29.5982 7.68745 29.5484 7.69891 29.5407 7.70273C29.533 7.70273 29.4832 7.72182 29.3912 7.74855C29.2992 7.77529 29.2532 7.79438 29.2455 7.80202C29.2071 7.82111 29.1841 7.84402 29.1688 7.88221C29.1535 7.9204 29.1535 7.95859 29.1688 8.0006L30.3612 11.8614C30.3727 11.8958 30.3957 11.9264 30.4264 11.9493C30.4609 11.9722 30.4954 11.9837 30.5337 11.9837C30.5452 11.9837 30.5951 11.976 30.6909 11.9531C30.7868 11.9302 30.8366 11.9187 30.8481 11.9149C30.8558 11.9149 30.9056 11.892 30.9976 11.8576C31.0896 11.8233 31.1357 11.8042 31.1395 11.7965C31.174 11.7736 31.2008 11.7431 31.2162 11.7049C31.2315 11.6667 31.2315 11.6323 31.22 11.5941L30.0315 7.74092L30.02 7.74855Z" fill="#004898"/>
<path id="Vector_17" d="M36.0547 11.5027L34.778 9.44821L35.1844 11.6631L34.0035 11.877L32.9147 5.95014L34.0955 5.73629L34.4598 7.71445L35.0157 5.56826L36.2004 5.35059L35.4758 8.27582L37.4273 11.2545L36.0547 11.5066V11.5027Z" fill="#004898"/>
<path id="Vector_18" d="M42.3962 4.85779L42.4652 9.92539C42.4652 9.9674 42.4805 10.0056 42.5074 10.0323C42.5342 10.0591 42.5725 10.0781 42.6185 10.0896C42.6262 10.0934 42.6799 10.0972 42.7719 10.0934C42.8639 10.0934 42.9138 10.0934 42.9176 10.0934C42.9253 10.0934 42.9789 10.0934 43.0748 10.0934C43.1706 10.0934 43.2205 10.0896 43.2243 10.082C43.2627 10.0705 43.2972 10.0514 43.324 10.0209C43.3508 9.99031 43.3662 9.95594 43.3623 9.91394L43.2933 4.84633L44.4895 4.83105L44.5585 9.81846C44.5585 10.1507 44.4435 10.4142 44.2058 10.609C43.9643 10.7999 43.6499 10.903 43.2588 10.9221C43.2435 10.9221 43.1898 10.9221 43.0901 10.9221C42.9943 10.9221 42.9368 10.9221 42.9214 10.9221C42.9138 10.9221 42.8601 10.9221 42.7604 10.9221C42.6645 10.9221 42.6109 10.9221 42.5994 10.9221C42.2428 10.9183 41.9284 10.8305 41.66 10.6624C41.3917 10.4944 41.2575 10.2309 41.2498 9.86047L41.1808 4.86542L42.3847 4.85015L42.3962 4.85779Z" fill="#004898"/>
<path id="Vector_19" d="M48.3389 11.1243L47.3689 7.46203L47.0276 10.9983L46.0231 10.9028L46.5982 4.90723L47.9593 5.03707L48.7913 8.7719L49.1402 5.15163L50.137 5.2471L49.5619 11.2465L48.335 11.1319L48.3389 11.1243Z" fill="#004898"/>
<path id="Vector_20" d="M51.061 11.4951L52.1806 5.5835L53.3576 5.80499L52.2381 11.7166L51.061 11.4951Z" fill="#004898"/>
<path id="Vector_21" d="M56.2292 12.7436L54.5998 12.2739L55.3321 6.21338L56.4516 6.53416L55.9877 10.5478L57.736 6.90459L58.867 7.22919L56.2292 12.7398V12.7436Z" fill="#004898"/>
<path id="Vector_22" d="M58.4261 13.473L60.7994 7.93945L63.4027 9.04692L63.0998 9.7534L61.5969 9.11184L60.9566 10.6088L62.3598 11.2046L62.0723 11.8729L60.669 11.2771L59.8294 13.2362L61.3438 13.8816L61.0409 14.5881L58.4223 13.473H58.4261Z" fill="#004898"/>
<path id="Vector_23" d="M64.0238 16.2534C64.0698 16.1618 64.1273 16.0625 64.1963 15.9556C64.2692 15.8486 64.3919 15.6501 64.5644 15.3598L64.6602 15.2033L64.7561 15.0467C64.8634 14.8634 64.9938 14.6495 65.1395 14.4013C65.2852 14.1531 65.358 14.0271 65.3619 14.0232C65.404 13.9545 65.4117 13.8781 65.3849 13.7979C65.3619 13.7177 65.312 13.649 65.2353 13.5993C65.2315 13.5993 65.1548 13.5497 65.0015 13.4619C64.8481 13.3702 64.7676 13.3244 64.7599 13.3206L63.2723 15.8105L62.241 15.1994L65.335 10.0249L67.0373 11.0331C67.3249 11.2049 67.5396 11.4226 67.6738 11.6861C67.808 11.9496 67.7849 12.2398 67.5971 12.553L67.1983 13.2175C67.0987 13.3855 66.9415 13.5115 66.7306 13.5917C66.5159 13.6719 66.3012 13.691 66.0788 13.649C66.236 13.8017 66.328 13.9965 66.351 14.2333C66.3779 14.47 66.3319 14.6839 66.213 14.8825L65.6609 15.8066C65.45 16.158 65.3005 16.4024 65.2123 16.5399C65.1241 16.6773 65.0705 16.7881 65.0513 16.8759L64.0199 16.2649L64.0238 16.2534ZM66.5657 12.0031C66.6079 11.9343 66.6156 11.8579 66.5964 11.7701C66.5734 11.6823 66.5274 11.6135 66.4507 11.5639C66.4469 11.5639 66.3702 11.5143 66.2168 11.4264C66.0635 11.3348 65.983 11.2889 65.9753 11.2851L65.1356 12.6905C65.1356 12.6905 65.2238 12.7439 65.3772 12.8318C65.5306 12.9196 65.6072 12.9692 65.6111 12.9692C65.6954 13.0074 65.7798 13.0151 65.8641 12.9998C65.9485 12.9807 66.0136 12.9349 66.0558 12.8623L66.5696 12.0069L66.5657 12.0031Z" fill="#004898"/>
<path id="Vector_24" d="M68.4138 16.5435L67.6316 17.4753C67.5971 17.5134 67.5818 17.5593 67.5818 17.6051C67.5818 17.6509 67.5971 17.6929 67.6278 17.7349C67.6316 17.7426 67.67 17.7808 67.739 17.8457C67.808 17.9106 67.8463 17.945 67.854 17.9526C67.8617 17.9603 67.9077 17.9946 67.9844 18.0519C68.061 18.1092 68.1032 18.1359 68.1109 18.1359C68.1569 18.1588 68.1991 18.1665 68.2412 18.155C68.2834 18.1436 68.3218 18.1206 68.3563 18.0786L68.6553 17.7235C68.755 17.6051 68.7857 17.418 68.7435 17.1659C68.7013 16.9139 68.6783 16.7039 68.6668 16.5435C68.6323 15.7988 68.6131 15.2909 68.617 15.0236C68.617 14.7562 68.6936 14.5348 68.8393 14.3629L69.2649 13.8626C69.472 13.6144 69.7442 13.4846 70.0777 13.4769C70.4113 13.4693 70.7257 13.58 71.0209 13.813C71.0286 13.8206 71.0707 13.855 71.1436 13.9161C71.2126 13.9772 71.2548 14.0078 71.2624 14.0154C71.2701 14.0192 71.3084 14.0536 71.3813 14.1147C71.4541 14.1758 71.4925 14.2063 71.4925 14.2063C71.7532 14.4316 71.9066 14.699 71.9487 15.0006C71.9909 15.3062 71.918 15.5658 71.7302 15.7912L70.9979 16.658L70.1544 15.9515L70.8982 15.0694C70.925 15.035 70.9442 14.9968 70.9557 14.951C70.9672 14.9052 70.9634 14.867 70.9442 14.8364C70.9442 14.8288 70.9059 14.7944 70.833 14.7295C70.7602 14.6646 70.718 14.6302 70.7142 14.6226C70.7027 14.6149 70.6643 14.5806 70.5915 14.5195C70.5225 14.4584 70.4803 14.4278 70.4688 14.4278C70.419 14.4164 70.3768 14.4125 70.3346 14.4202C70.2963 14.4278 70.2464 14.466 70.1927 14.5309L69.8323 14.9663C69.7365 15.0885 69.6982 15.2336 69.7135 15.4054C69.7288 15.5735 69.7442 15.7453 69.7557 15.9134C69.7978 16.6351 69.8362 17.1774 69.8745 17.5364C69.9129 17.8953 69.8477 18.1779 69.6752 18.3803L69.3454 18.7737C69.1307 19.0257 68.8547 19.1594 68.5173 19.1708C68.1799 19.1823 67.8578 19.0677 67.5549 18.831C67.5434 18.8233 67.5051 18.7889 67.4323 18.7278C67.3594 18.6706 67.3211 18.6362 67.3134 18.6286C67.3019 18.6209 67.2597 18.5865 67.1907 18.5254C67.1217 18.4643 67.0795 18.4338 67.068 18.4223C66.7958 18.1817 66.6348 17.903 66.5849 17.5936C66.5351 17.2843 66.6041 17.0094 66.7996 16.7764L67.5895 15.8446L68.4214 16.5396L68.4138 16.5435Z" fill="#004898"/>
<path id="Vector_25" d="M69.5103 20.6524L74.0497 16.6846L74.8395 17.582L70.3001 21.5498L69.5103 20.6524Z" fill="#004898"/>
<path id="Vector_26" d="M76.7259 21.5844L72.2401 24.3263L71.6113 23.3067L76.0971 20.5647L75.6294 19.8086L76.2927 19.4038L77.8531 21.9357L77.1898 22.3405L76.7221 21.5844H76.7259Z" fill="#004898"/>
<path id="Vector_27" d="M77.3853 27.7174L75.9323 27.6677L73.8581 28.2826L73.513 27.1293L75.5489 26.5259C75.6332 26.4954 75.8057 26.3961 76.0626 26.2319C76.3195 26.0676 76.561 25.9111 76.7911 25.7621C76.9866 25.6361 77.2933 25.4146 77.7112 25.0938C78.1291 24.7692 78.5432 24.4828 78.9573 24.2231L79.2832 25.3153L77.2205 26.7474L79.7586 26.9002L80.0653 27.9274L77.3853 27.7174Z" fill="#004898"/>
</g>
<path id="Vector_28" d="M73.5552 47.2694L70.7985 43.8592C70.3576 43.3131 69.9052 43.2329 69.2994 43.7179L64.8673 47.2694L65.4117 47.9416L69.6176 44.5733L72.4893 48.1249L71.7954 48.6824L69.5448 45.8947L68.5326 46.7043L70.7832 49.492L69.9934 50.1221L67.739 47.3344L66.6923 48.1745L68.9467 50.9623L68.0687 51.6649L68.6285 52.3561L74.4753 47.6704L73.9156 46.9792L73.5552 47.2694Z" fill="#004898"/>
<path id="Vector_29" fill-rule="evenodd" clip-rule="evenodd" d="M44.7733 53.0058H46.0884V59.536H44.7733V56.2709H44.1598V59.536H42.9176V58.8028L39.8811 58.9059C39.3443 58.9173 38.9494 58.524 38.9379 58.0161V53.002H42.147V53.9147H40.3067V58.0161L42.8985 57.9283V53.002H44.1598V55.3009H44.7733V53.002V53.0058Z" fill="#004898"/>
<path id="Vector_30" fill-rule="evenodd" clip-rule="evenodd" d="M27.0908 49.9735L26.8186 50.8442L32.167 52.4977L31.7185 53.9489L26.1323 52.2189L25.8793 53.0209L28.6359 53.8725L28.3215 54.8807L25.7297 54.0787L25.4767 54.8921L30.944 56.5839L30.5069 57.9816L31.8718 58.4016L32.3587 56.8436C32.4661 56.4999 32.3587 56.1256 31.9217 55.992L29.8091 55.3351L30.1235 54.3269L33.206 55.2817L33.4553 54.4797L33.0335 54.3499L33.4361 53.0744C33.6585 52.3564 33.3057 51.8905 32.7881 51.7301L27.0908 49.9658V49.9735Z" fill="#004898"/>
<path id="Vector_31" fill-rule="evenodd" clip-rule="evenodd" d="M59.5841 51.9781L59.147 50.4238L57.8166 50.7943L58.8939 54.636L60.2243 54.2656L59.8218 52.8297L60.7918 52.5624L60.5502 51.707L59.5802 51.9781H59.5841ZM59.5457 54.8079L53.7065 56.4309L53.9442 57.2825L59.262 55.8046L59.6186 57.0763L60.9566 56.702L60.5771 55.3578C60.4544 54.9224 60.1208 54.6475 59.5419 54.804L59.5457 54.8079ZM52.8477 54.6131C53.0931 55.4953 54.4196 55.9001 55.8076 55.5143C57.1955 55.1286 58.1195 54.1014 57.8741 53.2192C57.7284 52.6884 57.1916 52.3371 56.4938 52.2149L57.5789 51.9132L57.345 51.1036L55.5967 51.5886L55.4702 51.138L54.0209 51.5466L54.1436 51.9896L52.2573 52.5166L52.495 53.3262L53.511 53.0436C52.9742 53.5095 52.702 54.0861 52.8477 54.6131ZM55.1059 53.0015C55.7615 52.8182 56.398 53.0627 56.5322 53.5438C56.6664 54.0212 56.2446 54.5596 55.589 54.7391C54.9334 54.9224 54.297 54.678 54.1628 54.2007C54.0286 53.7195 54.4465 53.1849 55.1021 53.0015H55.1059Z" fill="#004898"/>
<path id="Vector_32" d="M16.8962 50.3055L14.5575 48.2662L15.4853 47.2122L14.3964 46.2614L13.4878 47.2963C13.0354 47.8118 13.1082 48.1822 13.4034 48.4419L17.9851 52.4364L18.5717 51.7681L16.9039 50.3131L16.8962 50.3055ZM20.9066 49.0988L22.2983 47.5139L21.267 46.6127L19.58 48.5297L16.1524 45.784L17.3563 44.413L19.7564 46.5096L20.3583 45.8222L16.9307 42.832L15.0521 44.9668C14.7798 45.2761 14.7377 45.7344 15.1134 46.059L18.9934 49.1942L18.1538 50.1489L19.1851 51.0502L20.3046 49.7785L21.0945 50.4697L21.7002 49.7823L20.9104 49.0949L20.9066 49.0988Z" fill="#004898"/>
<path id="Vector_33" d="M0.839355 32.0019C0.839355 49.645 19.9059 64 43.3394 64C66.7728 64 85.8394 49.645 85.8394 32.0019C85.8394 14.3589 66.7767 0 43.3394 0C19.9021 0 0.839355 14.355 0.839355 32.0019ZM1.34161 32.0019C1.34161 14.63 20.1819 0.500269 43.3394 0.500269C66.4968 0.500269 85.3371 14.63 85.3371 32.0019C85.3371 49.3738 66.4968 63.5035 43.3394 63.5035C20.1819 63.5035 1.34161 49.37 1.34161 32.0019Z" fill="#004898"/>
<path id="Vector_34" d="M2.34613 32.0021C2.34613 48.8203 20.7379 62.4994 43.3394 62.4994C65.9409 62.4994 84.3326 48.8165 84.3326 32.0021C84.3326 15.1877 65.9447 1.50098 43.3394 1.50098C20.734 1.50098 2.34613 15.1839 2.34613 32.0021ZM3.39281 32.0021C3.39281 15.7567 21.313 2.54352 43.3394 2.54352C65.3658 2.54352 83.2898 15.7605 83.2898 32.0021C83.2898 48.2436 65.3696 61.4606 43.3394 61.4606C21.3091 61.4606 3.39281 48.2436 3.39281 32.0021Z" fill="#004898"/>
<path id="Vector_35" d="M2.34613 32.0021C2.34613 48.8203 20.7379 62.4994 43.3394 62.4994C65.9409 62.4994 84.3326 48.8165 84.3326 32.0021C84.3326 15.1877 65.9447 1.50098 43.3394 1.50098C20.734 1.50098 2.34613 15.1839 2.34613 32.0021ZM3.39281 32.0021C3.39281 15.7567 21.313 2.54352 43.3394 2.54352C65.3658 2.54352 83.2898 15.7605 83.2898 32.0021C83.2898 48.2436 65.3696 61.4606 43.3394 61.4606C21.3091 61.4606 3.39281 48.2436 3.39281 32.0021Z" fill="#004898"/>
<path id="Vector_36" d="M78.6238 37.8409C78.6238 38.3832 78.1829 38.8224 77.6423 38.8224C77.1017 38.8224 76.6608 38.3832 76.6608 37.8409C76.6608 37.2986 77.1017 36.8633 77.6423 36.8633C78.1829 36.8633 78.6238 37.3024 78.6238 37.8409Z" fill="#004898"/>
<path id="Vector_37" d="M8.05878 37.8409C8.05878 38.3832 8.49969 38.8224 9.04028 38.8224C9.58088 38.8224 10.0218 38.3832 10.0218 37.8409C10.0218 37.2986 9.58088 36.8633 9.04028 36.8633C8.49969 36.8633 8.05878 37.3024 8.05878 37.8409Z" fill="#004898"/>
</g>
</g>
<defs>
<clipPath id="clip0_289_1875">
<rect width="85" height="64" fill="white" transform="translate(0.839355)"/>
</clipPath>
</defs>
</svg>
