<svg width="65" height="64" viewBox="0 0 65 64" fill="none" xmlns="http://www.w3.org/2000/svg">
<g id="&#237;&#149;&#156;&#234;&#181;&#173;&#237;&#149;&#173;&#234;&#179;&#181;&#235;&#140;&#128;&#237;&#149;&#153;&#234;&#181;&#144;" clip-path="url(#clip0_289_1968)">
<g id="Group">
<g id="Group_2">
<g id="Group_3">
<path id="Vector" d="M18.2674 29.2483V28.7744H17.5193V29.2483H16.5438V29.8696H19.2671V29.2483H18.2674Z" fill="#002870"/>
<path id="Vector_2" d="M16.1707 29.8696V29.2465H15.1258V28.7744H14.3777V29.2465H13.3329V31.8691H13.0812V32.4923H13.3329V35.2242H14.0809V32.4923H14.3777V35.2242H15.1258V32.4923H15.4226V35.2242H16.1707V32.4923H16.4224V31.8691H16.1707V29.8696ZM14.0827 31.8709V29.8714H14.3795V31.8709H14.0827ZM15.1258 31.8709V29.8714H15.4226V31.8709H15.1258Z" fill="#002870"/>
<path id="Vector_3" d="M18.4947 30.583H17.2919H16.5994H16.5438V35.226H17.2919V31.2061H18.4947V35.226H19.2411V30.583H19.0311H18.4947Z" fill="#002870"/>
</g>
<path id="Vector_4" d="M50.2041 29.2483V28.7744H49.456V29.2483H47.0642V35.226H47.8106V29.8696H48.6576V35.226H49.4056V29.8696H50.2527V35.226H51.0007V29.8696H51.8478V35.226H52.5958V29.2483H50.2041Z" fill="#002870"/>
</g>
<g id="Group_4">
<path id="Vector_5" d="M10.521 32.0009C10.521 44.3052 20.5342 54.3166 32.8402 54.3166C45.1462 54.3166 55.156 44.3052 55.156 32.0009C55.156 19.6966 45.1445 9.6834 32.8402 9.6834C20.5359 9.6834 10.521 19.6966 10.521 32.0009ZM0.839355 32.0009C0.839355 14.3298 15.1657 0 32.8402 0C50.5147 0 64.8394 14.3298 64.8394 32.0009C64.8394 49.6719 50.513 63.9983 32.8402 63.9983C15.1675 63.9983 0.839355 49.6754 0.839355 32.0009Z" fill="#002870"/>
<g id="Group_5">
<g id="Group_6">
<path id="Vector_6" d="M25.6233 23.3414C25.6805 23.4091 26.5345 24.7994 27.2166 26.2522C27.8988 27.7049 27.8779 27.9497 28.2476 28.854C28.6173 29.76 28.9488 32.0285 28.9488 32.0285C29.2821 32.157 29.7143 33.2331 29.7143 33.2331C29.7143 32.8443 29.4817 31.1277 29.1675 29.9197C28.8569 28.7082 28.0168 26.7989 27.8259 26.3528C27.6349 25.9068 26.8261 24.4835 26.2984 23.6504C25.7708 22.8242 25.3473 22.4302 25.3473 22.4302L25.4705 23.0793C25.4705 23.0793 25.5677 23.2702 25.6233 23.3414Z" fill="#002870"/>
<path id="Vector_7" d="M24.2798 22.3333C24.771 22.9685 26.045 25.2041 26.045 25.2041C26.5067 25.9383 27.1524 27.7556 27.4197 28.5522C27.7755 29.6075 28.0063 30.9753 28.0063 30.9753C28.3656 31.3536 28.7631 32.6589 28.7631 32.6589C28.7752 31.9785 28.6069 31.1297 28.3778 30.1196C28.1486 29.1059 27.6193 27.8389 27.2687 26.9606C26.918 26.0841 25.8558 24.2043 25.7031 23.9058C25.5503 23.6055 24.4742 21.948 23.9257 21.2745C23.3807 20.5993 23.0492 20.3164 23.0492 20.3164L23.4224 21.16C23.4224 21.16 23.7903 21.698 24.2798 22.335V22.3333Z" fill="#002870"/>
<path id="Vector_8" d="M21.947 20.9777C22.3428 21.5435 23.3998 23.1421 23.7869 23.76C24.1757 24.3779 25.1963 26.0268 25.2917 26.2021C25.3872 26.3687 26.0242 27.6896 26.314 28.4029C26.6091 29.1163 26.9406 30.5101 26.9406 30.5101C27.2912 30.6941 27.68 31.9715 27.68 31.9715C27.7703 31.8691 27.7807 31.0134 27.7807 31.0134C27.6609 29.9789 27.1454 28.5435 26.6907 27.2487C26.2394 25.9591 25.3299 24.5306 25.0244 23.9405C24.7189 23.3452 23.7227 22.0417 22.7055 20.7347C21.6867 19.4294 20.7078 18.723 20.7078 18.7508C20.7078 18.7751 21.4611 20.2851 21.4611 20.2851C21.4611 20.2851 21.553 20.4084 21.947 20.9777Z" fill="#002870"/>
<path id="Vector_9" d="M26.8886 33.8286C26.8695 33.6914 26.5623 32.7854 26.2655 31.9783C25.9635 31.166 25.2918 30.2027 25.297 30.227C25.3022 30.2496 25.1876 31.6659 25.1876 31.6659C25.3022 31.9349 25.7986 33.1829 25.7986 33.1829C26.5623 33.4484 26.8886 33.8286 26.8886 33.8286Z" fill="#002870"/>
<path id="Vector_10" d="M24.1062 30.0344C24.1062 30.0344 24.1635 32.06 24.1826 32.0843C24.2034 32.1103 24.62 32.5616 24.7241 32.6762C24.8248 32.7907 25.5191 33.176 25.5191 33.176C25.4566 32.8185 25.0678 31.9611 24.9393 31.6695C24.8109 31.3761 24.1062 30.0327 24.1062 30.0327V30.0344Z" fill="#002870"/>
<path id="Vector_11" d="M20.3416 25.6622C20.3416 25.6622 20.5898 25.9173 20.6332 25.9555C20.6783 25.992 21.6711 27.0299 21.8863 27.3267C22.1033 27.6287 22.8115 28.7118 22.9347 29.0312C23.0562 29.3384 23.5127 30.1541 23.9154 31.4698L23.8442 29.7792C23.8442 29.7792 23.0683 28.0783 22.8253 27.6652C22.5824 27.2486 21.2198 24.9887 21.0359 24.7596C21.0359 24.7596 18.8419 21.7517 18.4514 21.5312C18.4514 21.5312 19.4373 23.3346 19.5032 23.4353C19.5675 23.5394 20.234 25.197 20.3416 25.6622Z" fill="#002870"/>
<path id="Vector_12" d="M20.404 23.3918C20.4752 23.4838 21.7995 25.4173 22.525 26.615C23.2505 27.8143 24.0472 29.5726 24.0472 29.5726C24.3215 29.5726 24.9984 31.2163 24.9984 31.2163L25.1234 30.0863C25.0522 29.8676 24.3926 27.9063 24.0924 27.2363C23.7956 26.5681 22.7732 24.8046 22.6604 24.5686C22.5459 24.3325 21.2215 22.3591 21.1139 22.2254C21.0046 22.09 19.3817 19.9621 19.2151 19.7798C19.0519 19.5958 18.2795 18.8096 18.2795 18.8096C18.2795 18.8096 19.012 20.4741 19.0936 20.6563C19.1769 20.8421 20.3346 23.2998 20.404 23.39V23.3918Z" fill="#002870"/>
<path id="Vector_13" d="M19.2845 19.3808C19.3227 19.4832 19.3678 19.5839 19.3678 19.5839C19.3678 19.5839 19.7705 20.023 19.793 20.0629C19.8173 20.1011 20.4335 20.8509 20.5186 20.9672C20.6071 21.0818 21.8377 22.7862 21.8759 22.8418C21.9141 22.8886 23.1325 24.8534 23.1551 24.8968C23.1828 24.9419 24.1757 26.7887 24.3093 27.1063C24.4429 27.4222 24.8456 28.0991 25.4115 29.8991C25.4115 29.8991 25.6527 30.1664 25.9304 30.6506C26.1995 31.1279 26.5102 31.8673 26.5102 31.8673C26.5102 31.8673 26.7045 30.8103 26.7115 30.7461C26.7184 30.6819 26.6768 30.4232 26.6282 30.2184C26.5761 30.0119 25.9408 27.9134 25.3021 26.7679C24.6651 25.6223 23.5768 23.8606 23.3234 23.5031C23.07 23.1472 22.0373 21.6216 22.0043 21.5626C21.9713 21.5053 21.4055 20.6774 21.3083 20.5506C21.2146 20.4205 19.0241 17.9523 18.7343 17.7805C18.7343 17.7805 18.6718 17.7302 18.7308 17.8742C18.7863 18.0218 19.2428 19.2767 19.2828 19.3808H19.2845Z" fill="#002870"/>
<path id="Vector_14" d="M37.8286 39.3705C41.7183 39.0147 42.0272 37.2495 42.0272 37.2495C42.0272 37.2495 41.1039 37.8796 39.7483 38.2423C38.3563 38.6155 36.8584 38.4923 36.8584 38.4923C36.7334 38.5374 36.5911 38.5981 36.5911 38.5981C36.5911 38.5981 36.7299 39.0685 36.7612 39.2594C36.7907 39.2716 37.2281 39.4261 37.8269 39.3705H37.8286Z" fill="#002870"/>
<path id="Vector_15" d="M42.6886 36.052L42.2703 36.2707C42.2703 36.2707 41.5829 36.6127 41.2063 36.7828C40.8453 36.9442 39.1009 37.6176 38.0456 37.4736C38.0456 37.4736 37.8391 37.8745 36.9781 37.6697C36.9781 37.6697 37.0701 38.0394 36.9781 38.2425C36.9781 38.2425 37.2784 38.2702 37.6967 38.2702C38.115 38.2702 38.634 38.2425 39.1113 38.1401C40.0711 37.9318 42.0932 37.3278 42.6903 36.0503L42.6886 36.052Z" fill="#002870"/>
<path id="Vector_16" d="M43.3307 33.877C43.3307 33.877 42.5913 34.3213 42.0567 34.4914C41.5221 34.6615 40.6473 34.8732 40.3071 34.9427C39.7413 35.059 38.6461 35.0694 38.4152 35.019C38.4152 35.019 38.325 35.2186 37.9969 35.2551C37.9969 35.2551 38.2903 35.5137 38.3371 35.9094C38.3371 35.9094 39.4046 36.0414 41.0552 35.5467C41.6106 35.3818 42.7319 34.868 43.0027 34.5452C43.1762 34.3404 43.3325 33.877 43.3325 33.877H43.3307Z" fill="#002870"/>
<path id="Vector_17" d="M37.0979 25.7698C37.1465 25.7403 37.7193 25.2872 37.8685 25.1484C38.0161 25.0078 38.4361 24.586 38.5889 24.2562C38.7399 23.9282 38.5802 23.7407 38.509 23.6731C38.4379 23.6036 38.3441 23.5967 38.3441 23.5967C38.3181 23.6765 37.5596 24.2562 37.5596 24.2562C37.5596 24.2562 37.537 24.3014 37.537 24.3222C37.537 24.343 37.4346 24.7561 37.3999 24.888C37.3652 25.0165 37.0996 25.768 37.0996 25.768L37.0979 25.7698Z" fill="#002870"/>
<path id="Vector_18" d="M44.0423 32.6238C43.8705 32.681 43.6431 32.8355 43.6101 32.8546C43.6101 32.8546 42.7145 33.351 42.3639 33.4916C42.0133 33.6305 41.0205 33.9759 40.6577 34.0505C40.2932 34.1251 39.1685 34.2327 38.5419 34.1442C38.5419 34.1442 38.7641 34.5434 38.5072 34.8784C38.5072 34.8784 39.5104 34.927 40.3679 34.7257C41.2288 34.533 42.291 34.3022 43.2526 33.6582C43.2526 33.6582 44.2141 32.5665 44.044 32.6238H44.0423Z" fill="#002870"/>
<path id="Vector_19" d="M44.5509 31.5601C44.5128 31.5809 44.2541 31.7076 44.1899 31.7388C42.6191 32.4661 42.1661 32.4782 41.2236 32.716C40.479 32.9035 38.9829 33.0232 38.9829 33.0232C39.021 33.6464 38.542 33.9327 38.542 33.9327C38.601 34.0542 39.9826 33.8685 40.1926 33.846C40.4026 33.8199 41.5031 33.5457 41.6367 33.5023C41.7704 33.4572 42.4074 33.2662 42.9437 32.9851C43.5616 32.6587 44.1569 32.2977 44.2403 32.23C44.3218 32.1606 44.5926 31.5427 44.5527 31.5618L44.5509 31.5601Z" fill="#002870"/>
<path id="Vector_20" d="M42.0169 30.2634C40.5467 30.6782 40.3697 30.7008 39.0766 30.8171C39.0766 30.8171 39.0714 31.192 38.7555 31.3725L38.8961 31.5304C38.8961 31.5304 39.8334 31.5513 41.1802 31.2944C41.9561 31.1468 43.3967 30.824 44.0754 30.4248C44.7575 30.0204 45.3997 29.5032 45.9499 28.4097C45.9499 28.4097 45.1949 28.5867 45.1619 28.6041C45.1619 28.6041 43.7942 29.7618 42.0169 30.2651V30.2634Z" fill="#002870"/>
<path id="Vector_21" d="M45.9013 26.1306C45.9013 26.1306 45.3927 26.7937 45.2469 26.9273C45.1011 27.0627 44.5197 27.7813 43.1641 28.5068C41.8085 29.234 40.2915 29.6385 40.2481 29.6385C40.2047 29.6385 39.9496 29.7287 39.2848 29.8884L38.7745 30.0203C38.7745 30.0203 39.1043 30.3188 39.0522 30.6278C39.0522 30.6278 40.2499 30.5827 41.805 30.0863C42.3674 29.9057 43.3307 29.4857 43.9104 29.149C44.4902 28.8105 45.8405 27.9774 46.3994 26.9898C46.96 26.0005 47.1006 25.7557 47.1492 25.511C47.2013 25.2715 45.9655 26.1046 45.9013 26.1306Z" fill="#002870"/>
<path id="Vector_22" d="M45.0352 26.7711C45.8405 25.7782 46.5591 24.6622 46.7622 24.0235C46.967 23.3743 47.3506 22.4336 47.3992 21.2446C47.3992 21.2446 46.1634 22.7338 46.1061 22.8172C46.0488 22.8987 45.509 23.9523 45.299 24.2491C45.299 24.2491 44.4711 25.445 44.0198 25.8841C43.5668 26.3233 42.8656 26.9203 42.1695 27.4462C41.2201 28.1648 39.5139 28.8209 38.7936 28.9528C38.7936 28.9528 38.9238 29.3312 38.6947 29.8363C38.6947 29.8363 40.4929 29.2947 41.5239 28.9389C42.5549 28.5814 44.2385 27.7656 45.0369 26.7711H45.0352Z" fill="#002870"/>
<path id="Vector_23" d="M45.8162 20.2174C45.4916 21.1894 45.0629 21.9288 44.8599 22.3107C44.6533 22.689 43.9538 23.6853 43.5407 24.1887C43.1276 24.6868 41.7252 25.8445 41.7252 25.8445C40.1475 27.1584 39.0644 27.6566 39.0644 27.6566C39.1356 28.4741 38.7745 28.7362 38.7745 28.7362C38.7763 28.7397 38.7815 28.7397 38.7849 28.7397C38.8804 28.7397 39.7135 28.4394 40.6803 27.9933C41.6801 27.5368 42.935 26.5457 43.2405 26.2559C43.5459 25.9643 44.5318 24.8708 44.8147 24.5098C45.0924 24.154 45.7555 22.9268 45.844 22.7428C45.9342 22.5589 46.2658 21.8004 46.6094 20.87C47.151 19.4034 47.0659 17.3813 47.0538 17.4438C47.0416 17.5063 46.2189 18.697 46.212 18.7178C46.205 18.7351 46.1408 19.242 45.8145 20.2157L45.8162 20.2174Z" fill="#002870"/>
<path id="Vector_24" d="M43.5668 20.6703C43.2353 21.2656 43.0305 21.6423 42.8343 21.946C42.6365 22.2515 41.7877 23.3988 41.1334 23.9021C40.479 24.4055 39.8542 24.8724 38.8093 25.3011V25.3081C38.8093 25.3081 39.4862 25.9017 38.6531 26.9535C38.6531 26.9535 38.8735 27.0975 38.9377 27.3145C38.9377 27.3267 38.9481 27.3319 38.9672 27.3319C39.2797 27.3319 41.9509 25.3723 42.3935 24.9765C42.8656 24.5617 44.0441 23.4578 44.7054 22.1144C45.3684 20.7692 45.7312 19.6289 45.8649 19.0492C45.9968 18.4712 46.363 16.9247 46.4376 15.5361C46.4376 15.5361 44.7887 16.9594 44.7887 16.9785C44.7887 16.9976 44.4728 18.3115 44.426 18.466C44.3826 18.617 43.8966 20.0802 43.5668 20.672V20.6703Z" fill="#002870"/>
<path id="Vector_25" d="M41.3069 21.3818C40.755 22.5464 39.7084 23.6434 39.5556 23.7961C39.4046 23.9471 38.8527 24.3394 38.8527 24.3394C38.7746 24.5911 38.2174 25.1066 38.2174 25.1066C38.2174 25.1066 38.2261 25.11 38.2417 25.11C38.3441 25.11 38.7138 25.025 38.7138 25.025C41.031 24.0703 42.0724 22.5429 42.2494 22.3017C42.4264 22.0587 42.9871 21.288 43.5616 20.1251C44.1344 18.9692 44.5023 17.204 44.5214 17.0981C44.5405 16.9887 44.8425 15.3451 44.7523 15.6783C44.6603 16.0081 44.2177 16.5496 43.8549 17.0287C43.4904 17.5042 42.265 18.8893 42.265 18.8893C42.0672 19.6287 41.8623 20.2137 41.3069 21.3783V21.3818Z" fill="#002870"/>
<path id="Vector_26" d="M40.0364 20.5976C39.9618 20.9517 39.8923 21.4117 39.54 22.0504C39.1911 22.6839 39.0609 22.8852 38.686 23.3365C38.686 23.3365 39.0054 23.4129 38.9811 23.9353C38.9811 23.9353 39.8594 23.0553 40.0329 22.8314C40.203 22.611 41.0882 21.4707 41.5204 20.2782C41.9526 19.0876 42.2199 18.0427 42.3101 17.0933C42.3101 17.0933 41.6332 17.9281 41.1854 18.4783L40.0329 19.919C40.0329 19.919 40.1041 20.2609 40.0364 20.5959V20.5976Z" fill="#002870"/>
<path id="Vector_27" d="M26.9284 24.2165L26.9354 24.2546L26.9458 24.3102C26.9458 24.3102 26.9458 24.3119 26.9493 24.3154C27.0308 24.4247 28.291 26.1431 29.131 28.9965C29.131 29 29.131 29.0017 29.1328 29.0035C29.2994 29.5711 29.4504 30.182 29.5702 30.8346C29.6795 31.4196 29.7628 32.0375 29.8149 32.6849C29.8236 32.7821 29.8305 32.881 29.8375 32.9799C29.8479 33.1518 29.8565 33.3253 29.8635 33.5006C29.8635 33.5024 29.8635 33.5041 29.8652 33.5059C30.3182 34.7903 30.1898 36.1389 30.1863 36.1493C30.3981 36.1979 30.5925 36.2326 30.773 36.2534C32.0817 36.4045 32.559 35.8785 32.5885 35.8438C32.5764 35.8542 31.3215 35.9827 30.9691 33.6517C30.8251 33.1535 30.681 32.553 30.5369 31.824C30.1481 29.8436 29.4886 28.1599 28.8342 26.8478C27.9004 24.9784 26.9753 23.8624 26.8503 23.7166C26.8503 23.7166 26.8486 23.7148 26.8469 23.7131C26.8399 23.7044 26.8347 23.6992 26.8347 23.6992V23.7027L26.9267 24.2182L26.9284 24.2165Z" fill="#002870"/>
<path id="Vector_28" d="M29.8635 33.5023V33.5005C29.7594 33.2072 29.8635 33.5023 29.8635 33.5023Z" fill="#002870"/>
<path id="Vector_29" d="M28.9331 32.2007C28.9123 32.2337 28.9349 32.9852 28.9349 32.9852C29.4226 34.405 29.341 35.7397 29.3237 35.9602C29.5285 36.0001 29.742 36.047 29.9676 36.0973C30.1013 33.4816 28.9331 32.2007 28.9331 32.2007Z" fill="#002870"/>
<path id="Vector_30" d="M29.1103 35.9185C29.1502 35.639 29.0998 34.6584 28.9245 33.7228C28.7423 32.7283 27.9352 31.3154 27.9352 31.3154C27.9352 31.3154 27.8727 32.4471 27.8797 32.4714C27.8745 32.4592 27.8502 32.4176 28.1851 33.4642C28.5236 34.5126 28.5305 35.5887 28.5288 35.8213C28.7128 35.849 28.9072 35.882 29.1103 35.9202V35.9185Z" fill="#002870"/>
<path id="Vector_31" d="M27.9734 35.7465C28.0845 35.7586 28.199 35.7725 28.3188 35.7898C28.3726 35.1806 28.239 34.5644 27.9213 33.3512C27.5968 32.1102 27.0275 30.831 26.8903 30.772C26.8504 30.9247 26.6335 32.098 26.6074 32.2178C26.9094 32.9832 27.0222 33.4849 27.1177 33.95C27.7877 34.5679 27.9456 35.526 27.9751 35.7447L27.9734 35.7465Z" fill="#002870"/>
<path id="Vector_32" d="M25.6944 35.7951C25.9738 35.7204 26.6143 35.6146 27.7789 35.7274C27.6956 35.3698 27.5394 34.9897 27.3433 34.7172C26.7219 33.8823 25.6267 33.4866 25.6249 33.4849C25.1303 33.2627 24.436 32.7836 24.1027 32.3098C23.7695 31.836 23.0752 29.9458 23.0752 29.9441C22.6604 28.8176 22.0685 27.8838 21.4437 27.1565C20.3901 25.9312 19.3383 25.2837 19.3053 25.2646C19.3383 25.3063 19.9388 26.0735 20.5446 27.1236V27.127C21.7075 28.9495 21.8689 30.3155 22.1275 31.1712C23.0596 34.2781 25.4288 35.6475 25.6944 35.7933V35.7951Z" fill="#002870"/>
<path id="Vector_33" d="M37.6046 23.8763C37.6168 23.8677 37.6324 23.8572 37.6532 23.8434C37.6671 23.8347 37.6827 23.8243 37.6984 23.8121C37.7053 23.8069 37.7105 23.8034 37.7174 23.7982C37.7244 23.793 37.7313 23.7878 37.7383 23.7826C37.7435 23.7791 37.7487 23.7757 37.7539 23.7705C37.766 23.7618 37.7782 23.7514 37.7921 23.7427C37.7973 23.7392 37.8025 23.7357 37.806 23.7323C37.8285 23.7149 37.8511 23.6976 37.8754 23.6785C37.8962 23.6611 37.917 23.6438 37.9396 23.6264C37.9587 23.6108 37.9795 23.5934 38.0004 23.5761C38.0247 23.5552 38.049 23.5344 38.075 23.5118C38.0924 23.4962 38.1114 23.4789 38.1305 23.4632C38.141 23.4546 38.1514 23.4442 38.1618 23.4337C38.6842 22.9425 39.0262 22.4062 39.1025 22.2969C39.1789 22.191 39.4149 21.6703 39.5607 21.3353C39.7204 20.8562 39.8142 20.313 39.7846 19.7055V19.7003C39.7846 19.6899 39.7846 19.6794 39.7846 19.6708C39.7812 19.6308 39.7777 19.5892 39.7742 19.5493C39.7742 19.525 39.769 19.5024 39.7656 19.4798C39.7638 19.4573 39.7603 19.4365 39.7569 19.4139C39.6874 18.9921 39.5139 18.6537 39.2726 18.3846C39.231 18.3378 39.1876 18.2944 39.1424 18.251C39.1997 18.6415 39.3091 19.8009 38.8352 21.0055C38.2885 22.3975 37.589 22.9564 37.589 22.9564C37.6272 23.0901 37.5803 23.8972 37.5803 23.8972C37.5803 23.8972 37.589 23.892 37.6046 23.8815V23.8763Z" fill="#002870"/>
<path id="Vector_34" d="M38.4742 26.7123C38.8231 26.353 38.738 25.9104 38.7346 25.8705C38.7328 25.834 38.6981 25.5876 38.4812 25.4418C38.2642 25.2925 38.0438 25.3845 38.0438 25.3845L37.9882 25.4539C37.7626 25.7021 37.0891 26.176 36.9086 26.2992C36.8809 26.3183 36.8652 26.3304 36.8652 26.3304L36.7854 26.5109C36.7125 26.7123 36.4851 27.1341 36.315 27.45C36.1553 27.7207 36.0321 27.896 36.0321 27.896L36.9555 27.6634C37.1377 27.6062 37.2922 27.5367 37.4276 27.4586C37.8181 27.2538 38.2295 26.9622 38.476 26.7123H38.4742Z" fill="#002870"/>
<path id="Vector_35" d="M41.9995 35.4707C41.7062 35.5939 41.3677 35.7189 41.0206 35.8178C41.0206 35.8178 39.6546 36.3177 38.2938 36.158C38.2938 36.158 38.1463 36.5659 37.7714 36.4895C37.7714 36.4895 38.1046 36.8783 38.089 37.2498C40.3732 37.2723 42.6729 35.6425 42.6729 35.6425L42.9784 34.9951L42.0012 35.4707H41.9995Z" fill="#002870"/>
<path id="Vector_36" d="M43.8097 41.7226C43.7837 41.9621 43.5581 43.3419 41.7009 43.3628C41.7009 43.3628 43.02 42.974 42.987 41.6549L35.3969 41.03C35.192 40.9936 35.2997 40.393 35.7752 40.3982C35.9401 40.4 37.1898 40.3305 37.2575 40.3219C40.5223 40.157 41.1073 38.7111 41.1073 38.7111C39.1286 39.874 36.7212 39.4853 36.7212 39.4853C36.5511 40.2819 35.5982 39.7421 35.0653 39.3846C34.5273 39.0305 34.2391 38.5289 34.0118 37.97C33.7827 37.4076 34.0968 36.0677 34.1506 35.941C34.1992 35.8125 34.6609 34.8058 34.8102 34.1949C34.9629 33.5874 34.7234 32.7699 34.6956 32.7074C34.6696 32.6414 34.1732 31.3466 34.1732 31.3466C33.925 30.6957 34.194 30.116 34.3849 29.8209C34.4353 29.7533 34.4874 29.6821 34.536 29.6161C34.6123 29.5137 34.6835 29.42 34.7338 29.3506C34.7859 29.2811 34.8189 29.2378 34.8189 29.2378C38.0802 25.1103 37.3703 21.3057 37.3703 21.3057C37.3912 23.4926 34.4561 27.141 33.524 28.2432C33.5136 28.2536 33.3956 28.3664 33.2446 28.5678C33.2325 28.5851 33.2203 28.6008 33.2064 28.6199C32.8784 29.0746 32.4392 29.9216 32.5955 31.0377C32.6441 31.3883 32.6857 31.7146 32.7465 32.0149C33.1977 34.2643 33.6629 36.1562 31.9793 36.4547C30.9986 36.6283 30.4935 36.2777 29.5198 36.6561C29.5285 36.6596 30.8216 36.6179 32.099 37.4441C32.3629 37.5986 29.8184 37.852 29.3671 38.0169C28.9141 38.1835 29.131 38.2911 29.2126 38.3137C29.466 38.3831 29.8427 38.39 30.0336 38.4334C30.1776 38.4664 30.1967 38.5306 30.0804 38.6365C29.131 39.5026 28.1504 39.2787 28.1642 39.3099C28.1781 39.3429 28.4281 39.9435 28.2337 40.4676C28.1538 40.6811 28.0618 40.6169 27.9872 40.4833C27.8293 40.1986 27.5082 39.973 27.2148 39.8411C26.59 39.5581 26.1526 39.6762 26.1526 39.6762C26.1526 39.6762 26.6403 39.9157 26.8364 40.2437C27.3016 41.03 27.3606 41.5698 27.286 41.8788C26.885 41.8371 26.5952 42.035 26.5952 42.035C26.137 42.3648 26.4719 42.8924 26.4719 42.8924C26.4806 42.606 26.8312 42.5175 26.8312 42.5175C27.0742 42.4689 27.3693 42.8959 27.3693 42.8959C27.0812 44.0605 25.8436 44.5656 25.8436 44.5656C25.2483 44.786 24.7206 44.4129 24.4499 44.031C24.1774 43.6474 23.7521 43.9876 23.7521 43.9876C23.7018 43.9928 23.6515 44.0102 23.5751 43.9286C23.4987 43.8436 22.8964 43.2795 22.8964 43.2795C22.3098 42.8837 21.9383 43.5537 21.9383 43.5537C21.6572 43.6023 21.6138 43.8331 21.6138 43.8331C21.5287 44.2219 21.9713 44.4615 21.9713 44.4615C21.8533 44.0362 22.1414 43.9095 22.1414 43.9095C22.1414 43.9095 22.1848 43.9651 22.3289 43.9755C22.4729 43.9842 22.5146 43.9581 22.5684 43.9494C22.6187 43.9425 22.6343 43.9269 23.0093 44.0796C23.3807 44.2289 23.254 44.4354 23.254 44.4667C23.254 44.5014 23.0995 44.7288 23.0561 44.8589C23.0301 44.9388 23.0006 45.1367 23.0266 45.4421C23.0526 45.7459 23.4241 45.9125 23.4241 45.9125C23.4241 45.9125 23.3633 45.7129 23.3755 45.5931C23.3876 45.4786 23.4189 45.2321 23.7382 45.0863C23.9135 45.0065 24.1288 45.2252 24.1288 45.2252C24.4186 45.5602 24.9949 45.5359 25.0279 45.5532C25.0626 45.5706 25.3854 45.8066 25.434 45.9038C25.6249 46.1381 25.4236 46.4245 25.2448 46.5356C25.0938 46.6276 24.8994 46.6588 24.8994 46.6588C25.1632 46.8741 25.6058 46.7856 25.9773 46.3117C26.2706 45.9368 25.828 45.4907 25.6805 45.4126C25.5364 45.3345 25.9998 45.0342 26.3175 44.9787C26.6351 44.9232 26.9111 45.5567 27.6279 45.9507C28.0966 46.2076 29.5268 45.7112 29.5268 45.7112C29.5268 45.7112 29.7593 46.0375 30.7487 46.0948C31.41 46.1329 31.7293 46.0045 31.8022 45.9837C31.7727 46.5269 31.7415 47.2143 31.7571 47.3913C31.7849 47.6916 32.139 48.3182 33.0884 48.332C33.1318 48.332 33.1578 48.332 33.1578 48.332L33.1248 47.9415C32.1928 47.7541 32.1928 47.1414 32.1928 47.1414C32.3455 47.5475 32.9166 47.6465 33.1023 47.669L32.9027 45.272C33.0207 45.8153 33.3817 47.341 33.9076 48.1776C34.1732 48.5976 34.5446 48.7278 34.8952 48.7278C35.4073 48.7278 35.869 48.4622 35.869 48.4622L35.6398 48.0179C35.5288 48.0786 34.68 48.5108 34.1263 47.5788C34.1263 47.5788 34.654 48.1567 35.5236 47.7905L33.7566 44.3729C33.807 44.4511 35.4177 46.94 35.744 47.3774L35.7544 47.3913C36.1345 47.8999 36.7403 48.2036 37.3755 48.1758C38.41 48.1307 39.2726 47.4955 39.2726 47.4955L38.6738 46.9643C38.5419 47.0771 37.4814 47.9259 36.3359 47.2212C36.3359 47.2212 37.53 47.5857 38.3961 46.7179L34.8085 43.5346C34.9074 43.611 38.042 46.0288 38.1566 46.1173C38.1792 46.1364 38.2104 46.159 38.2469 46.1833C38.4829 46.3447 38.7415 46.4749 39.014 46.5599C41.2999 47.2646 42.2927 45.1748 42.2927 45.1748L41.5186 44.8937C40.229 46.6363 38.6061 45.6712 38.6061 45.6712C40.0971 46.0583 40.8139 44.9856 40.9754 44.6975L35.6971 42.7813L39.7725 43.7464C42.1018 44.4111 43.1606 44.0015 43.1606 44.0015C44.8668 43.5173 44.8025 41.8024 44.8025 41.8024L43.8184 41.7208L43.8097 41.7226ZM23.6289 44.5483C23.6289 44.5483 23.5803 44.1057 23.9153 44.0275C24.1444 43.9737 24.2676 44.0727 24.2798 44.1525C24.2607 44.1456 23.8667 43.9911 23.6306 44.5483H23.6289ZM27.8605 42.6182C27.4543 42.3734 27.3415 42.5175 27.2617 42.4429C27.194 42.33 27.4856 42.0888 27.5689 42.1547C27.6505 42.2138 28.1816 42.4863 28.3118 42.5366C28.501 42.6095 28.8342 42.5713 28.6797 42.8907C28.5964 43.0642 27.9525 42.6754 27.8605 42.6182ZM28.6797 45.0464C28.5947 45.069 28.2458 45.0585 28.0948 44.4285C28.0948 44.4285 28.2666 44.6125 28.5964 44.6784C28.7474 44.7079 28.7683 44.7131 28.7943 44.8589C28.8238 45.0186 28.7249 45.036 28.6797 45.0481V45.0464ZM28.6867 43.9008C28.6867 43.9008 28.5131 43.6578 28.5895 43.4166C28.6346 43.2708 28.6728 43.1684 28.8134 43.1979C28.8134 43.1979 29.0043 43.2135 28.8724 43.4513C28.7405 43.6908 28.6867 43.9008 28.6867 43.9008ZM29.7229 44.1525C29.6413 44.4077 29.525 44.8485 29.4244 44.9023C29.1484 45.0533 28.9748 45.1124 28.9002 44.8537C28.8238 44.5934 29.0147 44.7045 29.1588 44.5986C29.3671 44.4441 29.4191 44.2324 29.4695 44.1317C29.5198 44.0293 29.5302 43.8644 29.6778 43.9043C29.8114 43.9425 29.827 43.9546 29.7212 44.1543L29.7229 44.1525ZM30.0371 42.8455C29.9346 42.8126 29.8062 42.8178 29.742 42.8334C29.676 42.8438 29.4157 42.9115 29.2942 42.974C29.1744 43.0347 29.1935 43.1857 29.105 43.1736C29.0199 43.1701 28.8655 42.9653 28.9036 42.8455C28.9418 42.7258 28.9679 42.7102 29.0824 42.6685C29.23 42.6112 29.5736 42.5748 29.6396 42.5401C29.7003 42.5106 29.7941 42.5019 29.8635 42.5505C29.9346 42.6043 30.0961 42.7414 30.1204 42.7744C30.1395 42.8004 30.1377 42.8751 30.0371 42.8455Z" fill="#002870"/>
<path id="Vector_37" d="M34.9282 29.5847C40.505 28.8609 38.4048 27.1582 38.4048 27.1582C37.4953 28.0295 35.8169 28.1927 35.8169 28.1927C35.6225 28.9251 34.93 29.5847 34.93 29.5847H34.9282Z" fill="#002870"/>
<path id="Vector_38" d="M34.7876 29.7964C34.2305 30.1227 34.312 30.817 34.312 30.817C34.312 30.817 37.7799 30.6087 38.4551 29.878C38.7936 29.5117 38.5419 28.9546 38.5419 28.9546C36.6483 29.8294 34.7876 29.7964 34.7876 29.7964Z" fill="#002870"/>
<path id="Vector_39" d="M38.542 30.2251C37.5596 30.9298 34.3243 30.9975 34.3243 30.9975C34.3208 31.2387 34.5725 31.7681 34.5725 31.7681C34.5725 31.7681 38.1844 31.8601 38.6583 31.2162C39.1755 30.5132 38.542 30.2251 38.542 30.2251Z" fill="#002870"/>
<path id="Vector_40" d="M38.5853 31.5498C38.5853 31.5498 38.1028 32.0809 34.6418 31.9542C34.6418 31.9542 34.9057 32.4003 34.9803 32.8446C34.9803 32.8446 39.7691 33.0217 38.5853 31.5498Z" fill="#002870"/>
<path id="Vector_41" d="M35.0011 33.0213C35.0011 33.0213 35.1209 33.5264 35.0914 33.884C35.0914 33.884 39.9947 34.4811 38.4586 32.6655C38.4586 32.6655 38.0785 33.1272 35.0011 33.0213Z" fill="#002870"/>
<path id="Vector_42" d="M38.3198 34.002C38.3198 34.002 37.5613 34.4446 35.0584 34.0679C35.0584 34.0679 34.9959 34.5209 34.8311 34.8143C34.8311 34.8143 39.2692 36.0101 38.318 34.002H38.3198Z" fill="#002870"/>
<path id="Vector_43" d="M34.5256 35.6234C34.5256 35.6234 34.7426 36.0747 36.749 36.3351C39.0697 36.6371 37.8009 35.3284 37.8009 35.3284C35.7771 35.436 34.7912 34.9951 34.7912 34.9951C34.6419 35.3995 34.5274 35.6234 34.5274 35.6234H34.5256ZM36.0027 35.981H36.001C36.001 35.981 35.9888 35.9723 36.0027 35.981Z" fill="#002870"/>
<path id="Vector_44" d="M36.0032 35.9809C35.9881 35.9733 36.0013 35.9809 36.0013 35.9809C36.0013 35.9809 36.0013 35.9809 36.0032 35.9809Z" fill="#002870"/>
<path id="Vector_45" d="M34.2028 36.6003C39.4081 38.7282 37.5127 36.5812 37.5127 36.5812C35.0307 36.4753 34.418 35.8262 34.418 35.8262C34.2219 36.2532 34.2028 36.5986 34.2028 36.5986V36.6003Z" fill="#002870"/>
<path id="Vector_46" d="M36.7871 37.6521C34.831 37.1869 34.1749 36.7495 34.1749 36.7495C34.0742 37.3067 34.2044 37.4698 34.2044 37.4698C37.3165 39.5405 36.7871 37.6521 36.7871 37.6521Z" fill="#002870"/>
<path id="Vector_47" d="M34.1698 37.5933C34.1698 37.5933 34.2739 38.6173 35.4091 39.3359C36.1815 39.8254 36.7872 39.9035 36.3533 38.6694C36.3533 38.6694 35.7354 38.895 34.1698 37.5933Z" fill="#002870"/>
<path id="Vector_48" d="M43.624 30.8677C42.442 31.3728 40.5362 31.6505 39.9097 31.7008C39.3108 31.7494 38.9481 31.7077 38.9481 31.7077C39.1303 32.3604 38.5853 32.5513 38.5853 32.5513C38.8196 32.6086 38.9047 32.763 38.9047 32.763C40.1214 32.7127 41.8536 32.225 42.2615 32.1278C43.2352 31.8969 43.8202 31.588 44.4641 31.2565C44.8199 31.0725 44.9917 30.7132 45.0733 30.4233H44.5283C44.3044 30.5518 44.0093 30.7028 43.6258 30.8659L43.624 30.8677Z" fill="#002870"/>
<path id="Vector_49" d="M22.5806 40.2612C22.6621 40.2682 22.7368 40.2664 22.8045 40.2577C22.8079 40.2577 22.8097 40.2577 22.8131 40.2577C23.2037 40.223 23.3686 40.0425 23.3686 40.0425C23.3686 40.0425 22.8114 39.6936 22.7576 38.8727C22.7576 38.8727 22.5892 38.916 22.3011 38.8345C22.3011 38.8345 21.6502 39.284 21.7735 39.8932C21.8967 40.5025 22.4122 40.8496 22.4955 40.8826C22.4955 40.8826 22.2195 40.4643 22.3324 40.2143C22.3862 40.2334 22.4677 40.2525 22.5806 40.2612Z" fill="#002870"/>
</g>
<path id="Vector_50" d="M28.9245 38.0063C29.3115 37.6036 31.6738 37.4075 31.6738 37.4075C29.9555 36.5552 28.9453 36.9666 28.9453 36.7357C28.9453 36.557 29.978 36.3574 29.978 36.3574C29.978 36.3574 27.7806 35.6388 25.3229 36.0467C23.0457 36.4233 22.0841 37.6123 22.0598 38.1156C22.0511 38.2788 22.0477 38.7544 22.6812 38.6971C22.7471 38.6919 22.8044 38.6762 22.8565 38.6537L22.8704 38.8411C22.8704 38.8411 23.0526 40.6515 24.8942 40.1134C25.2431 40.011 25.8141 39.4781 26.498 39.5059C27.4578 39.4625 28.0861 40.3564 28.0861 40.3564C28.2718 39.3063 27.3589 38.9696 28.2094 39.0564C29.0616 39.1431 29.8149 38.6016 29.8149 38.6016C29.1779 38.6103 28.5704 38.376 28.9245 38.0063ZM24.3926 38.9175C24.2294 39.2768 23.49 39.4538 23.1012 38.7248C23.0908 38.704 23.0943 38.6797 23.1099 38.6641C23.221 38.5443 23.7139 38.1035 24.7345 38.3222C24.7345 38.3222 24.6009 38.4593 24.3926 38.9175Z" fill="#002870"/>
<path id="Vector_51" d="M23.4241 38.5915C23.5526 38.4995 23.8129 38.3728 24.1878 38.4057C24.2295 38.4092 24.259 38.4179 24.2173 38.463C24.1601 38.5238 24.0316 38.5619 23.9726 38.7338C23.8841 38.9959 23.4745 39.0132 23.3356 38.7928C23.294 38.7286 23.2801 38.6956 23.4259 38.5932L23.4241 38.5915Z" fill="#002870"/>
</g>
</g>
<g id="Group_7">
<path id="Vector_52" d="M29.8079 52.3503H29.4973V50.2918L28.8741 50.5209V50.2397L29.7593 49.9082H29.8079V52.3503Z" fill="#002870"/>
<path id="Vector_53" d="M31.9966 51.281C31.9324 51.3574 31.8561 51.4199 31.7658 51.4667C31.6755 51.5136 31.5783 51.5362 31.4707 51.5362C31.3301 51.5362 31.2086 51.5015 31.1045 51.432C31.0004 51.3626 30.9205 51.2654 30.8632 51.1404C30.806 51.0155 30.7782 50.8766 30.7782 50.7256C30.7782 50.5624 30.8094 50.4166 30.8702 50.2865C30.9327 50.1563 31.0195 50.0574 31.1323 49.9879C31.2451 49.9185 31.3787 49.8838 31.5298 49.8838C31.7693 49.8838 31.9602 49.974 32.0973 50.1528C32.2362 50.3333 32.3056 50.5781 32.3056 50.8888V50.979C32.3056 51.4511 32.2119 51.7965 32.0244 52.0152C31.837 52.2322 31.5558 52.345 31.1791 52.3502H31.1184V52.0881H31.1826C31.4378 52.0846 31.6339 52.017 31.771 51.8885C31.9081 51.7601 31.9828 51.557 31.9949 51.2793L31.9966 51.281ZM31.5228 51.281C31.6269 51.281 31.7207 51.2498 31.8092 51.1856C31.896 51.1231 31.9602 51.0432 32.0001 50.9495V50.8263C32.0001 50.6232 31.9567 50.4583 31.8682 50.3316C31.7797 50.2049 31.6686 50.1407 31.535 50.1407C31.4013 50.1407 31.2902 50.1927 31.2086 50.2969C31.1253 50.401 31.0854 50.5381 31.0854 50.7082C31.0854 50.8783 31.1253 51.0103 31.2052 51.1179C31.285 51.2255 31.3909 51.2793 31.5245 51.2793L31.5228 51.281Z" fill="#002870"/>
<path id="Vector_54" d="M33.1144 51.1319L33.2376 49.9204H34.4821V50.2051H33.4997L33.4268 50.8681C33.5466 50.7987 33.6819 50.7622 33.8329 50.7622C34.0551 50.7622 34.2304 50.8351 34.3606 50.9809C34.4908 51.1267 34.555 51.3246 34.555 51.5745C34.555 51.8245 34.4873 52.0223 34.3519 52.1664C34.2165 52.3105 34.0273 52.3834 33.7861 52.3834C33.5709 52.3834 33.3956 52.3243 33.2602 52.2046C33.1248 52.0865 33.0467 51.9217 33.0276 51.7099H33.3192C33.3383 51.8488 33.3869 51.9546 33.4685 52.0241C33.5483 52.0952 33.6542 52.1299 33.7861 52.1299C33.9301 52.1299 34.0412 52.0813 34.1245 51.9824C34.2061 51.8852 34.2478 51.7498 34.2478 51.5763C34.2478 51.4131 34.2044 51.2829 34.1159 51.1857C34.0273 51.0868 33.9093 51.0382 33.7635 51.0382C33.6299 51.0382 33.524 51.0677 33.4459 51.1267L33.3643 51.1944L33.1178 51.1302L33.1144 51.1319Z" fill="#002870"/>
<path id="Vector_55" d="M36.7229 52.3504H35.1313V52.1282L35.9731 51.1927C36.0981 51.0521 36.1831 50.9358 36.2317 50.8473C36.2786 50.7588 36.3029 50.6668 36.3029 50.5731C36.3029 50.4464 36.2647 50.3422 36.1883 50.2607C36.1119 50.1791 36.0095 50.1392 35.8811 50.1392C35.7266 50.1392 35.6086 50.1825 35.5235 50.2711C35.4385 50.3578 35.3968 50.4793 35.3968 50.6356H35.0879C35.0879 50.4117 35.1608 50.2311 35.3049 50.0923C35.4489 49.9552 35.6416 49.8857 35.8828 49.8857C36.1085 49.8857 36.2872 49.9448 36.4174 50.0628C36.5493 50.1808 36.6153 50.3388 36.6153 50.5366C36.6153 50.7761 36.4626 51.0608 36.1571 51.3906L35.5062 52.097H36.7264V52.3487L36.7229 52.3504Z" fill="#002870"/>
</g>
</g>
<g id="Group_8">
<path id="Vector_56" d="M5.82245 33.1812L7.27522 34.233L6.72154 32.5268L8.17084 31.4733H6.37787L5.82245 29.7671L5.27224 31.4733H3.47754L4.9251 32.5268L4.37315 34.233L5.82245 33.1812Z" fill="white"/>
<path id="Vector_57" d="M62.201 31.4733H60.408L59.8526 29.7671L59.3024 31.4733H57.5077L58.9553 32.5268L58.4033 34.233L59.8526 33.1812L61.3054 34.233L60.7517 32.5268L62.201 31.4733Z" fill="white"/>
<path id="Vector_58" d="M12.6454 10.5861L13.1557 11.0964C13.2755 11.2162 13.3883 11.3394 13.4959 11.4678C13.6 11.5945 13.6833 11.7195 13.7371 11.8428L11.0746 14.507L11.5172 14.9496L13.1245 13.3424L13.758 13.9759L12.609 15.1249L13.0516 15.5675L15.3288 13.2903L16.483 14.4445L17.179 13.7485L15.9449 12.5145C15.7002 12.2697 15.4433 12.2923 15.2177 12.5179L14.454 13.2816L13.8205 12.6481L15.459 11.0096L15.0163 10.567L14.3464 11.237C14.3325 11.1276 14.2735 10.9888 14.1676 10.8187C14.0635 10.6486 13.9541 10.5045 13.8361 10.3865L13.2616 9.812C13.0168 9.56726 12.76 9.58983 12.5326 9.81547L9.93079 12.4173L10.3734 12.8599L12.6454 10.5878V10.5861Z" fill="white"/>
<path id="Vector_59" d="M4.12144 23.7632L4.69942 24.0027L4.99449 23.2894C5.04309 23.4907 5.13335 23.6712 5.26179 23.8344C5.39196 23.9993 5.55165 24.1225 5.74431 24.2023C6.09492 24.3481 6.45247 24.3325 6.81696 24.1555C7.17972 23.9802 7.44181 23.7025 7.59976 23.3223C7.75944 22.9353 7.77159 22.5534 7.63794 22.1751C7.50256 21.7967 7.2613 21.5329 6.91069 21.3888C6.71803 21.309 6.51843 21.2812 6.31188 21.3037C6.10533 21.3263 5.91441 21.3923 5.73737 21.5016L6.0307 20.7952L5.45271 20.5557L4.9754 21.7082L4.78274 21.6283C4.46164 21.4964 4.23426 21.6127 4.11103 21.9095L3.93225 22.34L4.59875 22.6159L4.12144 23.7667V23.7632ZM5.65058 22.5118C5.70959 22.3677 5.82936 22.2688 6.00813 22.215C6.18691 22.1594 6.36916 22.1699 6.55487 22.248C6.74059 22.3243 6.87945 22.4458 6.96797 22.6125C7.05822 22.7773 7.07384 22.9336 7.0131 23.0759C6.95582 23.2147 6.83432 23.3119 6.65381 23.3692C6.47156 23.4248 6.28758 23.4143 6.10186 23.3362C5.91614 23.2599 5.77902 23.1366 5.69224 22.97C5.60545 22.8016 5.58983 22.6489 5.64711 22.51L5.65058 22.5118Z" fill="white"/>
<path id="Vector_60" d="M9.43962 20.58L7.52515 19.7868L7.9018 18.8755L7.31687 18.6343L6.94023 19.5455L6.13487 19.2123C5.81377 19.0786 5.58639 19.1966 5.46316 19.4917H5.45795L5.27917 19.9204L9.06471 21.4877L9.44135 20.58H9.43962Z" fill="white"/>
<path id="Vector_61" d="M8.03717 23.9179L7.8584 24.3484L9.05776 24.8448C9.24521 24.9229 9.41705 24.9264 9.57326 24.8517C9.73121 24.7771 9.84576 24.6504 9.9204 24.4699L11.2256 21.3196L10.6476 21.0801L9.46044 23.9474L8.70889 23.635C8.38952 23.5031 8.16041 23.6211 8.03717 23.9162V23.9179Z" fill="white"/>
<path id="Vector_62" d="M55.0986 19.952L54.5189 20.1915L56.7354 25.5427L57.3151 25.3031L56.9524 24.4284C57.0582 24.4579 57.2092 24.4561 57.4071 24.4232C57.605 24.3919 57.7785 24.3468 57.933 24.2826L60.3508 23.2811C60.6702 23.1492 60.7483 22.9027 60.6268 22.6059L59.0317 18.7544L58.4537 18.9939L59.87 22.4132L57.5355 23.38C57.3793 23.4442 57.2214 23.5015 57.0634 23.5518C56.9055 23.6004 56.7597 23.6282 56.6243 23.6317L56.4021 23.0971L57.9191 22.4688C58.2402 22.3351 58.3183 22.0921 58.1968 21.7971H58.2038L58.025 21.3631L56.0272 22.1911L55.8051 21.6547L57.3221 21.0264C57.6432 20.8928 57.7213 20.6498 57.5998 20.3547H57.605L57.4262 19.9208L55.4284 20.7487L55.1004 19.9538L55.0986 19.952Z" fill="white"/>
<path id="Vector_63" d="M41.1211 7.35267L42.1469 7.82651C42.3326 7.91156 42.5149 7.97057 42.6989 8.00529C42.8048 8.02438 42.8915 8.02264 42.9853 8.02959L42.1139 9.91628L42.954 10.3051L44.5647 6.81981L45.0195 7.02983L43.4088 10.5151L44.2488 10.9039L46.5938 5.827C46.7396 5.5111 46.6302 5.27852 46.3403 5.14487L45.9689 4.97304L45.2816 6.46226L44.8268 6.25224L45.2989 5.22992C45.4447 4.91403 45.3354 4.68145 45.0438 4.54606L44.6724 4.37423L43.1901 7.58352C43.112 7.56789 43.0408 7.56095 42.9505 7.53665C42.7874 7.48979 42.6138 7.42557 42.435 7.34225L41.6332 6.97255L42.8429 4.35514L44.0944 4.93312L44.327 4.43151L42.1816 3.44043L40.774 6.4883C40.6924 6.6636 40.6837 6.83023 40.7428 6.98817C40.8052 7.14439 40.9285 7.26762 41.1194 7.3544L41.1211 7.35267Z" fill="white"/>
<path id="Vector_64" d="M18.7394 6.27095L19.4528 5.97588C19.3452 6.15292 19.281 6.34385 19.2567 6.55039C19.2324 6.75868 19.2567 6.95828 19.3382 7.15094C19.484 7.50155 19.7461 7.74281 20.1297 7.87646C20.5098 8.01011 20.8917 7.99796 21.2718 7.84001C21.6589 7.68033 21.9383 7.41824 22.1101 7.05548C22.282 6.69272 22.2976 6.33517 22.1518 5.98456C22.0719 5.7919 21.9505 5.63048 21.789 5.5003C21.6276 5.37013 21.4454 5.28161 21.2423 5.23301L21.9487 4.93968L21.7092 4.36169L20.5567 4.83901L20.4769 4.64635C20.3432 4.32524 20.0985 4.24714 19.8034 4.37037L19.373 4.54915L19.6489 5.21565L18.4982 5.69296L18.7377 6.27095H18.7394ZM20.1714 6.24665C20.2286 6.06614 20.3276 5.94638 20.4664 5.8891C20.6105 5.83008 20.765 5.84397 20.9299 5.93249C21.0965 6.01927 21.2163 6.15639 21.2944 6.34211C21.3707 6.52783 21.3829 6.71181 21.3273 6.89232C21.2735 7.07284 21.1746 7.19433 21.0323 7.25335C20.8934 7.31063 20.7389 7.295 20.5706 7.20648C20.404 7.11623 20.2807 6.97911 20.2043 6.79339C20.128 6.60767 20.1176 6.42543 20.1731 6.24491L20.1714 6.24665Z" fill="white"/>
<path id="Vector_65" d="M24.2694 6.62024L23.7174 5.28724L24.6286 4.91059L24.3856 4.32567L23.4744 4.70231L23.1412 3.89695C23.0075 3.57585 22.7645 3.49774 22.4694 3.61924V3.6123L22.0355 3.79107L23.3616 6.99342L24.2694 6.61677V6.62024Z" fill="white"/>
<path id="Vector_66" d="M22.8894 7.37857C22.0563 7.72397 21.612 8.56231 21.8966 9.25138C22.1813 9.94044 23.0891 10.2199 23.9222 9.87449C24.7553 9.52909 25.1996 8.69075 24.915 8.00168C24.6303 7.31261 23.7226 7.03317 22.8894 7.37857ZM23.6774 9.28436C23.3338 9.42668 22.9328 9.24791 22.7836 8.88515C22.6326 8.52239 22.7905 8.11277 23.1342 7.97044C23.4778 7.82811 23.8788 8.00689 24.0281 8.36965C24.1791 8.73241 24.0211 9.14203 23.6774 9.28436Z" fill="white"/>
<path id="Vector_67" d="M50.9313 16.2219L51.6273 16.9179L52.8614 15.6839C53.1061 15.4391 53.0835 15.1823 52.8579 14.9566L50.2509 12.3496L49.8604 12.7401L52.1376 15.0174L50.9313 16.2237V16.2219Z" fill="white"/>
<path id="Vector_68" d="M52.2677 13.2193C52.6686 13.2401 53.0053 13.1169 53.2726 12.8478C53.4202 12.7003 53.5226 12.5267 53.5816 12.3271C53.6406 12.1275 53.6527 11.9262 53.618 11.7196L54.1596 12.2612L54.6022 11.8186L53.7204 10.9368L53.868 10.7893C54.1127 10.5446 54.0919 10.2877 53.8662 10.0603L53.5364 9.73054L53.0262 10.2408L52.1462 9.36084L51.7036 9.80344L52.2503 10.3502C52.0455 10.3189 51.8459 10.3328 51.6445 10.3884C51.4432 10.4456 51.2679 10.5463 51.1204 10.6938C50.8513 10.9629 50.7298 11.2979 50.7524 11.7023C50.775 12.105 50.9329 12.4521 51.2245 12.7437C51.5213 13.0405 51.8685 13.1967 52.2694 13.2175L52.2677 13.2193ZM51.5387 11.8516C51.5578 11.6624 51.6376 11.4975 51.7799 11.3551C51.9223 11.2128 52.0871 11.133 52.2746 11.1174C52.4621 11.1017 52.6113 11.1469 52.7172 11.2527C52.8266 11.3621 52.8734 11.5114 52.8543 11.6971C52.837 11.8845 52.7571 12.0477 52.6148 12.19C52.4725 12.3323 52.3076 12.4139 52.1201 12.4313C51.9327 12.4504 51.7834 12.4052 51.6741 12.2959C51.5682 12.19 51.523 12.0407 51.5404 11.8516H51.5387Z" fill="white"/>
<path id="Vector_69" d="M53.4966 15.045L54.5155 14.0261L55.2132 14.7239L55.661 14.2761L54.9633 13.5783L55.5794 12.9621C55.8242 12.7174 55.8033 12.4605 55.5794 12.2349L55.5846 12.2297L55.2549 11.8999L52.8041 14.3507L53.4984 15.045H53.4966Z" fill="white"/>
<path id="Vector_70" d="M35.6277 4.49556H34.68C34.7477 4.40877 34.805 4.26818 34.8501 4.07378C34.897 3.87939 34.9213 3.70061 34.9213 3.53399V2.36066C34.9213 2.01526 34.7234 1.84863 34.4023 1.84863H30.4519V2.47522H33.9372V3.55828C33.9372 3.72838 33.9285 3.89501 33.9146 4.06163C33.899 4.22479 33.8695 4.37232 33.8191 4.49729H33.0207V3.74053C33.0207 3.39339 32.8246 3.22677 32.5052 3.22677V3.21983H32.0383V4.49729H30.0544V5.12388H35.6295V4.49729L35.6277 4.49556Z" fill="white"/>
<path id="Vector_71" d="M31.0715 6.79372C31.0715 7.54007 31.863 8.14409 32.8402 8.14409C33.8174 8.14409 34.6089 7.54007 34.6089 6.79372C34.6089 6.04738 33.8174 5.44336 32.8402 5.44336C31.863 5.44336 31.0715 6.04738 31.0715 6.79372ZM33.6004 6.79372C33.6004 7.18599 33.2602 7.50536 32.8402 7.50536C32.4202 7.50536 32.08 7.18772 32.08 6.79372C32.08 6.39972 32.4202 6.08209 32.8402 6.08209C33.2602 6.08209 33.6004 6.39972 33.6004 6.79372Z" fill="white"/>
<path id="Vector_72" d="M8.69672 40.3256L8.51968 39.6921L6.56182 38.5899L8.09096 38.1629L7.95731 37.6821L4.83655 38.5534L4.97193 39.036L5.99425 38.7496L6.58786 39.0967L5.41453 40.6224L5.58289 41.2247L7.0131 39.3449L8.69672 40.3256Z" fill="white"/>
<path id="Vector_73" d="M8.39477 43.8386C8.61346 43.7484 8.80265 43.6269 8.95886 43.4776C9.11508 43.3283 9.23657 43.1565 9.32162 42.9673C9.40667 42.7764 9.45006 42.5768 9.45354 42.3667C9.45701 42.1567 9.41535 41.9467 9.32683 41.735C9.24005 41.5232 9.12028 41.3462 8.96928 41.1986C8.81827 41.0528 8.64644 40.9417 8.45378 40.8671C8.26112 40.7925 8.05631 40.756 7.83935 40.7612C7.62239 40.7664 7.40369 40.815 7.17978 40.907C6.95762 40.999 6.76843 41.1205 6.61222 41.2698C6.456 41.4191 6.33624 41.5892 6.25293 41.7801C6.16962 41.9693 6.12622 42.1706 6.12275 42.3806C6.11928 42.5906 6.16267 42.8007 6.24946 43.0124C6.33624 43.2242 6.456 43.4012 6.60701 43.5487C6.75801 43.6945 6.92985 43.8056 7.12598 43.8803C7.32038 43.9549 7.52692 43.9896 7.74388 43.9861C7.96084 43.9809 8.17954 43.9341 8.39824 43.8421L8.39477 43.8386ZM7.30302 43.4082C7.16764 43.3613 7.04787 43.2867 6.94373 43.1895C6.83959 43.0905 6.75628 42.969 6.69726 42.8232C6.63652 42.6774 6.60874 42.5334 6.61222 42.3893C6.61569 42.2452 6.64867 42.1081 6.70768 41.9797C6.76669 41.8495 6.85348 41.7332 6.96803 41.6291C7.08259 41.5249 7.21797 41.4399 7.37418 41.3757C7.53387 41.3097 7.69008 41.2733 7.84282 41.2663C7.99556 41.2594 8.13962 41.2819 8.27327 41.3305C8.40692 41.3809 8.52668 41.4538 8.63082 41.5527C8.73496 41.6516 8.81827 41.7731 8.87729 41.9189C8.93804 42.0647 8.96581 42.2088 8.96234 42.3529C8.95886 42.4969 8.92589 42.6323 8.8634 42.7625C8.80092 42.8909 8.71413 43.0089 8.60305 43.1131C8.49196 43.2172 8.35658 43.3023 8.20037 43.3682C8.04416 43.4325 7.88795 43.4689 7.73521 43.4741C7.58246 43.4793 7.4384 43.4585 7.30302 43.4099V43.4082Z" fill="white"/>
<path id="Vector_74" d="M9.40142 46.1678C9.5559 46.2563 9.72252 46.3049 9.89956 46.3102C10.0766 46.3154 10.2415 46.2754 10.3942 46.1887C10.5626 46.0932 10.6928 45.9665 10.7813 45.8085C10.8715 45.6506 10.9167 45.4822 10.9184 45.3017C10.9201 45.1212 10.875 44.9511 10.7848 44.7897L10.1026 43.5903L7.28735 45.1941L7.53556 45.628L8.59259 45.0257L8.95882 45.6679L8.24025 46.8656L8.53705 47.395L9.29902 46.0897C9.33373 46.1158 9.36324 46.147 9.40142 46.1678ZM9.93254 44.262L10.3265 44.9546C10.3838 45.0535 10.4133 45.1542 10.4185 45.2566C10.4237 45.359 10.4029 45.4527 10.3578 45.536C10.3127 45.6211 10.2415 45.6905 10.1478 45.7426C10.0645 45.7894 9.9794 45.8155 9.89088 45.819C9.80236 45.8224 9.72079 45.8051 9.64789 45.7652C9.57325 45.7252 9.51424 45.6662 9.47085 45.5898L9.01263 44.7862L9.93428 44.262H9.93254Z" fill="white"/>
<path id="Vector_75" d="M9.68606 48.1879L10.4463 47.6359L11.2013 48.6773L11.5918 48.3944L10.8368 47.353L11.5294 46.8514L12.4337 48.0976L12.8242 47.8164L11.6248 46.1641L9.0022 48.0664L10.2016 49.7188L10.5904 49.4358L9.68606 48.1879Z" fill="white"/>
<path id="Vector_76" d="M13.7927 48.9363L10.5504 50.1843L10.8923 50.5609L11.6942 50.2467L12.6055 51.25L12.2149 52.0172L12.5725 52.4112L14.1346 49.3112L13.7927 48.9346V48.9363ZM13.39 49.759C13.3379 49.8527 13.2893 49.9378 13.2442 50.0124C13.2008 50.0871 13.173 50.1357 13.1626 50.1582L12.8398 50.7935L12.175 50.061L12.8207 49.8076C12.8728 49.7868 12.937 49.759 13.0134 49.726C13.0897 49.6931 13.1713 49.6584 13.2581 49.6202C13.3449 49.582 13.4247 49.5455 13.5028 49.5108C13.5167 49.5039 13.5271 49.5004 13.541 49.4935C13.5393 49.4969 13.5375 49.4987 13.5358 49.5021C13.4924 49.5802 13.4438 49.6653 13.39 49.759Z" fill="white"/>
<path id="Vector_77" d="M16.5838 51.6318L13.5671 53.3554L13.9629 53.6765L14.7092 53.2443L15.761 54.1L15.4903 54.9175L15.9034 55.2525L16.9812 51.9529L16.5855 51.6318H16.5838ZM16.3095 52.5049C16.2713 52.6056 16.2366 52.6958 16.2036 52.7774C16.1707 52.859 16.1516 52.911 16.1464 52.9336L15.9225 53.6105L15.1536 52.9857L15.7541 52.6385C15.801 52.609 15.8617 52.5726 15.9329 52.5292C16.004 52.4858 16.0787 52.4389 16.1585 52.3869C16.2384 52.3365 16.313 52.2879 16.3842 52.2411C16.398 52.2324 16.4067 52.2272 16.4189 52.2185C16.4189 52.222 16.4171 52.2237 16.4154 52.2272C16.3842 52.3105 16.3477 52.4025 16.3113 52.5031L16.3095 52.5049Z" fill="white"/>
<path id="Vector_78" d="M18.7516 55.4085L19.012 55.0041L17.9306 54.3081L18.3941 53.5878L19.6906 54.4226L19.951 54.0182L18.2361 52.9126L16.4796 55.6359L18.1962 56.7415L18.4566 56.3371L17.1617 55.5022L17.6703 54.7125L18.7516 55.4085Z" fill="white"/>
<path id="Vector_79" d="M22.2421 55.7677C22.2282 55.5871 22.1726 55.4205 22.0737 55.2695C21.9748 55.1185 21.8429 55.0022 21.6762 54.9189L20.4422 54.3027L18.9963 57.2013L19.4441 57.4252L19.9874 56.3352L20.6487 56.665L20.7181 58.0605L21.2579 58.3347L21.1642 56.8264C21.2076 56.8299 21.2493 56.8386 21.2927 56.8351C21.4714 56.823 21.6363 56.7691 21.7856 56.6754C21.9366 56.5817 22.0511 56.4567 22.1293 56.2988C22.216 56.1252 22.2525 55.9482 22.2403 55.7659L22.2421 55.7677ZM21.678 56.0679C21.6346 56.153 21.579 56.2224 21.5079 56.2745C21.4367 56.3265 21.3603 56.3578 21.2753 56.3665C21.192 56.3751 21.1104 56.3595 21.0306 56.3196L20.2026 55.9065L20.6765 54.9571L21.3881 55.3129C21.4905 55.3632 21.5721 55.4309 21.6328 55.5125C21.6936 55.5941 21.7283 55.6843 21.737 55.7798C21.7457 55.8753 21.7266 55.9725 21.678 56.0679Z" fill="white"/>
<path id="Vector_80" d="M24.9203 56.3234C24.7658 56.181 24.5818 56.0717 24.3666 55.9953C24.1513 55.9189 23.9379 55.8877 23.7296 55.9033C23.5196 55.9172 23.3234 55.971 23.1377 56.0648C22.952 56.1585 22.7888 56.2869 22.6482 56.4518C22.5077 56.6167 22.3966 56.8111 22.3167 57.0385C22.2369 57.2658 22.2004 57.488 22.2074 57.7032C22.2143 57.9202 22.2612 58.1233 22.3462 58.3125C22.4313 58.5017 22.551 58.6665 22.7055 58.8106C22.86 58.9529 23.044 59.0623 23.2592 59.1387C23.4744 59.215 23.6879 59.2463 23.8962 59.2306C24.1062 59.2168 24.3041 59.1612 24.4898 59.0675C24.6755 58.972 24.8387 58.8436 24.981 58.6787C25.1216 58.5138 25.2327 58.3194 25.3125 58.0955C25.3924 57.8716 25.4271 57.6512 25.4201 57.4342C25.4132 57.2172 25.3681 57.0142 25.283 56.8232C25.198 56.6323 25.0782 56.4657 24.9237 56.3234H24.9203ZM24.83 57.9254C24.7727 58.0851 24.6964 58.2239 24.5974 58.342C24.4985 58.46 24.3874 58.552 24.2607 58.6214C24.134 58.6908 24.0003 58.7308 23.858 58.7412C23.714 58.7533 23.5682 58.7325 23.4206 58.6804C23.2714 58.6284 23.1464 58.552 23.0422 58.4531C22.9381 58.3541 22.8583 58.2396 22.801 58.1077C22.7437 57.9757 22.7159 57.8334 22.7142 57.6789C22.7142 57.5245 22.7402 57.3682 22.7975 57.2068C22.8548 57.0437 22.9329 56.9031 23.0301 56.7851C23.1273 56.667 23.2384 56.575 23.3651 56.5091C23.4918 56.4431 23.6272 56.4032 23.7695 56.3911C23.9118 56.3789 24.0576 56.3997 24.2069 56.4518C24.3544 56.5039 24.4811 56.5802 24.5853 56.6792C24.6894 56.7781 24.7692 56.8944 24.8231 57.0263C24.8769 57.1582 24.9064 57.3006 24.9098 57.455C24.9133 57.6078 24.8855 57.7657 24.83 57.9254Z" fill="white"/>
<path id="Vector_81" d="M26.6386 57.3627C26.7028 57.3089 26.7826 57.2742 26.8781 57.2568C26.9736 57.2395 27.0794 57.2447 27.1975 57.2707C27.2999 57.2933 27.3919 57.3332 27.4752 57.387C27.5585 57.4425 27.6297 57.512 27.6887 57.597C27.7494 57.6821 27.798 57.781 27.8362 57.8938L28.2562 57.6317C28.2146 57.4963 28.1486 57.3748 28.0618 57.2672C27.9751 57.1614 27.8692 57.0711 27.7425 56.9982C27.6158 56.9253 27.4717 56.8715 27.3103 56.835C27.1575 56.8003 27.0083 56.7899 26.866 56.8038C26.7236 56.8177 26.5952 56.8541 26.4789 56.9114C26.3626 56.9687 26.2654 57.0468 26.1856 57.1423C26.1057 57.2377 26.0519 57.3488 26.0224 57.4755C25.9929 57.6057 25.9877 57.7255 26.0033 57.8383C26.0189 57.9511 26.0589 58.057 26.1213 58.1559C26.1838 58.2548 26.2706 58.3451 26.3782 58.4267C26.4858 58.5082 26.6177 58.5829 26.774 58.6523C26.8729 58.694 26.9579 58.7356 27.0308 58.779C27.1037 58.8224 27.1645 58.8675 27.2166 58.9127C27.2686 58.9595 27.3086 59.0064 27.3363 59.0533C27.3658 59.1001 27.3832 59.1505 27.3901 59.2025C27.3971 59.2546 27.3953 59.3084 27.3832 59.3622C27.3658 59.4438 27.3224 59.5097 27.253 59.5601C27.1853 59.6104 27.1003 59.6451 26.9979 59.659C26.8972 59.6746 26.7878 59.6694 26.6733 59.6434C26.4858 59.6017 26.3348 59.5254 26.2168 59.4125C26.0988 59.3015 25.9912 59.1227 25.8905 58.8797L25.4705 59.1886C25.5329 59.3449 25.6145 59.482 25.7117 59.6017C25.8107 59.7198 25.9269 59.8187 26.0641 59.8968C26.1994 59.9749 26.3539 60.0322 26.5258 60.0721C26.7635 60.1259 26.977 60.1311 27.1662 60.0895C27.3554 60.0478 27.5134 59.9645 27.6401 59.8378C27.7668 59.7111 27.8518 59.5479 27.8969 59.3449C27.9212 59.2355 27.9212 59.1296 27.8952 59.0272C27.8692 58.9231 27.8206 58.8241 27.7459 58.7287C27.673 58.6332 27.5776 58.543 27.4596 58.4579C27.3433 58.3729 27.2061 58.2948 27.0482 58.2201C26.9354 58.1698 26.8417 58.1195 26.7635 58.0691C26.6872 58.0188 26.6282 57.9667 26.5865 57.9164C26.5466 57.8643 26.5188 57.8105 26.5067 57.7515C26.4945 57.6925 26.4945 57.6335 26.5101 57.5692C26.5292 57.4825 26.5709 57.4113 26.6351 57.3575L26.6386 57.3627Z" fill="white"/>
<path id="Vector_82" d="M30.9448 57.9322C30.8771 57.7725 30.7765 57.6406 30.6428 57.5364C30.5109 57.4323 30.3564 57.3698 30.1829 57.3507L28.8724 57.1997L28.501 60.4177L28.9974 60.475L29.1397 59.2426L29.9537 59.3363C30.1291 59.3572 30.2922 59.3294 30.4449 59.2565C30.5977 59.1819 30.7261 59.076 30.8285 58.9354C30.9309 58.7948 30.9934 58.6334 31.016 58.4494C31.0368 58.2654 31.0143 58.0936 30.9448 57.9339V57.9322ZM30.5092 58.3904C30.4988 58.4859 30.4675 58.5692 30.4172 58.6438C30.3668 58.7167 30.3044 58.774 30.2315 58.8139C30.1586 58.8538 30.0805 58.8694 29.9971 58.859L29.1918 58.7653L29.3098 57.736L30.1152 57.8298C30.1985 57.8384 30.2696 57.8714 30.3321 57.9252C30.3946 57.979 30.4415 58.0467 30.4745 58.1283C30.5074 58.2099 30.5178 58.2984 30.5074 58.3939L30.5092 58.3904Z" fill="white"/>
<path id="Vector_83" d="M32.1893 57.4775L30.8823 60.6972L31.3909 60.7059L31.7102 59.9058L33.0658 59.9283L33.3574 60.7389L33.8903 60.7476L32.6979 57.488L32.1893 57.4793V57.4775ZM31.9029 59.4267L32.1598 58.7828C32.1789 58.7307 32.2032 58.6648 32.2327 58.5866C32.2622 58.5085 32.2917 58.4252 32.3229 58.335C32.3542 58.2464 32.3837 58.1614 32.4097 58.0816C32.4149 58.0677 32.4184 58.0555 32.4236 58.0416C32.4236 58.0451 32.4254 58.0468 32.4271 58.0503C32.4531 58.1354 32.4826 58.2291 32.5156 58.3315C32.5486 58.4339 32.5764 58.5276 32.6007 58.6109C32.625 58.6943 32.6423 58.7481 32.651 58.7689L32.8923 59.4389L31.9029 59.4232V59.4267Z" fill="white"/>
<path id="Vector_84" d="M36.3914 59.8954C36.3098 59.9562 36.2213 60.0048 36.1259 60.0412C36.0304 60.0777 35.9315 60.102 35.8308 60.1107C35.6642 60.1263 35.5114 60.1141 35.3691 60.0725C35.2268 60.0308 35.1018 59.9649 34.9942 59.8729C34.8866 59.7809 34.7981 59.6663 34.7304 59.5275C34.6627 59.3904 34.621 59.2341 34.6037 59.0588C34.588 58.8922 34.6002 58.7377 34.6436 58.5919C34.6852 58.4461 34.7495 58.3194 34.838 58.2083C34.9248 58.0973 35.0306 58.007 35.1556 57.9393C35.2806 57.8699 35.4194 57.8282 35.5687 57.8143C35.6642 57.8057 35.7596 57.8109 35.8568 57.8334C35.954 57.856 36.0495 57.8925 36.1467 57.9428C36.2422 57.9949 36.3394 58.0608 36.4365 58.1407L36.7351 57.764C36.6483 57.6633 36.539 57.5766 36.4105 57.5037C36.2803 57.4308 36.1397 57.377 35.9853 57.344C35.8325 57.311 35.6763 57.3006 35.5201 57.3162C35.2997 57.337 35.0966 57.3978 34.9144 57.5002C34.7321 57.6009 34.5759 57.7345 34.4457 57.8977C34.3155 58.0626 34.2201 58.2465 34.1576 58.4531C34.0951 58.6596 34.0743 58.8766 34.0968 59.1074C34.1194 59.3504 34.1784 59.5691 34.2739 59.7653C34.3693 59.9614 34.4926 60.1263 34.6436 60.2617C34.7963 60.3971 34.9699 60.496 35.1643 60.5585C35.3587 60.621 35.5687 60.64 35.7926 60.6192C35.9436 60.6053 36.0911 60.5706 36.2369 60.5186C36.3827 60.4665 36.5129 60.4005 36.6275 60.3207C36.742 60.2408 36.8305 60.1575 36.8948 60.0673L36.6066 59.6854C36.5424 59.7635 36.4695 59.8312 36.3897 59.892L36.3914 59.8954Z" fill="white"/>
<path id="Vector_85" d="M38.1167 59.7563L37.9275 58.8347L39.1876 58.576L39.0904 58.1039L37.8303 58.3643L37.6567 57.526L39.1668 57.2135L39.0696 56.7432L37.0701 57.1545L37.7244 60.3274L39.7239 59.916L39.6267 59.4439L38.1167 59.7563Z" fill="white"/>
<path id="Vector_86" d="M42.862 55.4712L42.4142 55.6361L43.0911 57.4742C43.1449 57.6217 43.1588 57.7675 43.1328 57.9098C43.1068 58.0522 43.0477 58.1806 42.9557 58.2934C42.8638 58.4062 42.7457 58.4896 42.6017 58.5416C42.4663 58.592 42.3274 58.6024 42.1868 58.5763C42.0462 58.5486 41.9213 58.4896 41.8085 58.3976C41.6956 58.3056 41.6123 58.1858 41.5585 58.0383L40.8816 56.2002L40.413 56.372L41.1038 58.2483C41.1871 58.4774 41.3155 58.6631 41.4891 58.8054C41.6609 58.9478 41.8588 59.0363 42.0827 59.071C42.3066 59.1057 42.534 59.0797 42.77 58.9929C43.0043 58.9061 43.1953 58.7777 43.3428 58.6076C43.4903 58.4357 43.5841 58.2413 43.6223 58.0209C43.6604 57.8005 43.6396 57.5766 43.5546 57.3475L42.8638 55.4712H42.862Z" fill="white"/>
<path id="Vector_87" d="M45.4256 54.183L45.9203 55.1255C45.9828 55.2452 46.0453 55.3615 46.1077 55.4726C46.1685 55.5837 46.2292 55.6878 46.2865 55.7885C46.3438 55.8892 46.4011 55.9829 46.4549 56.0714C46.5087 56.1599 46.5625 56.2415 46.6128 56.3179C46.6284 56.3422 46.6441 56.363 46.6597 56.3856L43.8184 55.0248L43.4209 55.2331L44.924 58.1039L45.3666 57.8713L44.7418 56.6789C44.7296 56.6546 44.7122 56.6251 44.6949 56.5939C44.6758 56.5609 44.6532 56.521 44.6237 56.4724C44.5942 56.4238 44.556 56.3595 44.5057 56.2832C44.4571 56.2068 44.3964 56.1113 44.3269 56.0003C44.2766 55.9204 44.2158 55.8232 44.1482 55.7191L46.9652 57.0347L47.3713 56.823L45.8682 53.9521L45.4256 54.1847V54.183Z" fill="white"/>
<path id="Vector_88" d="M48.7252 55.3808L47.439 53.4559L47.8747 53.1661L47.6178 52.7808L46.3317 53.6399L46.5885 54.0253L47.0242 53.7337L48.3086 55.6585L47.8747 55.9484L48.1316 56.3337L49.4177 55.4763L49.1591 55.091L48.7252 55.3808Z" fill="white"/>
<path id="Vector_89" d="M49.7614 51.0816L50.4574 53.0568C50.4973 53.1783 50.5355 53.2877 50.572 53.3814C50.6084 53.4751 50.6414 53.5619 50.6744 53.64C50.6796 53.6539 50.6848 53.6643 50.69 53.6782C50.6449 53.6504 50.5997 53.6209 50.5494 53.5914C50.4921 53.5567 50.4279 53.5185 50.3568 53.4769C50.2856 53.4352 50.204 53.3901 50.1155 53.3397L48.2687 52.3122L47.8296 52.6732L50.8896 54.3517L51.2645 54.0427L50.2144 50.7119L49.7631 51.0816H49.7614Z" fill="white"/>
<path id="Vector_90" d="M52.7607 52.0293L52.0855 51.3732L52.9828 50.4515L52.6392 50.1148L51.7418 51.0382L51.1274 50.4411L52.2018 49.3355L51.8581 49.0005L50.4331 50.4637L52.7555 52.7235L54.1805 51.2604L53.835 50.9236L52.7607 52.0293Z" fill="white"/>
<path id="Vector_91" d="M54.8852 48.2436C54.9077 48.0665 54.8886 47.8947 54.8261 47.7281C54.7637 47.5614 54.663 47.4243 54.5241 47.3167C54.3714 47.1969 54.2048 47.1258 54.0243 47.1032C53.8438 47.0807 53.6702 47.1032 53.5036 47.1692C53.3352 47.2369 53.1946 47.3427 53.0818 47.4885L52.233 48.5751L54.788 50.5694L55.0952 50.1754L54.1353 49.4256L54.5901 48.8424L55.9717 49.0507L56.3483 48.5751L54.8504 48.3668C54.8609 48.3251 54.8782 48.2852 54.8852 48.2418V48.2436ZM53.7552 49.1305L52.9204 48.4779L53.4098 47.8496C53.4793 47.7593 53.5608 47.6933 53.6546 47.65C53.7466 47.6066 53.842 47.5909 53.9375 47.5996C54.0329 47.61 54.1232 47.6482 54.2082 47.7142C54.2829 47.7732 54.3402 47.8426 54.3766 47.9225C54.4131 48.0023 54.4287 48.0839 54.42 48.1672C54.4113 48.2505 54.3801 48.3269 54.3245 48.398L53.7552 49.127V49.1305Z" fill="white"/>
<path id="Vector_92" d="M57.1138 45.5359C57.0183 45.4768 56.9194 45.4439 56.8118 45.4334C56.7059 45.4248 56.5948 45.4387 56.4803 45.4768C56.3657 45.515 56.2494 45.5758 56.1314 45.6591C56.0134 45.7424 55.8936 45.8465 55.7739 45.9715C55.6905 46.0618 55.6107 46.1347 55.5378 46.1902C55.4649 46.2475 55.3972 46.2857 55.3347 46.3082C55.2722 46.3291 55.2115 46.336 55.1525 46.3291C55.0935 46.3221 55.0362 46.3013 54.9806 46.2666C54.9043 46.2197 54.8522 46.1572 54.821 46.0791C54.7915 46.001 54.7845 45.9142 54.8001 45.8188C54.8158 45.7233 54.8557 45.6244 54.9182 45.522C54.9737 45.4334 55.0397 45.3571 55.1195 45.2981C55.1993 45.239 55.2879 45.1939 55.3868 45.1644C55.4857 45.1349 55.5951 45.121 55.7148 45.1228L55.6038 44.642C55.4614 44.6385 55.326 44.6593 55.1976 44.7062C55.0692 44.7531 54.9494 44.826 54.8401 44.9214C54.7307 45.0169 54.6318 45.1349 54.545 45.2772C54.4617 45.4109 54.4044 45.548 54.3714 45.6869C54.3384 45.8257 54.3298 45.9594 54.3471 46.0878C54.3645 46.2162 54.4044 46.3343 54.4686 46.4401C54.5328 46.5478 54.6214 46.6345 54.7307 46.7022C54.8435 46.7717 54.9563 46.8168 55.0674 46.8393C55.1785 46.8619 55.2913 46.8584 55.4076 46.8307C55.5222 46.8029 55.635 46.7526 55.7478 46.6762C55.8606 46.5998 55.9735 46.5009 56.0898 46.3759C56.1609 46.2961 56.2286 46.2301 56.2928 46.1746C56.357 46.1208 56.4195 46.0756 56.4803 46.0427C56.541 46.0097 56.5983 45.9871 56.6521 45.975C56.7059 45.9628 56.7597 45.9628 56.8118 45.9732C56.8639 45.9837 56.9125 46.0027 56.9611 46.0323C57.0322 46.0756 57.0808 46.1381 57.1069 46.2197C57.1329 46.3013 57.1364 46.3915 57.1173 46.4922C57.0982 46.5929 57.0583 46.6936 56.9975 46.7925C56.8968 46.9556 56.7753 47.0737 56.6313 47.1483C56.4872 47.2229 56.2842 47.2681 56.0203 47.2837L56.1748 47.7818C56.3432 47.7732 56.4994 47.7419 56.6434 47.6881C56.7875 47.6343 56.9194 47.5545 57.0357 47.4521C57.1537 47.3496 57.2579 47.2229 57.3516 47.0737C57.48 46.8671 57.5547 46.6658 57.5772 46.4731C57.5998 46.2805 57.572 46.1034 57.4939 45.9437C57.4158 45.7823 57.2874 45.6487 57.1121 45.5393L57.1138 45.5359Z" fill="white"/>
<path id="Vector_93" d="M58.2871 44.314L56.2129 43.2865L56.4455 42.8179L56.0307 42.6113L55.3451 43.9964L55.7599 44.203L55.9925 43.7343L58.0649 44.7618L57.8323 45.2305L58.2472 45.437L58.9345 44.0519L58.5197 43.8454L58.2871 44.314Z" fill="white"/>
<path id="Vector_94" d="M57.4643 40.3479L57.0148 40.1743L56.1643 42.3561L56.6121 42.5296L56.9419 41.6861L59.5124 42.6876L59.693 42.2224L57.1241 41.2192L57.4643 40.3479Z" fill="white"/>
<path id="Vector_95" d="M57.8202 37.2915L57.6692 37.8452L58.7384 39.0202L57.1988 39.5687L57.0409 40.1502L59.1185 39.3917L60.5036 39.7683L60.6338 39.2858L59.2417 38.9074L57.8202 37.2915Z" fill="white"/>
</g>
</g>
<defs>
<clipPath id="clip0_289_1968">
<rect width="64" height="64" fill="white" transform="translate(0.839355)"/>
</clipPath>
</defs>
</svg>
