<svg width="82" height="60" viewBox="0 0 82 60" fill="none" xmlns="http://www.w3.org/2000/svg">
<g id="&#234;&#176;&#128;&#237;&#134;&#168;&#235;&#166;&#173;&#235;&#140;&#128;&#237;&#149;&#153;&#234;&#181;&#144;" clip-path="url(#clip0_289_1918)">
<path id="Vector" d="M78.3953 9.44424C67.1355 4.72212 53.6262 2.33016 41.333 2.33016C29.0397 2.33016 15.5335 4.72212 4.27372 9.44424C3.54039 9.80582 3.18456 10.1303 3.18456 10.9616V49.0507C3.18456 49.8821 3.54039 50.2035 4.27372 50.5681C15.5335 55.2902 29.0428 57.6853 41.3361 57.6853C53.6293 57.6853 67.1386 55.2902 78.3984 50.5681C79.1317 50.2035 79.4876 49.8821 79.4876 49.0507V10.9616C79.4876 10.1303 79.1317 9.80582 78.3984 9.44424H78.3953ZM67.2778 10.05C67.6553 8.69328 68.7971 7.99176 70.0564 8.34097C70.403 8.43678 70.6815 8.58202 70.9135 8.78599L70.929 8.79835L70.6877 9.46897L70.6536 9.43188C70.4525 9.20319 70.2019 9.04558 69.9141 8.96523C69.515 8.85398 69.122 8.89724 68.7816 9.08885C68.3825 9.31445 68.0823 9.72547 67.94 10.2508C67.7946 10.7731 67.841 11.2799 68.07 11.6817C68.2587 12.0185 68.5712 12.2596 68.9425 12.3647C69.1993 12.4357 69.6078 12.4697 69.8522 12.3894L69.9017 12.3739L69.7501 13.0693H69.7315C69.4685 13.1156 69.1529 13.0847 68.7662 12.9797C67.4697 12.6212 66.888 11.4715 67.2809 10.05H67.2778ZM61.8908 6.49292L61.897 6.46201L62.5375 6.59181L61.6185 11.1563L60.975 11.0296L61.8877 6.49292H61.8908ZM54.3162 5.27839V5.24749L54.9691 5.33402C54.9691 5.33402 54.4493 9.25882 54.4431 9.31754C54.4988 9.32372 56.1604 9.54314 56.1604 9.54314L56.0768 10.1767L53.7129 9.86454L54.3193 5.27839H54.3162ZM44.6778 6.82668C44.718 6.05099 44.9903 5.39892 45.4421 4.9879C45.8103 4.65722 46.2868 4.49652 46.8221 4.52434C48.0319 4.58614 48.7931 5.59361 48.7188 7.03374C48.6786 7.8187 48.4094 8.47077 47.9638 8.87252C47.5956 9.20319 47.116 9.3608 46.5714 9.33299C46.0269 9.30518 45.5658 9.09503 45.2348 8.73036C44.8325 8.28535 44.6314 7.60546 44.6747 6.82359L44.6778 6.82668ZM36.6483 4.55215C36.6483 4.55215 36.7102 6.41566 36.7133 6.47438C36.769 6.47438 38.576 6.41257 38.6317 6.40948C38.6317 6.35076 38.5668 4.48725 38.5668 4.48725L39.1918 4.46562H39.2196L39.3743 9.11975L38.7215 9.14139C38.7215 9.14139 38.6565 7.10482 38.6534 7.04919C38.5946 7.04919 36.7907 7.111 36.7319 7.111C36.7319 7.16971 36.8 9.20628 36.8 9.20628L36.1471 9.22792L35.9924 4.57378L36.6453 4.55215H36.6483ZM35.4014 10.9864C37.4931 10.8627 39.5043 10.8009 41.3484 10.8009C50.1855 10.8009 62.7448 12.2194 70.4958 14.9575H35.3983V10.9864H35.4014ZM35.4014 17.0837H72.3121C72.3183 17.1733 72.3214 17.2568 72.3245 17.334V18.3848H39.4393V27.3654H54.5761V28.6665H35.4045V17.0806L35.4014 17.0837ZM41.565 25.2454V23.9413H72.3245V25.2454H41.565ZM72.3245 27.3685V28.6696H56.7019V27.3685H72.3245ZM41.565 21.8151V20.5109H72.3245V21.8151H41.565ZM54.5761 30.7958V38.9544H28.3683V37.6503H50.0277V32.0999H28.3683V14.9421H12.2506C17.8387 12.9766 25.9053 11.6941 33.2757 11.1316V30.7989H54.5761V30.7958ZM30.6951 4.95699H30.726L30.7972 5.59052C30.7972 5.59052 29.575 5.72959 29.5193 5.73577C29.5255 5.79449 29.9711 9.72856 29.9711 9.72856L29.3213 9.80273C29.3213 9.80273 28.8757 5.86866 28.8695 5.80994C28.8107 5.81612 27.5885 5.95519 27.5885 5.95519L27.5174 5.31857L30.6982 4.96008L30.6951 4.95699ZM20.8308 6.40639L21.462 6.28586H21.4806L24.1014 10.5228L23.4021 10.6557C23.4021 10.6557 22.7894 9.63276 22.7709 9.59567C22.7306 9.60495 20.8586 9.96034 20.8184 9.96961C20.8122 10.0098 20.6235 11.1872 20.6235 11.1872L19.9489 11.3139L20.8308 6.4033V6.40639ZM12.0123 9.08267C12.2908 8.58821 12.7487 8.23899 13.3366 8.07211C13.6832 7.97631 13.9988 7.95467 14.302 8.0103H14.3237L14.466 8.71182L14.4165 8.69637C14.1257 8.60366 13.8317 8.59748 13.5408 8.68092C13.1448 8.79526 12.8292 9.03322 12.6373 9.37317C12.4146 9.77183 12.3712 10.2787 12.5198 10.804C12.7982 11.7899 13.6182 12.3307 14.4722 12.0927C14.7321 12.0185 15.1003 11.8362 15.2643 11.6415L15.2984 11.6013L15.5273 12.275L15.5119 12.2905C15.3107 12.4636 15.0137 12.6057 14.6362 12.7108C14.039 12.8777 13.4697 12.8251 12.987 12.5532C12.4486 12.2503 12.0556 11.7033 11.8483 10.9709C11.6565 10.2848 11.7153 9.61422 12.0123 9.07958V9.08267ZM10.3786 17.334C10.3786 17.2506 10.3848 17.161 10.391 17.0652H26.2425V32.0968H10.3786V17.334ZM10.3786 34.223H47.902V35.5272H26.2425V41.0775H56.705V30.7927H72.3276V41.6554C72.3183 42.0881 72.2626 42.7618 71.9625 43.1543C71.7118 43.4818 71.3684 43.6858 71.1425 43.794C67.2717 45.2465 62.0734 46.3436 56.705 47.0822V42.3786H10.4436C10.3971 42.1221 10.3817 41.8594 10.3786 41.6554V34.2199V34.223ZM54.5761 44.5048V47.3541C49.9318 47.9073 45.2781 48.1885 41.3515 48.1885C33.0436 48.1885 21.4713 46.9307 13.6522 44.5048H54.5761ZM10.1063 50.5434C9.66691 50.392 9.3544 50.1386 9.18421 49.7863C8.97071 49.3505 8.9769 48.785 9.21206 48.1082L10.0908 45.5617L10.1001 45.5339L10.7189 45.744L9.85875 48.238C9.66691 48.7973 9.64216 49.2145 9.78449 49.5081C9.8835 49.709 10.0568 49.8481 10.3167 49.9377C10.5704 50.0242 10.7994 50.0211 10.9974 49.9253C11.2914 49.7832 11.5265 49.4401 11.7215 48.8777L12.5786 46.3837L13.1943 46.597L12.3094 49.1744C11.8885 50.4012 11.1026 50.8895 10.1063 50.5465V50.5434ZM15.286 52.0762C15.286 52.0762 14.5867 48.1854 14.5557 48.0031C14.5031 48.1885 13.5223 51.5663 13.5223 51.5663L12.8942 51.384L14.1875 46.94L14.1968 46.9122L15.0199 47.1501C15.0199 47.1501 15.6913 50.939 15.7284 51.1306C15.7841 50.939 16.7433 47.6477 16.7433 47.6477L17.3684 47.83L16.0688 52.3018L15.2922 52.0762H15.286ZM17.9934 52.7901L17.3591 52.6294L18.4947 48.1452L18.5039 48.1143L19.1352 48.275L17.9903 52.7901H17.9934ZM20.3172 53.3402L19.7726 48.4945V48.4543L20.4811 48.6088C20.4811 48.6088 20.8494 52.614 20.8617 52.753C20.936 52.6325 22.9751 49.1527 22.9751 49.1527L23.6465 49.298L21.0814 53.5071L20.3141 53.3402H20.3172ZM26.5117 50.4476C26.5117 50.4476 24.8687 50.1602 24.8099 50.1509C24.8006 50.2065 24.5964 51.3593 24.5872 51.4149C24.6459 51.4242 26.1373 51.6868 26.1373 51.6868L26.026 52.3173C26.026 52.3173 24.5315 52.0546 24.4758 52.0453C24.4665 52.101 24.2344 53.4236 24.222 53.4793C24.2777 53.4885 25.9238 53.779 25.9238 53.779L25.8125 54.4095L23.467 53.9954L24.2715 49.437V49.4092L26.62 49.8202L26.5086 50.4507L26.5117 50.4476ZM30.0144 51.5849C29.9432 52.104 29.5595 52.4687 29.0521 52.5212C29.2006 52.6232 29.278 52.7468 29.3615 53.0219L29.903 54.9874L29.1666 54.8885L28.7488 53.2042C28.6313 52.753 28.458 52.7314 28.1455 52.6881C28.1455 52.6881 27.8732 52.651 27.8237 52.6449C27.8144 52.7036 27.5483 54.666 27.5483 54.666L26.9016 54.5764L27.5266 49.9902V49.9593L28.5663 50.1015C29.0366 50.1664 29.5564 50.2807 29.8349 50.6454C29.9711 50.8246 30.0391 51.0471 30.0391 51.316C30.0391 51.4025 30.0329 51.4891 30.0206 51.5849H30.0144ZM32.171 52.4224C32.6506 52.7438 33.1921 53.1053 33.1055 53.9799C33.0158 54.8638 32.4062 55.315 31.4315 55.2192C31.1314 55.1913 30.856 55.0677 30.5961 54.9441L30.5775 54.9318L30.7106 54.2642L30.7477 54.2828C30.856 54.3477 31.2335 54.5547 31.5708 54.5856C31.7409 54.6011 31.9947 54.5671 32.1803 54.4126C32.3196 54.2982 32.4 54.1406 32.4186 53.9459C32.465 53.4947 32.1308 53.2753 31.7409 53.0219C31.2923 52.7283 30.7848 52.3945 30.8622 51.6065C30.9395 50.8308 31.5213 50.3858 32.3412 50.4661C32.6383 50.497 32.957 50.5898 33.2138 50.7195L33.2354 50.7319L33.0776 51.3871L33.0436 51.3685C32.7589 51.2078 32.598 51.1337 32.301 51.1028C32.1649 51.0904 31.9142 51.0873 31.7379 51.2326C31.6296 51.3191 31.5677 51.4489 31.5522 51.6158C31.5151 51.9773 31.8183 52.1813 32.171 52.4193V52.4224ZM34.6155 55.4139L33.9626 55.3675L34.3029 50.7505V50.7195L34.9558 50.7659L34.6155 55.4108V55.4139ZM38.8824 51.6127C38.8824 51.6127 37.654 51.557 37.5983 51.557C37.5952 51.6158 37.4188 55.5715 37.4188 55.5715L36.7659 55.5437C36.7659 55.5437 36.9423 51.5879 36.9454 51.5323C36.8897 51.5292 35.6582 51.4736 35.6582 51.4736L35.6861 50.8648V50.8339L38.9102 50.9761L38.8824 51.6158V51.6127ZM43.2792 51.044C43.2792 51.044 41.6671 53.7049 41.664 53.7018V55.6549H41.0081C41.0081 55.6549 41.0112 53.7265 41.0112 53.7111C41.0019 53.6956 39.3991 51.041 39.3991 51.041L39.3712 50.9946H40.1355C40.1355 50.9946 41.2989 52.9477 41.3484 53.0312C41.3979 52.9477 42.5397 51.0008 42.5397 51.0008H43.304L43.2761 51.0471L43.2792 51.044ZM48.7219 54.9472C48.3939 55.3181 47.936 55.5282 47.3914 55.5591C46.163 55.6333 45.3152 54.7371 45.2286 53.2753C45.1419 51.8383 45.8969 50.8215 47.1067 50.7505C48.3166 50.6794 49.186 51.5972 49.2727 53.0343C49.3191 53.8192 49.1242 54.496 48.725 54.9441L48.7219 54.9472ZM51.0519 55.1944L50.4021 55.2593L49.9318 50.6237L52.1534 50.3981H52.1812L52.2462 51.0317C52.2462 51.0317 50.7053 51.1862 50.6465 51.1955C50.6527 51.2511 50.7703 52.4162 50.7765 52.4718C50.8353 52.4656 52.305 52.3173 52.305 52.3173L52.37 52.9508C52.37 52.9508 50.8971 53.0992 50.8384 53.1053C50.8445 53.1641 51.0488 55.1883 51.0488 55.1883L51.0519 55.1944ZM58.4315 54.2055C58.4315 54.2055 57.5744 54.3384 57.5497 54.3322C57.5497 54.3322 55.5601 52.5522 55.4425 52.444C55.4673 52.5985 55.7829 54.6165 55.7829 54.6165L55.1362 54.7154L54.4183 50.1138L55.0619 50.0149C55.0619 50.0149 55.3435 51.8197 55.3652 51.965C55.5725 51.6374 56.7607 49.7615 56.7792 49.7492L57.5621 49.6286L57.627 49.6163C57.627 49.6163 56.0428 52.0546 56.015 52.0979C56.0521 52.1319 58.4934 54.1962 58.4934 54.1962L58.4284 54.2055H58.4315ZM60.681 53.847C59.4743 54.0881 58.512 53.3186 58.2242 51.8815C57.9395 50.4692 58.5491 49.3598 59.7373 49.1249C60.9224 48.8869 61.9125 49.6781 62.1941 51.0873C62.4818 52.5212 61.8908 53.6029 60.6841 53.847H60.681ZM65.8545 52.5861L64.8396 51.1769C64.5673 50.803 64.3971 50.8463 64.0877 50.9204C64.0877 50.9204 63.8216 50.9853 63.7721 50.9977C63.7876 51.0533 64.2672 52.9786 64.2672 52.9786L63.6329 53.1393L62.5097 48.6181L63.5246 48.3647C63.9856 48.2503 64.5085 48.1669 64.9015 48.4018C65.1552 48.5532 65.3254 48.8159 65.4213 49.2053C65.4461 49.3011 65.4585 49.3969 65.4585 49.4896C65.4585 49.8882 65.2419 50.2405 64.8767 50.4291C65.05 50.4692 65.1676 50.5527 65.3471 50.7783L66.5755 52.4038L65.8545 52.5831V52.5861ZM67.4759 52.1535L66.1732 47.6817L68.4289 47.0265L68.4598 47.0173L68.6393 47.6322C68.6393 47.6322 67.0365 48.0989 66.9808 48.1143C66.9963 48.1669 67.3243 49.2949 67.3397 49.3474C67.3954 49.332 68.8497 48.9086 68.8497 48.9086L69.0292 49.5236C69.0292 49.5236 67.5749 49.9439 67.5192 49.9624C67.5347 50.0149 67.9122 51.3067 67.9245 51.3593C67.9802 51.3438 69.583 50.8772 69.583 50.8772L69.7625 51.4921L67.4759 52.1535ZM73.6859 50.2004C73.6859 50.2004 72.9433 49.2671 72.9186 49.2362C72.8814 49.2485 71.0713 49.8573 71.0342 49.8697C71.0342 49.9099 71.0064 51.1028 71.0064 51.1028L70.3535 51.3222L70.5639 46.3374L71.1734 46.1303L71.192 46.1241L74.3605 49.9748L73.6859 50.2004ZM46.6086 8.69328C46.9489 8.71182 47.2398 8.61293 47.475 8.39969C47.7998 8.1061 48.0041 7.59619 48.0319 6.99665C48.0629 6.40021 47.9081 5.86866 47.608 5.53799C47.3945 5.30312 47.1191 5.17641 46.7911 5.16096C46.4632 5.14242 46.1785 5.23822 45.9433 5.44836C45.6092 5.74504 45.3987 6.26114 45.3678 6.85758C45.3276 7.67345 45.6277 8.64074 46.6117 8.69328H46.6086ZM71.0404 49.2362C71.1147 49.2114 72.4483 48.7633 72.5225 48.7355C72.473 48.6737 71.1858 47.0574 71.0899 46.9369C71.0899 47.0883 71.0404 49.1558 71.0404 49.2362ZM81.3596 8.66238C80.9944 8.10919 80.4777 7.79088 80.1869 7.64564C68.7693 2.73191 54.5638 0 41.3422 0C28.1207 0 13.9091 2.73191 2.49146 7.64564C2.2006 7.79397 1.68387 8.11228 1.31875 8.66238C0.922697 9.26191 0.848436 10.2879 0.83606 10.9462V49.06C0.848436 49.7183 0.919603 50.7443 1.31875 51.3438C1.64983 51.8445 2.10778 52.1535 2.40482 52.3173C13.8441 57.2526 28.0836 60 41.3392 60C54.5947 60 68.828 57.2557 80.2704 52.3173C80.5674 52.1535 81.0285 51.8414 81.3565 51.3438C81.7525 50.7443 81.8268 49.7183 81.8361 49.06V10.9462C81.8268 10.2879 81.7525 9.26191 81.3565 8.66238H81.3596ZM80.2921 49.0755C80.2921 49.8821 80.1992 50.0953 80.0755 50.3796C79.8991 50.7937 79.4102 51.0502 79.4102 51.0502C68.1102 56.0258 54.0006 58.5012 41.3392 58.5012C28.6777 58.5012 14.5681 56.0258 3.2681 51.0502C3.2681 51.0502 2.77922 50.7937 2.60285 50.3796C2.48217 50.0984 2.38625 49.8851 2.38625 49.0755V10.9678C2.38625 10.1612 2.48217 9.94798 2.60285 9.66366C2.77922 9.24955 3.2681 8.99305 3.2681 8.99305C14.5681 4.02369 28.6808 1.5452 41.3422 1.5452C54.0037 1.5452 68.1133 4.02369 79.4133 8.99614C79.4133 8.99614 79.9022 9.25264 80.0786 9.66675C80.2023 9.94798 80.2952 10.1643 80.2952 10.9709V49.0785L80.2921 49.0755ZM47.9979 51.6714C47.7596 51.4612 47.4719 51.3685 47.1439 51.3902C46.8159 51.4056 46.5436 51.5354 46.3301 51.7703C46.0331 52.104 45.8814 52.6387 45.9155 53.2351C45.9526 53.8347 46.1599 54.3446 46.4879 54.6351C46.7231 54.8421 47.017 54.9379 47.3543 54.9194C47.6946 54.8978 47.97 54.768 48.1804 54.5331C48.4713 54.2055 48.6167 53.674 48.5796 53.0744C48.5425 52.478 48.332 51.965 47.9948 51.6714H47.9979ZM28.6251 50.7535C28.6251 50.7535 28.1455 50.6886 28.0898 50.6794C28.0805 50.7381 27.9165 51.9495 27.9103 52.0052C27.9629 52.0113 28.3806 52.0701 28.3806 52.0701C28.6777 52.1102 28.9252 52.0639 29.0954 51.9341C29.2285 51.8352 29.3058 51.6899 29.3306 51.5045C29.3368 51.4674 29.3398 51.4334 29.3398 51.3994C29.3398 51.0502 29.083 50.8153 28.6251 50.7535ZM60.7429 49.916C60.4768 49.743 60.1797 49.6874 59.858 49.7523C59.5362 49.8141 59.2824 49.9779 59.1061 50.2405C58.8554 50.6114 58.7812 51.1615 58.8987 51.7486C59.0596 52.546 59.5888 53.4113 60.5572 53.2197C60.8883 53.1517 61.1482 52.9848 61.3215 52.7221C61.5659 52.3575 61.6371 51.8105 61.5164 51.2233C61.3989 50.6392 61.1173 50.1602 60.746 49.913L60.7429 49.916ZM63.8216 48.9488C63.8216 48.9488 63.3482 49.0662 63.2987 49.0785C63.3111 49.1342 63.6081 50.3209 63.6205 50.3765C63.6948 50.358 64.0815 50.2622 64.0815 50.2622C64.5302 50.1509 64.7808 49.8975 64.7808 49.5637C64.7808 49.505 64.7715 49.4463 64.7592 49.3845C64.6601 48.9858 64.3167 48.8251 63.8247 48.9488H63.8216ZM21.2764 7.07082C21.2516 7.22225 20.9267 9.26191 20.9174 9.33917C20.9948 9.32372 22.3748 9.06104 22.4522 9.04558C22.4119 8.9776 21.3568 7.20062 21.2764 7.07082Z" fill="#0C2E86"/>
</g>
<defs>
<clipPath id="clip0_289_1918">
<rect width="81" height="60" fill="white" transform="translate(0.839355)"/>
</clipPath>
</defs>
</svg>
