<svg width="65" height="64" viewBox="0 0 65 64" fill="none" xmlns="http://www.w3.org/2000/svg">
<g id="&#236;&#132;&#184;&#236;&#162;&#133;&#235;&#140;&#128;&#237;&#149;&#153;&#234;&#181;&#144;" clip-path="url(#clip0_289_1775)">
<path id="Vector" d="M32.8409 64C50.4885 64 64.8394 49.6388 64.8394 32.0015C64.8394 14.3642 50.4885 0 32.8409 0C15.1932 0 0.839355 14.3582 0.839355 32.0015C0.839355 49.6448 15.1932 64 32.8409 64ZM2.17961 32.0015C2.17961 15.0942 15.9351 1.34337 32.8409 1.34337C49.7466 1.34337 63.4931 15.0942 63.4931 32.0015C63.4931 48.9088 49.7466 62.6566 32.8409 62.6566C15.9351 62.6566 2.17961 48.9028 2.17961 32.0015Z" fill="#C10230"/>
<path id="Vector_2" d="M54.8922 28.812C53.3634 17.9275 43.9159 9.72363 32.9156 9.72363C21.9154 9.72363 12.4678 17.9185 10.9301 28.7851L12.1328 28.9527C13.5837 18.6754 22.5197 10.9324 32.9156 10.9324C43.3116 10.9324 52.2506 18.6874 53.6955 28.9796L54.8922 28.809V28.812Z" fill="#C10230"/>
<path id="Vector_3" d="M27.0521 46.7818V46.5304L27.6264 46.4646L27.7641 46.4167L27.8239 46.2552C27.8448 46.0936 27.8568 45.7466 27.8568 45.202V44.478C27.8568 44.2297 27.8568 43.9544 27.8478 43.6672L27.8418 43.4069L27.8209 43.2872L27.773 43.2543L27.6414 43.3052C27.2495 43.4787 27.0012 43.5864 26.8905 43.6522L26.8546 43.6313L26.8247 43.4368L26.7858 43.2453L26.7918 43.2244C27.1538 43.1256 27.441 43.0299 27.6564 42.9641C27.8688 42.8893 28.2008 42.7696 28.6526 42.6021L28.7214 42.6469C28.7214 42.6798 28.7124 42.7696 28.7004 42.9342C28.6885 43.0897 28.6795 43.1915 28.6795 43.2393C28.6795 43.4099 28.6675 43.8587 28.6556 44.5797V45.0315C28.6556 45.4653 28.6615 45.7735 28.6795 45.941C28.6795 46.2043 28.6915 46.3479 28.7124 46.3928L28.7752 46.4556C28.8231 46.4766 28.9637 46.4975 29.203 46.5095L29.3975 46.5244V46.7758C28.9547 46.7608 28.5987 46.7548 28.3265 46.7548C28.141 46.7548 27.7102 46.7608 27.0431 46.7758L27.0521 46.7818Z" fill="#C10230"/>
<path id="Vector_4" d="M31.8207 44.4837L31.6293 44.7021L31.354 44.7829L31.0519 44.6752L30.8275 44.3879C30.7736 44.2503 30.7437 44.0678 30.7437 43.8464C30.7437 43.5412 30.7916 43.3318 30.8963 43.2061C30.998 43.0775 31.1207 43.0117 31.2762 43.0117C31.4737 43.0117 31.6293 43.1044 31.725 43.2929C31.8267 43.4814 31.8776 43.7447 31.8776 44.0858C31.8776 44.2593 31.8626 44.3879 31.8237 44.4837H31.8207ZM31.2762 46.7157C31.5305 46.6109 31.7609 46.4524 31.9793 46.2429C32.1887 46.0335 32.3592 45.7792 32.4819 45.483C32.6075 45.1868 32.6703 44.8248 32.6703 44.3999C32.6703 44.0289 32.6225 43.7297 32.5297 43.4934C32.437 43.248 32.2934 43.0536 32.093 42.907C31.9015 42.7574 31.6532 42.6855 31.348 42.6855C30.9561 42.6855 30.636 42.8142 30.3817 43.0865C30.1245 43.3587 29.9958 43.7118 29.9958 44.1695C29.9958 44.5435 30.0916 44.8278 30.2681 45.0342C30.4416 45.2257 30.663 45.3304 30.9232 45.3304L31.357 45.2586L31.4617 45.1898C31.5335 45.1329 31.6592 45.0162 31.8566 44.8427C31.8237 45.1539 31.7908 45.3872 31.7429 45.5398C31.6801 45.7373 31.5934 45.9168 31.4916 46.0784C31.378 46.2429 31.2344 46.3626 31.0578 46.4673C30.8873 46.5631 30.6989 46.6169 30.4984 46.6169L30.28 46.578L30.2082 46.6947L30.4416 46.8862C30.7377 46.8862 31.013 46.8353 31.2673 46.7216L31.2762 46.7157Z" fill="#C10230"/>
<path id="Vector_5" d="M34.0465 44.1846C34.1692 43.9632 34.3696 43.6251 34.6538 43.1703L34.6388 43.7298L34.6329 44.1218L34.6209 45.2198H33.5319C33.7503 44.7501 33.9208 44.406 34.0495 44.1876L34.0465 44.1846ZM34.932 46.7606L35.7069 46.7756H35.9492V46.5273L35.5573 46.4914L35.4346 46.4375L35.3838 46.3418C35.3688 46.234 35.3658 46.0306 35.3658 45.7284H35.9342L35.9133 45.504L35.9342 45.2318L35.9133 45.1988L35.4795 45.2168H35.3658V44.5346C35.3688 43.8914 35.3748 43.4815 35.3838 43.296C35.3957 43.0148 35.4017 42.7963 35.4137 42.6587L35.3598 42.6108C35.3239 42.6108 35.1953 42.6318 34.9649 42.6856L34.6059 42.7574C34.5222 42.8681 34.3786 43.0716 34.1841 43.3857C33.9897 43.6939 33.7533 44.1218 33.4721 44.6633C33.2687 45.0612 33.137 45.3305 33.0862 45.4861L33.1221 45.7404C33.4901 45.7254 33.849 45.7254 34.214 45.7254H34.6179C34.6059 46.0426 34.6059 46.2161 34.597 46.249L34.5461 46.4315L34.4504 46.4734C34.4025 46.4914 34.217 46.5003 33.8879 46.5213V46.7726L34.932 46.7516V46.7606Z" fill="#C10230"/>
<path id="Vector_6" d="M37.3403 43.4395C37.3822 43.2869 37.451 43.1762 37.5317 43.1074L37.816 43.0087L38.0673 43.0895L38.2497 43.3348C38.3006 43.4485 38.3395 43.619 38.3664 43.8404C38.4203 44.2593 38.4502 44.6722 38.4502 45.094C38.4502 45.7463 38.3903 46.1472 38.2886 46.3177C38.1779 46.4793 38.0463 46.5661 37.8848 46.5661L37.5317 46.3925C37.43 46.2728 37.3582 46.0305 37.3134 45.6685C37.2685 45.3005 37.2446 44.8816 37.2446 44.4358C37.2446 43.99 37.2745 43.6609 37.3403 43.4395ZM36.5595 45.7164C36.6043 45.9737 36.6731 46.1951 36.7838 46.3566C36.8945 46.5272 37.0321 46.6618 37.2027 46.7516C37.3792 46.8383 37.5736 46.8802 37.807 46.8802C38.0014 46.8802 38.166 46.8533 38.3006 46.7964L38.6716 46.5661C38.7793 46.4613 38.881 46.3177 38.9647 46.1382C39.0545 45.9647 39.1203 45.7463 39.1472 45.4979C39.1771 45.2466 39.1981 44.9564 39.1981 44.6213C39.1981 44.1486 39.1532 43.7806 39.0724 43.5173C38.9887 43.251 38.854 43.0446 38.6656 42.895C38.4771 42.7574 38.2228 42.6855 37.8848 42.6855C37.7232 42.6855 37.5676 42.7095 37.4211 42.7574L37.0411 42.9907C36.9304 43.0835 36.8317 43.2151 36.7479 43.3737C36.6642 43.5323 36.5984 43.7028 36.5714 43.8973C36.5206 44.1815 36.4966 44.4986 36.4966 44.8517C36.4966 45.1718 36.5176 45.4591 36.5505 45.7164H36.5595Z" fill="#C10230"/>
<path id="Vector_7" d="M24.198 4.85876L24.2968 4.93057L24.3865 5.13103C24.4643 5.38534 24.5331 5.6606 24.6079 5.98073L24.8083 6.83343L24.9579 7.47669C25.0417 7.83572 25.0925 8.04515 25.1284 8.12892L25.3498 8.5089C25.4545 8.62857 25.5891 8.72731 25.7507 8.80809C25.9122 8.89485 26.1127 8.93973 26.343 8.96068C26.6601 8.98162 26.9892 8.95469 27.3273 8.87092C27.6205 8.8021 27.8658 8.71534 28.0782 8.59865C28.2846 8.47898 28.4551 8.34434 28.5897 8.19175C28.7184 8.0272 28.8111 7.85666 28.862 7.68911C28.9188 7.51259 28.9338 7.31512 28.9128 7.09372C28.8919 6.87232 28.862 6.6569 28.8081 6.45644L28.6256 5.6606C28.5718 5.4362 28.509 5.11308 28.4282 4.70917C28.3504 4.30227 28.3115 4.0689 28.3175 4.01205L28.3564 3.89537C28.4043 3.8475 28.5299 3.79963 28.7393 3.75774L28.6765 3.47949L27.9346 3.67397L27.8448 3.70389C27.77 3.71885 27.5217 3.76672 27.1149 3.84151L27.1777 4.12275C27.429 4.06591 27.5965 4.05394 27.6833 4.07787L27.779 4.13771C27.8179 4.19157 27.8747 4.35911 27.9465 4.63736C27.9795 4.76601 28.0632 5.13103 28.2008 5.71744L28.3564 6.40558C28.4731 6.8783 28.509 7.21639 28.4671 7.40488C28.4312 7.59337 28.3325 7.75793 28.1679 7.91351C28.0124 8.05712 27.773 8.17679 27.4619 8.2486C27.1867 8.31143 26.9623 8.3234 26.7649 8.28151C26.5704 8.2486 26.4178 8.1738 26.3071 8.06011C26.1875 7.95539 26.0947 7.79383 26.0289 7.58739C25.993 7.49464 25.9302 7.24332 25.8374 6.83343L25.7387 6.44149L25.5562 5.6606C25.4485 5.18488 25.3917 4.87971 25.3917 4.7331L25.4276 4.59548C25.4874 4.53564 25.634 4.48477 25.8763 4.42494L25.8075 4.1437L25.6849 4.17661L25.2361 4.2903L24.7814 4.40998L23.6865 4.64035L23.7553 4.9186L24.204 4.85876H24.198Z" fill="#C10230"/>
<path id="Vector_8" d="M31.5335 8.0542V7.77595H31.4647L31.1446 7.74903L31.0249 7.71013L30.9801 7.6473C30.9621 7.59046 30.9472 7.43488 30.9382 7.1686C30.9262 6.78862 30.9202 6.41763 30.9202 6.06159V4.36517C32.2725 6.00773 33.3105 7.2404 34.0495 8.06916C34.2439 8.08711 34.4414 8.12002 34.6328 8.15294L34.6747 8.12302C34.6418 7.79989 34.6328 6.88137 34.6328 5.36747C34.6328 5.17299 34.6328 4.8738 34.6418 4.47288C34.6568 4.06299 34.6777 3.7997 34.7106 3.689L34.7495 3.63814C34.8004 3.60822 34.9679 3.58429 35.2461 3.57531V3.28809C34.8871 3.30005 34.5969 3.30604 34.3726 3.30604C34.1482 3.30604 33.8879 3.30005 33.6067 3.28809V3.57531C33.9089 3.58129 34.0914 3.60822 34.1392 3.64412L34.205 3.80868C34.223 4.02709 34.2409 4.74515 34.2409 5.96884V6.7587C33.9238 6.44156 33.5319 5.9838 33.0503 5.40337C32.3801 4.61051 31.8177 3.9134 31.348 3.29108L31.0339 3.30305L30.5373 3.30903C30.4027 3.30903 30.1903 3.30305 29.9001 3.29108V3.5783C30.1364 3.59625 30.289 3.61121 30.3339 3.62019L30.4446 3.68003L30.4954 3.79073C30.5074 3.84159 30.5134 3.95229 30.5134 4.12283L30.5313 5.11016V6.20819C30.5313 6.51038 30.5253 6.7587 30.5134 6.94719C30.5014 7.2793 30.4805 7.48275 30.4685 7.5725L30.4236 7.69816L30.3578 7.74005C30.3219 7.75202 30.1663 7.758 29.9001 7.77895V8.07215C30.28 8.05719 30.5762 8.04523 30.8006 8.04523C30.8544 8.04523 31.1027 8.04523 31.5365 8.0542H31.5335Z" fill="#C10230"/>
<path id="Vector_9" d="M10.5562 14.3313L10.6699 14.2864L10.7835 14.3224L11.0408 14.5168L11.7977 15.1601L12.6204 15.8871C12.8508 16.0846 13.0332 16.2432 13.1679 16.3808C13.4042 16.6142 13.5568 16.7667 13.6076 16.8296L13.6764 16.9463L13.6675 17.024C13.6495 17.06 13.5568 17.1856 13.3922 17.3921L13.6106 17.5895C13.853 17.2963 14.0444 17.0689 14.191 16.8954C14.2299 16.8595 14.3944 16.674 14.6816 16.3479L14.4752 16.1714L14.4333 16.2222L14.2 16.4496L14.1013 16.5124L14.0205 16.5035C13.9636 16.4795 13.832 16.3838 13.6286 16.2192C13.3354 15.9709 13.0542 15.7375 12.7879 15.5071L11.5105 14.3822C13.6346 14.457 15.25 14.4899 16.354 14.4749C16.5065 14.3433 16.6531 14.2206 16.8027 14.098L16.8087 14.0381C16.5484 13.8466 15.8484 13.2602 14.7116 12.2579C14.568 12.1323 14.3436 11.9288 14.0474 11.6536C13.7453 11.3753 13.5658 11.1868 13.5059 11.0881L13.491 11.0253C13.497 10.9654 13.5957 10.8308 13.7692 10.6124L13.5538 10.4209C13.3294 10.6991 13.1469 10.9235 13.0003 11.0941C12.8418 11.2646 12.6713 11.4591 12.4708 11.6536L12.6832 11.8391C12.8926 11.6177 13.0243 11.495 13.0901 11.486L13.2516 11.5488C13.4311 11.6685 13.9846 12.1353 14.906 12.9401L15.4984 13.4607C15.0436 13.4846 14.4423 13.4876 13.6944 13.4667C12.6533 13.4427 11.7498 13.4038 10.984 13.347L10.7835 13.5953L10.4634 13.9693C10.3797 14.077 10.2271 14.2296 10.0237 14.436L10.245 14.6275C10.4156 14.457 10.5203 14.3583 10.5622 14.3313H10.5562Z" fill="#C10230"/>
<path id="Vector_10" d="M37.7711 8.56278L37.8189 8.27555C37.6035 8.23666 37.4719 8.20973 37.427 8.18879L37.3403 8.14391L37.3044 8.06911C37.2954 7.99431 37.3044 7.74898 37.3403 7.52757L37.4181 6.92321L37.6125 5.60377C37.6245 5.56787 37.6664 5.27167 37.7591 4.73612C37.783 4.57456 37.81 4.47283 37.8189 4.41599L37.8818 4.21254L37.9237 4.16766L38.0164 4.13774C38.0613 4.13175 38.1899 4.14073 38.4083 4.17364L38.4592 3.88342C38.0972 3.83855 37.7202 3.79068 37.3223 3.73383C36.9693 3.67698 36.6522 3.62911 36.377 3.57227L36.3351 3.86248C36.5714 3.90736 36.709 3.93728 36.7479 3.95224L36.8197 4.00011L36.8377 4.07192C36.8377 4.14073 36.8257 4.31725 36.8018 4.59251C36.7868 4.72415 36.7479 5.00539 36.6821 5.43922L36.4787 6.80652C36.4458 7.03092 36.4009 7.27326 36.3411 7.52757C36.2992 7.71008 36.2783 7.90156 36.2693 7.9255L36.2364 7.97337L36.1317 7.9973C36.0958 7.9973 35.9582 7.98833 35.7398 7.9614L35.6919 8.24863C35.9671 8.27854 36.2842 8.32043 36.6343 8.37429C37.0411 8.43712 37.4181 8.49396 37.7741 8.56577L37.7711 8.56278Z" fill="#C10230"/>
<path id="Vector_11" d="M56.2683 17.1646C56.1696 17.2394 55.9243 17.389 55.5533 17.6134L54.3746 18.3494C54.1772 18.4691 53.9678 18.5948 53.7374 18.7144C53.5759 18.8012 53.4143 18.9059 53.3844 18.9179L53.3246 18.9239L53.2468 18.8551C53.2199 18.8281 53.1421 18.7204 53.0104 18.5379L52.7651 18.6845C52.9237 18.9149 53.1002 19.1782 53.2857 19.4774C53.5011 19.8304 53.6955 20.1625 53.878 20.4737L54.1263 20.3121C54.0156 20.1296 53.9498 20.0189 53.9379 19.9711L53.9199 19.8693L53.9528 19.7915C54.0037 19.7377 54.1921 19.5881 54.3806 19.4684L54.8922 19.1423L56.029 18.4362C56.0649 18.4182 56.3132 18.2687 56.7799 17.9874L57.0581 17.8259L57.2586 17.7361L57.3274 17.7421L57.4081 17.7899C57.4351 17.8229 57.5129 17.9306 57.6385 18.1221L57.8838 17.9635C57.6864 17.6673 57.474 17.3412 57.2586 17.0031C57.0731 16.6949 56.9145 16.4256 56.7769 16.1743L56.5256 16.3359C56.6423 16.5423 56.7141 16.671 56.7201 16.7039L56.732 16.7936L56.6961 16.8565C56.6453 16.9043 56.5017 17.0031 56.2713 17.1616L56.2683 17.1646Z" fill="#C10230"/>
<path id="Vector_12" d="M39.9161 4.91261C39.94 5.10409 39.9909 5.68153 40.0686 6.63296L40.1614 7.86563C40.1943 8.31741 40.2302 8.7991 40.2631 9.29875L40.7477 9.46032C40.996 9.13719 41.4418 8.59565 42.091 7.85366L42.8598 6.97404L43.2607 6.52226C43.5838 6.14528 43.7872 5.9508 43.862 5.91789C43.9039 5.90593 44.0296 5.91789 44.236 5.97773L44.3287 5.69649L43.6377 5.49005L42.8419 5.20582L42.7491 5.47808L43.0872 5.6187L43.1979 5.66657L43.2308 5.72342L43.2218 5.80719L43.1919 5.88797C43.141 5.96277 43.0244 6.11835 42.8509 6.33676C42.5936 6.65091 42.459 6.82743 42.429 6.86633L41.1426 8.37425L40.9901 6.15725V6.09142C40.9901 6.07347 40.9811 5.9508 40.9661 5.73239C40.9362 5.34644 40.9332 5.11905 40.9572 5.05921L41.011 4.98741L41.1217 4.97544C41.2114 4.98442 41.3461 5.01434 41.5136 5.07118L41.6093 4.79593L40.4635 4.43989C40.3528 4.40698 40.0507 4.29628 39.5451 4.11377L39.4554 4.38304C39.6528 4.45485 39.7725 4.52067 39.8263 4.57452C39.8622 4.61043 39.8951 4.72711 39.922 4.91261H39.9161Z" fill="#C10230"/>
<path id="Vector_13" d="M45.0766 7.77597L44.3227 9.07745C44.233 9.22704 44.0864 9.46341 43.88 9.78354C43.7723 9.95408 43.6825 10.0857 43.6257 10.1575L43.2487 10.1665L43.156 10.3191C43.7633 10.6512 44.0834 10.8367 44.1253 10.8636C44.3018 10.9594 44.6189 11.1449 45.0647 11.4171L45.5284 11.7014C45.7557 11.833 45.9322 11.9228 46.0669 11.9766L46.1207 11.9646C46.2703 11.7133 46.4707 11.4171 46.737 11.0611L46.5007 10.9205C46.3062 11.1598 46.1716 11.3124 46.0818 11.3872L46.013 11.4111C45.9622 11.4171 45.8395 11.3752 45.657 11.2825C45.4715 11.1927 45.2741 11.091 45.0617 10.9683C44.8523 10.8457 44.6698 10.738 44.5232 10.6303L44.7176 10.2712L45.4237 9.04454C45.5523 9.10737 45.7109 9.19413 45.8993 9.29885C46.1028 9.41853 46.2703 9.53222 46.39 9.62497L46.4767 9.76858C46.4767 9.84039 46.4109 9.99297 46.2733 10.2114L46.5216 10.355L46.8806 9.70874L47.2635 9.08343L47.0272 8.95179C46.9285 9.11634 46.8387 9.23901 46.7699 9.29586L46.7011 9.32877L46.5036 9.24799C46.2254 9.0954 46.0669 9.00564 46.019 8.97572L45.6151 8.73338L45.9622 8.135C46.1536 7.79691 46.3331 7.52465 46.4827 7.33017C46.6652 7.41993 46.8507 7.50669 47.0242 7.6144C47.2007 7.71912 47.3862 7.8358 47.5597 7.97343L47.7691 8.15295V8.23074C47.7482 8.29058 47.6734 8.43419 47.5507 8.66456L47.7751 8.79322C47.9366 8.55686 48.0264 8.41923 48.0473 8.40128L48.3435 8.01233V7.96147L48.2538 7.88966C48.0503 7.75802 47.9157 7.67424 47.8409 7.63834L47.2486 7.30923C46.9165 7.12672 46.6263 6.95917 46.363 6.80659L45.9801 6.58818L45.3219 6.17529L45.1754 6.42661C45.3967 6.57322 45.5254 6.66298 45.5613 6.71683L45.5822 6.79163C45.5792 6.84249 45.5104 6.9861 45.3937 7.2075C45.2083 7.53362 45.1036 7.73109 45.0707 7.77597H45.0766Z" fill="#C10230"/>
<path id="Vector_14" d="M4.7554 27.3519L4.81822 27.316C4.87207 27.304 5.02764 27.325 5.27594 27.3729C5.64092 27.4477 5.85333 27.4955 5.91017 27.5045L7.37308 27.8486C7.54659 27.8905 7.81584 27.9682 8.18082 28.067C8.38724 28.1208 8.53084 28.1657 8.6176 28.2016L8.7253 28.5636L8.90479 28.6055C9.0454 27.9323 9.12617 27.5643 9.14113 27.5075C9.18002 27.319 9.27276 26.963 9.4014 26.4513L9.53004 25.9278C9.58689 25.6734 9.62578 25.473 9.64373 25.3294L9.61082 25.2785C9.3326 25.2157 8.98557 25.111 8.56973 24.9644L8.50391 25.2306C8.78812 25.3413 8.97659 25.4251 9.06933 25.4909L9.1172 25.5418C9.13814 25.5986 9.12917 25.7183 9.09925 25.9278C9.06933 26.1312 9.02147 26.3466 8.9736 26.583C8.91975 26.8223 8.85992 27.0258 8.80906 27.2053C8.69538 27.1784 8.56076 27.1574 8.40818 27.1185L7.03203 26.8014C7.05297 26.6608 7.08588 26.4843 7.13075 26.2748C7.1876 26.0415 7.24444 25.856 7.30427 25.7093L7.41496 25.5897C7.48377 25.5717 7.63933 25.5897 7.89063 25.6465L7.95345 25.3623L7.24145 25.2157L6.53243 25.0362L6.46661 25.3024C6.66107 25.3533 6.79569 25.3952 6.87048 25.4461L6.92433 25.5089L6.90339 25.7183C6.83757 26.0265 6.80168 26.209 6.7927 26.2599C6.74783 26.4244 6.70893 26.577 6.66107 26.7146L5.99992 26.565C5.61699 26.4753 5.31483 26.3885 5.0755 26.3047C5.10841 26.0983 5.14431 25.8978 5.18918 25.7093C5.23705 25.5029 5.29688 25.2905 5.37167 25.084L5.48835 24.8387L5.55716 24.8058C5.61699 24.8058 5.77854 24.8387 6.03582 24.8896L6.09266 24.6382C5.82042 24.5545 5.66485 24.5036 5.63494 24.4976L5.1832 24.3301L5.13234 24.3391L5.09046 24.4408C5.01866 24.6771 4.98875 24.8387 4.9678 24.9195L4.83318 25.5807C4.75241 25.9457 4.68061 26.2748 4.6118 26.571L4.51008 26.9989L4.31563 27.7498L4.59684 27.8067C4.67163 27.5554 4.72249 27.4117 4.76138 27.3549L4.7554 27.3519Z" fill="#C10230"/>
<path id="Vector_15" d="M49.0435 10.3398L48.2538 11.2942L47.6076 12.0362L47.3323 12.3055L47.2575 12.3653L47.1887 12.3534C47.1469 12.3414 47.0182 12.2516 46.8178 12.0991L46.6323 12.3235C46.8656 12.503 47.1229 12.7004 47.3862 12.9218C47.6883 13.1702 47.9815 13.4245 48.2717 13.6698L48.4542 13.4484C48.2897 13.3078 48.1999 13.221 48.17 13.1791L48.1132 13.0924V13.0355L48.2388 12.8261C48.2777 12.7692 48.4333 12.5688 48.7205 12.2038C48.9568 11.9136 49.1752 11.6383 49.3876 11.381C49.5282 11.2164 49.8034 10.9023 50.2043 10.4236C50.3868 10.2112 50.5124 10.0795 50.5633 10.0107L50.8266 10.1992C51.015 10.3458 51.1347 10.4655 51.1826 10.5612C51.2603 10.6899 51.2933 10.8425 51.2873 11.01C51.2753 11.1716 51.2005 11.3421 51.0719 11.4917C50.9432 11.6413 50.7907 11.755 50.6142 11.8208C50.4376 11.8986 50.2731 11.9106 50.1355 11.8687C49.9889 11.8388 49.8094 11.7281 49.6179 11.5515L49.5162 11.6084L49.5402 11.9136C49.5222 12.1529 49.4893 12.4701 49.4355 12.859L49.232 14.2233L49.1752 14.4208L49.594 14.7499C49.7167 14.8456 49.8992 15.0102 50.1654 15.2286L50.3389 15.0132L50.1893 14.8636L50.1594 14.729C50.1594 14.6721 50.1684 14.5105 50.1774 14.2293C50.1774 14.2143 50.1923 14.0827 50.2193 13.8344L50.315 12.8979L50.321 12.8261L50.3449 12.6017L50.3958 12.2427C50.7488 12.3623 51.0569 12.3923 51.3202 12.3264C51.5924 12.2666 51.8078 12.129 51.9783 11.9195C52.1279 11.743 52.2027 11.5605 52.2117 11.3601C52.2207 11.1536 52.1668 10.9801 52.0681 10.8365C51.9664 10.6839 51.7779 10.4984 51.5116 10.274C51.371 10.1573 51.1915 10.0197 50.9732 9.85213C50.8355 9.75639 50.677 9.62774 50.5005 9.47815C50.2881 9.30461 50.1235 9.16998 50.0158 9.06825C49.7855 8.8678 49.6538 8.75111 49.612 8.72119L49.4414 8.93063C49.6359 9.1251 49.7466 9.24777 49.7765 9.29863V9.37343C49.7615 9.42728 49.6598 9.56192 49.4893 9.78033L49.0555 10.3368L49.0435 10.3398Z" fill="#C10230"/>
<path id="Vector_16" d="M51.4099 16.5034C51.2603 16.3089 51.1646 16.0965 51.1257 15.8751C51.0838 15.6358 51.0868 15.4503 51.1496 15.2977C51.3202 15.1301 51.4727 14.9985 51.6044 14.8998L51.4279 14.6754C51.018 14.9985 50.6829 15.2019 50.4376 15.3037C50.4945 15.5909 50.5693 15.8332 50.659 16.0307C50.7517 16.2312 50.8774 16.4466 51.0449 16.662C51.2753 16.9612 51.5146 17.1916 51.7659 17.3352C51.9215 17.4279 52.104 17.4967 52.3074 17.5386C52.5108 17.5835 52.7113 17.5925 52.8878 17.5685C53.1391 17.5296 53.3754 17.416 53.5998 17.2454L53.9169 16.9223L54.0754 16.5962L54.0934 16.2401C54.0814 16.1175 54.0366 15.9619 53.9648 15.7943C53.9319 15.7225 53.8571 15.5939 53.7464 15.3785C53.6417 15.175 53.5579 15.0045 53.5011 14.8908C53.4322 14.7232 53.3904 14.5916 53.3814 14.4929L53.4322 14.1996L53.6746 13.9184C53.8391 13.7957 54.0336 13.7539 54.2609 13.7868C54.4823 13.8316 54.6857 13.9723 54.8742 14.2176C54.9969 14.3822 55.0836 14.5557 55.1345 14.7412C55.1794 14.9237 55.1824 15.0733 55.1465 15.184C55.0687 15.2708 54.9281 15.3874 54.7306 15.555L54.8952 15.7734C55.0836 15.6388 55.2422 15.537 55.3589 15.4592L55.7448 15.2558L55.7897 15.184C55.7538 15.0075 55.6849 14.816 55.5802 14.6095C55.4785 14.4031 55.3529 14.2146 55.2093 14.0231C55.0687 13.8376 54.9161 13.6761 54.7396 13.5295C54.5721 13.3858 54.3836 13.2931 54.1891 13.2273C53.9887 13.1525 53.7793 13.1495 53.5459 13.2003C53.3036 13.2392 53.0972 13.335 52.8938 13.4936L52.5467 13.8646C52.457 14.0082 52.4091 14.1608 52.3912 14.3223C52.3792 14.4809 52.4061 14.6574 52.4749 14.8459C52.5228 14.9716 52.6365 15.2199 52.819 15.5999C52.9386 15.8691 53.0104 16.0576 53.0314 16.1863L52.9865 16.5244L52.7502 16.8116L52.3194 17.0091C52.1668 17.021 52.0142 16.9881 51.8497 16.8984C51.6881 16.8116 51.5445 16.6889 51.4099 16.5184V16.5034Z" fill="#C10230"/>
<path id="Vector_17" d="M5.98197 32.3783C6.13454 32.3214 6.26917 32.2437 6.38285 32.127C6.49354 32.0103 6.58628 31.8577 6.64911 31.6632C6.69398 31.5376 6.7568 31.2683 6.84955 30.8644C6.92434 30.5831 6.99314 30.3857 7.05597 30.278L7.30427 30.0326L7.66626 29.9578C7.83678 29.9698 7.98637 30.0057 8.118 30.0835C8.24963 30.1643 8.35134 30.2899 8.41716 30.4605C8.49195 30.628 8.52486 30.8165 8.52187 31.0349C8.51289 31.2773 8.45904 31.5047 8.34835 31.7051C8.23467 31.9086 8.10902 32.0552 7.96542 32.136C7.72609 32.1599 7.52266 32.1629 7.35812 32.1539V32.4351C7.88166 32.4501 8.26758 32.498 8.52486 32.5728C8.65649 32.3155 8.74624 32.0851 8.80906 31.8667C8.85992 31.6543 8.89283 31.4059 8.89582 31.1277C8.91078 30.7567 8.86291 30.4276 8.7612 30.1553C8.69538 29.9878 8.60264 29.8172 8.46802 29.6586C8.33639 29.4971 8.1898 29.3684 8.03124 29.2697C7.81285 29.15 7.55856 29.0872 7.27436 29.0752C7.10982 29.0692 6.96323 29.0902 6.8316 29.1321L6.49952 29.2817L6.26318 29.545C6.19139 29.6586 6.13155 29.8023 6.0807 29.9848C6.06574 30.0536 6.02984 30.2062 5.98197 30.4365C5.94009 30.6669 5.90419 30.8494 5.87726 30.9811C5.82641 31.1456 5.77256 31.2743 5.71572 31.364L5.49134 31.5555L5.12636 31.6243C4.92592 31.6243 4.74344 31.5346 4.59086 31.364C4.44427 31.1935 4.36948 30.9512 4.37846 30.652C4.38444 30.4365 4.42632 30.2481 4.51009 30.0775C4.58787 29.901 4.67463 29.7873 4.77934 29.7185C4.89003 29.7035 5.07551 29.6975 5.33578 29.6975L5.34475 29.4163C5.11141 29.4073 4.92892 29.3864 4.7913 29.3654L4.36051 29.2876L4.27973 29.3146C4.18699 29.4761 4.13015 29.6706 4.07929 29.892C4.03442 30.1134 4.0045 30.3408 3.99852 30.5802C3.99553 30.8045 4.01348 31.0349 4.05536 31.2533C4.10622 31.4688 4.18101 31.6722 4.29469 31.8427C4.40837 32.0193 4.56992 32.1599 4.77934 32.2736C4.98576 32.3843 5.21911 32.4411 5.46741 32.4501C5.64691 32.4501 5.82042 32.4262 5.97898 32.3753L5.98197 32.3783Z" fill="#C10230"/>
<path id="Vector_18" d="M61.5336 30.4185C61.4768 30.2031 61.381 30.0146 61.2614 29.8471C61.1357 29.6736 60.9682 29.5449 60.7528 29.4492C60.5344 29.3504 60.3011 29.2996 60.0498 29.3175C59.8732 29.3235 59.7057 29.3534 59.5502 29.4163C59.3946 29.4851 59.2659 29.5838 59.1582 29.7035C59.0565 29.8142 58.9787 29.9817 58.9279 30.1792C58.892 30.3049 58.8441 30.5771 58.7693 30.987C58.7155 31.2712 58.6616 31.4657 58.6018 31.5884L58.3685 31.8457L58.0125 31.9354C57.8419 31.9414 57.6894 31.9055 57.5517 31.8367C57.4201 31.7709 57.3154 31.6452 57.2286 31.4837C57.1479 31.3191 57.103 31.1276 57.094 30.9212C57.0821 30.6729 57.1359 30.4515 57.2286 30.239C57.3304 30.0266 57.447 29.874 57.5846 29.7843C57.818 29.7484 58.0184 29.7214 58.18 29.7214L58.171 29.4432C57.6475 29.4552 57.2556 29.4432 57.0013 29.3804C56.8816 29.6377 56.8038 29.88 56.759 30.0954C56.7201 30.3138 56.7021 30.5592 56.7141 30.8434C56.7261 31.2174 56.7949 31.5375 56.9085 31.7978C56.9833 31.9714 57.088 32.1329 57.2316 32.2825C57.3752 32.4321 57.5278 32.5548 57.6983 32.6445C57.9167 32.7522 58.171 32.8001 58.4612 32.7941C58.6257 32.7881 58.7723 32.7582 58.904 32.7104L59.2241 32.5368L59.4425 32.2556C59.5083 32.1419 59.5531 31.9983 59.598 31.8128C59.607 31.738 59.6369 31.5854 59.6578 31.349C59.6908 31.1187 59.7207 30.9391 59.7416 30.8075C59.7835 30.637 59.8284 30.4993 59.8762 30.4185L60.0886 30.2061L60.4476 30.1164C60.6511 30.1074 60.8336 30.1822 60.9951 30.3438C61.1567 30.5083 61.2404 30.7447 61.2554 31.0439C61.2614 31.2563 61.2255 31.4538 61.1567 31.6273C61.0878 31.7978 61.0071 31.9295 60.9113 32.0013C60.8036 32.0222 60.6182 32.0402 60.3609 32.0551L60.3699 32.3364C60.5972 32.3364 60.7887 32.3453 60.9233 32.3453L61.3571 32.3992L61.4379 32.3723C61.5127 32.2047 61.5665 32.0073 61.5994 31.7859C61.6353 31.5555 61.6473 31.3311 61.6383 31.0917C61.6293 30.8554 61.5964 30.637 61.5396 30.4185H61.5336Z" fill="#C10230"/>
<path id="Vector_19" d="M57.477 19.4981C57.6595 19.4233 57.824 19.3664 57.9855 19.3335L58.1112 19.3246L58.186 19.4353C58.2727 19.5968 58.3625 19.7913 58.4582 20.0097L58.6527 20.4555C58.5958 20.4884 58.3146 20.6141 57.809 20.8235L55.9512 21.6223C55.5055 21.8168 55.2332 21.9215 55.1345 21.9425L54.973 21.8916C54.9251 21.8587 54.8413 21.7211 54.7306 21.4757L54.4734 21.5864C54.6558 21.9545 54.8114 22.2955 54.9371 22.5857C55.0597 22.858 55.1913 23.2021 55.3469 23.612L55.6012 23.4983C55.5025 23.25 55.4576 23.0914 55.4606 23.0315L55.5384 22.8909C55.6221 22.8251 55.8854 22.7024 56.3312 22.5109L58.186 21.7151C58.6796 21.4997 58.9608 21.383 59.0416 21.3561L59.2301 21.7989C59.3348 22.0412 59.4125 22.2507 59.4664 22.4182L59.4873 22.5289L59.3766 22.6306C59.233 22.7084 59.0894 22.7952 58.9279 22.873L59.0386 23.1243C59.4754 22.9478 59.7087 22.858 59.7237 22.846L60.0677 22.7413L60.0857 22.6905L59.9391 22.4182C59.8583 22.2477 59.7087 21.8946 59.4843 21.377L58.9458 20.1264C58.7245 19.6208 58.5839 19.2767 58.5121 19.0972L58.4014 18.78L58.3625 18.7681L58.0783 18.9207C58.0244 18.9446 57.7881 19.0553 57.3723 19.2408L57.48 19.5011L57.477 19.4981Z" fill="#C10230"/>
<path id="Vector_20" d="M57.6265 24.7522C57.1838 24.6893 56.8936 24.6474 56.747 24.6235C56.4269 24.5697 56.2414 24.5367 56.1935 24.5218L56.0739 24.4739L56.011 24.3931C55.9931 24.3662 55.9512 24.2615 55.8974 24.085L55.6311 24.1538L55.8286 24.9018L55.9931 25.6587L56.2653 25.5959C56.2085 25.3326 56.1875 25.171 56.2085 25.1112L56.3102 25.0274C56.382 25.0095 56.5795 25.0154 56.9085 25.0633L57.3393 25.1112L57.7432 26.7956L57.088 27.2534L56.8397 27.385L56.732 27.3611C56.7081 27.3342 56.6542 27.1816 56.5765 26.9273L56.3072 26.9931L56.6004 28.133L56.8038 29.0515L57.0701 28.9857L57.0551 28.8421L57.0342 28.6387L57.0551 28.5668L57.1299 28.4831L57.3962 28.2826L57.797 27.9685L60.8575 25.6886L60.7528 25.2159L59.9361 25.1082L57.6265 24.7522ZM58.0753 26.5413C58.0214 26.3498 57.9646 26.1225 57.9018 25.8771C57.8419 25.6138 57.7851 25.3835 57.7492 25.174L59.595 25.4403L58.0783 26.5413H58.0753Z" fill="#C10230"/>
<path id="Vector_21" d="M59.8403 35.209C59.1403 35.209 58.5839 35.7804 58.5839 36.4716C58.5839 37.1627 59.1403 37.7312 59.8403 37.7312C60.5404 37.7312 61.0998 37.1657 61.0998 36.4716C61.0998 35.7774 60.5434 35.209 59.8403 35.209Z" fill="#C10230"/>
<path id="Vector_22" d="M60.4596 40.5732L60.4028 40.6121L60.3339 40.6181C60.2861 40.6091 60.1574 40.5732 59.951 40.5014C59.9181 40.4924 59.7984 40.4445 59.592 40.3667L58.7574 40.0287L58.0842 39.7504L57.7851 39.6188L57.5876 39.4722C57.5667 39.4123 57.5876 39.3076 57.6564 39.1371L57.6684 39.1101L57.465 39.0264L57.1987 39.7444C57.1718 39.8043 57.115 39.9389 57.0192 40.1394L57.2885 40.4026C57.3573 40.4744 57.5428 40.6719 57.8419 41.001L58.3774 41.5785C58.518 41.734 58.7125 41.9465 58.9608 42.2397L57.088 42.3683L56.6632 42.3863L56.1068 42.4102C56.0529 42.5778 55.9901 42.7483 55.9243 42.9099C55.8794 43.0355 55.7777 43.2509 55.6401 43.583L55.8405 43.6638L55.9901 43.3946L56.0469 43.3228L56.1068 43.3168C56.1636 43.3168 56.3132 43.3676 56.5675 43.4634C56.8128 43.5591 57.103 43.6758 57.4231 43.8015C57.7821 43.9421 58.0394 44.0498 58.186 44.1156C58.4881 44.2443 58.6796 44.337 58.7693 44.3819L58.8501 44.4477L58.8621 44.5016C58.8621 44.5435 58.8351 44.6631 58.7753 44.8426L58.9787 44.9234C59.0236 44.7708 59.0954 44.5794 59.1971 44.337C59.2689 44.1515 59.3497 43.972 59.4305 43.7925L59.23 43.7087C59.1552 43.8703 59.1074 43.969 59.0834 43.9929L59.0146 44.0468H58.9249C58.886 44.0378 58.7304 43.981 58.4612 43.8763C58.1889 43.7805 57.9556 43.6878 57.7611 43.604L56.5854 43.1373L58.1172 43.0236C58.3505 43.0056 58.7065 42.9877 59.1822 42.9637C59.4544 42.9488 59.6728 42.9398 59.8284 42.9398L59.8912 42.7722L59.5561 42.4282C59.3318 42.1858 59.1552 41.9973 59.0386 41.8717L58.5928 41.384L57.6953 40.3817L59.4305 41.0788C59.7625 41.2075 59.957 41.2942 60.0168 41.3361L60.1036 41.4378C60.1096 41.4738 60.0737 41.5904 60.0019 41.7909L60.2083 41.8687L60.4955 41.1207L60.8096 40.3727L60.6092 40.289C60.5254 40.4595 60.4805 40.5552 60.4686 40.5762L60.4596 40.5732Z" fill="#C10230"/>
<path id="Vector_23" d="M57.5398 45.4292L57.1479 45.136L56.6303 44.8219C56.4717 44.7232 56.2623 44.5855 56.011 44.409C55.7538 44.2355 55.6102 44.1338 55.5832 44.0978L55.5443 44.0171L55.676 43.7388L55.4905 43.6191L55.1973 44.1188L55.1614 44.1786C55.1285 44.2325 55.0328 44.3851 54.8503 44.6454L55.0358 44.7591C55.1405 44.5975 55.2272 44.4958 55.2811 44.4718L55.3619 44.4509C55.4067 44.4599 55.5264 44.5197 55.7179 44.6304C55.8016 44.6813 56.038 44.8279 56.4299 45.0732L56.8786 45.3515C57.1897 45.5459 57.3872 45.7045 57.471 45.8272C57.5517 45.9468 57.5846 46.0875 57.5846 46.249C57.5757 46.4166 57.5069 46.6021 57.3752 46.8055C57.2615 46.991 57.1508 47.1137 57.0282 47.1975L56.6602 47.3321L56.2593 47.2244C56.1965 47.1915 56.023 47.0898 55.7538 46.9222L55.4965 46.7636L54.9879 46.4495C54.6708 46.252 54.4763 46.1174 54.3985 46.0396L54.3507 45.9469C54.3477 45.887 54.3985 45.7763 54.4973 45.6148L54.3148 45.504L54.2639 45.5878L54.0844 45.887L53.9019 46.1922L53.4412 46.9043L53.6267 47.015L53.8331 46.7427L53.9259 46.7307L54.0844 46.7846C54.2549 46.8803 54.4434 46.991 54.6528 47.1167L55.2093 47.4697L55.6341 47.742C55.8644 47.8796 56.008 47.9724 56.0679 47.9933L56.385 48.0771L56.7619 48.0292L57.1538 47.7929C57.3363 47.6343 57.4979 47.4428 57.6385 47.2214C57.7641 47.0359 57.8419 46.8504 57.8928 46.6769C57.9406 46.5063 57.9616 46.3478 57.9436 46.1832C57.9317 46.0336 57.8928 45.89 57.824 45.7733L57.5398 45.4292Z" fill="#C10230"/>
<path id="Vector_24" d="M55.8226 49.304L55.7538 49.3488L55.685 49.3399L55.3948 49.1484L55.0148 48.8671L54.1802 48.2239C54.1532 48.2089 53.9797 48.0623 53.6447 47.796L53.4442 47.6345L53.3305 47.5088L53.3186 47.4639L53.3365 47.3861L53.51 47.1318L53.3275 46.9912C53.166 47.2216 52.9865 47.4669 52.792 47.7093C52.6215 47.9396 52.463 48.1281 52.3224 48.3017L52.4989 48.4393L52.7202 48.194L52.7831 48.164L52.8429 48.176C52.8878 48.197 53.0045 48.2718 53.1839 48.4004C53.2617 48.4572 53.4442 48.5949 53.7165 48.8013L54.5781 49.4685C54.7127 49.5762 54.8682 49.6959 55.0208 49.8365L55.2033 50.0011L55.2272 50.0489L55.2003 50.1267L55.0208 50.3781L55.2063 50.5217C55.3289 50.3392 55.4725 50.1417 55.6491 49.9173C55.8465 49.663 56.032 49.4266 56.2115 49.2082L56.032 49.0736L55.8256 49.307L55.8226 49.304Z" fill="#C10230"/>
<path id="Vector_25" d="M51.8048 53.6152L51.724 53.6422L51.6612 53.6152L51.4189 53.3759L51.1018 53.0079L50.4227 52.212C50.4017 52.1941 50.2551 52.0116 49.9829 51.6825L49.8244 51.485L49.7316 51.3354V51.2875L49.7645 51.2187L49.9889 51.0003L49.8393 50.8208C49.6329 51.0153 49.4055 51.2187 49.1662 51.4162C48.9538 51.5957 48.7533 51.7573 48.5828 51.8919L48.7324 52.0684L48.9957 51.868L49.0675 51.859L49.1123 51.8799C49.1602 51.9128 49.2559 52.0086 49.4085 52.1731C49.4743 52.2509 49.6179 52.4185 49.8423 52.6758L50.5483 53.5075C50.662 53.6482 50.7787 53.8007 50.9043 53.9623L51.0449 54.1688L51.0569 54.2136L51.015 54.2854L50.7877 54.4949L50.9342 54.6774C51.0958 54.5248 51.2813 54.3602 51.4937 54.1747C51.739 53.9623 51.9694 53.7768 52.1967 53.6033L52.0531 53.4297L51.8018 53.6152H51.8048Z" fill="#C10230"/>
<path id="Vector_26" d="M23.48 55.6168C23.2138 55.5061 22.9834 55.4164 22.783 55.3296L22.6992 55.545C22.8757 55.6228 22.9715 55.6647 22.9984 55.6796L23.0492 55.7335V55.7933C23.0492 55.8472 23.0074 55.9848 22.9356 56.1913C22.9027 56.284 22.8249 56.4934 22.7022 56.8166L22.3163 57.8278C22.2535 57.9954 22.1817 58.1749 22.0889 58.3634L21.9872 58.5908L21.9453 58.6117H21.8735C21.8376 58.6117 21.7449 58.5818 21.5714 58.5279L21.4906 58.7344C21.7 58.8092 21.9334 58.89 22.1966 58.9887C22.4958 59.0994 22.783 59.2131 23.0373 59.3298L23.118 59.1114C22.9625 59.0455 22.8668 59.0007 22.8338 58.9857L22.771 58.9289L22.7591 58.866C22.762 58.8092 22.795 58.6955 22.8608 58.5279L23.0193 58.0822L23.3903 57.1008C23.4052 57.0679 23.489 56.8615 23.6446 56.4635L23.7463 56.2242L23.8301 56.0686L23.869 56.0417H23.9467C23.9766 56.0417 24.0814 56.0716 24.2459 56.1314L24.3267 55.919C24.0544 55.8292 23.7792 55.7245 23.48 55.6198V55.6168Z" fill="#C10230"/>
<path id="Vector_27" d="M18.3225 52.8818C18.0861 52.7292 17.8827 52.5856 17.7062 52.46L17.5805 52.6485C17.7361 52.7562 17.8229 52.825 17.8438 52.8489L17.8827 52.9028L17.8707 52.9656C17.8528 53.0194 17.787 53.1361 17.6793 53.3246C17.6224 53.4174 17.5087 53.6059 17.3233 53.8901L16.7339 54.8026C16.6322 54.9492 16.5215 55.1078 16.3989 55.2783L16.2523 55.4698L16.2074 55.4938L16.1266 55.4698C16.1027 55.4698 16.0099 55.413 15.8574 55.3262L15.7347 55.5177C15.9232 55.6314 16.1356 55.7541 16.3689 55.9156C16.6382 56.0862 16.8925 56.2567 17.1198 56.4213L17.2455 56.2298L16.9912 56.0413L16.9463 55.9725V55.9096L17.1139 55.6015L17.3681 55.1946L17.9366 54.3179C17.9515 54.288 18.0801 54.0995 18.3165 53.7495L18.4661 53.54L18.5798 53.4084L18.6246 53.3815L18.6994 53.3964L18.9746 53.549L19.1033 53.3575C18.855 53.2139 18.6007 53.0554 18.3314 52.8818H18.3225Z" fill="#C10230"/>
<path id="Vector_28" d="M53.878 51.5747L53.7494 51.5627C53.6836 51.5208 53.519 51.3742 53.2498 51.1109L52.1279 50.0279C51.8288 49.7347 51.6612 49.5731 51.6223 49.5282L51.8796 49.253L52.2506 48.9029L52.3224 48.861L52.4271 48.9059L52.7292 49.1512L52.8848 48.9957C52.6215 48.7354 52.4869 48.6097 52.4749 48.5918L52.2984 48.3823H52.2625L52.104 48.5738C52.0053 48.6755 51.8018 48.8909 51.4967 49.2021L50.7607 49.9591C50.4676 50.2582 50.2641 50.4647 50.1564 50.5664L49.965 50.7429V50.7788L50.1594 50.9314C50.1953 50.9554 50.3389 51.096 50.5992 51.3383L50.7548 51.1857L50.4855 50.8716L50.4436 50.7878L50.4975 50.707L50.8266 50.333L51.0868 50.0608C51.1317 50.0907 51.3022 50.2612 51.6074 50.5515L52.7232 51.6405C52.9925 51.9008 53.1481 52.0684 53.184 52.1312L53.2049 52.2598L52.9775 52.553L53.1241 52.7026C53.3395 52.4603 53.534 52.2539 53.7045 52.0743C53.8631 51.9128 54.0695 51.7213 54.3118 51.4879L54.1592 51.3383L53.869 51.5747H53.878Z" fill="#C10230"/>
<path id="Vector_29" d="M27.2316 57.1215L27.3123 57.1664V57.2861L27.2375 57.6601L27.438 57.7289C27.5427 57.3759 27.5995 57.1934 27.6055 57.1784L27.7132 56.9241L27.6923 56.8942L27.4559 56.8463C27.3093 56.8074 27.0281 56.7266 26.6063 56.6099L25.5981 56.3107C25.1913 56.1911 24.916 56.1103 24.7724 56.0624L24.5271 55.9727L24.4972 55.9906L24.4553 56.2359C24.4404 56.2778 24.3895 56.4693 24.2998 56.8164L24.5062 56.8732L24.6587 56.4962L24.7156 56.4214H24.8203C24.9549 56.4603 25.1195 56.4903 25.296 56.5471L25.652 56.6488C25.64 56.7027 25.5802 56.9301 25.4575 57.334L25.0207 58.8329C24.922 59.192 24.8502 59.4074 24.8113 59.4732L24.7036 59.554C24.6677 59.56 24.5421 59.539 24.3357 59.4882L24.2758 59.6916C24.5929 59.7694 24.8652 59.8382 25.1015 59.904C25.3289 59.9669 25.5951 60.0566 25.9122 60.1703L25.9691 59.9609C25.7746 59.898 25.658 59.8502 25.625 59.8203L25.5772 59.7006C25.5802 59.6168 25.631 59.4044 25.7357 59.0454L26.1755 57.5464C26.2892 57.1485 26.358 56.9151 26.3819 56.8613L26.7349 56.969C26.9294 57.0288 27.0909 57.0767 27.2256 57.1245L27.2316 57.1215Z" fill="#C10230"/>
<path id="Vector_30" d="M15.0017 53.5791L15.989 52.3703C16.2463 52.0502 16.3958 51.8647 16.4407 51.8198L16.7279 52.0532C16.8835 52.1788 17.0121 52.2925 17.1108 52.3913L17.1647 52.4601L17.1198 52.5678L16.9014 52.8939L17.0749 53.0286C17.3053 52.7473 17.422 52.5947 17.4369 52.5887L17.6374 52.3943L17.6284 52.3614L17.4309 52.2237C17.3143 52.131 17.0869 51.9425 16.7459 51.6822L15.9321 51.015C15.5971 50.7487 15.3757 50.5602 15.268 50.4675L15.0765 50.2939H15.0406L14.906 50.5034C14.8791 50.5363 14.7504 50.7008 14.535 50.9821L14.7056 51.1167L14.9928 50.8295L15.0735 50.7697L15.1603 50.8175L15.5582 51.1167L15.8484 51.3471C15.8214 51.392 15.6719 51.5805 15.4026 51.9096L14.4244 53.1183C14.188 53.4145 14.0384 53.585 13.9756 53.6239L13.85 53.6628C13.8051 53.6509 13.7004 53.585 13.5358 53.4564L13.4012 53.6239C13.6615 53.8124 13.8859 53.98 14.0743 54.1415C14.2538 54.2911 14.4722 54.4707 14.7265 54.6891L14.8581 54.5335C14.6996 54.3929 14.6098 54.3031 14.5979 54.2642V54.1326C14.6308 54.0638 14.7624 53.8842 15.0017 53.591V53.5791Z" fill="#C10230"/>
<path id="Vector_31" d="M48.5918 53.5252L48.508 53.0555C48.4332 52.6815 48.4153 52.4601 48.4302 52.4092L48.6456 52.1968L48.52 52.0083L48.0593 52.3254L47.4998 52.6815L47.6225 52.864L47.8708 52.7264L47.9576 52.6934H48.0054L48.0533 52.7473L48.0862 52.7952C48.1041 52.864 48.14 53.0076 48.1969 53.223C48.2657 53.5402 48.3046 53.7047 48.3076 53.7466L48.6097 55.2575L47.1797 54.2792L47.1378 54.2433L46.9105 54.0877C46.6622 53.9171 46.5216 53.8094 46.4946 53.7646L46.4767 53.6957L46.5246 53.6269L46.7759 53.4324L46.6502 53.247L45.8784 53.7675C45.8036 53.8214 45.5882 53.953 45.2352 54.1715L45.3578 54.3629L45.657 54.2193L45.9083 54.327C46.0369 54.4018 46.4109 54.6502 47.0301 55.069L47.8229 55.6076C48.1161 55.811 48.4272 56.0205 48.7444 56.2449L49.0764 56.0294C48.9986 55.7243 48.8939 55.1857 48.7533 54.4288L48.5888 53.5342L48.5918 53.5252Z" fill="#C10230"/>
<path id="Vector_32" d="M22.2714 55.3952C22.3043 55.3952 22.406 55.4162 22.5556 55.479L22.6603 55.2785L22.1488 55.0362L21.5684 54.7191L21.4667 54.9165L21.712 55.0661L21.7987 55.12L21.8107 55.1678L21.7987 55.2307L21.7628 55.2875C21.712 55.3414 21.6073 55.4461 21.4427 55.5957C21.2124 55.8051 21.0867 55.9188 21.0508 55.9428L19.8871 56.96L20.0367 55.2277V55.1798C20.0456 55.1619 20.0516 55.0691 20.0636 54.8986C20.0905 54.5994 20.1145 54.4259 20.1444 54.381L20.1892 54.3331H20.276L20.5692 54.4528L20.6709 54.2493L19.8303 53.8484C19.7495 53.8035 19.5311 53.6839 19.1601 53.4834L19.0614 53.6839L19.3247 53.8694C19.3456 53.9053 19.3606 53.992 19.3606 54.1446C19.3516 54.2942 19.3277 54.74 19.2708 55.491L19.196 56.4484C19.1661 56.7925 19.1392 57.1635 19.1003 57.5554L19.4563 57.7319C19.6807 57.5195 20.0905 57.1605 20.6829 56.6638L21.3799 56.0744L21.7389 55.7782C22.0351 55.5239 22.2116 55.3922 22.2714 55.3833V55.3952Z" fill="#C10230"/>
<path id="Vector_33" d="M46.9733 57.0527L46.8656 57.0407C46.8297 57.0227 46.713 56.9689 46.5186 56.8672C46.5066 56.8612 46.4139 56.8133 46.2463 56.7176L45.6151 56.3496L45.5643 56.3226L45.4147 56.2269L45.1723 56.0773C45.3728 55.8709 45.4895 55.6554 45.5343 55.452C45.5702 55.2366 45.5463 55.0391 45.4536 54.8476C45.3728 54.6891 45.2651 54.5843 45.1245 54.5065L44.7086 54.4497C44.5621 54.4677 44.3736 54.5454 44.1313 54.6621C44.0056 54.725 43.8471 54.8057 43.6586 54.9164C43.5479 54.9793 43.4073 55.0511 43.2457 55.1319C43.0513 55.2216 42.9107 55.2994 42.8 55.3503C42.5876 55.443 42.4619 55.5088 42.426 55.5268L42.5158 55.7153C42.7222 55.6315 42.8389 55.5866 42.8897 55.5866L42.9406 55.6106C42.9735 55.6495 43.0423 55.7542 43.141 55.9516L43.3923 56.4423L43.8261 57.298L44.1372 57.9891L44.2539 58.2764L44.2659 58.3541L44.233 58.393C44.209 58.42 44.1073 58.4828 43.9368 58.5756L44.0385 58.785C44.236 58.6713 44.4603 58.5486 44.6997 58.4319C44.9749 58.2973 45.2471 58.1657 45.5164 58.043L45.4177 57.8395C45.2621 57.9084 45.1694 57.9532 45.1394 57.9622H45.0557L45.0078 57.9502L44.9001 57.7887C44.8792 57.7498 44.7745 57.5673 44.6189 57.2501C44.4843 56.9988 44.3556 56.7505 44.2419 56.5111C44.1701 56.3675 44.0265 56.0683 43.8231 55.6255C43.7244 55.4251 43.6676 55.2934 43.6406 55.2426L43.859 55.1109C44.0266 55.0212 44.1462 54.9793 44.224 54.9703L44.571 55.0421L44.8552 55.3503L44.945 55.7841L44.8253 56.1401C44.7535 56.2329 44.6219 56.3226 44.4334 56.4064L44.4424 56.4902L44.6638 56.577C44.8403 56.6607 45.0467 56.7894 45.307 56.9509L46.2104 57.5284L46.3391 57.6271L46.7011 57.4416C46.8028 57.3818 46.9823 57.307 47.2246 57.1903L47.1289 56.9928L46.9733 57.0467V57.0527Z" fill="#C10230"/>
<path id="Vector_34" d="M8.17784 46.3448C8.17784 46.3448 8.23168 46.2431 8.32143 46.0696L8.67145 45.4293L8.69539 45.3785L8.78215 45.2199L8.92275 44.9805C9.14413 45.172 9.35654 45.2797 9.57493 45.3186C9.77836 45.3485 9.98179 45.3186 10.1673 45.2199C10.3198 45.1391 10.4305 45.0284 10.4993 44.8788L10.5442 44.4629C10.5143 44.3253 10.4365 44.1338 10.3079 43.8975C10.2451 43.7718 10.1583 43.6162 10.0506 43.4277C9.98179 43.32 9.90999 43.1824 9.82024 43.0208C9.72152 42.8323 9.64374 42.6887 9.58989 42.581C9.48518 42.3686 9.42235 42.2429 9.40141 42.207L9.21294 42.3117C9.30568 42.5032 9.34756 42.6229 9.35355 42.6768L9.32662 42.7276C9.30269 42.7605 9.18602 42.8383 9.00053 42.94L8.52187 43.2093L7.66627 43.6701L6.98717 44.0052L6.70595 44.1219L6.63116 44.1398L6.5833 44.1099C6.55338 44.083 6.48756 43.9872 6.39482 43.8107L6.19139 43.9214C6.30507 44.1189 6.43072 44.3403 6.55637 44.5766C6.69997 44.8429 6.84058 45.1092 6.96622 45.3755L7.17265 45.2707L7.047 44.9985L7.03204 44.9237L7.04999 44.8728L7.20555 44.7591C7.24744 44.7352 7.42394 44.6335 7.73208 44.4599C7.98637 44.3074 8.22869 44.1787 8.46204 44.065C8.60564 43.9812 8.89583 43.8316 9.33859 43.6072C9.53305 43.5145 9.6557 43.4576 9.71853 43.4247L9.84717 43.6342C9.93692 43.7987 9.98179 43.9214 9.99974 43.9962L9.93692 44.3492L9.64074 44.6424L9.20995 44.7442L8.85095 44.6335C8.75223 44.5617 8.65949 44.43 8.56675 44.2505L8.48298 44.2625L8.4052 44.4899C8.33041 44.6604 8.20775 44.8788 8.0462 45.1391L7.50173 46.0606L7.40001 46.1833L7.60344 46.5423C7.66028 46.653 7.75003 46.8236 7.86671 47.0629L8.05518 46.9612L8.00133 46.8056L8.01928 46.7039C8.03125 46.668 8.08509 46.5393 8.17784 46.3478V46.3448Z" fill="#C10230"/>
<path id="Vector_35" d="M42.8928 58.2046C42.9287 58.435 42.9496 58.5966 42.9466 58.6863L42.9286 58.7342L42.6684 58.8838C42.5218 58.9437 42.3632 58.9975 42.1807 59.0603C41.9983 59.1202 41.8337 59.168 41.6991 59.2069L41.5914 58.8988L41.2474 57.8546C41.3491 57.8097 41.4747 57.7648 41.6363 57.711C41.8158 57.6571 41.9683 57.6212 42.085 57.5973L42.2166 57.6272C42.2555 57.6571 42.3094 57.7738 42.3662 57.9683L42.5756 57.8965L42.3902 57.3639L42.2226 56.8134L42.0222 56.8762C42.0701 57.0318 42.088 57.1276 42.088 57.2053L42.076 57.2652L41.9205 57.337C41.6901 57.4178 41.5555 57.4686 41.5136 57.4806L41.1576 57.5883L40.9931 57.0767C40.8943 56.7895 40.8285 56.5531 40.7926 56.3527C40.9452 56.2988 41.0888 56.239 41.2414 56.1881C41.388 56.1342 41.5555 56.0924 41.726 56.0624L41.9354 56.0415L41.9833 56.0744C42.0102 56.1163 42.0581 56.236 42.1239 56.4275L42.3184 56.3586C42.2675 56.1372 42.2286 56.0295 42.2226 55.9936L42.1568 55.6286L42.1299 55.5957L42.0431 55.6077C41.8606 55.6615 41.732 55.7004 41.6722 55.7184L41.1756 55.8979C40.9003 55.9966 40.649 56.0774 40.4247 56.1552L40.0986 56.2599L39.5242 56.4304L39.59 56.6429C39.7874 56.595 39.9161 56.5651 39.9639 56.5771L40.0118 56.601C40.0417 56.6339 40.0926 56.7446 40.1584 56.9331C40.2571 57.2024 40.317 57.3729 40.3289 57.4088L40.6849 58.5248C40.7298 58.6504 40.7896 58.8569 40.8674 59.1471C40.9123 59.3027 40.9422 59.4194 40.9572 59.4912L40.7597 59.7156L40.8076 59.8502C41.3132 59.6797 41.5884 59.5779 41.6243 59.566C41.7769 59.5181 42.0491 59.4343 42.438 59.3057L42.8419 59.189C43.0363 59.1202 43.1829 59.0633 43.2876 59.0184L43.3056 58.9736C43.2398 58.7641 43.171 58.4889 43.1022 58.1568L42.8928 58.2166V58.2046Z" fill="#C10230"/>
<path id="Vector_36" d="M10.3767 49.0343C10.1643 49.145 10.0147 49.2108 9.92794 49.2377H9.86811L9.66169 49.0283L9.34457 48.6184C9.23687 48.4628 9.14413 48.3222 9.06934 48.2055L9.32363 48.008L10.2181 47.3708L10.4754 47.6999L10.7177 48.0918L10.7297 48.2235C10.7088 48.2713 10.616 48.3551 10.4485 48.4688L10.5831 48.6483L11.0408 48.3132L11.5135 47.9871L11.3849 47.8136L11.0947 47.9781H11.0289L10.9182 47.8584C10.7716 47.664 10.6818 47.5443 10.6639 47.5114L10.4575 47.2002L10.8883 46.8891C11.1396 46.7155 11.346 46.5839 11.5195 46.4852L11.8097 46.8651C11.9084 47.0028 11.9952 47.1434 12.0789 47.296L12.1687 47.4845L12.1417 47.5443C12.1148 47.5802 12.0161 47.664 11.8516 47.7777L11.9682 47.9482C12.1597 47.8315 12.2644 47.7627 12.2913 47.7507L12.6204 47.5682L12.6384 47.5353L12.6025 47.4605C12.4978 47.3019 12.4289 47.1972 12.3901 47.1434L12.0729 46.7185C11.8964 46.4881 11.7439 46.2727 11.6033 46.0783L11.4088 45.797L11.0678 45.2974L10.8883 45.426C10.996 45.5966 11.0588 45.7073 11.0678 45.7551L11.0588 45.809C11.0319 45.8509 10.9481 45.9317 10.7865 46.0573C10.5502 46.2279 10.4156 46.3326 10.3767 46.3505L9.42236 47.0327C9.30867 47.1045 9.12618 47.2301 8.88087 47.3947L8.57572 47.5772L8.30349 47.4575L8.19279 47.5413C8.50991 47.9691 8.68043 48.2055 8.71035 48.2354C8.80309 48.3641 8.96164 48.5915 9.19798 48.9325L9.43432 49.2796C9.55399 49.4471 9.64972 49.5728 9.72152 49.6566L9.76939 49.6626C9.94589 49.5339 10.1882 49.3843 10.4934 49.2138L10.3737 49.0373L10.3767 49.0343Z" fill="#C10230"/>
<path id="Vector_37" d="M39.6109 58.5699L39.4464 58.3395L39.2041 58.2049L38.8421 58.145C38.7912 58.145 38.6686 58.145 38.4891 58.145C38.3096 58.145 38.166 58.154 38.0613 58.145L37.7412 58.0942L37.5557 57.9595L37.448 57.6932C37.4151 57.5377 37.4569 57.3881 37.5587 57.2474C37.6634 57.1038 37.8279 57.0111 38.0642 56.9692C38.2198 56.9363 38.3724 56.9363 38.516 56.9692L38.8301 57.1188C38.866 57.1906 38.8989 57.3342 38.9468 57.5317L39.1532 57.4898C39.1233 57.3163 39.1113 57.1726 39.0964 57.0649L39.0844 56.7268L39.0515 56.673C38.9228 56.6341 38.7643 56.6191 38.5848 56.6191C38.4053 56.6191 38.2318 56.6341 38.0493 56.667C37.8758 56.7059 37.7112 56.7538 37.5557 56.8226C37.3971 56.8974 37.2625 56.9871 37.1488 57.1038C37.0351 57.2175 36.9544 57.3641 36.9065 57.5377C36.8526 57.7082 36.8496 57.8997 36.8796 58.0882L37.0262 58.4502L37.2894 58.7165C37.3881 58.7883 37.5198 58.8272 37.6783 58.8451C37.783 58.8511 37.9924 58.8601 38.3126 58.8691C38.5399 58.872 38.6955 58.89 38.7882 58.9229L39.0186 59.0695L39.1263 59.3358L39.1053 59.6918L38.881 59.9791C38.7643 60.0628 38.6207 60.1197 38.4621 60.1526C38.2796 60.1855 38.0942 60.1855 37.9266 60.1287C37.7531 60.0808 37.6275 60.009 37.5377 59.9132C37.4809 59.7367 37.439 59.5871 37.421 59.4644L37.2146 59.5033C37.2804 59.9013 37.3133 60.2005 37.2984 60.4099C37.5138 60.4637 37.7082 60.4997 37.8788 60.5086C38.0463 60.5146 38.2378 60.4996 38.4502 60.4608C38.7314 60.4039 38.9707 60.3112 39.1622 60.1945L39.4913 59.8863L39.7067 59.4974C39.7665 59.3119 39.7755 59.1144 39.7306 58.89L39.6139 58.5699H39.6109Z" fill="#C10230"/>
<path id="Vector_38" d="M33.6516 59.1262L33.4541 58.9497L33.1071 58.815C33.0562 58.7971 32.9396 58.7851 32.7631 58.7522C32.5896 58.7163 32.443 58.6864 32.3442 58.6624L32.0451 58.5428L31.8925 58.3722L31.8387 58.088C31.8387 57.9264 31.9045 57.7918 32.0421 57.6751C32.1707 57.5614 32.3502 57.5016 32.5896 57.5046C32.7541 57.5106 32.9037 57.5375 33.0293 57.5973L33.3105 57.8038C33.3225 57.8905 33.3285 58.0311 33.3315 58.2286L33.5469 58.2406C33.5559 58.0641 33.5648 57.9234 33.5768 57.8068L33.6366 57.4806L33.6157 57.4178C33.493 57.352 33.3434 57.2981 33.1729 57.2622C32.9994 57.2323 32.8199 57.2173 32.6374 57.2144C32.4579 57.2144 32.2814 57.2203 32.1139 57.2622C31.9493 57.2951 31.7998 57.3699 31.6621 57.4507C31.5335 57.5405 31.4168 57.6602 31.3361 57.8277C31.2493 57.9952 31.2104 58.1688 31.2044 58.3633L31.2673 58.7522L31.4677 59.0604C31.5544 59.1531 31.6741 59.2219 31.8267 59.2608C31.9284 59.2907 32.1259 59.3416 32.443 59.4194C32.6643 59.4673 32.8139 59.5121 32.9007 59.563L33.0892 59.7515L33.14 60.0417L33.0533 60.3858L32.775 60.6221C32.6404 60.682 32.4938 60.7059 32.3293 60.7029C32.1378 60.7029 31.9643 60.6551 31.8057 60.5683C31.6442 60.4905 31.5395 60.3948 31.4737 60.2811C31.4557 60.1045 31.4438 59.943 31.4468 59.8113H31.2314C31.2254 60.2182 31.1925 60.5144 31.1356 60.7119C31.3331 60.8106 31.5156 60.8914 31.6801 60.9243C31.8446 60.9662 32.0391 60.9931 32.2485 60.9931C32.5387 60.9931 32.793 60.9602 32.9964 60.8735L33.3823 60.6401L33.6785 60.302C33.7742 60.1345 33.8191 59.943 33.8221 59.7156L33.7802 59.3775L33.6516 59.1172V59.1262Z" fill="#C10230"/>
<path id="Vector_39" d="M30.2262 60.5892L30.1783 60.5533L30.1394 60.4755L30.0796 60.2242L29.9779 59.8472L29.2808 56.9779L28.9128 56.9121L28.5957 57.4596L27.6474 58.9975C27.4709 59.2907 27.3452 59.4881 27.2854 59.5869C27.1508 59.7933 27.07 59.913 27.0491 59.9489L26.9743 60.0177L26.8965 60.0416L26.6482 60.0207L26.6093 60.2391L27.2076 60.3169L27.797 60.4366L27.8299 60.2242C27.6294 60.1883 27.5098 60.1494 27.4709 60.1224L27.4439 60.0207C27.4589 59.9639 27.5187 59.8173 27.6444 59.6048L27.8089 59.3086L29.1312 59.524L29.2599 60.1284L29.2778 60.3498L29.224 60.4186C29.197 60.4246 29.0744 60.4186 28.871 60.3947L28.8351 60.6101L29.7385 60.7447L30.4475 60.8794L30.4864 60.661L30.3728 60.6281L30.2232 60.5862L30.2262 60.5892ZM28.5209 59.1351C28.3175 59.1022 28.138 59.0723 27.9765 59.0423L28.7244 57.8007L29.0534 59.2219C28.8949 59.1949 28.7184 59.174 28.5239 59.1351H28.5209Z" fill="#C10230"/>
<path id="Vector_40" d="M12.8298 52.3224L12.9884 51.9634L14.212 49.2737L13.9607 49.0044L13.3683 49.2288L11.6721 49.8571C11.352 49.9798 11.1366 50.0575 11.0289 50.0935C10.7925 50.1772 10.6549 50.2251 10.619 50.2311L10.5203 50.243L10.4455 50.2131L10.257 50.0456L10.0955 50.1922L10.5173 50.629L10.9062 51.0838L11.0648 50.9342C10.9301 50.7816 10.8613 50.6739 10.8494 50.632L10.8883 50.5392C10.9301 50.5004 11.0707 50.4285 11.3071 50.3388L11.6152 50.2131L12.5127 51.1975L12.2465 51.748L12.1268 51.9305L12.046 51.9604C12.0131 51.9454 11.9293 51.8647 11.7738 51.724L11.6152 51.8647L12.2465 52.5319L12.7191 53.0644L12.8777 52.9298L12.8119 52.834L12.7191 52.7054L12.7102 52.6456L12.7251 52.5648L12.8298 52.3254V52.3224ZM12.6443 50.8953C12.5396 50.7876 12.411 50.6619 12.2794 50.5033L11.9114 50.0905L13.2606 49.5848L12.6414 50.8953H12.6443Z" fill="#C10230"/>
<path id="Vector_41" d="M6.43072 43.0923C6.27516 42.9606 6.14353 42.832 6.04779 42.6974C5.95206 42.5657 5.87428 42.4161 5.80846 42.2575C5.70974 42.0032 5.65888 41.7758 5.66187 41.5664C5.67384 41.4198 5.70974 41.2523 5.79051 41.0698C5.86231 40.8992 5.98497 40.7317 6.14353 40.5761C6.30507 40.4235 6.51748 40.3008 6.78074 40.1871C7.20556 40.0106 7.57951 40.0016 7.91158 40.1243C8.24964 40.2589 8.48598 40.5043 8.64154 40.8932C8.72231 41.0997 8.7642 41.2852 8.75821 41.4378C8.75821 41.5963 8.72231 41.7489 8.65351 41.9045C8.55179 41.9643 8.41418 42.0272 8.24066 42.102L8.31246 42.2875C8.47102 42.2366 8.64453 42.1857 8.83899 42.1319L9.15012 42.078L9.17704 42.0481C9.17106 41.7908 9.14114 41.5664 9.10524 41.3839C9.06635 41.1954 9.00353 40.9979 8.91976 40.7765C8.66248 40.1393 8.30648 39.7204 7.84876 39.502C7.38805 39.2836 6.90639 39.2806 6.39782 39.4751C6.10464 39.6007 5.84735 39.7623 5.64392 39.9897C5.50631 40.1333 5.4016 40.3068 5.31185 40.5043C5.22809 40.7107 5.17723 40.9291 5.17723 41.1685C5.17424 41.4707 5.24604 41.8028 5.37468 42.1379C5.4734 42.3772 5.57811 42.5747 5.67982 42.7123C5.78154 42.8619 5.92813 43.0085 6.11361 43.1671L6.4038 43.185L6.43372 43.0953L6.43072 43.0923Z" fill="#C10230"/>
<path id="Vector_42" d="M5.96701 37.5514C6.65808 37.5514 7.22649 36.9919 7.22649 36.2948C7.22649 35.5977 6.66107 35.0322 5.96701 35.0322C5.27295 35.0322 4.71053 35.5977 4.71053 36.2948C4.71053 36.9919 5.26996 37.5514 5.96701 37.5514Z" fill="#C10230"/>
<path id="Vector_43" d="M5.91914 22.8281L5.99992 22.7174L6.07171 22.6965C6.1136 22.6875 6.24822 22.7264 6.4696 22.7922C6.69697 22.867 6.9363 22.9508 7.20854 23.0435L9.70057 23.9232C9.75142 23.9381 9.99375 24.0309 10.4365 24.2044C10.6609 24.2882 10.8015 24.354 10.8643 24.3929L10.987 24.5515L10.969 24.7519L10.8553 24.9374L10.5861 25.1319L10.5951 25.2186C10.8404 25.3054 11.0318 25.3742 11.1754 25.44L11.3071 25.2007C11.3519 25.087 11.3699 24.9554 11.3549 24.7938C11.349 24.6412 11.3101 24.4737 11.2592 24.2971C11.1934 24.1146 11.1216 23.9501 11.0348 23.8095C10.9062 23.606 10.7506 23.4295 10.5681 23.2978C10.3886 23.1632 10.1254 23.0405 9.78433 22.9149L8.42015 22.4481L7.27136 22.0382C6.95724 21.9246 6.7209 21.8318 6.55038 21.757L6.40678 21.6523L6.38883 21.5087C6.3978 21.4638 6.43669 21.3322 6.50849 21.1197L6.23027 21.021C6.15847 21.2753 6.05676 21.5745 5.9341 21.9216C5.7905 22.3404 5.63494 22.7563 5.47638 23.1512L5.7546 23.253L5.91914 22.8221V22.8281Z" fill="#C10230"/>
<path id="Vector_44" d="M7.76498 20.3568C7.95645 20.629 8.21971 20.8684 8.56674 21.0898C9.0125 21.383 9.44329 21.5386 9.85614 21.5565C10.263 21.5745 10.6459 21.4847 10.9989 21.2813C11.346 21.0778 11.6631 20.7607 11.9323 20.3238C12.1896 19.9409 12.3482 19.5579 12.42 19.163C12.4678 18.8817 12.4589 18.5945 12.399 18.3013C12.3362 18.0141 12.2255 17.7538 12.055 17.5234C11.8276 17.2003 11.5404 16.931 11.1844 16.6976C10.975 16.563 10.7656 16.4613 10.5681 16.3955C10.3677 16.3207 10.1673 16.2818 9.96683 16.2728C9.76938 16.2638 9.548 16.2878 9.30568 16.3596C9.06335 16.4284 8.83898 16.5451 8.62957 16.7036C8.36032 16.925 8.10902 17.2033 7.88465 17.5474C7.66327 17.8914 7.50471 18.2415 7.41796 18.5975C7.34915 18.8788 7.34316 19.169 7.40001 19.4801C7.45386 19.7943 7.57651 20.0905 7.76498 20.3568ZM8.16287 17.8286C8.31844 17.5833 8.48597 17.4157 8.65948 17.323C8.83599 17.2272 9.03643 17.1734 9.25781 17.1644C9.48218 17.1644 9.71852 17.1943 9.97879 17.2751C10.2361 17.3619 10.4993 17.4965 10.7566 17.6581C11.1455 17.9183 11.4357 18.1757 11.6391 18.4509C11.8396 18.7292 11.9323 19.0014 11.9323 19.2647C11.9234 19.525 11.8426 19.7763 11.687 20.0157C11.5225 20.261 11.325 20.4555 11.0827 20.5662C10.8374 20.6769 10.5322 20.7038 10.1703 20.638C9.80528 20.5782 9.40141 20.4016 8.96164 20.1234C8.65649 19.9199 8.40519 19.6955 8.21074 19.4442C8.01329 19.1959 7.91158 18.9296 7.90559 18.6603C7.90559 18.3761 7.98936 18.1009 8.16287 17.8316V17.8286Z" fill="#C10230"/>
<path id="Vector_45" d="M15.9232 11.4829C16.1445 11.8359 16.4138 12.1202 16.7279 12.3206C16.9283 12.4553 17.1647 12.548 17.425 12.6049C17.6942 12.6677 17.9724 12.6737 18.2686 12.6378C18.6904 12.5719 19.1092 12.4134 19.537 12.1351C19.8033 11.9736 20.0486 11.7821 20.276 11.5667C20.5063 11.3512 20.7576 11.064 21.0329 10.708L20.7247 10.2831C20.6679 10.1874 20.5781 10.0288 20.4435 9.80144L20.3777 9.6279L20.5363 9.39753L20.4166 9.20904L19.567 9.75955L18.7084 10.2831L18.849 10.5075C19.1571 10.343 19.3486 10.2472 19.4264 10.2323H19.537C19.57 10.2532 19.6477 10.3579 19.7584 10.5404L19.923 10.8067L20.0935 11.1059L19.8093 11.459L19.4682 11.7282C19.0315 12.0005 18.5588 12.0633 18.0442 11.9257C17.5386 11.7821 17.1078 11.429 16.7518 10.8666C16.4287 10.343 16.318 9.85529 16.4168 9.37958C16.5185 8.90685 16.8057 8.5209 17.2843 8.22171C17.4878 8.09305 17.6822 8.00629 17.8767 7.95543C18.0682 7.89858 18.2506 7.87165 18.4272 7.87764L18.6725 7.92551L18.834 8.12297L19.0195 8.38327L19.2439 8.24265C19.0195 7.79386 18.8729 7.46774 18.8101 7.27028L18.7592 7.23438C18.5588 7.25532 18.2955 7.33909 17.9814 7.44979C17.6703 7.56648 17.3472 7.72505 17.0241 7.93149C16.7578 8.09006 16.5334 8.26958 16.342 8.44909C16.1445 8.6316 15.989 8.83206 15.8514 9.06842C15.7167 9.29281 15.627 9.54712 15.5701 9.80742C15.5163 10.0797 15.5133 10.346 15.5701 10.6242C15.621 10.9025 15.7377 11.1897 15.9261 11.4889L15.9232 11.4829Z" fill="#C10230"/>
<path id="Vector_46" d="M11.4986 30.7836C11.4986 30.7836 12.046 32.3423 12.42 33.587L11.6721 30.5083C11.6062 30.5442 11.5494 30.619 11.5015 30.7865L11.4986 30.7836Z" fill="#C10230"/>
<path id="Vector_47" d="M54.3297 30.7836C54.2849 30.6161 54.225 30.5413 54.1622 30.5054L53.4143 33.584C53.7823 32.3394 54.3297 30.7806 54.3297 30.7806V30.7836Z" fill="#C10230"/>
<path id="Vector_48" d="M52.4869 30.5862C51.6223 32.3874 51.8407 34.377 51.8407 34.377C49.9979 32.7135 47.096 34.0628 47.096 34.0628C47.1887 34.377 48.155 35.113 48.155 35.113C48.1999 38.6046 50.2731 39.3107 50.2731 39.3107C49.5372 39.8612 49.3517 40.4655 49.3517 40.4655C48.2867 39.1222 45.9412 39.4064 45.9412 39.4064C45.9412 41.8418 48.523 43.0446 48.523 43.0446C48.2896 44.1037 48.4303 44.6183 48.4303 44.6183C47.5567 45.0312 46.5904 46.2309 46.5904 46.2309C46.8626 43.64 45.9412 42.7693 45.9412 42.7693C44.3736 43.6938 43.7334 45.4441 43.7334 45.4441C41.1037 45.7193 39.6737 47.6102 39.6737 47.6102L39.8562 46.7785C34.9709 47.8406 35.0158 51.2903 35.0158 51.2903L34.7884 51.2035C34.5281 49.6328 33.0682 49.6687 32.9127 49.6836C32.7571 49.6687 31.3032 49.6328 31.0369 51.2035L30.8065 51.2903C30.8065 51.2903 30.8484 47.8376 25.9691 46.7785L26.1516 47.6102C26.1516 47.6102 24.7216 45.7193 22.0979 45.4441C22.0979 45.4441 21.4517 43.6968 19.8841 42.7693C19.8841 42.7693 18.9627 43.6429 19.2409 46.2309C19.2409 46.2309 18.2746 45.0312 17.401 44.6183C17.401 44.6183 17.5357 44.1037 17.3053 43.0446C17.3053 43.0446 19.8841 41.8448 19.8841 39.4064C19.8841 39.4064 17.5357 39.1222 16.4766 40.4655C16.4766 40.4655 16.2881 39.8612 15.5552 39.3107C15.5552 39.3107 17.6284 38.6016 17.6763 35.113C17.6763 35.113 18.6396 34.377 18.7383 34.0628C18.7383 34.0628 15.8304 32.7165 13.9936 34.377C13.9936 34.377 14.4992 29.8562 11.0438 28.2944C11.0438 28.2944 9.88606 30.9692 11.1784 33.7786C11.1784 33.7786 10.1224 33.2281 9.65869 33.1772C9.65869 33.1772 9.34158 35.116 10.5322 36.5012C10.5322 36.5012 9.56595 36.3217 8.50392 36.9141C8.50392 36.9141 9.60783 39.2658 12.0999 40.0497C12.0999 40.0497 12.2824 40.5074 12.4648 40.8335C12.4648 40.8335 10.8105 40.5523 9.19499 41.2494C9.19499 41.2494 10.5322 42.7244 11.0408 42.9578C11.0408 42.9578 12.2824 43.7387 12.9285 43.8314L12.417 44.011C12.417 44.011 14.7265 47.0986 16.7997 47.4696C16.7997 47.4696 15.3308 47.8735 14.7714 48.5766C14.7714 48.5766 17.398 51.018 20.8564 50.282C20.8564 50.282 20.1144 51.0659 19.7465 51.8498C19.7465 51.8498 22.047 52.493 24.3536 51.6583L24.1202 52.2208C24.1202 52.2208 25.64 52.5349 27.8568 51.0659L28.7782 51.7151C28.7782 51.7151 26.1067 52.1699 24.3566 52.8191L26.1994 54.1565C26.1994 54.1565 26.3849 53.965 27.6264 53.3786C27.6264 53.3786 31.0878 54.0847 32.9127 54.0189C34.7405 54.0847 38.1959 53.3786 38.1959 53.3786C39.4434 53.965 39.6259 54.1565 39.6259 54.1565L41.4627 52.8191C39.7156 52.1729 37.0441 51.7151 37.0441 51.7151L37.9655 51.0659C40.1793 52.5349 41.6991 52.2208 41.6991 52.2208L41.4657 51.6583C43.7783 52.493 46.0788 51.8498 46.0788 51.8498C45.7109 51.0629 44.9689 50.282 44.9689 50.282C48.4243 51.018 51.0539 48.5766 51.0539 48.5766C50.4885 47.8735 49.0226 47.4696 49.0226 47.4696C51.0958 47.0986 53.4053 44.011 53.4053 44.011L52.8938 43.8314C53.54 43.7357 54.7875 42.9578 54.7875 42.9578C55.2901 42.7244 56.6273 41.2494 56.6273 41.2494C55.0208 40.5523 53.3575 40.8335 53.3575 40.8335C53.54 40.5074 53.7254 40.0497 53.7254 40.0497C56.2115 39.2658 57.3184 36.9141 57.3184 36.9141C56.2534 36.3217 55.2901 36.5012 55.2901 36.5012C56.4897 35.116 56.1666 33.1772 56.1666 33.1772C55.7059 33.2281 54.6439 33.7786 54.6439 33.7786C55.9393 30.9692 54.7875 28.2944 54.7875 28.2944C53.9767 28.6594 53.3934 29.183 52.9626 29.7724L52.4779 30.5862H52.4869ZM56.5825 37.1415L56.382 37.3958C56.382 37.3958 56.2175 37.0757 55.9871 37.1415C55.9871 37.1415 53.4113 38.0002 51.8826 38.8948C51.8826 38.8948 53.0374 36.4085 56.5795 37.1415H56.5825ZM51.7719 40.0018C52.092 40.1873 53.0882 40.1215 53.0882 40.1215L52.6724 40.9263L51.7988 41.5247C51.8856 40.9652 51.7749 39.9988 51.7749 39.9988L51.7719 40.0018ZM51.4997 36.4324L52.3972 36.4564C52.2775 36.6867 52.0501 37.7668 52.0501 37.7668L51.4997 38.4131C51.6373 37.8596 51.4997 36.4324 51.4997 36.4324ZM54.5152 36.5461H54.2849C54.2849 36.5461 55.0268 35.7892 55.5294 34.6732C55.5294 34.6732 55.5025 35.5977 54.5152 36.5461ZM55.2093 34.1436C55.2093 34.1436 54.6289 35.3972 53.4592 36.8244L52.7173 37.2373C52.7173 37.2373 53.2049 34.8617 55.2093 34.1436ZM54.5033 29.0933C54.5033 29.0933 55.5593 32.7913 53.0882 34.9335C53.1092 34.6762 53.2468 34.1646 53.4143 33.5871L54.1622 30.5084C54.0037 30.4247 53.8242 30.6521 53.8242 30.6521C53.4293 31.2235 52.5318 34.8138 52.5318 34.8138C52.5318 34.8138 51.4488 31.3821 54.5033 29.0933ZM52.0053 35.5797C50.9701 34.7719 48.8192 34.1257 48.8192 34.1257C51.5176 33.7756 52.0053 35.5797 52.0053 35.5797ZM51.3052 35.7892C49.7197 35.7084 48.4512 34.6104 48.4512 34.6104C49.8333 34.9066 51.3052 35.7892 51.3052 35.7892ZM51.1945 39.9569C51.6134 42.2846 50.5513 43.8703 50.5513 43.8703L49.9261 43.9691C50.1804 43.7357 50.7099 41.9376 50.7099 41.9376C50.6381 41.5516 51.1945 39.9569 51.1945 39.9569ZM50.1355 36.1093L50.8744 36.2948C51.1287 37.1206 50.9702 38.4819 50.9702 38.4819C50.5753 38.0002 50.1355 36.1093 50.1355 36.1093ZM48.7563 35.4631L49.5162 35.9298C49.7944 37.3659 50.4616 38.7482 50.4616 38.7482C48.6367 37.8416 48.7534 35.4601 48.7534 35.4601L48.7563 35.4631ZM50.665 39.8402C50.4825 40.0497 50.2551 41.387 50.2551 41.387C50.1624 42.6077 49.1692 44.2683 49.1692 44.2683L48.9388 44.3371C49.0974 40.3279 50.665 39.8432 50.665 39.8432V39.8402ZM49.0076 40.9442L48.891 41.2883C48.891 41.2883 47.808 40.3249 47.2785 40.0018C47.2785 40.0018 48.3614 39.9599 49.0076 40.9442ZM46.6801 40.2591C46.6801 40.2591 48.179 41.2225 48.6636 41.8448L48.5649 42.4013C48.5649 42.4013 46.9314 41.6204 46.6801 40.2591ZM45.7827 43.5771C45.7827 43.5771 45.8694 43.7596 45.8933 44.011C45.8933 44.011 45.5044 43.8973 45.4566 44.2473C45.4566 44.2473 44.3078 47.8765 43.4073 48.2684C43.4073 48.2684 43.5659 45.3483 45.7827 43.5741V43.5771ZM43.3834 48.9925C43.3834 48.9925 44.4424 48.9177 46.01 44.379C46.01 44.379 46.728 47.8795 43.3834 49.172V48.9955V48.9925ZM43.1799 46.0873C41.2683 50.0037 39.4015 50.1593 39.4015 50.1593C40.9003 48.3672 42.7192 46.7336 42.7192 46.7336C42.9286 46.3895 42.6504 46.228 42.6504 46.228C42.9526 46.1113 43.1799 46.0843 43.1799 46.0843V46.0873ZM42.4829 49.1929L41.8876 49.1301C42.091 48.8938 42.8509 47.7688 42.8509 47.7688L42.8329 48.7352C42.441 48.8309 42.4829 49.1929 42.4829 49.1929ZM42.1658 46.4553C42.1658 46.4553 39.4494 49.0822 39.3596 49.3605C39.3596 49.3605 40.2332 46.9849 42.1658 46.4553ZM26.4776 49.3605C26.3879 49.0822 23.6685 46.4553 23.6685 46.4553C25.6041 46.9849 26.4776 49.3605 26.4776 49.3605ZM23.1779 46.2309C23.1779 46.2309 22.8997 46.3895 23.1121 46.7366C23.1121 46.7366 24.937 48.3702 26.4328 50.1623C26.4328 50.1623 24.569 50.0067 22.6543 46.0903C22.6543 46.0903 22.8847 46.1143 23.1809 46.2339L23.1779 46.2309ZM22.9984 48.7352L22.9774 47.7688C22.9774 47.7688 23.7373 48.8938 23.9437 49.1301L23.3454 49.1929C23.3454 49.1929 23.3873 48.8309 22.9984 48.7352ZM20.0516 43.5771C22.2654 45.3513 22.418 48.2714 22.418 48.2714C21.5265 47.8795 20.3717 44.2503 20.3717 44.2503C20.3239 43.9002 19.932 44.0139 19.932 44.0139C19.9559 43.7626 20.0486 43.5801 20.0486 43.5801L20.0516 43.5771ZM19.8183 44.379C21.3829 48.9177 22.4479 48.9925 22.4479 48.9925V49.169C19.1033 47.8765 19.8183 44.376 19.8183 44.376V44.379ZM17.2634 42.3983L17.1707 41.8418C17.6553 41.2195 19.1482 40.2561 19.1482 40.2561C18.8969 41.6174 17.2604 42.3983 17.2604 42.3983H17.2634ZM18.5528 40.0018C18.0203 40.3279 16.9373 41.2883 16.9373 41.2883L16.8237 40.9442C17.4698 39.9599 18.5528 40.0018 18.5528 40.0018ZM16.8925 44.3341L16.6621 44.2653C16.6621 44.2653 15.6749 42.6048 15.5851 41.3841C15.5851 41.3841 15.3518 40.0467 15.1663 39.8372C15.1663 39.8372 16.7339 40.3219 16.8925 44.3311V44.3341ZM15.1184 41.9376C15.1184 41.9376 15.6449 43.7357 15.8992 43.9691L15.283 43.8703C15.283 43.8703 14.2209 42.2846 14.6308 39.9569C14.6308 39.9569 15.1872 41.5486 15.1184 41.9376ZM14.9599 36.2948L15.6868 36.1093C15.6868 36.1093 15.2501 38.0002 14.8641 38.4819C14.8641 38.4819 14.6996 37.1206 14.9569 36.2948H14.9599ZM15.3727 38.7512C15.3727 38.7512 16.0398 37.3689 16.3181 35.9328L17.0809 35.466C17.0809 35.466 17.1916 37.8446 15.3727 38.7542V38.7512ZM14.5231 35.7892C14.5231 35.7892 15.998 34.9066 17.3741 34.6104C17.3741 34.6104 16.1087 35.7084 14.5231 35.7892ZM17.0061 34.1287C17.0061 34.1287 14.8671 34.7749 13.826 35.5827C13.826 35.5827 14.3137 33.7816 17.0061 34.1287ZM14.3346 38.4131L13.7782 37.7668C13.7782 37.7668 13.5538 36.6867 13.4341 36.4564L14.3316 36.4324C14.3316 36.4324 14.191 37.8566 14.3316 38.4131H14.3346ZM14.0414 41.5247L13.1589 40.9263L12.752 40.1215C12.752 40.1215 13.7363 40.1873 14.0594 40.0018C14.0594 40.0018 13.9487 40.9682 14.0444 41.5277L14.0414 41.5247ZM11.328 29.0933C14.3795 31.3821 13.2965 34.8138 13.2965 34.8138C13.2965 34.8138 12.399 31.2235 12.0041 30.6521C12.0041 30.6521 11.8306 30.4247 11.6691 30.5084L12.417 33.5871C12.5815 34.1646 12.7161 34.6762 12.7461 34.9335C10.26 32.7943 11.325 29.0933 11.325 29.0933H11.328ZM13.114 37.2373L12.3751 36.8244C11.2054 35.3972 10.628 34.1436 10.628 34.1436C12.6294 34.8617 13.114 37.2373 13.114 37.2373ZM10.3079 34.6732C10.8135 35.7892 11.5494 36.5461 11.5494 36.5461H11.3161C10.3258 35.5977 10.3109 34.6732 10.3109 34.6732H10.3079ZM9.44928 37.3988L9.24285 37.1445C12.7879 36.4115 13.9427 38.8978 13.9427 38.8978C12.417 38.0002 9.83819 37.1445 9.83819 37.1445C9.60484 37.0817 9.44629 37.3988 9.44629 37.3988H9.44928ZM9.70357 37.698C11.6152 38.2036 13.8739 39.5111 13.8739 39.5111C11.3639 40.0676 9.70357 37.698 9.70357 37.698ZM10.1643 41.5247C14.0534 40.5343 14.4274 43.3019 14.4274 43.3019C12.9734 41.8239 10.8344 41.4349 10.8344 41.4349C10.3049 41.4349 10.625 41.8687 10.625 41.8687C12.9285 42.512 13.8051 43.5322 13.8051 43.5322C12.055 43.3438 10.1643 41.5247 10.1643 41.5247ZM13.826 44.7978C13.5957 44.6722 13.3683 44.3341 13.3683 44.3341C17.6284 44.0109 18.9447 46.7964 18.9447 46.7964C16.3839 45.0791 14.2179 44.4956 14.2179 44.4956C13.8021 44.3341 13.823 44.7978 13.823 44.7978H13.826ZM13.9936 44.9534C13.9936 44.9534 15.5313 45.3035 18.6007 47.2123C18.6007 47.2123 15.9022 47.332 13.9936 44.9534ZM15.7167 48.5287C17.5865 47.0747 20.1892 48.1637 20.1892 48.1637C20.2371 48.3253 21.1137 49.0583 21.1137 49.0583C19.7255 48.6424 17.0809 48.2086 17.0809 48.2086C16.5903 48.3432 16.9852 48.6873 16.9852 48.6873C19.0793 49.0822 21.2214 49.6836 21.2214 49.6836C18.0203 50.5872 15.7138 48.5317 15.7138 48.5317L15.7167 48.5287ZM20.9461 51.4967L20.626 51.4818C20.626 51.4818 22.1966 48.9177 24.8442 50.0038C24.8442 50.0038 21.4786 51.015 21.1137 51.2005C21.1137 51.2005 20.9042 51.2723 20.9461 51.4967ZM21.8705 51.4967C21.8705 51.4967 24.916 50.4854 25.5353 50.3957L25.7896 50.5303C25.7896 50.5303 24.201 51.6164 21.8735 51.4967H21.8705ZM25.2062 51.6373C25.625 51.3172 26.34 50.7846 26.34 50.7846L26.9384 50.9013C26.2952 51.4818 25.2032 51.6373 25.2032 51.6373H25.2062ZM26.6841 47.4876C30.3728 48.7322 30.3249 51.383 30.3249 51.383C29.8402 51.2245 27.4649 48.2086 27.4649 48.2086C26.8426 47.9304 27.076 48.5766 27.076 48.5766C27.9735 49.6836 29.2898 51.2514 29.2898 51.2514C27.1418 50.8355 26.6841 47.4876 26.6841 47.4876ZM32.9306 53.232H32.9007C32.6524 53.244 30.8155 53.244 29.0564 52.864C29.0564 52.864 30.8454 52.2208 32.9156 52.1699C34.9829 52.2208 36.7719 52.864 36.7719 52.864C35.0098 53.244 33.1759 53.241 32.9306 53.232ZM36.5385 51.2514C36.5385 51.2514 37.8488 49.6806 38.7553 48.5766C38.7553 48.5766 38.9827 47.9304 38.3604 48.2086C38.3604 48.2086 35.9881 51.2245 35.5034 51.383C35.5034 51.383 35.4555 48.7322 39.1442 47.4876C39.1442 47.4876 38.6835 50.8355 36.5385 51.2514ZM38.8899 50.9043L39.4913 50.7876C39.4913 50.7876 40.2063 51.3172 40.6221 51.6403C40.6221 51.6403 39.5361 51.4847 38.8899 50.9043ZM40.0417 50.5303L40.299 50.3957C40.9213 50.4854 43.9637 51.4967 43.9637 51.4967C41.6363 51.6164 40.0417 50.5303 40.0417 50.5303ZM45.2053 51.4818L44.8852 51.4967C44.93 51.2723 44.7266 51.2005 44.7266 51.2005C44.3527 51.015 40.9901 50.0038 40.9901 50.0038C43.6407 48.9177 45.2053 51.4818 45.2053 51.4818ZM50.1116 48.5287C50.1116 48.5287 47.808 50.5842 44.6069 49.6806C44.6069 49.6806 46.749 49.0792 48.8461 48.6843C48.8461 48.6843 49.238 48.3402 48.7534 48.2056C48.7534 48.2056 46.0998 48.6394 44.7236 49.0553C44.7236 49.0553 45.5912 48.3193 45.642 48.1607C45.642 48.1607 48.2508 47.0747 50.1086 48.5257L50.1116 48.5287ZM47.2336 47.2123C50.297 45.3035 51.8407 44.9534 51.8407 44.9534C49.9261 47.332 47.2336 47.2123 47.2336 47.2123ZM52.0053 44.7978C52.0053 44.7978 52.0232 44.3341 51.6134 44.4956C51.6134 44.4956 49.4444 45.0791 46.8896 46.7964C46.8896 46.7964 48.2029 44.0109 52.466 44.3341C52.466 44.3341 52.2356 44.6722 52.0082 44.7978H52.0053ZM55.667 41.5247C55.667 41.5247 53.7793 43.3438 52.0262 43.5322C52.0262 43.5322 52.9027 42.512 55.2093 41.8687C55.2093 41.8687 55.5294 41.4349 54.9969 41.4349C54.9969 41.4349 52.8519 41.8269 51.4069 43.3019C51.4069 43.3019 51.7749 40.5314 55.667 41.5247ZM51.9574 39.5111C51.9574 39.5111 54.2191 38.2036 56.1247 37.698C56.1247 37.698 54.4734 40.0706 51.9574 39.5111Z" fill="#C10230"/>
<path id="Vector_49" d="M34.2379 35.6367C32.5596 36.7048 31.5544 35.6367 31.5544 35.6367V41.1658C33.1191 41.9467 34.2379 41.1658 34.2379 41.1658V35.6367Z" fill="#C10230"/>
<path id="Vector_50" d="M19.0674 33.8567C19.0674 33.8567 18.6186 40.9146 26.1785 41.3036C26.1785 41.3036 32.1109 41.5549 30.8843 36.2921H28.3654C28.3654 36.2921 30.0975 39.0058 27.0162 39.4516C27.0162 39.4516 23.4292 40.0679 23.6595 34.3563C23.6595 34.3563 24.0514 27.7532 29.0894 23.8338C29.0894 23.8338 27.4081 21.9279 28.3055 19.6331C28.3055 19.6331 29.0445 17.0541 31.8895 16.4049L31.6382 25.4345L32.8439 26.1705V26.1914L32.8558 26.1765L32.8738 26.1914V26.1705L34.0734 25.4345L33.8251 16.4168C36.6462 17.0721 37.3822 19.6361 37.3822 19.6361C38.2797 21.9309 36.5954 23.8368 36.5954 23.8368C41.6393 27.7562 42.0312 34.3593 42.0312 34.3593C42.2555 40.0709 38.6686 39.4546 38.6686 39.4546C35.5902 39.0088 37.3223 36.2951 37.3223 36.2951H34.8004C33.5708 41.5549 39.5092 41.3066 39.5092 41.3066C47.0661 40.9176 46.6233 33.8597 46.6233 33.8597C47.0661 27.3104 39.228 23.7201 39.228 23.7201C41.2354 17.09 36.009 15.4445 33.7862 15.0525L33.7384 13.4249L32.8768 12.5214V12.5034L32.8588 12.5094L32.8468 12.5034V12.5214L31.9793 13.4249L31.9314 15.0436C29.7266 15.4325 24.4493 17.0601 26.4627 23.7201C26.4627 23.7201 18.6246 27.3104 19.0734 33.8597L19.0674 33.8567Z" fill="#C10230"/>
<path id="Vector_51" d="M41.1815 34.7572L38.884 26.9632C35.4137 25.1501 32.9186 27.5018 32.8409 27.5766C32.772 27.5018 30.277 25.1501 26.8037 26.9632L24.5002 34.7572C24.5002 34.7572 28.3654 32.621 32.1199 35.203H32.1229C32.2814 35.3077 32.5417 35.3795 32.8379 35.3795C33.134 35.3795 33.3883 35.3077 33.5469 35.203H33.5648C37.3193 32.621 41.1785 34.7572 41.1785 34.7572H41.1815ZM32.8409 34.808C32.772 34.7572 29.2748 32.4743 25.5143 33.6861L27.1897 27.3073C27.1897 27.3073 29.4872 25.8532 32.8439 27.801C36.2035 25.8503 38.495 27.3073 38.495 27.3073L40.1763 33.6861C36.4069 32.4743 32.9216 34.7572 32.8409 34.808Z" fill="#C10230"/>
<path id="Vector_52" d="M29.1282 32.2471L29.0295 32.2351L28.9876 32.2022L28.9517 32.1334L28.859 31.8701L28.7244 31.4901L27.7312 28.561L27.4948 28.585L27.3961 29.2462L27.0969 31.1191C27.0491 31.4811 27.0012 31.7145 26.9862 31.8342C26.9503 32.0885 26.9144 32.2471 26.9085 32.28L26.8785 32.3727L26.8397 32.4146L26.6751 32.4535L26.6931 32.6929L27.079 32.642L27.4739 32.63L27.4529 32.3907L27.2076 32.3518L27.1717 32.262C27.1657 32.1962 27.1777 32.0287 27.2196 31.7624L27.2675 31.4093L28.138 31.3405L28.3325 31.9598L28.3893 32.1902L28.3684 32.274L28.144 32.3338L28.162 32.5672L28.7513 32.5014L29.224 32.4804L29.209 32.2441L29.1312 32.2381L29.1282 32.2471ZM27.6803 31.0712L27.3183 31.0922L27.5457 29.5843L28.0243 31.0353L27.6803 31.0712Z" fill="#C10230"/>
<path id="Vector_53" d="M30.3458 30.6344V30.8618C30.5193 30.8797 30.627 30.8917 30.6689 30.9186L30.7138 30.9695C30.7228 30.9994 30.7317 31.1131 30.7317 31.2956L30.7228 31.5559C30.7228 31.7115 30.7198 31.8102 30.7138 31.8551L30.5104 31.9718L30.286 32.0137C30.0227 32.0137 29.8014 31.8491 29.6248 31.514C29.4483 31.1849 29.3556 30.7331 29.3556 30.1647C29.3556 29.6501 29.4453 29.2462 29.6129 28.944C29.7834 28.6448 30.0048 28.4982 30.289 28.4982L30.6151 28.57L30.8694 28.7615L30.9591 28.9051L30.9741 29.1235L30.986 29.3958H31.1207C31.1416 28.9649 31.1685 28.6687 31.1984 28.4952L31.1805 28.4473C31.0878 28.3785 30.9561 28.3157 30.7886 28.2469C30.627 28.19 30.4446 28.1631 30.2531 28.1631C30.0975 28.1631 29.9599 28.184 29.8223 28.2319L29.4483 28.4563C29.3317 28.561 29.224 28.6956 29.1252 28.8632C29.0355 29.0307 28.9577 29.2252 28.9069 29.4496C28.856 29.671 28.8321 29.9343 28.8321 30.2365C28.8321 30.5925 28.868 30.9186 28.9517 31.2089C29.0026 31.3973 29.0744 31.5709 29.1701 31.7354C29.2718 31.897 29.3855 32.0286 29.5231 32.1363C29.7206 32.277 29.9449 32.3548 30.1992 32.3548C30.3548 32.3548 30.5104 32.3248 30.6689 32.277C30.8215 32.2111 31.007 32.1304 31.2224 31.9987L31.2044 31.5469C31.2044 31.4572 31.2044 31.2956 31.2134 31.0742L31.2284 30.9216L31.36 30.8199V30.6374L30.8484 30.6434L30.3428 30.6374L30.3458 30.6344Z" fill="#C10230"/>
<path id="Vector_54" d="M33.9717 31.9746L33.9358 31.9447L33.9059 31.8669L33.8341 31.6036L33.7294 31.2146L32.9755 28.2197H32.7332L32.5836 28.866L32.1378 30.715C32.0541 31.068 31.9942 31.2984 31.9733 31.4151C31.9045 31.6754 31.8626 31.819 31.8476 31.8579L31.8147 31.9447L31.7639 31.9776L31.6083 32.0135V32.2498L31.9972 32.2349L32.3861 32.2498V32.0135L32.1438 31.9566L32.1169 31.8639C32.1169 31.7921 32.1438 31.6305 32.1977 31.3672L32.2724 31.0142H33.146L33.2956 31.6544L33.3285 31.8848L33.3016 31.9716L33.0742 32.0135V32.2498L33.6666 32.2349L34.1332 32.2498V32.0135L34.0614 31.9955L33.9597 31.9716L33.9717 31.9746ZM32.7212 30.703H32.3592L32.7092 29.216L33.0712 30.7H32.7212V30.703Z" fill="#C10230"/>
<path id="Vector_55" d="M36.4697 28.6174L36.2663 28.3272L35.9163 28.2225L35.1564 28.2045L34.6628 28.1597L34.6358 28.396L34.8303 28.4259L34.8871 28.4589L34.9081 28.5067L34.9171 28.6294C34.9171 28.6862 34.9081 28.8328 34.9021 29.0602L34.8752 29.5988L34.8123 30.61C34.7944 30.99 34.7645 31.3311 34.7405 31.6333L34.7046 31.8457L34.6777 31.8816L34.4384 31.9145L34.4234 32.1718C34.567 32.1688 34.7226 32.1718 34.8812 32.1808C35.0277 32.1928 35.2491 32.2077 35.5333 32.2376L35.5483 31.9803L35.3179 31.9474L35.2641 31.9055L35.2461 31.8607C35.2401 31.8158 35.2401 31.7081 35.2461 31.5435C35.2521 31.2593 35.2641 30.978 35.285 30.7058L35.3478 29.6257L35.3867 29.0602C35.3957 28.8358 35.4196 28.6653 35.4286 28.5426L35.641 28.5157L35.9402 28.7311C36.006 28.8658 36.0329 29.0632 36.012 29.3295C36 29.5838 35.9492 29.7663 35.8714 29.895L35.5932 30.0775L35.5333 30.0595L35.4675 30.0296L35.4256 30.0865L35.4735 30.2929L35.5752 30.3318L35.6799 30.3468L36.0958 30.1942C36.2244 30.0835 36.3291 29.9339 36.3979 29.7544C36.4697 29.5659 36.5116 29.3684 36.5206 29.156C36.5295 28.9465 36.5206 28.7551 36.4607 28.6204L36.4697 28.6174Z" fill="#C10230"/>
<path id="Vector_56" d="M38.1091 32.528L38.139 32.4891C38.1749 32.2498 38.2318 31.9416 38.3126 31.5646L38.1719 31.5467C38.1121 31.798 38.0702 31.9715 38.0313 32.0583L38.0074 32.1092L37.813 32.1391L37.4719 32.1092L37.1518 32.0463L37.1997 31.6933L37.3732 30.4935L37.6454 30.5115L37.9386 30.5863L38.0014 30.6731C38.0104 30.7239 38.0014 30.8615 37.9685 31.0859L38.1121 31.1069L38.1959 30.4846L38.2946 29.8563L38.157 29.8383C38.1331 30.0089 38.1031 30.1225 38.0852 30.1973L38.0493 30.2542H37.9386C37.7771 30.2452 37.6843 30.2243 37.6604 30.2213L37.424 30.1794L37.5078 29.602C37.5587 29.2609 37.6005 28.9946 37.6544 28.7852L37.9595 28.8091L38.2826 28.8899L38.4113 28.9527V29.0155C38.4143 29.0664 38.4083 29.198 38.3784 29.4254L38.507 29.4494C38.5489 29.204 38.5758 29.0664 38.5848 29.0395L38.6745 28.6326L38.6686 28.5937L38.6177 28.5697L38.3694 28.5219L38.0254 28.489C37.8369 28.468 37.6664 28.4441 37.5138 28.4201L37.2924 28.3902L36.9095 28.3154L36.8706 28.5608L37.1039 28.6475L37.1279 28.6954C37.1279 28.7403 37.1219 28.8689 37.092 29.0814C37.0531 29.4075 37.0232 29.593 37.0142 29.6349L36.8287 30.9124C36.8048 31.065 36.7689 31.3014 36.712 31.6245C36.6821 31.798 36.6582 31.9297 36.6372 32.0075L36.4488 32.1481L36.4218 32.3007C36.7719 32.3396 36.9633 32.3635 36.9873 32.3635C37.092 32.3784 37.2715 32.4173 37.5377 32.4592L37.807 32.5041L38.1121 32.534L38.1091 32.528Z" fill="#C10230"/>
</g>
<defs>
<clipPath id="clip0_289_1775">
<rect width="64" height="64" fill="white" transform="translate(0.839355)"/>
</clipPath>
</defs>
</svg>
